<svg width="20" height="20" viewBox="0 0 20 20" fill="none" xmlns="http://www.w3.org/2000/svg">
<path fill-rule="evenodd" clip-rule="evenodd" d="M19.4586 12.1998V19.1086C19.4583 19.3449 19.3643 19.5715 19.1972 19.7386C19.0301 19.9057 18.8036 19.9997 18.5673 20H11.6585C11.4222 19.9997 11.1956 19.9057 11.0285 19.7386C10.8614 19.5715 10.7674 19.3449 10.7671 19.1086V12.1998C10.7674 11.9635 10.8614 11.737 11.0285 11.5699C11.1956 11.4028 11.4222 11.3088 11.6585 11.3084H18.5673C18.8036 11.3087 19.0301 11.4028 19.1972 11.5699C19.3643 11.737 19.4583 11.9635 19.4586 12.1998ZM0.891406 0.541333H7.80016C8.03647 0.541654 8.26302 0.635672 8.43012 0.802774C8.59722 0.969876 8.69124 1.19642 8.69156 1.43274V8.34153C8.69126 8.57785 8.59725 8.8044 8.43014 8.9715C8.26303 9.1386 8.03648 9.23261 7.80016 9.2329H0.891406C0.655093 9.23259 0.428546 9.13858 0.261443 8.97148C0.0943403 8.80439 0.000320398 8.57784 0 8.34153L0 1.43274C0.000320375 1.19642 0.094339 0.969876 0.261441 0.802774C0.428542 0.635672 0.655089 0.541654 0.891406 0.541333ZM8.69141 12.1998V19.1086C8.6911 19.3449 8.5971 19.5714 8.43003 19.7385C8.26296 19.9056 8.03645 19.9997 7.80016 20H0.891406C0.655089 19.9997 0.428542 19.9057 0.261441 19.7386C0.094339 19.5715 0.000320375 19.3449 0 19.1086L0 12.1998C0.000351393 11.9636 0.094385 11.737 0.261484 11.57C0.428584 11.4029 0.655113 11.3089 0.891406 11.3086H7.80016C8.03648 11.3089 8.26303 11.4029 8.43013 11.57C8.59724 11.7371 8.69125 11.9637 8.69156 12.2L8.69141 12.1998ZM15.6766 0.23313L19.7669 4.32344C19.9162 4.47306 20 4.67578 20 4.88713C20 5.09849 19.9162 5.30121 19.7669 5.45083L15.6766 9.54114C15.5269 9.69043 15.3242 9.77427 15.1129 9.77427C14.9015 9.77427 14.6988 9.69043 14.5492 9.54114L10.4589 5.45083C10.3096 5.30121 10.2257 5.09849 10.2257 4.88713C10.2257 4.67578 10.3096 4.47306 10.4589 4.32344L14.5492 0.23313C14.6988 0.083842 14.9015 0 15.1129 0C15.3242 0 15.5269 0.083842 15.6766 0.23313Z" fill="white"/>
</svg>
