<svg width="18" height="18" viewBox="0 0 18 18" fill="none" xmlns="http://www.w3.org/2000/svg">
<g clip-path="url(#clip0_3978_11600)">
<path d="M0.284575 8.08941C0.479854 8.40842 0.763709 8.66385 1.10167 8.82452C1.26193 8.90074 1.33005 9.09258 1.25369 9.25298C1.17734 9.41324 0.985492 9.48135 0.825231 9.405C0.696693 9.34279 0.573648 9.27001 0.457195 9.18734C0.809713 10.2324 1.78899 10.9367 2.892 10.9385H2.91123C2.89269 10.7611 2.88857 10.5826 2.89873 10.4046C3.04114 8.69063 4.48582 7.37915 6.20557 7.40277H8.03476C8.21233 7.40277 8.35611 7.25885 8.35611 7.08143C8.35611 6.54887 8.78786 6.11712 9.32042 6.11712H10.2847C10.4623 6.11712 10.6061 6.26104 10.6061 6.4386C10.6061 6.61603 10.4623 6.75995 10.2847 6.75995H9.32042C9.14285 6.75995 8.99907 6.90386 8.99907 7.08143C8.99907 7.61398 8.56732 8.0456 8.03476 8.0456H6.20557C4.82474 8.02129 3.66062 9.06965 3.5406 10.4454C3.52494 10.6887 3.54376 10.933 3.59649 11.1712C3.61036 11.2354 3.6267 11.2959 3.6451 11.3567C3.64854 11.3685 3.65211 11.3807 3.65595 11.3927C3.67586 11.4569 3.69811 11.5181 3.72283 11.5788L3.73052 11.597C4.03868 12.3343 4.66943 12.8884 5.44024 13.0991L5.46373 13.1051C5.5225 13.1207 5.58224 13.1334 5.64266 13.1447C5.67287 13.1502 5.70377 13.1543 5.73426 13.1588C5.77807 13.1653 5.82146 13.172 5.86582 13.1763C5.94519 13.1836 6.02649 13.1885 6.10614 13.1885C6.91953 13.1863 7.68403 12.8 8.16852 12.1467C8.01622 12.0495 7.87011 11.9432 7.73072 11.8285C7.59422 11.715 7.57554 11.5123 7.68911 11.3758C7.80254 11.2393 8.00524 11.2206 8.14174 11.3342C9.02983 12.073 10.2027 12.374 11.3369 12.1542C12.4711 11.9342 13.4464 11.2165 13.9939 10.1992C13.8214 9.96475 13.69 9.70273 13.6053 9.42423C13.5563 9.25463 13.6532 9.07706 13.8225 9.0268C13.9917 8.9764 14.17 9.07212 14.2215 9.24103C14.4706 10.086 15.2606 10.6548 16.141 10.623C17.0214 10.5911 17.7684 9.96667 17.9557 9.1059C18.1431 8.24514 17.7235 7.36679 16.9359 6.97184C16.895 7.15874 16.84 7.34235 16.7716 7.52115C16.7071 7.68649 16.5206 7.76834 16.3551 7.70366C16.1896 7.63911 16.1079 7.45249 16.1725 7.28714C16.2734 7.02732 16.3397 6.75541 16.3695 6.47843C16.3748 6.43407 16.3779 6.3926 16.3811 6.34989C16.3866 6.2723 16.3918 6.19526 16.3918 6.11712C16.3918 4.72352 15.4919 3.4895 14.1649 3.06365C14.266 3.2165 14.3558 3.37662 14.4336 3.54251C14.4872 3.64757 14.4788 3.77363 14.412 3.87072C14.3451 3.96781 14.2303 4.02055 14.113 4.00805C13.9957 3.99542 13.8948 3.91961 13.8499 3.81057C13.1476 2.30506 11.4167 1.57901 9.8505 2.13312C9.61347 2.2147 9.38702 2.32387 9.17554 2.45832C9.02667 2.55527 8.82755 2.51325 8.7306 2.36452C8.63364 2.2158 8.67567 2.01653 8.82453 1.91958C8.873 1.88745 8.92382 1.85984 8.97367 1.83032C8.29294 1.50705 7.49424 1.55388 6.85608 1.95474C7.00508 2.08643 7.13829 2.23502 7.2531 2.39762C7.32162 2.49169 7.33384 2.61542 7.28523 2.72116C7.23662 2.8269 7.13458 2.89817 7.01854 2.90724C6.9025 2.91644 6.79058 2.86206 6.7259 2.76524C6.57429 2.54923 6.38011 2.36631 6.15544 2.22788H6.15242C5.31569 1.70755 4.2205 1.90832 3.62286 2.69177C3.75002 2.72803 3.87417 2.7743 3.99419 2.8302C4.10062 2.87785 4.17299 2.97933 4.18329 3.09551C4.19345 3.21169 4.14003 3.3243 4.04349 3.3898C3.94695 3.45517 3.82253 3.46327 3.7183 3.41068C3.19783 3.16473 2.59469 3.16404 2.07367 3.40903C1.55279 3.65388 1.16841 4.11874 1.02573 4.67656C1.19862 4.61078 1.37797 4.56395 1.56089 4.53703C1.73681 4.5119 1.89968 4.63426 1.92467 4.81004C1.94966 4.98582 1.82744 5.14869 1.65153 5.17368C1.35765 5.21598 1.07764 5.32598 0.833608 5.49516L0.829351 5.49873C-0.00793157 6.07716 -0.24894 7.20832 0.280043 8.07774C0.281966 8.08227 0.282652 8.08611 0.284575 8.08941Z" fill="white"/>
<path d="M13.6595 14.1531C15.3431 14.1531 16.7129 13.0719 16.7129 11.7424C16.7124 11.5573 16.6848 11.3732 16.6309 11.196C15.8664 11.3702 15.0643 11.1827 14.4562 10.6875C13.7042 11.927 12.4043 12.7316 10.9595 12.8516C11.4253 13.5037 12.1302 13.9449 12.9202 14.0789C13.1633 14.1292 13.4112 14.154 13.6595 14.1531Z" fill="white"/>
<path d="M10.2204 12.8467C9.76862 12.807 9.32533 12.6996 8.90539 12.5278C8.89371 12.5264 8.88218 12.5241 8.87078 12.5211C8.83865 12.5074 8.80651 12.4909 8.77438 12.4767C8.76147 12.471 8.7476 12.4671 8.73483 12.4609C8.62318 12.6182 8.49753 12.765 8.35938 12.8994C8.37668 13.4181 8.80143 13.8301 9.32039 13.8316C9.60768 13.8254 9.88343 13.9449 10.0754 14.1587L11.9345 16.2882C12.0007 16.3603 12.0938 16.4019 12.1916 16.4029C12.3804 16.4035 12.534 16.251 12.5347 16.0622V14.6435C11.5371 14.4128 10.6911 13.7559 10.2204 12.8467Z" fill="white"/>
</g>
<defs>
<clipPath id="clip0_3978_11600">
<rect width="18" height="18" fill="white"/>
</clipPath>
</defs>
</svg>
