<svg width="21" height="20" viewBox="0 0 21 20" fill="none" xmlns="http://www.w3.org/2000/svg">
<path d="M19.6878 7.82833L18.056 7.62917C17.9215 7.23167 17.7557 6.84833 17.5622 6.48417L18.5698 5.23833C18.9778 4.73417 18.93 4.0225 18.464 3.58917L17.0969 2.27667C16.6413 1.825 15.9 1.78 15.374 2.17083L14.0782 3.13833C13.6989 2.9525 13.2996 2.79333 12.8848 2.66417L12.6773 1.1C12.5992 0.4725 12.0446 0 11.3875 0H9.44333C8.78629 0 8.23166 0.4725 8.15355 1.0975L7.94611 2.66417C7.53123 2.79333 7.13197 2.95167 6.75267 3.13833L5.45595 2.17083C4.93171 1.78 4.19048 1.825 3.73827 2.2725L2.37125 3.58417C1.90082 4.0225 1.85308 4.73417 2.26102 5.23917L3.26871 6.48417C3.07429 6.84833 2.90938 7.23167 2.77485 7.62917L1.1457 7.82833C0.492129 7.90333 0 8.43583 0 9.06667V10.9333C0 11.5642 0.492129 12.0967 1.14309 12.1717L2.77485 12.3708C2.90938 12.7683 3.07516 13.1517 3.26871 13.5158L2.26102 14.7617C1.85308 15.2658 1.90082 15.9775 2.36691 16.4108L3.73393 17.7233C4.19048 18.1742 4.93084 18.2192 5.45682 17.8283L6.75354 16.8608C7.13284 17.0475 7.53209 17.2067 7.94611 17.335L8.15355 18.8983C8.23166 19.5275 8.78629 20 9.44333 20H11.3875C12.0446 20 12.5992 19.5275 12.6773 18.9025L12.8848 17.3358C13.2988 17.2067 13.698 17.0475 14.0773 16.8617L15.3749 17.8292C15.9 18.2208 16.6413 18.175 17.0926 17.7275L18.4596 16.415C18.93 15.9767 18.9778 15.2658 18.5698 14.7608L17.5622 13.5158C17.7566 13.1517 17.9224 12.7683 18.056 12.3708L19.6843 12.1717C20.3379 12.0967 20.83 11.5642 20.83 10.9333V9.06667C20.8309 8.43583 20.3387 7.90333 19.6878 7.82833ZM10.4154 14.1667C8.02249 14.1667 6.07567 12.2975 6.07567 10C6.07567 7.7025 8.02249 5.83333 10.4154 5.83333C12.8084 5.83333 14.7552 7.7025 14.7552 10C14.7552 12.2975 12.8084 14.1667 10.4154 14.1667Z" fill="#C4D4E6"/>
</svg>
