<svg width="120" height="137" viewBox="0 0 120 137" fill="none" xmlns="http://www.w3.org/2000/svg">
<path d="M91.9791 29.3363C74.3254 11.6423 45.6942 11.584 28.0127 29.2586C6.07723 51.1987 12.2574 88.3001 39.9596 102.03C41.8345 102.959 43.3394 104.469 44.3043 106.283C44.5268 106.696 44.9493 106.964 45.4193 106.964H74.5651C75.0351 106.964 75.4576 106.696 75.6775 106.28C76.64 104.469 78.1499 102.972 80.0673 102.02C107.808 88.239 113.878 51.2711 91.9791 29.3363ZM76.9175 85.2503C74.3644 92.1345 65.5321 93.3418 60.7109 88.504C60.3159 88.1108 59.686 88.1108 59.291 88.504C54.5122 93.2994 45.6557 92.1835 43.0844 85.2503C35.9223 84.2459 30.5026 78.1193 30.5026 70.7176C30.5026 66.4645 32.32 62.5045 35.4073 59.7568C35.7823 59.4236 35.8698 58.8651 35.5898 58.4493C31.3186 52.139 34.2669 43.2916 41.707 40.9534C42.1069 40.8282 42.3819 40.47 42.4119 40.0492C42.9811 31.4919 53.8693 28.6565 59.2885 34.0453C59.686 34.4385 60.3159 34.4385 60.7134 34.0453C66.1636 28.6257 77.0227 31.523 77.5899 40.0492C77.6199 40.47 77.8949 40.8282 78.2949 40.9534C85.7305 43.2901 88.6853 52.136 84.412 58.4493C84.1321 58.8651 84.2196 59.4236 84.5945 59.7568C87.6819 62.5045 89.4993 66.4645 89.4993 70.7176C89.4995 78.1193 84.0798 84.2459 76.9175 85.2503Z" fill="#1960FF"/>
<path d="M91.9791 29.3363C74.3254 11.6423 45.6942 11.584 28.0127 29.2586C6.07723 51.1987 12.2574 88.3001 39.9596 102.03C41.8345 102.959 43.3394 104.469 44.3043 106.283C44.5268 106.696 44.9493 106.964 45.4193 106.964H74.5651C75.0351 106.964 75.4576 106.696 75.6775 106.28C76.64 104.469 78.1499 102.972 80.0673 102.02C107.808 88.239 113.878 51.2711 91.9791 29.3363ZM76.9175 85.2503C74.3644 92.1345 65.5321 93.3418 60.7109 88.504C60.3159 88.1108 59.686 88.1108 59.291 88.504C54.5122 93.2994 45.6557 92.1835 43.0844 85.2503C35.9223 84.2459 30.5026 78.1193 30.5026 70.7176C30.5026 66.4645 32.32 62.5045 35.4073 59.7568C35.7823 59.4236 35.8698 58.8651 35.5898 58.4493C31.3186 52.139 34.2669 43.2916 41.707 40.9534C42.1069 40.8282 42.3819 40.47 42.4119 40.0492C42.9811 31.4919 53.8693 28.6565 59.2885 34.0453C59.686 34.4385 60.3159 34.4385 60.7134 34.0453C66.1636 28.6257 77.0227 31.523 77.5899 40.0492C77.6199 40.47 77.8949 40.8282 78.2949 40.9534C85.7305 43.2901 88.6853 52.136 84.412 58.4493C84.1321 58.8651 84.2196 59.4236 84.5945 59.7568C87.6819 62.5045 89.4993 66.4645 89.4993 70.7176C89.4995 78.1193 84.0798 84.2459 76.9175 85.2503Z" fill="url(#paint0_radial_4119_8467)"/>
<path d="M79.8 61.2699C78.5461 60.6117 78.3263 58.8478 79.51 57.911C81.3374 56.4658 82.3848 54.3067 82.3848 51.9822C82.3848 48.0723 79.385 44.8086 75.5202 44.4679C74.3328 44.6608 72.8979 45.2519 72.3779 46.9201C72.1104 47.7767 71.323 48.3253 70.4705 48.3253C69.0471 48.3253 68.1676 46.9076 68.6031 45.5926C69.3081 43.466 70.833 41.888 72.9279 41.0489C73.3628 40.8761 73.6253 40.4402 73.5703 39.9769C73.2058 36.9934 70.5457 35.333 67.6582 35.333C64.5128 35.333 62.001 37.2692 62.001 41.0539V81.6488C62.001 85.2131 64.5983 87.0992 67.1707 87.3872C69.5381 87.6502 72.6004 86.6458 73.4378 82.9362C73.6378 82.0545 74.4028 81.4158 75.3052 81.3783C81.0224 81.1378 85.4997 76.4564 85.4997 70.7179C85.4999 66.7454 83.3175 63.1235 79.8 61.2699ZM75.7777 70.768C76.2027 71.5044 76.4002 72.1056 76.4452 72.2559C76.8379 73.5463 75.8717 74.8458 74.5303 74.8458C73.6753 74.8458 72.8606 74.2963 72.6204 73.4281C72.6176 73.4181 72.3354 72.5614 71.6554 71.9277C71.4994 71.8095 71.2237 71.4989 70.6005 71.3391C69.833 71.1437 69.1431 71.3767 68.7981 71.5345C67.7932 71.9929 66.6082 71.5495 66.1507 70.5401C65.6908 69.5332 66.1357 68.3459 67.1407 67.8875C68.9736 67.0502 71.1052 67.0292 72.8979 67.9502C73.0849 67.6543 73.1976 67.3072 73.2078 66.9182C73.2253 65.8111 74.1428 64.9294 75.2402 64.9494C76.3452 64.967 77.2251 65.8812 77.2076 66.9858C77.1839 68.3447 76.6969 69.6865 75.7777 70.768Z" fill="#19F3FF"/>
<path d="M63.501 127.505C62.3526 127.505 61.4299 126.535 61.5054 125.368C61.5744 124.303 62.5043 123.497 63.5695 123.497H73.2387C73.9054 123.497 74.4609 122.974 74.4884 122.306C74.5051 121.902 74.5001 122.638 74.5001 111.049C74.5001 110.933 75.9786 110.974 45.499 110.974C45.5025 111.438 45.5018 109.588 45.5018 114.981C45.5018 115.673 46.0615 116.234 46.7517 116.234H56.1827C57.2479 116.234 58.1778 117.039 58.2468 118.104C58.3223 119.271 57.3999 120.241 56.2512 120.241H46.7517C46.0615 120.241 45.5018 120.802 45.5018 121.494C45.5018 129.584 51.9637 136.248 59.957 136.272C65.1599 136.287 69.7352 133.541 72.3055 129.417C72.8242 128.585 72.2203 127.505 71.2411 127.505H63.501Z" fill="url(#paint1_linear_4119_8467)"/>
<path d="M55.1853 35.9731C52.0377 34.3953 46.9498 35.7359 46.4323 39.9785C46.3758 40.4423 46.6398 40.8782 47.0733 41.0513C49.1644 41.8868 50.6893 43.4613 51.3953 45.5821C51.745 46.6329 51.2633 47.8197 50.2256 48.2021C49.1444 48.6006 47.9632 48.009 47.6235 46.9202C47.1033 45.2528 45.6683 44.6626 44.4819 44.469C40.6179 44.8097 37.618 48.0729 37.618 51.9833C37.618 54.3078 38.6652 56.4671 40.4911 57.9111C41.6688 58.8422 41.4636 60.607 40.2019 61.272C36.6858 63.1256 34.5015 66.7457 34.5015 70.7198C34.5015 76.4565 38.9797 81.1384 44.6961 81.3788C45.6096 81.4172 46.3655 82.0847 46.572 82.9771C47.4232 86.6539 50.4733 87.6518 52.8304 87.388C55.4043 87.0995 58.0011 85.2132 58.0011 81.6494V41.0543C58.0011 38.0212 56.47 36.6171 55.1853 35.9731ZM50.4006 72.3429C48.9444 72.7143 48.3862 74.4191 48.3809 74.4361C48.1092 75.2892 47.3185 75.8398 46.4685 75.8398C45.1509 75.8398 44.1607 74.5619 44.5571 73.2601C44.6031 73.1093 44.8009 72.5082 45.2251 71.7718C42.8315 68.9459 43.5212 64.6735 46.6775 62.7418C47.6207 62.165 48.8512 62.4633 49.4266 63.4074C50.0023 64.3519 49.7049 65.585 48.7624 66.1619C47.863 66.7124 47.4725 67.948 48.1069 68.9509C48.5019 68.7503 48.9357 68.581 49.4139 68.459C50.4836 68.1875 51.5728 68.8339 51.8455 69.9065C52.1177 70.9788 51.471 72.0696 50.4006 72.3429Z" fill="#19F3FF"/>
<path d="M8.00394 63.3807H2.00428C0.899844 63.3807 0.00439453 62.4835 0.00439453 61.3769C0.00439453 60.2703 0.899844 59.373 2.00428 59.373H8.00394C9.10838 59.373 10.0038 60.2703 10.0038 61.3769C10.0038 62.4835 9.10813 63.3807 8.00394 63.3807Z" fill="url(#paint2_linear_4119_8467)"/>
<path d="M23.2331 26.5425C22.7211 26.5425 22.2094 26.3469 21.819 25.9556L17.5764 21.7048C16.7955 20.922 16.7955 19.6536 17.5764 18.8709C18.3576 18.0886 19.6236 18.0886 20.4048 18.8709L24.6473 23.1217C25.9112 24.3881 24.999 26.5425 23.2331 26.5425Z" fill="url(#paint3_linear_4119_8467)"/>
<path d="M18.991 104.475C17.2248 104.475 16.3134 102.32 17.5768 101.054L21.8193 96.8035C22.6005 96.0212 23.8665 96.0212 24.6477 96.8035C25.4286 97.5862 25.4286 98.8546 24.6477 99.6374L20.4052 103.888C20.0144 104.279 19.503 104.475 18.991 104.475Z" fill="url(#paint4_linear_4119_8467)"/>
<path d="M117.997 63.3807H111.997C110.893 63.3807 109.998 62.4835 109.998 61.3769C109.998 60.2703 110.893 59.373 111.997 59.373H117.997C119.102 59.373 119.997 60.2703 119.997 61.3769C119.997 62.4835 119.101 63.3807 117.997 63.3807Z" fill="url(#paint5_linear_4119_8467)"/>
<path d="M96.7674 26.5425C95.0012 26.5425 94.0898 24.3879 95.3532 23.1217L99.5957 18.8709C100.377 18.0886 101.643 18.0886 102.424 18.8709C103.205 19.6536 103.205 20.922 102.424 21.7048L98.1815 25.9556C97.7908 26.3469 97.2791 26.5425 96.7674 26.5425Z" fill="url(#paint6_linear_4119_8467)"/>
<path d="M101.009 104.475C100.498 104.475 99.9858 104.279 99.5953 103.888L95.3528 99.6374C94.5719 98.8546 94.5719 97.5862 95.3528 96.8035C96.134 96.0212 97.3999 96.0212 98.1811 96.8035L102.424 101.054C103.688 102.321 102.775 104.475 101.009 104.475Z" fill="url(#paint7_linear_4119_8467)"/>
<path d="M61.2378 10.2639C59.9872 11.5135 57.8233 10.6328 57.8256 8.84231L57.8339 2.8307C57.8358 1.72409 58.7321 0.828422 59.8366 0.82959C60.9412 0.83129 61.8351 1.72943 61.8338 2.83622L61.8255 8.84782C61.8246 9.4013 61.6001 9.90187 61.2378 10.2639Z" fill="url(#paint8_linear_4119_8467)"/>
<defs>
<radialGradient id="paint0_radial_4119_8467" cx="0" cy="0" r="1" gradientUnits="userSpaceOnUse" gradientTransform="translate(60.001 62.1246) rotate(-180) scale(51 51.1)">
<stop stop-color="#19F7FF"/>
<stop offset="0.727629" stop-color="#19B2FF"/>
<stop offset="1" stop-color="#194FFF"/>
</radialGradient>
<linearGradient id="paint1_linear_4119_8467" x1="60.0054" y1="110.967" x2="60.0054" y2="136.272" gradientUnits="userSpaceOnUse">
<stop stop-color="#1997FF"/>
<stop offset="1" stop-color="#1960FF"/>
</linearGradient>
<linearGradient id="paint2_linear_4119_8467" x1="0.000854414" y1="61.1221" x2="10.0009" y2="61.1221" gradientUnits="userSpaceOnUse">
<stop stop-color="#195EFF"/>
<stop offset="1" stop-color="#19B1FF"/>
</linearGradient>
<linearGradient id="paint3_linear_4119_8467" x1="18.0006" y1="19.041" x2="24.0142" y2="26.0431" gradientUnits="userSpaceOnUse">
<stop stop-color="#195DFF"/>
<stop offset="1" stop-color="#19B1FF"/>
</linearGradient>
<linearGradient id="paint4_linear_4119_8467" x1="18.0007" y1="104.211" x2="25.0163" y2="96.2084" gradientUnits="userSpaceOnUse">
<stop stop-color="#195DFF"/>
<stop offset="1" stop-color="#19B1FF"/>
</linearGradient>
<linearGradient id="paint5_linear_4119_8467" x1="120" y1="61.1221" x2="111" y2="61.1221" gradientUnits="userSpaceOnUse">
<stop stop-color="#195DFF"/>
<stop offset="1" stop-color="#19B1FF"/>
</linearGradient>
<linearGradient id="paint6_linear_4119_8467" x1="102" y1="19.041" x2="94.986" y2="26.041" gradientUnits="userSpaceOnUse">
<stop stop-color="#195DFF"/>
<stop offset="1" stop-color="#19B1FF"/>
</linearGradient>
<linearGradient id="paint7_linear_4119_8467" x1="95.9996" y1="97.1967" x2="102.011" y2="103.197" gradientUnits="userSpaceOnUse">
<stop stop-color="#19B1FF"/>
<stop offset="1" stop-color="#195DFF"/>
</linearGradient>
<linearGradient id="paint8_linear_4119_8467" x1="60" y1="1.00175" x2="60" y2="10.0194" gradientUnits="userSpaceOnUse">
<stop stop-color="#195DFF"/>
<stop offset="1" stop-color="#19B1FF"/>
</linearGradient>
</defs>
</svg>
