<svg width="24" height="24" viewBox="0 0 24 24" fill="none" xmlns="http://www.w3.org/2000/svg">
<g clip-path="url(#clip0_3978_11979)">
<path d="M7 9.85547H2.71548C2.32218 9.85547 2.00418 10.1735 2 10.571V21.2822C2 21.6797 2.32218 21.9977 2.71548 21.9977H7C7.39749 21.9977 7.71548 21.6756 7.71548 21.2822V10.571C7.71548 10.1735 7.39331 9.85547 7 9.85547Z" fill="#C4D4E6"/>
<path d="M14.1421 2.00195H9.85757C9.46427 2.00195 9.14209 2.31994 9.14209 2.71325V21.2823C9.14209 21.6798 9.46427 21.9978 9.85757 21.9978H14.1421C14.5396 21.9978 14.8576 21.6756 14.8576 21.2823V2.71743C14.8576 2.31994 14.5354 2.00195 14.1421 2.00195Z" fill="#C4D4E6"/>
<path d="M21.2847 7.71387H17.0001C16.6027 7.71387 16.2847 8.03186 16.2847 8.42935V21.2829C16.2847 21.6804 16.6068 21.9984 17.0001 21.9984H21.2847C21.6822 21.9984 22.0001 21.6762 22.0001 21.2829V8.42935C22.0001 8.03186 21.678 7.71387 21.2847 7.71387Z" fill="#C4D4E6"/>
</g>
<defs>
<clipPath id="clip0_3978_11979">
<rect width="20" height="20" fill="white" transform="translate(2 2)"/>
</clipPath>
</defs>
</svg>
