<svg width="100" height="100" viewBox="0 0 100 100" fill="none" xmlns="http://www.w3.org/2000/svg">
<path opacity="0.972" fill-rule="evenodd" clip-rule="evenodd" d="M75.22 15.7289C74.1528 17.7461 72.9088 19.6418 71.488 21.4158C71.1325 21.6527 70.8363 21.9489 70.5994 22.3044C70.0143 21.4229 69.3035 20.6528 68.4668 19.9941C72.083 16.2253 73.7121 11.7232 73.354 6.48762C74.1868 5.63419 75.0754 5.57495 76.0197 6.30991C76.7812 9.52897 76.5147 12.6686 75.22 15.7289Z" fill="#A56A43"/>
<path opacity="0.996" fill-rule="evenodd" clip-rule="evenodd" d="M68.4671 19.9937C69.3038 20.6524 70.0147 21.4225 70.5997 22.304C70.8777 23.0458 70.9962 23.8158 70.9552 24.6143C70.8192 25.0757 70.7599 25.5496 70.7775 26.0361C70.0303 27.4637 68.9049 28.5004 67.4008 29.1461C67.3081 29.2458 67.2489 29.3643 67.2231 29.5015C68.6456 33.9944 68.8233 38.5261 67.7563 43.0968C55.8537 39.8208 44.9539 41.8052 35.0565 49.0503C30.449 52.7269 27.487 57.4364 26.1707 63.1787C23.1166 62.633 20.8655 63.6993 19.4175 66.3776C17.5454 65.2918 15.8274 63.9884 14.2637 62.4679C13.3084 63.1233 12.3013 63.6859 11.2425 64.1562C7.72458 64.6357 5.71047 63.1251 5.2002 59.6244C5.24972 58.3409 5.69402 57.2155 6.53307 56.2478C7.44233 55.5721 8.36054 54.9204 9.28767 54.2929C8.34366 51.7726 7.92899 49.166 8.04365 46.4734C8.13161 40.4339 9.87916 34.9247 13.2863 29.9458C21.714 18.4912 33.0583 13.2486 47.3189 14.2179C53.0487 14.9656 57.995 17.3056 62.1582 21.2377C63.0743 20.6167 64.0518 20.1132 65.0905 19.7271C66.242 19.5639 67.3674 19.6528 68.4671 19.9937Z" fill="#EFC419"/>
<path opacity="0.986" fill-rule="evenodd" clip-rule="evenodd" d="M70.7774 26.0367C70.7598 25.5503 70.8192 25.0763 70.9551 24.615C75.5761 24.6447 80.1967 24.615 84.817 24.5261C85.592 24.1305 85.8586 23.5085 85.6167 22.6601C85.4093 22.2158 85.0836 21.8901 84.6393 21.6827C80.2254 21.6528 75.8418 21.564 71.4883 21.4161C72.9091 19.6421 74.1531 17.7464 75.2203 15.7292C79.0169 14.9107 82.5712 15.5327 85.8833 17.5952C88.2146 19.127 90.2286 20.993 91.9257 23.1933C88.929 27.2391 84.9601 29.7567 80.0187 30.7462C76.9499 31.3025 74.3138 30.5027 72.1103 28.347C71.5496 27.6397 71.1053 26.8695 70.7774 26.0367Z" fill="#4FB96E"/>
<path fill-rule="evenodd" clip-rule="evenodd" d="M49.6293 19.9946C51.6206 20.0987 52.1537 21.0169 51.2287 22.7492C49.4452 23.3947 48.6454 22.7727 48.8296 20.8832C49.0723 20.5524 49.3389 20.2562 49.6293 19.9946Z" fill="#B29145"/>
<path fill-rule="evenodd" clip-rule="evenodd" d="M71.4882 21.4165C75.8417 21.5644 80.2252 21.6532 84.6392 21.6831C85.0835 21.8905 85.4092 22.2162 85.6166 22.6605C85.8585 23.5089 85.5919 24.1309 84.8169 24.5265C80.1966 24.6154 75.576 24.6451 70.955 24.6154C70.9961 23.8169 70.8776 23.0469 70.5996 22.3051C70.8365 21.9497 71.1328 21.6535 71.4882 21.4165Z" fill="#4C8056"/>
<path fill-rule="evenodd" clip-rule="evenodd" d="M44.831 23.194C46.7041 22.9624 47.3855 23.7324 46.8747 25.5043C45.9317 26.478 45.0432 26.4186 44.209 25.3266C43.9589 24.4634 44.1663 23.7525 44.831 23.194Z" fill="#B29145"/>
<path fill-rule="evenodd" clip-rule="evenodd" d="M54.0722 23.194C55.9453 22.9624 56.6267 23.7324 56.1159 25.5043C55.173 26.478 54.2844 26.4186 53.4502 25.3266C53.2001 24.4634 53.4075 23.7525 54.0722 23.194Z" fill="#B29145"/>
<path fill-rule="evenodd" clip-rule="evenodd" d="M27.0591 23.3711C28.8133 23.3837 29.3762 24.2129 28.7474 25.8591C23.623 29.0278 19.8317 33.3522 17.3736 38.8324C16.3623 41.219 15.7995 43.707 15.6853 46.2965C15.8529 48.5295 16.1787 50.7214 16.6627 52.872C15.7964 54.218 14.8486 54.2774 13.8193 53.0497C12.11 47.8673 12.3469 42.7727 14.5301 37.7661C17.22 31.6703 21.3963 26.8719 27.0591 23.3711Z" fill="#F5EEC8"/>
<path fill-rule="evenodd" clip-rule="evenodd" d="M49.6289 26.2148C51.4313 26.2347 52.0236 27.064 51.406 28.7029C50.4037 29.4981 49.5448 29.3798 48.8291 28.3474C48.5579 27.4125 48.8245 26.7016 49.6289 26.2148Z" fill="#B29145"/>
<path opacity="0.998" fill-rule="evenodd" clip-rule="evenodd" d="M67.7562 43.0975C76.3899 45.4843 82.758 50.638 86.8607 58.5588C87.4884 59.9974 87.9919 61.4784 88.3713 63.0017C90.6432 62.6966 92.5684 63.3483 94.1471 64.9566C94.4218 65.5061 94.6884 66.0393 94.9468 66.5561C94.9468 67.4446 94.9468 68.3332 94.9468 69.2218C93.6033 71.9533 91.3818 73.1381 88.2825 72.7761C86.3823 79.7104 82.3837 85.0716 76.2866 88.8594C65.8968 94.7498 55.0561 95.6976 43.7646 91.7029C36.6413 88.9876 31.2802 84.2781 27.6813 77.5745C27.0171 76.0095 26.4543 74.41 25.9929 72.7761C24.8643 72.6448 23.7388 72.4968 22.6163 72.3318C19.9506 71.2375 18.8843 69.2529 19.4175 66.3783C20.8655 63.7 23.1166 62.6337 26.1707 63.1795C27.487 57.4371 30.449 52.7276 35.0565 49.051C44.9538 41.8059 55.8537 39.8215 67.7562 43.0975Z" fill="#F2D45A"/>
<path fill-rule="evenodd" clip-rule="evenodd" d="M41.8095 50.917C43.9661 50.9092 44.4992 51.8275 43.4089 53.6716C41.8148 54.2082 41.0151 53.6453 41.0098 51.9833C41.2465 51.5995 41.5131 51.244 41.8095 50.917Z" fill="#B29146"/>
<path fill-rule="evenodd" clip-rule="evenodd" d="M37.3665 53.9384C38.9924 53.8773 39.6144 54.6475 39.2325 56.2487C38.1404 57.2822 37.1927 57.1638 36.389 55.8933C36.2426 55.0015 36.5684 54.3498 37.3665 53.9384Z" fill="#B29146"/>
<path fill-rule="evenodd" clip-rule="evenodd" d="M46.6076 53.9386C48.0324 53.8531 48.7135 54.5048 48.6513 55.8935C48.2158 56.8867 47.4754 57.2125 46.4299 56.8709C45.2163 55.8051 45.2754 54.8277 46.6076 53.9386Z" fill="#B39246"/>
<path fill-rule="evenodd" clip-rule="evenodd" d="M42.1649 56.9597C43.2688 56.9479 43.9205 57.4811 44.1198 58.5591C43.6312 60.0933 42.7129 60.4488 41.3651 59.6254C40.6166 58.4176 40.8832 57.5291 42.1649 56.9597Z" fill="#B49346"/>
<path fill-rule="evenodd" clip-rule="evenodd" d="M81.7954 69.5771C82.9705 69.5378 83.622 70.1007 83.7503 71.2654C82.5191 76.4524 79.7348 80.5991 75.3977 83.7056C69.7817 87.5536 63.5616 89.4492 56.7375 89.3925C55.7442 88.9569 55.4185 88.2165 55.76 87.171C56.0342 86.8373 56.36 86.5707 56.7375 86.3713C63.0048 86.3748 68.6917 84.5977 73.7982 81.0398C77.416 78.3687 79.7558 74.8441 80.818 70.4657C81.1255 70.1277 81.4512 69.8314 81.7954 69.5771Z" fill="#F0C41A"/>
</svg>
