<svg width="100" height="100" viewBox="0 0 100 100" fill="none" xmlns="http://www.w3.org/2000/svg">
<path d="M80.9585 44.0417C80.1835 41.4687 77.8252 39.5833 75.0002 39.5833C74.9648 39.5833 74.9314 39.5937 74.896 39.5937C74.3918 36.0604 71.3814 33.3333 67.7085 33.3333C65.4627 33.3333 63.4793 34.3708 62.1418 35.9667C61.2877 35.6167 60.3564 35.4167 59.3752 35.4167C58.6689 35.4167 57.9981 35.55 57.3522 35.7375C55.9585 33.0812 53.2064 31.25 50.0002 31.25C46.8793 31.25 44.1897 32.9875 42.7627 35.5271C42.4064 35.4646 42.0418 35.4167 41.6668 35.4167C41.1606 35.4167 40.6731 35.4937 40.2022 35.6083C39.0564 34.2292 37.3502 33.3333 35.4168 33.3333C34.1127 33.3333 32.9043 33.7333 31.9022 34.4167C30.7981 33.7417 29.5147 33.3333 28.1252 33.3333C24.0981 33.3333 20.8335 36.5979 20.8335 40.625C20.8335 41.0146 20.8897 41.3875 20.9481 41.7604C17.3647 42.2208 14.5835 45.2479 14.5835 48.9583C14.5835 52.9854 17.8481 56.25 21.8752 56.25C22.2314 56.25 22.5731 56.1938 22.9168 56.1458V56.25H77.0835V55.8667C77.7377 56.1 78.4314 56.25 79.1668 56.25C82.6189 56.25 85.4168 53.4521 85.4168 50C85.4168 47.175 83.5314 44.8167 80.9585 44.0417Z" fill="#FFD600"/>
<path d="M10.4165 50H89.5832C89.5832 50 89.4436 83.3333 49.9998 83.3333C10.5561 83.3333 10.4165 50 10.4165 50Z" fill="#5D4037"/>
<path d="M64.5832 81.25H35.4165V87.5H64.5832V81.25Z" fill="#3E2723"/>
<path d="M86.4668 14.5629L84.2418 12.965C83.1272 12.165 81.5772 12.4233 80.7814 13.54L64.4897 37.5691C65.5731 38.6587 66.3314 40.0712 66.5627 41.667H69.1668L87.0397 18.0129C87.8314 16.9004 87.5752 15.3587 86.4668 14.5629Z" fill="#2196F3"/>
<path d="M31.2502 41.6667C31.2502 42.8167 30.3168 43.75 29.1668 43.75C28.0168 43.75 27.0835 42.8167 27.0835 41.6667C27.0835 40.5167 28.0168 39.5833 29.1668 39.5833C30.3168 39.5833 31.2502 40.5167 31.2502 41.6667ZM43.7502 37.5C42.6002 37.5 41.6668 38.4333 41.6668 39.5833C41.6668 40.7333 42.6002 41.6667 43.7502 41.6667C44.9002 41.6667 45.8335 40.7333 45.8335 39.5833C45.8335 38.4333 44.9002 37.5 43.7502 37.5ZM37.5002 43.75C36.3502 43.75 35.4168 44.6833 35.4168 45.8333C35.4168 46.9833 36.3502 47.9167 37.5002 47.9167C38.6502 47.9167 39.5835 46.9833 39.5835 45.8333C39.5835 44.6833 38.6502 43.75 37.5002 43.75ZM60.4168 41.6667C59.2668 41.6667 58.3335 42.6 58.3335 43.75C58.3335 44.9 59.2668 45.8333 60.4168 45.8333C61.5668 45.8333 62.5002 44.9 62.5002 43.75C62.5002 42.6 61.5668 41.6667 60.4168 41.6667ZM66.6668 45.8333C65.5168 45.8333 64.5835 46.7667 64.5835 47.9167C64.5835 49.0667 65.5168 50 66.6668 50C67.8168 50 68.7502 49.0667 68.7502 47.9167C68.7502 46.7667 67.8168 45.8333 66.6668 45.8333Z" fill="#FFAB00"/>
</svg>
