<svg width="100" height="100" viewBox="0 0 100 100" fill="none" xmlns="http://www.w3.org/2000/svg">
<path d="M70.8332 22.9155C70.8332 11.2489 64.5832 4.16553 64.5832 4.16553H49.9998H35.4165C35.4165 4.16553 29.1665 11.2489 29.1665 22.9155C29.1665 30.4155 41.6665 57.9155 41.6665 66.6655C41.6665 73.5405 35.6248 86.0405 33.5415 92.2905C32.9165 93.9572 34.1665 95.8322 36.0415 95.8322H63.9582C65.8332 95.8322 67.0832 93.9572 66.4582 92.2905C64.1665 86.0405 58.3332 73.5405 58.3332 66.6655C58.3332 57.9155 70.8332 30.4155 70.8332 22.9155Z" fill="#BBDEFB"/>
<path d="M39.5832 87.4989H60.4165C62.4998 87.4989 63.7498 85.4155 63.1248 83.5405C61.2498 78.7489 58.3332 70.6239 58.3332 66.6655C58.3332 57.7072 70.8332 30.4155 70.8332 22.9155C70.8332 11.2489 64.5832 4.16553 64.5832 4.16553H49.9998H35.4165C35.4165 4.16553 29.1665 11.2489 29.1665 22.9155C29.1665 30.4155 41.6665 57.9155 41.6665 66.6655C41.6665 70.6239 38.7498 78.7489 36.8748 83.5405C36.2498 85.4155 37.7082 87.4989 39.5832 87.4989Z" fill="#F57F17"/>
<path d="M49.9998 4.16553H35.4165C35.4165 4.16553 29.1665 11.2489 29.1665 22.9155H70.8332C70.8332 11.2489 64.5832 4.16553 64.5832 4.16553H49.9998Z" fill="#FFECB3"/>
<path d="M37.917 8.33447C36.8753 10.4178 36.042 13.3345 35.417 16.4595C35.0003 18.3345 35.0003 20.6261 35.2086 22.9178H40.0003C39.792 21.0428 40.0003 19.1678 40.417 17.5011C41.2503 13.7511 42.917 10.8345 44.167 8.95947C44.3753 8.75114 44.3753 8.54281 44.5836 8.33447H37.917Z" fill="#FFFDE7"/>
<path d="M37.2915 32.0845C38.9582 37.2928 40.8332 42.7095 42.4998 48.1261C43.3332 50.8345 44.1665 53.5428 44.9998 56.2511C45.6248 58.9595 46.4582 61.6678 46.6665 64.1678C47.0832 66.6678 47.0832 69.3761 46.8748 71.6678C46.6665 74.1678 46.2498 76.2511 45.8332 78.3345C44.9998 82.2928 43.9582 85.4178 43.1248 87.7095H43.5415C44.5832 85.4178 45.6248 82.2928 46.8748 78.5428C47.4998 76.4595 47.9165 74.1678 48.3332 71.6678C48.7498 69.1678 48.9582 66.6678 48.7498 63.7511C48.5415 61.0428 48.1248 58.3345 47.4998 55.4178C46.8748 52.7095 46.2498 49.7928 45.6248 47.0845C44.1665 41.4595 42.7082 36.0428 41.4582 30.8345C40.8332 28.3345 40.4165 25.6261 40.2082 23.5428C40.2082 23.3345 40.2082 23.1261 40.2082 22.7095H35.4165C35.4165 23.1261 35.4165 23.5428 35.6248 23.9595C35.8332 26.8761 36.4582 29.3761 37.2915 32.0845Z" fill="#FBC02D"/>
</svg>
