<svg width="100" height="100" viewBox="0 0 100 100" fill="none" xmlns="http://www.w3.org/2000/svg">
<path d="M16.5709 85.6973C10.4738 76.4948 11.9231 64.8182 19.8109 59.601L22.1918 58.0276C30.0797 52.8518 41.394 56.0194 47.491 65.2116C50.2076 69.3118 51.1841 74.3233 50.2057 79.1436C49.2273 83.9638 46.3741 88.1979 42.2738 90.9145C38.1736 93.6311 33.1621 94.6076 28.3419 93.6292C23.5216 92.6508 19.2875 89.7976 16.5709 85.6973Z" fill="#F04B3E"/>
<path d="M53.0089 73.5341C46.9118 64.3316 48.361 52.655 56.2489 47.4378L58.6194 45.8644C66.4659 40.6265 77.8526 43.7941 83.9187 53.0484C86.6352 57.1473 87.6123 62.1574 86.6348 66.9767C85.6574 71.796 82.8055 76.0296 78.7067 78.7461C74.6078 81.4627 69.5976 82.4398 64.7783 81.4623C59.9591 80.4849 55.7255 77.633 53.0089 73.5341Z" fill="#F04B3E"/>
<path opacity="0.7" d="M69.426 55.9679C67.5334 57.2192 65.2219 57.669 62.9982 57.2189C60.7745 56.7687 58.82 55.4552 57.5631 53.5663C57.449 53.4103 57.3677 53.2327 57.3242 53.0443C57.2807 52.856 57.2759 52.6608 57.3101 52.4705C57.3442 52.2802 57.4167 52.0989 57.523 51.9374C57.6293 51.776 57.7672 51.6378 57.9285 51.5312C58.0898 51.4246 58.271 51.3519 58.4612 51.3174C58.6514 51.2829 58.8467 51.2873 59.0351 51.3305C59.2235 51.3737 59.4012 51.4546 59.5575 51.5685C59.7137 51.6823 59.8452 51.8267 59.944 51.9929C60.7813 53.2527 62.0841 54.1291 63.5666 54.4298C65.0491 54.7306 66.5904 54.4312 67.8526 53.5974C68.0086 53.4832 68.1862 53.402 68.3745 53.3585C68.5629 53.315 68.7581 53.3102 68.9484 53.3443C69.1386 53.3785 69.32 53.4509 69.4814 53.5572C69.6429 53.6635 69.7811 53.8015 69.8877 53.9627C69.9943 54.124 70.067 54.3053 70.1015 54.4955C70.136 54.6857 70.1315 54.8809 70.0884 55.0693C70.0452 55.2578 69.9642 55.4355 69.8504 55.5917C69.7365 55.7479 69.5922 55.8794 69.426 55.9782V55.9679Z" fill="#F57564"/>
<path opacity="0.7" d="M34.7691 69.5488C32.8765 70.8001 30.565 71.25 28.3413 70.7998C26.1176 70.3496 24.1631 69.0361 22.9062 67.1472C22.8002 66.9909 22.726 66.8152 22.6878 66.6302C22.6497 66.4452 22.6484 66.2545 22.6839 66.069C22.7195 65.8834 22.7913 65.7067 22.8951 65.549C22.999 65.3912 23.1329 65.2554 23.2892 65.1494C23.4455 65.0433 23.6212 64.9691 23.8062 64.931C23.9912 64.8929 24.1819 64.8915 24.3675 64.9271C24.553 64.9627 24.7297 65.0344 24.8875 65.1383C25.0452 65.2421 25.181 65.376 25.2871 65.5324C26.1244 66.7922 27.4272 67.6686 28.9097 67.9693C30.3922 68.2701 31.9335 67.9707 33.1957 67.1369C33.3517 67.0227 33.5292 66.9415 33.7176 66.898C33.906 66.8545 34.1012 66.8497 34.2914 66.8838C34.4817 66.918 34.6631 66.9904 34.8245 67.0967C34.986 67.203 35.1242 67.341 35.2308 67.5023C35.3374 67.6635 35.4101 67.8448 35.4446 68.035C35.4791 68.2252 35.4746 68.4204 35.4314 68.6088C35.3883 68.7973 35.3073 68.975 35.1935 69.1312C35.0796 69.2874 34.9352 69.4189 34.7691 69.5177V69.5488Z" fill="#F57564"/>
<path d="M66.9108 50.6263C66.7066 50.7606 66.4714 50.8403 66.2277 50.8578C65.9839 50.8752 65.7397 50.8299 65.5185 50.726C65.2973 50.6221 65.1064 50.4633 64.9642 50.2646C64.8219 50.0659 64.733 49.834 64.7059 49.5911C63.7328 37.1693 57.8635 30.1405 41.9324 22.8427C48.7231 37.1796 44.0028 55.5226 34.3344 61.9613C34.0188 62.1489 33.6432 62.2078 33.2853 62.1258C32.9275 62.0439 32.6149 61.8273 32.4125 61.521C32.2101 61.2147 32.1334 60.8423 32.1983 60.481C32.2631 60.1196 32.4646 59.7971 32.761 59.5804C42.0774 53.3695 46.1662 33.805 37.4192 20.6068C37.2651 20.3516 37.1947 20.0546 37.2179 19.7575C37.241 19.4603 37.3566 19.1779 37.5483 18.9496C37.74 18.7214 37.9983 18.5589 38.287 18.4848C38.5757 18.4107 38.8803 18.4288 39.1582 18.5364C56.1141 25.6169 66.2586 32.9562 67.5008 49.322C67.5259 49.5721 67.4846 49.8244 67.381 50.0534C67.2774 50.2824 67.1152 50.48 66.9108 50.6263Z" fill="#824B3D"/>
<path d="M37.6987 19.4681C44.7896 19.7994 50.8556 13.1123 51.1558 6.0111C44.1063 5.6902 38.0403 12.3773 37.6987 19.4681Z" fill="#51B224"/>
<path d="M19.1274 19.8308C23.8995 25.0791 32.9261 24.634 38.1743 19.8308C33.3401 14.6136 24.3757 15.0588 19.1274 19.8308Z" fill="#82C60A"/>
</svg>
