<svg width="100" height="100" viewBox="0 0 100 100" fill="none" xmlns="http://www.w3.org/2000/svg">
<path d="M72.9167 22.9165C75 22.9165 87.5 20.8332 87.5 39.5832C87.5 58.3332 60.4167 91.6665 22.9167 91.6665C18.75 91.6665 14.5833 89.5832 14.5833 89.5832L12.5 83.3332C12.5 83.3332 14.5833 74.9999 27.0833 68.7499C39.5833 62.4999 48.4646 57.2624 53.7771 51.9519C57.9437 47.7874 64.5833 39.5832 64.5833 33.3332C64.5833 29.254 68.75 24.9999 68.75 24.9999" fill="#FFE082"/>
<path d="M16.6663 85.4165C16.6663 85.4165 31.2497 81.2499 43.7497 74.9999C56.2497 68.7499 83.333 49.9999 74.9997 22.9165C74.9997 22.9165 87.4997 20.8332 87.4997 39.5832C87.4997 58.3332 60.4163 91.6665 22.9163 91.6665C18.7497 91.6665 14.583 89.5832 14.583 89.5832L16.6663 85.4165Z" fill="#FFCA28"/>
<path d="M85.5479 29.0377C81.6417 20.6606 72.9167 25.0002 72.9167 8.3335C66.6667 8.3335 62.5 12.5002 62.5 12.5002C62.5 12.5002 68.75 18.7502 68.75 25.0002C72.9167 25.0002 76.275 24.6731 76.6479 34.896C79.4646 22.9606 85.5479 29.0377 85.5479 29.0377Z" fill="#C0CA33"/>
<path d="M64.5834 33.333C64.5834 33.333 64.4522 29.556 68.7501 24.9997C73.048 20.4435 77.148 24.1539 77.148 24.1539L76.648 34.8955C76.648 34.8955 74.8251 28.1247 71.9605 27.9518C65.9189 27.5872 64.5834 33.333 64.5834 33.333Z" fill="#C0CA33"/>
<path d="M12.5 85.4168L14.5833 89.5835H16.6667V85.4168L12.5 83.3335V85.4168Z" fill="#5D4037"/>
<path d="M72.9167 8.3335C66.6667 8.3335 62.5 12.5002 62.5 12.5002H68.75L72.9167 8.3335Z" fill="#827717"/>
</svg>
