<svg width="100" height="100" viewBox="0 0 100 100" fill="none" xmlns="http://www.w3.org/2000/svg">
<path d="M68.7501 39.5835H59.2021V45.8335H68.7501C73.3459 45.8335 77.0834 49.571 77.0834 54.2002C77.0834 54.2356 76.7876 57.8397 74.1146 63.1856L73.3667 64.7002C70.3709 70.7877 69.0042 72.9168 65.4521 72.9168H59.2021V79.1668H65.4521C73.2126 79.1668 76.1417 73.2147 78.9751 67.4585L79.7063 65.9814C83.0792 59.2335 83.3438 54.5856 83.3334 54.1668C83.3334 46.1272 76.7896 39.5835 68.7501 39.5835Z" fill="#6A1B9A"/>
<path d="M52.0143 31.0581L51.3518 30.1081C51.108 29.7144 48.9559 26.154 48.9559 22.7581C48.9559 20.7186 49.7393 19.4561 50.3101 18.5373C50.7643 17.804 51.0393 17.3644 51.0393 16.5081C51.0393 14.6373 49.7622 12.154 49.2663 11.354L48.6768 10.3998L52.2101 8.20605L52.808 9.15605C53.0518 9.5498 55.2038 13.1102 55.2038 16.5061C55.2038 18.5477 54.4205 19.8102 53.8497 20.7311C53.3955 21.4623 53.1205 21.904 53.1205 22.7561C53.1205 24.6269 54.3976 27.1102 54.8934 27.9102L55.5476 28.8644L52.0143 31.0581Z" fill="#BCAAA4"/>
<path d="M41.629 31.0581L40.9665 30.1081C40.7228 29.7144 38.5707 26.154 38.5707 22.7581C38.5707 20.7186 39.354 19.4561 39.9248 18.5373C40.379 17.804 40.654 17.3644 40.654 16.5081C40.654 14.6373 39.3769 12.154 38.8811 11.354L38.2915 10.3998L41.8248 8.20605L42.4228 9.15605C42.6665 9.5498 44.8186 13.1102 44.8186 16.5061C44.8186 18.5477 44.0353 19.8102 43.4644 20.7311C43.0103 21.4623 42.7353 21.904 42.7353 22.7561C42.7353 24.6269 44.0123 27.1102 44.5082 27.9102L45.1623 28.8644L41.629 31.0581Z" fill="#BCAAA4"/>
<path d="M31.2457 31.0581L30.5832 30.1081C30.3395 29.7144 28.1874 26.154 28.1874 22.7581C28.1874 20.7186 28.9707 19.4561 29.5415 18.5373C29.9957 17.804 30.2707 17.3644 30.2707 16.5081C30.2707 14.6373 28.9936 12.154 28.4978 11.354L27.9082 10.3998L31.4415 8.20605L32.0395 9.15605C32.2832 9.5498 34.4353 13.1102 34.4353 16.5061C34.4353 18.5477 33.652 19.8102 33.0811 20.7311C32.627 21.4623 32.352 21.904 32.352 22.7561C32.352 24.6269 33.629 27.1102 34.1249 27.9102L34.779 28.8644L31.2457 31.0581Z" fill="#BCAAA4"/>
<path d="M66.667 30.2085C66.667 28.4835 65.267 27.0835 63.542 27.0835H19.792C18.067 27.0835 16.667 28.4835 16.667 30.2085C16.667 30.2085 16.667 58.3335 22.917 91.6668H60.417C66.667 58.3335 66.667 30.2085 66.667 30.2085Z" fill="#9C27B0"/>
<path d="M45.833 27.0835V52.0835" stroke="#FFE082" stroke-width="22" stroke-linecap="round"/>
<path d="M54.1667 65.625C54.1667 67.35 52.9208 68.75 51.3896 68.75H40.2771C38.7458 68.75 37.5 67.35 37.5 65.625V53.125C37.5 51.4 38.7458 50 40.2771 50H51.3896C52.9208 50 54.1667 51.4 54.1667 53.125V65.625Z" fill="#FFCA28"/>
</svg>
