<svg width="100" height="100" viewBox="0 0 100 100" fill="none" xmlns="http://www.w3.org/2000/svg">
<path fill-rule="evenodd" clip-rule="evenodd" d="M42.1049 4.1665C44.4873 4.1665 46.8699 4.1665 49.2523 4.1665C49.2523 4.28563 49.3118 4.34519 49.431 4.34519C39.3421 5.87381 31.2418 10.6983 25.1298 18.8186C25.209 17.1912 25.1197 15.583 24.8618 13.9942C24.7278 13.8823 24.5788 13.793 24.4151 13.7261C23.464 13.6369 22.511 13.6071 21.5562 13.6368C27.3527 8.24761 34.2024 5.09084 42.1049 4.1665Z" fill="#FB2B3A"/>
<path opacity="0.995" fill-rule="evenodd" clip-rule="evenodd" d="M49.431 4.34521C57.3144 5.13148 64.1044 8.22869 69.801 13.6368C68.7868 13.6071 67.7742 13.6369 66.7634 13.7262C66.6146 13.8751 66.4655 14.024 66.3167 14.1729C66.2274 15.7799 66.1977 17.3881 66.2274 18.9974C64.8574 18.9974 63.4876 18.9974 62.1176 18.9974C60.7476 18.9974 59.3778 18.9974 58.0079 18.9974C58.0375 17.3881 58.0079 15.7799 57.9185 14.1729C57.7697 14.024 57.6206 13.8751 57.4718 13.7262C56.2224 13.6369 54.9716 13.6071 53.7194 13.6368C52.4091 13.6368 51.0987 13.6368 49.7884 13.6368C49.818 12.2061 49.7884 10.7766 49.699 9.34838C49.6097 9.25904 49.5203 9.1697 49.431 9.08036C48.3008 8.99111 47.1692 8.96132 46.036 8.99102C44.6648 8.96128 43.2948 8.99107 41.9262 9.08036C41.8369 9.1697 41.7476 9.25904 41.6582 9.34838C41.5689 11.6705 41.539 13.9934 41.5689 16.3171C40.3776 16.3171 39.1865 16.3171 37.9952 16.3171C36.624 16.2874 35.254 16.3171 33.8854 16.4064C33.7411 16.4614 33.6219 16.5507 33.5281 16.6745C33.3544 18.2729 33.2947 19.8811 33.3494 21.4989C31.9199 21.4989 30.4904 21.4989 29.0609 21.4989C27.7507 21.4989 26.4402 21.4989 25.1299 21.4989C25.1299 20.6055 25.1299 19.7121 25.1299 18.8187C31.2418 10.6983 39.3421 5.87384 49.431 4.34521Z" fill="#FD4754"/>
<path fill-rule="evenodd" clip-rule="evenodd" d="M46.0354 8.99063C45.9849 9.13163 45.8955 9.25076 45.7674 9.348C45.6781 22.5705 45.6482 35.7932 45.6781 49.016C44.3081 49.016 42.9383 49.016 41.5683 49.016C41.5683 38.1162 41.5683 27.2165 41.5683 16.3167C41.5385 13.993 41.5683 11.6701 41.6577 9.348C41.747 9.25866 41.8363 9.16932 41.9257 9.07997C43.2942 8.99069 44.6642 8.9609 46.0354 8.99063Z" fill="#FAC603"/>
<path fill-rule="evenodd" clip-rule="evenodd" d="M46.0356 8.99061C47.1688 8.96091 48.3004 8.9907 49.4306 9.07995C49.5199 9.1693 49.6092 9.25864 49.6986 9.34798C49.7879 10.7762 49.8176 12.2057 49.7879 13.6364C49.7879 25.4296 49.7879 37.2228 49.7879 49.016C48.418 49.016 47.0482 49.016 45.6782 49.016C45.6483 35.7931 45.6782 22.5705 45.7675 9.34798C45.8956 9.25074 45.985 9.13161 46.0356 8.99061Z" fill="#FEDE73"/>
<path fill-rule="evenodd" clip-rule="evenodd" d="M21.377 13.6368C21.2659 13.8381 21.117 14.0168 20.9302 14.1729C20.8409 21.0817 20.8111 27.9909 20.8409 34.9003C19.6107 34.6038 18.3599 34.4847 17.0885 34.5429C17.029 34.5429 16.9694 34.5429 16.9098 34.5429C16.969 29.39 16.9095 24.2676 16.7312 19.176C16.6508 17.3704 16.7402 15.5836 16.9992 13.8155C18.4431 13.6399 19.9024 13.5804 21.377 13.6368Z" fill="#FAC602"/>
<path fill-rule="evenodd" clip-rule="evenodd" d="M21.3773 13.6371C21.4369 13.6371 21.4964 13.6371 21.556 13.6371C22.5109 13.6074 23.4638 13.6372 24.4149 13.7264C24.5786 13.7933 24.7276 13.8826 24.8617 13.9944C25.1195 15.5833 25.2088 17.1915 25.1297 18.8189C25.1297 19.7124 25.1297 20.6058 25.1297 21.4992C25.1297 29.7187 25.1297 37.9382 25.1297 46.1577C24.8986 45.9179 24.7498 45.62 24.683 45.2643C24.1464 42.6415 23.6103 40.0208 23.0748 37.4021C22.6038 36.3066 21.8593 35.4729 20.8412 34.9006C20.8115 27.9912 20.8412 21.082 20.9306 14.1731C21.1173 14.0171 21.2662 13.8384 21.3773 13.6371Z" fill="#FDDE73"/>
<path fill-rule="evenodd" clip-rule="evenodd" d="M69.8006 13.6371C70.158 13.6371 70.5154 13.6371 70.8727 13.6371C70.7616 13.8384 70.6128 14.0171 70.426 14.1731C70.3367 21.1416 70.3068 28.1104 70.3367 35.0792C69.4304 35.7188 68.7455 36.5527 68.2818 37.5808C67.8383 39.9704 67.3619 42.3528 66.8523 44.7282C66.7621 45.3295 66.5536 45.8655 66.2269 46.3364C66.2269 37.2235 66.2269 28.1105 66.2269 18.9976C66.1973 17.3884 66.2269 15.7802 66.3163 14.1731C66.4651 14.0242 66.6141 13.8753 66.763 13.7264C67.7738 13.6372 68.7864 13.6074 69.8006 13.6371Z" fill="#FAC603"/>
<path opacity="0.994" fill-rule="evenodd" clip-rule="evenodd" d="M70.8729 13.6373C72.0505 13.5817 73.2119 13.6413 74.3573 13.816C74.616 15.5243 74.7054 17.2516 74.6253 18.9978C74.447 24.1491 74.3875 29.331 74.4466 34.5434C73.0196 34.409 71.6499 34.5877 70.3369 35.0795C70.307 28.1106 70.3369 21.1418 70.4262 14.1734C70.6129 14.0173 70.7618 13.8386 70.8729 13.6373Z" fill="#FEDE73"/>
<path fill-rule="evenodd" clip-rule="evenodd" d="M49.7886 13.6372C51.0989 13.6372 52.4093 13.6372 53.7196 13.6372C53.7196 13.6968 53.7196 13.7563 53.7196 13.8159C53.7196 25.5496 53.7196 37.2831 53.7196 49.0168C52.4093 49.0168 51.0989 49.0168 49.7886 49.0168C49.7886 37.2236 49.7886 25.4304 49.7886 13.6372Z" fill="#FAC601"/>
<path fill-rule="evenodd" clip-rule="evenodd" d="M53.7192 13.8154C53.8977 25.4594 53.9572 37.1334 53.8979 48.8376C55.2679 48.8376 56.6377 48.8376 58.0077 48.8376C58.0077 48.8971 58.0077 48.9568 58.0077 49.0163C56.5782 49.0163 55.1487 49.0163 53.7192 49.0163C53.7192 37.2826 53.7192 25.5491 53.7192 13.8154Z" fill="#FDD85B"/>
<path fill-rule="evenodd" clip-rule="evenodd" d="M53.7192 13.8158C53.7192 13.7562 53.7192 13.6967 53.7192 13.6371C54.9715 13.6074 56.2223 13.6372 57.4716 13.7264C57.6205 13.8753 57.7695 14.0243 57.9183 14.1732C58.0077 15.7802 58.0373 17.3884 58.0077 18.9976C58.0077 28.9445 58.0077 38.8911 58.0077 48.838C56.6377 48.838 55.2679 48.838 53.8979 48.838C53.9572 37.1338 53.8977 25.4598 53.7192 13.8158Z" fill="#FEDE73"/>
<path fill-rule="evenodd" clip-rule="evenodd" d="M37.9955 16.3168C37.8754 16.4539 37.7266 16.5731 37.5488 16.6742C37.4594 27.4546 37.4296 38.2353 37.4594 49.0161C36.0895 49.0161 34.7197 49.0161 33.3497 49.0161C33.3497 48.9566 33.3497 48.8969 33.3497 48.8374C33.3497 39.7245 33.3497 30.6116 33.3497 21.4987C33.295 19.8808 33.3547 18.2727 33.5284 16.6742C33.6222 16.5505 33.7414 16.4611 33.8857 16.4061C35.2543 16.3169 36.6243 16.2871 37.9955 16.3168Z" fill="#FAC604"/>
<path fill-rule="evenodd" clip-rule="evenodd" d="M37.9945 16.3174C39.1858 16.3174 40.3769 16.3174 41.5682 16.3174C41.5682 27.2171 41.5682 38.1169 41.5682 49.0167C40.1982 49.0167 38.8284 49.0167 37.4585 49.0167C37.4286 38.2359 37.4585 27.4552 37.5478 16.6748C37.7256 16.5736 37.8744 16.4545 37.9945 16.3174Z" fill="#FEDE73"/>
<path fill-rule="evenodd" clip-rule="evenodd" d="M58.0078 18.9976C59.3778 18.9976 60.7476 18.9976 62.1176 18.9976C62.1176 28.9444 62.1176 38.8911 62.1176 48.8379C62.3557 48.8379 62.5941 48.8379 62.8323 48.8379C61.2567 49.0153 59.6485 49.075 58.0078 49.0166C58.0078 48.9571 58.0078 48.8974 58.0078 48.8379C58.0078 38.8911 58.0078 28.9444 58.0078 18.9976Z" fill="#FAC605"/>
<path fill-rule="evenodd" clip-rule="evenodd" d="M62.1177 18.9976C63.4877 18.9976 64.8574 18.9976 66.2274 18.9976C66.2274 28.1105 66.2274 37.2234 66.2274 46.3363C65.5036 47.7143 64.372 48.5481 62.8324 48.8379C62.5942 48.8379 62.3559 48.8379 62.1177 48.8379C62.1177 38.8911 62.1177 28.9444 62.1177 18.9976Z" fill="#FEDE73"/>
<path fill-rule="evenodd" clip-rule="evenodd" d="M16.7315 19.1763C16.9099 24.2679 16.9694 29.3902 16.9102 34.5431C14.7936 34.6018 12.709 34.5423 10.6562 34.3645C12.6813 34.3645 14.7064 34.3645 16.7315 34.3645C16.7315 29.3018 16.7315 24.2389 16.7315 19.1763Z" fill="#FB5031"/>
<path opacity="0.98" fill-rule="evenodd" clip-rule="evenodd" d="M74.6251 18.9976C77.8339 23.6317 79.859 28.7541 80.7004 34.3644C78.6477 34.5422 76.5629 34.6017 74.4464 34.5431C74.3873 29.3307 74.4468 24.1489 74.6251 18.9976Z" fill="#FD4B55"/>
<path fill-rule="evenodd" clip-rule="evenodd" d="M16.7315 19.1763C16.7315 24.2389 16.7315 29.3018 16.7315 34.3645C14.7064 34.3645 12.6813 34.3645 10.6562 34.3645C11.4955 28.8052 13.5206 23.7426 16.7315 19.1763Z" fill="#FB2B3A"/>
<path fill-rule="evenodd" clip-rule="evenodd" d="M25.1299 21.499C26.4402 21.499 27.7507 21.499 29.0609 21.499C29.0609 21.5586 29.0609 21.6182 29.0609 21.6777C29.0609 30.7311 29.0609 39.7844 29.0609 48.8378C28.0608 48.8147 27.1674 48.4872 26.3807 47.855C25.7824 47.4081 25.3654 46.8422 25.1299 46.1575C25.1299 37.938 25.1299 29.7185 25.1299 21.499Z" fill="#FAC500"/>
<path fill-rule="evenodd" clip-rule="evenodd" d="M29.061 21.6777C29.2395 30.7008 29.299 39.7542 29.2397 48.8378C30.6097 48.8378 31.9795 48.8378 33.3495 48.8378C33.3495 48.8973 33.3495 48.957 33.3495 49.0165C31.8871 49.0747 30.4576 49.0151 29.061 48.8378C29.061 39.7844 29.061 30.7311 29.061 21.6777Z" fill="#FDD95F"/>
<path fill-rule="evenodd" clip-rule="evenodd" d="M29.061 21.6777C29.061 21.6182 29.061 21.5586 29.061 21.499C30.4905 21.499 31.92 21.499 33.3495 21.499C33.3495 30.6119 33.3495 39.7249 33.3495 48.8378C31.9795 48.8378 30.6097 48.8378 29.2397 48.8378C29.299 39.7542 29.2395 30.7007 29.061 21.6777Z" fill="#FEDE73"/>
<path fill-rule="evenodd" clip-rule="evenodd" d="M10.6564 34.3643C12.7091 34.542 14.7938 34.6016 16.9104 34.5429C16.9699 34.5429 17.0295 34.5429 17.089 34.5429C16.1271 35.0906 15.5911 35.9245 15.4809 37.0445C18.207 51.4494 20.8872 65.8631 23.5217 80.2862C21.2841 81.4341 19.1995 82.8039 17.2677 84.396C14.2257 68.589 11.2477 52.7457 8.3335 36.8658C8.49569 35.4532 9.26998 34.6192 10.6564 34.3643Z" fill="#FB8801"/>
<path opacity="0.998" fill-rule="evenodd" clip-rule="evenodd" d="M80.7004 34.3643C82.1293 34.6321 82.9035 35.4959 83.0233 36.9552C80.9495 48.188 78.8647 59.4153 76.7693 70.6372C76.2627 70.161 75.7267 69.7143 75.1611 69.2971C73.9965 68.8709 73.0137 69.139 72.2128 70.1012C71.0912 72.2944 69.6916 74.2896 68.0138 76.0871C67.7756 76.2063 67.5372 76.3253 67.299 76.4445C65.3142 76.479 63.4678 76.9852 61.7598 77.9633C51.5583 75.0377 41.3138 74.8889 31.026 77.5166C28.5044 78.2476 26.0624 79.1709 23.7 80.2862C23.6405 80.2862 23.5808 80.2862 23.5213 80.2862C20.8868 65.8631 18.2066 51.4494 15.4805 37.0445C15.5907 35.9245 16.1267 35.0906 17.0886 34.5429C18.36 34.4847 19.6108 34.6039 20.841 34.9003C21.859 35.4726 22.6036 36.3064 23.0746 37.4019C23.6101 40.0205 24.1461 42.6413 24.6827 45.264C24.7496 45.6198 24.8984 45.9177 25.1294 46.1574C25.3649 46.8422 25.782 47.4081 26.3802 47.8549C27.167 48.4871 28.0604 48.8147 29.0605 48.8377C30.4571 49.015 31.8866 49.0747 33.3489 49.0164C34.7189 49.0164 36.0887 49.0164 37.4587 49.0164C38.8287 49.0164 40.1985 49.0164 41.5684 49.0164C42.9384 49.0164 44.3082 49.0164 45.6782 49.0164C47.0482 49.0164 48.4179 49.0164 49.7879 49.0164C51.0982 49.0164 52.4087 49.0164 53.719 49.0164C55.1485 49.0164 56.5779 49.0164 58.0074 49.0164C59.6481 49.0748 61.2563 49.0151 62.8319 48.8377C64.3714 48.5479 65.5031 47.7141 66.2269 46.3361C66.5535 45.8653 66.7621 45.3292 66.8523 44.728C67.3619 42.3525 67.8383 39.9701 68.2818 37.5806C68.7455 36.5524 69.4304 35.7185 70.3367 35.079C71.6496 34.5873 73.0194 34.4086 74.4464 34.5429C76.5629 34.6016 78.6476 34.542 80.7004 34.3643Z" fill="#FE9901"/>
<path fill-rule="evenodd" clip-rule="evenodd" d="M25.6653 58.4868C39.0071 58.4569 52.3489 58.4868 65.6906 58.5761C66.5203 58.9464 66.7883 59.5718 66.4947 60.4523C66.2778 60.7291 66.0098 60.9374 65.6906 61.0777C52.2893 61.1969 38.8879 61.1969 25.4866 61.0777C24.5043 60.1276 24.5638 59.2641 25.6653 58.4868Z" fill="#FDB340"/>
<path fill-rule="evenodd" clip-rule="evenodd" d="M76.7693 70.6369C77.0851 71.0726 77.3234 71.5491 77.4841 72.0664C76.6977 71.9538 76.0425 72.192 75.5186 72.7812C74.3473 74.9163 72.9773 76.9114 71.4088 78.7671C70.9821 79.0996 70.5057 79.3378 69.9793 79.4818C67.5283 79.3991 65.4436 80.2032 63.7254 81.8941C62.0847 81.9525 60.4765 81.8928 58.9009 81.7154C59.4494 80.1546 60.4024 78.9038 61.7598 77.963C63.4679 76.9849 65.3142 76.4787 67.2991 76.4442C67.5372 76.325 67.7756 76.206 68.0138 76.0868C69.6916 74.2893 71.0913 72.2941 72.2129 70.1009C73.0138 69.1387 73.9965 68.8706 75.1612 69.2968C75.7267 69.714 76.2628 70.1607 76.7693 70.6369Z" fill="#E4202D"/>
<path opacity="0.993" fill-rule="evenodd" clip-rule="evenodd" d="M77.4843 72.0666C77.9682 73.4054 78.4149 74.7753 78.8244 76.1764C79.8973 76.7219 80.999 77.2283 82.1301 77.6952C83.7072 78.7352 84.8388 80.1348 85.5251 81.8943C78.2585 81.8943 70.9922 81.8943 63.7256 81.8943C65.4438 80.2034 67.5285 79.3993 69.9795 79.4821C70.506 79.338 70.9823 79.0999 71.409 78.7673C72.9775 76.9117 74.3475 74.9165 75.5188 72.7814C76.0427 72.1923 76.6979 71.9541 77.4843 72.0666Z" fill="#FA2A39"/>
<path fill-rule="evenodd" clip-rule="evenodd" d="M61.76 77.9632C60.4026 78.904 59.4496 80.1548 58.9011 81.7156C58.7513 81.7767 58.6917 81.8957 58.7224 82.073C56.875 82.0433 55.0286 82.073 53.1832 82.1623C52.2029 83.0702 52.2624 83.9041 53.3619 84.6639C54.1339 84.7531 54.9082 84.7829 55.6848 84.7532C56.6143 88.4118 57.6269 92.0452 58.7224 95.653C48.2395 95.653 37.7568 95.653 27.2739 95.653C26.7327 95.3185 26.3456 94.8419 26.1124 94.2235C25.2508 89.5865 24.4467 84.9407 23.7002 80.2861C26.0626 79.1708 28.5047 78.2475 31.0263 77.5165C41.314 74.8888 51.5586 75.0376 61.76 77.9632Z" fill="#FFF2DD"/>
<path fill-rule="evenodd" clip-rule="evenodd" d="M23.5215 80.2866C23.581 80.2866 23.6407 80.2866 23.7002 80.2866C24.4468 84.9412 25.2509 89.587 26.1125 94.224C26.3457 94.8425 26.7327 95.319 27.2739 95.6535C24.8915 95.6535 22.5089 95.6535 20.1265 95.6535C19.5082 95.3006 19.121 94.7645 18.9651 94.0453C18.3411 90.8365 17.7753 87.6202 17.2676 84.3964C19.1993 82.8043 21.2839 81.4345 23.5215 80.2866Z" fill="#FED2A4"/>
<path fill-rule="evenodd" clip-rule="evenodd" d="M58.9009 81.7158C60.4765 81.8933 62.0847 81.9529 63.7254 81.8945C70.9919 81.8945 78.2583 81.8945 85.5249 81.8945C76.6209 82.073 67.6866 82.1325 58.7222 82.0732C58.6915 81.8959 58.7511 81.7769 58.9009 81.7158Z" fill="#F85429"/>
<path opacity="0.991" fill-rule="evenodd" clip-rule="evenodd" d="M85.5248 81.8946C87.4492 81.8136 89.3552 81.903 91.2427 82.1626C92.2247 83.0827 92.1652 83.9166 91.064 84.6642C90.2919 84.7534 89.5177 84.7832 88.7411 84.7535C80.2218 84.6352 71.7639 84.7544 63.3679 85.1109C60.8504 84.7614 58.2891 84.6422 55.6844 84.7535C54.9079 84.7832 54.1336 84.7534 53.3615 84.6642C52.2621 83.9044 52.2026 83.0705 53.1829 82.1626C55.0283 82.0733 56.8747 82.0436 58.7221 82.0733C67.6865 82.1326 76.6207 82.0731 85.5248 81.8946Z" fill="#FAC602"/>
<path fill-rule="evenodd" clip-rule="evenodd" d="M55.6846 84.7532C58.2893 84.6419 60.8505 84.7611 63.368 85.1106C64.3535 88.6357 65.3659 92.1499 66.4057 95.653C63.8446 95.653 61.2833 95.653 58.7222 95.653C57.6267 92.0452 56.6141 88.4118 55.6846 84.7532Z" fill="#FED405"/>
<path opacity="0.997" fill-rule="evenodd" clip-rule="evenodd" d="M88.7414 84.7532C87.7599 88.0824 86.7771 91.4179 85.7931 94.7595C85.549 95.0922 85.281 95.3899 84.989 95.6529C78.7945 95.6529 72.6003 95.6529 66.4058 95.6529C65.366 92.1498 64.3536 88.6356 63.3682 85.1105C71.7642 84.7541 80.2221 84.6349 88.7414 84.7532Z" fill="#FEDE73"/>
</svg>
