<svg width="100" height="100" viewBox="0 0 100 100" fill="none" xmlns="http://www.w3.org/2000/svg">
<path d="M85.4168 65.6248C85.4168 68.5019 83.0856 70.8332 80.2085 70.8332H19.7918C16.9147 70.8332 14.5835 68.5019 14.5835 65.6248C14.5835 62.7478 16.9147 60.4165 19.7918 60.4165H80.2085C83.0856 60.4165 85.4168 62.7478 85.4168 65.6248Z" fill="#68362B"/>
<path d="M80.2085 37.4998C80.2085 37.4998 79.6835 36.8748 76.0418 35.4165C70.8335 33.3332 27.0835 33.3332 23.9585 35.4165C21.7835 36.8665 19.7918 37.4998 19.7918 37.4998C16.9147 37.4998 14.5835 39.8311 14.5835 42.7082C14.5835 45.5853 16.9147 47.9165 19.7918 47.9165H80.2085C83.0856 47.9165 85.4168 45.5853 85.4168 42.7082C85.4168 39.8311 83.0856 37.4998 80.2085 37.4998Z" fill="#68362B"/>
<path d="M16.6665 72.9165V82.8123C16.6665 85.4019 18.7644 87.4998 21.354 87.4998H78.6457C81.2353 87.4998 83.3332 85.4019 83.3332 82.8123V72.9165H16.6665Z" fill="#FFC107"/>
<path d="M49.9998 12.5C31.5915 12.5 16.6665 21.8292 16.6665 33.3333H83.3332C83.3332 21.8292 68.4103 12.5 49.9998 12.5Z" fill="#FFC107"/>
<path d="M85.4168 50H14.5835V58.3333H85.4168V50Z" fill="#FF3D00"/>
<path d="M33.3333 29.1667C34.4839 29.1667 35.4167 28.2339 35.4167 27.0833C35.4167 25.9327 34.4839 25 33.3333 25C32.1827 25 31.25 25.9327 31.25 27.0833C31.25 28.2339 32.1827 29.1667 33.3333 29.1667Z" fill="#CE8106"/>
<path d="M37.4998 22.9167C38.6504 22.9167 39.5832 21.9839 39.5832 20.8333C39.5832 19.6827 38.6504 18.75 37.4998 18.75C36.3492 18.75 35.4165 19.6827 35.4165 20.8333C35.4165 21.9839 36.3492 22.9167 37.4998 22.9167Z" fill="#CE8106"/>
<path d="M41.6668 29.1667C42.8174 29.1667 43.7502 28.2339 43.7502 27.0833C43.7502 25.9327 42.8174 25 41.6668 25C40.5162 25 39.5835 25.9327 39.5835 27.0833C39.5835 28.2339 40.5162 29.1667 41.6668 29.1667Z" fill="#CE8106"/>
<path d="M87.3143 73.7566C86.7206 71.9754 85.3226 70.6129 83.5539 69.5837C82.6476 70.3545 81.4893 70.8337 80.2081 70.8337H19.7914C18.4456 70.8337 17.231 70.3087 16.306 69.4712C15.1039 70.6712 14.1664 72.0212 13.8018 73.2399C12.9497 76.0754 12.4789 80.6316 16.4143 80.3587C18.2643 80.2295 20.006 79.5337 21.4685 78.4712C23.7476 76.817 24.6935 76.3441 26.3976 78.4545C28.0539 80.5045 29.3726 82.2754 31.4768 79.8024C33.6601 77.2337 33.9393 75.817 37.6726 76.5774C41.581 77.3754 44.8601 80.0837 48.8476 80.7149C50.7893 81.0191 51.6331 80.9816 52.7851 79.3149C53.7247 77.9566 54.581 75.0233 56.3976 74.7462C59.3601 74.2941 57.1247 77.6024 57.0393 79.1004C56.8185 82.892 60.9831 79.6524 62.0935 78.3566C62.7872 77.5462 63.8122 75.8712 65.0747 76.192C66.4497 76.5462 65.7456 77.2754 66.0456 78.4066C66.3247 79.4608 67.2664 81.2649 68.5393 81.2483C70.0997 81.2274 70.8331 78.4733 71.6206 77.3566C72.2601 76.4566 73.4518 74.892 74.7018 74.9691C76.0872 75.0566 76.4664 76.7879 77.1622 77.9233C78.5914 80.2545 82.5497 82.4066 85.1018 80.5441C86.7351 79.3504 87.9831 75.7608 87.3143 73.7566Z" fill="#8BC34A"/>
<path d="M83.5516 32.7812H16.8099C14.8141 33.6271 13.2953 34.6917 12.9307 35.9063C12.0724 38.7417 12.1891 41.0458 16.1557 40.7729C18.0182 40.6437 19.7724 39.9479 21.2474 38.8854C23.5453 37.2313 24.4974 36.7583 26.2162 38.8687C27.8849 40.9187 29.2141 42.6896 31.3328 40.2167C33.5328 37.6479 33.8141 36.2313 37.5745 36.9917C41.5162 37.7896 44.8182 40.4979 48.8391 41.1292C50.7932 41.4333 51.6495 41.3958 52.8037 39.7292C53.7516 38.3708 54.6141 35.4375 56.4474 35.1604C59.4328 34.7083 57.1807 38.0167 57.0932 39.5146C56.8724 43.3062 61.0662 40.0667 62.1849 38.7708C62.8849 37.9604 63.9182 36.2854 65.1891 36.6062C66.5745 36.9604 65.8662 37.6896 66.1682 38.8208C66.4495 39.875 67.3995 41.6792 68.6807 41.6625C70.2557 41.6417 70.9932 38.8875 71.7891 37.7708C72.4307 36.8708 73.6328 35.3062 74.8912 35.3833C76.287 35.4708 76.6703 37.2021 77.3682 38.3375C78.8078 40.6688 82.7995 42.8208 85.3703 40.9583C87.0182 39.7646 87.037 38.9521 86.3599 36.9479C85.8537 35.4313 84.837 34.0292 83.5516 32.7812Z" fill="#8BC34A"/>
<path d="M81.25 60.4163C50 60.4163 37.5 66.6663 37.5 66.6663C37.5 66.6663 29.1667 60.4163 18.75 60.4163V58.333H81.25V60.4163Z" fill="#FFEB3B"/>
<path d="M18.75 49.9998C50 49.9998 62.5 56.2498 62.5 56.2498C62.5 56.2498 70.8333 49.9998 81.25 49.9998V47.9165H18.75V49.9998Z" fill="#FFEB3B"/>
</svg>
