<svg width="100" height="100" viewBox="0 0 100 100" fill="none" xmlns="http://www.w3.org/2000/svg">
<path d="M50.0002 93.7477C66.1085 93.7477 79.1668 83.0212 79.1668 69.7894C79.1668 56.5576 66.1085 45.8311 50.0002 45.8311C33.8919 45.8311 20.8335 56.5576 20.8335 69.7894C20.8335 83.0212 33.8919 93.7477 50.0002 93.7477Z" fill="#FFC400"/>
<path d="M79.1668 70.8322C79.1668 54.1655 66.6668 49.9989 64.5835 37.4989C63.2585 29.5551 58.0543 22.9155 50.0002 22.9155C41.946 22.9155 36.7418 29.5551 35.4168 37.4989C33.3335 49.9989 20.8335 54.1655 20.8335 70.8322" fill="#FFC400"/>
<path d="M56.25 10.4155C56.25 10.4155 50 16.6655 50 27.0822L56.25 10.4155Z" fill="white"/>
<path d="M56.25 10.4155C56.25 10.4155 50 16.6655 50 27.0822" stroke="#795548" stroke-width="22" stroke-miterlimit="10"/>
<path d="M49.9998 29.1667C51.1504 29.1667 52.0832 28.2339 52.0832 27.0833C52.0832 25.9327 51.1504 25 49.9998 25C48.8492 25 47.9165 25.9327 47.9165 27.0833C47.9165 28.2339 48.8492 29.1667 49.9998 29.1667Z" fill="#795548"/>
<path d="M50.0002 29.2398C50.0002 29.2398 47.396 3.12524 20.8335 12.5002C23.6981 39.6711 50.0002 29.2398 50.0002 29.2398Z" fill="#4CAF50"/>
<path d="M78.7022 65.6625C76.4606 53.1417 66.4314 48.5896 64.5835 37.5C63.5127 31.075 59.9022 25.5084 54.3002 23.6125C58.8335 26.5938 60.4168 38.5792 60.4168 45.8334C60.4168 54.1667 68.7502 58.3334 68.7502 66.6667C68.7502 75 60.4168 85.4167 47.9168 85.4167C24.7772 85.4167 21.2731 71.1459 20.8772 69.023C20.8689 69.2792 20.8335 69.5313 20.8335 69.7917C20.8335 69.9438 20.8585 70.0938 20.8627 70.2438C20.8585 70.4459 20.8335 70.6271 20.8335 70.8334H20.896C21.5647 83.5771 34.3168 93.75 50.0002 93.75C65.6835 93.75 78.4335 83.5771 79.1043 70.8334H79.1668C79.1668 70.6271 79.1418 70.4459 79.1377 70.2438C79.1418 70.0938 79.1668 69.9438 79.1668 69.7917C79.1668 68.3792 78.9897 67.0042 78.7022 65.6625Z" fill="#FFAB00"/>
<path d="M62.5003 68.7511C63.6509 68.7511 64.5837 67.8184 64.5837 66.6678C64.5837 65.5172 63.6509 64.5845 62.5003 64.5845C61.3497 64.5845 60.417 65.5172 60.417 66.6678C60.417 67.8184 61.3497 68.7511 62.5003 68.7511Z" fill="#FF9100"/>
<path d="M54.1668 68.7511C55.3174 68.7511 56.2502 67.8184 56.2502 66.6678C56.2502 65.5172 55.3174 64.5845 54.1668 64.5845C53.0162 64.5845 52.0835 65.5172 52.0835 66.6678C52.0835 67.8184 53.0162 68.7511 54.1668 68.7511Z" fill="#FF9100"/>
<path d="M58.3333 75.0011C59.4839 75.0011 60.4167 74.0684 60.4167 72.9178C60.4167 71.7672 59.4839 70.8345 58.3333 70.8345C57.1827 70.8345 56.25 71.7672 56.25 72.9178C56.25 74.0684 57.1827 75.0011 58.3333 75.0011Z" fill="#FF9100"/>
</svg>
