<svg width="100" height="100" viewBox="0 0 100 100" fill="none" xmlns="http://www.w3.org/2000/svg">
<path d="M50.1118 22.9753C50.1118 22.9753 59.5611 16.634 68.4738 20.9013C77.3851 25.1653 83.4885 34.6187 83.4885 34.6187L50.1498 23.0707C50.1251 23.0107 50.1118 22.9753 50.1118 22.9753Z" fill="#73953C"/>
<path d="M50.1499 23.0707L83.4886 34.6187C83.4886 34.6187 72.8112 38.2187 63.1759 36.0147C54.0732 33.934 50.5092 24.138 50.1499 23.0707Z" fill="#5A7132"/>
<path d="M45.551 43.2006C43.0536 24.5599 50.021 25.5219 50.1723 18.9299C50.201 17.7239 48.7909 17.0533 47.8743 17.8386C40.4649 24.1913 36.3896 26.2746 32.713 39.1159C30.839 45.6559 29.697 61.1226 29.689 61.8239L31.481 61.8426C31.4936 60.6026 31.6343 59.3253 31.7696 58.0913C32.5343 50.6859 32.8816 45.0353 34.435 39.6093C36.1556 33.6013 38.683 27.0679 44.2909 23.2933L45.5983 25.0206C42.6556 30.9346 43.025 37.8293 43.775 43.4386C44.589 49.4959 46.8063 55.3973 48.6136 61.1266C48.6136 61.1266 49.5836 64.2333 50.1043 65.4546L51.7516 64.7539C51.4536 64.0519 46.4156 49.6393 45.551 43.2006Z" fill="#260302"/>
<path d="M30.7433 58.7224V82.3438C21.7633 82.3438 16.5 76.9071 16.5 69.5624C16.5 63.0464 21.068 57.7644 26.7087 57.7644C28.1447 57.7644 29.504 58.1064 30.7433 58.7224Z" fill="#250132"/>
<path d="M44.9963 69.5624C44.9963 76.7071 39.9483 82.3438 30.7437 82.3438V58.7224C31.985 58.1064 33.3517 57.7644 34.7817 57.7644C40.421 57.7644 44.9963 63.0464 44.9963 69.5624Z" fill="#4C1F5A"/>
<path d="M49.0443 59.3742L60.1963 80.1956C52.2796 84.4349 45.0729 82.1289 41.6049 75.6556C38.5283 69.9102 40.0623 63.0956 45.0336 60.4342C46.299 59.7542 47.6609 59.4156 49.0443 59.3742Z" fill="#250132"/>
<path d="M66.7264 62.1993C70.0991 68.4987 68.3098 75.8506 60.1965 80.1953L49.0444 59.374C49.8478 58.2433 50.8904 57.2966 52.1498 56.6226C57.1224 53.9586 63.6511 56.456 66.7264 62.1993Z" fill="#4C1F5A"/>
</svg>
