<svg width="100" height="100" viewBox="0 0 100 100" fill="none" xmlns="http://www.w3.org/2000/svg">
<path d="M88.725 39.3239C88.6562 39.2343 88.5875 39.1593 88.55 39.1093C87.4625 37.7635 89.0271 38.8281 89.4354 38.2718C89.9208 37.6093 88.4104 36.376 88.0021 36.0302C87.2542 35.4218 86.2583 34.8968 85.2854 34.7531C85.6479 34.7823 86.4854 34.7593 86.4562 34.276C86.425 33.7781 85.2292 33.1864 84.8646 32.9843C84.0479 32.5177 83.1979 32.0885 82.2729 31.8364C81.5 31.6239 80.7542 31.7135 80.0104 31.6364C80.2625 31.4739 80.5937 31.3718 80.8187 31.0989C79.9937 29.8135 76.1854 30.3843 75.2812 31.351C75.725 30.8406 75.9708 30.3906 75.0833 30.3552C74.4667 30.3323 73.8792 30.6073 73.3042 30.7906C64.5083 33.5218 58.7354 39.5468 56.8896 41.576C54.9854 43.6823 54.2812 45.5343 54.2812 45.5343C56.8438 43.1218 59.8708 40.7531 63.2187 38.9906C65.2271 37.9323 69.0792 36.451 71.2417 37.9364C71.7646 38.2948 72.2146 38.7052 72.8542 38.8406C72.9167 38.6323 73.0583 38.4781 73.0312 38.2218C73.5479 38.9302 73.0438 39.9427 73.6208 40.7281C74.3667 41.751 75.1146 41.2864 75.8875 40.6802C75.5979 41.5677 75.9021 42.8156 76.4292 43.5552C76.9958 44.3656 78.0604 44.3364 78.3375 43.3031C78.5396 44.4343 79.7208 48.1927 81.5562 46.4677C82.625 45.4552 83.1542 43.0968 82.6458 41.8343C83.2687 42.5593 83.8917 44.0239 84.7479 44.6989C85.5083 45.3156 86.4625 45.4218 87.3875 44.8593C88.6646 44.1073 88.6646 42.7635 88.6521 41.4739C88.6521 40.676 88.9083 41.1968 89.3604 41.0552C89.9833 40.851 89.1562 39.8302 88.725 39.3239Z" fill="#388E3C"/>
<path d="M60.6984 11.2814C60.7817 11.348 60.863 11.4147 60.9088 11.4585C62.2567 12.5397 61.188 10.9772 61.7546 10.573C62.4109 10.0855 63.6442 11.5897 63.9859 12.0064C64.5901 12.7501 65.1171 13.7522 65.2609 14.721C65.2338 14.3585 65.2609 13.5293 65.7401 13.5564C66.2401 13.5897 66.8317 14.7814 67.0338 15.146C67.5005 15.9626 67.9338 16.8105 68.1796 17.7418C68.3963 18.5126 68.3026 19.2605 68.3817 20.0043C68.5421 19.746 68.6484 19.421 68.9171 19.1897C70.2046 20.023 69.6338 23.8293 68.6671 24.7314C69.1755 24.2918 69.6276 24.0397 69.6567 24.9335C69.6838 25.548 69.4109 26.1355 69.2276 26.7126C66.4901 35.5064 60.4692 41.2855 58.4401 43.1272C56.3338 45.0376 54.4901 45.7418 54.4901 45.7418C56.9005 43.1772 59.2651 40.1501 61.0317 36.798C62.0838 34.7918 63.5671 30.9376 62.0838 28.773C61.7255 28.2564 61.3109 27.8022 61.1776 27.1564C61.3859 27.096 61.5401 26.9605 61.7942 26.9855C61.0796 26.4626 60.0713 26.9689 59.2921 26.3897C58.2734 25.646 58.7359 24.9001 59.3401 24.123C58.4588 24.421 57.2088 24.1064 56.4671 23.5814C55.6526 23.0105 55.6859 21.9439 56.7192 21.6647C55.5838 21.4689 51.8317 20.2897 53.5567 18.448C54.5692 17.3835 56.9192 16.8522 58.1859 17.3605C57.4609 16.7376 55.9984 16.1168 55.3255 15.2605C54.7026 14.4939 54.6005 13.5376 55.1588 12.6168C55.913 11.3397 57.2546 11.3439 58.5484 11.3501C59.3442 11.3501 58.8151 11.0918 58.9588 10.6439C59.1651 10.0168 60.1838 10.8439 60.6984 11.2814Z" fill="#388E3C"/>
<path d="M86.6964 13.306C84.9818 11.5894 83.3339 12.6894 81.9839 14.0602C82.386 13.5019 81.8964 12.7248 81.2068 12.5269C80.5172 12.331 79.8839 12.706 79.4526 13.1373C78.5714 14.0248 78.5818 15.3206 78.5922 16.5289C77.9151 15.0727 76.2255 15.7768 75.663 16.9498C75.1693 17.9831 75.1526 19.1956 75.3401 20.3227C74.7589 19.6831 73.7922 19.6831 73.086 20.4769C71.0589 22.7685 70.811 28.9414 60.4318 39.0664C60.2776 39.2144 60.8172 39.7039 60.9235 39.6039C73.5985 27.3998 77.1089 29.2748 79.7818 27.0081C80.4547 26.4373 79.7443 25.9498 79.138 25.7477C79.9339 25.6935 80.7297 25.5664 81.5172 25.4581C82.4922 25.3144 83.6755 25.1185 84.4005 24.3727C84.8547 23.8998 85.2943 23.1164 84.9547 22.4498C84.6005 21.7373 83.911 21.8581 83.2464 21.7435C84.4589 21.5935 85.9901 21.2769 86.9485 20.3977C87.4172 19.9664 87.788 19.4373 87.6943 18.7685C87.6255 18.2956 87.2089 17.3831 86.586 17.5873C87.811 16.5519 87.7839 14.3935 86.6964 13.306Z" fill="#4CAF50"/>
<path d="M64.6521 56.3897C68.7355 52.1314 68.575 44.9481 61.825 38.2023C55.0813 31.4439 47.8896 31.2752 43.7188 35.446C34.8313 45.2335 12.3417 82.846 14.7667 85.2731C16.7938 87.2981 51.3938 67.5356 64.6521 56.3897Z" fill="#FF9800"/>
<path d="M41.5244 59.1471C41.9307 59.5533 42.4661 59.7575 42.9994 59.7575C43.5327 59.7575 44.0661 59.5533 44.4723 59.1471C45.289 58.3325 45.289 57.0117 44.4723 56.1971L35.1848 46.9033C34.414 48.0492 33.6265 49.2387 32.8369 50.4554L41.5244 59.1471Z" fill="#EF6C00"/>
<path d="M40.6846 39.1553L44.7033 43.1782C45.1117 43.5845 45.645 43.7886 46.1783 43.7886C46.7117 43.7886 47.245 43.5845 47.6512 43.1782C48.4679 42.3636 48.4679 41.0449 47.6512 40.2282L43.3242 35.897C42.5325 36.8032 41.645 37.8928 40.6846 39.1553Z" fill="#EF6C00"/>
<path d="M19.6868 76.9293C20.0931 77.3376 20.6264 77.5418 21.1598 77.5418C21.6931 77.5418 22.2264 77.3376 22.6348 76.9293C23.4493 76.1147 23.4493 74.798 22.6348 73.9813L20.2243 71.5688C19.491 72.9272 18.8139 74.2188 18.1973 75.4418L19.6868 76.9293Z" fill="#EF6C00"/>
<path d="M55.9729 52.7423C55.1583 51.9277 53.8417 51.9277 53.025 52.7423C52.2104 53.5569 52.2104 54.8756 53.025 55.6923L58.4688 61.1381C59.6667 60.2777 60.8021 59.4381 61.8563 58.6277L55.9729 52.7423Z" fill="#EF6C00"/>
<path d="M29.1221 64.5439L35.4783 70.9023" stroke="#EF6C00" stroke-width="22" stroke-linecap="round"/>
</svg>
