<svg width="100" height="100" viewBox="0 0 100 100" fill="none" xmlns="http://www.w3.org/2000/svg">
<path d="M43.7503 14.5845C41.667 22.9178 41.667 33.3345 41.667 33.3345H58.3337C58.3337 33.3345 58.3337 22.9178 56.2503 14.5845H43.7503Z" fill="#8BC34A"/>
<path d="M58.333 33.3345H41.6663C41.6663 37.5011 33.333 47.9178 33.333 54.1678V85.4178C33.333 89.5845 35.1997 91.6678 37.4997 91.6678H62.4997C64.7997 91.6678 66.6663 89.5845 66.6663 85.4178V54.1678C66.6663 47.9178 58.333 37.5011 58.333 33.3345Z" fill="#689F38"/>
<path d="M56.9016 8.33333C56.1203 7.20625 55.9703 6.25 54.8182 6.25H45.1807C44.0286 6.25 43.8349 7.1625 43.0974 8.33333C43.0974 8.33333 41.6641 11.3479 41.6641 12.5C41.6641 13.6521 42.5953 14.5833 43.7474 14.5833H56.2495C57.4016 14.5833 58.3766 13.6708 58.3328 12.5C58.2891 11.3292 56.9016 8.33333 56.9016 8.33333Z" fill="#558B2F"/>
<path d="M66.6663 58.3311H33.333V74.9977H66.6663V58.3311Z" fill="#33691E"/>
<path d="M50.0021 85.4155C43.1083 85.4155 37.5 79.6739 37.5 72.6176V60.7072C37.5 53.6551 43.1083 47.9155 50.0021 47.9155C56.8937 47.9155 62.5 53.6551 62.5 60.7093V72.6197C62.5 79.6739 56.8937 85.4155 50.0021 85.4155Z" fill="#33691E"/>
<path d="M35.4829 91.0042C36.0829 91.4312 36.7621 91.6667 37.4996 91.6667H62.4996C63.2371 91.6667 63.9162 91.4312 64.5162 91.0042C64.1954 89.0187 62.4892 87.5 60.4162 87.5H39.5829C37.51 87.5 35.8037 89.0187 35.4829 91.0042Z" fill="#33691E"/>
<path d="M58.3337 60.7116C58.3337 55.9532 54.5962 52.0845 50.0024 52.0845C45.4066 52.0845 41.667 55.9532 41.667 60.7116V72.622C41.667 77.3803 45.4066 81.2511 50.0024 81.2511C54.5962 81.2511 58.3337 77.3803 58.3337 72.6199V60.7116Z" fill="#FFECB3"/>
<path d="M58.3337 10.4167V8.33333C58.3337 7.18125 57.4024 6.25 56.2503 6.25H43.7503C42.5982 6.25 41.667 7.18125 41.667 8.33333V10.4167H58.3337Z" fill="#FF3D00"/>
<path d="M62.5 62.5H37.5V70.8333H62.5V62.5Z" fill="#FF3D00"/>
</svg>
