<svg width="100" height="100" viewBox="0 0 100 100" fill="none" xmlns="http://www.w3.org/2000/svg">
<path d="M86.9399 16.4107C87.6837 15.6607 87.6858 14.4441 86.9399 13.6941C86.192 12.9462 84.9837 12.9462 84.2337 13.6941C84.9816 12.9462 84.9816 11.7295 84.2358 10.9795C83.4858 10.2295 82.2795 10.2295 81.5295 10.9795C76.9378 15.5878 62.5732 8.28158 51.7795 19.1232C42.3107 28.6274 23.3774 50.3545 23.3774 50.3545C16.617 59.8587 14.5295 69.9191 21.3837 76.7941C28.2357 83.6753 38.2566 81.5795 47.7212 74.7899C47.7212 74.7899 69.7316 56.1566 79.1962 46.6503C90.467 35.342 82.3691 21.0003 86.9399 16.4107Z" fill="#7CB342"/>
<path d="M65.5207 49.7242C63.0561 49.7242 56.5957 47.3262 56.5957 44.9242C56.5957 42.5221 63.0561 40.1221 65.5186 40.1221C67.9874 40.1221 69.9853 42.27 69.9853 44.9242C69.9853 47.5742 67.9853 49.7242 65.5207 49.7242Z" fill="#F1F8E9"/>
<path d="M56.0352 59.2467C53.5706 59.2467 47.1123 56.8447 47.1123 54.4447C47.1123 52.0447 53.5727 49.6426 56.0352 49.6426C58.5019 49.6426 60.4998 51.7947 60.4998 54.4447C60.4998 57.0967 58.5019 59.2467 56.0352 59.2467Z" fill="#F1F8E9"/>
<path d="M46.59 68.7326C44.1234 68.7326 37.665 66.3305 37.665 63.9326C37.665 61.5347 44.1255 59.1284 46.588 59.1284C49.0505 59.1284 51.0546 61.2805 51.0525 63.9326C51.0546 66.5826 49.0525 68.7326 46.59 68.7326Z" fill="#F1F8E9"/>
<path d="M36.6669 74.563C34.8981 74.563 30.2627 72.8401 30.2627 71.1214C30.2627 69.4026 34.9002 67.6755 36.6669 67.6797C38.4335 67.6776 39.8669 69.2214 39.8669 71.1234C39.8648 73.0214 38.4335 74.563 36.6669 74.563Z" fill="#F1F8E9"/>
<path d="M78.3165 29.8856C76.8977 29.8856 73.1748 28.5002 73.1748 27.121C73.1769 25.7377 76.8977 24.3564 78.3165 24.3564C79.7352 24.3564 80.8852 25.5919 80.8831 27.1189C80.8831 28.6439 79.7352 29.8856 78.3165 29.8856Z" fill="#F1F8E9"/>
<path d="M48.3477 32.4826C48.3477 34.9597 50.7393 41.4472 53.131 41.4472C55.5185 41.4472 57.9102 34.9618 57.9143 32.4826C57.9102 30.0118 55.7727 28.0034 53.1289 28.0034C50.4893 28.0013 48.3477 30.0076 48.3477 32.4826Z" fill="#F1F8E9"/>
<path d="M38.8623 42.0075C38.8623 44.4825 41.254 50.9679 43.6456 50.9679C46.0373 50.9679 48.429 44.4825 48.4311 42.0075C48.429 39.5304 46.2873 37.5262 43.6456 37.5283C41.0081 37.5283 38.8623 39.5304 38.8623 42.0075Z" fill="#F1F8E9"/>
<path d="M29.415 51.4898C29.413 53.9648 31.8067 60.4523 34.1984 60.4523C36.5859 60.4523 38.9796 53.9669 38.9817 51.4939C38.9796 49.0189 36.838 47.0127 34.1963 47.0127C31.5567 47.0106 29.413 49.0169 29.415 51.4898Z" fill="#F1F8E9"/>
<path d="M23.6084 61.4553C23.6084 63.2324 25.3251 67.8845 27.0376 67.8845C28.7501 67.8803 30.4667 63.2324 30.4646 61.4574C30.4646 59.6782 28.9334 58.2407 27.0355 58.2407C25.1459 58.2407 23.6084 59.6803 23.6084 61.4553Z" fill="#F1F8E9"/>
<path d="M73.0587 39.4086C71.0566 39.4086 65.8066 37.4566 65.8066 35.5107C65.8066 33.5649 71.0587 31.6086 73.0587 31.6128C75.0587 31.6107 76.6816 33.3607 76.6816 35.5149C76.6816 37.6628 75.0608 39.4086 73.0587 39.4086Z" fill="#F1F8E9"/>
<path d="M58.4834 24.5548C58.4834 26.636 60.498 32.0985 62.5084 32.0985C64.5209 32.0944 66.5334 26.636 66.5313 24.5569C66.5313 22.4694 64.7334 20.7798 62.5084 20.7798C60.2876 20.7819 58.4834 22.4694 58.4834 24.5548Z" fill="#F1F8E9"/>
<path d="M68.1045 19.4903C68.1045 20.9195 69.4795 24.6528 70.8587 24.6528C72.2316 24.6528 73.6087 20.9195 73.6087 19.4903C73.6087 18.0653 72.3753 16.9111 70.8566 16.9111C69.3378 16.9111 68.1024 18.0674 68.1045 19.4903Z" fill="#F1F8E9"/>
<path d="M22.7795 78.1126C38.2899 62.5376 67.0628 33.6501 68.0087 32.7001C69.3587 31.3438 84.2357 13.6938 84.2357 13.6938C84.2357 13.6938 66.6545 28.6272 65.3066 29.9897L20.0732 75.3959L22.7795 78.1126Z" fill="#D4E157"/>
<path d="M49.4627 19.879C51.8086 17.5394 54.6857 15.2394 57.9107 14.0435C61.1315 12.7644 64.5669 12.3998 67.9127 12.3373C71.269 12.2456 74.4357 12.879 77.7273 12.554C74.3877 13.0477 71.2398 12.854 67.9461 13.0998C64.6502 13.2769 61.3815 13.9519 58.4732 15.3456C57.0211 16.0394 55.6648 16.9102 54.4377 17.9373C53.2065 18.9477 52.1607 20.1706 51.0357 21.4227C46.6252 26.3977 42.3544 31.531 38.1044 36.6706L25.444 51.904C23.1232 55.404 21.2836 59.2019 21.0877 62.8665C20.5773 72.4415 23.0794 72.3206 20.0565 75.3852C18.8002 73.9436 17.669 72.3186 16.869 70.4623C15.7836 67.9998 15.294 65.204 15.4877 62.5269C15.8857 57.1165 18.4336 52.6206 21.2523 48.829L21.3607 48.679L21.4086 48.6248C25.9107 43.6665 30.544 38.8477 35.1919 34.031C39.8836 29.254 44.594 24.5019 49.4627 19.879Z" fill="#558B2F"/>
<path d="M19.45 74.7036C19.45 74.7036 9.44164 66.6681 13.4437 50.5952C17.4458 60.641 19.45 72.6931 19.45 72.6931" fill="#558B2F"/>
<path d="M23.1709 78.439C23.1709 78.439 31.1771 88.4848 47.1876 84.466C37.1813 80.4494 25.173 78.439 25.173 78.439" fill="#558B2F"/>
<path d="M78.0585 48.589C80.3897 46.2327 82.6835 43.3452 83.8751 40.1077C85.146 36.8744 85.5106 33.4244 85.5731 30.064C85.6606 26.6994 85.1272 23.614 85.4543 20.314C84.9647 23.6619 85.0585 26.7244 84.8147 30.039C84.6355 33.3431 83.9626 36.6244 82.5751 39.5452C81.8835 41.0015 81.0126 42.366 79.9918 43.5973C78.9897 44.8306 77.7689 45.8869 76.523 47.0119C71.5668 51.4431 66.4543 55.7285 61.3335 59.991L46.1626 72.7035C42.6772 75.039 38.898 76.8827 35.246 77.0827C25.7126 77.591 25.8272 75.0806 22.7793 78.116C24.2147 79.3744 25.8335 80.5077 27.6814 81.3161C30.1314 82.4015 32.923 82.8973 35.5835 82.6994C40.973 82.3035 45.4522 79.7431 49.2293 76.9181L49.3793 76.8077L49.4335 76.7577C54.3731 72.2411 59.1751 67.591 63.9647 62.916C68.721 58.2056 73.4564 53.4806 78.0585 48.589Z" fill="#558B2F"/>
</svg>
