<svg width="100" height="100" viewBox="0 0 100 100" fill="none" xmlns="http://www.w3.org/2000/svg">
<g clip-path="url(#clip0_190_4378)">
<path opacity="0.985" fill-rule="evenodd" clip-rule="evenodd" d="M73.5352 3.41836C70.6182 6.97875 69.0557 11.0803 68.8477 15.7231C67.0071 15.6554 65.184 15.7856 63.3789 16.1137C61.4174 11.2911 62.5243 7.35227 66.6993 4.29727C68.8745 3.2344 71.1532 2.94143 73.5352 3.41836Z" fill="#A7C464"/>
<path fill-rule="evenodd" clip-rule="evenodd" d="M73.5352 3.41846C75.6053 3.99328 77.2328 5.16516 78.418 6.93408C76.0687 9.81215 74.8318 13.1325 74.707 16.895C73.2814 16.5189 71.8492 16.1934 70.4102 15.9185C69.8816 15.9038 69.3607 15.8387 68.8477 15.7231C69.0557 11.0804 70.6182 6.97885 73.5352 3.41846Z" fill="#95B75C"/>
<path opacity="0.997" fill-rule="evenodd" clip-rule="evenodd" d="M92.6758 16.3094C91.0586 19.6193 88.5846 22.0934 85.2539 23.7313C82.2578 20.6695 78.7422 18.3908 74.707 16.8953C74.8318 13.1328 76.0688 9.81244 78.418 6.93437C82.826 3.87564 87.0252 4.13605 91.0156 7.71562C93.0584 10.2884 93.6117 13.1529 92.6758 16.3094Z" fill="#BBCE64"/>
<path fill-rule="evenodd" clip-rule="evenodd" d="M68.8477 15.7239C69.3607 15.8394 69.8816 15.9045 70.4102 15.9192C66.5322 18.7299 63.4725 22.2456 61.2305 26.4661C60.8605 26.5731 60.5352 26.7684 60.2539 27.052C59.7168 27.8005 59.2285 28.5817 58.7891 29.3958C58.674 30.0102 58.8369 30.5309 59.2773 30.9583C58.4828 33.3366 57.8969 35.7454 57.5195 38.1848C57.107 38.0012 56.7164 37.7735 56.3477 37.5012C55.2127 37.2862 54.5617 37.7419 54.3945 38.8684C54.3766 39.418 54.5719 39.8737 54.9805 40.2356C55.9387 40.8102 56.85 41.4288 57.7148 42.0911C58.0986 51.3216 61.8096 58.8737 68.8477 64.7473C65.0359 66.8854 60.9344 68.1225 56.543 68.4583C54.8355 62.6997 52.1988 57.4262 48.6328 52.638C47.108 51.0137 45.5129 49.5165 43.8477 48.1458C44.2752 39.9239 46.5213 32.2417 50.5859 25.0989C53.6209 20.3434 57.8852 17.3486 63.3789 16.1145C65.184 15.7864 67.007 15.6562 68.8477 15.7239Z" fill="#FCA73E"/>
<path opacity="0.998" fill-rule="evenodd" clip-rule="evenodd" d="M70.4102 15.9185C71.8492 16.1934 73.2814 16.5189 74.707 16.895C78.7422 18.3905 82.2578 20.6692 85.2539 23.731C86.5898 25.1981 87.6967 26.8257 88.5742 28.6138C89.4223 30.2491 90.0734 31.9417 90.5273 33.6919C91.6492 39.8812 90.3146 45.4802 86.5234 50.4888C81.6318 56.5235 75.74 61.2761 68.8477 64.7466C61.8096 58.8729 58.0986 51.3208 57.7148 42.0903C58.1602 42.313 58.616 42.5409 59.082 42.7739C60.5779 42.905 61.1965 42.2214 60.9375 40.7231C59.8721 39.7536 58.7326 38.9073 57.5195 38.1841C57.8969 35.7446 58.4828 33.3358 59.2773 30.9575C59.8248 31.4366 60.4107 31.4692 61.0352 31.0552C62.1062 30.0519 62.7246 28.8474 62.8906 27.4419C62.5018 26.8403 61.9482 26.5149 61.2305 26.4653C63.4725 22.2448 66.5322 18.7291 70.4102 15.9185Z" fill="#FCBA6B"/>
<path fill-rule="evenodd" clip-rule="evenodd" d="M92.6758 16.3091C94.8078 16.5917 96.5004 17.5683 97.7539 19.2388C97.2996 20.7673 96.5508 22.1345 95.5078 23.3403C93.5441 25.6024 91.2328 27.3603 88.5742 28.6138C87.6967 26.8257 86.5898 25.1981 85.2539 23.731C88.5846 22.0931 91.0586 19.619 92.6758 16.3091Z" fill="#95B75C"/>
<path opacity="0.986" fill-rule="evenodd" clip-rule="evenodd" d="M97.7539 19.2378C98.8789 20.3159 99.5951 21.6181 99.9023 23.144C99.9023 24.381 99.9023 25.6181 99.9023 26.855C98.4682 31.4163 95.3432 33.695 90.5273 33.6909C90.0734 31.9407 89.4223 30.2481 88.5742 28.6128C91.2328 27.3593 93.5441 25.6015 95.5078 23.3394C96.5508 22.1335 97.2996 20.7663 97.7539 19.2378Z" fill="#A7C564"/>
<path fill-rule="evenodd" clip-rule="evenodd" d="M61.231 26.4653C61.9488 26.5149 62.5023 26.8403 62.8912 27.4419C62.7252 28.8474 62.1068 30.0519 61.0357 31.0552C60.4113 31.4692 59.8254 31.4366 59.2779 30.9575C58.8375 30.5302 58.6746 30.0095 58.7896 29.395C59.2291 28.581 59.7174 27.7997 60.2545 27.0513C60.5357 26.7677 60.8611 26.5724 61.231 26.4653Z" fill="#47404F"/>
<path fill-rule="evenodd" clip-rule="evenodd" d="M66.5039 32.9109C67.3053 32.7682 67.9889 32.9635 68.5547 33.4969C68.7236 34.5207 69.2119 35.3346 70.0195 35.9383C71.0611 36.0686 72.1029 36.1986 73.1445 36.3289C73.8059 36.9877 73.9035 37.7363 73.4375 38.575C73.2611 38.8096 73.0334 38.9725 72.7539 39.0633C68.9158 39.6514 66.5721 38.0564 65.7227 34.2781C65.8342 33.7287 66.0945 33.2731 66.5039 32.9109Z" fill="#45404F"/>
<path opacity="0.984" fill-rule="evenodd" clip-rule="evenodd" d="M35.4492 45.215C33.6186 45.1658 31.7955 45.231 29.9805 45.4103C29.3193 41.8302 27.9197 38.5751 25.7812 35.6447C25.1762 34.9402 24.4926 34.3542 23.7305 33.8869C28.0854 32.2986 31.6986 33.3404 34.5703 37.0119C36.0459 39.6245 36.3389 42.3589 35.4492 45.215Z" fill="#A7C564"/>
<path fill-rule="evenodd" clip-rule="evenodd" d="M23.7305 33.8872C24.4926 34.3546 25.1762 34.9405 25.7812 35.645C27.9197 38.5755 29.3193 41.8306 29.9805 45.4106C27.9541 45.7606 26.001 46.3466 24.1211 47.1685C23.6738 43.3437 22.0463 40.1536 19.2383 37.5981C19.974 36.8167 20.6902 36.003 21.3867 35.1567C22.085 34.5798 22.8662 34.1565 23.7305 33.8872Z" fill="#95B75C"/>
<path opacity="0.997" fill-rule="evenodd" clip-rule="evenodd" d="M19.2384 37.597C22.0464 40.1525 23.6739 43.3425 24.1212 47.1673C20.2837 49.1158 17.0285 51.7851 14.3556 55.1752C10.9069 53.7439 8.17255 51.4654 6.15245 48.3392C4.70606 44.1318 5.68263 40.5837 9.08214 37.6947C12.4553 35.5144 15.8407 35.4818 19.2384 37.597Z" fill="#BBCE64"/>
<path fill-rule="evenodd" clip-rule="evenodd" d="M57.5197 38.184C58.7328 38.9073 59.8722 39.7536 60.9377 40.7231C61.1966 42.2213 60.5781 42.9049 59.0822 42.7739C58.6162 42.5409 58.1603 42.3129 57.715 42.0903C56.8502 41.428 55.9388 40.8094 54.9806 40.2348C54.572 39.8729 54.3767 39.4172 54.3947 38.8676C54.5619 37.7411 55.2129 37.2854 56.3478 37.5004C56.7166 37.7727 57.1072 38.0004 57.5197 38.184Z" fill="#F6CD70"/>
<path fill-rule="evenodd" clip-rule="evenodd" d="M79.7856 38.9655C81.2819 38.8021 81.9655 39.453 81.8364 40.9187C81.3698 41.9058 80.7515 42.7847 79.981 43.5554C78.2558 43.9134 77.5722 43.2298 77.9302 41.5046C78.4597 40.5683 79.0782 39.722 79.7856 38.9655Z" fill="#45404F"/>
<path opacity="0.999" fill-rule="evenodd" clip-rule="evenodd" d="M35.4492 45.2156C38.4602 45.6115 41.2596 46.588 43.8477 48.1453C45.5129 49.516 47.108 51.0132 48.6328 52.6375C52.1988 57.4257 54.8355 62.6992 56.543 68.4578C57.5432 71.5709 58.1943 74.7609 58.4961 78.0281C56.0021 80.2865 53.2027 82.1093 50.0977 83.4968C50.5561 81.7752 49.9049 81.0265 48.1445 81.2507C47.0053 82.1296 45.8658 83.0086 44.7266 83.8875C44.3549 84.2666 44.1922 84.7222 44.2383 85.2546C33.1375 86.8148 24.1855 83.1691 17.3828 74.3171C14.2277 69.572 12.5025 64.3636 12.207 58.6921C12.8251 57.455 13.5413 56.2832 14.3555 55.1765C17.0284 51.7865 20.2836 49.1171 24.1211 47.1687C26.001 46.3468 27.9541 45.7609 29.9805 45.4109C31.7955 45.2316 33.6186 45.1664 35.4492 45.2156Z" fill="#FCBA6B"/>
<path fill-rule="evenodd" clip-rule="evenodd" d="M6.15293 48.3403C8.17303 51.4665 10.9074 53.745 14.3561 55.1763C13.5419 56.2829 12.8257 57.4548 12.2076 58.6919C11.8936 59.2548 11.6331 59.8407 11.4264 60.4497C7.34918 58.7483 4.06142 56.0792 1.56308 52.4419C1.46879 52.2567 1.43624 52.0614 1.46543 51.856C2.63674 50.164 4.19924 48.9921 6.15293 48.3403Z" fill="#95B75C"/>
<path fill-rule="evenodd" clip-rule="evenodd" d="M65.9181 50.6837C66.3784 50.6519 66.8341 50.6843 67.2852 50.7814C68.3534 51.4265 69.395 52.1101 70.4102 52.8321C71.2649 53.8562 71.1348 54.7351 70.0196 55.4689C69.694 55.5991 69.3686 55.5991 69.0431 55.4689C67.6659 54.7423 66.3964 53.8634 65.2345 52.8321C64.9733 51.9282 65.2013 51.212 65.9181 50.6837Z" fill="#F6CD70"/>
<path opacity="0.986" fill-rule="evenodd" clip-rule="evenodd" d="M1.46484 51.856C1.43565 52.0614 1.46821 52.2567 1.5625 52.4419C4.06084 56.0792 7.34859 58.7483 11.4258 60.4497C10.8436 62.1288 10.3879 63.8216 10.0586 65.5278C4.8165 65.969 1.43108 63.6903 -0.0976562 58.6919C-0.0976562 57.455 -0.0976562 56.2179 -0.0976562 54.981C0.213156 53.8386 0.733988 52.7968 1.46484 51.856Z" fill="#A7C564"/>
<path fill-rule="evenodd" clip-rule="evenodd" d="M37.9883 55.3713C38.4744 55.3319 38.9303 55.4295 39.3555 55.6643C39.9775 56.2276 40.5309 56.8461 41.0156 57.5197C41.6688 59.5352 40.9852 60.2838 38.9648 59.7658C38.0727 58.9408 37.4217 57.9643 37.0117 56.8362C37.0764 56.1565 37.402 55.6682 37.9883 55.3713Z" fill="#45404F"/>
<path fill-rule="evenodd" clip-rule="evenodd" d="M12.2073 58.6909C12.5027 64.3624 14.228 69.5708 17.3831 74.3159C24.1858 83.1679 33.1377 86.8136 44.2385 85.2534C44.654 86.3521 45.4352 86.7101 46.5823 86.3276C47.7862 85.4161 48.9581 84.4722 50.0979 83.4956C53.203 82.1081 56.0024 80.2853 58.4963 78.0269C59.8954 93.2647 53.1897 99.0915 38.3792 95.5073C29.4887 92.7413 21.8389 88.0214 15.4299 81.3472C11.5201 76.8118 9.72972 71.5384 10.0588 65.5269C10.3881 63.8206 10.8439 62.1278 11.426 60.4487C11.6328 59.8397 11.8932 59.2538 12.2073 58.6909Z" fill="#FCA73E"/>
<path fill-rule="evenodd" clip-rule="evenodd" d="M32.9096 62.2065C34.8143 62.4638 35.3678 63.5054 34.5698 65.3315C33.3466 68.2388 31.1655 69.4431 28.0268 68.9448C27.1962 68.2769 27.0333 67.463 27.5385 66.5034C28.3081 66.1812 29.1219 66.0185 29.98 66.0151C31.3126 65.4712 31.9962 64.462 32.0307 62.9878C32.3036 62.6812 32.5966 62.4206 32.9096 62.2065Z" fill="#45404F"/>
<path fill-rule="evenodd" clip-rule="evenodd" d="M47.559 67.6766C49.0529 67.6403 49.6713 68.3565 49.4145 69.825C48.5693 70.7524 47.6254 71.5661 46.5824 72.2665C44.9975 72.5043 44.3139 71.8207 44.5316 70.2157C45.5209 69.3223 46.5299 68.476 47.559 67.6766Z" fill="#F6CD70"/>
<path fill-rule="evenodd" clip-rule="evenodd" d="M20.215 69.6281C20.7658 69.5789 21.2865 69.6765 21.7775 69.9211C22.396 70.6697 23.0144 71.4185 23.6329 72.1672C23.8609 73.7623 23.1773 74.4459 21.5822 74.2179C20.8915 73.5927 20.273 72.9091 19.7267 72.1672C19.2302 71.1785 19.393 70.3322 20.215 69.6281Z" fill="#45404F"/>
<path fill-rule="evenodd" clip-rule="evenodd" d="M33.496 75.6841C35.2753 75.7372 35.8287 76.5835 35.1562 78.2231C34.0251 79.0282 32.9509 79.9071 31.9335 80.8599C30.9033 81.3884 30.0896 81.1604 29.4921 80.1763C29.3542 79.6937 29.4193 79.2378 29.6875 78.8091C30.881 77.647 32.1505 76.6054 33.496 75.6841Z" fill="#F6CD70"/>
<path fill-rule="evenodd" clip-rule="evenodd" d="M50.0975 83.4958C48.9576 84.4724 47.7858 85.4163 46.5819 86.3278C45.4348 86.7102 44.6535 86.3522 44.2381 85.2536C44.192 84.7212 44.3547 84.2655 44.7264 83.8864C45.8656 83.0075 47.0051 82.1286 48.1444 81.2497C49.9047 81.0255 50.5559 81.7741 50.0975 83.4958Z" fill="#F6CD70"/>
</g>
<defs>
<clipPath id="clip0_190_4378">
<rect width="100" height="100" fill="white"/>
</clipPath>
</defs>
</svg>
