<svg width="100" height="100" viewBox="0 0 100 100" fill="none" xmlns="http://www.w3.org/2000/svg">
<path fill-rule="evenodd" clip-rule="evenodd" d="M53.835 5.49039C53.0338 5.45953 52.235 5.49058 51.4383 5.58352C53.1475 6.6683 53.5471 8.12732 52.6367 9.96055C52.178 10.673 51.5327 11.0766 50.7009 11.1712C49.285 11.2462 47.8714 11.3393 46.4605 11.4506C46.4979 11.0985 46.3752 10.8191 46.0918 10.6124C44.3711 10.4883 42.6503 10.4883 40.9296 10.6124C40.4379 11.047 40.4379 11.4816 40.9296 11.9162C41.6029 12.0091 42.2788 12.0402 42.9576 12.0094C40.0189 12.6886 37.2534 13.8061 34.6613 15.362C33.7419 14.7258 33.2502 14.9741 33.1864 16.107C27.2453 19.7969 22.9434 24.8879 20.281 31.38C19.2958 31.3491 18.3125 31.3802 17.3312 31.4732C16.8395 31.9077 16.8395 32.3424 17.3312 32.777C18.0661 32.8699 18.8035 32.901 19.5435 32.8701C18.2385 36.7897 17.5932 40.8251 17.6077 44.9767C16.5929 46.9175 15.0873 47.4452 13.0908 46.5599C12.6836 46.2111 12.3456 45.8074 12.0768 45.3493C11.9851 45.8421 11.9544 46.3388 11.9846 46.8393C11.9232 46.8393 11.8617 46.8393 11.8003 46.8393C11.3394 29.7888 18.4681 17.2164 33.1864 9.12239C39.7591 5.95669 46.6421 4.74602 53.835 5.49039Z" fill="#D16D27"/>
<path fill-rule="evenodd" clip-rule="evenodd" d="M53.8348 5.49005C66.8038 6.9625 76.6672 13.2952 83.425 24.4882C87.2015 31.1819 88.8916 38.3839 88.495 46.0939C87.4113 59.184 81.5117 69.397 70.7962 76.7331C60.0574 83.1802 48.7499 84.4218 36.8734 80.4582C22.0187 74.2326 13.7224 63.0261 11.9844 46.839C11.9541 46.3385 11.9849 45.8418 12.0766 45.3489C12.3453 45.8071 12.6833 46.2107 13.0906 46.5596C15.087 47.4449 16.5927 46.9172 17.6075 44.9764C17.593 40.8247 18.2383 36.7893 19.5433 32.8697C20.5285 32.9007 21.5117 32.8696 22.4931 32.7766C22.9848 32.3421 22.9848 31.9074 22.4931 31.4728C21.7582 31.3799 21.0207 31.3488 20.2807 31.3797C22.9431 24.8875 27.245 19.7965 33.1861 16.1067C34.3165 17.1554 35.4226 18.2419 36.5047 19.3662C37.3343 19.5214 37.6722 19.1799 37.5187 18.3417C36.5286 17.3728 35.5762 16.3795 34.661 15.3616C37.2532 13.8058 40.0186 12.6883 42.9574 12.009C44.0038 12.04 45.0486 12.0089 46.0915 11.9159C46.254 11.784 46.3768 11.6288 46.4603 11.4503C47.8712 11.339 49.2847 11.2459 50.7006 11.1709C51.5325 11.0762 52.1777 10.6727 52.6364 9.96021C53.5468 8.12698 53.1473 6.66796 51.4381 5.58318C52.2347 5.49024 53.0335 5.45919 53.8348 5.49005Z" fill="#8C3C14"/>
<path fill-rule="evenodd" clip-rule="evenodd" d="M46.4607 11.4498C46.3772 11.6283 46.2544 11.7836 46.092 11.9155C45.049 12.0085 44.0042 12.0395 42.9578 12.0086C42.279 12.0394 41.6031 12.0083 40.9298 11.9155C40.4381 11.4809 40.4381 11.0463 40.9298 10.6117C42.6505 10.4875 44.3713 10.4875 46.092 10.6117C46.3753 10.8184 46.4981 11.0977 46.4607 11.4498Z" fill="#FED005"/>
<path fill-rule="evenodd" clip-rule="evenodd" d="M67.4781 11.4507C67.8878 11.3907 68.2259 11.5149 68.4921 11.8232C68.6151 13.5616 68.6151 15.3 68.4921 17.0384C68.062 17.5351 67.6317 17.5351 67.2016 17.0384C67.0786 15.3 67.0786 13.5616 67.2016 11.8232C67.3338 11.7218 67.426 11.5977 67.4781 11.4507Z" fill="#FDCF05"/>
<path fill-rule="evenodd" clip-rule="evenodd" d="M54.2038 12.0087C54.4569 11.9795 54.7028 12.0105 54.9412 12.1018C56.0166 13.1883 57.0922 14.2748 58.1676 15.3613C58.3211 16.1994 57.9832 16.5409 57.1536 16.3857C56.0782 15.2992 55.0026 14.2127 53.9272 13.1262C53.7893 12.6903 53.8815 12.3178 54.2038 12.0087Z" fill="#26A7E1"/>
<path fill-rule="evenodd" clip-rule="evenodd" d="M34.6619 15.3613C35.5771 16.3791 36.5295 17.3724 37.5195 18.3414C37.6731 19.1795 37.3352 19.521 36.5055 19.3658C35.4235 18.2415 34.3173 17.155 33.187 16.1063C33.2508 14.9734 33.7425 14.7251 34.6619 15.3613Z" fill="#F3806C"/>
<path fill-rule="evenodd" clip-rule="evenodd" d="M46.8283 16.4794C47.6579 16.4168 47.9958 16.7893 47.8423 17.597C46.7669 18.6834 45.6913 19.77 44.6159 20.8564C43.7863 21.0116 43.4483 20.6702 43.6019 19.832C44.7147 18.739 45.7903 17.6214 46.8283 16.4794Z" fill="#90C43B"/>
<path fill-rule="evenodd" clip-rule="evenodd" d="M58.6286 19.4594C60.3503 19.4284 62.0712 19.4594 63.7907 19.5525C64.2824 19.9871 64.2824 20.4217 63.7907 20.8563C62.0701 20.9805 60.3492 20.9805 58.6286 20.8563C58.1518 20.3918 58.1518 19.9261 58.6286 19.4594Z" fill="#91C63B"/>
<path fill-rule="evenodd" clip-rule="evenodd" d="M49.7789 20.9502C50.1886 20.8902 50.5267 21.0144 50.7929 21.3227C50.9159 23.061 50.9159 24.7996 50.7929 26.5379C50.3628 27.0346 49.9325 27.0346 49.5024 26.5379C49.3794 24.7996 49.3794 23.061 49.5024 21.3227C49.6346 21.2214 49.7268 21.0972 49.7789 20.9502Z" fill="#EE4A36"/>
<path fill-rule="evenodd" clip-rule="evenodd" d="M74.8532 22.4384C75.1063 22.4091 75.3523 22.4402 75.5906 22.5315C76.666 23.6179 77.7416 24.7045 78.817 25.791C78.9706 26.6291 78.6326 26.9705 77.803 26.8154C76.7276 25.729 75.652 24.6423 74.5766 23.5559C74.4387 23.1201 74.5309 22.7475 74.8532 22.4384Z" fill="#F2806B"/>
<path fill-rule="evenodd" clip-rule="evenodd" d="M36.505 23.9291C38.2268 23.8982 39.9476 23.9291 41.6672 24.0222C42.1589 24.4567 42.1589 24.8915 41.6672 25.326C39.9465 25.4502 38.2257 25.4502 36.505 25.326C36.0283 24.8615 36.0283 24.3958 36.505 23.9291Z" fill="#25A8E3"/>
<path fill-rule="evenodd" clip-rule="evenodd" d="M68.9523 23.9291C69.7819 23.8665 70.1199 24.239 69.9663 25.0467C68.8909 26.1331 67.8153 27.2197 66.7399 28.3061C65.9103 28.4613 65.5724 28.1199 65.7259 27.2817C66.8387 26.1886 67.9143 25.0711 68.9523 23.9291Z" fill="#ED4A36"/>
<path fill-rule="evenodd" clip-rule="evenodd" d="M27.6554 25.4199C28.065 25.3599 28.4032 25.4842 28.6694 25.7924C28.7924 27.5308 28.7924 29.2693 28.6694 31.0076C28.2393 31.5044 27.809 31.5044 27.3788 31.0076C27.2559 29.2693 27.2559 27.5308 27.3788 25.7924C27.511 25.6911 27.6032 25.5669 27.6554 25.4199Z" fill="#EE4A36"/>
<path fill-rule="evenodd" clip-rule="evenodd" d="M55.6789 26.9086C55.932 26.8793 56.1779 26.9104 56.4163 27.0017C57.4917 28.0881 58.5673 29.1748 59.6427 30.2612C59.7962 31.0993 59.4583 31.4408 58.6287 31.2856C57.5533 30.1992 56.4777 29.1126 55.4023 28.0261C55.2644 27.5903 55.3566 27.2178 55.6789 26.9086Z" fill="#F2806B"/>
<path fill-rule="evenodd" clip-rule="evenodd" d="M45.3536 28.3998C46.1833 28.3372 46.5212 28.7097 46.3676 29.5174C45.2923 30.6038 44.2167 31.6904 43.1413 32.7768C42.3117 32.932 41.9737 32.5906 42.1273 31.7524C43.2401 30.6593 44.3157 29.5418 45.3536 28.3998Z" fill="#90C43B"/>
<path fill-rule="evenodd" clip-rule="evenodd" d="M20.2809 31.3792C21.0209 31.3483 21.7584 31.3794 22.4933 31.4724C22.985 31.9069 22.985 32.3416 22.4933 32.7762C21.5119 32.8691 20.5287 32.9002 19.5435 32.8693C18.8035 32.9002 18.066 32.8691 17.3311 32.7762C16.8395 32.3416 16.8395 31.9069 17.3311 31.4724C18.3125 31.3794 19.2958 31.3483 20.2809 31.3792Z" fill="#26A8E3"/>
<path fill-rule="evenodd" clip-rule="evenodd" d="M71.9025 31.3798C73.6243 31.3488 75.3451 31.3798 77.0647 31.4729C77.5564 31.9074 77.5564 32.3421 77.0647 32.7767C75.344 32.9009 73.6232 32.9009 71.9025 32.7767C71.4257 32.3122 71.4257 31.8465 71.9025 31.3798Z" fill="#25A8E3"/>
<path fill-rule="evenodd" clip-rule="evenodd" d="M33.5553 31.3788C33.8085 31.3496 34.0544 31.3807 34.2928 31.4719C35.3682 32.5584 36.4437 33.645 37.5191 34.7314C37.6727 35.5696 37.3348 35.911 36.5051 35.7558C35.4297 34.6694 34.3542 33.5828 33.2788 32.4963C33.1409 32.0605 33.2331 31.688 33.5553 31.3788Z" fill="#FCCE05"/>
<path fill-rule="evenodd" clip-rule="evenodd" d="M63.0533 32.8706C63.463 32.8106 63.8011 32.9349 64.0673 33.2431C64.1903 34.9814 64.1903 36.72 64.0673 38.4583C63.6372 38.955 63.2069 38.955 62.7768 38.4583C62.6538 36.72 62.6538 34.9814 62.7768 33.2431C62.909 33.1418 63.0012 33.0176 63.0533 32.8706Z" fill="#91C63B"/>
<path fill-rule="evenodd" clip-rule="evenodd" d="M82.2267 35.85C83.0563 35.7874 83.3943 36.1599 83.2407 36.9676C82.1653 38.054 81.0897 39.1406 80.0143 40.227C79.1847 40.3822 78.8468 40.0408 79.0003 39.2026C80.1132 38.1095 81.1887 36.992 82.2267 35.85Z" fill="#F2806B"/>
<path fill-rule="evenodd" clip-rule="evenodd" d="M57.7065 46.2803C55.5377 41.9258 52.0962 40.3426 47.3822 41.5307C45.1968 42.5281 43.5991 44.1113 42.5888 46.2803C41.648 41.9416 43.1229 38.7441 47.0135 36.6881C51.6402 35.2032 55.1125 36.6001 57.43 40.8788C58.1512 42.6512 58.2434 44.4518 57.7065 46.2803Z" fill="#F99E19"/>
<path fill-rule="evenodd" clip-rule="evenodd" d="M29.1305 38.8299C30.8523 38.799 32.5731 38.8299 34.2927 38.9231C34.7844 39.3576 34.7844 39.7923 34.2927 40.2269C32.572 40.3511 30.8512 40.3511 29.1305 40.2269C28.6538 39.7623 28.6538 39.2967 29.1305 38.8299Z" fill="#91C63B"/>
<path fill-rule="evenodd" clip-rule="evenodd" d="M20.2808 38.8301C20.6906 38.7701 21.0286 38.8943 21.2948 39.2026C21.4178 40.9409 21.4178 42.6794 21.2948 44.4178C20.8647 44.9145 20.4345 44.9145 20.0043 44.4178C19.8814 42.6794 19.8814 40.9409 20.0043 39.2026C20.1365 39.1013 20.2287 38.977 20.2808 38.8301Z" fill="#EE4A36"/>
<path fill-rule="evenodd" clip-rule="evenodd" d="M68.9528 38.829C69.2059 38.7997 69.4519 38.8309 69.6902 38.9221C70.7656 40.0086 71.8412 41.0952 72.9166 42.1816C73.0702 43.0198 72.7322 43.3612 71.9026 43.206C70.8272 42.1196 69.7516 41.033 68.6762 39.9465C68.5383 39.5107 68.6305 39.1382 68.9528 38.829Z" fill="#FCCE05"/>
<path fill-rule="evenodd" clip-rule="evenodd" d="M57.7066 46.2795C56.4054 49.8566 53.8549 51.7813 50.0556 52.0535C46.3619 51.7041 43.873 49.7795 42.5889 46.2795C43.5992 44.1106 45.1969 42.5274 47.3823 41.53C52.0963 40.3419 55.5378 41.925 57.7066 46.2795Z" fill="#F4861D"/>
<path fill-rule="evenodd" clip-rule="evenodd" d="M39.4542 41.81C40.2839 41.7474 40.6218 42.1199 40.4682 42.9275C39.3928 44.0139 38.3173 45.1006 37.2419 46.187C36.4122 46.3422 36.0743 46.0007 36.2279 45.1626C37.3407 44.0694 38.4163 42.9519 39.4542 41.81Z" fill="#26A7E1"/>
<path fill-rule="evenodd" clip-rule="evenodd" d="M26.1813 44.7894C26.4344 44.7602 26.6804 44.7913 26.9188 44.8826C27.9941 45.969 29.0697 47.0556 30.1451 48.1421C30.2987 48.9802 29.9607 49.3216 29.1311 49.1665C28.0557 48.08 26.9802 46.9934 25.9048 45.907C25.7669 45.4711 25.859 45.0986 26.1813 44.7894Z" fill="#90C43B"/>
<path fill-rule="evenodd" clip-rule="evenodd" d="M64.5284 44.7905C64.9381 44.7306 65.2762 44.8548 65.5424 45.163C65.6654 46.9014 65.6654 48.6399 65.5424 50.3782C65.1123 50.875 64.682 50.875 64.2519 50.3782C64.1289 48.6399 64.1289 46.9014 64.2519 45.163C64.3841 45.0617 64.4763 44.9375 64.5284 44.7905Z" fill="#EE4A36"/>
<path fill-rule="evenodd" clip-rule="evenodd" d="M71.9025 46.2801C73.6243 46.2492 75.3451 46.2801 77.0647 46.3733C77.5564 46.8078 77.5564 47.2425 77.0647 47.6771C75.344 47.8013 73.6232 47.8013 71.9025 47.6771C71.4257 47.2125 71.4257 46.7469 71.9025 46.2801Z" fill="#91C63B"/>
<path fill-rule="evenodd" clip-rule="evenodd" d="M88.4953 46.0938C88.4953 48.0183 88.4953 49.9431 88.4953 51.8677C86.8952 67.5438 79.029 78.6881 64.8968 85.3007C49.9723 90.8983 36.4524 88.539 24.337 78.223C16.8645 71.0404 12.6856 62.2552 11.8003 51.8677C11.8003 50.1914 11.8003 48.5151 11.8003 46.8388C11.8617 46.8388 11.9232 46.8388 11.9847 46.8388C13.7226 63.0259 22.019 74.2324 36.8737 80.458C48.7501 84.4216 60.0577 83.18 70.7964 76.7329C81.512 69.3968 87.4116 59.1838 88.4953 46.0938Z" fill="#F99F19"/>
<path fill-rule="evenodd" clip-rule="evenodd" d="M17.3312 50.7504C19.053 50.7194 20.7737 50.7504 22.4933 50.8435C22.985 51.278 22.985 51.7127 22.4933 52.1473C20.7726 52.2715 19.0519 52.2715 17.3312 52.1473C16.8545 51.6828 16.8545 51.2171 17.3312 50.7504Z" fill="#F3816C"/>
<path fill-rule="evenodd" clip-rule="evenodd" d="M82.2267 50.7499C83.0563 50.6873 83.3943 51.0598 83.2407 51.8675C82.1653 52.9539 81.0897 54.0405 80.0143 55.1269C79.1847 55.2821 78.8468 54.9407 79.0003 54.1025C80.1132 53.0094 81.1887 51.8919 82.2267 50.7499Z" fill="#26A7E1"/>
<path opacity="0.985" fill-rule="evenodd" clip-rule="evenodd" d="M11.7997 51.8672C12.685 62.2547 16.8639 71.0399 24.3364 78.2225C36.4518 88.5385 49.9717 90.8978 64.8962 85.3002C79.0284 78.6875 86.8946 67.5433 88.4947 51.8672C89.4222 66.6571 84.1371 78.5465 72.6395 87.5353C61.4757 95.1424 49.4922 96.7566 36.6887 92.3779C25.1236 87.6472 17.3496 79.2966 13.3668 67.3265C11.916 62.2744 11.3936 57.1213 11.7997 51.8672Z" fill="#F5871D"/>
<path fill-rule="evenodd" clip-rule="evenodd" d="M54.2043 52.2401C55.926 52.2092 57.6469 52.2401 59.3664 52.3332C59.8581 52.7678 59.8581 53.2025 59.3664 53.637C57.6458 53.7613 55.9249 53.7613 54.2043 53.637C53.7275 53.1725 53.7275 52.7069 54.2043 52.2401Z" fill="#F3816C"/>
<path fill-rule="evenodd" clip-rule="evenodd" d="M36.505 52.2401C38.2268 52.2092 39.9476 52.2401 41.6672 52.3332C42.1589 52.7678 42.1589 53.2025 41.6672 53.637C39.9465 53.7613 38.2257 53.7613 36.505 53.637C36.0283 53.1725 36.0283 52.7069 36.505 52.2401Z" fill="#EE4A36"/>
<path fill-rule="evenodd" clip-rule="evenodd" d="M27.6554 53.731C28.065 53.671 28.4032 53.7952 28.6694 54.1035C28.7924 55.8418 28.7924 57.5803 28.6694 59.3186C28.2393 59.8154 27.809 59.8154 27.3788 59.3186C27.2559 57.5803 27.2559 55.8418 27.3788 54.1035C27.511 54.0021 27.6032 53.8779 27.6554 53.731Z" fill="#EE4A36"/>
<path fill-rule="evenodd" clip-rule="evenodd" d="M70.4274 53.7299C70.6805 53.7006 70.9265 53.7317 71.1649 53.823C72.2402 54.9094 73.3158 55.996 74.3912 57.0825C74.5448 57.9206 74.2068 58.262 73.3772 58.1069C72.3018 57.0205 71.2262 55.9338 70.1509 54.8474C70.013 54.4116 70.1051 54.0391 70.4274 53.7299Z" fill="#90C43B"/>
<path fill-rule="evenodd" clip-rule="evenodd" d="M23.2301 55.2206C24.0598 55.158 24.3977 55.5305 24.2441 56.3382C23.1687 57.4246 22.0932 58.5112 21.0178 59.5976C20.1881 59.7528 19.8502 59.4114 20.0038 58.5732C21.1166 57.4801 22.1922 56.3626 23.2301 55.2206Z" fill="#90C43B"/>
<path fill-rule="evenodd" clip-rule="evenodd" d="M46.8283 56.7104C47.6579 56.6478 47.9958 57.0203 47.8423 57.8279C46.7669 58.9143 45.6913 60.001 44.6159 61.0874C43.7863 61.2425 43.4483 60.9011 43.6019 60.063C44.7147 58.9698 45.7903 57.8523 46.8283 56.7104Z" fill="#FCCE05"/>
<path fill-rule="evenodd" clip-rule="evenodd" d="M61.5788 58.2006C63.3005 58.1696 65.0214 58.2006 66.7409 58.2937C67.2326 58.7282 67.2326 59.1629 66.7409 59.5975C65.0203 59.7217 63.2994 59.7217 61.5788 59.5975C61.102 59.133 61.102 58.6673 61.5788 58.2006Z" fill="#25A8E3"/>
<path fill-rule="evenodd" clip-rule="evenodd" d="M33.5553 59.6893C33.8085 59.6601 34.0544 59.6912 34.2928 59.7825C35.3682 60.8689 36.4437 61.9555 37.5191 63.042C37.6727 63.8801 37.3348 64.2215 36.5051 64.0664C35.4297 62.9799 34.3542 61.8933 33.2788 60.8069C33.1409 60.371 33.2331 59.9985 33.5553 59.6893Z" fill="#90C43B"/>
<path fill-rule="evenodd" clip-rule="evenodd" d="M52.7291 59.6909C53.1388 59.6309 53.4769 59.7552 53.7431 60.0634C53.8661 61.8018 53.8661 63.5403 53.7431 65.2786C53.313 65.7754 52.8827 65.7754 52.4526 65.2786C52.3296 63.5403 52.3296 61.8018 52.4526 60.0634C52.5848 59.9621 52.6769 59.8379 52.7291 59.6909Z" fill="#91C63B"/>
<path fill-rule="evenodd" clip-rule="evenodd" d="M71.902 62.6708C72.7316 62.6082 73.0696 62.9807 72.916 63.7884C71.8406 64.8748 70.765 65.9614 69.6896 67.0478C68.86 67.203 68.5221 66.8616 68.6756 66.0234C69.7885 64.9303 70.864 63.8128 71.902 62.6708Z" fill="#FCCE05"/>
<path fill-rule="evenodd" clip-rule="evenodd" d="M26.1813 64.16C26.4344 64.1308 26.6804 64.1619 26.9188 64.2532C27.9941 65.3396 29.0697 66.4262 30.1451 67.5127C30.2987 68.3508 29.9607 68.6922 29.1311 68.5371C28.0557 67.4506 26.9802 66.364 25.9048 65.2776C25.7669 64.8417 25.859 64.4692 26.1813 64.16Z" fill="#FCCE05"/>
<path fill-rule="evenodd" clip-rule="evenodd" d="M58.6286 65.6503C58.8817 65.621 59.1276 65.6521 59.366 65.7434C60.4414 66.8298 61.517 67.9165 62.5924 69.0029C62.746 69.841 62.408 70.1825 61.5784 70.0273C60.503 68.9409 59.4274 67.8543 58.352 66.7678C58.2141 66.332 58.3063 65.9595 58.6286 65.6503Z" fill="#ED4A36"/>
<path fill-rule="evenodd" clip-rule="evenodd" d="M43.8795 67.141C45.6013 67.1101 47.3222 67.141 49.0417 67.2341C49.5334 67.6686 49.5334 68.1034 49.0417 68.5379C47.321 68.6621 45.6002 68.6621 43.8795 68.5379C43.4028 68.0734 43.4028 67.6077 43.8795 67.141Z" fill="#EE4A36"/>
<path fill-rule="evenodd" clip-rule="evenodd" d="M36.505 68.6318C36.9147 68.5719 37.2528 68.6961 37.519 69.0043C37.642 70.7427 37.642 72.4812 37.519 74.2195C37.0889 74.7163 36.6586 74.7163 36.2285 74.2195C36.1055 72.4812 36.1055 70.7427 36.2285 69.0043C36.3606 68.903 36.4528 68.7788 36.505 68.6318Z" fill="#25A8E3"/>
<path fill-rule="evenodd" clip-rule="evenodd" d="M55.6784 71.6112C56.508 71.5487 56.8459 71.9212 56.6924 72.7288C55.617 73.8152 54.5414 74.9018 53.466 75.9883C52.6364 76.1434 52.2984 75.802 52.452 74.9639C53.5648 73.8707 54.6404 72.7532 55.6784 71.6112Z" fill="#26A7E1"/>
<path fill-rule="evenodd" clip-rule="evenodd" d="M61.5783 73.1005C61.8314 73.0712 62.0774 73.1023 62.3157 73.1936C63.3911 74.28 64.4667 75.3667 65.5421 76.4531C65.6957 77.2912 65.3577 77.6326 64.5281 77.4775C63.4527 76.3911 62.3771 75.3044 61.3017 74.218C61.1638 73.7822 61.256 73.4097 61.5783 73.1005Z" fill="#90C43B"/>
<path fill-rule="evenodd" clip-rule="evenodd" d="M42.4045 74.5902C42.6576 74.561 42.9035 74.5921 43.1419 74.6833C44.2173 75.7698 45.2929 76.8564 46.3683 77.9428C46.5218 78.781 46.1839 79.1224 45.3543 78.9672C44.2789 77.8808 43.2033 76.7942 42.1279 75.7078C41.99 75.2719 42.0822 74.8994 42.4045 74.5902Z" fill="#90C43B"/>
</svg>
