<svg width="100" height="100" viewBox="0 0 100 100" fill="none" xmlns="http://www.w3.org/2000/svg">
<path d="M71.7891 23.9894C71.8157 18.4057 69.6292 13.0388 65.708 9.06348C61.7868 5.08816 56.4504 2.82822 50.8668 2.77832H49.1335C43.5499 2.82822 38.2135 5.08816 34.2924 9.06348C30.3712 13.0388 28.1846 18.4057 28.2113 23.9894V70.6561C28.2025 71.4829 28.3568 72.3033 28.6655 73.0704C28.9741 73.8375 29.431 74.5362 30.0099 75.1265C30.5889 75.7169 31.2786 76.1872 32.0396 76.5107C32.8005 76.8342 33.6178 77.0044 34.4446 77.0117H65.5557C66.3816 77.0058 67.1982 76.8374 67.959 76.516C68.7198 76.1945 69.4098 75.7264 69.9897 75.1383C70.5695 74.5502 71.0279 73.8536 71.3385 73.0884C71.6492 72.3231 71.806 71.5042 71.8002 70.6783L71.7891 23.9894Z" fill="#F47CC3"/>
<path d="M44.2998 78.0337V92.3004C44.3027 93.6049 44.8223 94.8552 45.7447 95.7776C46.6672 96.7001 47.9175 97.2196 49.222 97.2226H50.7776C52.0821 97.2196 53.3324 96.7001 54.2549 95.7776C55.1773 94.8552 55.6969 93.6049 55.6998 92.3004V78.0337H44.2998Z" fill="#E6C284"/>
<path d="M28.2109 70.3672V73.7005C28.2109 75.3547 28.8673 76.9413 30.036 78.1121C31.2046 79.2828 32.7901 79.942 34.4443 79.945H65.5554C66.3754 79.945 67.1874 79.7834 67.945 79.4696C68.7026 79.1558 69.391 78.6959 69.9709 78.116C70.5507 77.5362 71.0107 76.8478 71.3245 76.0902C71.6383 75.3326 71.7998 74.5206 71.7998 73.7005V70.3672H28.2109Z" fill="#FFE794"/>
</svg>
