<svg width="100" height="100" viewBox="0 0 100 100" fill="none" xmlns="http://www.w3.org/2000/svg">
<path d="M50.0003 27.0835C50.0003 27.0835 47.917 14.5835 60.417 14.5835" stroke="#8D6E63" stroke-width="22" stroke-linecap="round"/>
<path d="M27.0837 70.8333C36.2884 70.8333 43.7503 63.3714 43.7503 54.1667C43.7503 44.9619 36.2884 37.5 27.0837 37.5C17.8789 37.5 10.417 44.9619 10.417 54.1667C10.417 63.3714 17.8789 70.8333 27.0837 70.8333Z" fill="#FF80AB"/>
<path d="M72.9167 70.8333C82.1214 70.8333 89.5833 63.3714 89.5833 54.1667C89.5833 44.9619 82.1214 37.5 72.9167 37.5C63.7119 37.5 56.25 44.9619 56.25 54.1667C56.25 63.3714 63.7119 70.8333 72.9167 70.8333Z" fill="#E91E63"/>
<path d="M49.9997 70.8333C59.2044 70.8333 66.6663 63.3714 66.6663 54.1667C66.6663 44.9619 59.2044 37.5 49.9997 37.5C40.7949 37.5 33.333 44.9619 33.333 54.1667C33.333 63.3714 40.7949 70.8333 49.9997 70.8333Z" fill="#FFF8E1"/>
<path d="M93.75 60.8665C93.75 57.8582 91.175 55.4165 87.9917 55.4165C86.8562 55.4165 85.7979 55.7373 84.9083 56.2811C84.8063 56.3228 84.6958 56.3457 84.6 56.4061C81.15 58.5123 77.5062 60.2936 73.7187 61.7061C66.1646 64.5457 58.0937 66.0957 50.0104 66.0082C41.925 66.1019 33.8562 64.5436 26.3021 61.7061C22.7708 60.3936 19.2292 58.8373 15.9667 56.9269C14.9333 55.9936 13.5458 55.4165 12.0083 55.4165C8.825 55.4165 6.25 57.8561 6.25 60.8665C6.25 61.1915 6.29375 61.5082 6.35 61.8228C6.35208 61.9978 6.38958 62.2061 6.51458 62.4957C6.53958 62.5519 6.56667 62.6061 6.59375 62.6582C6.7 62.9478 6.83125 63.2186 6.98333 63.4811C9.71667 69.3165 14.0833 74.2894 19.225 78.254C27.8667 84.7644 38.9292 87.529 50 87.4998C61.0708 87.5686 72.1687 84.8123 80.8146 78.3019C85.1188 75.0207 88.8333 71.0498 91.5354 66.4353C92.1083 65.4373 92.6417 64.4207 93.1271 63.3832C93.1479 63.3457 93.1438 63.2894 93.15 63.2498C93.5229 62.529 93.75 61.7248 93.75 60.8665Z" fill="#FFE082"/>
<path d="M41.6393 46.0604C38.7914 40.9542 33.3435 37.5 27.0831 37.5C23.3414 37.5 19.9019 38.7479 17.1206 40.8292C17.6269 40.9437 18.0727 41.1833 18.3164 41.575C19.0373 42.7333 18.8477 44.8354 18.9248 46.1812C19.0039 47.5979 19.5519 49.2875 21.181 49.6562C22.8894 50.0437 24.2539 48.5833 25.0894 47.3938C25.931 46.1938 26.9081 44.7083 28.2769 44.075C30.181 43.1958 31.1956 44.6083 31.7039 45.4917C32.2123 46.375 32.0789 48.2375 33.3331 50C34.3373 51.4125 35.7727 47.1625 37.4998 45.8333C39.4769 44.3146 41.3935 48.3917 41.6393 46.0604Z" fill="#4C2114"/>
<path d="M49.9997 37.5C45.6518 37.5 41.5538 39.2979 38.5413 42.0708C37.9247 42.6375 36.8809 42.3583 36.3622 43C35.6955 43.8229 33.7893 44.6937 33.333 50C35.058 52.0833 35.6768 46.2563 36.8497 46.6792C38.108 47.1333 37.2684 49.0896 37.0663 50.1729C36.783 51.6917 36.5934 53.2146 37.4955 54.0979C38.6643 55.2458 39.6059 54.1917 40.3476 53.125C42.1455 50.5437 42.7205 47.3854 46.0997 46.2646C49.5872 45.1063 52.0705 48.5438 53.1913 51.3854C53.8351 53.0146 54.2622 54.8792 54.4497 56.5979C54.6101 58.0896 54.6205 59.9708 55.1413 61.3729C55.8955 63.4083 57.5018 62.1771 58.3101 60.8521C59.1476 59.4833 59.4934 57.9833 59.5684 56.4208C59.6518 54.6979 59.7309 52.9521 59.8101 51.1937C59.8705 49.775 60.1559 48.0812 61.4747 47.3312C64.5663 45.5687 64.4726 50.5833 66.4351 51.5083C65.158 43.5688 58.2976 37.5 49.9997 37.5Z" fill="#4C2114"/>
<path d="M86.0371 44.0187C86.0663 44.0187 86.0767 43.9979 86.0934 43.9875C83.0434 40.0479 78.283 37.5 72.9163 37.5C67.8913 37.5 63.3976 39.7333 60.3413 43.25L64.5517 46.7125L66.3101 51.4333C66.7142 51.7417 67.5288 51.4875 67.8392 51.1729C68.2684 50.7437 68.4205 50.225 68.5226 49.65C68.7413 48.3938 68.9705 47.0646 69.6496 45.9604C70.3017 44.9021 71.6767 43.8708 72.9163 43.6208C75.6059 43.0771 77.6142 44.7354 78.7309 47.1375C79.8455 49.5375 80.9601 53.1458 82.8205 52.8312C84.6809 52.5167 84.5934 49.3521 84.4205 47.7458C84.2455 46.1375 83.5934 43.8375 86.0371 44.0187Z" fill="#4C2114"/>
<path d="M86.1079 44.0088L86.0996 44.0109L86.1121 44.013L86.1079 44.0088Z" fill="#4C2114"/>
<path d="M41.667 32.7957C41.667 28.1124 45.0003 25.9041 50.0003 27.7103C55.0003 25.9061 58.3337 28.1124 58.3337 32.7957C58.3337 37.4832 54.6024 39.5832 50.0003 39.5832C45.3982 39.5832 41.667 37.4832 41.667 32.7957Z" fill="#F44336"/>
</svg>
