<svg width="100" height="100" viewBox="0 0 100 100" fill="none" xmlns="http://www.w3.org/2000/svg">
<path d="M60.4167 14.583C53.125 14.3747 55 8.33301 50 8.33301C45 8.33301 46.875 14.3747 39.5833 14.583C33.5417 14.7913 31.25 24.9997 31.25 24.9997L50 72.9163L68.75 24.9997C68.75 24.9997 66.4583 14.7913 60.4167 14.583Z" fill="#689F38"/>
<path d="M41.6664 93.7504C40.8331 88.9587 43.9581 84.7921 39.7914 82.2921C37.7081 81.0421 35.2081 80.6254 33.3331 79.1671C30.2081 77.0837 31.0414 71.4587 30.2081 67.7087C29.9998 67.0837 29.7914 66.2504 29.3748 65.8337C28.5414 64.7921 24.7914 63.1254 23.5414 62.7087C21.0414 62.2921 19.3748 60.4171 18.7498 58.3337C18.1248 56.0421 18.9581 53.5421 18.7498 51.2504C18.7498 48.3337 19.5831 47.5004 17.4998 45.4171C16.0414 44.1671 14.3748 43.3337 13.3331 41.6671C11.4581 38.7504 12.7081 33.3337 15.8331 31.6671C17.4998 30.8337 19.5831 30.6254 20.8331 26.8754C21.8748 23.5421 21.8748 22.5004 22.9164 19.1671C23.7498 16.4587 26.4581 14.5838 29.1664 14.3754C31.8748 14.1671 34.5831 15.8337 35.4164 18.5421C36.6664 22.2921 36.0414 22.0837 37.4998 24.7921C39.1664 27.9171 45.6248 28.7504 45.8331 35.2087C45.8331 37.5004 42.7081 40.8337 43.5414 42.7087C43.9581 43.5421 44.7914 44.1671 45.6248 45.0004C47.7081 47.0837 48.7498 50.2087 48.3331 53.1254C48.1248 54.7921 47.2914 56.4587 47.0831 58.3337C46.8748 62.0837 49.7914 65.0004 52.0831 68.1254C57.4998 75.4171 54.1664 81.0421 54.1664 93.5421C54.1664 93.7504 41.6664 93.7504 41.6664 93.7504Z" fill="#8BC34A"/>
<path d="M54.1663 93.7504C54.9997 88.9587 56.0413 84.7921 60.208 82.2921C62.2913 81.0421 64.7913 80.6254 66.6663 79.1671C69.7913 77.0837 68.958 71.4587 69.7913 67.7087C69.9997 67.0837 70.208 66.2504 70.6247 65.8337C71.458 64.7921 75.208 63.1254 76.458 62.7087C78.5413 62.0837 80.4163 60.4171 81.0413 58.3337C81.6663 56.0421 80.833 53.5421 81.0413 51.2504C81.0413 48.3337 80.208 47.5004 82.2913 45.4171C83.7497 44.1671 85.4163 43.3337 86.458 41.6671C88.333 38.7504 87.083 33.3337 83.958 31.6671C82.2913 30.8337 80.208 29.5837 78.958 26.8754C77.4997 23.7504 77.9163 22.5004 76.8747 19.1671C76.0413 16.4587 73.333 14.5838 70.6247 14.3754C67.9163 14.1671 65.208 15.8337 64.3747 18.5421C63.1247 22.2921 63.7497 22.0837 62.2913 24.7921C60.6247 27.9171 54.1663 28.7504 53.958 35.2087C53.958 37.5004 57.083 40.8337 56.2497 42.7087C55.833 43.5421 54.9997 44.1671 54.1663 45.0004C52.083 47.0837 51.0413 50.2087 51.458 53.1254C51.6663 54.7921 52.4997 56.4587 52.708 58.3337C52.9163 62.0837 49.9997 65.0004 47.708 68.1254C42.2913 75.4171 41.458 81.0421 41.458 93.5421C41.6663 93.7504 54.1663 93.7504 54.1663 93.7504Z" fill="#8BC34A"/>
<path d="M60.417 14.583C54.5837 14.3747 54.5837 10.4163 52.292 8.95801C54.167 18.5413 60.2087 17.708 59.792 20.833C59.5837 21.6663 59.5837 22.083 58.9587 23.1247C58.7503 23.333 57.7087 24.1663 57.0837 24.583C54.5837 26.2497 50.417 29.1663 50.2087 35.4163C50.2087 35.4163 50.2087 35.4163 50.2087 35.6247C50.2087 35.6247 50.2087 35.6247 50.2087 35.4163C50.0003 29.1663 45.8337 26.458 43.3337 24.583C42.7087 24.1663 41.667 23.5413 41.4587 23.1247C40.8337 22.083 40.6253 21.8747 40.6253 20.833C40.417 17.4997 45.8337 18.5413 48.1253 8.95801C45.417 10.4163 45.417 14.3747 39.5837 14.583C37.5003 14.583 36.042 15.833 34.792 17.2913C35.0003 17.708 35.2087 18.333 35.417 18.7497C36.667 22.4997 36.042 22.2913 37.5003 24.9997C39.167 28.1247 45.6253 28.958 45.8337 35.4163C45.8337 37.708 42.7087 41.0413 43.542 42.9163C43.9587 43.7497 44.792 44.3747 45.6253 45.208C47.7087 47.2913 48.7503 50.4163 48.3337 53.333C48.1253 54.9997 47.292 56.6663 47.0837 58.5413C47.0837 59.7913 47.292 60.833 47.7087 61.8747C40.6253 69.1663 41.667 84.1664 41.8753 85.208C42.292 78.1247 43.9587 73.7497 47.917 68.333C48.542 67.4997 49.3753 66.6663 50.0003 65.6247C51.667 63.5413 53.1253 61.2497 52.917 58.5413C52.917 56.6663 52.0837 54.9997 51.667 53.333C51.2503 50.4163 52.0837 47.2913 54.3753 45.208C55.0003 44.583 56.042 43.958 56.4587 42.9163C57.292 40.833 54.167 37.4997 54.167 35.4163C54.3753 28.958 60.8337 28.1247 62.5003 24.9997C63.9587 22.2913 63.3337 22.2913 64.5837 18.7497C64.792 18.333 65.0003 17.708 65.2087 17.2913C63.9587 15.833 62.5003 14.583 60.417 14.583ZM51.4587 42.2913C50.8337 42.9163 50.417 43.333 50.0003 43.958C49.5837 43.333 48.9587 42.708 48.542 42.2913C48.3337 42.083 48.1253 41.8747 47.917 41.6663C48.1253 41.2497 48.3337 41.0413 48.3337 40.6247C49.167 39.1663 50.0003 37.4997 50.0003 35.6247C50.0003 37.4997 50.8337 39.1663 51.667 40.6247C51.8753 40.833 52.0837 41.2497 52.0837 41.6663C51.8753 41.8747 51.667 42.083 51.4587 42.2913Z" fill="#558B2F"/>
<path d="M41.8749 76.6663C41.6666 76.2497 41.4582 76.0413 41.2499 75.6247C40.4166 73.958 39.3749 72.2913 38.3332 70.6247C37.2916 68.958 36.2499 67.083 35.2082 65.208C34.1666 63.333 33.1249 61.458 32.2916 59.583C31.4582 57.708 30.4166 55.833 29.7916 53.958C28.9582 52.083 28.5416 50.208 28.1249 48.5413C27.7082 46.8747 27.4999 44.9997 27.2916 43.5413C27.0832 41.8747 27.0832 40.4163 27.0832 39.1663C26.8749 37.9163 27.2916 36.8747 27.2916 35.833C27.4999 33.958 27.4999 32.9163 27.4999 32.9163C27.4999 32.9163 27.4999 33.958 27.7082 35.833C27.7082 36.6663 27.7082 37.9163 27.9166 38.958C28.1249 40.208 28.3332 41.6663 28.7499 43.1247C29.1666 44.583 29.5832 46.2497 30.2082 47.9163C30.8332 49.583 31.4582 51.2497 32.4999 52.9163C33.3332 54.583 34.3749 56.2497 35.4166 57.9163C36.4582 59.583 37.7082 61.2497 38.9582 62.9163C40.2082 64.583 41.4582 66.2497 42.7082 67.708C43.1249 68.1247 43.3332 68.5413 43.7499 68.958C43.5416 69.7913 43.1249 70.833 42.9166 71.6663C42.9166 71.8747 42.9166 71.8747 42.9166 72.083C42.9166 72.2913 42.9166 72.2913 42.9166 72.4997C42.7082 72.9163 42.7082 73.5413 42.7082 73.958C42.7082 74.583 42.4999 75.208 42.4999 75.833C42.0832 76.0413 42.0832 76.458 41.8749 76.6663ZM52.0832 93.7497C52.0832 93.7497 52.0832 92.708 51.8749 90.833C51.6666 89.7913 51.8749 89.1663 52.0832 88.1247C52.0832 87.2913 52.2916 86.0413 52.7082 84.583C52.9166 83.958 53.1249 83.1247 53.3332 82.4997C53.5416 81.8747 53.7499 81.0413 54.1666 80.208C54.7916 78.7497 55.6249 77.083 56.4582 75.4163C57.2916 73.7497 58.3332 72.083 59.3749 70.4163C60.4166 68.7497 61.4582 66.8747 62.4999 64.9997C63.5416 63.1247 64.5832 61.2497 65.4166 59.3747C66.2499 57.4997 67.2916 55.6247 67.9166 53.7497C68.7499 51.8747 69.1666 49.9997 69.5832 48.333C69.9999 46.6663 70.2082 44.7913 70.4166 43.333C70.6249 41.6663 70.6249 40.4163 70.6249 38.958C70.8332 37.708 70.4166 36.6663 70.4166 35.6247C70.2082 33.7497 70.2082 32.708 70.2082 32.708C70.2082 32.708 70.2082 33.7497 69.9999 35.6247C69.9999 36.458 69.9999 37.708 69.7916 38.7497C69.5832 39.9997 69.3749 41.458 68.9582 42.9163C68.5416 44.3747 68.1249 46.0413 67.4999 47.708C66.8749 49.3747 66.2499 51.0413 65.2082 52.708C64.3749 54.3747 63.3332 56.0413 62.2916 57.708C61.2499 59.3747 59.9999 61.0413 58.7499 62.708C57.4999 64.3747 56.2499 66.0413 54.9999 67.4997C53.7499 69.1663 52.4999 70.6247 51.2499 72.2913C49.9999 73.958 48.9582 75.6247 48.1249 77.2913C47.7082 78.1247 47.2916 78.958 46.8749 79.7913C46.4582 80.6247 46.0416 81.458 45.8332 82.2913C45.2082 83.958 44.5832 85.4163 44.3749 86.8747C43.9582 88.333 43.7499 89.7913 43.7499 90.6247C43.7499 92.708 43.7499 93.7497 43.7499 93.7497H52.0832Z" fill="#DCEDC8"/>
</svg>
