<svg width="100" height="100" viewBox="0 0 100 100" fill="none" xmlns="http://www.w3.org/2000/svg">
<path d="M66.6668 20.8333H66.5627C66.0793 18.4562 63.9793 16.6667 61.4585 16.6667C61.0689 16.6667 60.6918 16.7167 60.3252 16.7979C59.8939 14.3583 57.7731 12.5 55.2085 12.5C54.0314 12.5 52.9564 12.9063 52.0835 13.5646C51.2106 12.9063 50.1356 12.5 48.9585 12.5C46.3939 12.5 44.2731 14.3583 43.8418 16.7979C43.4752 16.7167 43.0981 16.6667 42.7085 16.6667C40.1897 16.6667 38.0877 18.4562 37.6043 20.8333H37.5002C37.5002 40.4458 14.5835 34.7396 14.5835 63.5417C14.5835 76.7729 31.3731 87.5 52.0835 87.5C72.7939 87.5 89.5835 76.7729 89.5835 63.5417C89.5835 34.7396 66.6668 40.4458 66.6668 20.8333Z" fill="#FFECB3"/>
<path d="M80.6311 40.8843C82.2791 44.4739 83.3332 49.0468 83.3332 55.2072C83.3332 68.4384 66.5437 79.1655 45.8332 79.1655C33.5312 79.1655 22.6457 75.3634 15.8062 69.5155C19.9687 79.8509 34.6082 87.4989 52.0832 87.4989C72.7937 87.4989 89.5832 76.7718 89.5832 63.5405C89.5832 51.2572 85.4124 45.2551 80.6311 40.8843Z" fill="#FFE082"/>
<path d="M52.0835 14.5845V43.7511" stroke="#FFD54F" stroke-width="22" stroke-miterlimit="10" stroke-linecap="round"/>
<path d="M45.8335 16.6689C45.8335 36.1085 39.5835 41.6689 39.5835 41.6689" stroke="#FFD54F" stroke-width="22" stroke-miterlimit="10" stroke-linecap="round"/>
<path d="M58.3335 16.6689C58.3335 36.1085 64.5835 41.6689 64.5835 41.6689" stroke="#FFD54F" stroke-width="22" stroke-miterlimit="10" stroke-linecap="round"/>
<path d="M39.5833 20.8345C39.5833 20.8345 40.3271 29.5657 31.25 37.5011" stroke="#FFD54F" stroke-width="22" stroke-miterlimit="10" stroke-linecap="round"/>
<path d="M64.583 20.8345C64.583 20.8345 63.7371 30.0803 72.9163 37.5011" stroke="#FFD54F" stroke-width="22" stroke-miterlimit="10" stroke-linecap="round"/>
</svg>
