<svg width="100" height="100" viewBox="0 0 100 100" fill="none" xmlns="http://www.w3.org/2000/svg">
<path fill-rule="evenodd" clip-rule="evenodd" d="M15.7226 5.76172C14.4743 15.3408 17.8597 22.7951 25.8788 28.125C27.2472 28.9072 28.6794 29.5256 30.1757 29.9805C30.1757 30.1107 30.1107 30.1758 29.9804 30.1758C24.5573 29.6764 19.8698 27.5932 15.9179 23.9258C10.8088 18.7217 8.75801 12.4717 9.76555 5.17578C9.86699 4.97742 10.0297 4.84723 10.2538 4.78516C12.0712 5.15312 13.8941 5.47865 15.7226 5.76172Z" fill="#84BC22"/>
<path opacity="0.996" fill-rule="evenodd" clip-rule="evenodd" d="M15.7224 5.76172C20.3277 6.136 24.6246 7.47063 28.613 9.76562C32.1068 12.2484 34.7761 15.4059 36.6208 19.2383C36.3267 21.5889 35.9687 23.9326 35.5466 26.2695C33.3525 26.9354 31.5623 28.1725 30.1755 29.9805C28.6792 29.5256 27.247 28.9072 25.8787 28.125C17.8596 22.7951 14.4742 15.3408 15.7224 5.76172Z" fill="#8BC831"/>
<path fill-rule="evenodd" clip-rule="evenodd" d="M43.8477 9.27734C41.9436 10.1527 40.967 11.6501 40.918 13.7695C40.9977 14.6234 41.1277 15.4697 41.3086 16.3086C40.585 19.674 39.9664 23.0594 39.4531 26.4648C33.7301 28.341 31.8094 32.1172 33.6914 37.793C32.8303 38.783 32.049 39.8246 31.3477 40.918C30.0797 39.1617 29.2332 37.2086 28.8086 35.0586C28.8086 34.733 28.8086 34.4076 28.8086 34.082C28.9234 32.6959 29.3141 31.3937 29.9805 30.1758C30.1107 30.1758 30.1758 30.1107 30.1758 29.9805C31.5625 28.1725 33.3527 26.9354 35.5469 26.2695C35.9689 23.9326 36.327 21.5889 36.6211 19.2383C37.3049 17.4298 37.3699 15.5744 36.8164 13.6719C37.1744 10.7096 38.8346 9.04947 41.7969 8.69141C42.5453 8.75354 43.2289 8.94885 43.8477 9.27734Z" fill="#FEB155"/>
<path opacity="0.996" fill-rule="evenodd" clip-rule="evenodd" d="M43.8477 9.27734C45.1346 9.68518 46.0135 10.5315 46.4844 11.8164C46.9557 13.7494 47.3137 15.7026 47.5586 17.6758C50.3996 18.4659 51.8971 20.3539 52.0508 23.3398C51.7406 25.4648 51.35 27.5482 50.8789 29.5898C50.6809 29.3428 50.3879 29.2127 50 29.1992C47.7482 29.4803 45.5672 30.0336 43.457 30.8594C42.4922 31.3889 42.2643 32.1375 42.7734 33.1055C43.0848 33.4564 43.4754 33.6518 43.9453 33.6914C46.0746 32.9336 48.2557 32.4129 50.4883 32.1289C50.3459 33.2762 50.1506 34.4156 49.9023 35.5469C50.5209 37.9232 51.1393 40.2994 51.7578 42.6758C51.8326 42.7844 51.9303 42.8494 52.0508 42.8711C51.9914 42.998 51.9264 43.1283 51.8555 43.2617C53.218 43.424 54.5852 43.5217 55.957 43.5547C56.8152 44.0369 57.7268 44.2322 58.6914 44.1406C59.7051 43.5646 59.9004 42.7834 59.2773 41.7969C58.6443 41.4475 57.9934 41.1545 57.3242 40.918C58.4742 38.6838 59.6785 36.4703 60.9375 34.2773C61.0857 33.9721 61.3137 33.7768 61.6211 33.6914C68.069 35.5844 73.2773 39.2303 77.2461 44.6289C76.3424 47.2199 75.0402 49.5637 73.3398 51.6602C70.5959 48.752 67.5359 46.2455 64.1602 44.1406C63.1061 43.399 62.1619 43.4967 61.3281 44.4336C61.1602 45.3031 61.4531 45.9867 62.207 46.4844C65.7023 48.5133 68.8273 51.0199 71.582 54.0039C71.3217 54.5248 71.4518 54.6549 71.9727 54.3945C72.3086 55.0256 72.7643 55.5789 73.3398 56.0547C74.5369 56.3357 75.2531 55.8801 75.4883 54.6875C75.2215 53.9326 74.8309 53.249 74.3164 52.6367C80.5658 49.8484 85.2207 51.5412 88.2813 57.7148C89.177 60.1934 89.177 62.6672 88.2813 65.1367C87.9992 65.9006 87.576 66.5516 87.0117 67.0898C86.4721 64.9037 85.5606 62.8854 84.2773 61.0352C83.5914 60.552 82.8752 60.5193 82.1289 60.9375C81.7682 61.4412 81.6705 61.9945 81.8359 62.5977C83.2574 64.6607 84.1363 66.9393 84.4727 69.4336C82.8824 70.3266 81.2549 71.1729 79.5898 71.9727C77.6088 67.2889 74.8094 63.1547 71.1914 59.5703C70.2936 59.0742 69.5449 59.2369 68.9453 60.0586C68.7979 60.6061 68.8629 61.127 69.1406 61.6211C72.4617 65.0133 75.0984 68.8545 77.0508 73.1445C77.5662 78.0004 75.4178 80.1164 70.6055 79.4922C69.5553 79.1793 68.7414 78.5607 68.1641 77.6367C67.6859 77.9244 67.1977 78.185 66.6992 78.418C66.4955 77.9187 66.1699 77.4955 65.7227 77.1484C63.1365 74.9545 60.3371 73.0664 57.3242 71.4844C55.6443 71.5422 55.1561 72.3561 55.8594 73.9258C58.7547 75.5512 61.4564 77.4393 63.9648 79.5898C62.5275 80.3902 61.0627 81.1715 59.5703 81.9336C59.2627 83.418 59.0348 84.9152 58.8867 86.4258C54.5758 84.175 50.0184 82.6451 45.2148 81.8359C43.9795 81.7383 42.7426 81.7059 41.5039 81.7383C41.1063 78.7805 40.5529 75.8508 39.8438 72.9492C38.9016 72.4314 38.0227 71.8455 37.207 71.1914C40.984 70.3992 44.7602 70.4316 48.5352 71.2891C49.7676 71.6674 51.0045 72.0254 52.2461 72.3633C53.5076 72.1859 53.9959 71.4699 53.7109 70.2148C53.5482 70.0521 53.3854 69.8893 53.2227 69.7266C46.6975 67.2223 40.1219 67.0594 33.4961 69.2383C32.0328 68.2783 30.5354 67.367 29.0039 66.5039C29.7506 65.4027 30.4994 64.2959 31.25 63.1836C31.3809 61.6873 30.6973 61.0689 29.1992 61.3281C28.232 62.3861 27.3857 63.5256 26.6602 64.7461C24.3684 63.7555 22.8059 62.0627 21.9727 59.668C24.1527 55.5727 27.1477 52.1873 30.957 49.5117C32.9236 51.2193 34.9418 52.8469 37.0117 54.3945C36.8172 54.3777 36.6545 54.443 36.5234 54.5898C36.2518 55.7416 36.675 56.4578 37.793 56.7383C47.1559 52.8176 55.0984 54.7383 61.6211 62.5C63.3557 63.3404 64.1693 62.7871 64.0625 60.8398C58.1707 53.4504 50.5861 50.651 41.3086 52.4414C39.1373 48.5547 37.1191 44.5834 35.2539 40.5273C36.8998 38.5232 38.8205 36.8307 41.0156 35.4492C41.6896 33.7814 41.1363 32.9676 39.3555 33.0078C37.3164 34.4188 35.4285 36.0139 33.6914 37.793C31.8094 32.1172 33.7301 28.341 39.4531 26.4648C39.9664 23.0594 40.585 19.674 41.3086 16.3086C41.1277 15.4697 40.9977 14.6234 40.918 13.7695C40.967 11.6501 41.9436 10.1527 43.8477 9.27734Z" fill="#FEC87F"/>
<path opacity="0.997" fill-rule="evenodd" clip-rule="evenodd" d="M93.6523 18.0664C87.3578 16.1163 81.9215 17.4834 77.3438 22.168C77.002 22.6043 76.709 23.0602 76.4648 23.5352C76.2285 23.4508 76.0332 23.3205 75.8789 23.1445C78.4086 16.8799 83.0637 13.5596 89.8438 13.1836C91.5428 13.2695 93.2029 13.595 94.8242 14.1602C94.8893 14.2253 94.9545 14.2904 95.0195 14.3555C94.6006 15.613 94.1449 16.85 93.6523 18.0664Z" fill="#84BC22"/>
<path opacity="0.993" fill-rule="evenodd" clip-rule="evenodd" d="M93.6523 18.0659C92.7086 21.7454 90.8855 24.903 88.1836 27.5385C85.5654 29.6592 82.5707 30.7985 79.1992 30.9565C79.2316 29.5227 79.1992 28.0905 79.1016 26.6596C78.6043 25.2844 77.7254 24.2428 76.4648 23.5346C76.709 23.0596 77.002 22.6038 77.3438 22.1674C81.9215 17.4829 87.3578 16.1157 93.6523 18.0659Z" fill="#8BC832"/>
<path fill-rule="evenodd" clip-rule="evenodd" d="M42.4806 21.5822C43.9769 21.4188 44.6605 22.0697 44.5314 23.5354C43.839 24.6504 42.9925 24.7805 41.9924 23.926C41.5062 22.9996 41.6691 22.2184 42.4806 21.5822Z" fill="#F9A74D"/>
<path opacity="0.993" fill-rule="evenodd" clip-rule="evenodd" d="M75.8789 23.1442C76.0332 23.3202 76.2285 23.4505 76.4648 23.5349C77.7254 24.2431 78.6043 25.2847 79.1016 26.6599C79.1992 28.0907 79.2316 29.523 79.1992 30.9567C79.2318 33.0411 79.1992 35.1245 79.1016 37.2067C79.0199 38.5429 78.7922 39.845 78.418 41.113C74.3648 36.5794 69.482 33.2591 63.7695 31.1521C64.9246 30.1839 66.2266 29.5329 67.6758 29.1989C68.0428 29.0347 68.4334 28.9694 68.8477 29.0036C69.1437 24.5378 71.4875 22.5847 75.8789 23.1442Z" fill="#FEC87F"/>
<path opacity="0.997" fill-rule="evenodd" clip-rule="evenodd" d="M15.918 23.9258C19.8699 27.5932 24.5574 29.6764 29.9805 30.1758C29.3141 31.3937 28.9234 32.6959 28.8086 34.082C22.3939 36.6693 16.4043 35.9207 10.8398 31.8359C10.0188 31.0477 9.23758 30.234 8.49609 29.3945C10.6954 27.1947 13.1694 25.3719 15.918 23.9258Z" fill="#8BC831"/>
<path fill-rule="evenodd" clip-rule="evenodd" d="M50.879 29.5898C50.8535 30.4594 50.7232 31.3059 50.4884 32.1289C48.2558 32.4129 46.0747 32.9336 43.9454 33.6914C43.4755 33.6518 43.0849 33.4564 42.7736 33.1055C42.2644 32.1375 42.4923 31.3889 43.4572 30.8594C45.5673 30.0336 47.7484 29.4803 50.0001 29.1992C50.388 29.2127 50.681 29.3428 50.879 29.5898Z" fill="#F9A74C"/>
<path opacity="0.999" fill-rule="evenodd" clip-rule="evenodd" d="M8.49608 29.3945C9.23756 30.234 10.0188 31.0477 10.8398 31.8359C16.4043 35.9207 22.3939 36.6693 28.8086 34.082C28.8086 34.4076 28.8086 34.733 28.8086 35.0586C22.234 39.5896 15.4631 39.8826 8.49608 35.9375C7.17537 35.0082 5.97096 33.934 4.8828 32.7148C4.85104 32.3463 5.01379 32.0533 5.37108 31.8359C6.4444 31.0547 7.48606 30.241 8.49608 29.3945Z" fill="#84BC22"/>
<path fill-rule="evenodd" clip-rule="evenodd" d="M67.6758 29.1993C66.2266 29.5333 64.9246 30.1843 63.7695 31.1525C69.482 33.2595 74.3648 36.5798 78.418 41.1134C78.217 42.3675 77.8264 43.5394 77.2461 44.629C73.2773 39.2304 68.0689 35.5845 61.6211 33.6915C60.3939 33.4829 59.2221 33.1575 58.1055 32.715C59.1613 31.1749 60.5936 30.1007 62.4023 29.4923C64.1473 28.9903 65.9051 28.8927 67.6758 29.1993Z" fill="#F9A74D"/>
<path fill-rule="evenodd" clip-rule="evenodd" d="M58.1055 32.7148C59.2221 33.1574 60.3939 33.4828 61.6211 33.6914C61.3137 33.7768 61.0857 33.9721 60.9375 34.2773C59.6785 36.4703 58.4742 38.6838 57.3242 40.918C56.177 40.5139 55.0051 40.1885 53.8086 39.9414C54.8936 37.8373 56.0328 35.7541 57.2266 33.6914C57.4314 33.2777 57.7244 32.9523 58.1055 32.7148Z" fill="#FEB156"/>
<path fill-rule="evenodd" clip-rule="evenodd" d="M35.2539 40.5273C34.5416 41.4252 33.8254 42.3367 33.1055 43.2617C32.9443 43.4347 32.749 43.4998 32.5195 43.457C32.076 42.6349 31.6854 41.7886 31.3477 40.9179C32.049 39.8246 32.8303 38.783 33.6914 37.7929C35.4285 36.0138 37.3164 34.4187 39.3555 33.0078C41.1363 32.9675 41.6896 33.7814 41.0156 35.4492C38.8205 36.8306 36.8998 38.5232 35.2539 40.5273Z" fill="#F9A64B"/>
<path fill-rule="evenodd" clip-rule="evenodd" d="M53.8086 39.9414C55.0051 40.1885 56.177 40.5139 57.3242 40.918C57.9934 41.1545 58.6443 41.4475 59.2773 41.7969C59.9004 42.7834 59.7051 43.5646 58.6914 44.1406C57.7268 44.2322 56.8152 44.0369 55.957 43.5547C54.5852 43.5217 53.218 43.424 51.8555 43.2617C51.9264 43.1283 51.9914 42.998 52.0508 42.8711C52.5605 41.8424 53.1465 40.8658 53.8086 39.9414Z" fill="#F9A74D"/>
<path fill-rule="evenodd" clip-rule="evenodd" d="M35.2539 40.5273C37.1191 44.5834 39.1373 48.5547 41.3086 52.4414C40.4143 52.7066 39.5027 52.9996 38.5742 53.3203C38.2689 53.4686 38.0736 53.6965 37.9883 54.0039C36.1686 50.4949 34.3457 46.9793 32.5195 43.457C32.749 43.4998 32.9443 43.4348 33.1055 43.2617C33.8254 42.3367 34.5416 41.4252 35.2539 40.5273Z" fill="#FEB156"/>
<path fill-rule="evenodd" clip-rule="evenodd" d="M23.5352 44.2386C22.3137 46.2069 22.2487 48.2251 23.3399 50.2932C22.4321 51.5888 21.8461 53.021 21.5821 54.5901C19.5499 57.4177 17.9874 60.4776 16.8946 63.7698C13.5637 60.6009 12.6848 56.8247 14.2579 52.4417C14.5826 51.6612 15.0058 50.945 15.5274 50.2932C14.0702 47.6106 14.4608 45.2343 16.6993 43.1643C19.284 41.7534 21.5627 42.1114 23.5352 44.2386Z" fill="#FFB155"/>
<path fill-rule="evenodd" clip-rule="evenodd" d="M73.3399 51.6604C72.9027 52.5532 72.3168 53.3345 71.582 54.0042C68.8274 51.0202 65.7024 48.5136 62.207 46.4846C61.4531 45.987 61.1602 45.3034 61.3281 44.4339C62.1619 43.497 63.1061 43.3993 64.1602 44.1409C67.5359 46.2458 70.5959 48.7522 73.3399 51.6604Z" fill="#F9A64C"/>
<path opacity="0.979" fill-rule="evenodd" clip-rule="evenodd" d="M23.5352 44.2383C23.8223 44.5607 24.0826 44.9189 24.3164 45.3125C26.1662 45.5242 27.7287 46.2729 29.0039 47.5586C28.7984 47.5295 28.6031 47.5619 28.418 47.6562C25.8332 49.6875 23.5545 51.9986 21.582 54.5898C21.8461 53.0207 22.432 51.5885 23.3398 50.293C22.2486 48.2248 22.3137 46.2066 23.5352 44.2383Z" fill="#FEC87E"/>
<path fill-rule="evenodd" clip-rule="evenodd" d="M29.0039 47.5587C29.7201 48.1446 30.3711 48.7956 30.957 49.5118C27.1477 52.1874 24.1527 55.5727 21.9727 59.668C20.9486 61.3358 20.1674 63.1262 19.6289 65.0391C19.5633 65.2403 19.433 65.338 19.2383 65.3321C18.3826 64.9055 17.6013 64.3848 16.8945 63.7696C17.9873 60.4774 19.5498 57.4174 21.582 54.5899C23.5545 51.9987 25.8332 49.6876 28.418 47.6563C28.6031 47.562 28.7984 47.5296 29.0039 47.5587Z" fill="#F9A64B"/>
<path fill-rule="evenodd" clip-rule="evenodd" d="M37.0118 54.3949C37.4786 54.5797 37.9016 54.84 38.2813 55.1762C38.252 54.7844 38.1544 54.3937 37.9884 54.0043C38.0737 53.6969 38.269 53.4689 38.5743 53.3207C39.5028 53 40.4143 52.707 41.3087 52.4418C50.5862 50.6514 58.1708 53.4508 64.0626 60.8402C64.1694 62.7875 63.3557 63.3408 61.6212 62.5004C55.0985 54.7387 47.1559 52.818 37.793 56.7387C36.6751 56.4582 36.2518 55.742 36.5235 54.5902C36.6546 54.4433 36.8173 54.3781 37.0118 54.3949Z" fill="#F9A64C"/>
<path fill-rule="evenodd" clip-rule="evenodd" d="M74.3164 52.6367C74.8309 53.249 75.2215 53.9326 75.4883 54.6875C75.2531 55.8801 74.5369 56.3357 73.3398 56.0547C72.7643 55.5789 72.3086 55.0256 71.9727 54.3945C72.6424 53.6598 73.4236 53.0738 74.3164 52.6367Z" fill="#F9A84D"/>
<path fill-rule="evenodd" clip-rule="evenodd" d="M32.1289 56.9341C34.0869 56.7839 34.6729 57.5977 33.8867 59.3755C32.5164 60.0495 31.6701 59.6589 31.3477 58.2036C31.4854 57.7071 31.7459 57.2841 32.1289 56.9341Z" fill="#F9A74C"/>
<path fill-rule="evenodd" clip-rule="evenodd" d="M79.5899 71.9726C78.7679 72.4161 77.9216 72.8067 77.0509 73.1444C75.0985 68.8544 72.4618 65.0132 69.1407 61.621C68.863 61.1269 68.7979 60.606 68.9454 60.0585C69.545 59.2368 70.2936 59.0741 71.1915 59.5702C74.8095 63.1546 77.6089 67.2888 79.5899 71.9726Z" fill="#F9A64C"/>
<path fill-rule="evenodd" clip-rule="evenodd" d="M21.9727 59.668C22.8059 62.0627 24.3684 63.7555 26.6602 64.7461C25.8025 65.9404 25.1516 67.2426 24.707 68.6523C22.8771 67.5428 21.0541 66.4359 19.2383 65.332C19.433 65.3379 19.5633 65.2402 19.6289 65.0391C20.1674 63.1262 20.9486 61.3357 21.9727 59.668Z" fill="#FEB155"/>
<path fill-rule="evenodd" clip-rule="evenodd" d="M87.0116 67.0903C86.4151 68.1424 85.5688 68.9237 84.4725 69.434C84.1362 66.9397 83.2573 64.6612 81.8358 62.5981C81.6704 61.995 81.7681 61.4416 82.1288 60.9379C82.8751 60.5198 83.5913 60.5524 84.2772 61.0356C85.5604 62.8858 86.472 64.9041 87.0116 67.0903Z" fill="#F9A64C"/>
<path fill-rule="evenodd" clip-rule="evenodd" d="M29.0039 66.5042C28.4033 67.5097 27.8498 68.5513 27.3437 69.6292C27.0676 69.8075 26.7746 69.8075 26.4648 69.6292C25.8527 69.3556 25.2668 69.03 24.707 68.6526C25.1516 67.2429 25.8025 65.9407 26.6602 64.7464C27.3857 63.5259 28.232 62.3864 29.1992 61.3284C30.6973 61.0692 31.3809 61.6876 31.25 63.1839C30.4994 64.2962 29.7506 65.403 29.0039 66.5042Z" fill="#F9A64B"/>
<path fill-rule="evenodd" clip-rule="evenodd" d="M64.746 63.9648C66.6229 64.05 67.1436 64.9289 66.3085 66.6016C64.5153 67.251 63.7665 66.6324 64.0624 64.7461C64.3311 64.5107 64.5589 64.2504 64.746 63.9648Z" fill="#F9A64C"/>
<path fill-rule="evenodd" clip-rule="evenodd" d="M29.0039 66.5039C30.5354 67.367 32.0328 68.2783 33.4961 69.2383C32.598 69.6139 31.6865 69.9721 30.7617 70.3125C30.2078 70.5842 29.7521 70.9422 29.3945 71.3867C28.3193 70.9475 27.3428 70.3615 26.4648 69.6289C26.7746 69.8072 27.0676 69.8072 27.3438 69.6289C27.8498 68.551 28.4033 67.5094 29.0039 66.5039Z" fill="#FEB155"/>
<path fill-rule="evenodd" clip-rule="evenodd" d="M37.207 71.1914C35.4205 71.687 33.6627 72.2729 31.9336 72.9493C30.9877 72.5747 30.1412 72.0539 29.3945 71.3868C29.7521 70.9422 30.2078 70.5842 30.7617 70.3125C31.6865 69.9721 32.598 69.6139 33.4961 69.2383C40.1219 67.0594 46.6975 67.2223 53.2227 69.7266C53.3853 69.8893 53.5482 70.0522 53.7109 70.2149C53.9959 71.47 53.5076 72.186 52.2461 72.3633C51.0045 72.0254 49.7676 71.6674 48.5352 71.2891C44.7602 70.4317 40.984 70.3993 37.207 71.1914Z" fill="#F9A64B"/>
<path fill-rule="evenodd" clip-rule="evenodd" d="M37.207 71.1914C38.0227 71.8455 38.9016 72.4314 39.8438 72.9492C40.5529 75.8508 41.1062 78.7805 41.5039 81.7383C38.9936 81.6777 36.5197 81.9381 34.082 82.5195C34.082 82.8451 34.082 83.1705 34.082 83.4961C33.3262 80.0064 32.61 76.4908 31.9336 72.9492C33.6627 72.2729 35.4205 71.6869 37.207 71.1914Z" fill="#FEB155"/>
<path fill-rule="evenodd" clip-rule="evenodd" d="M66.699 78.418C65.8338 78.9156 64.9223 79.3063 63.9647 79.5898C61.4563 77.4393 58.7545 75.5512 55.8592 73.9258C55.1559 72.3561 55.6442 71.5422 57.324 71.4844C60.3369 73.0664 63.1363 74.9545 65.7225 77.1484C66.1697 77.4955 66.4953 77.9187 66.699 78.418Z" fill="#F9A74C"/>
<path fill-rule="evenodd" clip-rule="evenodd" d="M41.5043 81.7377C42.743 81.7053 43.9799 81.7377 45.2152 81.8354C50.0187 82.6446 54.5762 84.1745 58.8871 86.4252C58.7998 87.4938 58.6045 88.5356 58.3012 89.5502C53.2867 86.62 47.883 84.9924 42.0902 84.6674C39.6834 84.651 37.307 84.9114 34.9613 85.4487C34.6812 85.378 34.4533 85.2479 34.2777 85.0581C34.1283 84.551 34.0631 84.0301 34.0824 83.4956C34.0824 83.17 34.0824 82.8446 34.0824 82.519C36.5201 81.9375 38.9939 81.6772 41.5043 81.7377Z" fill="#F9A64B"/>
<path fill-rule="evenodd" clip-rule="evenodd" d="M42.0898 84.6677C42.1246 84.9011 42.1897 85.129 42.2852 85.3513C40.9893 86.1921 40.0451 87.3316 39.4531 88.7693C39.0654 92.1859 40.5303 94.2693 43.8477 95.0193C41.0475 95.0519 38.2479 95.0193 35.4492 94.9216C32.3232 93.9398 31.0537 91.824 31.6406 88.574C32.0619 87.2736 32.8756 86.297 34.082 85.6443C34.2551 85.4832 34.3201 85.2878 34.2773 85.0583C34.4529 85.2482 34.6809 85.3783 34.9609 85.449C37.3066 84.9117 39.683 84.6513 42.0898 84.6677Z" fill="#FFB155"/>
<path opacity="0.991" fill-rule="evenodd" clip-rule="evenodd" d="M42.0897 84.668C47.8824 84.993 53.2861 86.6205 58.3006 89.5508C57.2797 92.5561 55.1965 94.3463 52.0506 94.9219C49.317 95.0195 46.5826 95.0521 43.8475 95.0195C40.5301 94.2695 39.0652 92.1861 39.4529 88.7695C40.0449 87.3318 40.9891 86.1924 42.285 85.3516C42.1895 85.1293 42.1244 84.9014 42.0897 84.668Z" fill="#FEC87F"/>
</svg>
