<svg width="100" height="100" viewBox="0 0 100 100" fill="none" xmlns="http://www.w3.org/2000/svg">
<path d="M66.6663 35.4168H27.083V28.8481C27.083 27.8731 27.8726 27.0835 28.8476 27.0835H64.8997C65.8768 27.0835 66.6663 27.8731 66.6663 28.8481V35.4168Z" fill="#455A64"/>
<path d="M66.6663 35.4165H27.083C27.083 35.4165 14.583 50.2686 14.583 68.7498C14.583 87.2311 25.3851 87.4998 35.4163 87.4998C39.7434 87.4998 52.1622 87.4998 58.333 87.4998C68.3643 87.4998 79.1663 87.2311 79.1663 68.7498C79.1663 50.2686 66.6663 35.4165 66.6663 35.4165Z" fill="#90CAF9"/>
<path d="M64.5837 18.75C64.5837 18.75 46.2357 12.5 22.917 12.5C25.5191 17.9167 29.167 27.0833 29.167 27.0833H64.5837V18.75Z" fill="#90CAF9"/>
<path d="M21.4479 54.1665C19.8917 58.5207 18.75 63.4915 18.75 68.7498C18.75 82.6561 24.7729 83.3332 35.4167 83.3332H58.3333C68.9771 83.3332 75 82.6561 75 68.7498C75 63.4915 73.8583 58.5207 72.3 54.1665H21.4479Z" fill="#795548"/>
<path d="M35.4167 35.4165C35.4167 35.4165 25 48.0478 25 70.8332C30.0792 48.1769 41.6667 35.4165 41.6667 35.4165H35.4167Z" fill="white"/>
<path d="M35.4164 27.0838H41.6664C39.7727 23.0713 37.2122 19.8296 34.9018 17.4275C34.0018 17.3338 33.0893 17.2463 32.1602 17.165C33.7643 20.0463 35.4164 23.8025 35.4164 27.0838Z" fill="white"/>
<path d="M89.5835 58.3333H83.3335C83.3335 39.0021 78.2835 30.3021 75.1981 27.1375L66.7918 35.5417L62.373 31.1229L75.0001 18.75C75.0001 18.75 89.5835 25.9125 89.5835 58.3333Z" fill="#455A64"/>
</svg>
