<svg width="100" height="100" viewBox="0 0 100 100" fill="none" xmlns="http://www.w3.org/2000/svg">
<path d="M20.9639 79.7156C20.3653 79.5175 19.7668 79.5175 19.3678 79.9137C19.3678 79.1213 18.9688 78.527 18.1707 78.1308C17.7717 77.9327 17.3727 77.9327 16.9737 77.9327C16.9737 77.5364 16.9737 77.3383 16.7742 76.9421C16.3751 75.9516 15.1781 75.5554 14.1806 75.9516C14.1806 75.9516 13.981 76.1497 13.582 76.3478C13.183 76.5459 12.784 76.9421 12.1855 77.3383C11.1879 78.3289 9.79136 79.5175 8.79381 81.1023C7.79627 82.489 6.99823 84.2719 6.59921 85.4605C6.3997 86.0548 6.2002 86.6491 6.2002 87.0453C6.2002 87.6397 6.2002 87.8378 6.2002 87.8378C6.2002 87.8378 6.2002 87.6397 6.3997 87.2435C6.59921 86.8473 6.79872 86.451 7.19774 85.8567C7.79627 84.8662 8.99332 83.4795 10.1904 82.489C11.3874 81.4985 12.9835 80.7061 13.981 80.1118C14.3801 79.9137 14.5796 79.9137 14.9786 79.7156C14.7791 79.9137 14.5796 80.3099 14.3801 80.7061C13.7815 81.8947 12.784 83.4795 11.5869 84.8662C10.5894 86.451 9.39234 87.8378 8.19528 88.6302C7.99578 88.8283 7.59676 89.0264 7.39725 89.2245C7.19774 89.4226 6.99823 89.4226 6.79872 89.6207C6.3997 89.6207 6.2002 89.8188 6.2002 89.8188C6.2002 89.8188 6.3997 89.8188 6.79872 89.6207C6.99823 89.6207 7.19774 89.6207 7.59676 89.4226C7.79627 89.4226 8.19528 89.2245 8.5943 89.0264C9.99086 88.4321 11.5869 87.4416 13.183 86.2529C14.7791 85.0643 16.1756 83.8757 17.1732 82.6871C17.5722 82.2909 17.7717 82.0928 17.9712 81.8947C17.9712 82.0928 17.7717 82.489 17.5722 82.6871C16.9737 83.8757 16.3751 85.4605 15.3776 86.8472C14.3801 88.6302 13.183 89.8188 12.1855 90.6112C11.5869 91.0074 11.1879 91.4036 10.7889 91.4036C10.3899 91.6017 10.1904 91.7998 10.1904 91.7998C10.1904 91.7998 10.3899 91.7998 10.7889 91.6017C11.1879 91.6017 11.7864 91.4036 12.385 91.0074C13.7815 90.4131 15.3776 89.6207 16.7742 88.234C18.1707 87.0454 19.5673 85.6586 20.3653 84.47C20.7643 83.8757 21.1634 83.4795 21.3629 83.0833C21.5624 82.6871 21.7619 82.489 21.7619 82.489C21.7619 82.2909 21.9614 82.0928 21.9614 81.8947C22.5599 81.3004 21.9614 80.1118 20.9639 79.7156Z" fill="#A1887F"/>
<path d="M22.1736 81.8001C20.1802 81.8001 18.1869 81.0035 16.5922 79.4102C13.4029 76.2237 13.4029 71.2448 16.5922 68.0583L38.1203 49.9352C41.3096 46.7487 50.6783 39.1808 53.6683 42.3673C56.8577 45.5538 51.077 52.9225 48.087 55.9099L27.7549 79.4102C26.1602 81.0035 24.1669 81.8001 22.1736 81.8001Z" fill="#DCEDC8"/>
<path d="M91.8002 4.2002L50.1233 50.0002L40.2002 46.0176L77.9079 4.2002H91.8002Z" fill="#33691E"/>
<path d="M88.0002 8.2002V20.1431L52.1502 50.0002L40.2002 46.0192L88.0002 8.2002Z" fill="#558B2F"/>
<path d="M64 14.2002H76L56 44.0002H44L64 14.2002Z" fill="#689F38"/>
<path d="M80 32.1178L52 52.0002L44 46.0355L80 18.2002V32.1178Z" fill="#7CB342"/>
<path d="M50.1002 26H62.0002L50.1002 46L38.2002 50L50.1002 26Z" fill="#9CCC65"/>
<path d="M70.0002 44V30L38.2002 50C48.3364 50 48.1377 56 48.1377 56L70.0002 44Z" fill="#AED581"/>
</svg>
