<svg width="100" height="100" viewBox="0 0 100 100" fill="none" xmlns="http://www.w3.org/2000/svg">
<path d="M93.75 41.6658C93.75 64.9991 77.5 85.4158 50 85.4158C22.5 85.4158 6.25 64.9991 6.25 41.6658C6.25 13.9575 32.9167 14.5825 33.3333 14.5825C36.25 14.5825 36.6667 24.9991 33.75 24.9991C31.25 24.9991 18.75 26.8741 18.75 41.6658C18.75 60.2075 36.875 70.8325 50 70.8325C63.125 70.8325 81.25 60.2075 81.25 41.6658C81.25 27.0825 69.1667 24.9991 66.4583 24.9991C66.0417 24.9991 65.8333 24.9991 65.4167 24.9991C62.7083 24.9991 55.625 25.2075 51.4583 28.9575C49.1667 31.0408 48.125 33.7491 48.125 37.4991C48.125 40.2075 48.9583 42.4991 50.2083 44.3741C49.375 46.4575 46.25 49.1658 43.9583 50.2075C43.9583 50.2075 39.7917 46.4575 39.7917 37.4991C39.5833 14.7908 65.8333 14.5825 66.6667 14.5825C67.0833 14.5825 93.75 13.9575 93.75 41.6658ZM73.5417 56.2491C73.3333 56.2491 63.75 54.7908 56.25 50.2075C54.5833 52.4991 52.2917 54.3741 50 56.0408C58.5417 62.7075 71.4583 64.3741 72.2917 64.5825C72.5 64.5825 72.7083 64.5825 72.9167 64.5825C75 64.5825 76.6667 63.1241 77.0833 61.0408C77.2917 58.7491 75.8333 56.6658 73.5417 56.2491Z" fill="#E64A19"/>
<path d="M66.4583 25.0011C69.1667 25.0011 81.25 27.0845 81.25 41.6678C81.25 60.2095 63.125 70.8345 50 70.8345C43.75 70.8345 36.4583 68.5428 30.625 63.9595C38.75 62.2928 60.4167 56.0428 60.4167 37.5011C60.4167 32.7095 59.1667 28.7511 57.2917 25.8345C54.375 25.8345 50.4167 29.3761 50 30.4178C51.4583 32.2928 52.0833 34.5845 52.0833 37.7095C52.0833 52.7095 26.6667 56.4595 26.4583 56.4595C25.4167 56.6678 24.5833 57.0845 23.9583 57.7095C20.8333 53.1261 18.75 47.9178 18.75 41.6678C18.75 26.8761 31.25 25.0011 33.75 25.0011C34.1667 25.0011 34.5833 25.0011 34.7917 25.0011C36.4583 25.0011 39.375 25.0011 42.5 25.8345C42.5 25.8345 42.5 25.6261 42.7083 25.6261C43.125 25.0011 46.25 20.8345 49.5833 19.1678C49.7917 19.1678 49.7917 18.9595 49.7917 18.9595C43.75 15.6261 37.0833 14.7928 34.375 14.5845C30.4167 14.7928 12.5 16.8761 12.5 41.6678C12.5 53.5428 22.5 77.0845 50 77.0845C77.5 77.0845 85.4167 54.1678 85.4167 43.7511C85.4167 26.6678 71.4583 25.0011 66.4583 25.0011Z" fill="#BF360C"/>
<path d="M85.4167 56.2511C86.6667 56.2511 87.5 57.0845 87.5 58.3345C87.5 59.5845 86.6667 60.4178 85.4167 60.4178C84.1667 60.4178 83.3333 59.5845 83.3333 58.3345C83.3333 57.0845 84.1667 56.2511 85.4167 56.2511ZM68.75 70.8345C70 70.8345 70.8333 71.6678 70.8333 72.9178C70.8333 74.1678 70 75.0011 68.75 75.0011C67.5 75.0011 66.6667 74.1678 66.6667 72.9178C66.6667 71.6678 67.5 70.8345 68.75 70.8345ZM58.3333 75.0011C59.5833 75.0011 60.4167 75.8345 60.4167 77.0845C60.4167 78.3345 59.5833 79.1678 58.3333 79.1678C57.0833 79.1678 56.25 78.3345 56.25 77.0845C56.25 75.8345 57.0833 75.0011 58.3333 75.0011ZM35.4167 70.8345C36.6667 70.8345 37.5 71.6678 37.5 72.9178C37.5 74.1678 36.6667 75.0011 35.4167 75.0011C34.1667 75.0011 33.3333 74.1678 33.3333 72.9178C33.3333 71.6678 34.1667 70.8345 35.4167 70.8345ZM27.0833 70.8345C28.3333 70.8345 29.1667 71.6678 29.1667 72.9178C29.1667 74.1678 28.3333 75.0011 27.0833 75.0011C25.8333 75.0011 25 74.1678 25 72.9178C25 71.6678 25.8333 70.8345 27.0833 70.8345ZM15.2083 42.0845C16.4583 42.0845 17.2917 42.9178 17.2917 44.1678C17.2917 45.4178 16.4583 46.2511 15.2083 46.2511C13.9583 46.2511 13.125 45.4178 13.125 44.1678C13.125 42.9178 14.1667 42.0845 15.2083 42.0845ZM14.5833 52.0845C15.8333 52.0845 16.6667 52.9178 16.6667 54.1678C16.6667 55.4178 15.8333 56.2511 14.5833 56.2511C13.3333 56.2511 12.5 55.4178 12.5 54.1678C12.5 52.9178 13.3333 52.0845 14.5833 52.0845ZM85.4167 47.9178C86.6667 47.9178 87.5 48.7511 87.5 50.0011C87.5 51.2511 86.6667 52.0845 85.4167 52.0845C84.1667 52.0845 83.3333 51.2511 83.3333 50.0011C83.3333 48.7511 84.1667 47.9178 85.4167 47.9178ZM88.9583 40.8345C90.2083 40.8345 91.0417 41.6678 91.0417 42.9178C91.0417 44.1678 90.2083 45.0011 88.9583 45.0011C87.7083 45.0011 86.875 44.1678 86.875 42.9178C86.875 41.6678 87.7083 40.8345 88.9583 40.8345Z" fill="#FFE0B2"/>
</svg>
