<svg width="100" height="100" viewBox="0 0 100 100" fill="none" xmlns="http://www.w3.org/2000/svg">
<path d="M60.4168 66.6667C75.3745 66.6667 87.5002 54.541 87.5002 39.5833C87.5002 24.6256 75.3745 12.5 60.4168 12.5C45.4591 12.5 33.3335 24.6256 33.3335 39.5833C33.3335 54.541 45.4591 66.6667 60.4168 66.6667Z" fill="#D87B00"/>
<path d="M39.5833 87.5002C54.541 87.5002 66.6667 75.3745 66.6667 60.4168C66.6667 45.4591 54.541 33.3335 39.5833 33.3335C24.6256 33.3335 12.5 45.4591 12.5 60.4168C12.5 75.3745 24.6256 87.5002 39.5833 87.5002Z" fill="#FFB300"/>
<path d="M36.4583 64.5832C39.3348 64.5832 41.6667 62.2513 41.6667 59.3748C41.6667 56.4984 39.3348 54.1665 36.4583 54.1665C33.5819 54.1665 31.25 56.4984 31.25 59.3748C31.25 62.2513 33.5819 64.5832 36.4583 64.5832Z" fill="#683529"/>
<path d="M40.625 47.9165C42.3509 47.9165 43.75 46.5174 43.75 44.7915C43.75 43.0656 42.3509 41.6665 40.625 41.6665C38.8991 41.6665 37.5 43.0656 37.5 44.7915C37.5 46.5174 38.8991 47.9165 40.625 47.9165Z" fill="#683529"/>
<path d="M47.9167 74.9998C50.2179 74.9998 52.0833 73.1344 52.0833 70.8332C52.0833 68.532 50.2179 66.6665 47.9167 66.6665C45.6155 66.6665 43.75 68.532 43.75 70.8332C43.75 73.1344 45.6155 74.9998 47.9167 74.9998Z" fill="#683529"/>
<path d="M23.9585 66.6665C25.6844 66.6665 27.0835 65.2674 27.0835 63.5415C27.0835 61.8156 25.6844 60.4165 23.9585 60.4165C22.2326 60.4165 20.8335 61.8156 20.8335 63.5415C20.8335 65.2674 22.2326 66.6665 23.9585 66.6665Z" fill="#683529"/>
<path d="M53.1274 60.4141C54.8533 60.4141 56.2524 59.015 56.2524 57.2891C56.2524 55.5632 54.8533 54.1641 53.1274 54.1641C51.4016 54.1641 50.0024 55.5632 50.0024 57.2891C50.0024 59.015 51.4016 60.4141 53.1274 60.4141Z" fill="#683529"/>
<path d="M33.3333 77.0832C34.4839 77.0832 35.4167 76.1504 35.4167 74.9998C35.4167 73.8492 34.4839 72.9165 33.3333 72.9165C32.1827 72.9165 31.25 73.8492 31.25 74.9998C31.25 76.1504 32.1827 77.0832 33.3333 77.0832Z" fill="#683529"/>
<path d="M54.1667 29.1668C56.4679 29.1668 58.3333 27.3013 58.3333 25.0002C58.3333 22.699 56.4679 20.8335 54.1667 20.8335C51.8655 20.8335 50 22.699 50 25.0002C50 27.3013 51.8655 29.1668 54.1667 29.1668Z" fill="#4C2114"/>
<path d="M65.6226 37.4976C67.3484 37.4976 68.7476 36.0985 68.7476 34.3726C68.7476 32.6467 67.3484 31.2476 65.6226 31.2476C63.8967 31.2476 62.4976 32.6467 62.4976 34.3726C62.4976 36.0985 63.8967 37.4976 65.6226 37.4976Z" fill="#4C2114"/>
<path d="M67.7061 25C69.4319 25 70.8311 23.6009 70.8311 21.875C70.8311 20.1491 69.4319 18.75 67.7061 18.75C65.9802 18.75 64.5811 20.1491 64.5811 21.875C64.5811 23.6009 65.9802 25 67.7061 25Z" fill="#4C2114"/>
<path d="M74.9998 45.8332C76.1504 45.8332 77.0832 44.9004 77.0832 43.7498C77.0832 42.5992 76.1504 41.6665 74.9998 41.6665C73.8492 41.6665 72.9165 42.5992 72.9165 43.7498C72.9165 44.9004 73.8492 45.8332 74.9998 45.8332Z" fill="#4C2114"/>
</svg>
