<svg width="100" height="100" viewBox="0 0 100 100" fill="none" xmlns="http://www.w3.org/2000/svg">
<path d="M58.2682 16.6722C60.5694 16.6722 62.4349 14.8067 62.4349 12.5055C62.4349 10.2043 60.5694 8.33887 58.2682 8.33887C55.967 8.33887 54.1016 10.2043 54.1016 12.5055C54.1016 14.8067 55.967 16.6722 58.2682 16.6722Z" fill="#8BC34A"/>
<path d="M52.0182 27.1069H47.8516C47.8516 10.4194 56.9495 8.74648 57.337 8.55273L58.2682 16.6777C57.9745 16.8277 52.0182 16.1361 52.0182 27.1069Z" fill="#8BC34A"/>
<path d="M39.5878 91.6665C36.6524 91.6665 33.7337 90.431 31.6753 88.0248C17.0878 70.9831 16.667 42.6831 16.667 39.5144C16.667 33.7519 21.3295 29.0811 27.0837 29.0811C32.8316 29.0811 37.492 33.7436 37.5003 39.4977C37.5253 46.0019 39.3649 64.9519 47.492 74.4477C51.2378 78.8206 50.7316 85.406 46.3628 89.156C44.4003 90.8415 41.9878 91.6665 39.5878 91.6665Z" fill="#FF3D00"/>
<path d="M60.4089 91.6668C58.4256 91.6668 56.4214 91.1022 54.6443 89.9189C49.8568 86.7314 48.5589 80.2626 51.7464 75.473C62.261 59.6814 62.4985 39.6939 62.5006 39.4939C62.536 33.7647 67.1902 29.123 72.9172 29.123C72.9277 29.123 72.9381 29.123 72.9485 29.123C78.6902 29.1397 83.3339 33.7814 83.3339 39.523C83.3339 40.5897 83.1714 65.8647 69.0881 87.0189C67.0839 90.0355 63.7777 91.6668 60.4089 91.6668Z" fill="#FF3D00"/>
<path d="M70.5775 32.2482C70.0004 26.9087 65.267 23.0087 59.817 22.9774C59.8295 22.9566 59.8545 22.917 59.8545 22.917C59.5795 22.917 59.29 22.9524 59.0066 22.9753C58.8962 22.9816 58.79 22.9649 58.6816 22.9753C58.6191 22.9816 58.5608 23.0045 58.4983 23.0107C57.8754 23.092 57.24 23.2274 56.6087 23.3774C56.5712 23.3878 56.5358 23.3941 56.4983 23.4045C53.8733 24.0482 51.3254 25.1024 50.067 25.1024C48.4441 25.1024 45.3191 23.3378 41.5316 22.9878C41.5129 22.9857 41.4983 22.9795 41.4795 22.9774C41.4295 22.9732 41.3837 22.9795 41.3337 22.9774C40.9837 22.9524 40.6379 22.917 40.2795 22.917C40.2795 22.917 40.3129 22.9545 40.3275 22.9712C34.8545 22.9628 30.09 26.842 29.4712 32.1837C29.3712 33.0482 27.1254 53.642 36.5858 78.5607C37.4962 80.9587 39.2316 84.1774 41.3712 86.517C42.9879 89.5607 46.2545 91.667 50.067 91.667C54.0316 91.667 57.4295 89.4003 58.967 86.1566C60.8983 83.8545 62.442 80.8357 63.3087 78.5566C72.7566 53.6795 70.6691 33.1087 70.5775 32.2482Z" fill="#FF3D00"/>
<path d="M74.0723 29.2479C73.5744 29.175 73.0764 29.0938 72.5598 29.0938C71.6077 29.0938 70.7035 29.2687 69.8264 29.5104C70.1868 30.3729 70.4702 31.2771 70.5743 32.2479C70.666 33.1083 72.7535 53.6792 63.3077 78.5562C62.441 80.8375 60.8973 83.8542 58.966 86.1562C58.5056 87.1271 57.8639 87.9938 57.1035 88.7542C74.7619 81.9375 76.641 39.1937 74.0723 29.2479Z" fill="#DD2C00"/>
<path d="M41.3707 86.5165C39.2311 84.1769 37.4957 80.9581 36.5852 78.5602C27.1248 53.6415 29.3707 33.0477 29.4707 32.1831C29.5769 31.2706 29.8415 30.4206 30.1727 29.604C29.2186 29.3623 27.8957 29.0811 27.0852 29.0811C26.5686 29.0811 26.0727 29.1623 25.5727 29.2352C22.9686 39.3165 24.9457 83.0727 43.279 88.9769C42.5165 88.2602 41.8602 87.4394 41.3707 86.5165Z" fill="#DD2C00"/>
<path d="M39.5837 29.0811C37.5003 29.0811 35.417 33.2519 35.417 35.3394" stroke="#FF9E80" stroke-width="22" stroke-linecap="round"/>
<path d="M35.417 45.7686C35.417 45.7686 35.417 60.3727 39.5837 68.7186" stroke="#FF9E80" stroke-width="22" stroke-linecap="round"/>
<path d="M89.2044 28.7878C90.355 28.7878 91.2878 27.855 91.2878 26.7044C91.2878 25.5538 90.355 24.6211 89.2044 24.6211C88.0538 24.6211 87.1211 25.5538 87.1211 26.7044C87.1211 27.855 88.0538 28.7878 89.2044 28.7878Z" fill="#BF360C"/>
</svg>
