<svg width="100" height="100" viewBox="0 0 100 100" fill="none" xmlns="http://www.w3.org/2000/svg">
<path d="M78.7769 32.9408C72.9165 38.8012 62.6603 37.3366 62.6603 37.3366C62.6603 37.3366 61.1998 27.0783 67.0561 21.222C72.9165 15.3637 83.1707 16.8283 83.1707 16.8283C83.1707 16.8283 84.6373 27.0783 78.7769 32.9408Z" fill="#689F38"/>
<path d="M63.6025 40.0465C76.863 41.5194 91.5942 56.2506 91.5942 56.2506C91.5942 56.2506 93.0671 45.9381 82.7546 38.5735C72.4421 31.2069 63.6025 40.0465 63.6025 40.0465Z" fill="#8BC34A"/>
<path d="M60.1793 36.3989C58.7063 23.1405 43.9751 8.40721 43.9751 8.40721C43.9751 8.40721 54.2876 6.93429 61.6522 17.2447C69.0168 27.5593 60.1793 36.3989 60.1793 36.3989Z" fill="#8BC34A"/>
<path d="M73.3393 73.7492C62.1559 84.9367 30.2559 96.6825 17.8268 84.2533C5.3955 71.8242 17.1413 39.9263 28.3288 28.7408C39.5163 17.5533 53.4101 23.8138 65.8393 36.245C78.2663 48.67 84.5268 62.5617 73.3393 73.7492Z" fill="#FF1744"/>
<path d="M33.8162 31.7326C35.8516 29.6972 39.1475 29.6972 41.1808 31.7326C43.2141 33.768 43.2162 37.0639 41.1808 39.0972C39.1454 41.1305 35.3683 41.618 33.3329 39.5826C31.2975 37.5472 31.7829 33.768 33.8162 31.7326Z" fill="#D50000"/>
<path d="M50.9622 43.842C52.9976 41.8066 56.2934 41.8066 58.3267 43.842C60.3601 45.8774 60.3622 49.1732 58.3267 51.2066C56.2913 53.2399 52.5122 53.7253 50.4767 51.6899C48.4413 49.6545 48.9267 45.8753 50.9622 43.842Z" fill="#D50000"/>
<path d="M23.8458 70.8732C25.8812 68.8378 29.177 68.8378 31.2103 70.8732C33.2437 72.9087 33.2458 76.2045 31.2103 78.2378C29.1749 80.2712 25.3958 80.7566 23.3603 78.7212C21.3249 76.6857 21.8124 72.9066 23.8458 70.8732Z" fill="#D50000"/>
<path d="M63.1169 60.7668C65.1524 58.7314 68.4482 58.7314 70.4815 60.7668C72.5149 62.8022 72.517 66.098 70.4815 68.1314C68.4461 70.1647 64.6669 70.6501 62.6315 68.6147C60.5961 66.5793 61.0815 62.8022 63.1169 60.7668Z" fill="#D50000"/>
<path d="M28.0186 50.0324C30.054 47.997 33.3499 47.997 35.3832 50.0324C37.4165 52.0678 37.4186 55.3637 35.3832 57.397C33.3478 59.4303 29.5686 59.9158 27.5332 57.8803C25.4978 55.8449 25.9853 52.0658 28.0186 50.0324Z" fill="#D50000"/>
<path d="M42.283 67.0168C44.3184 64.9814 47.6142 64.9814 49.6475 67.0168C51.6809 69.0522 51.683 72.348 49.6475 74.3814C47.6121 76.4147 43.833 76.9001 41.7975 74.8647C39.7621 72.8293 40.2475 69.0522 42.283 67.0168Z" fill="#D50000"/>
<path d="M38.9734 36.8898C38.1588 37.7044 34.1484 40.3981 33.3338 39.5835C32.5192 38.7689 35.213 34.7585 36.0275 33.9439C36.8421 33.1294 38.1588 33.1294 38.9734 33.9439C39.788 34.7585 39.788 36.0752 38.9734 36.8898Z" fill="#FFC107"/>
<path d="M56.1184 49.0006C55.3038 49.8152 51.2934 52.5089 50.4788 51.6944C49.6642 50.8798 52.358 46.8694 53.1726 46.0548C53.9871 45.2402 55.3038 45.2402 56.1184 46.0548C56.933 46.8694 56.9309 48.186 56.1184 49.0006Z" fill="#FFC107"/>
<path d="M29.0022 76.0275C28.1876 76.8421 24.1772 79.5358 23.3626 78.7212C22.548 77.9066 25.2418 73.8962 26.0564 73.0816C26.8709 72.2671 28.1876 72.2671 29.0022 73.0816C29.8168 73.8962 29.8168 75.215 29.0022 76.0275Z" fill="#FFC107"/>
<path d="M68.2732 65.9259C67.4586 66.7405 63.4482 69.4342 62.6336 68.6197C61.819 67.8051 64.5128 63.7947 65.3273 62.9801C66.1419 62.1655 67.4586 62.1655 68.2732 62.9801C69.0878 63.7947 69.0857 65.1113 68.2732 65.9259Z" fill="#FFC107"/>
<path d="M33.175 55.1881C32.3605 56.0027 28.35 58.6965 27.5355 57.8819C26.7209 57.0673 29.4146 53.0569 30.2292 52.2423C31.0438 51.4277 32.3605 51.4277 33.175 52.2423C33.9896 53.0569 33.9875 54.3756 33.175 55.1881Z" fill="#FFC107"/>
<path d="M47.4397 72.1759C46.6251 72.9905 42.6147 75.6842 41.8001 74.8697C40.9855 74.0551 43.6793 70.0447 44.4939 69.2301C45.3084 68.4155 46.6251 68.4155 47.4397 69.2301C48.2543 70.0447 48.2522 71.3613 47.4397 72.1759Z" fill="#FFC107"/>
</svg>
