<svg width="100" height="100" viewBox="0 0 100 100" fill="none" xmlns="http://www.w3.org/2000/svg">
<path opacity="0.993" fill-rule="evenodd" clip-rule="evenodd" d="M41.9403 7.5C40.7901 12.4454 39.6402 17.3907 38.49 22.3361C37.4489 22.3202 36.4715 22.0615 35.5573 21.5598C35.3455 21.3027 35.3455 21.0439 35.5573 20.7835C36.1628 18.1886 36.7954 15.6009 37.455 13.0204C37.8574 11.1803 38.2601 9.34014 38.6625 7.5C39.7551 7.5 40.8478 7.5 41.9403 7.5Z" fill="#436500"/>
<path fill-rule="evenodd" clip-rule="evenodd" d="M41.94 7.5C42.7451 7.5 43.5501 7.5 44.3552 7.5C44.0031 9.48357 43.543 11.4387 42.9751 13.3654C42.2621 15.9299 41.6295 18.5176 41.0774 21.1285C40.9384 21.3868 40.8235 21.6743 40.7324 21.9911C40.0156 22.2817 39.2681 22.3967 38.4897 22.3361C39.6399 17.3907 40.7899 12.4454 41.94 7.5Z" fill="#579B00"/>
<path fill-rule="evenodd" clip-rule="evenodd" d="M37.4543 13.0208C36.7948 15.6012 36.1622 18.1889 35.5567 20.7838C34.7014 20.9384 33.9827 21.3409 33.4003 21.9914C33.4054 22.7512 33.7791 23.2975 34.5216 23.6303C37.0429 24.5165 39.5157 24.4014 41.9396 23.2853C42.8131 22.1265 42.5255 21.4077 41.0771 21.1288C41.6291 18.518 42.2617 15.9303 42.9747 13.3658C51.5852 15.05 58.3994 19.4778 63.4175 26.6493C64.88 28.8269 66.1164 31.127 67.1265 33.5498C65.9805 33.4269 64.8305 33.3693 63.6762 33.3773C62.5311 30.516 60.9209 27.9857 58.8459 25.7867C58.5619 25.2157 58.1593 24.7556 57.6383 24.4066C56.0853 22.25 54.1302 20.5537 51.7729 19.3175C51.2174 19.0842 50.6424 18.9404 50.0477 18.8862C48.8533 18.5198 47.7607 18.6923 46.77 19.4037C45.786 19.9573 45.0671 20.7623 44.6136 21.8189C43.9472 23.4153 43.3147 25.0256 42.7159 26.6493C42.6009 27.1093 42.6009 27.5693 42.7159 28.0294C44.4545 29.3442 46.2083 30.6381 47.9776 31.9109C48.639 32.3712 49.214 32.9175 49.7027 33.5498C49.5316 33.5201 49.4167 33.5777 49.3577 33.7223C48.9721 33.6714 48.6271 33.729 48.3226 33.8948C48.2652 33.8948 48.2075 33.8948 48.1501 33.8948C46.3589 32.0511 44.1737 31.2174 41.5946 31.3934C40.7936 31.8445 40.3912 32.5345 40.387 33.4635C40.4322 34.4099 40.6622 35.3013 41.0771 36.1375C40.962 36.1375 40.9046 36.1949 40.9046 36.31C38.3164 37.5191 35.9586 39.0717 33.8315 40.9678C33.4389 40.6519 33.1227 40.2495 32.8827 39.7602C31.1414 36.5178 29.6174 33.1827 28.3111 29.7545C27.2707 30.4478 26.2931 31.2241 25.3784 32.0834C24.6765 32.6118 23.929 33.0719 23.1358 33.4635C22.5607 33.5786 21.9857 33.5786 21.4106 33.4635C21.2669 33.3198 21.1231 33.1759 20.9793 33.0322C20.535 31.5227 20.7075 30.0852 21.4969 28.7194C22.6055 26.8637 24.0144 25.2823 25.7234 23.9753C25.9382 23.8389 26.1682 23.7526 26.4135 23.7165C26.9752 25.6892 27.6076 27.6443 28.3111 29.582C30.0932 28.4879 31.2432 26.9353 31.7614 24.9241C31.7284 23.8504 31.2109 23.1317 30.2088 22.7677C28.8295 22.4986 27.5645 22.7574 26.4135 23.544C25.8887 21.4164 25.4286 19.2887 25.0334 17.1611C25.0334 17.046 24.9759 16.9885 24.8609 16.9885C28.7234 14.6662 32.9214 13.3437 37.4543 13.0208Z" fill="#A00061"/>
<path fill-rule="evenodd" clip-rule="evenodd" d="M24.8607 16.9866C24.9757 16.9866 25.0332 17.0441 25.0332 17.1591C25.0603 17.396 25.0314 17.626 24.9469 17.8491C18.3047 27.052 15.7745 37.2879 17.3564 48.5564C18.363 53.2934 20.6056 57.3187 24.0844 60.6323C24.9103 52.8276 28.1593 46.2722 33.8313 40.9658C35.9584 39.0697 38.3161 37.5171 40.9043 36.308C41.7964 37.6288 42.774 38.8938 43.8371 40.1033C41.5112 42.1986 39.4987 44.5563 37.7991 47.1763C34.1627 53.0407 32.7252 59.4237 33.4863 66.3252C30.0164 65.123 26.94 63.2829 24.2569 60.8048C23.8603 66.8308 25.1541 72.4663 28.1384 77.711C17.3091 73.6951 10.6098 66.0469 8.04067 54.7669C6.18219 42.9232 9.11491 32.4575 16.8388 23.3695C19.1619 20.7616 21.8358 18.6339 24.8607 16.9866Z" fill="#4D002F"/>
<path fill-rule="evenodd" clip-rule="evenodd" d="M25.0336 17.1604C25.4288 19.2881 25.8889 21.4157 26.4137 23.5434C26.4137 23.6008 26.4137 23.6584 26.4137 23.7159C26.1684 23.7519 25.9384 23.8382 25.7237 23.9747C24.0146 25.2816 22.6057 26.863 21.4971 28.7188C20.7077 30.0845 20.5352 31.5221 20.9796 33.0316C21.1233 33.1753 21.2671 33.3191 21.4108 33.4628C21.9859 33.5779 22.5609 33.5779 23.136 33.4628C23.9292 33.0712 24.6767 32.6112 25.3786 32.0827C26.2933 31.2235 27.2709 30.4472 28.3114 29.7538C29.6176 33.182 31.1416 36.5172 32.8829 39.7596C33.1229 40.2488 33.4391 40.6513 33.8318 40.9671C28.1597 46.2735 24.9108 52.8289 24.0848 60.6336C20.6061 57.32 18.3634 53.2947 17.3568 48.5577C15.7749 37.2892 18.3051 27.0533 24.9474 17.8505C25.0319 17.6274 25.0607 17.3973 25.0336 17.1604Z" fill="#850051"/>
<path fill-rule="evenodd" clip-rule="evenodd" d="M50.0477 18.8848C52.4466 19.9449 53.5679 21.785 53.4116 24.4052C53.1529 25.1241 52.6642 25.6128 51.9453 25.8716C49.3738 26.1234 47.5624 25.0596 46.5111 22.6801C46.0968 21.5356 46.183 20.443 46.7699 19.4023C47.7607 18.691 48.8532 18.5184 50.0477 18.8848Z" fill="#F5F8FC"/>
<path fill-rule="evenodd" clip-rule="evenodd" d="M50.048 18.8857C50.6426 18.94 51.2176 19.0837 51.7731 19.317C54.1305 20.5532 56.0856 22.2496 57.6385 24.4061C55.3612 24.1582 54.8437 25.0208 56.0859 26.9938C56.6833 27.6818 57.431 27.9406 58.3286 27.7701C58.6448 27.6839 58.8461 27.4826 58.9324 27.1664C59.0569 26.69 59.0281 26.2301 58.8461 25.7862C60.9211 27.9853 62.5313 30.5155 63.6765 33.3768C61.5953 33.3273 59.5251 33.4422 57.466 33.7218C54.8885 33.3508 52.3008 33.2931 49.7029 33.5493C49.2142 32.9171 48.6392 32.3707 47.9778 31.9104C46.2085 30.6377 44.4548 29.3438 42.7162 28.0289C42.6011 27.5688 42.6011 27.1089 42.7162 26.6488C43.315 25.0251 43.9474 23.4149 44.6138 21.8185C45.0674 20.7619 45.7862 19.9568 46.7702 19.4033C46.1833 20.4439 46.0971 21.5365 46.5115 22.681C47.5628 25.0605 49.3741 26.1244 51.9456 25.8725C52.6645 25.6137 53.1532 25.125 53.412 24.4061C53.5683 21.786 52.4469 19.9458 50.048 18.8857Z" fill="#CE047E"/>
<path fill-rule="evenodd" clip-rule="evenodd" d="M35.5568 20.7812C35.345 21.0417 35.345 21.3005 35.5568 21.5576C36.4709 22.0592 37.4484 22.318 38.4895 22.3339C39.2679 22.3945 40.0154 22.2795 40.7322 21.9888C40.8233 21.6721 40.9382 21.3846 41.0772 21.1263C42.5256 21.4052 42.8132 22.124 41.9398 23.2827C39.5158 24.3988 37.043 24.5139 34.5217 23.6277C33.7792 23.2949 33.4056 22.7487 33.4004 21.9888C33.9828 21.3384 34.7015 20.9358 35.5568 20.7812Z" fill="#4E002F"/>
<path fill-rule="evenodd" clip-rule="evenodd" d="M26.4141 23.7155C26.4141 23.6581 26.4141 23.6005 26.4141 23.543C27.5651 22.7564 28.8301 22.4976 30.2093 22.7667C31.2115 23.1307 31.729 23.8494 31.762 24.9231C31.2437 26.9343 30.0938 28.4869 28.3117 29.5809C27.6082 27.6433 26.9758 25.6882 26.4141 23.7155Z" fill="#CE007D"/>
<path fill-rule="evenodd" clip-rule="evenodd" d="M57.639 24.4067C58.16 24.7557 58.5627 25.2158 58.8466 25.7868C59.0286 26.2307 59.0574 26.6906 58.9329 27.1669C58.8466 27.4832 58.6453 27.6845 58.3291 27.7707C57.4315 27.9412 56.6838 27.6824 56.0864 26.9944C54.8441 25.0214 55.3617 24.1588 57.639 24.4067Z" fill="#F5F6FB"/>
<path fill-rule="evenodd" clip-rule="evenodd" d="M52.4629 27.8572C53.7733 27.9258 54.1757 28.5296 53.6705 29.6686C52.4796 29.5982 52.0771 28.9944 52.4629 27.8572Z" fill="#F4EEF7"/>
<path fill-rule="evenodd" clip-rule="evenodd" d="M48.1503 33.8948C45.6918 34.3309 43.3342 35.0784 41.0773 36.1375C40.6624 35.3013 40.4324 34.4099 40.3872 33.4635C40.3913 32.5345 40.7938 31.8445 41.5948 31.3934C44.1739 31.2174 46.3591 32.0512 48.1503 33.8948Z" fill="#CE007D"/>
<path fill-rule="evenodd" clip-rule="evenodd" d="M57.4655 33.7212C55.5403 34.1517 53.6426 34.7266 51.7726 35.4464C51.1945 34.5272 50.3896 33.9522 49.3574 33.7212C49.4164 33.5767 49.5313 33.5191 49.7024 33.5487C52.3003 33.2925 54.888 33.3502 57.4655 33.7212Z" fill="#710044"/>
<path fill-rule="evenodd" clip-rule="evenodd" d="M63.6762 33.3771C64.8305 33.3692 65.9805 33.4268 67.1265 33.5497C76.7114 35.2763 83.9282 40.3367 88.7768 48.7308C93.2444 57.5746 93.4457 66.4877 89.3806 75.4702C88.6906 75.4702 88.0005 75.4702 87.3105 75.4702C92.3961 64.3977 91.1599 54.1044 83.6014 44.5905C75.7794 36.3587 66.32 33.5697 55.2231 36.2236C48.1742 38.3026 42.7687 42.4717 39.0069 48.7308C38.9495 48.7308 38.8918 48.7308 38.8344 48.7308C38.3553 48.308 38.0103 47.7904 37.7993 47.1782C39.4989 44.5582 41.5114 42.2005 43.8373 40.1051C45.8201 38.5665 47.9477 37.2438 50.2202 36.1374C50.7174 35.86 51.2349 35.63 51.7728 35.4473C53.6429 34.7276 55.5405 34.1526 57.4658 33.7222C59.5249 33.4425 61.595 33.3276 63.6762 33.3771Z" fill="#A41365"/>
<path fill-rule="evenodd" clip-rule="evenodd" d="M49.3573 33.7213C50.3895 33.9523 51.1944 34.5273 51.7725 35.4464C51.2346 35.6291 50.7171 35.8591 50.2199 36.1365C49.6522 35.3382 49.0196 34.5907 48.3223 33.8938C48.6268 33.728 48.9718 33.6704 49.3573 33.7213Z" fill="#4F0030"/>
<path fill-rule="evenodd" clip-rule="evenodd" d="M48.1503 33.8923C48.2078 33.8923 48.2654 33.8923 48.3228 33.8923C49.0201 34.5893 49.6527 35.3368 50.2205 36.135C47.948 37.2415 45.8204 38.5642 43.8375 40.1028C42.7745 38.8933 41.7968 37.6283 40.9048 36.3075C40.9048 36.1924 40.9622 36.135 41.0773 36.135C43.3343 35.0759 45.6918 34.3284 48.1503 33.8923Z" fill="#6F0043"/>
<path fill-rule="evenodd" clip-rule="evenodd" d="M87.3109 75.4701C86.6322 75.3217 85.9422 75.2643 85.2407 75.2976C85.2407 75.2401 85.2407 75.1825 85.2407 75.1251C85.6392 74.6762 85.9554 74.1587 86.1895 73.5725C90.1459 64.0644 89.1109 55.1512 83.0843 46.833C75.7755 38.4164 66.6609 35.4549 55.7411 37.9486C49.0098 40.0253 43.8632 44.0793 40.3012 50.1107C40.2201 50.2965 40.2489 50.469 40.3874 50.6283C40.2724 50.6283 40.1575 50.6283 40.0424 50.6283C39.7051 50.0003 39.3601 49.3679 39.0073 48.7306C42.7691 42.4715 48.1746 38.3024 55.2235 36.2235C66.3204 33.5695 75.7798 36.3585 83.6019 44.5903C91.1603 54.1042 92.3965 64.3975 87.3109 75.4701Z" fill="#FEB2C2"/>
<path fill-rule="evenodd" clip-rule="evenodd" d="M85.2403 75.1235C83.9756 75.0746 82.768 74.8447 81.6175 74.4334C86.4608 65.5619 85.9145 57.0514 79.9787 48.9015C73.6692 41.8151 65.8773 39.3711 56.6032 41.5697C50.4838 43.5347 45.941 47.3587 42.9747 53.0418C42.8958 53.1795 42.7808 53.2369 42.6297 53.2143C41.9415 52.2964 41.194 51.4338 40.387 50.6267C40.2485 50.4674 40.2197 50.2949 40.3007 50.1091C43.8628 44.0777 49.0093 40.0237 55.7406 37.947C66.6605 35.4533 75.775 38.4148 83.0839 46.8314C89.1104 55.1496 90.1455 64.0628 86.1891 73.5708C85.955 74.157 85.6388 74.6746 85.2403 75.1235Z" fill="#FDFCD6"/>
<path fill-rule="evenodd" clip-rule="evenodd" d="M81.6177 74.4334C81.5027 74.5485 81.3878 74.6634 81.2727 74.7785C80.756 74.4778 80.1809 74.3053 79.5476 74.2609C79.5476 74.2035 79.5476 74.1459 79.5476 74.0884C84.3295 66.1414 84.1282 58.3209 78.9438 50.6267C73.0694 43.629 65.6802 41.2427 56.7759 43.4674C50.9158 45.3888 46.7181 49.1553 44.1825 54.767C43.665 54.3069 43.1474 53.847 42.6299 53.3869C42.6299 53.3294 42.6299 53.2718 42.6299 53.2144C42.781 53.237 42.8961 53.1795 42.9749 53.0419C45.9413 47.3588 50.484 43.5347 56.6034 41.5698C65.8775 39.3711 73.6694 41.8151 79.9789 48.9015C85.9147 57.0514 86.461 65.562 81.6177 74.4334Z" fill="#FEB5A1"/>
<path fill-rule="evenodd" clip-rule="evenodd" d="M79.5477 74.0879C78.9229 74.1186 78.3477 74.0035 77.8226 73.7429C78.3957 73.5431 78.7693 73.1404 78.9439 72.5353C79.8496 69.5908 78.7859 68.2395 75.7524 68.4812C75.4393 68.6118 75.1519 68.7555 74.8899 68.9125C73.8808 68.5452 72.8458 68.3153 71.7846 68.2225C71.5547 67.4173 71.0372 66.8998 70.232 66.6698C70.1047 65.9863 69.9897 65.2963 69.887 64.5997C70.0021 64.5997 70.117 64.5997 70.232 64.5997C71.0432 66.7031 72.567 67.9682 74.8036 68.395C75.4485 68.3418 76.0523 68.1693 76.615 67.8774C78.2202 68.7376 79.6291 68.5076 80.8416 67.1874C80.9818 66.8534 81.0681 66.5084 81.1003 66.1523C82.235 64.8141 82.6088 63.2615 82.2217 61.4945C81.9113 60.2971 81.2501 59.377 80.2378 58.7343C81.3952 57.1251 81.3663 55.5148 80.1515 53.9039C78.9103 52.4351 77.3289 51.7451 75.4074 51.8338C76.0409 49.5361 75.1783 48.271 72.8197 48.0385C72.2354 46.2231 71.0278 45.5331 69.197 45.9683C67.7449 43.5071 66.0198 43.2771 64.0216 45.2783C62.4282 44.0924 60.9044 44.1499 59.45 45.4508C59.3194 45.7639 59.1757 46.0513 59.0187 46.3133C58.4877 44.8684 57.4526 44.2646 55.9135 44.502C53.101 45.3285 51.7497 47.1975 51.8594 50.1086C51.9226 50.4454 52.0663 50.7328 52.2907 50.9712C52.2907 51.2588 52.2907 51.5462 52.2907 51.8338C52.068 51.7929 51.8955 51.8503 51.7732 52.0063C49.8569 52.5999 48.6493 53.8649 48.1504 55.8015C47.1805 55.588 46.2029 55.588 45.2177 55.8015C44.8727 55.514 44.5276 55.2266 44.1826 54.939C44.1826 54.8815 44.1826 54.8239 44.1826 54.7665C46.7182 49.1548 50.916 45.3883 56.776 43.4669C65.6803 41.2422 73.0695 43.6285 78.9439 50.6262C84.1283 58.3204 84.3296 66.1409 79.5477 74.0879Z" fill="#F8EE0C"/>
<path fill-rule="evenodd" clip-rule="evenodd" d="M59.018 46.3147C59.018 46.7172 59.018 47.1199 59.018 47.5223C58.8527 48.3128 58.5077 49.0028 57.9829 49.5925C56.7607 47.2289 55.1792 46.9415 53.2388 48.7299C52.816 49.4574 52.4996 50.2049 52.29 50.9726C52.0656 50.7342 51.9219 50.4468 51.8587 50.11C51.749 47.1989 53.1003 45.3299 55.9128 44.5034C57.4519 44.266 58.487 44.8698 59.018 46.3147Z" fill="#FDF0BE"/>
<path fill-rule="evenodd" clip-rule="evenodd" d="M72.8194 48.0394C71.2405 48.3255 70.0041 49.1306 69.1104 50.4546C69.2656 49.6661 69.4093 48.8611 69.5416 48.0394C69.4813 47.3382 69.3662 46.6481 69.1966 45.9693C71.0275 45.534 72.2351 46.2241 72.8194 48.0394Z" fill="#FDF288"/>
<path fill-rule="evenodd" clip-rule="evenodd" d="M37.8 47.1777C38.011 47.79 38.356 48.3075 38.8351 48.7303C34.2169 57.317 33.9007 66.0575 37.8862 74.9523C44.0689 86.1675 53.5859 91.2566 66.4371 90.2197C75.818 88.682 82.7759 83.7654 87.3111 75.4698C88.0012 75.4698 88.6912 75.4698 89.3813 75.4698C84.2563 85.6574 75.9757 91.264 64.5394 92.2898C53.4636 92.6457 44.7229 88.3615 38.3175 79.4376C35.7843 75.4029 34.1743 71.0326 33.4872 66.3266C32.726 59.4251 34.1636 53.0421 37.8 47.1777Z" fill="#8A1155"/>
<path fill-rule="evenodd" clip-rule="evenodd" d="M57.9834 49.5921C58.1247 49.9841 58.2396 50.3867 58.3284 50.7997C58.5204 52.2211 58.2617 53.5435 57.5521 54.7675C57.1238 55.3408 56.5776 55.7434 55.9133 55.9751C55.5474 55.9449 55.2023 56.0025 54.8782 56.1476C53.353 55.2868 52.5192 53.9641 52.3767 52.1798C52.2023 52.0354 52.001 51.978 51.7729 52.0073C51.8953 51.8514 52.0678 51.7939 52.2905 51.8348C52.2905 51.5472 52.2905 51.2598 52.2905 50.9722C52.5001 50.2045 52.8165 49.4571 53.2393 48.7296C55.1797 46.9411 56.7612 47.2285 57.9834 49.5921Z" fill="#FEA10D"/>
<path fill-rule="evenodd" clip-rule="evenodd" d="M59.0185 47.5227C59.8507 50.2527 61.6909 51.6904 64.5389 51.8355C64.4732 52.7502 64.6457 53.6127 65.0564 54.4232C64.0291 53.0645 62.7641 52.7769 61.2611 53.5606C60.5939 52.6082 59.6737 52.0907 58.5009 52.008C58.553 51.5666 58.4954 51.1639 58.3284 50.8004C58.2396 50.3875 58.1247 49.9848 57.9834 49.5929C58.5082 49.0032 58.8532 48.3132 59.0185 47.5227Z" fill="#F8ED06"/>
<path fill-rule="evenodd" clip-rule="evenodd" d="M69.1969 45.9686C69.3664 46.6474 69.4815 47.3375 69.5419 48.0387C69.4096 48.8604 69.2659 49.6653 69.1106 50.4539C70.0044 49.1299 71.2408 48.3248 72.8196 48.0387C75.1782 48.2713 76.0408 49.5363 75.4073 51.834C75.0257 52.7318 74.5082 53.5369 73.8547 54.2492C72.5603 54.8259 72.5603 54.9984 73.8547 54.7667C75.0492 54.6594 75.9406 55.1195 76.5287 56.1468C76.6147 56.9499 76.6436 57.7548 76.6149 58.562C76.0141 59.7052 75.2089 60.6827 74.1997 61.4947C73.0563 62.1335 71.8487 62.306 70.577 62.0123C69.4008 60.9908 69.0558 59.7256 69.5419 58.217C69.7318 57.9844 69.9043 57.7257 70.0594 57.4407C69.5652 57.4091 69.1053 57.3228 68.6793 57.1819C69.2 57.2104 69.7175 57.1816 70.2319 57.0956C70.6644 56.462 71.182 55.9157 71.7846 55.4568C69.9369 55.8015 68.7294 55.054 68.1618 53.2141C68.2794 52.3895 68.4806 51.5844 68.7656 50.7989C68.4157 51.3496 67.9844 51.8097 67.4717 52.179C65.3243 52.5242 64.0305 51.6042 63.5902 49.4188C63.4751 48.4412 63.4751 47.4637 63.5902 46.4861C63.7831 46.0954 63.9268 45.6927 64.0215 45.2785C66.0197 43.2774 67.7448 43.5073 69.1969 45.9686Z" fill="#FEA00B"/>
<path fill-rule="evenodd" clip-rule="evenodd" d="M67.1267 46.8311C67.0589 47.3509 67.174 47.811 67.4717 48.2112C67.6092 49.1043 67.3793 49.8806 66.7817 50.5401C65.7273 51.0051 65.0084 50.6888 64.6253 49.5913C64.3218 48.4684 64.5806 47.5196 65.4016 46.7449C65.9483 46.5761 66.4372 46.6624 66.8679 47.0036C66.934 46.9077 67.0203 46.8503 67.1267 46.8311Z" fill="#997C02"/>
<path fill-rule="evenodd" clip-rule="evenodd" d="M67.4713 48.2131C67.1735 47.8129 67.0585 47.3528 67.1263 46.833C67.3819 46.0862 67.8132 45.9711 68.4201 46.488C68.5352 46.9481 68.5352 47.408 68.4201 47.8681C68.171 48.1536 67.8546 48.2686 67.4713 48.2131Z" fill="#F6F6F3"/>
<path fill-rule="evenodd" clip-rule="evenodd" d="M38.8349 48.7283C38.8924 48.7283 38.95 48.7283 39.0075 48.7283C39.3602 49.3655 39.7053 49.998 40.0425 50.6259C35.7916 59.0849 35.9355 67.4804 40.4738 75.8128C46.5758 85.3177 55.2877 89.4868 66.6095 88.3199C74.8991 86.8948 81.1095 82.5534 85.2409 75.2952C85.9423 75.2619 86.6324 75.3194 87.311 75.4677C82.7758 83.7634 75.8179 88.68 66.437 90.2176C53.5858 91.2545 44.0688 86.1654 37.8861 74.9502C33.9006 66.0554 34.2168 57.3149 38.8349 48.7283Z" fill="#FD829C"/>
<path fill-rule="evenodd" clip-rule="evenodd" d="M57.2932 51.662C56.2112 51.9004 55.8087 51.4403 56.0856 50.2819C56.9049 49.4836 57.3648 49.6848 57.4657 50.8856C57.4476 51.1603 57.39 51.4191 57.2932 51.662Z" fill="#F6F6F3"/>
<path fill-rule="evenodd" clip-rule="evenodd" d="M72.3024 50.1109C72.4443 51.1761 71.9842 51.6937 70.9223 51.6635C70.5874 51.4028 70.5012 51.0578 70.6635 50.6284C71.0675 49.9677 71.6137 49.7952 72.3024 50.1109Z" fill="#F5F6F5"/>
<path fill-rule="evenodd" clip-rule="evenodd" d="M70.9221 51.662C71.9841 51.6922 72.4441 51.1746 72.3022 50.1093C73.4547 49.4781 74.2022 49.7943 74.5448 51.0582C74.0347 53.139 72.8559 53.7428 71.0083 52.8696C70.9226 52.471 70.8939 52.0686 70.9221 51.662Z" fill="#9A7D04"/>
<path fill-rule="evenodd" clip-rule="evenodd" d="M56.0859 50.2824C55.809 51.4409 56.2115 51.9009 57.2935 51.6625C57.4419 52.6115 57.2119 53.4453 56.6034 54.164C55.4238 54.7134 54.7049 54.3396 54.447 53.0426C54.2128 52.095 54.4141 51.2611 55.0508 50.5412C55.3691 50.3466 55.7141 50.2603 56.0859 50.2824Z" fill="#997C05"/>
<path fill-rule="evenodd" clip-rule="evenodd" d="M40.0423 50.6282C40.1574 50.6282 40.2723 50.6282 40.3874 50.6282C41.1944 51.4354 41.9419 52.2979 42.63 53.2159C42.63 53.2733 42.63 53.3309 42.63 53.3884C38.8846 62.9204 40.4947 71.4023 47.4604 78.834C54.4501 84.9924 62.3282 86.4874 71.0946 83.3193C75.3588 81.4981 78.7514 78.6517 81.2729 74.7799C81.3879 74.6649 81.5028 74.55 81.6179 74.4349C82.7684 74.8462 83.976 75.0762 85.2407 75.125C85.2407 75.1824 85.2407 75.24 85.2407 75.2975C81.1093 82.5556 74.8989 86.8971 66.6093 88.3222C55.2874 89.4891 46.5756 85.32 40.4736 75.815C35.9353 67.4827 35.7914 59.0872 40.0423 50.6282Z" fill="#FDEFC0"/>
<path fill-rule="evenodd" clip-rule="evenodd" d="M64.0214 45.2797C63.9267 45.6939 63.783 46.0965 63.5901 46.4873C63.4751 47.4649 63.4751 48.4423 63.5901 49.42C64.0304 51.6054 65.3242 52.5254 67.4717 52.1802C67.6994 52.5188 67.9295 52.8638 68.1617 53.2153C68.7293 55.0551 69.9369 55.8026 71.7845 55.4579C71.1819 55.9168 70.6644 56.4632 70.2319 57.0968C69.7174 57.1827 69.1999 57.2115 68.6793 57.183C67.9708 57.1097 67.3382 56.851 66.7816 56.4067C66.2241 55.8785 65.7065 55.3322 65.229 54.7679C65.2587 54.5967 65.2011 54.4818 65.0565 54.4228C64.6457 53.6124 64.4732 52.7498 64.539 51.8352C61.6909 51.6901 59.8508 50.2524 59.0186 47.5223C59.0186 47.1199 59.0186 46.7172 59.0186 46.3147C59.1755 46.0527 59.3192 45.7653 59.4498 45.4522C60.9043 44.1513 62.4281 44.0938 64.0214 45.2797Z" fill="#FE8000"/>
<path fill-rule="evenodd" clip-rule="evenodd" d="M68.1617 53.2138C67.9295 52.8624 67.6994 52.5173 67.4717 52.1787C67.9844 51.8093 68.4157 51.3492 68.7655 50.7986C68.4805 51.584 68.2794 52.3892 68.1617 53.2138Z" fill="#FDE879"/>
<path fill-rule="evenodd" clip-rule="evenodd" d="M75.4071 51.8347C77.3286 51.746 78.91 52.4361 80.1512 53.9049C81.366 55.5158 81.3948 57.126 80.2375 58.7352C79.3704 58.4389 78.5655 58.5539 77.8223 59.0803C77.4057 58.9414 77.003 58.7689 76.6147 58.5627C76.6433 57.7555 76.6145 56.9506 76.5284 56.1475C75.9403 55.1202 75.049 54.6601 73.8545 54.7674C73.8545 54.5949 73.8545 54.4224 73.8545 54.2499C74.508 53.5376 75.0255 52.7325 75.4071 51.8347Z" fill="#FDF0BF"/>
<path fill-rule="evenodd" clip-rule="evenodd" d="M51.7727 52.0072C52.0007 51.9779 52.2021 52.0353 52.3765 52.1797C52.519 53.964 53.3527 55.2867 54.8779 56.1475C54.1823 57.6494 53.0322 58.5694 51.4276 58.9077C50.8918 57.2792 49.7993 56.2441 48.1499 55.8025C48.6488 53.8658 49.8564 52.6008 51.7727 52.0072Z" fill="#FE8000"/>
<path fill-rule="evenodd" clip-rule="evenodd" d="M58.3283 50.7986C58.4953 51.1621 58.5529 51.5647 58.5008 52.0062C59.6735 52.0888 60.5937 52.6063 61.261 53.5588C59.7158 55.14 59.3133 56.9801 60.0534 59.0792C59.6875 59.1094 59.3425 59.0518 59.0183 58.9067C58.5643 57.873 57.7591 57.3554 56.6031 57.3541C56.2983 56.9335 56.0682 56.4734 55.9131 55.974C56.5774 55.7423 57.1236 55.3396 57.552 54.7664C58.2615 53.5424 58.5203 52.2199 58.3283 50.7986Z" fill="#FDF287"/>
<path fill-rule="evenodd" clip-rule="evenodd" d="M42.6296 53.3887C43.1471 53.8488 43.6647 54.3087 44.1822 54.7688C44.1822 54.8262 44.1822 54.8838 44.1822 54.9413C43.2489 56.767 42.7314 58.7221 42.6296 60.8067C42.484 61.4276 42.4265 62.0602 42.4571 62.7044C42.8482 71.5722 47.0459 77.8689 55.0505 81.5945C63.7964 84.6387 71.4156 82.8849 77.9084 76.3329C78.4969 75.6602 79.0432 74.9702 79.5473 74.2627C80.1806 74.307 80.7558 74.4796 81.2724 74.7802C78.751 78.6519 75.3583 81.4984 71.0942 83.3196C62.3278 86.4876 54.4496 84.9927 47.4599 78.8343C40.4942 71.4026 38.8842 62.9207 42.6296 53.3887Z" fill="#FDA891"/>
<path fill-rule="evenodd" clip-rule="evenodd" d="M73.8546 54.249C73.8546 54.4215 73.8546 54.594 73.8546 54.7666C72.5602 54.9982 72.5602 54.8257 73.8546 54.249Z" fill="#F8EA19"/>
<path fill-rule="evenodd" clip-rule="evenodd" d="M44.1825 54.9392C44.5275 55.2268 44.8725 55.5142 45.2176 55.8018C45.6777 56.3193 46.1376 56.8368 46.5977 57.3544C44.7373 57.8925 43.4146 59.0426 42.6299 60.8046C42.7317 58.72 43.2492 56.7649 44.1825 54.9392Z" fill="#FBBF10"/>
<path fill-rule="evenodd" clip-rule="evenodd" d="M73.8553 57.0105C73.4616 57.164 73.0591 57.1927 72.6477 57.0968C72.4959 56.8628 72.4383 56.6041 72.4752 56.3204C72.7526 55.6068 73.2701 55.348 74.0278 55.5441C74.2529 56.0596 74.1955 56.5483 73.8553 57.0105Z" fill="#F6F6F4"/>
<path fill-rule="evenodd" clip-rule="evenodd" d="M48.1505 55.8037C49.7999 56.2454 50.8924 57.2804 51.4282 58.909C51.6515 59.6739 51.6515 60.4214 51.4282 61.1516C50.9138 60.8111 50.3963 60.4661 49.8756 60.1165C49.8546 57.97 48.762 57.05 46.5979 57.3563C46.1378 56.8388 45.6779 56.3213 45.2178 55.8037C46.203 55.5902 47.1806 55.5902 48.1505 55.8037Z" fill="#FCF187"/>
<path fill-rule="evenodd" clip-rule="evenodd" d="M65.229 54.7688C65.7065 55.3331 66.2241 55.8794 66.7816 56.4077C67.3381 56.8519 67.9707 57.1107 68.6793 57.184C69.1052 57.3249 69.5651 57.4112 70.0594 57.4427C69.9043 57.7277 69.7318 57.9865 69.5418 58.2191C68.4559 57.4164 67.2483 57.1862 65.9191 57.529C65.8256 56.594 65.5954 55.674 65.229 54.7688Z" fill="#F8E800"/>
<path fill-rule="evenodd" clip-rule="evenodd" d="M55.9131 55.9756C56.0682 56.475 56.2983 56.9351 56.6031 57.3557C54.1676 57.7221 52.4999 59.0447 51.6002 61.3235C51.4852 61.3235 51.4277 61.266 51.4277 61.1509C51.651 60.4207 51.651 59.6732 51.4277 58.9083C53.0323 58.57 54.1824 57.65 54.878 56.1481C55.2021 56.003 55.5472 55.9454 55.9131 55.9756Z" fill="#F8EB08"/>
<path fill-rule="evenodd" clip-rule="evenodd" d="M72.4744 56.3193C72.4375 56.6029 72.4951 56.8617 72.647 57.0956C73.0584 57.1916 73.4609 57.1629 73.8545 57.0094C74.3326 58.4428 73.8727 59.5067 72.4744 60.2009C70.7752 60.5048 70.1714 59.8436 70.6631 58.217C71.2315 57.5233 71.8353 56.8907 72.4744 56.3193Z" fill="#9B7D04"/>
<path fill-rule="evenodd" clip-rule="evenodd" d="M46.5975 57.3555C48.7616 57.0491 49.8542 57.9691 49.8752 60.1157C49.2445 62.9894 47.4618 64.4846 44.5273 64.601C43.5048 64.3259 42.8148 63.6933 42.4572 62.7034C42.4266 62.0592 42.4841 61.4266 42.6297 60.8058C43.4144 59.0437 44.7371 57.8936 46.5975 57.3555Z" fill="#FD9304"/>
<path fill-rule="evenodd" clip-rule="evenodd" d="M69.542 58.2169C69.0558 59.7255 69.4008 60.9908 70.577 62.0122C70.0538 62.8033 69.9389 63.6659 70.232 64.5999C70.1169 64.5999 70.002 64.5999 69.887 64.5999C68.9112 62.39 67.2148 61.125 64.7979 60.8046C65.2852 59.7744 65.659 58.6818 65.9192 57.5269C67.2484 57.1841 68.456 57.4142 69.542 58.2169Z" fill="#FE7F00"/>
<path fill-rule="evenodd" clip-rule="evenodd" d="M56.6033 57.3545C57.7593 57.3559 58.5644 57.8734 59.0184 58.9071C59.0184 59.0796 59.0184 59.2521 59.0184 59.4246C59.0467 61.2655 58.2992 62.7032 56.7758 63.7375C56.6091 64.0645 56.5517 64.4096 56.6033 64.7725C56.261 64.6594 55.916 64.5445 55.5682 64.4275C53.9078 65.0172 52.6714 64.5571 51.8592 63.0474C51.825 63.3721 51.7388 63.6595 51.6004 63.91C51.6609 63.2149 51.5461 62.5537 51.2554 61.9261C51.3378 61.7013 51.4529 61.5001 51.6004 61.3223C52.5001 59.0436 54.1677 57.7209 56.6033 57.3545Z" fill="#FE9E0A"/>
<path fill-rule="evenodd" clip-rule="evenodd" d="M76.6149 58.5635C77.0032 58.7696 77.4059 58.9421 77.8225 59.081C77.2111 59.578 76.8086 60.2106 76.6149 60.9787C75.8626 60.9426 75.1725 61.1151 74.5447 61.4962C74.4297 61.4962 74.3148 61.4962 74.1997 61.4962C75.2089 60.6842 76.014 59.7067 76.6149 58.5635Z" fill="#F8EC0A"/>
<path fill-rule="evenodd" clip-rule="evenodd" d="M80.2375 58.7343C81.2498 59.3771 81.9111 60.2971 82.2214 61.4945C82.6085 63.2616 82.2347 64.8142 81.1001 66.1524C80.8917 63.2995 79.3965 61.5744 76.6147 60.977C76.8085 60.209 77.211 59.5764 77.8223 59.0794C78.5655 58.553 79.3705 58.438 80.2375 58.7343Z" fill="#FE8101"/>
<path fill-rule="evenodd" clip-rule="evenodd" d="M45.0447 60.9781C46.2386 60.9381 46.6987 60.3631 46.4248 59.253C48.6082 58.8228 49.212 59.6277 48.2361 61.6682C47.5815 62.4614 46.7477 62.7776 45.7347 62.617C45.1965 62.2016 44.9665 61.6554 45.0447 60.9781Z" fill="#775B01"/>
<path fill-rule="evenodd" clip-rule="evenodd" d="M54.3606 60.9768C55.4697 60.9502 55.9298 60.3752 55.7407 59.2516C58.0029 58.9396 58.5492 59.8021 57.3796 61.8393C56.7097 62.6172 55.8759 62.876 54.8781 62.6156C54.4418 62.1599 54.2693 61.6137 54.3606 60.9768Z" fill="#9B7E05"/>
<path fill-rule="evenodd" clip-rule="evenodd" d="M59.0186 58.9084C59.3427 59.0535 59.6877 59.1111 60.0536 59.081C60.1214 59.3887 60.2363 59.6761 60.3987 59.9435C59.9386 59.771 59.4786 59.5985 59.0186 59.426C59.0186 59.2535 59.0186 59.081 59.0186 58.9084Z" fill="#F9ED1E"/>
<path fill-rule="evenodd" clip-rule="evenodd" d="M46.4253 59.2518C46.6992 60.362 46.2392 60.9369 45.0452 60.977C44.694 59.7199 45.1541 59.1449 46.4253 59.2518Z" fill="#FAEBB8"/>
<path fill-rule="evenodd" clip-rule="evenodd" d="M55.7414 59.2517C55.9304 60.3752 55.4704 60.9502 54.3613 60.9768C53.8163 59.6771 54.2764 59.1021 55.7414 59.2517Z" fill="#F6F7F3"/>
<path fill-rule="evenodd" clip-rule="evenodd" d="M59.0184 59.4248C59.4785 59.5973 59.9384 59.7698 60.3985 59.9423C60.6861 60.5749 61.146 61.0349 61.7786 61.3224C62.546 62.407 62.8334 63.6146 62.6412 64.9452C62.356 64.9728 62.1261 65.0877 61.9512 65.2902C61.7471 65.117 61.5171 64.9732 61.2611 64.859C60.456 64.7439 59.651 64.7439 58.8459 64.859C58.3964 64.9956 58.0513 65.2544 57.8108 65.6353C57.6958 65.6353 57.5809 65.6353 57.4658 65.6353C57.2786 65.2752 56.9912 65.0453 56.6033 64.9452C56.6033 64.8878 56.6033 64.8301 56.6033 64.7727C56.5517 64.4097 56.6091 64.0647 56.7758 63.7376C58.2992 62.7034 59.0467 61.2657 59.0184 59.4248Z" fill="#FDF288"/>
<path fill-rule="evenodd" clip-rule="evenodd" d="M49.8759 60.114C50.3966 60.4635 50.9141 60.8085 51.4285 61.1491C51.4285 61.2642 51.486 61.3216 51.601 61.3216C51.4535 61.4995 51.3385 61.7006 51.256 61.9254C51.5467 62.553 51.6616 63.2142 51.601 63.9093C51.601 64.1393 51.601 64.3694 51.601 64.5993C49.0939 64.7018 47.3688 65.9094 46.4257 68.2221C45.4444 68.134 44.7832 67.6164 44.4418 66.6695C44.3103 65.9644 44.339 65.2744 44.528 64.5993C47.4625 64.4829 49.2452 62.9877 49.8759 60.114Z" fill="#FED316"/>
<path fill-rule="evenodd" clip-rule="evenodd" d="M33.4872 66.3244C34.1743 71.0303 35.7844 75.4006 38.3176 79.4353C34.7986 79.4719 31.4058 78.8967 28.1393 77.7102C25.155 72.4655 23.8612 66.83 24.2578 60.804C26.9409 63.2821 30.0173 65.1221 33.4872 66.3244Z" fill="#30001E"/>
<path fill-rule="evenodd" clip-rule="evenodd" d="M65.0562 54.4217C65.2008 54.4807 65.2584 54.5956 65.2288 54.7668C65.5952 55.6719 65.8253 56.5919 65.9188 57.527C65.6587 58.6819 65.2848 59.7745 64.7975 60.8047C67.2144 61.1251 68.9109 62.3901 69.8866 64.6C69.9892 65.2966 70.1043 65.9866 70.2316 66.6701C69.3201 68.1636 67.9974 68.6811 66.2638 68.2227C64.7019 67.5232 63.6092 66.3731 62.9861 64.7725C62.694 63.7583 62.7803 62.7807 63.2449 61.8398C63.4614 61.7171 63.6625 61.5734 63.8487 61.4085C63.1574 61.5351 62.4673 61.5063 61.7785 61.3222C61.1459 61.0347 60.686 60.5747 60.3984 59.9421C60.2361 59.6747 60.1212 59.3873 60.0534 59.0796C59.3133 56.9804 59.7158 55.1404 61.261 53.5592C62.7639 52.7754 64.0289 53.063 65.0562 54.4217Z" fill="#FEA00A"/>
<path fill-rule="evenodd" clip-rule="evenodd" d="M63.5041 55.8027C63.1253 57.0113 63.5277 57.4714 64.7117 57.1828C64.7888 58.1114 64.5588 58.9454 64.0216 59.6842C63.2286 60.1224 62.5674 59.9787 62.0377 59.253C61.7831 58.4635 61.7255 57.6584 61.8652 56.8378C62.1732 56.0958 62.7195 55.7508 63.5041 55.8027Z" fill="#997C01"/>
<path fill-rule="evenodd" clip-rule="evenodd" d="M64.7116 57.1819C63.5276 57.4705 63.1251 57.0104 63.504 55.8018C63.9111 55.1191 64.3424 55.1191 64.7978 55.8018C64.9017 56.2712 64.8729 56.7311 64.7116 57.1819Z" fill="#F3F3EE"/>
<path fill-rule="evenodd" clip-rule="evenodd" d="M76.6152 60.9781C79.397 61.5755 80.8921 63.3006 81.1005 66.1534C81.0683 66.5095 80.982 66.8545 80.8418 67.1885C79.6293 68.5088 78.2204 68.7387 76.6152 67.8786C74.5331 66.7046 73.6418 64.9219 73.9413 62.5307C74.101 62.1525 74.3023 61.8075 74.545 61.4956C75.1728 61.1145 75.8629 60.942 76.6152 60.9781Z" fill="#FEA10C"/>
<path fill-rule="evenodd" clip-rule="evenodd" d="M61.7788 61.324C62.4677 61.508 63.1577 61.5369 63.849 61.4102C63.6628 61.5752 63.4617 61.7189 63.2452 61.8415C62.7806 62.7824 62.6943 63.76 62.9864 64.7742C62.8713 64.8317 62.7564 64.8893 62.6414 64.9467C62.8336 63.6162 62.5461 62.4086 61.7788 61.324Z" fill="#F9E919"/>
<path fill-rule="evenodd" clip-rule="evenodd" d="M74.1994 61.4941C74.3145 61.4941 74.4294 61.4941 74.5445 61.4941C74.3017 61.806 74.1004 62.1511 73.9407 62.5292C73.6412 64.9204 74.5325 66.7032 76.6146 67.8771C76.0519 68.169 75.4481 68.3415 74.8032 68.3946C72.5666 67.9679 71.0428 66.7028 70.2316 64.5994C69.9385 63.6654 70.0534 62.8028 70.5767 62.0117C71.8484 62.3055 73.056 62.133 74.1994 61.4941Z" fill="#FDEFBD"/>
<path fill-rule="evenodd" clip-rule="evenodd" d="M67.8165 64.7743C67.5329 64.7374 67.2741 64.795 67.0402 64.9468C66.9442 65.3583 66.9729 65.7607 67.1264 66.1544C65.7991 66.6535 64.7928 66.251 64.1074 64.9468C63.5568 63.4846 64.0457 62.7657 65.5738 62.7904C65.9188 62.9629 66.2639 63.1354 66.6089 63.3079C66.9932 63.8338 67.3957 64.3225 67.8165 64.7743Z" fill="#9B7D04"/>
<path fill-rule="evenodd" clip-rule="evenodd" d="M77.9943 63.2214C77.9108 63.7886 78.0833 64.2487 78.5118 64.6015C78.4985 66.3627 77.6936 66.8514 76.0966 66.0679C74.9218 65.1989 74.6917 64.1638 75.4066 62.9626C76.2614 62.5954 77.0377 62.7391 77.7355 63.3939C77.8016 63.298 77.8878 63.2406 77.9943 63.2214Z" fill="#9A7C01"/>
<path fill-rule="evenodd" clip-rule="evenodd" d="M78.5126 64.6014C78.084 64.2486 77.9115 63.7886 77.995 63.2213C78.2557 62.8865 78.6007 62.8002 79.0301 62.9626C80.089 63.979 79.9165 64.5254 78.5126 64.6014Z" fill="#F5F6F5"/>
<path fill-rule="evenodd" clip-rule="evenodd" d="M56.6035 64.7742C56.6035 64.8316 56.6035 64.8893 56.6035 64.9467C56.4444 65.5698 56.3293 66.2024 56.2584 66.8444C56.0186 67.0857 55.8461 67.3733 55.7409 67.7069C55.4311 67.93 55.1435 68.1887 54.8783 68.4832C54.6152 68.6573 54.3277 68.7435 54.0158 68.742C53.7227 68.7696 53.4351 68.741 53.1532 68.6557C54.0273 66.735 53.5098 65.3837 51.6006 64.6017C51.6006 64.3717 51.6006 64.1416 51.6006 63.9116C51.7389 63.6611 51.8252 63.3737 51.8594 63.0491C52.6715 64.5587 53.9079 65.0188 55.5684 64.4292C55.9162 64.5461 56.2612 64.661 56.6035 64.7742Z" fill="#FC6C00"/>
<path fill-rule="evenodd" clip-rule="evenodd" d="M51.6004 64.5996C53.5096 65.3816 54.0272 66.7329 53.1531 68.6537C53.4349 68.7389 53.7225 68.7675 54.0156 68.7399C53.7651 68.8783 53.4777 68.9645 53.1531 68.9987C52.6671 69.8576 52.0345 70.5765 51.2554 71.1551C49.6762 72.2681 48.1236 72.2681 46.5976 71.1551C46.2377 70.1895 46.1803 69.2119 46.4251 68.2224C47.3682 65.9097 49.0933 64.7021 51.6004 64.5996Z" fill="#FD9102"/>
<path fill-rule="evenodd" clip-rule="evenodd" d="M61.9513 65.292C62.796 66.1708 63.0259 67.2059 62.6414 68.3972C62.5839 68.3972 62.5263 68.3972 62.4689 68.3972C62.2689 68.0953 61.9814 67.9228 61.6063 67.8797C61.426 66.438 60.6784 66.0355 59.3636 66.6721C59.1553 66.5455 58.9253 66.488 58.6736 66.4996C58.4326 66.1754 58.1452 65.8879 57.811 65.637C58.0515 65.2561 58.3965 64.9973 58.8461 64.8607C59.6512 64.7456 60.4562 64.7456 61.2613 64.8607C61.5173 64.9749 61.7473 65.1188 61.9513 65.292Z" fill="#FEA313"/>
<path fill-rule="evenodd" clip-rule="evenodd" d="M67.817 64.7733C68.5307 65.0507 68.7895 65.5682 68.5933 66.3259C68.0779 66.551 67.5891 66.4936 67.127 66.1534C66.9735 65.7597 66.9448 65.3572 67.0407 64.9458C67.2747 64.794 67.5334 64.7363 67.817 64.7733Z" fill="#F6F6F4"/>
<path fill-rule="evenodd" clip-rule="evenodd" d="M56.6033 64.9446C56.9913 65.0446 57.2787 65.2746 57.4659 65.6346C57.0058 65.9797 56.6033 66.3821 56.2583 66.8422C56.3292 66.2003 56.4443 65.5677 56.6033 64.9446Z" fill="#FAB505"/>
<path fill-rule="evenodd" clip-rule="evenodd" d="M62.9867 64.7744C63.6099 66.375 64.7025 67.5251 66.2645 68.2247C66.122 68.7396 65.892 69.1995 65.5744 69.6048C64.6028 69.1664 63.6252 68.7639 62.6417 68.3972C63.0262 67.2058 62.7963 66.1707 61.9517 65.292C62.1266 65.0894 62.3565 64.9745 62.6417 64.9469C62.7568 64.8895 62.8717 64.8319 62.9867 64.7744Z" fill="#FDEFBC"/>
<path fill-rule="evenodd" clip-rule="evenodd" d="M57.4657 65.6348C57.5807 65.6348 57.6956 65.6348 57.8107 65.6348C58.1448 65.8856 58.4322 66.1732 58.6732 66.4973C57.7417 66.8574 57.5115 67.4325 57.9832 68.2225C57.9879 69.941 58.793 70.4299 60.3984 69.6888C61.0403 69.2373 61.4428 68.6336 61.606 67.8774C61.981 67.9206 62.2686 68.0931 62.4685 68.395C62.0429 69.6833 61.2378 70.6609 60.0534 71.3277C59.5234 71.5606 59.0059 71.7905 58.5007 72.0177C56.6635 72.1633 55.6284 71.3296 55.3955 69.5163C55.4574 68.9001 55.5725 68.2963 55.7405 67.7049C55.8458 67.3713 56.0183 67.0837 56.2581 66.8424C56.6031 66.3823 57.0056 65.9798 57.4657 65.6348Z" fill="#FD9202"/>
<path fill-rule="evenodd" clip-rule="evenodd" d="M50.2203 66.6709C50.3922 67.7084 49.9322 68.226 48.8402 68.2235C48.5054 67.9629 48.4191 67.6179 48.5815 67.1885C48.9855 66.5277 49.5317 66.3552 50.2203 66.6709Z" fill="#F9EAB8"/>
<path fill-rule="evenodd" clip-rule="evenodd" d="M48.8403 68.2231C49.9323 68.2255 50.3922 67.7079 50.2204 66.6704C51.3587 66.0314 52.1062 66.3477 52.4631 67.6193C52.1493 69.3711 51.1142 70.1186 49.3579 69.8619C48.8945 69.4227 48.722 68.8764 48.8403 68.2231Z" fill="#775C01"/>
<path fill-rule="evenodd" clip-rule="evenodd" d="M58.6729 66.4978C58.9246 66.4862 59.1546 66.5437 59.363 66.6703C59.5424 67.7009 59.0823 68.2184 57.9829 68.2229C57.5112 67.433 57.7414 66.8578 58.6729 66.4978Z" fill="#FBEBB8"/>
<path fill-rule="evenodd" clip-rule="evenodd" d="M70.2321 66.6699C71.0372 66.8999 71.5547 67.4174 71.7847 68.2225C71.2231 68.6411 70.7344 69.1586 70.3183 69.7752C70.2322 70.4052 70.2036 71.0376 70.2321 71.6728C68.6941 71.0067 67.1415 70.3741 65.5742 69.7752C65.5742 69.7177 65.5742 69.6601 65.5742 69.6026C65.8918 69.1974 66.1218 68.7375 66.2643 68.2225C67.9978 68.6809 69.3205 68.1634 70.2321 66.6699Z" fill="#FE8100"/>
<path fill-rule="evenodd" clip-rule="evenodd" d="M61.6062 67.878C61.443 68.6341 61.0405 69.2379 60.3986 69.6894C58.7932 70.4305 57.9881 69.9416 57.9834 68.223C59.0828 68.2186 59.5429 67.701 59.3635 66.6704C60.6782 66.0339 61.4259 66.4363 61.6062 67.878Z" fill="#7D6204"/>
<path fill-rule="evenodd" clip-rule="evenodd" d="M62.4689 68.3953C62.5263 68.3953 62.584 68.3953 62.6414 68.3953C63.6249 68.762 64.6025 69.1645 65.5741 69.6029C65.5741 69.6603 65.5741 69.7179 65.5741 69.7754C65.4591 69.7754 65.4016 69.8328 65.4016 69.9479C64.2054 70.1157 63.3428 70.7482 62.8139 71.8455C62.0756 72.0249 61.3281 72.0536 60.5712 71.9318C60.3016 71.8008 60.1291 71.5995 60.0537 71.328C61.2382 70.6612 62.0433 69.6836 62.4689 68.3953Z" fill="#FED319"/>
<path fill-rule="evenodd" clip-rule="evenodd" d="M77.8224 73.744C77.7073 73.744 77.5924 73.744 77.4773 73.744C77.4965 71.6416 76.6339 70.0315 74.8896 68.9136C75.1517 68.7566 75.4391 68.6129 75.7522 68.4823C78.7857 68.2406 79.8494 69.5919 78.9437 72.5364C78.7691 73.1416 78.3955 73.5442 77.8224 73.744Z" fill="#FDF0BE"/>
<path fill-rule="evenodd" clip-rule="evenodd" d="M55.7407 67.7051C55.5727 68.2965 55.4576 68.9002 55.3957 69.5165C55.6286 71.3297 56.6636 72.1635 58.5009 72.0179C58.6727 72.0031 58.8164 72.0607 58.9322 72.1904C59.0519 72.8898 59.0231 73.5798 58.8459 74.2606C58.8057 74.53 58.6907 74.76 58.5009 74.9506C58.1802 75.3082 57.7777 75.5382 57.2933 75.6407C57.1886 75.6193 57.1312 75.5618 57.1208 75.4681C57.5724 73.3321 56.7099 72.1821 54.5331 72.0179C53.8479 72.0165 53.2153 72.189 52.6355 72.5354C52.233 72.0179 51.7729 71.5578 51.2554 71.1553C52.0344 70.5767 52.667 69.8579 53.153 68.9989C53.4777 68.9648 53.7651 68.8785 54.0156 68.7402C54.3275 68.7417 54.6151 68.6555 54.8781 68.4814C55.1433 68.1869 55.4309 67.9281 55.7407 67.7051Z" fill="#FED116"/>
<path fill-rule="evenodd" clip-rule="evenodd" d="M71.7844 68.2249C72.8456 68.3177 73.8806 68.5476 74.8897 68.9149C76.6339 70.0328 77.4965 71.6428 77.4774 73.7453C77.507 73.9164 77.4494 74.0313 77.3048 74.0903C77.2916 73.8746 77.1765 73.7309 76.9598 73.659C76.2482 73.5101 75.5582 73.3088 74.8897 73.0552C74.8388 72.6696 74.8964 72.3246 75.0622 72.0201C76.0757 71.9967 76.3345 71.5366 75.8385 70.64C75.1567 69.8929 74.6104 69.9503 74.1996 70.8125C73.5073 70.1932 72.7022 69.9919 71.7844 70.2087C71.3359 70.7235 71.1634 71.3273 71.2669 72.0201C70.9355 71.8713 70.5905 71.7564 70.2318 71.6751C70.2034 71.0399 70.232 70.4075 70.3181 69.7775C70.7342 69.1609 71.2229 68.6434 71.7844 68.2249Z" fill="#FEA20F"/>
<path fill-rule="evenodd" clip-rule="evenodd" d="M74.2001 70.8109C74.294 71.363 74.5814 71.7655 75.0627 72.0185C74.8969 72.323 74.8393 72.668 74.8902 73.0536C74.8327 73.0536 74.7751 73.0536 74.7176 73.0536C73.6141 72.7348 72.5216 72.3898 71.4399 72.0185C71.3825 72.0185 71.3248 72.0185 71.2674 72.0185C71.1639 71.3257 71.3364 70.7219 71.7849 70.2071C72.7027 69.9903 73.5078 70.1916 74.2001 70.8109Z" fill="#9B7F06"/>
<path fill-rule="evenodd" clip-rule="evenodd" d="M75.0623 72.0176C74.581 71.7646 74.2936 71.3621 74.1997 70.81C74.6105 69.9478 75.1568 69.8904 75.8386 70.6375C76.3346 71.5341 76.0758 71.9942 75.0623 72.0176Z" fill="#F6F6F1"/>
<path fill-rule="evenodd" clip-rule="evenodd" d="M65.5739 69.7754C67.1412 70.3744 68.6938 71.007 70.2317 71.673C70.5933 73.2022 71.4559 74.3523 72.8194 75.1233C72.9757 75.376 73.2057 75.5485 73.5095 75.6408C74.1764 78.3362 73.1413 79.5726 70.4042 79.3498C69.3611 79.06 68.4985 78.5137 67.8165 77.711C69.8696 77.058 70.5309 75.6779 69.8004 73.5707C68.8577 71.6749 67.3913 70.4673 65.4014 69.9479C65.4014 69.8328 65.4588 69.7754 65.5739 69.7754Z" fill="#FC6C00"/>
<path fill-rule="evenodd" clip-rule="evenodd" d="M46.5982 71.1555C48.1243 72.2686 49.6769 72.2686 51.2561 71.1555C51.7736 71.558 52.2337 72.0181 52.6362 72.5356C50.9478 73.6742 49.9127 75.2268 49.531 77.1935C46.8304 75.9909 45.853 73.9782 46.5982 71.1555Z" fill="#FC6B00"/>
<path fill-rule="evenodd" clip-rule="evenodd" d="M60.0536 71.3291C60.129 71.6006 60.3015 71.802 60.5711 71.9329C61.3279 72.0547 62.0754 72.0261 62.8138 71.8466C62.8138 72.2491 62.8138 72.6518 62.8138 73.0542C62.6813 72.9226 62.595 72.7501 62.555 72.5367C62.3145 72.8624 62.1134 73.2074 61.9512 73.5718C60.7754 73.1943 59.7403 73.4243 58.846 74.2618C59.0232 73.5811 59.052 72.891 58.9323 72.1917C58.8165 72.0619 58.6728 72.0043 58.501 72.0192C59.0061 71.792 59.5236 71.562 60.0536 71.3291Z" fill="#FABA01"/>
<path fill-rule="evenodd" clip-rule="evenodd" d="M70.2314 71.6741C70.5901 71.7553 70.9351 71.8702 71.2665 72.0191C71.324 72.0191 71.3816 72.0191 71.439 72.0191C71.9043 73.316 72.8245 73.8624 74.1992 73.658C74.5315 73.5852 74.704 73.3838 74.7168 73.0542C74.7742 73.0542 74.8318 73.0542 74.8893 73.0542C75.5578 73.3078 76.2478 73.5091 76.9594 73.658C77.1761 73.7299 77.2912 73.8736 77.3045 74.0892C77.1173 74.8231 76.6572 75.3118 75.9244 75.5556C74.8327 75.7526 73.7976 75.6089 72.8191 75.1243C71.4556 74.3534 70.593 73.2032 70.2314 71.6741Z" fill="#FD9102"/>
<path fill-rule="evenodd" clip-rule="evenodd" d="M57.1208 75.4686C56.1334 78.2062 54.1783 79.4426 51.2554 79.1776C50.5671 78.8343 50.1358 78.2879 49.9616 77.5387C49.7899 77.4411 49.6462 77.326 49.5303 77.1937C49.912 75.2271 50.9471 73.6744 52.6355 72.5359C53.2153 72.1895 53.8479 72.0169 54.5331 72.0183C56.7099 72.1826 57.5725 73.3325 57.1208 75.4686Z" fill="#FE9203"/>
<path fill-rule="evenodd" clip-rule="evenodd" d="M71.4395 72.0193C72.5211 72.3905 73.6136 72.7356 74.7172 73.0544C74.7044 73.384 74.5319 73.5854 74.1997 73.6582C72.8249 73.8626 71.9047 73.3162 71.4395 72.0193Z" fill="#775B00"/>
<path fill-rule="evenodd" clip-rule="evenodd" d="M62.8142 73.0534C62.9322 73.5789 63.0185 74.0964 63.073 74.606C62.8227 74.1225 62.4488 73.7775 61.9517 73.571C62.1138 73.2066 62.315 72.8616 62.5555 72.5359C62.5955 72.7493 62.6817 72.9218 62.8142 73.0534Z" fill="#F9E302"/>
<path fill-rule="evenodd" clip-rule="evenodd" d="M65.4016 69.9502C67.3915 70.4696 68.8579 71.6772 69.8006 73.573C70.5311 75.6802 69.8698 77.0603 67.8168 77.7133C67.663 77.608 67.4905 77.5506 67.2992 77.5408C65.8487 77.3291 64.6699 76.639 63.7627 75.4706C63.8172 76.0961 63.9035 76.7287 64.0215 77.3682C63.9283 78.0642 63.8133 78.7542 63.6764 79.4384C62.7193 81.8144 61.1667 82.3033 59.0186 80.9048C58.0391 79.4111 57.7227 77.7723 58.0698 75.9881C58.1828 75.621 58.3267 75.276 58.5011 74.9531C58.6908 74.7624 58.8059 74.5325 58.8461 74.263C59.7404 73.4255 60.7755 73.1955 61.9513 73.573C62.4485 73.7795 62.8223 74.1245 63.0727 74.608C63.0181 74.0984 62.9319 73.5809 62.8139 73.0554C62.8139 72.653 62.8139 72.2503 62.8139 71.8478C63.3428 70.7505 64.2054 70.1181 65.4016 69.9502Z" fill="#FD9203"/>
<path fill-rule="evenodd" clip-rule="evenodd" d="M67.4722 73.7444C67.2264 73.4991 67.0539 73.2115 66.9547 72.8819C66.8538 72.4055 67.0263 72.1181 67.4722 72.0193C68.6201 72.2644 68.9077 72.8682 68.3348 73.8307C68.0303 73.9411 67.7427 73.9123 67.4722 73.7444Z" fill="#FDECB7"/>
<path fill-rule="evenodd" clip-rule="evenodd" d="M66.9539 72.8809C67.0531 73.2106 67.2256 73.4982 67.4714 73.7435C67.7022 75.2668 67.0696 75.8706 65.5738 75.5549C64.5934 75.0352 64.0184 74.2301 63.8486 73.1397C64.0848 72.1294 64.7174 71.7844 65.7463 72.1046C66.2177 72.2606 66.6204 72.5193 66.9539 72.8809Z" fill="#765B00"/>
<path fill-rule="evenodd" clip-rule="evenodd" d="M42.457 62.7041C42.8147 63.694 43.5047 64.3266 44.5272 64.6017C44.3381 65.2768 44.3095 65.9668 44.4409 66.6719C44.7823 67.6188 45.4436 68.1364 46.4248 68.2245C46.18 69.214 46.2375 70.1917 46.5973 71.1572C45.8521 73.9799 46.8295 75.9926 49.5301 77.1952C49.646 77.3275 49.7897 77.4425 49.9613 77.5402C50.1356 78.2894 50.5669 78.8358 51.2552 79.1791C54.1781 79.444 56.1331 78.2076 57.1206 75.47C57.131 75.5637 57.1884 75.6212 57.2931 75.6426C57.7775 75.5401 58.18 75.3101 58.5007 74.9525C58.3263 75.2754 58.1824 75.6205 58.0694 75.9876C57.7223 77.7717 58.0387 79.4106 59.0182 80.9042C61.1664 82.3027 62.719 81.8138 63.6761 79.4378C63.8117 79.8234 64.0991 79.9959 64.5387 79.9554C65.9414 79.7028 66.8614 78.8979 67.2989 77.5402C67.4902 77.55 67.6627 77.6075 67.8164 77.7127C68.4983 78.5154 69.3609 79.0618 70.4041 79.3516C73.1412 79.5743 74.1763 78.3379 73.5093 75.6426C73.2055 75.5503 72.9756 75.3777 72.8193 75.125C73.7978 75.6096 74.8328 75.7533 75.9245 75.5563C76.6573 75.3125 77.1174 74.8238 77.3046 74.0899C77.4492 74.0309 77.5068 73.916 77.4771 73.7449C77.5922 73.7449 77.7071 73.7449 77.8221 73.7449C78.3473 74.0056 78.9224 74.1206 79.5473 74.0899C79.5473 74.1474 79.5473 74.205 79.5473 74.2625C79.0432 74.9699 78.4968 75.66 77.9084 76.3326C71.4155 82.8846 63.7963 84.6384 55.0505 81.5942C47.0459 77.8687 42.8481 71.5719 42.457 62.7041Z" fill="#FABA07"/>
<path fill-rule="evenodd" clip-rule="evenodd" d="M53.8433 73.9166C54.1087 75.0341 53.6486 75.6093 52.4632 75.6417C52.0076 75.0146 52.1227 74.4683 52.8083 74.0028C53.1486 73.9174 53.4937 73.8886 53.8433 73.9166Z" fill="#FAECB9"/>
<path fill-rule="evenodd" clip-rule="evenodd" d="M52.4623 75.6418C53.6477 75.6093 54.1078 75.0342 53.8424 73.9166C55.975 73.5174 56.5788 74.3224 55.6538 76.3318C55.0083 77.1583 54.1743 77.4745 53.1524 77.2806C52.555 76.9097 52.325 76.3636 52.4623 75.6418Z" fill="#775B00"/>
<path fill-rule="evenodd" clip-rule="evenodd" d="M62.814 77.5384C62.3938 77.2767 62.0201 77.3342 61.6927 77.7109C61.607 78.1674 61.5781 78.6275 61.6064 79.091C60.8077 79.0494 60.2614 78.6468 59.9676 77.8834C59.6641 76.7606 59.9229 75.8117 60.7439 75.037C62.4286 74.9719 63.1187 75.8057 62.814 77.5384Z" fill="#775B01"/>
<path fill-rule="evenodd" clip-rule="evenodd" d="M67.299 77.5399C66.8615 78.8976 65.9415 79.7025 64.5388 79.9551C64.0993 79.9956 63.8119 79.8231 63.6763 79.4375C63.8131 78.7533 63.9281 78.0633 64.0213 77.3674C63.9033 76.7279 63.817 76.0953 63.7625 75.4697C64.6698 76.6382 65.8485 77.3282 67.299 77.5399Z" fill="#F9E903"/>
<path fill-rule="evenodd" clip-rule="evenodd" d="M62.8138 77.5396C62.9808 78.0476 63.0094 78.5652 62.9001 79.0922C62.4698 79.5383 62.0385 79.5383 61.6062 79.0922C61.5779 78.6287 61.6067 78.1686 61.6925 77.7121C62.0199 77.3353 62.3936 77.2779 62.8138 77.5396Z" fill="#F8EAB8"/>
</svg>
