<svg width="100" height="100" viewBox="0 0 100 100" fill="none" xmlns="http://www.w3.org/2000/svg">
<path d="M54.1668 11.4583C54.1668 13.1833 52.7668 14.5833 51.0418 14.5833H48.9585C47.2335 14.5833 45.8335 13.1833 45.8335 11.4583V9.375C45.8335 7.65 47.2335 6.25 48.9585 6.25H51.0418C52.7668 6.25 54.1668 7.65 54.1668 9.375V11.4583Z" fill="#546E7A"/>
<path d="M66.6668 55.2095C66.6668 56.9345 65.2668 58.3345 63.5418 58.3345H36.4585C34.7335 58.3345 33.3335 56.9345 33.3335 55.2095V36.4595C33.3335 34.7345 34.7335 33.3345 36.4585 33.3345H63.5418C65.2668 33.3345 66.6668 34.7345 66.6668 36.4595V55.2095Z" fill="#BBDEFB"/>
<path d="M52.0832 33.3345H47.9165V56.2511H52.0832V33.3345Z" fill="#64B5F6"/>
<path d="M66.6668 51.0405C66.6668 49.3155 65.2668 47.9155 63.5418 47.9155H36.4585C34.7335 47.9155 33.3335 49.3155 33.3335 51.0405V76.0405C33.3335 77.7655 34.7335 79.1655 36.4585 79.1655H63.5418C65.2668 79.1655 66.6668 77.7655 66.6668 76.0405V51.0405Z" fill="#5D4037"/>
<path d="M48.9585 64.5811C50.6844 64.5811 52.0835 63.1819 52.0835 61.4561C52.0835 59.7302 50.6844 58.3311 48.9585 58.3311C47.2326 58.3311 45.8335 59.7302 45.8335 61.4561C45.8335 63.1819 47.2326 64.5811 48.9585 64.5811Z" fill="#4E342E"/>
<path d="M61.4585 50C63.1844 50 64.5835 48.6009 64.5835 46.875C64.5835 45.1491 63.1844 43.75 61.4585 43.75C59.7326 43.75 58.3335 45.1491 58.3335 46.875C58.3335 48.6009 59.7326 50 61.4585 50Z" fill="#4E342E"/>
<path d="M40.625 70.8311C42.3509 70.8311 43.75 69.4319 43.75 67.7061C43.75 65.9802 42.3509 64.5811 40.625 64.5811C38.8991 64.5811 37.5 65.9802 37.5 67.7061C37.5 69.4319 38.8991 70.8311 40.625 70.8311Z" fill="#4E342E"/>
<path d="M57.292 75C59.0179 75 60.417 73.6009 60.417 71.875C60.417 70.1491 59.0179 68.75 57.292 68.75C55.5661 68.75 54.167 70.1491 54.167 71.875C54.167 73.6009 55.5661 75 57.292 75Z" fill="#4E342E"/>
<path d="M48.9585 72.9155C50.6844 72.9155 52.0835 71.5164 52.0835 69.7905C52.0835 68.0646 50.6844 66.6655 48.9585 66.6655C47.2326 66.6655 45.8335 68.0646 45.8335 69.7905C45.8335 71.5164 47.2326 72.9155 48.9585 72.9155Z" fill="#4E342E"/>
<path d="M59.375 64.5811C61.1009 64.5811 62.5 63.1819 62.5 61.4561C62.5 59.7302 61.1009 58.3311 59.375 58.3311C57.6491 58.3311 56.25 59.7302 56.25 61.4561C56.25 63.1819 57.6491 64.5811 59.375 64.5811Z" fill="#4E342E"/>
<path d="M36.4585 72.9155C38.1844 72.9155 39.5835 71.5164 39.5835 69.7905C39.5835 68.0646 38.1844 66.6655 36.4585 66.6655C34.7326 66.6655 33.3335 68.0646 33.3335 69.7905C33.3335 71.5164 34.7326 72.9155 36.4585 72.9155Z" fill="#4E342E"/>
<path d="M38.542 47.9155C40.2679 47.9155 41.667 46.5164 41.667 44.7905C41.667 43.0646 40.2679 41.6655 38.542 41.6655C36.8161 41.6655 35.417 43.0646 35.417 44.7905C35.417 46.5164 36.8161 47.9155 38.542 47.9155Z" fill="#4E342E"/>
<path d="M40.625 54.1655C42.3509 54.1655 43.75 52.7664 43.75 51.0405C43.75 49.3146 42.3509 47.9155 40.625 47.9155C38.8991 47.9155 37.5 49.3146 37.5 51.0405C37.5 52.7664 38.8991 54.1655 40.625 54.1655Z" fill="#4E342E"/>
<path d="M42.7083 43.75C42.2979 43.75 41.9062 43.8354 41.5458 43.9792C41.6166 44.2396 41.6666 44.5083 41.6666 44.7917C41.6666 46.1062 40.852 47.225 39.7041 47.6875C40.0624 49.0167 41.2666 50 42.7083 50C44.4333 50 45.8333 48.6 45.8333 46.875C45.8333 45.15 44.4333 43.75 42.7083 43.75Z" fill="#FF5722"/>
<path d="M51.0415 77.0845C52.7674 77.0845 54.1665 75.6854 54.1665 73.9595C54.1665 72.2336 52.7674 70.8345 51.0415 70.8345C49.3156 70.8345 47.9165 72.2336 47.9165 73.9595C47.9165 75.6854 49.3156 77.0845 51.0415 77.0845Z" fill="#FF5722"/>
<path d="M61.4585 58.3345C63.1844 58.3345 64.5835 56.9354 64.5835 55.2095C64.5835 53.4836 63.1844 52.0845 61.4585 52.0845C59.7326 52.0845 58.3335 53.4836 58.3335 55.2095C58.3335 56.9354 59.7326 58.3345 61.4585 58.3345Z" fill="#FF5722"/>
<path d="M42.8789 79.3374C44.6048 79.3374 46.0039 77.9383 46.0039 76.2124C46.0039 74.4865 44.6048 73.0874 42.8789 73.0874C41.153 73.0874 39.7539 74.4865 39.7539 76.2124C39.7539 77.9383 41.153 79.3374 42.8789 79.3374Z" fill="#FF5722"/>
<path d="M40.625 60.4155C42.3509 60.4155 43.75 59.0164 43.75 57.2905C43.75 55.5646 42.3509 54.1655 40.625 54.1655C38.8991 54.1655 37.5 55.5646 37.5 57.2905C37.5 59.0164 38.8991 60.4155 40.625 60.4155Z" fill="#FF5722"/>
<path d="M38.5418 47.9156C37.2272 47.9156 36.1085 47.101 35.646 45.9531C34.3168 46.3115 33.3335 47.5156 33.3335 48.9573C33.3335 50.6823 34.7335 52.0823 36.4585 52.0823C38.1835 52.0823 39.5835 50.6823 39.5835 48.9573C39.5835 48.5469 39.4981 48.1552 39.3543 47.7948C39.0939 47.8656 38.8252 47.9156 38.5418 47.9156Z" fill="#F0F4C3"/>
<path d="M53.125 60.4155C54.8509 60.4155 56.25 59.0164 56.25 57.2905C56.25 55.5646 54.8509 54.1655 53.125 54.1655C51.3991 54.1655 50 55.5646 50 57.2905C50 59.0164 51.3991 60.4155 53.125 60.4155Z" fill="#F0F4C3"/>
<path d="M59.375 79.1655C61.1009 79.1655 62.5 77.7664 62.5 76.0405C62.5 74.3146 61.1009 72.9155 59.375 72.9155C57.6491 72.9155 56.25 74.3146 56.25 76.0405C56.25 77.7664 57.6491 79.1655 59.375 79.1655Z" fill="#F0F4C3"/>
<path d="M36.4585 64.5845C38.1844 64.5845 39.5835 63.1854 39.5835 61.4595C39.5835 59.7336 38.1844 58.3345 36.4585 58.3345C34.7326 58.3345 33.3335 59.7336 33.3335 61.4595C33.3335 63.1854 34.7326 64.5845 36.4585 64.5845Z" fill="#795548"/>
<path d="M44.792 58.3345C46.5179 58.3345 47.917 56.9354 47.917 55.2095C47.917 53.4836 46.5179 52.0845 44.792 52.0845C43.0661 52.0845 41.667 53.4836 41.667 55.2095C41.667 56.9354 43.0661 58.3345 44.792 58.3345Z" fill="#795548"/>
<path d="M55.2085 68.75C56.9344 68.75 58.3335 67.3509 58.3335 65.625C58.3335 63.8991 56.9344 62.5 55.2085 62.5C53.4826 62.5 52.0835 63.8991 52.0835 65.625C52.0835 67.3509 53.4826 68.75 55.2085 68.75Z" fill="#795548"/>
<path d="M61.4585 72.9189C63.1844 72.9189 64.5835 71.5198 64.5835 69.7939C64.5835 68.0681 63.1844 66.6689 61.4585 66.6689C59.7326 66.6689 58.3335 68.0681 58.3335 69.7939C58.3335 71.5198 59.7326 72.9189 61.4585 72.9189Z" fill="#795548"/>
<path d="M55.2085 52.0845C56.9344 52.0845 58.3335 50.6854 58.3335 48.9595C58.3335 47.2336 56.9344 45.8345 55.2085 45.8345C53.4826 45.8345 52.0835 47.2336 52.0835 48.9595C52.0835 50.6854 53.4826 52.0845 55.2085 52.0845Z" fill="#795548"/>
<path d="M44.792 69.7939C46.5179 69.7939 47.917 68.3948 47.917 66.6689C47.917 64.9431 46.5179 63.5439 44.792 63.5439C43.0661 63.5439 41.667 64.9431 41.667 66.6689C41.667 68.3948 43.0661 69.7939 44.792 69.7939Z" fill="#795548"/>
<path d="M48.958 52.0845C50.6839 52.0845 52.083 50.6854 52.083 48.9595C52.083 47.2336 50.6839 45.8345 48.958 45.8345C47.2321 45.8345 45.833 47.2336 45.833 48.9595C45.833 50.6854 47.2321 52.0845 48.958 52.0845Z" fill="#558B2F"/>
<path d="M38.5415 74.6689C40.2674 74.6689 41.6665 73.2698 41.6665 71.5439C41.6665 69.8181 40.2674 68.4189 38.5415 68.4189C36.8156 68.4189 35.4165 69.8181 35.4165 71.5439C35.4165 73.2698 36.8156 74.6689 38.5415 74.6689Z" fill="#558B2F"/>
<path d="M63.5415 66.6689C65.2674 66.6689 66.6665 65.2698 66.6665 63.5439C66.6665 61.8181 65.2674 60.4189 63.5415 60.4189C61.8156 60.4189 60.4165 61.8181 60.4165 63.5439C60.4165 65.2698 61.8156 66.6689 63.5415 66.6689Z" fill="#558B2F"/>
<path d="M63.5415 52.0845C65.2674 52.0845 66.6665 50.6854 66.6665 48.9595C66.6665 47.2336 65.2674 45.8345 63.5415 45.8345C61.8156 45.8345 60.4165 47.2336 60.4165 48.9595C60.4165 50.6854 61.8156 52.0845 63.5415 52.0845Z" fill="#558B2F"/>
<path d="M66.6668 90.6239C66.6668 92.3489 65.2668 93.7489 63.5418 93.7489H36.4585C34.7335 93.7489 33.3335 92.3489 33.3335 90.6239V82.2905C33.3335 80.5655 34.7335 79.1655 36.4585 79.1655H63.5418C65.2668 79.1655 66.6668 80.5655 66.6668 82.2905V90.6239Z" fill="#90A4AE"/>
<path d="M66.6668 25.9241C66.6668 30.0157 63.3502 33.3324 59.2585 33.3324H40.7397C36.6502 33.3324 33.3335 30.0157 33.3335 25.9241C33.3335 21.8345 37.3439 14.5845 50.0002 14.5845C62.6543 14.5845 66.6668 21.8345 66.6668 25.9241Z" fill="#90A4AE"/>
</svg>
