<svg width="100" height="100" viewBox="0 0 100 100" fill="none" xmlns="http://www.w3.org/2000/svg">
<path d="M79.1665 43.7503C79.1665 39.2294 82.7707 35.5711 87.2603 35.4419C86.9957 26.6378 86.604 18.9336 86.604 18.9336C53.1124 21.694 19.3624 28.5398 19.3624 28.5398C14.8811 29.4273 13.9832 30.3148 13.0874 33.8586C13.0874 33.8586 11.2936 40.9482 13.9832 56.0169C16.6728 71.0857 26.5603 77.2919 31.0165 77.2919C31.0165 77.2919 67.5061 80.7273 86.604 78.2961C86.604 78.2961 87.3582 64.0253 87.4832 52.0815C82.8874 52.0711 79.1665 48.3461 79.1665 43.7503Z" fill="#FFE57F"/>
<path d="M31.4063 73.2357L31.2104 73.2169H31.0146C28.9438 73.2169 20.4333 68.7419 18.0354 55.3065C15.5771 41.5294 17.0729 34.8753 17.0813 34.8419C17.3938 33.6023 17.575 33.2919 17.5813 33.2711C17.6771 33.2003 18.1521 32.9294 20.1875 32.5294C20.5063 32.4648 51.2396 26.2711 82.6854 23.3648L86.7958 23.0357C86.6833 20.5169 86.6021 18.9336 86.6021 18.9336C53.1104 21.694 19.3604 28.5398 19.3604 28.5398C14.8792 29.4273 13.9813 30.3148 13.0854 33.8586C13.0854 33.8586 11.2917 40.9482 13.9813 56.0169C16.6708 71.0857 26.5604 77.2919 31.0167 77.2919C31.0167 77.2919 50.9333 79.1669 69.0375 79.1669C75.4375 79.1669 81.6146 78.9315 86.6042 78.2961C86.6042 78.2961 86.6896 76.6586 86.8104 74.0315C81.8104 74.6753 73.4688 75.094 69.0396 75.094C51.3458 75.094 31.6042 73.2544 31.4063 73.2357Z" fill="#FFB300"/>
<path d="M12.7707 35.8228C12.9228 34.5124 13.0853 33.8582 13.0853 33.8582C13.9812 30.3144 14.877 29.4269 19.3603 28.5394C19.3603 28.5394 53.1103 21.6936 86.602 18.9332C86.602 18.9332 58.5687 17.4999 52.477 16.904C46.3853 16.3082 41.0624 16.904 38.0624 17.8374C35.0603 18.7686 25.2749 22.8415 25.2749 22.8415C11.827 28.0353 12.7707 35.8228 12.7707 35.8228Z" fill="#FFA000"/>
<path d="M45.8333 54.1667C50.4357 54.1667 54.1667 50.4357 54.1667 45.8333C54.1667 41.231 50.4357 37.5 45.8333 37.5C41.231 37.5 37.5 41.231 37.5 45.8333C37.5 50.4357 41.231 54.1667 45.8333 54.1667Z" fill="#FFC400"/>
<path d="M68.7507 37.4998C71.0518 37.4998 72.9173 35.6344 72.9173 33.3332C72.9173 31.032 71.0518 29.1665 68.7507 29.1665C66.4495 29.1665 64.584 31.032 64.584 33.3332C64.584 35.6344 66.4495 37.4998 68.7507 37.4998Z" fill="#FFC400"/>
<path d="M34.3753 66.6667C37.2518 66.6667 39.5837 64.3348 39.5837 61.4583C39.5837 58.5819 37.2518 56.25 34.3753 56.25C31.4988 56.25 29.167 58.5819 29.167 61.4583C29.167 64.3348 31.4988 66.6667 34.3753 66.6667Z" fill="#FFC400"/>
<path d="M26.042 47.9165C27.7679 47.9165 29.167 46.5174 29.167 44.7915C29.167 43.0656 27.7679 41.6665 26.042 41.6665C24.3161 41.6665 22.917 43.0656 22.917 44.7915C22.917 46.5174 24.3161 47.9165 26.042 47.9165Z" fill="#FFC400"/>
<path d="M68.75 64.583C72.2018 64.583 75 61.7848 75 58.333C75 54.8812 72.2018 52.083 68.75 52.083C65.2982 52.083 62.5 54.8812 62.5 58.333C62.5 61.7848 65.2982 64.583 68.75 64.583Z" fill="#FFC400"/>
</svg>
