<svg width="100" height="100" viewBox="0 0 100 100" fill="none" xmlns="http://www.w3.org/2000/svg">
<path d="M33.8879 57.0661C31.0179 63.8461 34.0832 66.9127 31.6472 68.6527C29.2119 70.3927 22.9766 63.6328 20.9219 57.5595C18.7252 51.0661 20.5939 46.0528 23.0299 44.3128C25.4659 42.5728 36.5585 50.7528 33.8879 57.0661Z" fill="#DD6B26"/>
<path d="M61.7472 37.1716C69.0939 36.6583 70.9999 40.5583 73.4372 38.8183C75.8726 37.0783 71.4985 28.9849 66.4259 25.0716C60.9999 20.8849 55.6472 21.025 53.2112 22.765C50.7745 24.505 54.9112 37.6516 61.7472 37.1716Z" fill="#DD6B26"/>
<path d="M38.766 37.5982C41.8907 40.6516 43.2047 43.9849 41.1514 47.6849L38.0547 53.2649C36.0013 56.9649 31.7647 57.7182 27.8987 56.6849C25.8634 56.1382 21.7213 54.4249 21.7213 54.4249C18.2347 52.4849 17.4454 48.9849 18.3387 45.3916C18.3387 45.3916 19.1213 42.7382 20.5467 40.1715C21.6527 38.1782 23.0993 36.1715 24.2047 35.0715C26.366 32.9115 30.0054 31.2782 33.492 33.2116C33.492 33.2116 37.578 36.4449 38.766 37.5982Z" fill="#E97D24"/>
<path d="M41.9877 35.2988C43.8557 39.2455 46.5863 41.5722 50.7517 40.8322L57.0356 39.7122C61.201 38.9722 63.291 35.2122 63.5643 31.2188C63.709 29.1188 63.433 24.6455 63.433 24.6455C62.735 20.7122 59.6777 18.8322 55.989 18.5122C55.989 18.5122 53.227 18.3921 50.3337 18.9055C48.0903 19.3055 45.7243 20.0188 44.321 20.7055C41.577 22.0521 38.8516 24.9655 39.551 28.8855C39.551 28.8855 41.2777 33.7988 41.9877 35.2988Z" fill="#E97D24"/>
<path d="M52.9492 31.4388C54.8946 36.5588 54.7513 41.1122 50.5806 44.0922L44.2879 48.5855C40.1172 51.5588 34.9179 49.9388 31.1266 46.6455C29.1279 44.9122 25.3292 40.6589 25.3292 40.6589C22.4152 36.5789 23.2919 32.2122 26.1106 28.7122C26.1106 28.7122 28.3219 26.1855 31.2186 24.1188C33.4646 22.5122 36.0926 21.0789 37.8879 20.4589C41.3999 19.2522 46.3306 19.5122 49.2446 23.5922C49.2446 23.5922 52.2112 29.4921 52.9492 31.4388Z" fill="#F79442"/>
<path d="M47.832 72.059C49.1526 73.899 48.7293 76.4656 46.8853 77.7856C45.0419 79.1056 42.4779 78.6856 41.1559 76.8389C39.8359 74.9989 40.2606 72.4323 42.1026 71.1123C43.9466 69.7923 46.512 70.2123 47.832 72.059Z" fill="#DD6B26"/>
<path d="M48.3869 66.6122C49.7075 68.4522 49.2829 71.0188 47.4402 72.3388C45.5969 73.6588 43.0315 73.2389 41.7115 71.3922C40.3909 69.5522 40.8142 66.9855 42.6575 65.6655C44.5002 64.3455 47.0655 64.7722 48.3869 66.6122Z" fill="#DD6B26"/>
<path d="M49.332 60.8794C50.6526 62.726 50.2293 65.2927 48.3866 66.6127C46.5433 67.9327 43.978 67.506 42.6573 65.666C41.3373 63.8193 41.7606 61.2593 43.604 59.9393C45.4466 58.6126 48.012 59.0394 49.332 60.8794Z" fill="#DD6B26"/>
<path d="M52.0353 55.5454C53.3553 57.392 52.9326 59.9587 51.0886 61.2787C49.246 62.5987 46.6813 62.172 45.3593 60.332C44.0393 58.4854 44.4633 55.9253 46.3059 54.6053C48.1499 53.2787 50.7146 53.7054 52.0353 55.5454Z" fill="#DD6B26"/>
<path d="M56.6526 50.5854C57.9726 52.4321 57.5493 54.9921 55.7059 56.3121C53.8619 57.6388 51.2966 57.2121 49.9766 55.3721C48.656 53.5254 49.0793 50.9587 50.9233 49.6387C52.7673 48.3187 55.332 48.7454 56.6526 50.5854Z" fill="#DD6B26"/>
<path d="M61.5222 47.9252C62.8442 49.7652 62.4195 52.3318 60.5755 53.6518C58.7335 54.9718 56.1682 54.5518 54.8482 52.7051C53.5275 50.8651 53.9509 48.2985 55.7949 46.9785C57.6369 45.6585 60.2022 46.0785 61.5222 47.9252Z" fill="#DD6B26"/>
<path d="M68.0434 46.5122C69.3634 48.3588 68.94 50.9255 67.0967 52.2455C65.254 53.5655 62.6887 53.1388 61.3674 51.2988C60.0467 49.4522 60.4714 46.8855 62.314 45.5655C64.1574 44.2455 66.7227 44.6722 68.0434 46.5122Z" fill="#DD6B26"/>
<path d="M74.1642 48.0052C75.4849 49.8519 75.0602 52.4186 73.2175 53.7386C71.3742 55.0586 68.8089 54.6319 67.4889 52.7852C66.1682 50.9452 66.5915 48.3786 68.4349 47.0586C70.2789 45.7386 72.8442 46.1652 74.1642 48.0052Z" fill="#DD6B26"/>
<path d="M80.739 50.1389C82.0596 51.9789 81.6363 54.5456 79.793 55.8656C77.9503 57.1856 75.3837 56.7589 74.0637 54.9189C72.743 53.0723 73.1676 50.5123 75.0103 49.1923C76.8536 47.8723 79.419 48.2923 80.739 50.1389Z" fill="#DD6B26"/>
<path d="M79.6263 54.6455C83.5777 60.1588 77.181 66.9255 68.0143 73.4922C58.845 80.0655 50.3776 83.9389 46.427 78.4255C42.4763 72.9122 44.5377 60.0922 53.7057 53.5255C62.8737 46.9589 75.6757 49.1255 79.6263 54.6455Z" fill="#F79442"/>
</svg>
