<svg width="100" height="100" viewBox="0 0 100 100" fill="none" xmlns="http://www.w3.org/2000/svg">
<path fill-rule="evenodd" clip-rule="evenodd" d="M92.676 25.8798C72.4528 14.1303 50.9684 11.103 28.2229 16.7978C20.7865 18.9218 13.7553 21.9491 7.12911 25.8798C4.93976 23.14 5.13507 20.5685 7.71505 18.165C30.534 6.4687 54.1668 4.51558 78.6135 12.3056C83.2652 13.8826 87.7574 15.8357 92.09 18.165C94.6156 20.5823 94.811 23.1538 92.676 25.8798Z" fill="#F99F19"/>
<path opacity="0.999" fill-rule="evenodd" clip-rule="evenodd" d="M92.6758 25.88C92.0062 27.7866 90.7041 29.0235 88.7695 29.5909C87.4832 29.7602 86.3113 29.4999 85.2539 28.8097C64.8691 18.8034 43.9707 17.5989 22.5586 25.1964C19.387 26.5218 16.262 27.954 13.1836 29.4932C12.4704 29.5907 11.7542 29.6231 11.0352 29.5909C9.10053 29.0235 7.79846 27.7866 7.12891 25.88C13.7551 21.9493 20.7863 18.922 28.2227 16.7979C50.9682 11.1031 72.4525 14.1305 92.6758 25.88Z" fill="#F57827"/>
<path opacity="0.997" fill-rule="evenodd" clip-rule="evenodd" d="M85.2539 28.8083C85.2041 29.2997 85.0412 29.7555 84.7656 30.1754C73.1691 50.276 61.548 70.3606 49.9023 90.4294C48.6521 90.6838 48.1639 91.4327 48.4375 92.6754C48.6377 93.1026 48.9307 93.4282 49.3164 93.652C48.4771 93.5415 47.7936 93.1508 47.2656 92.4801C44.833 88.1676 42.3266 83.9034 39.7461 79.6872C38.9639 79.4727 38.2803 79.6354 37.6953 80.1754C37.458 81.9215 37.3277 83.6794 37.3047 85.4489C36.4311 87.2032 35.0312 87.8217 33.1055 87.3044C32.2266 86.9463 31.608 86.3278 31.25 85.4489C31.2451 78.2784 31.1148 71.1169 30.8594 63.9645C30.0131 62.9229 29.1666 62.9229 28.3203 63.9645C28.1131 64.8637 27.983 65.7753 27.9297 66.6989C27.0561 68.4532 25.6562 69.0717 23.7305 68.5544C22.8516 68.1963 22.233 67.5778 21.875 66.6989C21.81 60.5139 21.7447 54.3292 21.6797 48.1442C18.1292 41.954 14.581 35.769 11.0352 29.5895C11.7542 29.6217 12.4704 29.5893 13.1836 29.4919C16.262 27.9526 19.387 26.5204 22.5586 25.195C43.9707 17.5975 64.8691 18.802 85.2539 28.8083Z" fill="#FED13C"/>
<path fill-rule="evenodd" clip-rule="evenodd" d="M40.5275 23.3406C42.9725 23.3416 43.9164 24.5134 43.3596 26.8562C41.9857 28.4017 40.6185 28.4017 39.258 26.8562C38.6369 25.3 39.0601 24.1281 40.5275 23.3406Z" fill="#FFFE4F"/>
<path fill-rule="evenodd" clip-rule="evenodd" d="M50.8789 23.3387C52.2966 23.1622 53.0129 23.7807 53.0273 25.1942C52.7127 29.146 50.7595 31.9454 47.1679 33.5926C45.6961 34.2143 44.1986 34.3446 42.6758 33.9833C41.8113 32.9206 41.9416 32.009 43.0664 31.2489C47.4609 31.021 49.772 28.7098 50 24.3153C50.2002 23.8881 50.4931 23.5626 50.8789 23.3387Z" fill="#62AA45"/>
<path fill-rule="evenodd" clip-rule="evenodd" d="M56.543 24.9031C57.7125 24.9351 57.9729 25.4234 57.3242 26.3679C56.1334 26.3966 55.873 25.9083 56.543 24.9031Z" fill="#FFFC4E"/>
<path fill-rule="evenodd" clip-rule="evenodd" d="M40.5271 36.4258C40.0191 36.1369 39.4658 35.9416 38.867 35.8398C38.2027 35.8785 37.747 36.2041 37.4998 36.8164C37.2717 41.2111 34.9605 43.5225 30.5662 43.75C29.9248 44.0227 29.5992 44.5109 29.5896 45.2148C29.6802 45.7846 29.8756 46.3055 30.1756 46.7773C24.1896 45.4873 21.4226 41.7764 21.8748 35.6445C23.8164 29.6123 27.8853 27.2359 34.0818 28.5156C37.7771 29.899 39.9256 32.5357 40.5271 36.4258Z" fill="#F04B37"/>
<path fill-rule="evenodd" clip-rule="evenodd" d="M74.9021 36.4258C74.3941 36.1369 73.8408 35.9416 73.242 35.8398C72.5777 35.8785 72.122 36.2041 71.8748 36.8164C71.6467 41.2111 69.3355 43.5225 64.9412 43.75C64.2998 44.0227 63.9742 44.5109 63.9646 45.2148C64.0552 45.7846 64.2506 46.3055 64.5506 46.7773C58.5646 45.4873 55.7976 41.7764 56.2498 35.6445C58.1914 29.6123 62.2603 27.2359 68.4568 28.5156C72.1521 29.899 74.3006 32.5357 74.9021 36.4258Z" fill="#F04B37"/>
<path fill-rule="evenodd" clip-rule="evenodd" d="M85.2539 28.8093C86.3113 29.4996 87.4832 29.7599 88.7695 29.5906C76.7443 50.5806 64.6676 71.5443 52.539 92.4812C51.7008 93.5019 50.6265 93.8925 49.3164 93.6531C48.9306 93.4293 48.6377 93.1037 48.4375 92.6765C48.1638 91.4337 48.6521 90.6849 49.9023 90.4304C61.548 70.3617 73.1691 50.2771 84.7656 30.1765C85.0412 29.7566 85.2041 29.3007 85.2539 28.8093Z" fill="#FAA11A"/>
<path fill-rule="evenodd" clip-rule="evenodd" d="M16.5039 31.1531C18.5872 31.2513 19.1081 32.1953 18.0664 33.9851C16.293 34.613 15.4792 33.9945 15.625 32.1296C15.8252 31.7025 16.1182 31.3769 16.5039 31.1531Z" fill="#FFFD4F"/>
<path fill-rule="evenodd" clip-rule="evenodd" d="M78.0275 31.1531C80.4725 31.1541 81.4164 32.3259 80.8596 34.6687C79.4857 36.2142 78.1185 36.2142 76.758 34.6687C76.1369 33.1125 76.5601 31.9406 78.0275 31.1531Z" fill="#FFFE4F"/>
<path fill-rule="evenodd" clip-rule="evenodd" d="M40.5273 36.4265C40.6271 41.8255 38.0881 45.2435 32.9102 46.6804C32.001 46.7779 31.0896 46.8105 30.1758 46.7781C29.8758 46.3062 29.6805 45.7853 29.5898 45.2156C29.5994 44.5117 29.925 44.0234 30.5664 43.7507C34.9607 43.5232 37.2719 41.2119 37.5 36.8171C37.7473 36.2048 38.2029 35.8792 38.8672 35.8406C39.466 35.9423 40.0193 36.1376 40.5273 36.4265Z" fill="#E1342D"/>
<path fill-rule="evenodd" clip-rule="evenodd" d="M74.9023 36.4265C75.0021 41.8255 72.4631 45.2435 67.2852 46.6804C66.376 46.7779 65.4646 46.8105 64.5508 46.7781C64.2508 46.3062 64.0555 45.7853 63.9648 45.2156C63.9744 44.5117 64.3 44.0234 64.9414 43.7507C69.3357 43.5232 71.6469 41.2119 71.875 36.8171C72.1223 36.2048 72.5779 35.8792 73.2422 35.8406C73.841 35.9423 74.3943 36.1376 74.9023 36.4265Z" fill="#E1342D"/>
<path fill-rule="evenodd" clip-rule="evenodd" d="M48.7306 35.8408C51.5339 35.5972 53.4544 36.7691 54.4923 39.3564C54.8472 42.2605 53.6429 44.1812 50.879 45.1181C48.063 45.4179 46.2075 44.2134 45.3126 41.5048C45.0526 38.7691 46.1919 36.881 48.7306 35.8408Z" fill="#565B6D"/>
<path fill-rule="evenodd" clip-rule="evenodd" d="M49.3165 38.9654C50.9099 38.8332 51.5935 39.5494 51.3673 41.1138C50.9325 41.9656 50.2489 42.2586 49.3165 41.9928C48.4648 41.558 48.1718 40.8744 48.4376 39.942C48.6378 39.5148 48.9308 39.1892 49.3165 38.9654Z" fill="#F7CC3E"/>
<path fill-rule="evenodd" clip-rule="evenodd" d="M41.8942 46.7766C42.8253 46.7162 43.7368 46.8139 44.6286 47.0695C45.2671 47.7439 45.3648 48.4926 44.9216 49.3156C44.6929 49.5877 44.3999 49.7506 44.0427 49.8039C39.6067 50.2041 37.2954 52.6455 37.1091 57.1281C36.0464 57.9926 35.1349 57.8623 34.3747 56.7375C34.2159 53.4408 35.4202 50.7391 37.988 48.632C39.2357 47.8449 40.5378 47.2264 41.8942 46.7766Z" fill="#62AA45"/>
<path fill-rule="evenodd" clip-rule="evenodd" d="M57.129 48.3406C62.4917 48.463 65.7794 51.1324 66.9923 56.3484C67.2116 57.3125 67.0489 58.1914 66.504 58.9851C65.681 59.4283 64.9323 59.3306 64.2579 58.6921C64.0544 54.1269 61.6782 51.6855 57.129 51.3679C56.2773 50.9332 55.9843 50.2496 56.2501 49.3171C56.4503 48.89 56.7433 48.5644 57.129 48.3406Z" fill="#62AA45"/>
<path fill-rule="evenodd" clip-rule="evenodd" d="M26.8556 48.3408C29.6589 48.0972 31.5794 49.2691 32.6173 51.8564C32.9722 54.7605 31.7679 56.6812 29.004 57.6181C26.188 57.9179 24.3325 56.7134 23.4376 54.0048C23.1776 51.2691 24.3169 49.381 26.8556 48.3408Z" fill="#565B6D"/>
<path fill-rule="evenodd" clip-rule="evenodd" d="M59.2771 58.3008C58.7691 58.0119 58.2158 57.8166 57.617 57.7148C56.9527 57.7535 56.497 58.0791 56.2498 58.6914C56.0217 63.0861 53.7105 65.3975 49.3162 65.625C48.6748 65.8977 48.3492 66.3859 48.3396 67.0898C48.4302 67.6596 48.6256 68.1805 48.9256 68.6523C42.9396 67.3623 40.1726 63.6514 40.6248 57.5195C42.5664 51.4873 46.6353 49.1109 52.8318 50.3906C56.5271 51.774 58.6756 54.4107 59.2771 58.3008Z" fill="#F04B37"/>
<path fill-rule="evenodd" clip-rule="evenodd" d="M27.4415 51.4654C29.0349 51.3332 29.7185 52.0494 29.4923 53.6138C29.0575 54.4656 28.3739 54.7586 27.4415 54.4928C26.5898 54.058 26.2968 53.3744 26.5626 52.442C26.7628 52.0148 27.0558 51.6892 27.4415 51.4654Z" fill="#F7CC3E"/>
<path fill-rule="evenodd" clip-rule="evenodd" d="M59.2773 58.3015C59.3771 63.7005 56.8381 67.1185 51.6602 68.5554C50.751 68.6529 49.8396 68.6855 48.9258 68.6531C48.6258 68.1812 48.4305 67.6603 48.3398 67.0906C48.3494 66.3867 48.675 65.8984 49.3164 65.6257C53.7107 65.3982 56.0219 63.0869 56.25 58.6921C56.4973 58.0798 56.9529 57.7542 57.6172 57.7156C58.216 57.8173 58.7693 58.0126 59.2773 58.3015Z" fill="#E1342D"/>
<path fill-rule="evenodd" clip-rule="evenodd" d="M61.2305 62.4031C62.4 62.4351 62.6604 62.9234 62.0117 63.8679C60.8209 63.8966 60.5605 63.4083 61.2305 62.4031Z" fill="#FFFC4E"/>
<path fill-rule="evenodd" clip-rule="evenodd" d="M36.8164 67.0906C38.8998 67.1888 39.4205 68.1328 38.3789 69.9226C36.6055 70.5505 35.7916 69.932 35.9375 68.0671C36.1377 67.64 36.4307 67.3144 36.8164 67.0906Z" fill="#FFFD4F"/>
<path fill-rule="evenodd" clip-rule="evenodd" d="M52.0508 69.6282C56.8178 69.9208 58.478 72.3295 57.0313 76.8547C55.2526 79.0815 53.0715 79.5698 50.4883 78.3196C48.168 76.4487 47.7447 74.2026 49.2188 71.5813C50.0406 70.7225 50.9848 70.0713 52.0508 69.6282Z" fill="#575B6D"/>
<path fill-rule="evenodd" clip-rule="evenodd" d="M52.6365 72.7532C54.7306 73.1184 55.1212 74.1276 53.8083 75.7805C52.1255 76.1159 51.3769 75.4323 51.5623 73.7297C51.9001 73.3583 52.2582 73.0327 52.6365 72.7532Z" fill="#F9CE3E"/>
<path fill-rule="evenodd" clip-rule="evenodd" d="M39.9415 74.9031C45.3042 75.0255 48.5919 77.6949 49.8048 82.9109C50.0241 83.875 49.8614 84.7539 49.3165 85.5476C48.4935 85.9908 47.7448 85.8931 47.0704 85.2546C46.8669 80.6894 44.4907 78.248 39.9415 77.9304C39.0898 77.4957 38.7968 76.8121 39.0626 75.8796C39.2628 75.4525 39.5558 75.1269 39.9415 74.9031Z" fill="#62AA45"/>
</svg>
