<svg width="100" height="100" viewBox="0 0 100 100" fill="none" xmlns="http://www.w3.org/2000/svg">
<path d="M50 87.5C45.9708 87.5 42.0063 86.0208 38.9229 83.4021C36.7667 84.1625 34.5417 84.55 32.2917 84.55C21.3792 84.55 12.5 75.6708 12.5 64.7562C12.5 51.7937 22.9958 46.4125 31.4292 42.0875C36.9229 39.2729 41.6667 36.8396 41.6667 33.3333V12.5L47.9167 16.6667L52.0833 12.5L58.4188 17.8104V33.3333C58.3062 35.7125 62.7146 38.0375 67.3792 40.4979C75.8708 44.9792 87.5 51.1146 87.5 64.7562C87.5 75.6708 78.6208 84.55 67.7083 84.55C65.6 84.55 63.2104 84.1271 61.0833 83.3958C57.9979 86.0187 54.0312 87.5 50 87.5Z" fill="#CFD8DC"/>
<path d="M17.9021 67.1207C17.8104 66.5978 17.7458 66.0687 17.7 65.5374C17.6875 65.3249 17.6771 64.877 17.6625 64.8603L17.6708 63.777C17.65 62.8499 17.7729 61.6728 17.9521 60.6478C18.3062 58.5416 19.1042 56.5437 20.3396 54.4999C22.7979 50.3749 27.2646 46.6228 31.4271 42.0874C22.9958 46.4124 12.5 51.7937 12.5 64.7562C12.5 75.6707 21.3792 84.5499 32.2917 84.5499C34.5417 84.5499 36.7646 84.1624 38.9229 83.402C26.6125 83.1457 19.2708 75.4395 17.9021 67.1207Z" fill="#B0BEC5"/>
<path d="M78.9934 51.9947C82.2018 56.3156 83.6518 62.3239 82.4643 67.0135C78.658 82.026 62.8726 82.6156 61.2518 82.9031L61.083 83.3947C63.2101 84.126 65.5997 84.5489 67.708 84.5489C78.6205 84.5489 87.4997 75.6697 87.4997 64.7552C87.4997 51.1135 75.8705 44.9781 67.3788 40.4968C72.2351 43.9593 75.8538 47.5718 78.9934 51.9947Z" fill="#90A4AE"/>
<path d="M55.9019 46.0686C61.7019 50.7186 65.6186 57.829 66.954 65.4978C67.2707 67.4144 67.5248 69.3415 67.4144 71.4894C67.2957 73.6353 66.7373 75.7811 65.8082 77.7624C63.9498 81.7394 60.4373 84.9394 56.2811 86.454C54.1832 87.204 52.0436 87.554 49.7769 87.5186C47.6977 87.4665 45.4373 87.0228 43.4436 86.1728C39.4019 84.4894 36.0748 81.1853 34.5019 77.2165C33.704 75.2478 33.2498 73.154 33.2582 71.0832C33.254 70.5623 33.2873 70.0582 33.3269 69.5353L33.4873 68.1103C33.6186 67.1582 33.7728 66.2165 33.9811 65.2894C34.8707 61.5978 36.1873 58.0519 38.1957 54.9207C37.4894 58.5415 37.0311 62.1269 37.029 65.6519C37.0207 66.5311 37.0248 67.404 37.0727 68.2707L37.1686 69.5769C37.2144 69.9623 37.2623 70.3686 37.3415 70.754C37.6373 72.3103 38.1248 73.7936 38.8998 75.1082C40.4519 77.7269 42.8415 79.7103 45.5977 80.6499C46.9915 81.1207 48.3665 81.379 49.929 81.3457C51.2998 81.3374 52.8082 81.0873 54.129 80.5873C56.829 79.6228 59.129 77.6374 60.529 75.0978C61.2394 73.8311 61.7019 72.4186 61.9498 70.9436C62.1519 69.4624 62.1748 67.7353 62.1269 66.0374C61.7873 59.2603 59.6894 52.379 55.9019 46.0686Z" fill="#90A4AE"/>
</svg>
