<svg width="100" height="100" viewBox="0 0 100 100" fill="none" xmlns="http://www.w3.org/2000/svg">
<path d="M58.333 31.25C58.333 31.25 57.2913 29.1667 60.4163 27.0833C70.6247 21.25 78.333 26.0417 83.333 20.8333C82.9163 28.75 79.1663 31.25 79.1663 31.25H58.333ZM52.083 32.7083C46.6663 15.4167 58.7497 8.33333 59.3747 8.125L57.2913 4.375C57.083 4.375 41.6663 13.3333 47.9163 33.9583L52.083 32.7083ZM35.4163 31.25V29.1667C33.7497 17.7083 24.1663 25.2083 14.583 20.8333C15.833 26.4583 20.833 31.25 20.833 31.25H35.4163Z" fill="#388E3C"/>
<path d="M66.6664 33.3345H52.0831C51.4581 31.2511 51.0414 28.5428 50.8331 26.6678C53.5414 22.5011 62.2914 23.1261 68.7498 12.5011C73.7498 23.9595 66.6664 33.3345 66.6664 33.3345ZM47.9164 33.3345C47.9164 33.3345 48.7498 34.7928 47.9164 29.1678C46.2498 17.5011 36.2498 21.8761 31.2498 8.33447C21.0414 24.7928 33.3331 33.3345 33.3331 33.3345H47.9164Z" fill="#4CAF50"/>
<path d="M31.2497 79.1644C37.0026 79.1644 41.6663 74.5007 41.6663 68.7477C41.6663 62.9948 37.0026 58.3311 31.2497 58.3311C25.4967 58.3311 20.833 62.9948 20.833 68.7477C20.833 74.5007 25.4967 79.1644 31.2497 79.1644Z" fill="#FF4081"/>
<path d="M49.9997 81.2489C55.7526 81.2489 60.4163 76.5852 60.4163 70.8322C60.4163 65.0792 55.7526 60.4155 49.9997 60.4155C44.2467 60.4155 39.583 65.0792 39.583 70.8322C39.583 76.5852 44.2467 81.2489 49.9997 81.2489Z" fill="#FF4081"/>
<path d="M68.7497 79.1644C74.5026 79.1644 79.1663 74.5007 79.1663 68.7477C79.1663 62.9948 74.5026 58.3311 68.7497 58.3311C62.9967 58.3311 58.333 62.9948 58.333 68.7477C58.333 74.5007 62.9967 79.1644 68.7497 79.1644Z" fill="#FF4081"/>
<path d="M58.3337 66.6644C64.0866 66.6644 68.7503 62.0007 68.7503 56.2477C68.7503 50.4948 64.0866 45.8311 58.3337 45.8311C52.5807 45.8311 47.917 50.4948 47.917 56.2477C47.917 62.0007 52.5807 66.6644 58.3337 66.6644Z" fill="#FF4081"/>
<path d="M74.9997 64.5833C80.7526 64.5833 85.4163 59.9196 85.4163 54.1667C85.4163 48.4137 80.7526 43.75 74.9997 43.75C69.2467 43.75 64.583 48.4137 64.583 54.1667C64.583 59.9196 69.2467 64.5833 74.9997 64.5833Z" fill="#FF4081"/>
<path d="M24.9997 64.5833C30.7526 64.5833 35.4163 59.9196 35.4163 54.1667C35.4163 48.4137 30.7526 43.75 24.9997 43.75C19.2467 43.75 14.583 48.4137 14.583 54.1667C14.583 59.9196 19.2467 64.5833 24.9997 64.5833Z" fill="#FF4081"/>
<path d="M41.6667 66.6644C47.4196 66.6644 52.0833 62.0007 52.0833 56.2477C52.0833 50.4948 47.4196 45.8311 41.6667 45.8311C35.9137 45.8311 31.25 50.4948 31.25 56.2477C31.25 62.0007 35.9137 66.6644 41.6667 66.6644Z" fill="#FF4081"/>
<path d="M22.9167 49.9989C28.6696 49.9989 33.3333 45.3352 33.3333 39.5822C33.3333 33.8292 28.6696 29.1655 22.9167 29.1655C17.1637 29.1655 12.5 33.8292 12.5 39.5822C12.5 45.3352 17.1637 49.9989 22.9167 49.9989Z" fill="#FF4081"/>
<path d="M77.0837 49.9989C82.8366 49.9989 87.5003 45.3352 87.5003 39.5822C87.5003 33.8292 82.8366 29.1655 77.0837 29.1655C71.3307 29.1655 66.667 33.8292 66.667 39.5822C66.667 45.3352 71.3307 49.9989 77.0837 49.9989Z" fill="#FF4081"/>
<path d="M35.4167 49.9989C41.1696 49.9989 45.8333 45.3352 45.8333 39.5822C45.8333 33.8292 41.1696 29.1655 35.4167 29.1655C29.6637 29.1655 25 33.8292 25 39.5822C25 45.3352 29.6637 49.9989 35.4167 49.9989Z" fill="#FF4081"/>
<path d="M64.5837 49.9989C70.3366 49.9989 75.0003 45.3352 75.0003 39.5822C75.0003 33.8292 70.3366 29.1655 64.5837 29.1655C58.8307 29.1655 54.167 33.8292 54.167 39.5822C54.167 45.3352 58.8307 49.9989 64.5837 49.9989Z" fill="#FF4081"/>
<path d="M49.9997 49.9989C55.7526 49.9989 60.4163 45.3352 60.4163 39.5822C60.4163 33.8292 55.7526 29.1655 49.9997 29.1655C44.2467 29.1655 39.583 33.8292 39.583 39.5822C39.583 45.3352 44.2467 49.9989 49.9997 49.9989Z" fill="#FF4081"/>
<path d="M49.9997 95.8333C55.7526 95.8333 60.4163 91.1696 60.4163 85.4167C60.4163 79.6637 55.7526 75 49.9997 75C44.2467 75 39.583 79.6637 39.583 85.4167C39.583 91.1696 44.2467 95.8333 49.9997 95.8333Z" fill="#FF4081"/>
<path d="M60.4167 89.5833C66.1696 89.5833 70.8333 84.9196 70.8333 79.1667C70.8333 73.4137 66.1696 68.75 60.4167 68.75C54.6637 68.75 50 73.4137 50 79.1667C50 84.9196 54.6637 89.5833 60.4167 89.5833Z" fill="#FF4081"/>
<path d="M39.5837 89.5833C45.3366 89.5833 50.0003 84.9196 50.0003 79.1667C50.0003 73.4137 45.3366 68.75 39.5837 68.75C33.8307 68.75 29.167 73.4137 29.167 79.1667C29.167 84.9196 33.8307 89.5833 39.5837 89.5833Z" fill="#FF4081"/>
<path d="M50.0003 79.1678C49.5837 78.9595 49.3753 78.9595 49.167 78.9595C49.3753 79.1678 49.792 79.1678 50.0003 79.1678Z" fill="#C51162"/>
<path d="M87.5 39.5822C87.5 33.7489 82.9167 29.1655 77.0833 29.1655C80.625 29.1655 83.3333 36.0405 83.3333 39.5822C83.3333 43.1239 80.625 45.8322 77.0833 45.8322C75.8333 45.8322 74.5833 45.4155 73.5417 44.7905C74.375 43.3322 75 41.4572 75 39.5822C75 37.0822 74.1667 34.7905 72.7083 33.1239C73.75 31.0405 75.4167 29.1655 77.0833 29.1655C74.7917 29.1655 72.5 29.9989 70.8333 31.2489C69.1667 29.9989 66.875 29.1655 64.5833 29.1655C68.125 29.1655 70.8333 36.0405 70.8333 39.5822C70.8333 43.1239 68.125 45.8322 64.5833 45.8322C62.5 45.8322 60.8333 44.7905 59.5833 43.3322C60 42.0822 60.4167 40.8322 60.4167 39.5822C60.4167 37.9155 60 36.4572 59.375 34.9989C60.4167 32.0822 62.2917 29.1655 64.5833 29.1655C61.6667 29.1655 59.1667 30.4155 57.2917 32.0822C55.4167 30.4155 52.9167 29.1655 50 29.1655C53.5417 29.1655 56.25 36.0405 56.25 39.5822C56.25 43.1239 53.5417 45.8322 50 45.8322C46.4583 45.8322 43.75 43.1239 43.75 39.5822C43.75 36.0405 46.4583 29.1655 50 29.1655C47.0833 29.1655 44.5833 30.4155 42.7083 32.0822C40.8333 30.4155 38.3333 29.1655 35.4167 29.1655C37.7083 29.1655 39.5833 32.0822 40.625 34.9989C40 36.4572 39.5833 37.9155 39.5833 39.5822C39.5833 40.8322 39.7917 42.2905 40.4167 43.3322C39.1667 44.7905 37.5 45.8322 35.4167 45.8322C31.875 45.8322 29.1667 43.1239 29.1667 39.5822C29.1667 36.0405 31.875 29.1655 35.4167 29.1655C33.125 29.1655 30.8333 29.9989 29.1667 31.2489C27.5 29.9989 25.2083 29.1655 22.9167 29.1655C24.5833 29.1655 26.25 30.8322 27.2917 33.1239C25.8333 34.7905 25 37.0822 25 39.5822C25 41.4572 25.4167 43.1239 26.4583 44.7905C25.4167 45.4155 24.375 45.8322 22.9167 45.8322C19.375 45.8322 16.6667 43.1239 16.6667 39.5822C16.6667 36.0405 19.375 29.1655 22.9167 29.1655C17.0833 29.1655 12.5 33.7489 12.5 39.5822C12.5 42.9155 14.1667 46.0405 16.6667 47.9155C15.4167 49.5822 14.5833 51.8739 14.5833 54.1655C14.5833 58.7489 17.7083 62.7072 21.875 64.1655C21.25 65.4155 20.8333 67.0822 20.8333 68.7489C20.8333 73.7489 24.375 77.9155 29.1667 78.9572V79.1655C29.1667 84.9989 33.75 89.5822 39.5833 89.5822C39.7917 89.5822 40.2083 89.5822 40.4167 89.5822C42.0833 93.3322 45.625 95.8322 50 95.8322C54.375 95.8322 57.9167 93.1239 59.5833 89.5822C59.7917 89.5822 60.2083 89.5822 60.4167 89.5822C66.25 89.5822 70.8333 84.9989 70.8333 79.1655V78.9572C75.625 77.9155 79.1667 73.7489 79.1667 68.7489C79.1667 67.0822 78.75 65.4155 77.9167 64.1655C82.2917 62.9155 85.4167 58.9572 85.4167 54.1655C85.4167 51.8739 84.5833 49.5822 83.3333 47.9155C85.8333 46.0405 87.5 42.9155 87.5 39.5822ZM54.375 48.9572C55.4167 48.5405 56.4583 47.7072 57.2917 46.8739C58.75 48.3322 60.625 49.3739 62.7083 49.7905C63.75 51.8739 64.5833 54.5822 64.5833 56.2489C64.5833 59.7905 61.875 62.4989 58.3333 62.4989C54.7917 62.4989 52.0833 59.7905 52.0833 56.2489C52.0833 54.3739 52.9167 51.2489 54.375 48.9572ZM50 62.4989C51.25 64.1655 53.125 65.6239 55.2083 66.2489C55.8333 67.9155 56.25 69.5822 56.25 71.0405C56.25 74.5822 53.5417 77.2905 50 77.2905C46.4583 77.2905 43.75 74.5822 43.75 71.0405C43.75 69.7905 44.1667 68.1239 44.7917 66.2489C46.875 65.4155 48.75 64.1655 50 62.4989ZM37.2917 49.7905C39.375 49.3739 41.25 48.3322 42.7083 46.8739C43.5417 47.7072 44.5833 48.3322 45.625 48.9572C47.0833 51.2489 47.9167 54.1655 47.9167 56.2489C47.9167 59.7905 45.2083 62.4989 41.6667 62.4989C38.125 62.4989 35.4167 59.7905 35.4167 56.2489C35.4167 54.5822 36.0417 52.0822 37.2917 49.7905ZM18.75 54.1655C18.75 52.9155 19.1667 51.2489 19.7917 49.3739C20.8333 49.7905 21.875 49.9989 22.9167 49.9989C25.2083 49.9989 27.5 49.1655 29.1667 47.9155C29.375 48.1239 29.5833 48.1239 29.7917 48.3322C30.8333 50.4155 31.25 52.7072 31.25 54.1655C31.25 57.7072 28.5417 60.4155 25 60.4155C21.4583 60.4155 18.75 57.7072 18.75 54.1655ZM31.25 74.9989C27.7083 74.9989 25 72.2905 25 68.7489C25 67.4989 25.4167 66.0405 25.8333 64.5822C28.5417 64.3739 30.8333 63.1239 32.5 61.2489C33.5417 63.1239 35 64.5822 36.875 65.4155C37.2917 66.6655 37.5 67.9155 37.5 68.7489C37.5 72.2905 34.7917 74.9989 31.25 74.9989ZM33.3333 79.1655V78.9572C36.25 78.3322 38.5417 76.6655 40 74.1655C40.4167 75.2072 40.8333 76.2489 41.6667 77.0822L44.375 79.5822C44.7917 79.7905 45.2083 79.9989 45.625 80.2072C45.2083 83.1239 42.7083 85.4155 39.5833 85.4155C36.0417 85.4155 33.3333 82.7072 33.3333 79.1655ZM50 91.6655C47.7083 91.6655 45.625 90.2072 44.5833 88.3322C47.2917 86.8739 49.1667 84.3739 49.7917 81.2489H50H50.2083C50.8333 84.3739 52.9167 86.8739 55.4167 88.3322C54.375 90.2072 52.2917 91.6655 50 91.6655ZM60.4167 85.4155C57.2917 85.4155 54.7917 83.1239 54.375 80.2072C54.7917 79.9989 55.2083 79.7905 55.625 79.5822L58.3333 77.0822C58.9583 76.2489 59.5833 75.2072 60 74.1655C61.4583 76.4572 63.75 78.3322 66.6667 78.9572H66.875V79.1655C66.6667 82.7072 63.9583 85.4155 60.4167 85.4155ZM68.75 74.9989C65.2083 74.9989 62.5 72.2905 62.5 68.7489C62.5 67.9155 62.7083 66.6655 63.125 65.4155C65 64.3739 66.4583 62.9155 67.5 61.2489C69.1667 63.1239 71.6667 64.1655 74.1667 64.5822C74.7917 66.0405 75 67.7072 75 68.7489C75 72.2905 72.2917 74.9989 68.75 74.9989ZM75 60.4155C71.4583 60.4155 68.75 57.7072 68.75 54.1655C68.75 52.4989 69.375 50.4155 70.2083 48.3322C70.4167 48.1239 70.625 48.1239 70.8333 47.9155C72.5 49.1655 74.7917 49.9989 77.0833 49.9989C78.125 49.9989 79.1667 49.7905 80.2083 49.3739C80.8333 51.0405 81.25 52.7072 81.25 54.1655C81.25 57.7072 78.5417 60.4155 75 60.4155Z" fill="#C51162"/>
</svg>
