<svg width="100" height="100" viewBox="0 0 100 100" fill="none" xmlns="http://www.w3.org/2000/svg">
<path d="M50 87.5011L12.5 72.9178V27.0845L50 41.6678V87.5011Z" fill="#BBDEFB"/>
<path d="M50 87.5011L87.5 72.9178V27.0845L50 41.6678V87.5011Z" fill="#2196F3"/>
<path d="M12.5 27.0833L50 12.5L87.5 27.0833L50 41.6667L12.5 27.0833Z" fill="#90CAF9"/>
<path d="M20.8333 68.7511C21.9839 68.7511 22.9167 67.8184 22.9167 66.6678C22.9167 65.5172 21.9839 64.5845 20.8333 64.5845C19.6827 64.5845 18.75 65.5172 18.75 66.6678C18.75 67.8184 19.6827 68.7511 20.8333 68.7511Z" fill="white"/>
<path d="M20.8333 47.9167C21.9839 47.9167 22.9167 46.9839 22.9167 45.8333C22.9167 44.6827 21.9839 43.75 20.8333 43.75C19.6827 43.75 18.75 44.6827 18.75 45.8333C18.75 46.9839 19.6827 47.9167 20.8333 47.9167Z" fill="white"/>
<path d="M27.0833 62.5011C28.2339 62.5011 29.1667 61.5684 29.1667 60.4178C29.1667 59.2672 28.2339 58.3345 27.0833 58.3345C25.9327 58.3345 25 59.2672 25 60.4178C25 61.5684 25.9327 62.5011 27.0833 62.5011Z" fill="white"/>
</svg>
