<svg width="100" height="100" viewBox="0 0 100 100" fill="none" xmlns="http://www.w3.org/2000/svg">
<path d="M40.625 91.6698C56.158 91.6698 68.75 75.3469 68.75 55.2115C68.75 35.0761 56.158 18.7532 40.625 18.7532C25.092 18.7532 12.5 35.0761 12.5 55.2115C12.5 75.3469 25.092 91.6698 40.625 91.6698Z" fill="#FF5252"/>
<path d="M31.2503 55.2103C31.2503 54.0645 31.8586 29.7749 49.9774 20.8812C49.9857 20.877 49.9919 20.8728 50.0003 20.8687C48.2586 20.0707 46.444 19.4916 44.5649 19.1499C34.1961 25.9187 27.2836 36.927 27.7794 52.6041C28.1336 63.8103 32.2961 71.8624 37.1273 77.4541C33.4565 71.2957 31.2503 63.5937 31.2503 55.2103Z" fill="#D50000"/>
<path d="M40.3291 28.4384C39.2145 28.6009 38.0395 28.703 36.8082 28.703C33.0728 28.703 28.8874 27.8071 24.7249 25.1467C23.5207 26.2217 22.3957 27.428 21.3374 28.7238C26.4082 32.9051 31.5457 34.9113 35.8166 35.328C37.0957 32.7905 38.6166 30.4863 40.3291 28.4384Z" fill="#D50000"/>
<path d="M50 25.1175C50 25.1175 45.7021 1.3904 12.5 10.4175C27.0833 39.5842 50 25.1175 50 25.1175Z" fill="#4CAF50"/>
<path d="M47.9167 25.0006C35.4167 10.4172 12.5 10.4172 12.5 10.4172L47.9167 25.0006Z" fill="#4CAF50"/>
<path d="M46.3542 26.3774C42.5854 21.4358 37.2625 17.7253 31.3667 15.1441C28.4188 13.8482 25.3292 12.8212 22.1688 12.0295C19.0062 11.2483 15.775 10.6628 12.5 10.417C15.7854 10.3149 19.0875 10.5566 22.3667 11.0066C25.6438 11.4691 28.9063 12.1795 32.1 13.1941C35.2896 14.2108 38.4167 15.5378 41.3667 17.2587C44.3083 18.967 47.1063 21.1253 49.4792 23.6233L46.3542 26.3774Z" fill="#2E7D32"/>
<path d="M43.75 12.5032C43.75 12.5032 50 16.6698 50 22.9198" stroke="#795548" stroke-width="22" stroke-linecap="round"/>
<path d="M59.375 91.6698C74.908 91.6698 87.5 75.3469 87.5 55.2115C87.5 35.0761 74.908 18.7532 59.375 18.7532C43.842 18.7532 31.25 35.0761 31.25 55.2115C31.25 75.3469 43.842 91.6698 59.375 91.6698Z" fill="#FF9E80"/>
</svg>
