<svg width="100" height="100" viewBox="0 0 100 100" fill="none" xmlns="http://www.w3.org/2000/svg">
<path opacity="0.992" fill-rule="evenodd" clip-rule="evenodd" d="M81.543 35.2538C79.3939 34.0423 77.2129 33.9773 75 35.0585C74.2057 31.5615 72.0248 29.7386 68.457 29.5898C69.5672 24.3322 70.6414 19.0587 71.6797 13.7695C72.0227 12.507 72.8365 12.0838 74.1211 12.4999C81.241 17.7989 88.2396 23.2351 95.1172 28.8085C95.4938 29.9763 95.1357 30.7902 94.043 31.2499C89.8346 32.5285 85.668 33.863 81.543 35.2538Z" fill="#F99F19"/>
<path fill-rule="evenodd" clip-rule="evenodd" d="M79.0039 21.7773C81.0873 21.8756 81.608 22.8195 80.5664 24.6094C78.793 25.2373 77.9791 24.6188 78.125 22.7539C78.3252 22.3268 78.6182 22.0012 79.0039 21.7773Z" fill="#F06622"/>
<path fill-rule="evenodd" clip-rule="evenodd" d="M73.7305 23.3398C74.9 23.3719 75.1604 23.8602 74.5117 24.8047C73.3209 24.8334 73.0605 24.3451 73.7305 23.3398Z" fill="#F06722"/>
<path fill-rule="evenodd" clip-rule="evenodd" d="M55.762 28.8086C56.5134 31.4314 55.9927 33.7752 54.1995 35.8398C56.7712 38.9461 56.7712 42.0711 54.1995 45.2148C55.4956 46.5053 56.1466 48.0678 56.1526 49.9023C39.6813 49.9023 23.2098 49.9023 6.73856 49.9023C5.5875 46.9664 6.04322 44.3297 8.10574 41.9922C10.3433 40.399 12.7522 40.106 15.3323 41.1133C15.6884 36.1176 18.3577 33.8715 23.3401 34.375C23.8032 34.5185 24.2591 34.6812 24.7073 34.8633C25.8595 30.8172 28.5286 29.092 32.7151 29.6875C33.5704 29.8873 34.3516 30.2453 35.0589 30.7617C37.4667 27.8857 40.3964 27.2348 43.8479 28.8086C46.0956 24.9238 49.2858 23.9146 53.4182 25.7812C54.5056 26.5576 55.2868 27.5668 55.762 28.8086Z" fill="#90C73C"/>
<path opacity="0.997" fill-rule="evenodd" clip-rule="evenodd" d="M68.457 29.5896C72.0248 29.7384 74.2057 31.5612 75 35.0583C77.2129 33.9771 79.3939 34.0421 81.543 35.2536C83.5459 36.6554 84.5225 38.6085 84.4727 41.113C87.3459 39.9704 89.9176 40.4263 92.1875 42.4802C93.7889 44.7843 94.0818 47.2581 93.0664 49.9021C82.1289 49.9021 71.1914 49.9021 60.2539 49.9021C58.8867 49.9021 57.5195 49.9021 56.1523 49.9021C56.1463 48.0675 55.4953 46.505 54.1992 45.2146C56.7709 42.0708 56.7709 38.9458 54.1992 35.8396C55.9924 33.7749 56.5131 31.4312 55.7617 28.8083C59.2721 27.2257 62.2668 27.8767 64.7461 30.7614C65.8373 29.9188 67.0742 29.5282 68.457 29.5896Z" fill="#5FAA45"/>
<path fill-rule="evenodd" clip-rule="evenodd" d="M86.2305 29.5898C87.4 29.6219 87.6604 30.1102 87.0117 31.0547C85.8209 31.0834 85.5605 30.5951 86.2305 29.5898Z" fill="#F06722"/>
<path fill-rule="evenodd" clip-rule="evenodd" d="M43.0665 34.2772C44.6599 34.1449 45.3435 34.8612 45.1173 36.4256C44.6825 37.2774 43.9989 37.5703 43.0665 37.3045C42.2148 36.8698 41.9218 36.1862 42.1876 35.2537C42.3878 34.8266 42.6808 34.501 43.0665 34.2772Z" fill="#EC5137"/>
<path fill-rule="evenodd" clip-rule="evenodd" d="M36.2305 35.8398C37.4 35.8719 37.6604 36.3602 37.0117 37.3047C35.8209 37.3334 35.5605 36.8451 36.2305 35.8398Z" fill="#81528A"/>
<path fill-rule="evenodd" clip-rule="evenodd" d="M62.793 35.8398C63.9625 35.8719 64.2229 36.3602 63.5742 37.3047C62.3834 37.3334 62.123 36.8451 62.793 35.8398Z" fill="#DA3A2E"/>
<path fill-rule="evenodd" clip-rule="evenodd" d="M29.004 40.5272C30.5974 40.3949 31.281 41.1112 31.0548 42.6756C30.62 43.5274 29.9364 43.8203 29.004 43.5545C28.1523 43.1198 27.8593 42.4362 28.1251 41.5037C28.3253 41.0766 28.6183 40.751 29.004 40.5272Z" fill="#EC5137"/>
<path fill-rule="evenodd" clip-rule="evenodd" d="M75.293 42.0898C76.4625 42.1219 76.7229 42.6102 76.0742 43.5547C74.8834 43.5834 74.623 43.0951 75.293 42.0898Z" fill="#643D70"/>
<path fill-rule="evenodd" clip-rule="evenodd" d="M23.7305 43.6523C24.9 43.6844 25.1604 44.1727 24.5117 45.1172C23.3209 45.1459 23.0605 44.6576 23.7305 43.6523Z" fill="#81528A"/>
<path fill-rule="evenodd" clip-rule="evenodd" d="M47.7539 43.6523C49.8373 43.7506 50.358 44.6945 49.3164 46.4844C47.543 47.1123 46.7291 46.4938 46.875 44.6289C47.0752 44.2018 47.3682 43.8762 47.7539 43.6523Z" fill="#814F8C"/>
<path fill-rule="evenodd" clip-rule="evenodd" d="M69.629 43.6522C71.2224 43.5199 71.906 44.2362 71.6798 45.8006C71.245 46.6524 70.5614 46.9453 69.629 46.6795C68.7773 46.2448 68.4843 45.5612 68.7501 44.6287C68.9503 44.2016 69.2433 43.876 69.629 43.6522Z" fill="#DB392D"/>
<path fill-rule="evenodd" clip-rule="evenodd" d="M6.73803 49.902C23.2093 49.902 39.6808 49.902 56.1521 49.902C57.5193 49.902 58.8865 49.902 60.2537 49.902C61.1605 50.3862 61.8441 51.1022 62.3044 52.0504C62.2701 63.1456 57.2896 71.1208 47.363 75.9762C44.7917 77.0258 42.1226 77.677 39.3552 77.9293C35.5798 78.027 31.8037 78.0596 28.0271 78.027C17.0191 77.6188 9.23919 72.4106 4.68725 62.402C3.32831 59.009 2.80747 55.4934 3.12475 51.8551C3.83479 50.3116 5.03923 49.6606 6.73803 49.902Z" fill="#54596D"/>
<path opacity="0.998" fill-rule="evenodd" clip-rule="evenodd" d="M60.2539 49.902C71.1914 49.902 82.1289 49.902 93.0664 49.902C94.7652 49.6606 95.9697 50.3116 96.6796 51.8551C96.9011 62.7752 92.181 70.7506 82.5195 75.7809C79.1128 77.3651 75.5322 78.1137 71.7773 78.027C71.8097 79.4608 71.7773 80.893 71.6796 82.3239C71.3216 83.2028 70.7031 83.8213 69.8242 84.1793C56.5429 84.3096 43.2617 84.3096 29.9804 84.1793C29.1015 83.8213 28.483 83.2028 28.1249 82.3239C28.0273 80.893 27.9949 79.4608 28.0273 78.027C31.8039 78.0596 35.58 78.027 39.3554 77.9293C42.1228 77.677 44.7919 77.0258 47.3632 75.9762C57.2898 71.1208 62.2703 63.1456 62.3046 52.0504C61.8443 51.1022 61.1607 50.3862 60.2539 49.902Z" fill="#463C4B"/>
<path fill-rule="evenodd" clip-rule="evenodd" d="M19.4336 58.3013C21.3006 58.115 21.9842 58.8962 21.4844 60.6451C20.4127 61.7453 19.5013 61.615 18.7501 60.2545C18.5903 59.4671 18.8182 58.8162 19.4336 58.3013Z" fill="#463C4B"/>
<path fill-rule="evenodd" clip-rule="evenodd" d="M81.9339 62.207C83.4051 62.2127 84.0887 62.9289 83.9846 64.3555C83.4883 65.2479 82.7395 65.5408 81.7385 65.2344C80.6573 64.1414 80.7223 63.1322 81.9339 62.207Z" fill="#54586C"/>
<path fill-rule="evenodd" clip-rule="evenodd" d="M37.7929 70.8007C39.3859 70.6681 40.0695 71.3843 39.8437 72.9491C38.8027 74.2794 37.8261 74.2142 36.914 72.7538C36.8043 71.9202 37.0972 71.2691 37.7929 70.8007Z" fill="#463D4C"/>
</svg>
