<svg width="100" height="100" viewBox="0 0 100 100" fill="none" xmlns="http://www.w3.org/2000/svg">
<path opacity="0.984" fill-rule="evenodd" clip-rule="evenodd" d="M88.3789 11.4252C86.8814 12.8575 85.3842 14.2898 83.8867 15.7221C82.2035 14.5153 80.3805 14.2549 78.418 14.9408C78.0873 14.4155 77.6314 14.0249 77.0508 13.769C74.6354 11.9368 71.901 11.2532 68.8477 11.7182C65.991 12.2323 63.7125 13.6321 62.0117 15.9174C61.4838 15.5891 60.9631 15.2636 60.4492 14.9408C62.7535 12.5388 65.0973 10.1625 67.4805 7.81192C69.0287 6.83419 70.4936 6.93184 71.875 8.10489C73.5092 5.69389 75.6902 5.0103 78.418 6.05411C79.6809 6.7951 80.4945 7.86932 80.8594 9.27676C82.16 9.53356 83.1365 10.2497 83.7891 11.4252C84.9082 10.4321 86.1777 10.2042 87.5977 10.7416C87.9539 10.8705 88.2143 11.0984 88.3789 11.4252Z" fill="#5FA945"/>
<path fill-rule="evenodd" clip-rule="evenodd" d="M77.0508 13.7691C75.4131 13.1451 73.8506 13.3079 72.3633 14.2574C71.5312 15.1886 70.6197 16.0024 69.6289 16.6988C67.4764 16.2899 65.3932 16.4852 63.3789 17.2847C62.858 16.8941 62.4023 16.4384 62.0117 15.9175C63.7125 13.6323 65.991 12.2325 68.8477 11.7183C71.901 11.2533 74.6354 11.9369 77.0508 13.7691Z" fill="#E1372E"/>
<path opacity="0.994" fill-rule="evenodd" clip-rule="evenodd" d="M88.3789 11.4258C89.0596 11.9979 89.3852 12.7466 89.3555 13.6719C89.3715 14.6018 89.0459 15.3831 88.3789 16.0156C89.5572 16.6704 90.2732 17.6469 90.5273 18.9453C93.2311 19.8281 94.4355 21.6836 94.1406 24.5117C93.858 26.0311 93.0443 27.1705 91.6992 27.9297C92.8723 29.3111 92.9699 30.776 91.9922 32.3242C89.6416 34.7074 87.2652 37.0512 84.8633 39.3555C84.5404 38.8416 84.215 38.3209 83.8867 37.793C87.5627 34.807 88.8973 30.966 87.8906 26.2695C87.5209 24.9434 86.9025 23.7715 86.0352 22.7539C85.7896 22.1822 85.399 21.7264 84.8633 21.3867C85.635 19.2962 85.3096 17.4082 83.8867 15.7227C85.3842 14.2904 86.8814 12.8581 88.3789 11.4258Z" fill="#90C63C"/>
<path fill-rule="evenodd" clip-rule="evenodd" d="M77.0508 13.7696C77.6314 14.0255 78.0873 14.4161 78.418 14.9415C75.8842 17.3451 73.4102 19.819 70.9961 22.3634C69.7152 22.0612 68.4131 21.9309 67.0898 21.9727C66.767 21.4589 66.4416 20.9382 66.1133 20.4102C66.4389 20.2149 66.6992 19.9546 66.8945 19.629C67.948 18.7712 68.8596 17.7946 69.6289 16.6993C70.6197 16.0029 71.5312 15.1891 72.3633 14.2579C73.8506 13.3084 75.4131 13.1456 77.0508 13.7696Z" fill="#8D3D14"/>
<path fill-rule="evenodd" clip-rule="evenodd" d="M83.8867 15.723C85.3096 17.4085 85.635 19.2965 84.8633 21.387C82.4598 23.8558 80.051 26.3298 77.6367 28.8089C76.4531 25.6071 74.2396 23.4587 70.9961 22.3636C73.4102 19.8192 75.8842 17.3453 78.418 14.9417C80.3805 14.2558 82.2035 14.5162 83.8867 15.723Z" fill="#D16E28"/>
<path opacity="0.995" fill-rule="evenodd" clip-rule="evenodd" d="M60.449 14.9414C60.9629 15.2641 61.4836 15.5897 62.0115 15.9179C62.4022 16.4388 62.8578 16.8945 63.3787 17.2851C64.1655 18.1365 64.9467 18.9829 65.7225 19.8242C65.7082 20.1224 65.8385 20.3177 66.1131 20.4101C66.4414 20.938 66.7668 21.4587 67.0897 21.9726C67.6198 22.9752 68.0754 24.0169 68.4569 25.0976C69.0574 26.799 69.383 28.5568 69.4334 30.371C69.6405 35.5777 68.0453 40.1349 64.6483 44.0429C50.4489 58.275 36.2235 72.4677 21.9725 86.621C16.7058 81.4521 11.4649 76.2437 6.24983 70.996C5.42229 69.7328 5.35717 68.4306 6.05452 67.0898C23.2746 49.8697 40.4946 32.6498 57.7147 15.4296C58.5709 14.9984 59.4824 14.8357 60.449 14.9414Z" fill="#FED13B"/>
<path fill-rule="evenodd" clip-rule="evenodd" d="M69.6289 16.6988C68.8596 17.7941 67.948 18.7707 66.8945 19.6285C66.4803 19.5943 66.0896 19.6595 65.7227 19.8238C64.9469 18.9825 64.1656 18.1361 63.3789 17.2847C65.3932 16.4852 67.4764 16.2898 69.6289 16.6988Z" fill="#D6E0E8"/>
<path fill-rule="evenodd" clip-rule="evenodd" d="M80.9567 18.8481C82.2757 18.5106 83.0569 18.9988 83.3005 20.313C83.0091 21.5665 82.2278 22.0221 80.9567 21.6801C79.922 20.7215 79.922 19.7774 80.9567 18.8481Z" fill="#8D3D14"/>
<path fill-rule="evenodd" clip-rule="evenodd" d="M66.8946 19.6289C66.6993 19.9545 66.4389 20.2149 66.1134 20.4102C65.8388 20.3178 65.7085 20.1225 65.7227 19.8242C66.0897 19.66 66.4804 19.5948 66.8946 19.6289Z" fill="#E75339"/>
<path fill-rule="evenodd" clip-rule="evenodd" d="M84.8633 21.3867C85.399 21.7264 85.7896 22.1822 86.0352 22.7539C86.6592 24.3916 86.4963 25.9541 85.5469 27.4414C84.6156 28.2734 83.802 29.185 83.1055 30.1758C82.0102 30.9451 81.0336 31.8566 80.1758 32.9102C79.8502 33.1055 79.5898 33.3658 79.3945 33.6914C78.8666 33.3631 78.3459 33.0377 77.832 32.7148C77.8641 31.4059 77.799 30.1037 77.6367 28.8086C80.051 26.3295 82.4598 23.8555 84.8633 21.3867Z" fill="#8D3C14"/>
<path fill-rule="evenodd" clip-rule="evenodd" d="M75.6837 21.7778C76.8954 21.7414 77.1558 22.2297 76.465 23.2426C75.5142 23.1862 75.2538 22.6979 75.6837 21.7778Z" fill="#8F3E15"/>
<path fill-rule="evenodd" clip-rule="evenodd" d="M67.0898 21.9725C68.4131 21.9307 69.7152 22.0609 70.9961 22.3631C74.2396 23.4582 76.4531 25.6066 77.6367 28.8084C77.799 30.1035 77.8641 31.4057 77.832 32.7146C76.8285 32.1844 75.7867 31.7285 74.707 31.3475C74.7693 30.1682 74.4439 29.1266 73.7305 28.2225C73.6182 27.8492 73.4229 27.5236 73.1445 27.2459C71.8898 25.9031 70.3273 25.1869 68.457 25.0975C68.0756 24.0168 67.6199 22.975 67.0898 21.9725Z" fill="#D6E3EB"/>
<path fill-rule="evenodd" clip-rule="evenodd" d="M86.0352 22.7539C86.9025 23.7715 87.5209 24.9434 87.8906 26.2695C88.8973 30.966 87.5627 34.807 83.8867 37.793C83.3658 37.4023 82.9102 36.9467 82.5195 36.4258C83.3012 34.4008 83.4965 32.3176 83.1055 30.1758C83.802 29.185 84.6156 28.2734 85.5469 27.4414C86.4963 25.9541 86.6592 24.3916 86.0352 22.7539Z" fill="#E1382E"/>
<path fill-rule="evenodd" clip-rule="evenodd" d="M68.457 25.0977C70.3273 25.1871 71.8898 25.9033 73.1445 27.2461C72.3658 27.2758 72.0729 27.6664 72.2656 28.418C72.8484 28.9631 73.3367 28.898 73.7305 28.2227C74.4439 29.1268 74.7693 30.1684 74.707 31.3477C73.0115 30.6961 71.2537 30.3705 69.4336 30.3711C69.3832 28.5568 69.0576 26.799 68.457 25.0977Z" fill="#D26F29"/>
<path fill-rule="evenodd" clip-rule="evenodd" d="M57.91 26.4649C59.1649 26.2762 59.8811 26.7971 60.0584 28.0274C59.9829 29.0469 59.4293 29.5678 58.3983 29.5899C57.2057 29.3547 56.75 28.6385 57.0311 27.4414C57.2379 27.0198 57.5309 26.6942 57.91 26.4649Z" fill="#FAA21A"/>
<path fill-rule="evenodd" clip-rule="evenodd" d="M73.1443 27.2461C73.4226 27.5238 73.6179 27.8494 73.7302 28.2227C73.3365 28.898 72.8482 28.9631 72.2654 28.418C72.0726 27.6664 72.3656 27.2758 73.1443 27.2461Z" fill="#8F3F16"/>
<path fill-rule="evenodd" clip-rule="evenodd" d="M52.6367 29.3945C53.7148 29.5008 53.9754 29.9891 53.4179 30.8594C52.1879 30.9561 51.9273 30.4678 52.6367 29.3945Z" fill="#FAA41B"/>
<path opacity="0.999" fill-rule="evenodd" clip-rule="evenodd" d="M69.4336 30.3711C71.2537 30.3705 73.0115 30.6961 74.707 31.3477C75.7867 31.7287 76.8285 32.1846 77.832 32.7148C78.3459 33.0377 78.8666 33.3631 79.3945 33.6914C79.4869 33.966 79.6822 34.0963 79.9805 34.082C80.8217 34.8578 81.6682 35.6391 82.5195 36.4258C82.9102 36.9467 83.3658 37.4023 83.8867 37.793C84.215 38.3209 84.5404 38.8416 84.8633 39.3555C84.9689 40.3221 84.8062 41.2336 84.375 42.0898C67.1549 59.31 49.935 76.5299 32.7148 93.75C31.3803 94.4299 30.0781 94.3647 28.8086 93.5547C26.4904 91.2691 24.2119 88.958 21.9727 86.6211C36.2236 72.4678 50.449 58.275 64.6484 44.043C68.0455 40.135 69.6406 35.5777 69.4336 30.3711Z" fill="#F9A019"/>
<path fill-rule="evenodd" clip-rule="evenodd" d="M83.1055 30.1758C83.4965 32.3176 83.3012 34.4008 82.5195 36.4258C81.6682 35.6391 80.8217 34.8578 79.9805 34.082C80.1447 33.715 80.21 33.3244 80.1758 32.9102C81.0336 31.8566 82.0102 30.9451 83.1055 30.1758Z" fill="#D6E0E9"/>
<path fill-rule="evenodd" clip-rule="evenodd" d="M80.1758 32.9102C80.21 33.3244 80.1447 33.715 79.9805 34.082C79.6822 34.0963 79.4869 33.966 79.3945 33.6914C79.5898 33.3658 79.8502 33.1055 80.1758 32.9102Z" fill="#E75339"/>
<path fill-rule="evenodd" clip-rule="evenodd" d="M49.121 35.0586C50.3376 34.9662 50.6629 35.4218 50.0975 36.4257C48.9897 36.6146 48.6641 36.1589 49.121 35.0586Z" fill="#FAA31B"/>
<path fill-rule="evenodd" clip-rule="evenodd" d="M34.8635 51.6605C35.9686 51.5001 36.2942 51.9234 35.8401 52.93C34.6182 53.1124 34.2926 52.6892 34.8635 51.6605Z" fill="#FAA21A"/>
<path fill-rule="evenodd" clip-rule="evenodd" d="M44.8244 54.9808C45.9295 54.8204 46.2551 55.2437 45.801 56.2503C44.5791 56.4328 44.2535 56.0095 44.8244 54.9808Z" fill="#FAA21A"/>
<path fill-rule="evenodd" clip-rule="evenodd" d="M42.2854 59.6685C44.1523 59.4822 44.8359 60.2634 44.3361 62.0123C43.3371 63.1011 42.4258 63.0361 41.6018 61.817C41.3404 60.9302 41.5684 60.214 42.2854 59.6685Z" fill="#FAA11A"/>
<path fill-rule="evenodd" clip-rule="evenodd" d="M14.9414 67.2852C16.5315 67.2815 17.15 68.0627 16.7968 69.6289C16.306 70.3539 15.6224 70.5817 14.746 70.3125C14.388 70.2149 14.1601 69.9869 14.0625 69.6289C13.7321 68.5803 14.0251 67.799 14.9414 67.2852Z" fill="#FAA11A"/>
</svg>
