<svg width="100" height="100" viewBox="0 0 100 100" fill="none" xmlns="http://www.w3.org/2000/svg">
<path d="M16.5898 44.3583C16.5898 26.6479 32.6044 18.75 50.0003 18.75C67.3982 18.75 79.5919 29.6875 79.5919 44.3583C79.5919 60.0479 65.4857 72.7667 48.0878 72.7667C30.694 72.7667 16.5898 60.0479 16.5898 44.3583Z" fill="#995204"/>
<path d="M77.0558 33.3322C79.7662 39.6697 79.1391 45.8322 79.1391 45.8322C78.6162 57.2051 62.2162 70.8322 45.8162 68.7489C29.4141 66.6655 17.2641 55.6384 16.6579 43.7489C16.0516 31.8593 29.1537 20.8322 47.8975 20.8322C63.5183 20.8322 71.487 29.8572 71.8516 36.0218C71.8516 36.0218 74.3641 48.3489 62.4766 52.0822C50.5891 55.8155 33.3183 49.9989 35.4016 37.4989C35.4016 37.4989 36.9308 30.9822 44.5266 31.3197C44.035 32.1322 43.7537 33.0134 43.7537 33.9364C43.7537 37.9697 48.8766 41.228 55.2079 41.228C61.535 41.228 66.662 37.9697 66.662 33.9364C66.662 33.4551 66.585 32.9843 66.4454 32.5301C65.4079 28.6301 59.8995 24.303 45.8183 24.9989C43.7537 24.9989 27.0912 27.0822 25.0204 38.4884C25.0204 38.4884 21.6058 56.6822 45.8183 60.4155C70.0287 64.1489 76.1704 44.9614 74.9745 36.0218C73.7787 27.0822 69.7662 16.6655 47.8975 16.6655C26.0308 16.6655 12.4912 32.8968 12.4912 51.6468C12.4912 67.2697 26.0016 83.3322 47.8725 83.3322C85.3621 83.3322 87.4725 52.0822 87.4725 52.0822C87.9912 39.4947 79.1225 33.3322 77.0558 33.3322Z" fill="#FFB300"/>
<path d="M31.2547 75.0011C32.4053 75.0011 33.3381 74.0684 33.3381 72.9178C33.3381 71.7672 32.4053 70.8345 31.2547 70.8345C30.1041 70.8345 29.1714 71.7672 29.1714 72.9178C29.1714 74.0684 30.1041 75.0011 31.2547 75.0011Z" fill="#CE8106"/>
<path d="M27.0897 70.8356C28.2403 70.8356 29.173 69.9029 29.173 68.7523C29.173 67.6017 28.2403 66.6689 27.0897 66.6689C25.9391 66.6689 25.0063 67.6017 25.0063 68.7523C25.0063 69.9029 25.9391 70.8356 27.0897 70.8356Z" fill="#CE8106"/>
<path d="M81.242 56.2511C82.3926 56.2511 83.3254 55.3184 83.3254 54.1678C83.3254 53.0172 82.3926 52.0845 81.242 52.0845C80.0914 52.0845 79.1587 53.0172 79.1587 54.1678C79.1587 55.3184 80.0914 56.2511 81.242 56.2511Z" fill="#CE8106"/>
<path d="M79.1585 62.5011C80.3091 62.5011 81.2419 61.5684 81.2419 60.4178C81.2419 59.2672 80.3091 58.3345 79.1585 58.3345C78.0079 58.3345 77.0752 59.2672 77.0752 60.4178C77.0752 61.5684 78.0079 62.5011 79.1585 62.5011Z" fill="#CE8106"/>
<path d="M52.0833 31.2511C53.2339 31.2511 54.1667 30.3184 54.1667 29.1678C54.1667 28.0172 53.2339 27.0845 52.0833 27.0845C50.9327 27.0845 50 28.0172 50 29.1678C50 30.3184 50.9327 31.2511 52.0833 31.2511Z" fill="#CE8106"/>
<path d="M49.9998 37.5011C51.1504 37.5011 52.0832 36.5684 52.0832 35.4178C52.0832 34.2672 51.1504 33.3345 49.9998 33.3345C48.8492 33.3345 47.9165 34.2672 47.9165 35.4178C47.9165 36.5684 48.8492 37.5011 49.9998 37.5011Z" fill="#CE8106"/>
<path d="M56.2484 35.4167C57.399 35.4167 58.3317 34.4839 58.3317 33.3333C58.3317 32.1827 57.399 31.25 56.2484 31.25C55.0978 31.25 54.165 32.1827 54.165 33.3333C54.165 34.4839 55.0978 35.4167 56.2484 35.4167Z" fill="#CE8106"/>
</svg>
