<svg width="100" height="100" viewBox="0 0 100 100" fill="none" xmlns="http://www.w3.org/2000/svg">
<path d="M76.4004 15.0065C75.3171 14.9315 74.3983 15.1086 73.9192 15.1857C71.2525 15.3315 61.59 16.7149 49.6796 28.269C47.4358 29.8107 40.0629 35.4003 39.3275 42.6461L39.29 43.0295C39.1129 44.9461 38.7421 48.9295 36.0629 50.094C30.7379 52.4045 25.7546 55.344 24.7275 56.0815C18.8337 59.7378 9.79208 68.6524 13.2754 78.869C15.1462 84.3545 19.4879 87.5003 25.1921 87.5003C28.9546 87.5003 32.3921 86.1274 34.1796 85.2649C38.0108 84.469 55.4067 80.0795 59.2754 65.3524C59.5254 64.8524 59.8025 64.119 60.1442 63.2128C61.365 59.9607 63.4108 54.519 67.4421 51.0795C67.8171 50.7607 68.9129 49.8024 70.3796 48.519C73.3546 45.9211 77.8629 41.9815 81.1004 39.2107L81.2546 39.0628C81.89 38.4482 86.9838 32.8253 87.4067 24.892C88.4817 4.78363 79.915 15.2545 76.4004 15.0065Z" fill="#FBC02D"/>
<path d="M27.7124 60.4262C27.7124 60.4262 15.2312 68.0575 18.3541 77.2137C21.4749 86.3741 32.3958 80.27 32.3958 80.27C32.3958 80.27 51.1208 77.2137 54.2333 63.4741C54.2333 63.4741 57.0979 58.5033 56.0541 55.8471C55.5291 54.5012 52.3499 55.3012 50.6874 54.4679C48.5624 53.4012 45.2666 53.0762 40.1937 54.32C33.9541 55.8471 27.7124 60.4262 27.7124 60.4262Z" fill="#D84315"/>
<path d="M50.9148 33.6866C50.9148 33.6866 37.5335 42.6075 44.9689 50.0429C52.4043 57.4783 59.8356 50.0429 61.3252 48.5575C62.8106 47.0658 74.7085 36.6637 74.7085 36.6637C74.7085 36.6637 79.1668 32.2033 79.1668 26.2512C79.1668 20.3075 71.7335 21.7929 71.7335 21.7929C71.7335 21.7929 62.8085 21.7929 50.9148 33.6866Z" fill="#D84315"/>
<path d="M56.123 56.1846C51.6959 61.5804 40.4355 72.5637 18.7959 78.2429C22.3792 85.8387 32.3917 80.27 32.3917 80.27C32.3917 80.27 51.1167 77.2137 54.2292 63.4742C54.2334 63.4742 56.8438 58.9012 56.123 56.1846Z" fill="#A52E0E"/>
<path d="M77.9542 23.0063C77.9396 23.0522 77.9125 23.0751 77.9062 23.1293C74.4688 29.0918 65.2979 41.5626 45.3479 50.3584C45.3458 50.3626 45.3458 50.3647 45.3438 50.3688C52.6542 57.2022 59.8604 50.0188 61.3292 48.5584C62.8104 47.0668 74.7083 36.6647 74.7083 36.6647C74.7083 36.6647 79.1667 32.2043 79.1667 26.2522C79.1667 24.7313 78.6792 23.7022 77.9542 23.0063Z" fill="#A52E0E"/>
</svg>
