<svg width="100" height="100" viewBox="0 0 100 100" fill="none" xmlns="http://www.w3.org/2000/svg">
<path d="M47.9167 43.6648C47.9167 44.8148 46.9854 45.7481 45.8333 45.7481C44.6813 45.7481 43.75 44.8148 43.75 43.6648V39.4981C43.75 38.344 44.6813 37.4148 45.8333 37.4148C46.9854 37.4148 47.9167 38.344 47.9167 39.4981V43.6648Z" fill="#3E2723"/>
<path d="M56.2507 43.6648C56.2507 44.8148 55.3194 45.7481 54.1673 45.7481C53.0152 45.7481 52.084 44.8148 52.084 43.6648V39.4981C52.084 38.344 53.0152 37.4148 54.1673 37.4148C55.3194 37.4148 56.2507 38.344 56.2507 39.4981V43.6648Z" fill="#3E2723"/>
<path d="M21.5268 48.254C21.5268 48.254 15.2768 42.004 21.5268 35.754C27.7768 33.6707 29.8601 39.9207 29.8601 39.9207C29.8601 39.9207 23.6101 44.0874 25.6935 48.254C27.7768 52.4207 21.5268 48.254 21.5268 48.254Z" fill="#AA290B"/>
<path d="M78.473 50.1439C78.473 50.1439 84.723 43.8939 78.473 37.6439C72.223 35.5606 70.1396 41.8106 70.1396 41.8106C70.1396 41.8106 76.3896 45.9773 74.3063 50.1439C72.223 54.3106 78.473 50.1439 78.473 50.1439Z" fill="#AA290B"/>
<path d="M66.6746 89.5831L66.6663 89.4977L70.4288 86.0456L69.1517 80.9435L55.2663 78.9581L52.6934 76.3872L55.6392 73.4414L57.2329 75.0331L72.5142 77.2143L75.4038 88.7789L66.6746 89.5831Z" fill="#AA290B"/>
<path d="M81.25 83.2478L80.9479 77.5603L76.3458 72.9562L62.0083 75.0041L55.0938 70.3957L57.4063 66.9312L62.9917 70.6541L77.8208 68.5353L85.7188 76.4332L81.25 83.2478Z" fill="#AA290B"/>
<path d="M64.8419 66.5625L64.3252 62.4292L79.7731 60.498L83.3335 51.5959V41.5813L87.5002 52.3959L82.7273 64.3271L64.8419 66.5625Z" fill="#AA290B"/>
<path d="M33.3249 89.5831L33.3332 89.4977L29.5707 86.0456L30.8478 80.9435L44.7332 78.9581L47.3061 76.3872L44.3603 73.4414L42.7665 75.0331L27.4853 77.2143L24.5957 88.7789L33.3249 89.5831Z" fill="#AA290B"/>
<path d="M18.75 83.2478L19.0521 77.5603L23.6542 72.9562L37.9917 75.0041L44.9062 70.3957L42.5938 66.9312L37.0083 70.6541L22.1792 68.5353L14.2812 76.4332L18.75 83.2478Z" fill="#AA290B"/>
<path d="M35.1583 66.5625L35.675 62.4292L20.2271 60.498L16.6667 51.5959V41.5813L12.5 52.3959L17.2729 64.3271L35.1583 66.5625Z" fill="#AA290B"/>
<path d="M37.4992 33.247C40.1347 31.9262 41.6659 26.997 50.1305 22.8616C50.1305 19.7449 37.6638 22.8616 31.4284 29.0949C27.0826 33.247 33.3326 35.3303 37.4992 33.247Z" fill="#FF5722"/>
<path d="M25.0639 30.0788C25.0639 30.0788 21.9473 14.4976 40.6473 14.4976C41.6431 14.4976 49.9973 14.4976 49.9973 17.6121C43.7639 17.6121 34.4139 20.7288 34.4139 26.9621C34.4139 30.0788 33.3306 33.2476 33.3306 33.2476L25.0639 30.0788Z" fill="#FF5722"/>
<path d="M62.0917 31.012C60.4542 28.564 61.5625 23.5182 56.25 15.7411C57.7917 13.0328 67.0854 21.9078 69.4208 30.4078C71.1437 36.164 64.6833 34.8828 62.0917 31.012Z" fill="#FF5722"/>
<path d="M74.4633 34.412C74.4633 34.412 84.88 22.4079 68.6258 13.1599C67.7612 12.6683 60.4987 8.53286 58.957 11.2433C64.3758 14.3266 70.9591 21.6599 67.8758 27.0787C66.3362 29.787 65.7091 33.0745 65.7091 33.0745L74.4633 34.412Z" fill="#FF5722"/>
<path d="M58.3327 74.9103C58.3327 74.9103 57.2264 76.9978 54.166 76.9978C51.3014 76.9978 49.0223 76.9937 45.8327 76.9937C42.6431 76.9937 41.666 74.9103 41.666 74.9103C33.3327 64.4978 22.916 64.4978 22.916 56.1603C22.916 45.7478 33.1764 39.4937 45.8327 39.4937H54.166C66.8223 39.4937 77.0827 45.7416 77.0827 56.1603C77.0827 64.4978 66.666 64.4978 58.3327 74.9103Z" fill="#FF5722"/>
<path d="M78.3973 37.6246C78.2452 35.7933 77.7869 32.7912 76.389 31.3954C70.139 29.3121 68.0557 35.5621 68.0557 35.5621C68.0557 35.5621 69.4577 37.96 71.1077 39.9746C72.2536 38.3308 74.514 36.3662 78.3973 37.6246Z" fill="#D84315"/>
<path d="M28.891 38.0832C30.541 36.0686 31.9431 33.6707 31.9431 33.6707C31.9431 33.6707 29.8598 27.4207 23.6098 29.504C22.2139 30.8999 21.7535 33.9019 21.6035 35.7332C25.4848 34.4769 27.7452 36.4415 28.891 38.0832Z" fill="#D84315"/>
<path d="M41.666 47.8309L49.9993 76.9976L58.3327 47.8309L56.2493 39.4976H49.9993H43.7493L41.666 47.8309Z" fill="#D84315"/>
</svg>
