<svg width="100" height="100" viewBox="0 0 100 100" fill="none" xmlns="http://www.w3.org/2000/svg">
<path fill-rule="evenodd" clip-rule="evenodd" d="M48.1443 14.5506C50.1006 14.5415 52.0537 14.6066 54.0037 14.746C61.6963 15.4542 69.1181 17.3097 76.2693 20.3124C79.7398 21.8958 82.7021 24.1419 85.156 27.0506C87.6715 30.9301 87.6062 34.7714 84.9607 38.5741C84.0558 39.6747 83.0793 40.7163 82.031 41.6991C81.5285 42.4891 81.1379 43.3354 80.8592 44.2381C80.6008 57.9087 80.5031 71.5805 80.5662 85.2538C60.5793 85.2538 40.5922 85.2538 20.6053 85.2538C19.3774 84.7091 18.4985 83.7975 17.9685 82.5194C17.8709 79.9811 17.8383 77.4421 17.8709 74.9022C17.6187 74.9485 17.4234 74.8835 17.2849 74.7069C17.6809 74.7385 18.0715 74.7059 18.4568 74.6092C18.579 74.4628 18.6767 74.2999 18.7498 74.121C18.88 68.1965 18.88 62.2719 18.7498 56.3475C18.4551 55.8751 18.0319 55.6797 17.4803 55.7616C17.785 55.1837 17.7199 54.6628 17.2849 54.1991C18.5262 54.3633 19.047 53.81 18.8474 52.5389C19.047 51.2678 18.5262 50.7145 17.2849 50.8788C17.5364 49.7868 17.6666 48.6473 17.6756 47.4608C18.0294 45.1981 17.5411 43.1473 16.2107 41.3085C13.8108 39.4372 12.2483 37.0282 11.5232 34.0819C11.3036 32.4038 11.4989 30.776 12.1092 29.1991C14.0289 25.9124 16.6656 23.3409 20.0193 21.4842C25.3191 18.6977 30.9181 16.8096 36.8162 15.8202C40.5996 15.2016 44.3756 14.7784 48.1443 14.5506Z" fill="#E0B6A2"/>
<path fill-rule="evenodd" clip-rule="evenodd" d="M48.1444 14.5507C44.3756 14.7785 40.5997 15.2016 36.8163 15.8202C30.9182 16.8096 25.3192 18.6977 20.0194 21.4843C16.6657 23.3409 14.0289 25.9124 12.1092 29.1991C11.499 30.7761 11.3037 32.4038 11.5233 34.0819C12.2483 37.0282 13.8108 39.4372 16.2108 41.3085C17.5412 43.1473 18.0294 45.1981 17.6756 47.4608C17.6667 48.6473 17.5365 49.7868 17.285 50.8788C16.9118 50.8932 16.6839 51.0886 16.6014 51.4647C16.4712 52.1809 16.4712 52.897 16.6014 53.6132C16.6839 53.9893 16.9118 54.1847 17.285 54.1991C17.7199 54.6628 17.785 55.1837 17.4803 55.7616C17.1149 55.8317 16.8219 56.027 16.6014 56.3475C16.4712 62.272 16.4712 68.1966 16.6014 74.121C16.6839 74.4972 16.9118 74.6925 17.285 74.7069C17.4235 74.8835 17.6188 74.9485 17.8709 74.9022C17.8384 77.4421 17.871 79.9811 17.9686 82.5194C18.4985 83.7975 19.3775 84.7091 20.6053 85.2538C18.586 85.2862 16.5678 85.2538 14.5506 85.1561C13.4282 84.7501 12.6144 84.0014 12.1092 82.91C11.8523 70.4171 11.7221 57.9171 11.7186 45.41C11.6574 44.38 11.3969 43.4034 10.9374 42.4804C9.8386 41.0557 8.66673 39.6886 7.42173 38.3788C4.89165 34.4309 4.95677 30.5247 7.61704 26.66C11.0168 23.0214 15.0858 20.3846 19.8241 18.7499C29 15.5928 38.4403 14.1931 48.1444 14.5507Z" fill="#AF8777"/>
<path opacity="0.99" fill-rule="evenodd" clip-rule="evenodd" d="M54.0039 14.746C63.7957 14.6744 73.301 16.2694 82.5195 19.5311C86.508 21.1159 89.926 23.4922 92.7734 26.66C95.549 30.8042 95.4838 34.9057 92.5781 38.9647C91.5299 39.9475 90.5533 40.9891 89.6484 42.0897C89.1289 42.9323 88.8033 43.8438 88.6719 44.8241C88.5527 57.5278 88.3574 70.2231 88.0859 82.91C87.5977 83.9192 86.849 84.6678 85.8398 85.1561C84.0832 85.2538 82.3254 85.2862 80.5664 85.2538C80.5033 71.5805 80.601 57.9087 80.8594 44.2381C81.1381 43.3354 81.5287 42.4891 82.0312 41.6991C83.0795 40.7163 84.0561 39.6747 84.9609 38.5741C87.6064 34.7713 87.6717 30.9301 85.1562 27.0506C82.7023 24.1419 79.74 21.8958 76.2695 20.3124C69.1184 17.3097 61.6965 15.4542 54.0039 14.746Z" fill="#7F3D32"/>
<path fill-rule="evenodd" clip-rule="evenodd" d="M49.1209 25.097C52.0485 24.8021 53.383 26.1042 53.1248 29.0032C51.9375 30.9833 50.3426 31.4066 48.3397 30.2728C46.8434 28.2765 47.1037 26.5513 49.1209 25.097Z" fill="#C79A83"/>
<path fill-rule="evenodd" clip-rule="evenodd" d="M72.754 36.0352C75.4311 36.0727 76.245 37.3096 75.1954 39.7461C72.5081 41.0385 71.2712 40.1922 71.4845 37.207C71.8874 36.7707 72.3104 36.3801 72.754 36.0352Z" fill="#C79A83"/>
<path fill-rule="evenodd" clip-rule="evenodd" d="M25.6833 37.207C27.729 37.3293 28.4778 38.3709 27.9294 40.332C26.9327 41.4576 25.8259 41.5879 24.6091 40.7227C23.7116 39.1455 24.0696 37.9736 25.6833 37.207Z" fill="#C79A83"/>
<path fill-rule="evenodd" clip-rule="evenodd" d="M54.0037 47.7542C55.9199 47.6837 56.4406 48.4976 55.5662 50.1956C53.9865 50.7571 53.2378 50.2038 53.3201 48.5355C53.5888 48.3001 53.8166 48.0398 54.0037 47.7542Z" fill="#C79A84"/>
<path fill-rule="evenodd" clip-rule="evenodd" d="M17.2852 50.8788C18.5264 50.7145 19.0472 51.2678 18.8477 52.5389C19.0472 53.81 18.5264 54.3634 17.2852 54.1991C16.9119 54.1846 16.6841 53.9893 16.6016 53.6132C16.4714 52.8969 16.4714 52.1809 16.6016 51.4647C16.6841 51.0886 16.9119 50.8932 17.2852 50.8788Z" fill="#F2F5F8"/>
<path fill-rule="evenodd" clip-rule="evenodd" d="M17.4805 55.7618C18.0321 55.6799 18.4553 55.8753 18.75 56.3477C18.8802 62.2721 18.8802 68.1967 18.75 74.1212C18.6769 74.3001 18.5793 74.4629 18.457 74.6094C18.0717 74.7061 17.6811 74.7387 17.2852 74.7071C16.9119 74.6926 16.6841 74.4973 16.6016 74.1212C16.4714 68.1967 16.4714 62.2721 16.6016 56.3477C16.8221 56.0272 17.115 55.8319 17.4805 55.7618Z" fill="#F3F7FB"/>
<path fill-rule="evenodd" clip-rule="evenodd" d="M27.2456 64.1599C30.2374 63.8005 31.7022 65.1026 31.6401 68.0661C30.5399 70.4726 28.8147 71.0911 26.4643 69.9216C25.3782 68.8739 25.02 67.6044 25.3901 66.113C25.785 65.2302 26.4036 64.5792 27.2456 64.1599Z" fill="#C79A83"/>
<path fill-rule="evenodd" clip-rule="evenodd" d="M61.0352 66.5034C62.6016 66.4823 63.0574 67.1659 62.4023 68.5542C61.0596 69.1376 60.376 68.7143 60.3516 67.2847C60.4863 66.9233 60.7141 66.6628 61.0352 66.5034Z" fill="#C89B84"/>
</svg>
