<svg width="100" height="100" viewBox="0 0 100 100" fill="none" xmlns="http://www.w3.org/2000/svg">
<path d="M61.4443 35.845L72.411 2.77832L75.8332 3.44499L78.2221 4.74499L66.6999 37.8672L61.4443 35.845Z" fill="#C4875A"/>
<path d="M75.4442 12.7339C73.8485 10.7967 72.4 8.7428 71.1108 6.58943L72.4108 2.77832L75.8331 3.44499L78.222 4.74499L75.4442 12.7339Z" fill="#743727"/>
<path d="M69.3551 30.0004C68.3329 28.456 67.1329 25.556 65.2773 24.1227L66.7996 19.6782C68.3107 20.7338 69.6773 23.7227 71.0107 25.4671L69.3551 30.0004Z" fill="#743727"/>
<path d="M69.6772 11.1118C71.1883 12.1563 72.7439 15.0674 74.1217 16.834L72.5883 21.1118C71.4772 19.5229 70.1217 16.7452 68.2661 15.3785L69.6772 11.1118Z" fill="#743727"/>
<path d="M63.6001 40.9227L84.2779 12.0894L87.3668 13.6338L89.2557 15.5005L68.0223 44.2338L63.6001 40.9227Z" fill="#C4875A"/>
<path d="M84.1221 22.4337C83.2034 20.153 82.4605 17.8054 81.8999 15.4115L84.2777 12.0781L87.3555 13.6226L89.2443 15.5559L84.1221 22.4337Z" fill="#743727"/>
<path d="M72.9781 37.3892C72.4669 35.6447 72.2003 32.4892 70.8892 30.7225L73.7225 26.8447C74.8336 28.2558 75.2336 31.4781 75.9447 33.5114L72.9781 37.3892Z" fill="#743727"/>
<path d="M79.0884 19.4121C80.1995 20.8121 80.8218 24.0121 81.6106 26.0788L78.7995 29.7788C78.2773 27.9899 77.7773 24.9454 76.4106 23.1121L79.0884 19.4121Z" fill="#743727"/>
<path d="M77.5995 45.2453C75.9218 40.6453 72.044 37.3786 68.1773 35.0008H67.7551C69.0218 27.323 63.544 23.523 58.2218 20.4453L57.9551 20.5453C57.2662 18.5564 55.5662 16.4786 52.1551 14.723C47.5995 12.4008 42.2884 10.2786 38.8218 6.62305C41.6662 11.723 44.444 17.3453 37.7107 20.2119C34.8218 21.4453 30.5773 20.7342 28.3218 23.323C26.6662 25.2119 25.2551 29.6453 26.0995 32.2897C20.544 32.4453 17.7662 34.4008 16.6995 37.4453C15.6884 40.2897 15.7995 44.4897 17.5329 45.8008C17.5329 45.8008 9.67732 50.023 13.744 56.6786C18.3773 64.2897 32.7884 64.9675 40.8107 65.0675C51.3662 65.1675 83.5218 61.4453 77.5995 45.2453Z" fill="#F4E6D0"/>
<path d="M78.0889 45.034C76.3333 40.2451 72.3889 36.9118 68.4444 34.5007H68.3555C68.422 33.9513 68.4554 33.3985 68.4555 32.8451C68.4587 29.8966 67.3058 27.0644 65.2444 24.9562C63.2405 22.9669 60.9526 21.2856 58.4555 19.9673C58.3955 19.9269 58.3272 19.9003 58.2555 19.8895C57.4111 17.8895 55.6111 15.8895 52.3555 14.2229C47.7778 11.8562 42.5222 9.77843 39.2222 6.20065C39.1274 6.11159 39.0023 6.06201 38.8722 6.06201C38.7422 6.06201 38.617 6.11159 38.5222 6.20065C38.4151 6.2861 38.3425 6.40748 38.318 6.54231C38.2935 6.67714 38.3187 6.81629 38.3889 6.93398C39.9222 9.68954 41.3889 12.5673 41.3778 14.8673C41.3778 16.8007 40.5 18.4118 37.5333 19.7118C35.9659 20.2194 34.3497 20.562 32.7111 20.734C30.9094 20.8876 29.2205 21.675 27.9444 22.9562C26.2906 25.1376 25.3689 27.786 25.3111 30.5229C25.3113 30.8946 25.3373 31.2659 25.3889 31.634C25.1222 31.634 24.8778 31.634 24.6222 31.634C23.26 31.5764 21.905 31.8604 20.6805 32.46C19.456 33.0597 18.4009 33.9559 17.6111 35.0673C16.3023 37.0097 15.6127 39.303 15.6333 41.6451C15.6208 42.5935 15.7558 43.5381 16.0333 44.4451C16.1786 44.8868 16.3923 45.303 16.6667 45.6784C15.963 46.1367 15.3077 46.6653 14.7111 47.2562C13.9151 47.9689 13.2692 48.8333 12.8113 49.7986C12.3534 50.764 12.0927 51.8111 12.0444 52.8784C12.0726 54.332 12.5076 55.7485 13.3 56.9673C15.7778 60.9895 20.6778 63.0673 25.9111 64.2229C30.8172 65.168 35.8037 65.6332 40.8 65.6118H41.3222C48.9176 65.5239 56.4681 64.433 63.7778 62.3673C67.5624 61.3513 71.1312 59.6572 74.3111 57.3673C77.0222 55.2229 78.8889 52.4451 78.8889 49.0229C78.8577 47.6567 78.5869 46.3066 78.0889 45.034ZM28.7222 23.6784C29.842 22.5794 31.3135 21.9106 32.8778 21.7895C34.5945 21.6029 36.2859 21.2304 37.9222 20.6784C41.1333 19.3451 42.4555 17.1784 42.4333 14.7895C42.2985 12.7755 41.7259 10.8151 40.7555 9.0451C44.0889 11.6229 48.2889 13.334 51.8667 15.1784C55.2 16.8895 56.7667 18.8562 57.4222 20.734C57.7763 21.7213 57.8924 22.7782 57.7611 23.8188C57.6298 24.8595 57.2548 25.8544 56.6667 26.7229C53.5 31.1007 47.2444 32.0562 40.4889 32.0451C36.1333 32.0451 31.6 31.6673 27.6222 31.6673H26.5111C26.4347 31.2719 26.3975 30.87 26.4 30.4673C26.4614 28.0201 27.272 25.6506 28.7222 23.6784ZM18.4667 35.7229C19.1573 34.7452 20.0835 33.9576 21.1596 33.4332C22.2356 32.9087 23.4266 32.6644 24.6222 32.7229C25.0222 32.7229 27.1333 32.8007 27.6 32.8007C31.5222 32.8007 36.0667 33.1784 40.4667 33.1784C47.2889 33.1784 53.8778 32.3118 57.4889 27.4118C58.0973 26.5402 58.5207 25.5533 58.7328 24.5117C58.9449 23.4702 58.9413 22.3963 58.7222 21.3562C60.8231 22.53 62.7493 23.9924 64.4444 25.7007C66.3097 27.5967 67.3518 30.152 67.3444 32.8118C67.3446 33.5003 67.2888 34.1878 67.1778 34.8673C67.172 34.9729 67.1533 35.0774 67.1222 35.1784C66.5 38.8895 62.6222 42.2229 56.8778 44.4451C50.2134 46.898 43.1564 48.1106 36.0555 48.0229C29.8544 48.0939 23.6824 47.1634 17.7778 45.2673C17.4351 44.9465 17.1921 44.5337 17.0778 44.0784C16.8416 43.278 16.7292 42.4462 16.7444 41.6118C16.7069 39.5194 17.3077 37.4653 18.4667 35.7229ZM73.6333 56.4673C65.8555 62.6229 48.7889 64.5007 41.2889 64.4895H40.7778C35.8487 64.5236 30.9284 64.0695 26.0889 63.134C20.9555 62.0229 16.3333 59.9562 14.1555 56.3673C13.4707 55.3372 13.086 54.1369 13.0444 52.9007C13.0929 51.9875 13.3222 51.093 13.7189 50.269C14.1156 49.4451 14.6719 48.708 15.3555 48.1007C15.8643 47.6064 16.4145 47.1566 17 46.7562C17.175 46.6315 17.3568 46.5165 17.5444 46.4118C23.5183 48.3267 29.7604 49.272 36.0333 49.2118C43.2715 49.3017 50.4646 48.0627 57.2555 45.5562C63 43.2451 67.2555 39.9451 68.1667 35.6451C71.9444 37.9673 75.5333 41.134 77.0555 45.4451C77.5053 46.5858 77.7498 47.797 77.7778 49.0229C77.7778 52.0007 76.2333 54.4451 73.6333 56.4673Z" fill="#F4E0C1"/>
<path d="M74.5446 56.3008C73.3446 56.923 72.178 57.5786 70.9891 58.2453L67.8557 55.8786C66.6668 56.5564 65.5557 57.2453 64.3557 57.9675L61.1113 55.5564C60.0002 56.2675 58.7891 57.0119 57.6557 57.7786L54.4446 55.2897C53.3335 56.0453 52.1668 56.8119 51.0446 57.5897L47.7113 55.1675C46.6002 55.9453 45.4891 56.7453 44.378 57.523C43.2668 56.7341 42.1557 55.9453 41.0446 55.1675C39.9261 55.9675 38.815 56.7712 37.7113 57.5786C36.6002 56.8008 35.4891 56.0453 34.3002 55.2897L31.1113 57.7786C30.0002 57.0341 28.8113 56.3008 27.6557 55.5564L24.4446 57.9675C23.3335 57.2564 22.1335 56.5675 20.9557 55.8897L17.778 58.2564C16.6002 57.5786 15.4224 56.9341 14.2224 56.3008C13.2446 57.0119 12.2557 57.6897 11.2891 58.3564C15.881 70.4102 19.8346 82.6976 23.1335 95.1675C37.0961 97.2896 51.2976 97.312 65.2668 95.2341C68.678 82.7274 72.7806 70.4196 77.5557 58.3675C76.5557 57.7008 75.5557 57.0119 74.5446 56.3008Z" fill="#F4C44E"/>
<path d="M77.8665 58.0668C76.8665 57.4001 75.8665 56.7001 74.8554 56.0001L74.5887 55.8112L74.2998 55.9668C73.1887 56.5445 72.0776 57.0779 71.0443 57.7334C70.0887 57.0223 69.1331 56.3112 68.1665 55.5668L67.8887 55.3557L67.5887 55.5334C66.4776 56.1334 65.4443 56.7668 64.3776 57.4223L61.4554 55.2001L61.1776 54.989L60.8776 55.1779C59.7665 55.8223 58.7554 56.489 57.722 57.1668L54.7443 54.9445L54.4443 54.7334L54.1554 54.9223C53.1109 55.6112 52.0665 56.3112 51.0443 57.0112L48.0109 54.789L47.7776 54.6001C47.6849 54.6684 47.5885 54.7315 47.4887 54.789L44.4109 57.0112L41.3331 54.789C41.2363 54.7325 41.1435 54.6694 41.0554 54.6001L40.7554 54.8112L37.722 57.0334C36.6887 56.3334 35.6554 55.6334 34.5998 54.9445L34.3109 54.7557C34.2195 54.8325 34.123 54.9031 34.022 54.9668L31.0443 57.189C29.9998 56.5149 28.948 55.852 27.8887 55.2001L27.5998 55.0112L27.3109 55.2223L24.3776 57.4445C23.3331 56.7779 22.222 56.1557 21.1665 55.5557L20.8665 55.3779L20.5998 55.5779L17.7776 57.7779C16.6665 57.1334 15.5554 56.5445 14.4443 55.9779L14.1443 55.8223C14.0552 55.8798 13.9698 55.9429 13.8887 56.0112L10.9776 58.0668L10.7554 58.2223L10.8443 58.4668C15.446 70.4659 19.3926 82.7062 22.6665 95.1334C22.6665 95.2557 22.7331 95.389 22.7665 95.5001L23.1665 95.5668C30.2041 96.6806 37.319 97.2341 44.4443 97.2223C51.4105 97.2375 58.3677 96.7212 65.2554 95.6779L65.6554 95.6223L65.7554 95.2557C69.1424 82.776 73.2304 70.4973 77.9998 58.4779C78.0377 58.3946 78.0711 58.3092 78.0998 58.2223L77.8665 58.0668ZM23.4887 94.8001C20.2304 82.509 16.3438 70.3931 11.8443 58.5001L14.2776 56.8001C15.3109 57.3445 16.3331 57.9112 17.3554 58.5001C20.5331 70.0557 23.3998 82.4557 26.0331 95.1668C25.1776 95.0445 24.3331 94.9334 23.4887 94.8001ZM26.9887 95.289C24.3443 82.5445 21.4331 70.089 18.2998 58.4112C19.1776 57.7668 20.0554 57.089 20.9443 56.4112L23.9776 58.2112C26.2776 70.3223 28.422 82.9001 30.3443 95.6557C29.2331 95.5445 28.1183 95.4186 26.9998 95.2779L26.9887 95.289ZM31.3109 95.7445C29.3554 82.9557 27.2331 70.3223 24.9109 58.1334L27.622 56.0779C28.6109 56.689 29.6109 57.3223 30.5776 57.9557C32.0665 70.4668 33.4331 83.189 34.6887 96.0001C33.5776 95.9334 32.4443 95.8445 31.322 95.7445H31.3109ZM35.6665 96.0779C34.3998 83.2445 33.0331 70.5223 31.5443 57.9223L34.322 55.8445L36.8776 57.5668C37.6628 70.4038 38.4035 83.289 39.0998 96.2223C37.9443 96.189 36.822 96.1334 35.6887 96.0779H35.6665ZM43.4443 96.3223C42.3331 96.3223 41.1665 96.3223 40.022 96.2668C39.3554 83.4964 38.6146 70.752 37.7998 58.0334L37.9331 57.9334L40.9443 55.7112L43.6887 57.6445C43.6294 70.5482 43.5554 83.4408 43.4665 96.3223H43.4443ZM44.422 96.3223C44.5035 83.4927 44.5998 70.6631 44.7109 57.8334C45.6998 57.1334 46.6998 56.4223 47.7109 55.7223C48.6554 56.4001 49.5887 57.1001 50.5331 57.789C49.548 70.5742 48.648 83.4075 47.8331 96.289C46.6665 96.3112 45.5554 96.3223 44.4443 96.3223H44.422ZM48.8665 96.2668C49.6776 83.4223 50.5665 70.589 51.5331 57.8223C52.4887 57.1668 53.4665 56.5001 54.4443 55.8557L57.222 57.9445C55.3998 70.489 53.7443 83.2668 52.222 96.1112C51.1109 96.1779 49.9998 96.2223 48.8887 96.2557L48.8665 96.2668ZM53.2443 96.0779C54.7443 83.2334 56.3998 70.5223 58.1998 57.9668C59.1776 57.3334 60.1665 56.7001 61.1554 56.089L64.0776 58.3112C61.3331 70.4112 58.8887 83.0445 56.5887 95.8334L53.2443 96.0779ZM57.5998 95.7445C59.822 82.8668 62.3665 70.189 65.1109 58.0334C66.0109 57.4668 66.922 56.9223 67.8331 56.4112C68.7109 57.089 69.5998 57.7557 70.4776 58.4112C66.9776 70.0668 63.8109 82.6001 60.9443 95.389C59.8109 95.5557 58.6887 95.6334 57.5776 95.7445H57.5998ZM64.9443 94.8779L61.9331 95.289C64.7998 82.5334 67.9443 70.0779 71.4331 58.5112C72.4554 57.9223 73.4887 57.4001 74.522 56.8112L77.0331 58.5223C72.3406 70.4099 68.294 82.5424 64.9109 94.8668L64.9443 94.8779Z" fill="#F4CA64"/>
<path fill-rule="evenodd" clip-rule="evenodd" d="M40.5779 4.93359C42.3359 4.93359 44.0545 5.45492 45.5163 6.43164C46.978 7.40837 48.1173 8.79662 48.7901 10.4209C49.4629 12.0451 49.6389 13.8323 49.2959 15.5566C48.953 17.2809 48.1064 18.8647 46.8632 20.1079C45.6201 21.351 44.0363 22.1976 42.312 22.5406C40.5877 22.8836 38.8005 22.7075 37.1762 22.0347C35.552 21.362 34.1637 20.2227 33.187 18.7609C32.2103 17.2991 31.689 15.5805 31.689 13.8225C31.689 11.465 32.6255 9.20408 34.2925 7.53709C35.9594 5.8701 38.2204 4.93359 40.5779 4.93359Z" fill="#F04B3E"/>
<path opacity="0.7" fill-rule="evenodd" clip-rule="evenodd" d="M39.5995 7.43359C40.5656 7.43522 41.5107 7.71612 42.3209 8.24246C43.1312 8.76881 43.7719 9.51815 44.1661 10.4003C43.4534 9.7393 42.5636 9.3004 41.6054 9.13725C40.6472 8.9741 39.6622 9.09377 38.7709 9.48164C37.8797 9.8695 37.1208 10.5087 36.5871 11.3211C36.0535 12.1335 35.7682 13.0838 35.7661 14.0558C35.769 14.7526 35.9166 15.4412 36.1995 16.078C35.4704 15.3932 34.9634 14.5055 34.7442 13.5295C34.5249 12.5536 34.6034 11.5343 34.9695 10.6034C35.3357 9.67257 35.9726 8.87291 36.7979 8.30783C37.6233 7.74275 38.5992 7.43822 39.5995 7.43359Z" fill="#F57564"/>
</svg>
