<svg width="100" height="100" viewBox="0 0 100 100" fill="none" xmlns="http://www.w3.org/2000/svg">
<path d="M63.427 19.4999V79.7046C52.557 79.7046 42.2443 72.0393 40.6117 60.2746C38.169 42.8113 48.5023 19.4999 63.427 19.4999Z" fill="#FCB663"/>
<path d="M86.6181 60.2746C85.1101 71.0273 75.9188 79.7046 63.4268 79.7046V19.4999C79.6428 19.4999 88.8848 43.9926 86.6181 60.2746Z" fill="#F9A64B"/>
<path d="M40.9815 79.4749C31.5582 81.9929 20.6935 77.7222 16.5295 67.7729C16.5295 67.7669 16.5215 67.7589 16.5215 67.7509C12.8575 59.0216 12.5775 48.9269 15.4008 39.9982C17.2155 34.2769 20.8955 28.4656 27.0295 26.8369L40.9815 79.4749Z" fill="#FCF7C2"/>
<path d="M40.9818 79.4751L27.0298 26.8371C27.7485 26.8371 35.5338 23.6044 45.3018 33.7098C51.4671 39.9624 55.6851 48.3231 56.7538 57.1198C58.0378 67.7318 50.9011 76.9984 40.9818 79.4751Z" fill="#F9F071"/>
<path d="M28.2746 47.1746C28.2746 52.6186 25.3839 57.0312 21.8179 57.0312C18.2499 57.0312 15.3579 52.6186 15.3579 47.1746C15.3579 41.7306 18.2499 37.3179 21.8179 37.3179C25.3839 37.3179 28.2746 41.7306 28.2746 47.1746Z" fill="white"/>
</svg>
