<svg width="100" height="100" viewBox="0 0 100 100" fill="none" xmlns="http://www.w3.org/2000/svg">
<path d="M85.4164 77.0837H14.583C7.70801 77.0837 2.08301 71.4587 2.08301 64.5837V35.417C2.08301 28.542 7.70801 22.917 14.583 22.917H85.4164C92.2914 22.917 97.9164 28.542 97.9164 35.417V64.5837C97.9164 71.4587 92.2914 77.0837 85.4164 77.0837Z" fill="#33691E"/>
<path d="M99.7914 33.3337C98.7497 27.5003 93.5414 22.917 87.4997 22.917H12.4997C6.24968 22.917 1.24967 27.5003 0.208008 33.3337C2.08301 33.1253 18.7497 32.7087 22.9163 50.0003C42.708 42.0837 49.9997 58.3337 49.9997 58.3337C49.9997 58.3337 57.2913 42.0837 77.083 50.0003C81.2497 32.7087 97.9164 33.1253 99.7914 33.3337Z" fill="#689F38"/>
<path d="M16.458 38.75C12.708 46.875 6.45801 52.9167 2.08301 56.6667V62.0833C6.45801 58.75 14.3747 51.875 19.583 42.0833C18.5413 40.8333 17.4997 39.7917 16.458 38.75Z" fill="#558B2F"/>
<path d="M36.666 48.125C35.6244 56.4583 33.3327 67.7083 28.541 77.0833H33.1243C37.4993 67.9167 39.791 57.5 40.8327 49.375C39.5827 48.9583 38.1244 48.5417 36.666 48.125Z" fill="#558B2F"/>
<path d="M83.5417 38.75C82.5 39.7917 81.4583 40.8333 80.625 42.0833C85.625 51.875 93.75 58.75 98.125 62.0833V56.6667C93.5417 53.125 87.2917 46.875 83.5417 38.75Z" fill="#558B2F"/>
<path d="M59.166 49.375C60.2077 57.5 62.291 67.7083 66.8743 77.0833H71.4577C66.4577 67.7083 64.166 56.6667 63.3327 48.125C61.8743 48.5417 60.416 48.9583 59.166 49.375Z" fill="#558B2F"/>
<path d="M97.9164 37.4997V35.4163C97.9164 34.7913 97.9164 33.958 97.708 33.333C92.708 33.5413 80.6247 35.6247 77.083 49.9997C73.1247 48.5413 69.7913 47.9163 66.8747 47.9163C54.7913 47.9163 49.9997 58.333 49.9997 58.333C49.9997 58.333 45.208 47.9163 33.1247 47.9163C30.208 47.9163 26.8747 48.5413 22.9163 49.9997C19.3747 35.6247 7.29134 33.5413 2.29134 33.333C2.08301 33.958 2.08301 34.7913 2.08301 35.4163V37.4997C6.66634 37.708 16.0413 39.583 18.958 51.0413C19.1663 52.2913 19.9997 53.1247 21.0413 53.7497C21.6663 53.958 22.2913 54.1663 22.9163 54.1663C23.333 54.1663 23.958 54.1663 24.3747 53.958C27.4997 52.708 30.4163 52.083 33.1247 52.083C42.2913 52.083 46.0413 59.7913 46.2497 60.208C46.8747 61.6663 48.333 62.708 49.9997 62.708C51.6663 62.708 53.1247 61.6663 53.7497 60.208C53.958 59.9997 57.708 52.2913 66.8747 52.2913C69.583 52.2913 72.4997 52.9163 75.6247 54.1663C76.0413 54.1663 76.6663 54.1663 77.083 54.1663C77.708 54.1663 78.333 53.958 78.958 53.7497C79.9997 53.1247 80.833 52.2913 81.0414 51.0413C83.958 39.583 93.333 37.708 97.9164 37.4997Z" fill="#1B5E20"/>
<path d="M59.7913 53.75C61.0413 53.125 62.2913 52.5 63.7497 52.2917C63.5413 50.8333 63.333 49.5833 63.1247 48.125C61.6663 48.3333 60.208 48.75 58.958 49.375C59.3747 50.8333 59.583 52.2917 59.7913 53.75Z" fill="#33691E"/>
<path d="M82.9167 46.25C83.75 44.7917 84.5833 43.5417 85.625 42.5C84.7917 41.25 84.1667 40 83.5417 38.75C82.5 39.7917 81.4583 40.8333 80.625 42.0833C81.25 43.5417 82.0833 45 82.9167 46.25Z" fill="#33691E"/>
<path d="M40.8327 49.375C39.5827 48.75 38.3327 48.3333 36.666 48.125C36.4577 49.375 36.2493 50.8333 36.041 52.2917C37.4993 52.5 38.9577 53.125 39.9994 53.75C40.416 52.2917 40.6244 50.8333 40.8327 49.375Z" fill="#33691E"/>
<path d="M19.583 42.2913C18.7497 41.0413 17.708 39.7913 16.6663 38.958C16.0413 40.208 15.4163 41.458 14.583 42.708C15.6247 43.7497 16.458 44.9997 17.2913 46.458C17.9163 44.9997 18.7497 43.5413 19.583 42.2913Z" fill="#33691E"/>
<path d="M65.209 22.917C68.334 27.5003 74.1673 37.0837 75.0007 49.167C75.6257 49.3753 76.459 49.5837 77.084 50.0003C77.5007 48.3337 78.1257 46.667 78.7507 45.417C77.5007 35.8337 73.334 27.917 70.209 22.917H65.209Z" fill="#7CB342"/>
<path d="M22.292 47.7087C22.5003 48.542 22.7087 49.167 22.917 50.0003C24.167 49.3753 25.6253 48.9587 26.8753 48.7503C34.167 39.3753 34.5837 28.9587 34.167 22.917H30.0003C30.417 28.3337 30.0003 38.9587 22.292 47.7087Z" fill="#7CB342"/>
<path d="M48.542 55.8337C49.5837 57.292 50.0003 58.3337 50.0003 58.3337C50.0003 58.3337 51.042 56.2503 53.1253 53.7503C55.8337 40.2087 53.542 28.9587 51.667 22.917H47.292C49.167 28.542 52.292 40.8337 48.542 55.8337Z" fill="#7CB342"/>
</svg>
