<svg width="100" height="100" viewBox="0 0 100 100" fill="none" xmlns="http://www.w3.org/2000/svg">
<path d="M54.1667 18.7511L50 8.33447L45.8333 18.7511C45.8333 18.7511 45.8333 16.6678 37.5 12.5011L39.5833 25.0011L50 27.0845L60.4167 25.0011L62.5 12.5011C54.1667 16.6678 54.1667 18.7511 54.1667 18.7511Z" fill="#FF5252"/>
<path d="M49.9999 89.5833C70.5368 89.5833 87.1853 75.1259 87.1853 57.2917C87.1853 39.4575 70.5368 25 49.9999 25C29.4629 25 12.8145 39.4575 12.8145 57.2917C12.8145 75.1259 29.4629 89.5833 49.9999 89.5833Z" fill="#FFECB3"/>
<path d="M48.9581 39.4372C48.9581 37.708 47.5622 36.3122 45.8331 36.3122C45.7706 36.3122 45.7289 36.3122 45.6664 36.3122C45.7914 35.8955 45.8122 35.4164 45.7289 34.958C45.4164 33.2497 43.7914 32.1247 42.1039 32.4164C42.0622 32.4372 42.0414 32.4372 41.9997 32.4372C40.3331 32.7497 39.2289 34.3122 39.4789 35.9789C38.7497 34.458 36.9372 33.7913 35.3956 34.4788C33.8331 35.1663 33.1247 36.958 33.7706 38.5205C32.6872 37.2288 30.7706 37.0205 29.4372 38.0622C28.0831 39.1247 27.8539 41.0414 28.8747 42.3955C27.4789 41.4164 25.5622 41.708 24.5414 43.083C23.5206 44.458 23.8122 46.3955 25.1456 47.4164C23.5414 46.8539 21.7706 47.708 21.1872 49.3122C20.6039 50.9163 21.4372 52.6872 23.0206 53.2913C21.3331 53.2476 19.8956 54.583 19.8122 56.2893C19.7497 57.9976 21.0414 59.4372 22.7289 59.5413C21.0831 59.958 20.0622 61.6455 20.4789 63.3122C20.8956 64.9788 22.5622 65.9997 24.2289 65.6059C22.7706 66.5018 22.3122 68.3976 23.1872 69.8768C24.0622 71.3351 25.9581 71.8143 27.4164 70.9788C26.2914 72.2309 26.3747 74.1663 27.6039 75.3351C28.8331 76.5018 30.7706 76.4601 31.9581 75.2726C31.2081 76.7726 31.7706 78.6059 33.2497 79.4184C34.7289 80.2497 36.6039 79.7288 37.4372 78.2705C37.0622 79.8955 38.0414 81.5622 39.6664 81.9997C39.9372 82.083 40.2081 82.1059 40.4789 82.1059C41.8747 82.1059 43.1247 81.1893 43.4997 79.7934C43.5622 79.5434 43.6039 79.2934 43.6039 79.0434C43.8747 79.2539 44.1664 79.4205 44.4997 79.5226C46.1456 80.0851 47.9164 79.2101 48.4789 77.5851C49.0414 75.9393 48.1664 74.1663 46.5206 73.6268C46.4164 73.583 46.2914 73.5434 46.1872 73.5226C47.7497 73.3559 48.9581 72.0205 48.9581 70.4184C48.9581 68.8351 47.7706 67.5226 46.2497 67.3143C47.7706 67.1268 48.9581 65.8143 48.9581 64.233C48.9581 62.6476 47.7914 61.3351 46.2706 61.1288C47.7914 60.9205 48.9581 59.608 48.9581 58.0247C48.9581 56.4413 47.7706 55.1497 46.2497 54.9434C47.7706 54.733 48.9581 53.4226 48.9581 51.8393C48.9581 50.2559 47.7706 48.9434 46.2289 48.7559C47.7706 48.5476 48.9581 47.2351 48.9581 45.6518C48.9581 44.0684 47.7706 42.7559 46.2289 42.5476C47.7706 42.3539 48.9581 41.0414 48.9581 39.4372Z" fill="#FF1744"/>
<path d="M77.2705 59.5414C78.958 59.4143 80.2497 57.9788 80.1872 56.2893C80.1039 54.5601 78.6664 53.2268 76.956 53.2914C78.5622 52.708 79.3935 50.9164 78.8122 49.3122C78.2289 47.708 76.458 46.8539 74.8539 47.4164C76.1872 46.3747 76.4601 44.458 75.458 43.083C74.4372 41.708 72.5205 41.4164 71.1455 42.3747C72.1455 41.0205 71.8955 39.1247 70.5643 38.0622C69.2289 37.0205 67.3122 37.2289 66.231 38.5205C66.8768 36.9789 66.1685 35.1663 64.606 34.4788C63.0643 33.7913 61.2518 34.458 60.5226 35.9789C60.7726 34.3122 59.6685 32.7497 58.0018 32.4372C57.981 32.4372 57.981 32.4372 57.958 32.4372C57.9372 32.4372 57.9164 32.4372 57.8768 32.4164C56.1872 32.1247 54.5622 33.2497 54.2726 34.958C54.1893 35.4372 54.2101 35.8955 54.3351 36.333C54.2726 36.3122 54.231 36.3122 54.1685 36.3122C52.4393 36.3122 51.0435 37.708 51.0435 39.4372C51.0435 41.0414 52.2289 42.3539 53.7726 42.5414C52.231 42.7497 51.0435 44.0414 51.0435 45.6455C51.0435 47.2289 52.2289 48.5414 53.7726 48.7497C52.231 48.9372 51.0435 50.2497 51.0435 51.833C51.0435 53.4163 52.2101 54.7289 53.7518 54.9372C52.2101 55.1455 51.0435 56.4372 51.0435 58.0184C51.0435 59.5997 52.2101 60.9164 53.731 61.1226C52.2101 61.3309 51.0435 62.6414 51.0435 64.2268C51.0435 65.8101 52.2101 67.1226 53.7518 67.308C52.2101 67.5184 51.0435 68.8289 51.0435 70.4122C51.0435 72.0164 52.2518 73.3497 53.8143 73.5163C53.7101 73.5372 53.5851 73.5768 53.481 73.6205C51.8351 74.1622 50.9601 75.9538 51.5226 77.5788C52.0851 79.2018 53.856 80.0768 55.5018 79.5351C55.8351 79.4101 56.1268 79.2434 56.3976 79.0351C56.3976 79.2851 56.4414 79.5351 56.5039 79.7851C56.8789 81.1809 58.1268 82.0976 59.5018 82.0976C59.7726 82.0976 60.0435 82.0539 60.3164 81.9914C61.9622 81.5539 62.9414 79.908 62.5664 78.2622C63.4185 79.7205 65.2747 80.2414 66.7539 79.4101C68.233 78.5955 68.7935 76.7434 68.0226 75.2434C69.2101 76.4518 71.1476 76.4934 72.3997 75.3268C73.6289 74.158 73.7122 72.2018 72.5664 70.9497C74.0455 71.8039 75.9185 71.3268 76.7935 69.8664C77.6914 68.3872 77.2101 66.4914 75.7747 65.5955C77.4205 65.9893 79.108 64.9684 79.5247 63.3018C79.9414 61.6351 78.9164 59.958 77.2705 59.5414Z" fill="#FF1744"/>
<path d="M37.5 12.5L39.5833 25L43.75 27.0833C43.8854 23.8292 37.5 12.5 37.5 12.5Z" fill="#D50000"/>
<path d="M62.5002 12.5C62.5002 12.5 56.1148 23.8292 56.2502 27.0833L60.4168 25L62.5002 12.5Z" fill="#D50000"/>
<path d="M57.4149 23.5938L56.2503 27.0833V27.5833C72.8024 30.1125 85.417 42.4562 85.417 57.2917C85.417 71.5 73.8691 83.5104 58.3357 86.6562C54.167 87.5 49.8274 83.0625 49.8274 83.0625C49.8274 83.0625 45.8337 87.5 41.6649 86.6562C26.1316 83.5104 14.5837 71.5 14.5837 57.2917C14.5837 42.4562 27.1982 30.1125 43.7503 27.5833V27.0833L42.0545 23.6896C24.0128 26.8896 10.417 40.6771 10.417 57.2917C10.417 76.2771 28.1399 91.6667 50.0003 91.6667C71.8607 91.6667 89.5837 76.2771 89.5837 57.2917C89.5837 40.5146 75.7191 26.6146 57.4149 23.5938Z" fill="#D50000"/>
<path d="M45.8333 27.0822C46.9839 27.0822 47.9167 26.1495 47.9167 24.9989C47.9167 23.8483 46.9839 22.9155 45.8333 22.9155C44.6827 22.9155 43.75 23.8483 43.75 24.9989C43.75 26.1495 44.6827 27.0822 45.8333 27.0822Z" fill="#D50000"/>
<path d="M50.0003 27.0822C51.1509 27.0822 52.0837 26.1495 52.0837 24.9989C52.0837 23.8483 51.1509 22.9155 50.0003 22.9155C48.8497 22.9155 47.917 23.8483 47.917 24.9989C47.917 26.1495 48.8497 27.0822 50.0003 27.0822Z" fill="#D50000"/>
<path d="M54.1673 27.0822C55.3179 27.0822 56.2507 26.1495 56.2507 24.9989C56.2507 23.8483 55.3179 22.9155 54.1673 22.9155C53.0167 22.9155 52.084 23.8483 52.084 24.9989C52.084 26.1495 53.0167 27.0822 54.1673 27.0822Z" fill="#D50000"/>
<path d="M47.9173 22.9167C49.0679 22.9167 50.0007 21.9839 50.0007 20.8333C50.0007 19.6827 49.0679 18.75 47.9173 18.75C46.7667 18.75 45.834 19.6827 45.834 20.8333C45.834 21.9839 46.7667 22.9167 47.9173 22.9167Z" fill="#D50000"/>
<path d="M52.0833 22.9167C53.2339 22.9167 54.1667 21.9839 54.1667 20.8333C54.1667 19.6827 53.2339 18.75 52.0833 18.75C50.9327 18.75 50 19.6827 50 20.8333C50 21.9839 50.9327 22.9167 52.0833 22.9167Z" fill="#D50000"/>
<path d="M38.542 47.9155C40.2679 47.9155 41.667 46.5164 41.667 44.7905C41.667 43.0646 40.2679 41.6655 38.542 41.6655C36.8161 41.6655 35.417 43.0646 35.417 44.7905C35.417 46.5164 36.8161 47.9155 38.542 47.9155Z" fill="#D50000"/>
<path d="M30.209 54.1655C31.9349 54.1655 33.334 52.7664 33.334 51.0405C33.334 49.3146 31.9349 47.9155 30.209 47.9155C28.4831 47.9155 27.084 49.3146 27.084 51.0405C27.084 52.7664 28.4831 54.1655 30.209 54.1655Z" fill="#D50000"/>
<path d="M38.542 60.4155C40.2679 60.4155 41.667 59.0164 41.667 57.2905C41.667 55.5646 40.2679 54.1655 38.542 54.1655C36.8161 54.1655 35.417 55.5646 35.417 57.2905C35.417 59.0164 36.8161 60.4155 38.542 60.4155Z" fill="#D50000"/>
<path d="M38.542 72.9155C40.2679 72.9155 41.667 71.5164 41.667 69.7905C41.667 68.0646 40.2679 66.6655 38.542 66.6655C36.8161 66.6655 35.417 68.0646 35.417 69.7905C35.417 71.5164 36.8161 72.9155 38.542 72.9155Z" fill="#D50000"/>
<path d="M30.209 66.6655C31.9349 66.6655 33.334 65.2664 33.334 63.5405C33.334 61.8146 31.9349 60.4155 30.209 60.4155C28.4831 60.4155 27.084 61.8146 27.084 63.5405C27.084 65.2664 28.4831 66.6655 30.209 66.6655Z" fill="#D50000"/>
<path d="M61.459 47.9155C63.1849 47.9155 64.584 46.5164 64.584 44.7905C64.584 43.0646 63.1849 41.6655 61.459 41.6655C59.7331 41.6655 58.334 43.0646 58.334 44.7905C58.334 46.5164 59.7331 47.9155 61.459 47.9155Z" fill="#D50000"/>
<path d="M69.792 54.1655C71.5179 54.1655 72.917 52.7664 72.917 51.0405C72.917 49.3146 71.5179 47.9155 69.792 47.9155C68.0661 47.9155 66.667 49.3146 66.667 51.0405C66.667 52.7664 68.0661 54.1655 69.792 54.1655Z" fill="#D50000"/>
<path d="M61.459 60.4155C63.1849 60.4155 64.584 59.0164 64.584 57.2905C64.584 55.5646 63.1849 54.1655 61.459 54.1655C59.7331 54.1655 58.334 55.5646 58.334 57.2905C58.334 59.0164 59.7331 60.4155 61.459 60.4155Z" fill="#D50000"/>
<path d="M61.459 72.9155C63.1849 72.9155 64.584 71.5164 64.584 69.7905C64.584 68.0646 63.1849 66.6655 61.459 66.6655C59.7331 66.6655 58.334 68.0646 58.334 69.7905C58.334 71.5164 59.7331 72.9155 61.459 72.9155Z" fill="#D50000"/>
<path d="M69.792 66.6655C71.5179 66.6655 72.917 65.2664 72.917 63.5405C72.917 61.8146 71.5179 60.4155 69.792 60.4155C68.0661 60.4155 66.667 61.8146 66.667 63.5405C66.667 65.2664 68.0661 66.6655 69.792 66.6655Z" fill="#D50000"/>
</svg>
