<svg width="100" height="100" viewBox="0 0 100 100" fill="none" xmlns="http://www.w3.org/2000/svg">
<path opacity="0.931" fill-rule="evenodd" clip-rule="evenodd" d="M33.49 3.3999C34.0355 3.3999 34.581 3.3999 35.1265 3.3999C42.4651 6.25327 47.5563 11.3446 50.4004 18.6737C50.3487 19.0219 50.4093 19.3249 50.5822 19.5829C50.7207 20.5997 50.9631 21.5695 51.3095 22.4922C51.3095 22.5527 51.3095 22.6135 51.3095 22.674C51.9716 26.1143 52.0323 29.5691 51.4913 33.0384C51.0719 33.3197 50.5871 33.4408 50.0367 33.4021C49.4863 33.4408 49.0015 33.3197 48.582 33.0384C49.5117 26.9685 48.5722 21.2105 45.7637 15.7644C43.645 12.2516 40.766 9.55448 37.1267 7.67294C35.7655 7.08319 34.4321 6.44678 33.1264 5.76371C32.5894 4.87272 32.7107 4.08479 33.49 3.3999Z" fill="#A96100"/>
<path opacity="0.969" fill-rule="evenodd" clip-rule="evenodd" d="M72.5831 10.8551C70.7426 10.8744 68.9243 11.0865 67.1281 11.4915C67.0271 11.561 66.9665 11.652 66.9463 11.7642C66.5176 11.1138 65.9115 10.9017 65.128 11.1278C63.7054 11.8088 62.3113 12.5361 60.9459 13.3098C57.4809 15.4049 54.0261 17.496 50.5815 19.583C50.4086 19.325 50.348 19.022 50.3997 18.6738C54.4116 8.63419 61.8061 4.48237 72.5831 6.21836C73.5288 6.93379 73.8621 7.87324 73.5832 9.03674C73.2937 9.67699 72.9604 10.2831 72.5831 10.8551Z" fill="#5DAB23"/>
<path fill-rule="evenodd" clip-rule="evenodd" d="M66.9469 11.7645C67.2343 12.418 67.113 12.9938 66.5832 13.4919C61.3372 16.265 56.2459 19.2652 51.3094 22.4925C50.963 21.5698 50.7206 20.6001 50.582 19.5832C54.0266 17.4962 57.4814 15.4052 60.9464 13.31C62.3118 12.5363 63.7059 11.809 65.1285 11.128C65.9121 10.9019 66.5181 11.114 66.9469 11.7645Z" fill="#4E901E"/>
<path fill-rule="evenodd" clip-rule="evenodd" d="M72.5829 10.8555C70.7256 14.0784 68.3618 16.8968 65.4914 19.3106C61.3084 22.6594 56.5808 23.7808 51.3086 22.6745C51.3086 22.614 51.3086 22.5532 51.3086 22.4927C56.2451 19.2654 61.3364 16.2652 66.5824 13.492C67.1123 12.994 67.2336 12.4182 66.9461 11.7646C66.9663 11.6524 67.0268 11.5614 67.1279 11.4919C68.9241 11.0869 70.7424 10.8748 72.5829 10.8555Z" fill="#6CC729"/>
<path fill-rule="evenodd" clip-rule="evenodd" d="M48.5811 33.039C49.0006 33.3203 49.4854 33.4414 50.0358 33.4027C50.5862 33.4414 51.0709 33.3203 51.4904 33.039C57.6665 29.0753 64.3337 28.0145 71.4919 29.857C78.7593 32.0339 84.002 36.5493 87.2203 43.4034C91.0064 52.6159 90.4003 61.5256 85.402 70.1326C81.7599 75.9827 78.0931 81.8013 74.4012 87.5884C70.5025 90.3623 66.1991 91.2412 61.4911 90.225C59.6655 89.6451 57.9078 88.9178 56.218 88.043C54.8197 87.695 53.4258 87.695 52.0359 88.043C49.7641 89.3257 47.3396 90.1741 44.7626 90.5887C39.3143 91.1205 34.9805 89.2113 31.7617 84.861C27.894 78.5091 23.9542 72.2057 19.9427 65.9505C13.7548 56.478 12.9972 46.5986 17.6698 36.312C21.7389 32.1262 26.709 29.7322 32.5799 29.1297C38.4029 28.5054 43.7366 29.8086 48.5811 33.039Z" fill="#6CC729"/>
<path opacity="0.7" fill-rule="evenodd" clip-rule="evenodd" d="M64.0427 32.7137C67.3885 32.6982 71.9784 32.7137 81.8054 40.3359C80.4835 40.0961 72.2875 37.0731 70.944 37.0718C67.2687 36.9605 62.3862 35.7794 59.5397 38.107C58.6846 38.8388 57.596 39.241 56.4704 39.241C55.3449 39.241 54.2563 38.8388 53.4012 38.107C52.9596 37.7348 52.4964 37.3892 52.014 37.0718C52.8473 36.9413 53.6283 36.5831 54.2707 36.0366C57.0207 33.7867 60.4912 32.6066 64.0427 32.7137ZM17.8018 54.9077C17.6879 41.5644 27.0251 32.7137 38.4741 32.7137C41.4636 32.6343 44.4098 33.441 46.9417 35.0325C45.7081 34.7855 44.4526 34.6641 43.1944 34.6702C32.4908 34.6702 23.5263 42.1441 22.0253 53.769L17.8018 54.9077Z" fill="#8CD60B"/>
<path opacity="0.978" fill-rule="evenodd" clip-rule="evenodd" d="M17.6708 36.3115C12.9983 46.5981 13.7559 56.4775 19.9437 65.95C23.9553 72.2052 27.895 78.5086 31.7628 84.8605C34.9815 89.2108 39.3153 91.12 44.7637 90.5882C47.3406 90.1736 49.7652 89.3252 52.037 88.0425C53.4269 87.6945 54.8208 87.6945 56.2191 88.0425C57.9088 88.9173 59.6666 89.6447 61.4922 90.2245C66.2002 91.2408 70.5036 90.3618 74.4022 87.588C73.2601 89.7312 71.866 91.701 70.2201 93.4975C68.1896 94.9981 65.9471 95.9982 63.4923 96.4977C61.9164 96.4977 60.3407 96.4977 58.7647 96.4977C56.4145 95.9257 54.1417 95.0771 51.946 93.9521C50.5161 93.4877 49.0918 93.5179 47.673 94.043C45.6485 95.1791 43.5271 95.9973 41.3089 96.4977C39.733 96.4977 38.1572 96.4977 36.5813 96.4977C33.3907 95.9779 30.6934 94.5232 28.4898 92.1338C23.1556 83.8912 18.0036 75.5269 13.0341 67.041C8.85965 57.2092 9.64759 47.8145 15.3979 38.8572C16.0307 37.8927 16.7884 37.0441 17.6708 36.3115Z" fill="#5EAC24"/>
</svg>
