<svg width="100" height="100" viewBox="0 0 100 100" fill="none" xmlns="http://www.w3.org/2000/svg">
<path d="M46.8564 30.3843C40.5689 30.3843 20.6543 39.5843 20.6543 62.5009C20.6543 72.9176 26.9439 79.1676 26.9439 79.1676C26.9439 79.1676 39.521 91.6676 54.1939 91.6676C68.8689 91.6676 66.771 44.8968 70.9647 40.7301C70.9647 40.7301 55.2418 30.3843 46.8564 30.3843Z" fill="#795548"/>
<path d="M70.9645 43.7504C71.1832 43.1171 71.5061 41.6567 71.802 40.6484C72.0957 39.64 66.9353 38.5984 62.577 39.5838C31.1353 45.8359 33.2311 72.9171 33.2311 72.9171C33.2311 82.1213 42.8353 91.6671 52.0978 91.6671H56.2916C65.552 91.6671 81.4457 83.3338 75.1562 68.7504C73.0582 62.5004 66.7707 58.3338 70.9645 43.7504Z" fill="#EF9A9A"/>
<path d="M43.4208 61.5687C42.6667 64.1812 42.5021 66.8 42.8646 69.5458C43.2312 72.2583 44.125 74.9666 45.5354 77.377C46.9417 79.7666 48.9104 81.9229 51.4437 82.902C52.6917 83.402 54.1896 83.6395 55.6625 83.6958C57.1292 83.7104 58.6958 83.7229 60.0604 83.0458C58.8479 84.0249 57.2521 84.377 55.7375 84.6979C54.1875 84.9708 52.6042 85.1041 50.9062 84.8395C47.5229 84.1624 44.8 81.875 42.7229 79.3645C40.6354 76.802 39.0937 73.8145 38.1333 70.5979C37.1687 67.4187 36.8375 63.8333 37.2667 60.4812L43.4208 61.5687Z" fill="#E57373"/>
<path d="M56.1206 48.9844C55.1206 49.6823 53.9852 50.4677 52.5602 50.5635C51.8311 51.774 51.1727 53.0365 50.6331 54.3177C49.6206 56.7115 48.9331 59.2531 48.7311 61.8344C48.5269 64.4073 48.856 67.0281 49.779 69.3719C50.6915 71.724 52.1811 73.751 53.954 75.3552C52.5706 73.401 51.6311 71.201 51.2956 68.9615C50.9498 66.7219 51.179 64.476 51.8269 62.3823C52.4727 60.2844 53.5061 58.3302 54.7748 56.5594C56.0602 54.7698 57.5144 53.2302 59.2331 51.7802L56.1206 48.9844Z" fill="#E57373"/>
<path d="M70.0127 39.576C69.396 41.0781 68.8627 42.4093 68.6106 43.0927L67.1689 47.0218C66.3752 49.1822 64.1064 49.6593 61.796 49.5052C57.4689 49.2197 52.3564 48.4635 53.5377 45.3135C54.721 42.1635 68.9252 40.6364 69.5231 38.0281C68.4731 38.9989 65.9898 38.0281 65.9898 38.0281C64.9273 38.0572 63.3544 38.1072 62.2981 38.3468C30.8543 44.5989 33.2314 72.9177 33.2314 72.9177C33.2314 82.1218 42.8356 91.6677 52.0981 91.6677H54.1939C46.496 91.6677 39.521 82.6531 39.521 75.001C39.521 75.001 39.521 52.9531 60.7064 51.9947C66.946 51.5635 68.8419 54.0343 70.4835 58.8114C70.4919 58.8031 70.5002 58.7927 70.5085 58.7843C69.3502 55.2218 68.9794 50.6614 70.9648 43.7489C71.1835 43.1156 71.5064 41.6552 71.8023 40.6468C71.9169 40.2531 71.1919 39.8572 70.0127 39.576Z" fill="#FFCDD2"/>
<path d="M67.6379 13.4936L61.7129 11.5061C61.5254 12.079 58.2191 22.1144 56.4337 32.4999C56.4212 32.5165 56.3879 32.5207 56.3775 32.5415C56.0483 33.1894 57.0941 34.3769 58.7087 35.1894C60.2775 35.9769 61.7837 36.1186 62.1775 35.5415C62.2066 35.5728 62.242 35.5957 62.2712 35.6269C63.8462 25.0124 67.5879 13.6353 67.6379 13.4936Z" fill="#FFCC80"/>
<path d="M57.1565 9.32808L51.2294 7.34058C51.0315 7.93433 47.5856 18.5552 46.7231 30.1927C46.671 30.2697 46.6356 30.3531 46.6252 30.4406C46.5231 31.1552 47.8335 31.9364 49.5502 32.1781C51.0919 32.3947 52.4315 32.1031 52.7669 31.526C52.8085 31.5281 52.8502 31.5281 52.8898 31.5322C53.5877 20.3052 57.1106 9.46766 57.1565 9.32808Z" fill="#FFCC80"/>
<path d="M81.5376 20.5603L76.4376 16.9436C71.6793 23.6561 68.1147 30.7999 66.048 37.7457C65.7189 38.3915 66.7397 39.5665 68.3272 40.3665C69.9147 41.1665 71.473 41.2936 71.8022 40.6499C71.848 40.5582 71.8605 40.454 71.8543 40.3436C73.6814 33.7061 76.9334 27.0519 81.5376 20.5603Z" fill="#FFCC80"/>
</svg>
