<svg width="100" height="100" viewBox="0 0 100 100" fill="none" xmlns="http://www.w3.org/2000/svg">
<path d="M52.0558 18.5666C52.0558 23.7666 42.0558 27.9888 36.8891 27.9888C31.7224 27.9888 33.2224 23.7777 33.2224 18.5666C33.2224 16.0691 34.2145 13.6739 35.9805 11.908C37.7465 10.142 40.1416 9.1499 42.6391 9.1499C45.1366 9.1499 47.5317 10.142 49.2977 11.908C51.0637 13.6739 52.0558 16.0691 52.0558 18.5666Z" fill="#FFE799"/>
<path d="M51.3108 23.4773C55.4406 23.4773 58.7886 20.1294 58.7886 15.9995C58.7886 11.8696 55.4406 8.52173 51.3108 8.52173C47.1809 8.52173 43.833 11.8696 43.833 15.9995C43.833 20.1294 47.1809 23.4773 51.3108 23.4773Z" fill="#FFC859"/>
<path d="M25.4999 43.2226C30.7036 43.2226 34.9221 39.0041 34.9221 33.8004C34.9221 28.5966 30.7036 24.3782 25.4999 24.3782C20.2961 24.3782 16.0776 28.5966 16.0776 33.8004C16.0776 39.0041 20.2961 43.2226 25.4999 43.2226Z" fill="#FFE799"/>
<path d="M29.5222 30.4119C33.6521 30.4119 37 27.0639 37 22.9341C37 18.8042 33.6521 15.4563 29.5222 15.4563C25.3923 15.4563 22.0444 18.8042 22.0444 22.9341C22.0444 27.0639 25.3923 30.4119 29.5222 30.4119Z" fill="#FFE799"/>
<path d="M40.3884 39.8227C44.5183 39.8227 47.8662 36.4748 47.8662 32.345C47.8662 28.2151 44.5183 24.8672 40.3884 24.8672C36.2586 24.8672 32.9106 28.2151 32.9106 32.345C32.9106 36.4748 36.2586 39.8227 40.3884 39.8227Z" fill="#FFE799"/>
<path d="M59.4333 17.7336C63.5632 17.7336 66.9111 14.3857 66.9111 10.2559C66.9111 6.12599 63.5632 2.77808 59.4333 2.77808C55.3035 2.77808 51.9556 6.12599 51.9556 10.2559C51.9556 14.3857 55.3035 17.7336 59.4333 17.7336Z" fill="#FFE799"/>
<path d="M51.9553 27.8445C56.0852 27.8445 59.4331 24.4966 59.4331 20.3667C59.4331 16.2368 56.0852 12.8889 51.9553 12.8889C47.8255 12.8889 44.4775 16.2368 44.4775 20.3667C44.4775 24.4966 47.8255 27.8445 51.9553 27.8445Z" fill="#FFE799"/>
<path d="M66.9111 18.7778C66.9111 20.2568 66.4726 21.7025 65.6509 22.9323C64.8292 24.162 63.6614 25.1204 62.295 25.6864C60.9286 26.2524 59.4251 26.4005 57.9745 26.1119C56.524 25.8234 55.1915 25.1112 54.1458 24.0654C53.1 23.0196 52.3878 21.6872 52.0993 20.2367C51.8107 18.7861 51.9588 17.2826 52.5248 15.9162C53.0908 14.5498 54.0492 13.382 55.2789 12.5603C56.5086 11.7386 57.9544 11.3 59.4333 11.3C60.4153 11.3 61.3877 11.4935 62.295 11.8693C63.2022 12.2451 64.0266 12.7959 64.7209 13.4902C65.4153 14.1846 65.9661 15.009 66.3419 15.9162C66.7177 16.8235 66.9111 17.7958 66.9111 18.7778Z" fill="#FFE799"/>
<path d="M40.3884 38.4773C44.5183 38.4773 47.8662 35.1294 47.8662 30.9995C47.8662 26.8696 44.5183 23.5217 40.3884 23.5217C36.2586 23.5217 32.9106 26.8696 32.9106 30.9995C32.9106 35.1294 36.2586 38.4773 40.3884 38.4773Z" fill="#FFC859"/>
<path d="M60.2664 31.5774C64.3962 31.5774 67.7441 28.2295 67.7441 24.0996C67.7441 19.9697 64.3962 16.6218 60.2664 16.6218C56.1365 16.6218 52.7886 19.9697 52.7886 24.0996C52.7886 28.2295 56.1365 31.5774 60.2664 31.5774Z" fill="#FFC859"/>
<path d="M30.7888 37.8899C34.9187 37.8899 38.2666 34.542 38.2666 30.4121C38.2666 26.2822 34.9187 22.9343 30.7888 22.9343C26.659 22.9343 23.311 26.2822 23.311 30.4121C23.311 34.542 26.659 37.8899 30.7888 37.8899Z" fill="#FFC859"/>
<path d="M51.9554 40.4226C57.1592 40.4226 61.3777 36.2041 61.3777 31.0003C61.3777 25.7966 57.1592 21.5781 51.9554 21.5781C46.7517 21.5781 42.5332 25.7966 42.5332 31.0003C42.5332 36.2041 46.7517 40.4226 51.9554 40.4226Z" fill="#FFE799"/>
<path d="M65.6332 41.0117C70.8369 41.0117 75.0554 36.7932 75.0554 31.5895C75.0554 26.3857 70.8369 22.1672 65.6332 22.1672C60.4294 22.1672 56.2109 26.3857 56.2109 31.5895C56.2109 36.7932 60.4294 41.0117 65.6332 41.0117Z" fill="#FFE799"/>
<path d="M70.0927 29.5773C74.1908 29.0662 77.0986 25.3296 76.5874 21.2315C76.0762 17.1334 72.3397 14.2256 68.2416 14.7368C64.1435 15.248 61.2357 18.9845 61.7468 23.0826C62.258 27.1807 65.9946 30.0885 70.0927 29.5773Z" fill="#FFE799"/>
<path d="M76.4333 39.0681C80.5632 39.0681 83.9111 35.7202 83.9111 31.5903C83.9111 27.4605 80.5632 24.1125 76.4333 24.1125C72.3035 24.1125 68.9556 27.4605 68.9556 31.5903C68.9556 35.7202 72.3035 39.0681 76.4333 39.0681Z" fill="#FFE799"/>
<path d="M72.4666 97.2218H28.4221L17.8555 37.3218H83.0332L72.4666 97.2218Z" fill="#F04B3E"/>
<path d="M37.2335 37.3218H28.4224V97.2218H37.2335V37.3218Z" fill="#E6E7E8"/>
<path d="M54.8443 37.3218H46.0332V97.2218H54.8443V37.3218Z" fill="#E6E7E8"/>
<path d="M72.4664 37.3218H63.6553V97.2218H72.4664V37.3218Z" fill="#E6E7E8"/>
</svg>
