<svg width="100" height="100" viewBox="0 0 100 100" fill="none" xmlns="http://www.w3.org/2000/svg">
<path opacity="0.987" fill-rule="evenodd" clip-rule="evenodd" d="M78.2227 62.207C77.3972 62.3439 76.5509 62.5066 75.6837 62.6953C74.8712 63.0904 74.0899 63.5135 73.3399 63.9648C68.9786 51.5646 64.5188 39.1949 59.961 26.8555C59.3431 25.2271 58.5292 23.7299 57.5196 22.3633C57.4985 21.9174 57.3358 21.5268 57.0313 21.1914C55.8657 19.8303 54.6288 18.5281 53.3204 17.2852C52.9769 16.4757 52.6188 15.6945 52.2462 14.9414C52.1931 10.9919 54.1136 8.77838 58.0079 8.30078C60.9456 8.49744 62.8335 9.99484 63.672 12.793C63.6306 15.2007 63.6306 17.6095 63.672 20.0195C63.8321 21.3416 64.0927 22.6436 64.4532 23.9258C69.0644 36.6857 73.6542 49.4461 78.2227 62.207Z" fill="#7E5730"/>
<path opacity="0.994" fill-rule="evenodd" clip-rule="evenodd" d="M52.246 14.9409C52.6187 15.694 52.9767 16.4752 53.3203 17.2847C54.6287 18.5277 55.8656 19.8298 57.0312 21.1909C57.3357 21.5263 57.4984 21.9169 57.5195 22.3628C57.5195 22.9487 57.5195 23.5347 57.5195 24.1206C56.4126 24.1206 55.306 24.1206 54.1992 24.1206C54.1992 23.9903 54.1341 23.9253 54.0038 23.9253C41.2435 23.9253 28.4829 23.9253 15.7226 23.9253C15.5924 23.9253 15.5273 23.9903 15.5273 24.1206C14.3554 24.1206 13.1835 24.1206 12.0117 24.1206C11.9312 21.8298 12.0288 19.5511 12.3046 17.2847C12.8239 16.1144 13.7028 15.3657 14.9413 15.0386C27.3761 14.9409 39.8109 14.9084 52.246 14.9409Z" fill="#A59B91"/>
<path fill-rule="evenodd" clip-rule="evenodd" d="M15.7227 23.9258C15.7227 25.5533 15.7227 27.1811 15.7227 28.8086C28.483 28.8086 41.2436 28.8086 54.0039 28.8086C54.0039 27.1811 54.0039 25.5533 54.0039 23.9258C54.1342 23.9258 54.1992 23.9908 54.1992 24.1211C54.1992 25.7486 54.1992 27.3764 54.1992 29.0039C41.2756 29.0687 28.385 29.0037 15.5273 28.8086C15.5273 27.2461 15.5273 25.6836 15.5273 24.1211C15.5273 23.9908 15.5924 23.9258 15.7227 23.9258Z" fill="#FEC148"/>
<path fill-rule="evenodd" clip-rule="evenodd" d="M15.7227 23.9258C28.483 23.9258 41.2436 23.9258 54.0039 23.9258C54.0039 25.5533 54.0039 27.1811 54.0039 28.8086C41.2436 28.8086 28.483 28.8086 15.7227 28.8086C15.7227 27.1811 15.7227 25.5533 15.7227 23.9258Z" fill="#FEB32E"/>
<path opacity="0.997" fill-rule="evenodd" clip-rule="evenodd" d="M15.5273 28.8086C28.385 29.0037 41.2756 29.0687 54.1992 29.0039C58.9691 31.1725 61.5082 34.8834 61.8164 40.1367C61.4188 38.648 60.4422 38.1598 58.8867 38.6719C55.9125 39.7023 53.2432 41.2322 50.8789 43.2617C48.2256 41.9031 45.4912 40.6988 42.6758 39.6484C36.9678 37.8473 31.3037 37.9775 25.6836 40.0391C23.3041 41.0664 20.9604 42.1406 18.6523 43.2617C16.4682 41.3539 13.9942 39.8891 11.2305 38.8672C10.3982 38.601 9.55184 38.5359 8.69141 38.6719C8.38471 38.9447 8.1243 39.2377 7.91016 39.5508C7.9401 37.1496 8.68879 35.0012 10.1562 33.1055C11.6497 31.2725 13.4401 29.8402 15.5273 28.8086Z" fill="#FDF5AD"/>
<path fill-rule="evenodd" clip-rule="evenodd" d="M50.8789 43.2612C50.8789 46.3212 50.8789 49.381 50.8789 52.4409C48.4139 50.1532 45.4842 48.9487 42.0898 48.8277C39.2057 45.1759 35.56 44.1341 31.1523 45.7027C29.7018 46.3943 28.5299 47.4034 27.6367 48.73C24.2162 48.8462 21.2865 50.0833 18.8477 52.4409C18.9096 49.3659 18.8445 46.306 18.6523 43.2612C20.9604 42.1402 23.3041 41.0659 25.6836 40.0386C31.3037 37.9771 36.9678 37.8468 42.6758 39.648C45.4912 40.6984 48.2256 41.9027 50.8789 43.2612Z" fill="#FFB42E"/>
<path opacity="0.991" fill-rule="evenodd" clip-rule="evenodd" d="M18.6525 43.2618C18.8447 46.3066 18.9097 49.3665 18.8478 52.4415C14.0818 58.1026 13.4633 64.2224 16.9923 70.8009C17.5655 71.6235 18.184 72.4048 18.8478 73.1446C18.8153 77.9628 18.8478 82.7806 18.9455 87.5978C19.4603 88.7952 20.2742 89.7066 21.3869 90.3321C19.1891 89.9489 17.1708 89.1351 15.3322 87.8907C13.459 86.4493 11.6035 84.9845 9.76579 83.4962C9.09293 82.6066 8.57209 81.63 8.20329 80.5665C7.91352 66.9019 7.81586 53.23 7.91032 39.5509C8.12446 39.2378 8.38487 38.9448 8.69157 38.672C9.552 38.536 10.3984 38.6011 11.2306 38.8673C13.9944 39.8892 16.4683 41.354 18.6525 43.2618Z" fill="#FF9200"/>
<path opacity="0.983" fill-rule="evenodd" clip-rule="evenodd" d="M61.8164 40.1366C61.849 53.0274 61.8164 65.918 61.7187 78.8084C61.4902 81.251 60.416 83.2366 58.4961 84.7655C56.2867 86.5217 53.943 88.0842 51.4648 89.453C50.5217 89.8354 49.5451 90.0631 48.5352 90.1366C49.7072 89.4276 50.4559 88.386 50.7812 87.0116C50.8789 82.3897 50.9115 77.7672 50.8789 73.1444C54.8291 68.4567 55.8383 63.1832 53.9062 57.3241C53.191 55.5008 52.182 53.8733 50.8789 52.4412C50.8789 49.3813 50.8789 46.3215 50.8789 43.2616C53.2432 41.2321 55.9125 39.7022 58.8867 38.6717C60.4422 38.1596 61.4187 38.6479 61.8164 40.1366Z" fill="#FF9200"/>
<path fill-rule="evenodd" clip-rule="evenodd" d="M50.879 52.4413C52.1822 53.8733 53.1911 55.5009 53.9064 57.3241C55.8384 63.1833 54.8292 68.4567 50.879 73.1444C48.4048 75.4222 45.4751 76.6266 42.09 76.7577C39.4044 80.2136 35.9538 81.3204 31.7384 80.078C30.0486 79.3954 28.6814 78.3212 27.6368 76.8554C24.2163 76.7391 21.2866 75.502 18.8478 73.1444C18.1839 72.4046 17.5654 71.6233 16.9923 70.8007C13.4633 64.2222 14.0818 58.1024 18.8478 52.4413C21.2866 50.0837 24.2163 48.8466 27.6368 48.7304C28.53 47.4038 29.7019 46.3946 31.1525 45.703C35.5601 44.1345 39.2058 45.1763 42.09 48.828C45.4843 48.9491 48.414 50.1536 50.879 52.4413Z" fill="#FEED57"/>
<path fill-rule="evenodd" clip-rule="evenodd" d="M33.6912 56.9335C33.7117 57.7241 33.6466 58.5054 33.4958 59.2772C33.1593 59.6196 32.8663 60.0103 32.6169 60.4491C32.1576 60.7479 31.7343 61.0735 31.3474 61.4257C30.5501 61.5022 29.7689 61.6323 29.0037 61.8163C28.3087 61.4151 27.6902 60.8944 27.1482 60.2538C26.7636 59.5249 26.5683 58.7437 26.5622 57.9101C26.2896 57.2687 25.8013 56.9431 25.0974 56.9335C24.524 57.1579 23.938 57.2556 23.3396 57.2265C22.2486 56.363 22.3136 55.5817 23.5349 54.8827C24.0054 54.7001 24.4937 54.6024 24.9997 54.5897C25.8501 54.6813 26.664 54.844 27.4412 55.078C26.8822 53.939 26.7193 52.7347 26.9529 51.4647C27.4931 50.1903 28.2744 49.995 29.2966 50.8788C29.3728 51.531 29.3404 52.1821 29.199 52.8319C29.2019 53.2487 29.2996 53.6394 29.4919 54.0038C30.5251 54.2696 31.5343 54.6278 32.5193 55.078C33.1339 55.5593 33.5246 56.1776 33.6912 56.9335Z" fill="#805931"/>
<path fill-rule="evenodd" clip-rule="evenodd" d="M42.8711 62.5977C41.5604 62.6393 40.2584 62.5742 38.9648 62.4023C37.6211 61.8607 36.3189 61.2096 35.0586 60.4492C34.4824 60.1338 33.9617 59.7432 33.4961 59.2773C33.6469 58.5055 33.7119 57.7242 33.6914 56.9336C37.2957 55.3549 40.8764 55.3873 44.4336 57.0313C46.4896 58.3867 46.685 59.9492 45.0195 61.7188C44.2943 62.0436 43.5781 62.3365 42.8711 62.5977Z" fill="#A69C91"/>
<path fill-rule="evenodd" clip-rule="evenodd" d="M33.4961 59.2773C33.9617 59.7432 34.4824 60.1338 35.0586 60.4492C34.3504 61.4182 33.5691 62.3297 32.7148 63.1836C32.3062 62.5623 31.8506 61.9764 31.3477 61.4258C31.7346 61.0736 32.1578 60.748 32.6172 60.4492C32.8666 60.0104 33.1596 59.6197 33.4961 59.2773Z" fill="#FAB130"/>
<path fill-rule="evenodd" clip-rule="evenodd" d="M35.0586 60.4492C36.3189 61.2096 37.6211 61.8607 38.9648 62.4023C37.7305 64.2225 36.2332 65.785 34.4727 67.0898C33.999 65.751 33.4131 64.4488 32.7148 63.1836C33.5691 62.3297 34.3504 61.4182 35.0586 60.4492Z" fill="#805932"/>
<path fill-rule="evenodd" clip-rule="evenodd" d="M31.3478 61.4258C31.8508 61.9764 32.3064 62.5623 32.715 63.1836C33.4133 64.4488 33.9992 65.751 34.4728 67.0898C34.6351 68.385 34.7002 69.6871 34.6681 70.9961C34.4197 72.3689 33.7037 73.4432 32.5197 74.2187C31.101 74.5023 30.0267 74.0141 29.297 72.7539C27.4455 69.1631 27.3478 65.5172 29.0041 61.8164C29.7693 61.6324 30.5506 61.5023 31.3478 61.4258Z" fill="#A69C91"/>
<path opacity="0.981" fill-rule="evenodd" clip-rule="evenodd" d="M84.2774 64.5508C80.0952 65.9549 75.9286 67.4197 71.7774 68.9453C71.3128 69.0852 70.9221 69.3131 70.6055 69.6289C69.7237 70.1604 68.91 70.0953 68.1641 69.4336C67.8428 68.4619 68.1358 67.7783 69.043 67.3828C69.8719 67.0307 70.7184 66.7377 71.5821 66.5039C74.9194 65.4143 78.1747 64.1771 81.3477 62.793C82.4108 62.4496 83.485 62.124 84.5704 61.8164C85.8516 62.1586 86.1446 62.9072 85.4493 64.0625C85.0768 64.2816 84.6862 64.4443 84.2774 64.5508Z" fill="#C78A47"/>
<path opacity="0.968" fill-rule="evenodd" clip-rule="evenodd" d="M78.2227 62.207C79.2887 62.2783 80.3305 62.4736 81.3477 62.793C78.1746 64.1771 74.9193 65.4143 71.582 66.5039C72.0918 65.6037 72.6777 64.7574 73.3398 63.9648C74.0898 63.5135 74.8711 63.0904 75.6836 62.6953C76.5508 62.5066 77.3971 62.3439 78.2227 62.207Z" fill="#A5723C"/>
<path fill-rule="evenodd" clip-rule="evenodd" d="M38.9648 62.4023C40.2584 62.5742 41.5604 62.6393 42.8711 62.5977C42.8711 62.858 42.8711 63.1186 42.8711 63.3789C41.3148 66.823 38.8408 69.3621 35.4492 70.9961C35.1889 70.9961 34.9283 70.9961 34.668 70.9961C34.7 69.6871 34.635 68.385 34.4727 67.0898C36.2332 65.785 37.7305 64.2225 38.9648 62.4023Z" fill="#FDB32E"/>
<path fill-rule="evenodd" clip-rule="evenodd" d="M42.8711 63.3789C43.1166 65.1631 43.1166 66.9535 42.8711 68.75C43.0945 69.7414 43.3875 70.6854 43.75 71.582C43.593 71.8367 43.365 71.967 43.0664 71.9727C42.4752 71.8045 41.9543 71.5115 41.5039 71.0938C39.4549 71.2064 37.4367 71.1738 35.4492 70.9961C38.8408 69.3621 41.3148 66.823 42.8711 63.3789Z" fill="#835C32"/>
<path opacity="0.989" fill-rule="evenodd" clip-rule="evenodd" d="M84.2774 64.5508C84.5377 64.8764 84.7983 65.2018 85.0586 65.5273C80.251 67.4996 75.3682 69.3225 70.4102 70.9961C70.4001 70.5268 70.4651 70.0711 70.6055 69.6289C70.9221 69.3131 71.3127 69.0852 71.7774 68.9453C75.9286 67.4197 80.0952 65.9549 84.2774 64.5508Z" fill="#A7733C"/>
<path opacity="0.985" fill-rule="evenodd" clip-rule="evenodd" d="M87.0117 67.6758C81.3582 69.4311 75.8244 71.4494 70.4101 73.7305C69.722 74.0404 69.0058 74.1381 68.2617 74.0234C67.2337 73.2689 67.2337 72.4877 68.2617 71.6797C68.9753 71.4309 69.6914 71.2031 70.4101 70.9961C75.3681 69.3225 80.2509 67.4996 85.0585 65.5273C85.9015 65.2682 86.7478 65.0078 87.5976 64.7461C88.6896 64.9709 89.0478 65.6219 88.6718 66.6992C88.1941 67.1516 87.6408 67.4771 87.0117 67.6758Z" fill="#C78A47"/>
<path opacity="0.991" fill-rule="evenodd" clip-rule="evenodd" d="M87.0117 67.6758C87.1578 68.0336 87.3532 68.3592 87.5977 68.6523C82.0061 70.8857 76.342 72.9689 70.6055 74.9023C70.4412 74.5354 70.376 74.1447 70.4102 73.7305C75.8244 71.4494 81.3582 69.4311 87.0117 67.6758Z" fill="#A6733C"/>
<path opacity="0.988" fill-rule="evenodd" clip-rule="evenodd" d="M88.7695 70.9961C82.8421 72.9932 76.9828 75.1416 71.1914 77.4414C70.596 77.6941 69.9775 77.8895 69.3359 78.0273C68.314 77.8732 67.9234 77.2873 68.164 76.2695C68.2548 75.99 68.4177 75.7623 68.6523 75.5859C69.3162 75.3756 69.9673 75.1477 70.6054 74.9023C76.3419 72.9689 82.006 70.8857 87.5976 68.6523C88.2724 68.4383 88.956 68.243 89.6484 68.0664C90.8669 68.3557 91.1923 69.0719 90.6249 70.2148C90.0607 70.609 89.4423 70.8693 88.7695 70.9961Z" fill="#C78A47"/>
<path opacity="0.993" fill-rule="evenodd" clip-rule="evenodd" d="M88.7695 70.9961C89.0098 71.3471 89.1398 71.7377 89.1602 72.168C83.31 74.4725 77.3855 76.6209 71.3867 78.6133C71.3217 78.2227 71.2564 77.832 71.1914 77.4414C76.9828 75.1416 82.8422 72.9932 88.7695 70.9961Z" fill="#A7733C"/>
<path opacity="0.988" fill-rule="evenodd" clip-rule="evenodd" d="M89.9415 74.5117C84.0874 76.5492 78.2931 78.6977 72.5587 80.957C71.703 81.4266 70.7917 81.5893 69.8243 81.4453C69.2235 80.9352 69.0933 80.3166 69.4337 79.5898C70.0354 79.1588 70.6864 78.8332 71.3868 78.6133C77.3856 76.6209 83.3101 74.4725 89.1602 72.168C89.7835 71.8953 90.4345 71.7 91.1134 71.582C92.2061 71.7926 92.5642 72.4438 92.1876 73.5352C91.5536 74.1053 90.8048 74.4309 89.9415 74.5117Z" fill="#C78A47"/>
<path opacity="0.991" fill-rule="evenodd" clip-rule="evenodd" d="M18.8477 73.1445C21.2865 75.5021 24.2162 76.7393 27.6367 76.8555C28.6812 78.3213 30.0484 79.3955 31.7383 80.0781C35.9537 81.3205 39.4043 80.2137 42.0898 76.7578C45.475 76.6268 48.4047 75.4223 50.8789 73.1445C50.9115 77.7674 50.8789 82.3898 50.7812 87.0117C50.4559 88.3861 49.7072 89.4277 48.5352 90.1367C48.2516 90.2934 47.9262 90.391 47.5586 90.4297C38.8303 90.5885 30.1062 90.5559 21.3867 90.332C20.274 89.7064 19.4601 88.7951 18.9453 87.5977C18.8477 82.7805 18.8151 77.9627 18.8477 73.1445Z" fill="#FFB42D"/>
<path opacity="0.992" fill-rule="evenodd" clip-rule="evenodd" d="M89.9414 74.5117C90.0377 74.9621 90.1027 75.4178 90.1367 75.8789C84.5174 78.0348 78.8533 80.118 73.1445 82.1289C72.9492 81.7383 72.7539 81.3477 72.5586 80.957C78.293 78.6977 84.0873 76.5492 89.9414 74.5117Z" fill="#A7733C"/>
<path opacity="0.986" fill-rule="evenodd" clip-rule="evenodd" d="M90.3319 78.418C85.0569 80.2621 79.8485 82.2152 74.7069 84.2773C73.976 84.5316 73.2274 84.727 72.4608 84.8633C71.1889 84.6299 70.8633 83.9139 71.4842 82.7148C72.0168 82.4613 72.5701 82.266 73.1444 82.1289C78.8531 80.118 84.5172 78.0348 90.1365 75.8789C90.677 75.666 91.2305 75.4707 91.7967 75.293C93.1762 75.793 93.4041 76.6068 92.4803 77.7344C91.7926 78.0613 91.0766 78.2891 90.3319 78.418Z" fill="#C78A47"/>
<path opacity="0.987" fill-rule="evenodd" clip-rule="evenodd" d="M90.332 78.418C90.332 78.8736 90.332 79.3295 90.332 79.7852C85.4941 81.6805 80.6113 83.5035 75.6836 85.2539C75.4232 84.8633 75.0977 84.5377 74.707 84.2773C79.8486 82.2152 85.057 80.2621 90.332 78.418Z" fill="#A7733C"/>
<path opacity="0.984" fill-rule="evenodd" clip-rule="evenodd" d="M89.5507 82.9099C85.6763 84.0492 81.9001 85.4164 78.2226 87.0115C77.2366 87.3943 76.2277 87.7199 75.1952 87.9881C73.9767 87.6988 73.6513 86.9826 74.2187 85.8396C74.6552 85.5072 75.1435 85.3119 75.6835 85.2537C80.6112 83.5033 85.4941 81.6802 90.332 79.7849C91.2573 79.1767 92.0712 79.3068 92.7734 80.1756C92.955 80.8299 92.7923 81.3832 92.2851 81.8357C91.3603 82.1761 90.4487 82.5343 89.5507 82.9099Z" fill="#C78A47"/>
<path opacity="0.959" fill-rule="evenodd" clip-rule="evenodd" d="M89.5508 82.9102C87.6904 87.709 84.3051 89.3041 79.3945 87.6953C78.9596 87.5115 78.5689 87.2836 78.2227 87.0117C81.9002 85.4166 85.6764 84.0494 89.5508 82.9102Z" fill="#A6733C"/>
</svg>
