<svg width="100" height="100" viewBox="0 0 100 100" fill="none" xmlns="http://www.w3.org/2000/svg">
<path d="M55.8414 29.1675L55.1789 28.2175C54.9352 27.8238 52.7831 24.2633 52.7831 20.8675C52.7831 18.8279 53.5664 17.5654 54.1372 16.6467C54.5914 15.9133 54.8664 15.4738 54.8664 14.6175C54.8664 12.7467 53.5893 10.2633 53.0935 9.46335L52.5039 8.50918L56.0372 6.31543L56.6352 7.26543C56.8789 7.65918 59.031 11.2196 59.031 14.6154C59.031 16.6571 58.2477 17.9196 57.6768 18.8404C57.2227 19.5717 56.9477 20.0133 56.9477 20.8654C56.9477 22.7363 58.2247 25.2196 58.7206 26.0196L59.3747 26.9738L55.8414 29.1675Z" fill="#BCAAA4"/>
<path d="M45.4566 29.1675L44.7941 28.2175C44.5504 27.8238 42.3983 24.2633 42.3983 20.8675C42.3983 18.8279 43.1816 17.5654 43.7525 16.6467C44.2066 15.9133 44.4816 15.4738 44.4816 14.6175C44.4816 12.7467 43.2046 10.2633 42.7087 9.46335L42.1191 8.50918L45.6525 6.31543L46.2504 7.26543C46.4941 7.65918 48.6462 11.2196 48.6462 14.6154C48.6462 16.6571 47.8629 17.9196 47.2921 18.8404C46.8379 19.5717 46.5629 20.0133 46.5629 20.8654C46.5629 22.7363 47.84 25.2196 48.3358 26.0196L48.99 26.9738L45.4566 29.1675Z" fill="#BCAAA4"/>
<path d="M35.0729 29.1675L34.4104 28.2175C34.1666 27.8238 32.0145 24.2633 32.0145 20.8675C32.0145 18.8279 32.7979 17.5654 33.3687 16.6467C33.8229 15.9133 34.0979 15.4738 34.0979 14.6175C34.0979 12.7467 32.8208 10.2633 32.3249 9.46335L31.7354 8.50918L35.2687 6.31543L35.8666 7.26543C36.1104 7.65918 38.2624 11.2196 38.2624 14.6154C38.2624 16.6571 37.4791 17.9196 36.9083 18.8404C36.4541 19.5717 36.1791 20.0133 36.1791 20.8654C36.1791 22.7363 37.4562 25.2196 37.952 26.0196L38.6062 26.9738L35.0729 29.1675Z" fill="#BCAAA4"/>
<path d="M70.8337 58.7803C70.8337 54.6136 67.8357 52.0845 64.1357 52.0845H56.6962C52.9982 52.0845 50.0003 55.0803 50.0003 58.7803L47.917 62.5011C47.917 66.1991 50.9149 69.197 54.6128 69.197H62.0524C66.667 69.197 70.8337 62.947 70.8337 58.7803Z" stroke="#1E88E5" stroke-width="22"/>
<path d="M45.8337 85.4178C48.1348 85.4178 50.0003 83.5523 50.0003 81.2511C50.0003 78.95 48.1348 77.0845 45.8337 77.0845C43.5325 77.0845 41.667 78.95 41.667 81.2511C41.667 83.5523 43.5325 85.4178 45.8337 85.4178Z" fill="#1E88E5"/>
<path d="M58.3335 91.6689C57.4564 88.1356 52.2002 85.4189 45.8335 85.4189C39.4668 85.4189 34.2106 88.1356 33.3335 91.6689H58.3335Z" fill="#1E88E5"/>
<path d="M28.2979 35.4155L31.4812 62.7072C31.4812 70.6468 37.9166 77.0822 45.8562 77.0822C53.7999 77.0822 60.2354 70.6447 60.2354 62.7072L63.3812 35.4155H28.2979Z" fill="#754138"/>
<path d="M63.3835 35.4187L64.5835 25H27.0835L28.2981 35.4187H63.3835Z" fill="#90CAF9"/>
</svg>
