<svg width="100" height="100" viewBox="0 0 100 100" fill="none" xmlns="http://www.w3.org/2000/svg">
<path opacity="0.985" fill-rule="evenodd" clip-rule="evenodd" d="M85.6444 3.0275C89.8075 2.45568 92.8348 4.01818 94.7264 7.715C94.887 8.16197 95.0173 8.61769 95.1171 9.08218C95.2473 15.5926 95.2473 22.1031 95.1171 28.6134C94.0708 38.8392 90.2946 47.8886 83.7889 55.7619C74.5766 65.2345 65.2343 74.5769 55.7616 83.7892C47.8382 90.3525 38.7237 94.1287 28.4179 95.1173C21.9725 95.2476 15.5272 95.2476 9.08192 95.1173C5.92436 94.3035 3.93869 92.3179 3.12489 89.1603C2.45698 84.9947 3.98692 81.9673 7.71473 80.0783C8.1617 79.9177 8.61742 79.7875 9.08192 79.6877C13.5503 79.9336 17.5867 78.7617 21.1913 76.172C39.518 57.8453 57.845 39.5183 76.1718 21.1916C78.761 17.5878 79.9329 13.5514 79.6874 9.08218C80.5368 5.92175 82.5225 3.90351 85.6444 3.0275Z" fill="#69A041"/>
<path fill-rule="evenodd" clip-rule="evenodd" d="M91.8945 23.3406C90.89 19.4078 88.351 17.3244 84.2773 17.0906C83.5518 17.0756 82.8357 17.1407 82.1289 17.2859C82.007 17.2045 81.942 17.0743 81.9336 16.8953C82.5811 14.5323 82.874 12.1234 82.8125 9.66874C84.0943 6.50489 86.3404 5.49577 89.5508 6.6414C90.9045 7.40716 91.7184 8.54647 91.9922 10.0594C92.1543 14.5197 92.1217 18.9468 91.8945 23.3406Z" fill="#4B8C41"/>
<path fill-rule="evenodd" clip-rule="evenodd" d="M84.2774 17.0898C88.351 17.3237 90.89 19.407 91.8945 23.3398C92.1463 24.6557 92.0813 25.9576 91.6992 27.2461C90.5729 30.483 88.2943 32.3385 84.8633 32.8125C87.0121 34.7988 88.3143 37.2402 88.7695 40.1367C88.8324 40.9662 88.6697 41.7475 88.2813 42.4805C86.525 46.2568 84.3766 49.7725 81.8359 53.0273C81.4121 53.4811 80.9238 53.8066 80.3711 54.0039C76.8022 55.0967 73.4168 54.7061 70.2148 52.832C70.1498 52.8971 70.0846 52.9623 70.0195 53.0273C71.975 56.4482 72.3004 60.0289 70.9961 63.7695C68.7777 66.3785 66.3689 68.7873 63.7695 70.9961C60.6965 72.0559 57.6365 72.0232 54.5898 70.8984C54.0373 70.6549 53.5166 70.3619 53.0273 70.0195C52.9623 70.0846 52.8971 70.1498 52.832 70.2148C54.7008 73.4189 55.0914 76.8043 54.0039 80.3711C53.8066 80.9238 53.4811 81.4121 53.0273 81.8359C49.69 84.5148 46.0441 86.7285 42.0898 88.4766C41.4598 88.7107 40.8088 88.8084 40.1367 88.7695C37.2402 88.3143 34.7988 87.0121 32.8125 84.8633C32.8314 87.5111 31.9525 89.7898 30.1758 91.6992C26.785 92.0881 23.3994 92.1533 20.0195 91.8945C18.1598 90.323 17.1832 88.3047 17.0898 85.8398C23.4094 86.9422 26.0137 84.3379 24.9023 78.0273C26.7375 78.1289 28.3977 78.7148 29.8828 79.7852C29.7779 78.6895 29.6803 77.5828 29.5898 76.4648C31.9996 76.4975 34.4084 76.4648 36.8164 76.3672C39.7135 75.8139 41.4389 74.0885 41.9922 71.1914C42.0898 68.7834 42.1225 66.3746 42.0898 63.9648C44.2273 64.0043 46.2455 64.525 48.1445 65.5273C48.2096 65.4623 48.2748 65.3971 48.3398 65.332C47.3387 63.4355 46.8178 61.4174 46.7773 59.2773C49.1871 59.31 51.5959 59.2773 54.0039 59.1797C56.901 58.6264 58.6264 56.901 59.1797 54.0039C59.2773 51.5959 59.31 49.1871 59.2773 46.7773C61.4148 46.8168 63.433 47.3375 65.332 48.3398C65.3971 48.2748 65.4623 48.2096 65.5273 48.1445C64.5262 46.248 64.0053 44.2299 63.9648 42.0898C66.3746 42.1225 68.7834 42.0898 71.1914 41.9922C74.0885 41.4389 75.8139 39.7135 76.3672 36.8164C76.4648 34.4084 76.4975 31.9996 76.4648 29.5898C77.0406 29.6242 77.5613 29.6242 78.0273 29.5898C77.1785 28.4139 76.6576 27.1119 76.4648 25.6836C76.6602 25.358 76.9205 25.0977 77.2461 24.9023C78.974 25.0246 80.6668 24.8619 82.3242 24.4141C83.2482 23.8367 83.8668 23.0229 84.1797 21.9727C84.2774 20.3463 84.3098 18.7188 84.2774 17.0898Z" fill="#90B845"/>
<path fill-rule="evenodd" clip-rule="evenodd" d="M84.2773 17.0895C84.3098 18.7184 84.2773 20.346 84.1797 21.9723C83.8668 23.0225 83.2482 23.8364 82.3242 24.4137C80.6668 24.8616 78.974 25.0243 77.2461 24.902C77.9533 23.9659 78.702 23.0544 79.4922 22.1676C80.3795 20.5217 81.2584 18.8942 82.1289 17.2848C82.8357 17.1396 83.5518 17.0745 84.2773 17.0895Z" fill="#AED662"/>
<path fill-rule="evenodd" clip-rule="evenodd" d="M76.4648 25.6836C76.6576 27.1119 77.1785 28.4139 78.0273 29.5898C77.5613 29.6242 77.0406 29.6242 76.4648 29.5898C74.8484 29.5385 73.2859 29.7988 71.7773 30.3711C73.2748 28.7436 74.8373 27.1811 76.4648 25.6836Z" fill="#4C8C41"/>
<path fill-rule="evenodd" clip-rule="evenodd" d="M91.6992 27.2461C91.6455 31.7914 90.7666 36.2186 89.0625 40.5273C89.0082 40.3484 88.9105 40.2184 88.7695 40.1367C88.3143 37.2402 87.0121 34.7988 84.8633 32.8125C88.2943 32.3385 90.5729 30.483 91.6992 27.2461Z" fill="#4C8C41"/>
<path fill-rule="evenodd" clip-rule="evenodd" d="M76.4646 29.5898C76.4972 31.9996 76.4646 34.4084 76.3669 36.8164C75.8136 39.7135 74.0882 41.4389 71.1911 41.9922C68.7831 42.0898 66.3743 42.1225 63.9646 42.0898C63.9484 40.4789 64.2087 38.9164 64.7458 37.4023C67.0245 34.9936 69.3683 32.6498 71.7771 30.3711C73.2857 29.7988 74.8482 29.5385 76.4646 29.5898Z" fill="#AED663"/>
<path fill-rule="evenodd" clip-rule="evenodd" d="M70.215 34.2773C72.66 34.2783 73.6039 35.4502 73.0471 37.793C71.6732 39.3385 70.306 39.3385 68.9455 37.793C68.3244 36.2367 68.7476 35.0648 70.215 34.2773Z" fill="#FDFEDE"/>
<path fill-rule="evenodd" clip-rule="evenodd" d="M64.7461 37.4023C64.209 38.9164 63.9486 40.4789 63.9648 42.0898C64.0053 44.2299 64.5262 46.248 65.5273 48.1445C65.4623 48.2096 65.3971 48.2748 65.332 48.3398C63.433 47.3375 61.4148 46.8168 59.2773 46.7773C57.6609 46.726 56.0984 46.9863 54.5898 47.5586C57.9102 44.108 61.2955 40.7227 64.7461 37.4023Z" fill="#4B8C41"/>
<path fill-rule="evenodd" clip-rule="evenodd" d="M59.2771 46.7773C59.3097 49.1871 59.2771 51.5959 59.1794 54.0039C58.6261 56.901 56.9007 58.6264 54.0036 59.1797C51.5956 59.2773 49.1868 59.31 46.7771 59.2773C46.7609 57.6664 47.0212 56.1039 47.5583 54.5898C49.837 52.1811 52.1808 49.8373 54.5896 47.5586C56.0982 46.9863 57.6607 46.726 59.2771 46.7773Z" fill="#AED663"/>
<path fill-rule="evenodd" clip-rule="evenodd" d="M53.0275 51.4648C55.4725 51.4658 56.4164 52.6377 55.8596 54.9805C54.4857 56.526 53.1185 56.526 51.758 54.9805C51.1369 53.4242 51.5601 52.2523 53.0275 51.4648Z" fill="#FDFEDE"/>
<path fill-rule="evenodd" clip-rule="evenodd" d="M80.3711 54.0039C80.6695 54.0072 80.7672 54.1375 80.6641 54.3945C77.4676 57.691 74.2449 60.816 70.9961 63.7695C72.3004 60.0289 71.975 56.4482 70.0195 53.0273C70.0846 52.9623 70.1498 52.8971 70.2148 52.832C73.4168 54.7061 76.8021 55.0967 80.3711 54.0039Z" fill="#4B8C41"/>
<path fill-rule="evenodd" clip-rule="evenodd" d="M47.5586 54.5898C47.0215 56.1039 46.7611 57.6664 46.7773 59.2773C46.8178 61.4174 47.3387 63.4355 48.3398 65.332C48.2748 65.3971 48.2096 65.4623 48.1445 65.5273C46.2455 64.525 44.2273 64.0043 42.0898 63.9648C40.4734 63.9135 38.9109 64.1738 37.4023 64.7461C40.7227 61.2955 44.108 57.9102 47.5586 54.5898Z" fill="#4B8C41"/>
<path fill-rule="evenodd" clip-rule="evenodd" d="M42.0896 63.9648C42.1222 66.3746 42.0896 68.7834 41.9919 71.1914C41.4386 74.0885 39.7132 75.8139 36.8161 76.3672C34.4081 76.4648 31.9993 76.4975 29.5896 76.4648C29.5734 74.8539 29.8337 73.2914 30.3708 71.7773C32.6495 69.3686 34.9933 67.0248 37.4021 64.7461C38.9107 64.1738 40.4732 63.9135 42.0896 63.9648Z" fill="#AED663"/>
<path fill-rule="evenodd" clip-rule="evenodd" d="M35.84 68.6523C38.285 68.6533 39.2289 69.8252 38.6721 72.168C37.2982 73.7135 35.931 73.7135 34.5705 72.168C33.9494 70.6117 34.3726 69.4398 35.84 68.6523Z" fill="#FDFEDE"/>
<path fill-rule="evenodd" clip-rule="evenodd" d="M63.7695 70.9961C60.816 74.2449 57.691 77.4676 54.3945 80.6641C54.1375 80.7672 54.0072 80.6695 54.0039 80.3711C55.0914 76.8043 54.7008 73.4189 52.832 70.2148C52.8971 70.1498 52.9623 70.0846 53.0273 70.0195C53.5166 70.3619 54.0373 70.6549 54.5898 70.8984C57.6365 72.0232 60.6965 72.0559 63.7695 70.9961Z" fill="#4B8C41"/>
<path fill-rule="evenodd" clip-rule="evenodd" d="M30.3711 71.7773C29.834 73.2914 29.5736 74.8539 29.5898 76.4648C29.6803 77.5828 29.7779 78.6895 29.8828 79.7852C28.3977 78.7148 26.7375 78.1289 24.9023 78.0273C24.642 78.0273 24.3814 78.0273 24.1211 78.0273C26.1393 75.8789 28.2227 73.7955 30.3711 71.7773Z" fill="#4C8C41"/>
<path fill-rule="evenodd" clip-rule="evenodd" d="M24.1212 78.0273C24.3815 78.0273 24.6421 78.0273 24.9024 78.0273C26.0137 84.3379 23.4094 86.9422 17.0899 85.8398C17.0562 84.2813 17.4468 82.849 18.2618 81.543C20.4028 80.6684 22.3559 79.4965 24.1212 78.0273Z" fill="#AED662"/>
<path fill-rule="evenodd" clip-rule="evenodd" d="M18.2618 81.543C17.4468 82.849 17.0562 84.2812 17.0899 85.8398C17.1833 88.3047 18.1598 90.323 20.0196 91.8945C16.6026 92.1215 13.152 92.1541 9.66804 91.9922C6.70066 90.8375 5.62644 88.7215 6.44538 85.6445C7.15689 84.2816 8.2311 83.3377 9.66804 82.8125C12.6106 82.8902 15.4751 82.4672 18.2618 81.543Z" fill="#4B8C41"/>
<path fill-rule="evenodd" clip-rule="evenodd" d="M40.1367 88.7695C40.2184 88.9105 40.3484 89.0082 40.5273 89.0625C37.1947 90.4002 33.7441 91.2791 30.1758 91.6992C31.9525 89.7898 32.8314 87.5111 32.8125 84.8633C34.7988 87.0121 37.2402 88.3143 40.1367 88.7695Z" fill="#4C8C41"/>
</svg>
