<svg width="100" height="100" viewBox="0 0 100 100" fill="none" xmlns="http://www.w3.org/2000/svg">
<path opacity="0.995" fill-rule="evenodd" clip-rule="evenodd" d="M64.385 7.03931C62.9942 10.3175 61.5526 13.5753 60.0605 16.8127C60.0999 16.8817 60.1577 16.9105 60.2335 16.8992C57.6189 17.5028 54.9664 18.0217 52.2764 18.456C53.3405 14.9494 54.3784 11.4322 55.39 7.90421C58.3345 7.06301 61.3329 6.77471 64.385 7.03931Z" fill="#506D3C"/>
<path opacity="0.992" fill-rule="evenodd" clip-rule="evenodd" d="M64.3851 7.04004C67.2347 7.43307 69.9448 8.24032 72.5151 9.46176C71.3619 11.3645 70.2088 13.2673 69.0555 15.1701C66.1268 15.8024 63.1861 16.379 60.2335 16.8999C60.1578 16.9112 60.1 16.8824 60.0605 16.8134C61.5527 13.576 62.9943 10.3182 64.3851 7.04004Z" fill="#678150"/>
<path opacity="0.988" fill-rule="evenodd" clip-rule="evenodd" d="M55.3901 7.90332C54.3785 11.4313 53.3406 14.9486 52.2765 18.4551C50.6951 18.8639 49.0805 19.2099 47.433 19.493C47.104 18.4241 46.931 17.3285 46.9141 16.2064C47.0108 14.0239 47.8757 12.2076 49.5088 10.7575C51.2611 9.3913 53.2216 8.43991 55.3901 7.90332Z" fill="#678150"/>
<path opacity="0.979" fill-rule="evenodd" clip-rule="evenodd" d="M72.5153 9.46143C76.3243 10.5692 80.1876 11.4341 84.105 12.0561C79.1166 13.1347 74.1001 14.1725 69.0557 15.1698C70.2089 13.267 71.362 11.3642 72.5153 9.46143Z" fill="#4F6C3B"/>
<path fill-rule="evenodd" clip-rule="evenodd" d="M84.1047 12.0552C84.7383 12.1333 85.3726 12.2198 86.0074 12.3146C85.8642 12.6593 85.6336 12.9187 85.3155 13.0931C84.3477 13.1369 83.4252 13.3099 82.5478 13.612C78.1022 14.455 73.6625 15.3199 69.2283 16.2067C66.0825 16.7551 62.9689 17.3894 59.8874 18.1095C57.4615 18.5485 55.0398 19.0098 52.6222 19.4933C51.0407 19.7978 49.4838 20.1437 47.9517 20.5312C47.1761 20.5184 46.4266 20.6337 45.703 20.8772C44.7708 21.006 43.8483 21.1789 42.9353 21.3961C42.8083 21.1578 42.693 20.8984 42.5894 20.6177C42.7478 20.5695 42.863 20.4831 42.9353 20.3582C43.7296 20.2922 44.4792 20.1192 45.1841 19.8393C45.9542 19.8166 46.7039 19.7013 47.4328 19.4933C49.0803 19.2102 50.6949 18.8643 52.2763 18.4555C54.9663 18.0211 57.6188 17.5022 60.2334 16.8986C63.186 16.3777 66.1266 15.8011 69.0554 15.1688C74.0998 14.1716 79.1162 13.1337 84.1047 12.0552Z" fill="#3D5529"/>
<path fill-rule="evenodd" clip-rule="evenodd" d="M41.0329 16.7265C41.5627 17.9124 42.0239 19.1233 42.4167 20.3591C42.5897 20.3591 42.7627 20.3591 42.9357 20.3591C42.8634 20.4839 42.7482 20.5704 42.5897 20.6186C42.6933 20.8992 42.8087 21.1587 42.9357 21.397C43.6724 23.6525 44.1914 25.9588 44.4925 28.3162C43.5133 28.3866 42.533 28.4442 41.5518 28.4892C41.3002 26.0571 40.7525 23.6929 39.9085 21.397C38.8063 18.5589 37.5666 15.7912 36.1895 13.0939C37.0668 12.7634 37.9893 12.6193 38.9571 12.6615C39.7641 13.9582 40.456 15.3132 41.0329 16.7265Z" fill="#995B3F"/>
<path opacity="0.993" fill-rule="evenodd" clip-rule="evenodd" d="M36.1893 13.0928C37.5664 15.7901 38.8061 18.5578 39.9083 21.3958C40.7523 23.6918 41.3 26.0559 41.5516 28.488C40.5958 28.5436 39.6731 28.486 38.784 28.315C38.4359 24.7626 37.3116 21.4759 35.4108 18.4552C34.8852 17.6154 34.2797 16.8658 33.5946 16.2064C33.0222 15.4601 32.4454 14.7105 31.8647 13.9577C33.2842 13.5585 34.7258 13.2701 36.1893 13.0928Z" fill="#9E6F58"/>
<path opacity="0.998" fill-rule="evenodd" clip-rule="evenodd" d="M82.548 13.6128C79.4515 15.6517 76.1649 17.3815 72.6881 18.8022C71.4683 18.02 70.315 17.1551 69.2285 16.2075C73.6627 15.3207 78.1024 14.4558 82.548 13.6128Z" fill="#66804F"/>
<path opacity="0.997" fill-rule="evenodd" clip-rule="evenodd" d="M33.5945 16.2073C34.2797 16.8666 34.8851 17.6162 35.4108 18.456C37.3115 21.4768 38.4359 24.7634 38.7839 28.3159C35.4348 27.8233 32.4364 26.5259 29.7889 24.4239C28.2899 24.136 27.6267 24.7414 27.7996 26.2401C32.3118 30.0578 37.5301 31.7011 43.4544 31.1701C47.5497 30.6776 51.1823 29.1495 54.3521 26.5861C56.2987 27.6385 58.3744 28.2728 60.5794 28.4889C60.6628 28.6473 60.7204 28.8203 60.7524 29.0078C55.4869 47.9092 44.0702 61.7189 26.5023 70.4366C24.2381 71.397 21.9893 72.3484 19.756 73.2908C14.8436 67.9675 11.3552 61.7978 9.29073 54.7819C7.40736 48.7484 6.65777 42.5787 7.04199 36.273C7.98061 27.5541 12.5069 21.5863 20.6209 18.3695C24.8204 16.9008 29.1449 16.1801 33.5945 16.2073Z" fill="#CF0000"/>
<path opacity="0.983" fill-rule="evenodd" clip-rule="evenodd" d="M46.9139 16.2068C46.9308 17.329 47.1038 18.4245 47.4328 19.4934C46.7039 19.7014 45.9542 19.8167 45.1841 19.8394C45.0118 19.8542 44.8677 19.7966 44.7516 19.6664C44.3937 18.6795 44.019 17.6992 43.6272 16.7258C43.2993 16.5587 42.9533 16.5011 42.5894 16.5528C43.9945 16.2998 45.4359 16.1845 46.9139 16.2068Z" fill="#CE0300"/>
<path fill-rule="evenodd" clip-rule="evenodd" d="M42.5891 16.5545C42.953 16.5028 43.299 16.5604 43.6269 16.7274C44.0187 17.7009 44.3934 18.6811 44.7513 19.6681C44.8674 19.7983 45.0115 19.8559 45.1838 19.8411C44.4789 20.121 43.7293 20.294 42.935 20.36C42.762 20.36 42.5891 20.36 42.4161 20.36C42.0232 19.1242 41.5621 17.9134 41.0322 16.7274C41.5323 16.5713 42.0513 16.5137 42.5891 16.5545Z" fill="#BB0604"/>
<path opacity="0.997" fill-rule="evenodd" clip-rule="evenodd" d="M59.8872 18.1098C60.26 18.0877 60.606 18.1742 60.9251 18.3693C62.2199 19.4489 63.5461 20.4868 64.9037 21.4829C61.8973 22.2708 58.8412 22.6456 55.7357 22.6073C55.6781 22.6073 55.6203 22.6073 55.5627 22.6073C54.5825 21.5694 53.6024 20.5316 52.6221 19.4937C55.0396 19.0102 57.4614 18.5489 59.8872 18.1098Z" fill="#678150"/>
<path fill-rule="evenodd" clip-rule="evenodd" d="M76.6668 22.2607C75.2538 23.5581 73.6969 24.6538 71.9964 25.5474C71.6136 25.7676 71.21 25.9406 70.7855 26.0663C68.8902 24.5766 66.9874 23.0774 65.0771 21.5688C67.6096 20.7919 70.1178 19.927 72.6018 18.9741C74.0375 19.9782 75.3925 21.0737 76.6668 22.2607Z" fill="#3C5428"/>
<path fill-rule="evenodd" clip-rule="evenodd" d="M52.6226 19.4941C53.6029 20.532 54.583 21.5699 55.5633 22.6078C53.3396 22.6237 51.1487 22.3931 48.99 21.9159C48.642 21.448 48.296 20.9867 47.9521 20.532C49.4842 20.1445 51.0411 19.7986 52.6226 19.4941Z" fill="#4F6C3B"/>
<path fill-rule="evenodd" clip-rule="evenodd" d="M47.9516 20.5322C48.2955 20.9869 48.6415 21.4481 48.9895 21.9161C49.912 22.9539 50.8923 23.9342 51.9302 24.8567C50.4687 26.0641 48.8254 26.9868 47.0002 27.6244C46.5932 25.4812 46.0454 23.3765 45.3569 21.3106C45.4531 21.1357 45.5683 20.9916 45.7029 20.8782C46.4265 20.6347 47.176 20.5194 47.9516 20.5322Z" fill="#CE0200"/>
<path fill-rule="evenodd" clip-rule="evenodd" d="M45.7028 20.8779C45.5682 20.9913 45.453 21.1355 45.3568 21.3104C46.0453 23.3763 46.5931 25.4809 47.0001 27.6242C48.8252 26.9866 50.4686 26.0639 51.9301 24.8565C52.7438 25.4353 53.5511 26.0118 54.3518 26.5863C51.1819 29.1497 47.5493 30.6778 43.454 31.1703C37.5298 31.7013 32.3115 30.058 27.7993 26.2403C27.6263 24.7416 28.2895 24.1362 29.7886 24.424C32.436 26.5261 35.4345 27.8234 38.7836 28.3161C39.6727 28.487 40.5954 28.5446 41.5512 28.4891C42.5324 28.4441 43.5127 28.3865 44.4919 28.3161C44.1908 25.9587 43.6718 23.6524 42.9351 21.3969C43.8481 21.1797 44.7706 21.0067 45.7028 20.8779Z" fill="#BB0504"/>
<path fill-rule="evenodd" clip-rule="evenodd" d="M85.3155 13.0928C82.7978 16.4759 79.9149 19.5319 76.6665 22.2607C75.3921 21.0737 74.0372 19.9782 72.6014 18.9741C70.1174 19.927 67.6092 20.7919 65.0768 21.5688C66.987 23.0774 68.8898 24.5766 70.7851 26.0663C68.3478 27.5318 65.6954 28.3391 62.828 28.488C62.306 28.5166 61.787 28.4877 61.2712 28.4015C59.3987 26.4519 57.5537 24.5202 55.7358 22.6067C58.8414 22.6449 61.8974 22.2701 64.9038 21.4823C63.5463 20.4862 62.22 19.4483 60.9253 18.3687C60.6061 18.1736 60.2601 18.0871 59.8874 18.1092C62.9688 17.3891 66.0825 16.7548 69.2283 16.2064C70.3148 17.1541 71.4681 18.019 72.6879 18.8011C76.1647 17.3804 79.4513 15.6506 82.5478 13.6117C83.4252 13.3096 84.3477 13.1366 85.3155 13.0928Z" fill="#4D6935"/>
<path fill-rule="evenodd" clip-rule="evenodd" d="M48.9897 21.916C51.1484 22.3933 53.3393 22.6239 55.563 22.6079C55.6206 22.6079 55.6784 22.6079 55.736 22.6079C57.5538 24.5214 59.3988 26.4531 61.2714 28.4028C61.7872 28.4889 62.3061 28.5178 62.8282 28.4893C62.1015 28.7031 61.3518 28.7031 60.5794 28.4893C58.3745 28.2732 56.2987 27.6389 54.3521 26.5865C53.5514 26.012 52.7441 25.4355 51.9304 24.8567C50.8925 23.9342 49.9123 22.9539 48.9897 21.916Z" fill="#3D5428"/>
<path fill-rule="evenodd" clip-rule="evenodd" d="M15.7772 25.2017C16.3538 25.2017 16.9304 25.2017 17.507 25.2017C17.5414 25.7969 17.4549 26.3734 17.2475 26.9315C16.2946 28.4909 15.4297 30.1055 14.6528 31.7749C14.1936 33.5499 13.79 35.3374 13.442 37.1373C12.3067 38.1442 11.3842 37.9712 10.6743 36.6184C10.3969 32.608 11.6366 29.1195 14.3933 26.1531C14.838 25.792 15.2992 25.475 15.7772 25.2017Z" fill="#F65A3B"/>
<path opacity="0.999" fill-rule="evenodd" clip-rule="evenodd" d="M71.9959 25.5479C74.7716 29.8438 76.0978 34.5721 75.9745 39.7322C75.7379 45.7006 74.7 51.5243 72.8608 57.2033C72.7455 57.2033 72.6879 57.2609 72.6879 57.3762C64.5867 59.3439 56.5142 61.3621 48.4706 63.4306C44.572 66.4363 41.6024 70.1841 39.5621 74.6743C39.0887 75.6345 39.0311 76.6148 39.3891 77.615C41.3876 81.2854 44.2418 84.082 47.9517 86.0045C53.6284 89.1278 59.5673 89.9639 65.7686 88.5127C68.2718 88.6034 70.7512 88.4015 73.2068 87.9073C76.0221 87.2858 78.7897 86.5074 81.5099 85.572C73.8371 91.4691 65.1881 93.7466 55.5628 92.4048C49.1447 91.1655 43.9842 87.9654 40.0811 82.8044C39.5043 81.8243 39.0719 80.7864 38.7837 79.6907C33.2328 81.3079 28.1587 80.3565 23.5614 76.8365C22.1547 75.8045 20.8861 74.6226 19.7559 73.2904C21.9892 72.348 24.238 71.3967 26.5021 70.4363C44.07 61.7186 55.4867 47.9089 60.7522 29.0075C60.7202 28.8199 60.6626 28.647 60.5792 28.4885C61.3516 28.7023 62.1013 28.7023 62.828 28.4885C65.6953 28.3396 68.3478 27.5323 70.7851 26.0668C71.2096 25.941 71.6131 25.7681 71.9959 25.5479Z" fill="#BC0404"/>
<path fill-rule="evenodd" clip-rule="evenodd" d="M12.1452 39.5583C13.4682 39.5261 14.016 40.1604 13.7885 41.4611C13.053 42.5254 12.2458 42.583 11.3668 41.6341C11.0742 40.7053 11.3337 40.0134 12.1452 39.5583Z" fill="#F6593A"/>
<path opacity="0.999" fill-rule="evenodd" clip-rule="evenodd" d="M89.4669 55.1266C85.3813 64.0291 79.5575 71.6113 71.9959 77.8736C67.5626 81.3598 62.6613 84.041 57.2925 85.9172C54.0929 83.7224 51.8153 80.7817 50.4598 77.0952C48.9174 72.6696 48.2543 68.1144 48.4705 63.4297C56.5141 61.3612 64.5866 59.343 72.6878 57.3754C72.8032 57.3754 72.8608 57.3178 72.8608 57.2024C78.0343 56.0604 83.195 54.8495 88.3425 53.5698C88.881 53.949 89.2559 54.4679 89.4669 55.1266Z" fill="#F8ECD3"/>
<path fill-rule="evenodd" clip-rule="evenodd" d="M89.4678 55.1279C91.5543 59.2267 92.7076 63.5799 92.9274 68.188C92.5162 76.2545 88.7107 82.0494 81.5107 85.5725C78.7906 86.5078 76.0229 87.2862 73.2077 87.9077C70.752 88.4019 68.2727 88.6038 65.7695 88.5131C62.6804 88.444 59.8551 87.5791 57.2935 85.9184C62.6623 84.0423 67.5635 81.3611 71.9968 77.8749C79.5585 71.6126 85.3822 64.0304 89.4678 55.1279Z" fill="#F4D192"/>
<path fill-rule="evenodd" clip-rule="evenodd" d="M71.6503 62.7393C72.8612 62.7393 74.072 62.7393 75.2829 62.7393C74.7416 64.2918 73.8767 65.6469 72.6882 66.8043C71.6145 67.9032 70.3171 68.5664 68.7961 68.7936C67.477 68.6867 66.6121 67.9947 66.2014 66.7178C65.778 65.2867 66.268 64.2776 67.6717 63.6906C68.9945 63.2604 70.3206 62.9432 71.6503 62.7393Z" fill="#9E7059"/>
<path fill-rule="evenodd" clip-rule="evenodd" d="M48.4715 63.4312C48.2553 68.1158 48.9183 72.6711 50.4608 77.0966C51.8162 80.7832 54.0939 83.7238 57.2935 85.9186C59.8552 87.5792 62.6804 88.4441 65.7695 88.5133C59.5682 89.9644 53.6292 89.1284 47.9525 86.0051C44.2426 84.0826 41.3885 81.286 39.39 77.6155C39.0319 76.6154 39.0895 75.6351 39.563 74.6749C41.6033 70.1847 44.5729 66.4369 48.4715 63.4312Z" fill="#DB2F02"/>
<path fill-rule="evenodd" clip-rule="evenodd" d="M51.5842 64.6417C52.0597 64.6026 52.521 64.6602 52.968 64.8147C53.0256 65.1031 53.0834 65.3913 53.141 65.6796C52.8739 67.422 52.9315 69.1519 53.314 70.869C53.3628 71.3087 53.2187 71.6547 52.8815 71.9069C51.7418 71.4215 51.0498 70.5566 50.8058 69.3122C50.6904 68.2167 50.6904 67.1211 50.8058 66.0256C50.9334 65.481 51.1929 65.0197 51.5842 64.6417Z" fill="#FEFDFB"/>
</svg>
