<svg width="100" height="100" viewBox="0 0 100 100" fill="none" xmlns="http://www.w3.org/2000/svg">
<path opacity="0.957" fill-rule="evenodd" clip-rule="evenodd" d="M48.9259 3.02734C50.0327 3.02734 51.1394 3.02734 52.2462 3.02734C52.278 3.48766 52.2456 3.9434 52.1485 4.39453C51.6685 5.48836 51.2452 6.59512 50.879 7.71484C51.2452 8.83457 51.6685 9.94133 52.1485 11.0352C52.2788 11.9466 52.2788 12.8581 52.1485 13.7695C51.6663 14.8645 51.2431 15.9712 50.879 17.0898C49.7722 17.0898 48.6655 17.0898 47.5587 17.0898C47.5269 16.6295 47.5593 16.1738 47.6564 15.7227C48.1364 14.6288 48.5597 13.5221 48.9259 12.4023C48.5597 11.2826 48.1364 10.1759 47.6564 9.08203C47.5261 8.17057 47.5261 7.25912 47.6564 6.34766C48.1386 5.25271 48.5618 4.14596 48.9259 3.02734Z" fill="#98653C"/>
<path opacity="0.957" fill-rule="evenodd" clip-rule="evenodd" d="M36.4259 4.58984C37.5327 4.58984 38.6394 4.58984 39.7462 4.58984C39.778 5.05016 39.7456 5.5059 39.6485 5.95703C39.1685 7.05086 38.7452 8.15762 38.379 9.27734C38.7452 10.3971 39.1685 11.5038 39.6485 12.5977C39.7788 13.5091 39.7788 14.4206 39.6485 15.332C39.1663 16.427 38.7431 17.5337 38.379 18.6523C37.2722 18.6523 36.1655 18.6523 35.0587 18.6523C35.0269 18.192 35.0593 17.7363 35.1564 17.2852C35.6364 16.1913 36.0597 15.0846 36.4259 13.9648C36.0597 12.8451 35.6364 11.7384 35.1564 10.6445C35.0261 9.73307 35.0261 8.82162 35.1564 7.91016C35.6386 6.81521 36.0618 5.70846 36.4259 4.58984Z" fill="#98653C"/>
<path opacity="0.957" fill-rule="evenodd" clip-rule="evenodd" d="M61.4259 4.58984C62.5327 4.58984 63.6394 4.58984 64.7462 4.58984C64.778 5.05016 64.7456 5.5059 64.6485 5.95703C64.1685 7.05086 63.7452 8.15762 63.379 9.27734C63.7452 10.3971 64.1685 11.5038 64.6485 12.5977C64.7788 13.5091 64.7788 14.4206 64.6485 15.332C64.1663 16.427 63.7431 17.5337 63.379 18.6523C62.2722 18.6523 61.1655 18.6523 60.0587 18.6523C60.0269 18.192 60.0593 17.7363 60.1564 17.2852C60.6364 16.1913 61.0597 15.0846 61.4259 13.9648C61.0597 12.8451 60.6364 11.7384 60.1564 10.6445C60.0261 9.73307 60.0261 8.82162 60.1564 7.91016C60.6386 6.81521 61.0618 5.70846 61.4259 4.58984Z" fill="#98653C"/>
<path opacity="0.993" fill-rule="evenodd" clip-rule="evenodd" d="M78.0278 29.9805C77.3163 31.6678 76.0792 32.8397 74.3169 33.4961C74.0407 32.8985 73.585 32.4754 72.9497 32.2266C68.2497 30.7399 63.4321 29.9586 58.4966 29.8829C49.8755 29.3036 41.2817 29.5639 32.7153 30.6641C30.8774 31.0584 29.0544 31.5143 27.2466 32.0313C26.4866 32.3415 25.9007 32.8297 25.4887 33.4961C23.8946 32.8641 22.6577 31.8225 21.7778 30.3711C21.5567 28.9583 22.0124 27.8188 23.145 26.9532C26.4446 24.9198 30.0255 23.6176 33.8872 23.0469C44.5643 21.3542 55.2413 21.3542 65.9184 23.0469C69.7802 23.6176 73.361 24.9198 76.6606 26.9532C77.6753 27.7127 78.1311 28.7219 78.0278 29.9805Z" fill="#78767F"/>
<path fill-rule="evenodd" clip-rule="evenodd" d="M74.3164 33.4958C74.0402 34.0934 73.5846 34.5165 72.9492 34.7653C69.1939 35.9159 65.3529 36.6319 61.4258 36.9138C51.4971 37.7618 41.6012 37.5015 31.7383 36.1325C29.6645 35.8227 27.7113 35.1718 25.8789 34.1794C25.7217 33.962 25.5914 33.7343 25.4883 33.4958C25.9002 32.8294 26.4861 32.3411 27.2461 32.0309C29.0539 31.514 30.877 31.0581 32.7148 30.6638C41.2812 29.5636 49.875 29.3032 58.4961 29.8825C63.4316 29.9583 68.2492 30.7395 72.9492 32.2263C73.5846 32.4751 74.0402 32.8981 74.3164 33.4958Z" fill="#98653D"/>
<path opacity="0.997" fill-rule="evenodd" clip-rule="evenodd" d="M78.0271 29.9805C78.0598 42.6109 78.0271 55.241 77.9295 67.8711C77.5088 69.6863 76.8252 71.3791 75.8787 72.9492C70.1215 71.0777 65.5642 72.6402 62.2068 77.6367C61.6275 74.3906 59.8697 72.0469 56.9334 70.6055C56.673 70.5404 56.4125 70.4752 56.1521 70.4102C56.2596 67.2047 55.5109 64.2098 53.906 61.4258C52.0621 58.1814 49.6857 55.382 46.7771 53.0273C43.0447 56.1314 40.2127 59.9074 38.281 64.3555C37.5209 66.3711 37.2279 68.4545 37.4021 70.6055C33.9328 68.7139 30.2219 68.0303 26.2693 68.5547C24.8891 68.7201 23.5219 68.948 22.1678 69.2383C21.8549 68.024 21.7248 66.7869 21.7771 65.5273C15.9498 66.4828 11.0996 64.79 7.22636 60.4492C3.40866 54.6691 3.60398 49.0051 7.8123 43.457C11.6737 39.5986 16.3287 38.1012 21.7771 38.9648C21.7771 36.1002 21.7771 33.2357 21.7771 30.3711C22.657 31.8225 23.8939 32.8641 25.4881 33.4961C25.5912 33.7346 25.7215 33.9623 25.8787 34.1797C27.7111 35.1721 29.6642 35.823 31.7381 36.1328C41.601 37.5018 51.4969 37.7621 61.4256 36.9141C65.3527 36.6322 69.1937 35.9162 72.949 34.7656C73.5844 34.5168 74.04 34.0938 74.3162 33.4961C76.0785 32.8396 77.3156 31.6678 78.0271 29.9805ZM17.8709 45.2148C19.173 45.2148 20.475 45.2148 21.7771 45.2148C21.7771 49.9023 21.7771 54.5898 21.7771 59.2773C19.9463 59.3225 18.1233 59.2248 16.3084 58.9844C12.344 57.6225 10.6188 54.8555 11.1326 50.6836C12.1986 47.3686 14.4447 45.5457 17.8709 45.2148Z" fill="#D7D7DC"/>
<path fill-rule="evenodd" clip-rule="evenodd" d="M56.1527 70.4102C55.3518 70.158 54.5705 70.158 53.809 70.4102C52.7469 70.4061 51.7703 70.699 50.8793 71.2891C49.9297 72.0111 49.0832 72.825 48.3402 73.7305C48.3402 69.9545 48.3402 66.1783 48.3402 62.4023C47.2986 62.4023 46.2568 62.4023 45.2152 62.4023C45.2152 67.3502 45.2152 72.2982 45.2152 77.2461C43.0779 74.4846 40.4736 72.2709 37.4027 70.6055C37.2285 68.4545 37.5215 66.3711 38.2816 64.3555C40.2133 59.9074 43.0453 56.1314 46.7777 53.0273C49.6863 55.382 52.0627 58.1814 53.9066 61.4258C55.5115 64.2098 56.2602 67.2047 56.1527 70.4102Z" fill="#91DB5A"/>
<path fill-rule="evenodd" clip-rule="evenodd" d="M48.3398 73.7305C47.2992 75.6811 46.7783 77.7645 46.7773 79.9805C46.2596 79.076 45.7387 78.1645 45.2148 77.2461C45.2148 72.2982 45.2148 67.3502 45.2148 62.4023C46.2564 62.4023 47.2982 62.4023 48.3398 62.4023C48.3398 66.1783 48.3398 69.9545 48.3398 73.7305Z" fill="#016659"/>
<path opacity="0.999" fill-rule="evenodd" clip-rule="evenodd" d="M37.4023 70.6051C40.4732 72.2705 43.0775 74.4842 45.2148 77.2457C45.7387 78.1641 46.2596 79.0756 46.7773 79.9801C47.242 81.0357 47.4373 82.1426 47.3633 83.3004C47.4189 83.6496 47.3539 83.9752 47.168 84.2769C40.3768 80.8 33.5734 77.3494 26.7578 73.9254C26.1732 74.7023 25.685 75.5486 25.293 76.4644C32.1033 80.0975 38.9393 83.6781 45.8008 87.2066C44.4215 88.4601 42.7939 89.2088 40.918 89.4527C34.9811 89.8894 29.6424 88.3269 24.9023 84.7652C22.7334 82.6037 20.9756 80.1623 19.6289 77.441C18.6815 75.4455 17.9654 73.3621 17.4805 71.191C17.615 70.8291 17.8754 70.6014 18.2617 70.5074C19.5348 69.9853 20.8369 69.5621 22.168 69.2379C23.5221 68.9476 24.8893 68.7197 26.2695 68.5543C30.2221 68.0299 33.933 68.7135 37.4023 70.6051Z" fill="#63C27C"/>
<path fill-rule="evenodd" clip-rule="evenodd" d="M56.1524 70.4103C56.4127 70.4753 56.6733 70.5406 56.9336 70.6056C56.5948 71.9345 56.0415 73.1714 55.2735 74.3166C55.0674 75.7201 55.1977 77.0873 55.6641 78.4181C56.3047 79.2302 56.7604 80.1417 57.0313 81.1525C57.1616 82.5197 57.1616 83.8869 57.0313 85.2541C56.6321 86.508 56.0786 87.6798 55.3711 88.7697C54.6922 88.9929 53.9762 89.0255 53.2227 88.8673C52.7633 88.8205 52.3727 88.6578 52.0508 88.3791C52.7165 87.1124 53.335 85.8103 53.9063 84.4728C54.0366 83.5613 54.0366 82.65 53.9063 81.7384C53.2165 80.4886 52.6305 79.1865 52.1485 77.8322C52.0182 76.53 52.0182 75.2281 52.1485 73.9259C52.5477 72.672 53.1012 71.5001 53.8086 70.4103C54.5702 70.1582 55.3514 70.1582 56.1524 70.4103Z" fill="#3D2515"/>
<path fill-rule="evenodd" clip-rule="evenodd" d="M53.8086 70.4102C53.1012 71.5 52.5477 72.6719 52.1484 73.9258C52.0182 75.228 52.0182 76.5299 52.1484 77.8321C52.6305 79.1864 53.2164 80.4885 53.9063 81.7383C54.0365 82.6498 54.0365 83.5612 53.9063 84.4727C53.335 85.8102 52.7164 87.1123 52.0508 88.3789C50.6887 87.8614 49.5818 87.0149 48.7305 85.8399C48.6461 85.6036 48.5158 85.4082 48.3398 85.2539C48.008 84.5901 47.6824 83.9391 47.3633 83.3008C47.4373 82.143 47.242 81.0362 46.7773 79.9805C46.7783 77.7645 47.2992 75.6811 48.3398 73.7305C49.0828 72.825 49.9293 72.0112 50.8789 71.2891C51.7699 70.6991 52.7465 70.4061 53.8086 70.4102Z" fill="#7D543A"/>
<path fill-rule="evenodd" clip-rule="evenodd" d="M56.9336 70.6055C59.8699 72.0469 61.6277 74.3906 62.207 77.6367C62.4949 79.7617 62.2996 81.8451 61.6211 83.8867C61.2334 84.5309 60.8427 85.1818 60.4492 85.8398C59.1691 87.5219 57.4765 88.4984 55.3711 88.7695C56.0785 87.6797 56.632 86.5078 57.0312 85.2539C57.1615 83.8867 57.1615 82.5195 57.0312 81.1523C56.7603 80.1416 56.3046 79.2301 55.664 78.418C55.1976 77.0871 55.0673 75.7199 55.2734 74.3164C56.0414 73.1713 56.5947 71.9344 56.9336 70.6055Z" fill="#7D543B"/>
<path opacity="0.999" fill-rule="evenodd" clip-rule="evenodd" d="M75.8789 72.9493C76.3293 73.2694 76.7199 73.66 77.0508 74.1212C72.9678 74.6542 70.0707 76.8026 68.3594 80.5665C66.5938 82.6376 64.3477 83.8094 61.6211 84.0821C61.6211 84.0171 61.6211 83.9518 61.6211 83.8868C62.2996 81.8452 62.4949 79.7618 62.207 77.6368C65.5645 72.6403 70.1217 71.0778 75.8789 72.9493Z" fill="#98653D"/>
<path fill-rule="evenodd" clip-rule="evenodd" d="M47.3633 83.3008C47.6824 83.9391 48.008 84.59 48.3398 85.2539C48.2227 85.5273 48.0273 85.7227 47.7539 85.8398C47.4221 85.8086 47.0965 85.841 46.7773 85.9375C46.4785 86.3969 46.1529 86.8201 45.8008 87.207C38.9393 83.6785 32.1033 80.0979 25.293 76.4648C25.685 75.549 26.1732 74.7027 26.7578 73.9258C33.5734 77.3498 40.3768 80.8004 47.168 84.2773C47.3539 83.9756 47.4189 83.65 47.3633 83.3008Z" fill="#02675A"/>
<path fill-rule="evenodd" clip-rule="evenodd" d="M77.0508 74.1211C77.8881 74.765 78.409 75.6115 78.6133 76.6602C77.54 76.9869 76.4332 77.2799 75.293 77.5391C74.3059 78.0057 73.427 78.624 72.6562 79.3945C71.6967 81.3455 70.4271 83.0707 68.8477 84.5703C67.4027 85.6832 65.775 86.3668 63.9648 86.6211C63.7279 86.6693 63.5977 86.7996 63.5742 87.0117C63.1186 86.6861 62.7279 86.2955 62.4023 85.8398C61.9836 85.3277 61.7232 84.7418 61.6211 84.082C64.3477 83.8094 66.5938 82.6375 68.3594 80.5664C70.0707 76.8025 72.9678 74.6541 77.0508 74.1211Z" fill="#7E543B"/>
<path fill-rule="evenodd" clip-rule="evenodd" d="M78.6133 76.6602C78.777 76.727 78.8422 76.857 78.8086 77.0508C79.2871 82.6338 76.8783 86.3771 71.582 88.2812C68.6457 89.2746 65.9766 88.8514 63.5742 87.0117C63.5977 86.7996 63.7279 86.6693 63.9648 86.6211C65.775 86.3668 67.4027 85.6832 68.8477 84.5703C70.4271 83.0707 71.6967 81.3455 72.6562 79.3945C73.427 78.624 74.3059 78.0057 75.293 77.5391C76.4332 77.2799 77.54 76.9869 78.6133 76.6602Z" fill="#97643D"/>
<path opacity="0.992" fill-rule="evenodd" clip-rule="evenodd" d="M78.8086 77.0508C82.1785 77.7143 85.4988 78.5932 88.7695 79.6875C91.0557 80.4141 93.0414 81.6186 94.7266 83.3008C95.3775 84.4727 95.3775 85.6445 94.7266 86.8164C93.3094 88.258 91.6492 89.3322 89.7461 90.0391C85.125 91.7314 80.3725 92.9033 75.4883 93.5547C62.9043 95.2115 50.274 95.6672 37.5977 94.9219C29.8773 94.5072 22.2602 93.4004 14.7461 91.6016C11.7609 90.8461 8.96144 89.6742 6.34766 88.0859C4.00391 86.0678 4.00391 84.0494 6.34766 82.0312C10.4734 79.6684 14.9004 78.1385 19.6289 77.4414C20.9756 80.1627 22.7334 82.6041 24.9023 84.7656C29.6424 88.3273 34.9811 89.8898 40.918 89.4531C42.7939 89.2092 44.4215 88.4605 45.8008 87.207C46.1529 86.8201 46.4785 86.3969 46.7773 85.9375C47.0965 85.841 47.4221 85.8086 47.7539 85.8398C48.0795 85.8398 48.4049 85.8398 48.7305 85.8398C49.5818 87.0148 50.6887 87.8613 52.0508 88.3789C52.3727 88.6576 52.7633 88.8203 53.2227 88.8672C53.9762 89.0254 54.6922 88.9928 55.3711 88.7695C57.4766 88.4984 59.1691 87.5219 60.4492 85.8398C61.1002 85.8398 61.7514 85.8398 62.4023 85.8398C62.7279 86.2955 63.1185 86.6861 63.5742 87.0117C65.9766 88.8514 68.6457 89.2746 71.582 88.2812C76.8783 86.3771 79.2871 82.6338 78.8086 77.0508Z" fill="#3E3D42"/>
<path fill-rule="evenodd" clip-rule="evenodd" d="M61.6211 83.8867C61.6211 83.9518 61.6211 84.017 61.6211 84.082C61.7232 84.7418 61.9836 85.3277 62.4023 85.8398C61.7514 85.8398 61.1002 85.8398 60.4492 85.8398C60.8428 85.1818 61.2334 84.5309 61.6211 83.8867Z" fill="#E3E0DF"/>
<path fill-rule="evenodd" clip-rule="evenodd" d="M48.3398 85.2539C48.5158 85.4082 48.6461 85.6035 48.7305 85.8398C48.4049 85.8398 48.0795 85.8398 47.7539 85.8398C48.0273 85.7227 48.2227 85.5273 48.3398 85.2539Z" fill="#C4D4BB"/>
</svg>
