<svg width="100" height="100" viewBox="0 0 100 100" fill="none" xmlns="http://www.w3.org/2000/svg">
<path d="M54.1393 79.0441C44.9956 88.1087 33.1581 91.067 24.0122 82.0045L18.0414 76.0816C8.9018 67.0149 11.8872 55.2795 21.031 46.2129L45.8622 21.5899C55.0081 12.5191 65.8497 8.57744 74.9893 17.6399L81.9581 24.5462C91.0997 33.6129 88.1143 45.3504 78.9706 54.4212L54.1393 79.0441Z" fill="#FFC107"/>
<path d="M60.7703 29.2788C64.2641 25.9705 68.9495 18.2267 67.3828 15.3017C65.9828 12.6892 64.2724 11.1434 61.6599 14.1413C60.4349 15.5496 59.6849 17.283 59.3953 19.0767C58.9391 21.8705 58.5995 22.8767 55.8912 22.5996C53.262 22.3309 51.0703 22.0205 51.3203 25.2642C51.5828 28.6371 52.3849 29.8371 49.1891 31.958C45.8391 34.1788 41.5891 34.6017 38.2953 36.9976C36.6974 38.1642 36.1203 38.7955 36.4828 40.7913C36.7724 42.4226 38.237 45.1038 37.1349 46.5976C35.3453 49.0288 34.5974 45.0955 33.6016 43.9746C31.0766 41.1371 30.4016 46.3955 30.5266 48.1017C30.6037 49.1705 31.0578 51.0851 29.9328 51.758C28.7016 52.4871 28.687 51.4705 27.6745 50.8851C26.7328 50.3371 24.7828 49.733 23.8891 50.6517C22.7912 51.7788 24.2162 54.2517 24.4432 55.6017C24.6266 56.6913 24.8828 58.6476 23.9391 59.483C22.8891 60.4059 21.3932 59.4538 20.0974 59.1455C17.4307 58.5163 13.0849 59.8163 12.587 62.9517C12.2662 64.9601 12.8266 65.5476 14.7224 66.4851C20.1307 69.1746 29.4391 65.7392 32.4516 62.7101L60.7703 29.2788Z" fill="#689F38"/>
<path d="M39.2282 70.7202C35.7344 74.0286 31.049 81.7723 32.6157 84.6973C34.0157 87.3098 35.7261 88.8557 38.3386 85.8577C39.5636 84.4494 40.3136 82.7161 40.6032 80.9223C41.0594 78.1286 41.399 77.1223 44.1074 77.3994C46.7365 77.6681 48.9282 77.9786 48.6782 74.7348C48.4157 71.3619 47.6136 70.1619 50.8094 68.0411C54.1594 65.8202 58.4094 65.3973 61.7032 63.0015C63.3011 61.8348 63.8782 61.2036 63.5157 59.2077C63.2261 57.5765 61.7615 54.8952 62.8636 53.4015C64.6532 50.9702 65.4011 54.9036 66.3969 56.0244C68.9219 58.8619 69.5969 53.6036 69.4719 51.8973C69.3949 50.8286 68.9407 48.914 70.0657 48.2411C71.2969 47.5119 71.3115 48.5286 72.324 49.114C73.2657 49.6619 75.2157 50.2661 76.1094 49.3473C77.2074 48.2202 75.7824 45.7473 75.5553 44.3973C75.3719 43.3077 75.1157 41.3515 76.0594 40.5161C77.1094 39.5931 78.6053 40.5452 79.9011 40.8536C82.5678 41.4827 86.9136 40.1827 87.4115 37.0473C87.7324 35.039 87.1719 34.4515 85.2761 33.514C79.8678 30.8244 70.5594 34.2598 67.5469 37.289L39.2282 70.7202Z" fill="#689F38"/>
<path d="M21.3807 87.5023C19.1078 87.5023 16.8349 86.6356 15.1016 84.8981C11.6328 81.4315 11.6328 75.8065 15.1016 72.3398L72.3391 15.1023C75.8036 11.6335 81.4328 11.6335 84.8974 15.1023C88.3661 18.569 88.3661 24.196 84.8974 27.6627L27.6599 84.8981C25.9266 86.6356 23.6536 87.5023 21.3807 87.5023Z" fill="#D32F2F"/>
<path d="M27.083 72.9166C30.0288 61.1312 38.8705 72.9187 41.8163 58.1874C44.7622 43.4562 58.0205 53.7666 59.4934 40.5103C60.9663 27.252 75.6976 36.0916 75.6976 24.3062" stroke="#FFEB3B" stroke-width="22" stroke-linecap="round"/>
</svg>
