<svg width="100" height="100" viewBox="0 0 100 100" fill="none" xmlns="http://www.w3.org/2000/svg">
<path d="M70.8327 41.6678C80.0374 41.6678 87.4993 34.2059 87.4993 25.0011C87.4993 15.7964 80.0374 8.33447 70.8327 8.33447C61.6279 8.33447 54.166 15.7964 54.166 25.0011C54.166 34.2059 61.6279 41.6678 70.8327 41.6678Z" fill="#FFEB3B"/>
<path d="M72.9167 10.4155H68.75V39.5822H72.9167V10.4155Z" fill="#FFFDE7"/>
<path d="M85.4167 22.9155H56.25V27.0822H85.4167V22.9155Z" fill="#FFFDE7"/>
<path d="M61.9951 13.2129L59.0488 16.1592L79.6726 36.7829L82.6188 33.8367L61.9951 13.2129Z" fill="#FFFDE7"/>
<path d="M59.0469 33.8379L61.9932 36.7842L82.6184 16.159L79.6721 13.2127L59.0469 33.8379Z" fill="#FFFDE7"/>
<path d="M70.8327 11.4595C78.3014 11.4595 84.3743 17.5324 84.3743 25.0011C84.3743 32.4678 78.3014 38.5428 70.8327 38.5428C63.366 38.5428 57.291 32.4678 57.291 25.0011C57.291 17.5324 63.366 11.4595 70.8327 11.4595ZM70.8327 8.33447C61.6264 8.33447 54.166 15.7949 54.166 25.0011C54.166 34.2074 61.6264 41.6678 70.8327 41.6678C80.0389 41.6678 87.4993 34.2074 87.4993 25.0011C87.4993 15.7949 80.0389 8.33447 70.8327 8.33447Z" fill="#FFC107"/>
<path d="M62.1931 35.4167H65.2431L72.916 25H57.291C57.291 29.1854 59.1994 32.9313 62.1931 35.4167Z" fill="#FFB300"/>
<path d="M45.8346 59.4407H41.668V87.5011H45.8346V59.4407Z" fill="#90CAF9"/>
<path d="M60.4167 89.5833C60.4167 89.5833 45.8354 87.5 45.8333 81.25C45.8333 75 41.6646 75 41.6667 81.25C41.6667 87.5 27.0833 89.5833 27.0833 89.5833C25.9313 89.5833 25 90.5146 25 91.6667H62.5C62.5 90.5146 61.5687 89.5833 60.4167 89.5833Z" fill="#90CAF9"/>
<path d="M14.584 25L22.259 35.4167H57.834C55.5444 32.5625 54.1673 28.9458 54.1673 25H14.584Z" fill="#90CAF9"/>
<path d="M57.291 25H54.166C54.166 28.9458 55.5431 32.5625 57.8327 35.4167H62.1931C59.1993 32.9313 57.291 29.1854 57.291 25Z" fill="#FB8C00"/>
<path d="M20.7227 33.3345L40.7622 60.5324C40.7622 60.5324 43.5185 64.8532 46.7935 60.4553C50.0643 56.0553 66.7768 33.3345 66.7768 33.3345H20.7227Z" fill="#F50057"/>
</svg>
