<svg width="100" height="100" viewBox="0 0 100 100" fill="none" xmlns="http://www.w3.org/2000/svg">
<path d="M50.7968 20.0649C53.8401 25.0315 59.0781 31.8981 59.9008 37.7448C59.9934 38.3981 60.6301 38.8449 61.2775 38.7182C66.8501 37.6249 73.9961 40.4782 80.8187 41.9649C81.7121 42.1582 82.0601 43.2448 81.4308 43.9115C76.8921 48.6915 72.5054 55.4515 67.3814 58.1048C66.8348 58.3848 66.5821 59.0315 66.8228 59.5982C69.3021 65.3982 69.1781 72.1315 69.9714 79.0915C70.0781 80.0315 69.0887 80.7182 68.2574 80.2649C61.9101 76.8049 54.6861 74.8582 50.5755 71.4048C50.1208 71.0248 49.4508 71.0182 49.0248 71.4315C45.5428 74.7915 38.0401 76.7649 31.2068 80.3315C30.3721 80.7715 29.3994 80.1048 29.4988 79.1715C30.2568 71.9915 29.7801 64.6581 32.4827 59.6448C32.7874 59.0781 32.6221 58.3715 32.0648 58.0515C27.5548 55.5049 23.4868 48.8382 18.3674 43.9982C17.6741 43.3449 18.0141 42.1782 18.9508 42.0048C25.4854 40.7982 32.3528 38.2515 38.1734 38.8515C38.8321 38.9249 39.4167 38.4515 39.4714 37.7915C39.9007 32.5448 45.6995 25.4849 48.7801 20.0849C49.2228 19.3115 50.3308 19.3049 50.7968 20.0649Z" fill="#B4D03C"/>
<path d="M50.7057 23.5389C53.4484 28.0122 58.1684 34.2056 58.9104 39.4722C58.9924 40.0589 59.5664 40.4656 60.1497 40.3523C65.171 39.3589 71.6097 41.9322 77.7577 43.2722C78.5637 43.4522 78.8764 44.4256 78.3091 45.0256C74.2204 49.3322 70.267 55.4256 65.6497 57.8122C65.1577 58.0722 64.9298 58.6522 65.1471 59.1589C67.3804 64.3922 67.2697 70.4522 67.983 76.7256C68.0797 77.5789 67.1891 78.1922 66.4391 77.7789C60.7204 74.6656 54.2097 72.9123 50.507 69.7989C50.0964 69.4589 49.4937 69.4522 49.1084 69.8256C45.9718 72.8522 39.2111 74.6322 33.0537 77.8456C32.3024 78.2389 31.4257 77.6456 31.5144 76.7989C32.1971 70.3256 31.767 63.7189 34.2044 59.1989C34.4784 58.6923 34.3297 58.0522 33.827 57.7722C29.763 55.4722 26.0977 49.4656 21.4844 45.1056C20.8611 44.5189 21.1657 43.4656 22.0091 43.3056C27.8997 42.2189 34.0864 39.9256 39.3311 40.4722C39.9244 40.5322 40.4517 40.1122 40.5004 39.5122C40.8884 34.7855 46.1124 28.4256 48.8897 23.5589C49.2864 22.8589 50.2864 22.8522 50.7057 23.5389Z" fill="#FFCA3B"/>
<path d="M48.6548 40.8118C48.6548 36.2384 49.8748 31.4985 49.8748 31.4985C50.2602 31.4985 51.0948 36.2384 51.0948 40.8118C51.0948 45.3918 51.1602 48.0718 49.8748 48.0718C48.7842 48.0718 48.6548 45.3918 48.6548 40.8118Z" fill="#F8F0AF"/>
<path d="M60.3009 47.2787C64.7642 46.272 69.6548 46.4187 69.6548 46.4187C69.7395 46.7987 65.3022 48.652 60.8375 49.6587C56.3735 50.6653 53.7722 51.3187 53.4895 50.0654C53.2489 49.0054 55.8375 48.2853 60.3009 47.2787Z" fill="#F8F0AF"/>
<path d="M49.2329 44.2518C49.2329 41.8385 49.875 39.3451 49.875 39.3451C50.0783 39.3451 50.5183 41.8385 50.5183 44.2518C50.5183 46.6585 50.5523 48.0718 49.875 48.0718C49.301 48.0718 49.2329 46.6585 49.2329 44.2518Z" fill="#505457"/>
<path d="M57.116 48.5921C59.4686 48.0788 62.0427 48.1721 62.0427 48.1721C62.086 48.3721 59.7433 49.3321 57.3893 49.8454C55.0347 50.3588 53.664 50.6922 53.5193 50.0322C53.3967 49.4722 54.7613 49.1055 57.116 48.5921Z" fill="#505457"/>
<path d="M39.5765 47.5116C35.1132 46.5049 30.2238 46.6516 30.2238 46.6516C30.1392 47.0249 34.5765 48.8849 39.0399 49.8916C43.5039 50.8983 46.1065 51.5516 46.3892 50.2983C46.6285 49.2316 44.0412 48.5182 39.5765 47.5116Z" fill="#F8F0AF"/>
<path d="M42.7622 48.8245C40.4095 48.3112 37.8356 48.4046 37.8356 48.4046C37.7922 48.6046 40.1349 49.5645 42.4889 50.0779C44.8415 50.5912 46.2142 50.9246 46.3589 50.2646C46.4809 49.7046 45.1155 49.3379 42.7622 48.8245Z" fill="#505457"/>
<path d="M57.2179 59.5047C60.0033 63.1314 61.9186 67.6381 61.9186 67.6381C61.6126 67.8714 58.0666 64.6181 55.2819 60.9914C52.4966 57.3581 50.8126 55.2714 51.8326 54.4914C52.6986 53.8247 54.4326 55.8714 57.2179 59.5047Z" fill="#F8F0AF"/>
<path d="M54.6913 57.165C56.1433 59.085 57.1352 61.4583 57.1352 61.4583C56.9726 61.5849 55.1179 59.8583 53.6653 57.9383C52.2133 56.0183 51.3346 54.9116 51.8733 54.505C52.3319 54.1583 53.238 55.2383 54.6913 57.165Z" fill="#505457"/>
<path d="M42.3584 59.5047C39.5731 63.1314 37.6577 67.6381 37.6577 67.6381C37.9637 67.8714 41.5091 64.6181 44.2957 60.9914C47.0811 57.3581 48.7644 55.2714 47.7451 54.4914C46.8791 53.8247 45.1438 55.8714 42.3584 59.5047Z" fill="#F8F0AF"/>
<path d="M44.8854 57.165C43.432 59.085 42.4414 61.4583 42.4414 61.4583C42.6027 61.5849 44.4567 59.8583 45.91 57.9383C47.3634 56.0183 48.2407 54.9116 47.7014 54.505C47.2434 54.1583 46.3374 55.2383 44.8854 57.165Z" fill="#505457"/>
</svg>
