<svg width="100" height="100" viewBox="0 0 100 100" fill="none" xmlns="http://www.w3.org/2000/svg">
<path d="M91.6666 26.8906L58.9041 37.5885C57.2583 38.0677 56.2999 39.7948 56.7708 41.4323L57.9437 45.7031C58.4124 47.351 60.1228 48.2906 61.7687 47.8177L91.6666 41.576V26.8906Z" fill="#2196F3"/>
<path d="M8.4706 54.828C9.71227 59.1655 24.2706 76.0343 48.0414 69.2364C71.8102 62.4364 65.9914 42.0009 65.9914 42.0009C65.9914 42.0009 65.0727 38.7884 65.0352 38.6655C65.0352 38.6655 7.22268 50.5051 8.4706 54.828Z" fill="#2196F3"/>
<path d="M65.0355 38.6693C67.3918 46.8672 61.1064 55.863 45.4814 60.3255C29.8605 64.7922 10.1772 60.7755 8.47096 54.8297C6.76471 48.8964 21.3272 35.0943 36.9543 30.6214C52.5731 26.1609 62.6793 30.461 65.0355 38.6693Z" fill="#3F51B5"/>
<path d="M14.8831 53.0056C18.7873 55.3368 32.0748 57.7326 43.7748 54.3847C54.4602 51.3306 60.8644 45.6264 59.331 40.2993L40.0435 29.8389L32.9435 25.3868C31.4477 24.5576 29.5644 25.0931 28.7331 26.591L24.0539 36.4306L14.8081 53.0243L14.8831 53.0056Z" fill="#CFD8DC"/>
<path d="M29.4832 47.6259C30.6511 47.6259 31.5978 46.6792 31.5978 45.5113C31.5978 44.3435 30.6511 43.3967 29.4832 43.3967C28.3154 43.3967 27.3687 44.3435 27.3687 45.5113C27.3687 46.6792 28.3154 47.6259 29.4832 47.6259Z" fill="#78909C"/>
<path d="M31.8021 40.3791C32.9699 40.3791 33.9167 39.4323 33.9167 38.2645C33.9167 37.0966 32.9699 36.1499 31.8021 36.1499C30.6342 36.1499 29.6875 37.0966 29.6875 38.2645C29.6875 39.4323 30.6342 40.3791 31.8021 40.3791Z" fill="#78909C"/>
<path d="M37.6165 45.3009C38.7844 45.3009 39.7311 44.3542 39.7311 43.1864C39.7311 42.0185 38.7844 41.0718 37.6165 41.0718C36.4487 41.0718 35.502 42.0185 35.502 43.1864C35.502 44.3542 36.4487 45.3009 37.6165 45.3009Z" fill="#78909C"/>
</svg>
