<svg width="100" height="100" viewBox="0 0 100 100" fill="none" xmlns="http://www.w3.org/2000/svg">
<g clip-path="url(#clip0_190_6105)">
<path d="M58.3335 43.75C61.7853 43.75 64.5835 40.9518 64.5835 37.5C64.5835 34.0482 61.7853 31.25 58.3335 31.25C54.8817 31.25 52.0835 34.0482 52.0835 37.5C52.0835 40.9518 54.8817 43.75 58.3335 43.75Z" fill="#B71C1C"/>
<path d="M52.0835 41.6655C55.5353 41.6655 58.3335 38.8673 58.3335 35.4155C58.3335 31.9637 55.5353 29.1655 52.0835 29.1655C48.6317 29.1655 45.8335 31.9637 45.8335 35.4155C45.8335 38.8673 48.6317 41.6655 52.0835 41.6655Z" fill="#B71C1C"/>
<path d="M35.4165 41.6655C38.8683 41.6655 41.6665 38.8673 41.6665 35.4155C41.6665 31.9637 38.8683 29.1655 35.4165 29.1655C31.9647 29.1655 29.1665 31.9637 29.1665 35.4155C29.1665 38.8673 31.9647 41.6655 35.4165 41.6655Z" fill="#B71C1C"/>
<path d="M29.1665 43.75C32.6183 43.75 35.4165 40.9518 35.4165 37.5C35.4165 34.0482 32.6183 31.25 29.1665 31.25C25.7147 31.25 22.9165 34.0482 22.9165 37.5C22.9165 40.9518 25.7147 43.75 29.1665 43.75Z" fill="#B71C1C"/>
<path d="M22.9165 45.8345C26.3683 45.8345 29.1665 43.0363 29.1665 39.5845C29.1665 36.1327 26.3683 33.3345 22.9165 33.3345C19.4647 33.3345 16.6665 36.1327 16.6665 39.5845C16.6665 43.0363 19.4647 45.8345 22.9165 45.8345Z" fill="#B71C1C"/>
<path d="M64.5835 45.8345C68.0353 45.8345 70.8335 43.0363 70.8335 39.5845C70.8335 36.1327 68.0353 33.3345 64.5835 33.3345C61.1317 33.3345 58.3335 36.1327 58.3335 39.5845C58.3335 43.0363 61.1317 45.8345 64.5835 45.8345Z" fill="#B71C1C"/>
<path d="M43.75 39.5845C47.2018 39.5845 50 36.7863 50 33.3345C50 29.8827 47.2018 27.0845 43.75 27.0845C40.2982 27.0845 37.5 29.8827 37.5 33.3345C37.5 36.7863 40.2982 39.5845 43.75 39.5845Z" fill="#B71C1C"/>
<path d="M77.0835 46.1021C77.0835 46.1021 77.0835 42.6708 77.0835 40.625C77.0835 35.4479 81.2814 31.25 86.4585 31.25C91.6356 31.25 95.8335 35.4479 95.8335 40.625C95.8335 45.8021 91.6356 50 86.4585 50" stroke="#90CAF9" stroke-width="22" stroke-miterlimit="10" stroke-linecap="round"/>
<path d="M52.0397 75.0002H39.7543C23.4918 75.0002 14.8335 62.721 12.5002 51.7919C10.3752 41.8419 2.0835 35.4169 2.0835 35.4169V31.2502C2.0835 31.2502 21.0022 37.5002 45.3127 37.5002C69.6231 37.5002 79.4752 31.2648 83.0064 29.7314C83.0064 29.7314 75.9772 35.5273 79.1647 45.5564C79.1668 61.9148 68.3002 75.0002 52.0397 75.0002Z" fill="#90CAF9"/>
<path d="M62.4998 72.9155H29.1665V77.0822H62.4998V72.9155Z" fill="#64B5F6"/>
<path d="M62.5 77.0845H29.1667C26.8646 77.0845 25 78.9491 25 81.2511V83.3345H66.6667V81.2511C66.6667 78.9491 64.8021 77.0845 62.5 77.0845Z" fill="#90CAF9"/>
</g>
<defs>
<clipPath id="clip0_190_6105">
<rect width="100" height="100" fill="white"/>
</clipPath>
</defs>
</svg>
