<svg width="100" height="100" viewBox="0 0 100 100" fill="none" xmlns="http://www.w3.org/2000/svg">
<path d="M64.5833 22.5C64.5833 22.5 57.5 21.4583 56.25 27.0833C55.2083 31.0417 45 31.875 43.75 27.0833C42.2917 21.4583 35.4167 22.5 35.4167 22.5C35.4167 22.5 41.6667 15.8333 41.6667 6.25C44.5833 8.95833 48.125 16.0417 50 18.75C50 18.75 54.1667 10.2083 58.3333 6.25C58.3333 16.0417 64.5833 22.5 64.5833 22.5ZM75 75C75 75 65.8333 83.125 72.9167 83.3333C83.125 83.5417 85.4167 70.8333 85.4167 70.8333C82.0833 73.75 79.1667 72.9167 79.1667 72.9167L75 75ZM83.3333 54.1667C92.2917 45.2083 83.3333 31.25 83.3333 31.25C83.3333 31.25 84.1667 39.5833 81.25 39.5833C79.5833 39.5833 77.0833 37.5 77.0833 37.5C77.0833 37.5 74.7917 62.7083 83.3333 54.1667ZM18.75 29.1667C18.75 29.1667 10.625 38.9583 16.6667 52.0833C20.8333 61.4583 22.9167 35.4167 22.9167 35.4167C22.9167 35.4167 18.3333 42.9167 18.75 29.1667ZM25 79.1667C25 79.1667 22.0833 57.7083 18.75 62.5C15.4167 67.2917 12.5 62.5 12.5 62.5C13.125 78.75 25 79.1667 25 79.1667Z" fill="#8BC34A"/>
<path d="M50.0003 18.75C31.667 18.75 16.667 35.625 16.667 56.25C16.667 76.875 31.667 93.75 50.0003 93.75C68.3337 93.75 83.3337 76.875 83.3337 56.25C83.3337 35.625 68.3337 18.75 50.0003 18.75Z" fill="#F50057"/>
<path d="M56.667 26.0417C56.667 26.0417 51.042 23.5417 50.0003 18.75C50.0003 18.75 50.417 22.5 43.3337 26.0417H43.1253C31.4587 29.5833 22.917 41.6667 22.917 56.25C22.917 73.5417 35.0003 87.5 50.0003 87.5C65.0003 87.5 77.0837 73.5417 77.0837 56.25C77.0837 41.6667 68.3337 29.375 56.667 26.0417Z" fill="#EEEEEE"/>
<path d="M49.9997 31.2489C49.9997 32.4989 49.1663 33.3322 47.9163 33.3322C46.6663 33.3322 45.833 32.4989 45.833 31.2489C45.833 29.9989 46.6663 29.1655 47.9163 29.1655C49.1663 29.1655 49.9997 29.9989 49.9997 31.2489ZM62.4997 35.4155C61.2497 35.4155 60.4163 36.2489 60.4163 37.4989C60.4163 38.7489 61.2497 39.5822 62.4997 39.5822C63.7497 39.5822 64.583 38.7489 64.583 37.4989C64.583 36.2489 63.7497 35.4155 62.4997 35.4155ZM56.2497 37.4989C54.9997 37.4989 54.1663 38.3322 54.1663 39.5822C54.1663 40.8322 54.9997 41.6655 56.2497 41.6655C57.4997 41.6655 58.333 40.8322 58.333 39.5822C58.333 38.3322 57.4997 37.4989 56.2497 37.4989ZM60.4163 45.8322C60.4163 47.0822 61.2497 47.9155 62.4997 47.9155C63.7497 47.9155 64.583 47.0822 64.583 45.8322C64.583 44.5822 63.7497 43.7489 62.4997 43.7489C61.2497 43.7489 60.4163 44.5822 60.4163 45.8322ZM35.4163 39.5822C34.1663 39.5822 33.333 40.4155 33.333 41.6655C33.333 42.9155 34.1663 43.7489 35.4163 43.7489C36.6663 43.7489 37.4997 42.9155 37.4997 41.6655C37.4997 40.4155 36.6663 39.5822 35.4163 39.5822ZM29.1663 54.1655C27.9163 54.1655 27.083 54.9989 27.083 56.2489C27.083 57.4989 27.9163 58.3322 29.1663 58.3322C30.4163 58.3322 31.2497 57.4989 31.2497 56.2489C31.2497 54.9989 30.4163 54.1655 29.1663 54.1655ZM43.7497 47.9155C42.4997 47.9155 41.6663 48.7489 41.6663 49.9989C41.6663 51.2489 42.4997 52.0822 43.7497 52.0822C44.9997 52.0822 45.833 51.2489 45.833 49.9989C45.833 48.7489 44.9997 47.9155 43.7497 47.9155ZM52.083 49.9989C50.833 49.9989 49.9997 50.8322 49.9997 52.0822C49.9997 53.3322 50.833 54.1655 52.083 54.1655C53.333 54.1655 54.1663 53.3322 54.1663 52.0822C54.1663 50.8322 53.333 49.9989 52.083 49.9989ZM70.833 49.9989C69.583 49.9989 68.7497 50.8322 68.7497 52.0822C68.7497 53.3322 69.583 54.1655 70.833 54.1655C72.083 54.1655 72.9163 53.3322 72.9163 52.0822C72.9163 50.8322 72.083 49.9989 70.833 49.9989ZM64.583 54.1655C63.333 54.1655 62.4997 54.9989 62.4997 56.2489C62.4997 57.4989 63.333 58.3322 64.583 58.3322C65.833 58.3322 66.6663 57.4989 66.6663 56.2489C66.6663 54.9989 65.833 54.1655 64.583 54.1655ZM66.6663 66.6655C66.6663 67.9155 67.4997 68.7489 68.7497 68.7489C69.9997 68.7489 70.833 67.9155 70.833 66.6655C70.833 65.4155 69.9997 64.5822 68.7497 64.5822C67.4997 64.5822 66.6663 65.4155 66.6663 66.6655ZM60.4163 72.9155C60.4163 74.1655 61.2497 74.9989 62.4997 74.9989C63.7497 74.9989 64.583 74.1655 64.583 72.9155C64.583 71.6655 63.7497 70.8322 62.4997 70.8322C61.2497 70.8322 60.4163 71.6655 60.4163 72.9155ZM47.9163 77.0822C46.6663 77.0822 45.833 77.9155 45.833 79.1655C45.833 80.4155 46.6663 81.2489 47.9163 81.2489C49.1663 81.2489 49.9997 80.4155 49.9997 79.1655C49.9997 77.9155 49.1663 77.0822 47.9163 77.0822ZM39.583 72.9155C38.333 72.9155 37.4997 73.7489 37.4997 74.9989C37.4997 76.2489 38.333 77.0822 39.583 77.0822C40.833 77.0822 41.6663 76.2489 41.6663 74.9989C41.6663 73.7489 40.833 72.9155 39.583 72.9155ZM35.4163 60.4155C34.1663 60.4155 33.333 61.2489 33.333 62.4989C33.333 63.7489 34.1663 64.5822 35.4163 64.5822C36.6663 64.5822 37.4997 63.7489 37.4997 62.4989C37.4997 61.2489 36.6663 60.4155 35.4163 60.4155ZM47.9163 60.4155C46.6663 60.4155 45.833 61.2489 45.833 62.4989C45.833 63.7489 46.6663 64.5822 47.9163 64.5822C49.1663 64.5822 49.9997 63.7489 49.9997 62.4989C49.9997 61.2489 49.1663 60.4155 47.9163 60.4155Z" fill="#455A64"/>
</svg>
