<svg width="100" height="100" viewBox="0 0 100 100" fill="none" xmlns="http://www.w3.org/2000/svg">
<path d="M49.7559 24.2336C37.2065 15.2686 19.036 19.1307 9.17913 32.8634C-0.684397 46.5961 1.49495 65.0064 14.0428 73.9697C26.5922 82.933 44.7627 79.0642 54.6263 65.3232C64.4831 51.5989 62.3037 33.1969 49.7559 24.2336Z" fill="#F5833C"/>
<path d="M97.0002 49.9043C97.0002 66.859 84.5085 80.6001 69.0994 80.6001C53.6919 80.6001 41.2002 66.859 41.2002 49.9043C41.2002 32.9496 53.6919 19.2001 69.0994 19.2001C84.5085 19.2001 97.0002 32.9496 97.0002 49.9043Z" fill="#F36D2D"/>
<path d="M95 50.0001C95 65.7979 83.36 78.6001 68.9992 78.6001C54.6417 78.6001 43 65.7979 43 50.0001C43 34.2023 54.6417 21.4001 68.9992 21.4001C83.36 21.4001 95 34.2023 95 50.0001Z" fill="#FBAF2C"/>
<path d="M83.1998 49.9042C83.1998 59.8984 76.8422 68 68.999 68C61.1574 68 54.7998 59.8984 54.7998 49.9042C54.7998 39.9099 61.1574 31.8 68.999 31.8C76.8422 31.8 83.1998 39.9099 83.1998 49.9042Z" fill="#260302"/>
<path d="M70.6001 67.6109C70.6001 68.4929 69.9282 69.2002 69.101 69.2002C68.2737 69.2002 67.6001 68.4929 67.6001 67.6109V32.1895C67.6001 31.3158 68.2737 30.6002 69.101 30.6002C69.9282 30.6002 70.6001 31.3158 70.6001 32.1895V67.6109Z" fill="#611C0F"/>
</svg>
