<svg width="100" height="100" viewBox="0 0 100 100" fill="none" xmlns="http://www.w3.org/2000/svg">
<path d="M76.0816 41.4186C74.4732 43.0311 71.8607 43.0311 70.2482 41.4186L58.5795 29.7498C56.967 28.1394 56.967 25.5269 58.5795 23.9165L62.9545 19.5415C67.3337 15.1623 71.7066 25.3727 80.4566 13.7061L86.292 19.5415C74.6232 28.2894 84.8337 32.6644 80.4566 37.0415L76.0816 41.4186Z" fill="#FFC107"/>
<path d="M83.375 20.7529C85.6532 20.7529 87.5 18.9061 87.5 16.6279C87.5 14.3498 85.6532 12.5029 83.375 12.5029C81.0968 12.5029 79.25 14.3498 79.25 16.6279C79.25 18.9061 81.0968 20.7529 83.375 20.7529Z" fill="#FFC107"/>
<path d="M71.1874 60.8959C75.902 56.1834 73.7416 48.8647 69.7312 44.8542L62.4395 37.5605L55.1437 30.2667C51.1333 26.2563 43.8145 24.0959 39.102 28.8105C36.1854 31.7251 33.2687 40.4793 28.8916 44.8542C24.5166 49.2292 20.1416 47.7709 14.3083 53.6042C5.55619 62.3563 14.3083 71.1084 14.3083 71.1084L21.5979 78.4001L28.8895 85.6917C28.8895 85.6917 37.6437 94.4438 46.3937 85.6917C52.227 79.8563 50.7708 75.4834 55.1437 71.1084C59.5187 66.7313 68.2729 63.8147 71.1874 60.8959Z" fill="#BBDEFB"/>
<path d="M73.1645 50.1729L49.8291 26.8354L54.2062 22.4563C55.8145 20.8479 58.4291 20.8479 60.0374 22.4563L77.5416 39.9604C79.1499 41.5667 79.1499 44.1833 77.5416 45.7958L73.1645 50.1729Z" fill="#42A5F5"/>
<path d="M54.2532 42.794L51.3057 39.8486L24.7969 66.3761L27.7444 69.3216L54.2532 42.794Z" fill="#64B5F6"/>
<path d="M61.6263 50.162L51.3145 39.8501L48.3682 42.7963L58.6801 53.1082L61.6263 50.162Z" fill="#64B5F6"/>
<path d="M52.7837 53.1131L45.416 45.7485L42.4702 48.6956L49.8379 56.0602L52.7837 53.1131Z" fill="#64B5F6"/>
<path d="M46.8881 58.9989L39.5239 51.6348L36.5791 54.5795L43.9433 61.9437L46.8881 58.9989Z" fill="#64B5F6"/>
<path d="M40.996 64.891L33.6318 57.5269L30.6856 60.4731L38.0497 67.8373L40.996 64.891Z" fill="#64B5F6"/>
<path d="M38.0487 73.7308L27.7368 63.416L24.7901 66.3618L35.102 76.6767L38.0487 73.7308Z" fill="#64B5F6"/>
</svg>
