<svg width="100" height="100" viewBox="0 0 100 100" fill="none" xmlns="http://www.w3.org/2000/svg">
<path d="M76.4587 47.083L52.917 23.333C52.917 23.333 63.9587 26.8747 75.8337 15.208L84.792 24.1663C72.917 36.0413 76.4587 47.083 76.4587 47.083Z" fill="#558B2F"/>
<path d="M77.2914 72.9163C81.4581 62.4997 79.5831 49.583 71.8748 38.7497C71.2498 33.958 72.2914 27.9163 78.7498 21.2497C72.2914 27.708 66.0414 28.958 61.2498 28.1247C50.6248 20.4163 37.4998 18.5413 27.0831 22.708L29.1664 14.583C29.1664 14.583 18.7498 25.208 18.3331 28.5413C6.24977 40.833 8.12477 62.4997 22.9164 77.083C37.4998 91.6663 59.3748 93.7497 71.4581 81.458C74.7914 81.2497 85.4164 70.833 85.4164 70.833L77.2914 72.9163Z" fill="#AED581"/>
<path d="M53.7503 61.042C53.7503 61.042 47.5003 57.5003 49.792 50.2087C42.5003 52.5003 39.167 46.2503 38.9587 46.2503C39.5837 46.8753 46.667 50.2087 55.2087 41.8753L58.1253 44.792C49.792 53.3337 53.1253 60.417 53.7503 61.042ZM25.8337 62.5003C25.417 62.0837 21.8753 54.5837 28.7503 47.7087L25.8337 44.792C19.167 51.4587 11.667 48.1253 11.042 47.7087C11.042 47.7087 15.2087 53.9587 20.8337 52.5003C19.167 58.3337 25.2087 61.4587 25.8337 62.5003ZM52.292 88.9587C51.8753 88.542 48.3337 81.042 55.2087 74.167L52.292 71.2503C45.6253 77.917 38.1253 74.5837 37.5003 74.167C37.5003 74.167 41.667 80.417 47.292 78.9587C45.8337 85.0003 52.292 88.9587 52.292 88.9587ZM22.917 77.0837C24.3753 78.542 26.042 80.0003 27.917 81.2503C26.042 79.3753 25.8337 77.292 30.2087 72.7087L27.292 69.792C23.1253 73.9587 20.8337 73.9587 18.7503 72.0837C19.792 73.9587 21.2503 75.6253 22.917 77.0837ZM85.417 70.8337L82.5003 67.917C74.167 76.2503 66.2503 73.3337 65.6253 72.7087C65.6253 72.917 73.9587 82.292 85.417 70.8337ZM27.292 34.3753C26.667 33.7503 23.7503 26.042 32.0837 17.5003L29.167 14.5837C17.5003 26.2503 27.0837 34.3753 27.292 34.3753ZM76.4587 47.0837C76.4587 47.292 76.667 47.7087 76.667 47.917C76.2503 43.9587 83.1253 34.792 88.9587 28.7503L86.042 25.8337C84.5837 27.5003 80.0003 32.0837 76.667 37.292C75.2087 42.917 76.4587 47.0837 76.4587 47.0837ZM52.917 23.542C52.917 23.542 57.0837 24.792 63.1253 23.1253C68.1253 19.792 72.7087 15.417 74.3753 13.9587L71.4587 11.042C65.417 17.0837 56.2503 23.7503 52.292 23.3337C52.292 23.3337 52.7087 23.3337 52.917 23.542ZM76.4587 47.0837C76.042 46.667 69.167 33.7503 81.667 21.2503L78.7503 18.3337C66.2503 30.8337 53.3337 23.7503 52.917 23.542C53.1253 23.542 59.792 33.542 71.042 29.167C66.667 40.2087 76.4587 46.8753 76.4587 47.0837Z" fill="#7CB342"/>
</svg>
