<svg width="100" height="100" viewBox="0 0 100 100" fill="none" xmlns="http://www.w3.org/2000/svg">
<path d="M50.0003 50C68.4098 50 83.3337 45.8027 83.3337 40.625C83.3337 35.4473 68.4098 31.25 50.0003 31.25C31.5908 31.25 16.667 35.4473 16.667 40.625C16.667 45.8027 31.5908 50 50.0003 50Z" fill="#3949AB"/>
<path d="M50.0003 54.1655C68.4098 54.1655 83.3337 49.9682 83.3337 44.7905C83.3337 39.6129 68.4098 35.4155 50.0003 35.4155C31.5908 35.4155 16.667 39.6129 16.667 44.7905C16.667 49.9682 31.5908 54.1655 50.0003 54.1655Z" fill="#1A237E"/>
<path d="M44.7086 6.52441L40.069 7.98483C36.2273 9.19524 34.0981 13.2911 35.3023 17.1307L42.0002 30.3119C43.2086 34.1515 47.3002 36.2869 51.1461 35.0765C54.9877 33.8682 57.119 29.7765 55.9127 25.9327L53.8544 11.2911C52.6461 7.45358 48.5502 5.31816 44.7086 6.52441ZM49.894 31.1015C47.6981 31.7952 45.3586 30.5765 44.669 28.3786C43.9752 26.1848 45.1961 23.8452 47.3919 23.1536C49.5877 22.4598 51.9273 23.6827 52.6169 25.8765C53.3065 28.0723 52.0877 30.4119 49.894 31.1015ZM48.1315 18.5557L44.1565 19.8036C41.9606 20.4952 39.619 19.2765 38.9294 17.0807C38.2398 14.8827 39.4586 12.5473 41.6544 11.8557L45.6252 10.6036C47.8211 9.91399 50.1627 11.1348 50.8523 13.3307C51.544 15.5244 50.3232 17.8619 48.1315 18.5557Z" fill="#5C6BC0"/>
<path d="M72.8479 37.9739C66.8875 36.3884 58.8562 35.4155 50 35.4155C34.1396 35.4155 20.9021 38.5322 17.5312 42.7072C20.1521 45.9551 28.75 48.553 39.8958 49.5509L72.8479 37.9739Z" fill="#5C6BC0"/>
<path d="M37.3551 50.5338L72.7259 38.0213C72.5842 37.4213 72.4092 36.8234 72.1926 36.2297C68.8926 27.1172 58.0717 22.6713 48.3509 26.1942C38.6342 29.7151 33.4321 39.9526 36.7342 49.0672C36.9155 49.5692 37.128 50.0567 37.3551 50.5338Z" fill="#9FA8DA"/>
<path d="M50.0003 50C31.5899 50 16.667 45.8021 16.667 40.625V83.3333C16.667 83.3333 16.6753 84.2667 18.6003 85.4125C23.1753 89.0542 35.4857 91.6667 50.0003 91.6667C64.5149 91.6667 76.8253 89.0542 81.4003 85.4125C83.3253 84.2667 83.3337 83.3333 83.3337 83.3333V40.625C83.3337 45.8021 68.4107 50 50.0003 50Z" fill="#9FA8DA"/>
<path d="M50.0003 77.0811C31.5899 77.0811 16.667 72.8831 16.667 67.7061V71.8727C16.667 77.0498 31.5899 81.2477 50.0003 81.2477C68.4107 81.2477 83.3337 77.0498 83.3337 71.8727V67.7061C83.3337 72.8831 68.4107 77.0811 50.0003 77.0811Z" fill="#5C6BC0"/>
<path d="M50.0003 68.75C31.5899 68.75 16.667 64.5521 16.667 59.375V63.5417C16.667 68.7188 31.5899 72.9167 50.0003 72.9167C68.4107 72.9167 83.3337 68.7188 83.3337 63.5417V59.375C83.3337 64.5521 68.4107 68.75 50.0003 68.75Z" fill="#5C6BC0"/>
<path d="M50.0003 60.4155C31.5899 60.4155 16.667 56.2176 16.667 51.0405V55.2072C16.667 60.3843 31.5899 64.5822 50.0003 64.5822C68.4107 64.5822 83.3337 60.3843 83.3337 55.2072V51.0405C83.3337 56.2176 68.4107 60.4155 50.0003 60.4155Z" fill="#5C6BC0"/>
</svg>
