<svg width="100" height="100" viewBox="0 0 100 100" fill="none" xmlns="http://www.w3.org/2000/svg">
<path d="M77.4753 8.28513L76.1367 7.64721C73.328 6.27924 70.2463 5.56422 67.1221 5.55566C63.9471 5.56485 60.8153 6.29209 57.9612 7.68295C55.107 9.07381 52.6044 11.0923 50.6408 13.5872C48.674 11.098 46.17 9.08555 43.316 7.70021C40.462 6.31487 37.3318 5.59248 34.1594 5.58704C31.0353 5.59559 27.9536 6.31061 25.1448 7.67858L23.8063 8.3165C20.468 9.91311 17.613 12.3668 15.5328 15.4272C13.4525 18.4876 12.2215 22.0451 11.9653 25.7367C11.709 29.4282 12.4368 33.1217 14.0742 36.4401C15.7117 39.7586 18.2003 42.5832 21.2859 44.6257V91.4135C21.2859 92.2262 21.6088 93.0056 22.1834 93.5802C22.758 94.1548 23.5374 94.4776 24.3501 94.4776H76.9315C77.3339 94.4776 77.7323 94.3984 78.1041 94.2444C78.4758 94.0904 78.8136 93.8647 79.0981 93.5802C79.3827 93.2957 79.6084 92.9579 79.7624 92.5861C79.9163 92.2144 79.9956 91.8159 79.9956 91.4135V44.5839C83.0787 42.5407 85.5649 39.7165 87.2007 36.3993C88.8364 33.082 89.5633 29.3903 89.3071 25.7005C89.0509 22.0107 87.8208 18.4549 85.7423 15.3955C83.6638 12.3361 80.8112 9.88258 77.4753 8.28513Z" fill="#C4832B"/>
<path d="M76.1578 11.0462L74.8192 10.4082C70.553 8.36451 65.65 8.09767 61.1872 9.66632C56.7244 11.235 53.0667 14.5108 51.0175 18.7744C50.892 19.0463 50.7665 19.3182 50.6514 19.5901C50.5364 19.3182 50.4109 19.0463 50.2854 18.7744C48.2362 14.5108 44.5785 11.235 40.1156 9.66632C35.6528 8.09767 30.7499 8.36451 26.4836 10.4082L25.1451 11.0462C22.1732 12.4662 19.6524 14.6813 17.862 17.4459C16.0716 20.2106 15.0815 23.4169 15.0014 26.7097C14.9212 30.0025 15.7542 33.2532 17.408 36.1016C19.0618 38.9501 21.4719 41.2852 24.3712 42.8481V91.4137H76.9317V42.8481C79.831 41.2852 82.2411 38.9501 83.8949 36.1016C85.5486 33.2532 86.3816 30.0025 86.3015 26.7097C86.2214 23.4169 85.2313 20.2106 83.4409 17.4459C81.6505 14.6813 79.1297 12.4662 76.1578 11.0462Z" fill="#EAA74E"/>
<path d="M55.4622 60.9399C55.2803 60.4319 54.9929 59.968 54.6191 59.5788C54.2453 59.1897 53.7933 58.8839 53.293 58.6817C52.7927 58.4795 52.2552 58.3854 51.716 58.4055C51.1767 58.4256 50.6478 58.5596 50.1639 58.7985C49.6801 59.0375 49.2522 59.3761 48.9084 59.7921C48.5646 60.208 48.3127 60.692 48.1692 61.2122C48.0256 61.7324 47.9937 62.2771 48.0755 62.8105C48.1573 63.3439 48.3509 63.854 48.6438 64.3073L51.6138 60.8981L55.4622 60.9399Z" fill="#BC7030"/>
<path d="M69.2247 48.2437C69.6761 48.0599 70.0847 47.785 70.4251 47.4362C70.7655 47.0875 71.0303 46.6722 71.203 46.2165C71.3757 45.7608 71.4526 45.2743 71.4289 44.7876C71.4051 44.3008 71.2813 43.8241 71.0651 43.3874C70.8489 42.9506 70.5449 42.5631 70.1722 42.2491C69.7995 41.9351 69.3661 41.7012 68.8989 41.5623C68.4318 41.4233 67.9411 41.3821 67.4573 41.4413C66.9736 41.5005 66.5072 41.6588 66.0874 41.9063L69.2247 44.6776V48.2437Z" fill="#BC7030"/>
<path d="M28.2511 64.8718C28.3128 63.6881 27.9859 62.5167 27.3204 61.5358C26.6994 60.5852 25.8181 59.8333 24.7816 59.3698C23.745 58.9062 22.5971 58.7506 21.4745 58.9214C20.2703 59.1292 19.1627 59.7124 18.3099 60.5877C17.4572 61.463 16.903 62.5855 16.7267 63.7947C15.6206 64.089 14.6679 64.7932 14.0619 65.7643C13.456 66.7353 13.2422 67.9006 13.4639 69.0235C13.0987 69.0542 12.7432 69.1573 12.4182 69.3268C11.9135 69.5874 11.4956 69.9891 11.2152 70.483C10.9348 70.9769 10.8041 71.5417 10.839 72.1086C10.8685 72.5457 10.9968 72.9704 11.2141 73.3508C11.4315 73.7312 11.7323 74.0574 12.094 74.3047C11.7702 74.8363 11.6079 75.4507 11.627 76.0729C11.646 76.6951 11.8456 77.2983 12.2013 77.8092C12.557 78.32 13.0536 78.7165 13.6305 78.9502C14.2075 79.184 14.8399 79.2449 15.4509 79.1257C15.7295 80.1429 16.3821 81.0173 17.278 81.5739C18.1739 82.1304 19.247 82.328 20.2824 82.1271C20.6068 82.0629 20.9227 81.9611 21.2235 81.8238C21.4134 82.6333 21.8094 83.3799 22.3731 83.9911C22.9367 84.6023 23.6488 85.0574 24.4403 85.312C25.2318 85.5667 26.0757 85.6124 26.89 85.4447C27.7043 85.2769 28.4614 84.9014 29.0878 84.3546C29.5717 84.7539 30.1529 85.0177 30.772 85.119C31.3912 85.2202 32.0262 85.1554 32.6121 84.931C33.198 84.7066 33.7139 84.3308 34.107 83.8418C34.5002 83.3529 34.7566 82.7684 34.85 82.148C41.0723 81.1022 44.2619 78.2054 48.3822 72.987L48.6019 72.7047V72.6419C50.2542 70.4772 47.9535 66.7647 45.59 68.1242C32.978 75.34 32.1832 60.8038 32.1832 60.8038C32.1832 60.8038 28.0002 61.1907 28.544 64.8823H28.2302" fill="#82C60A"/>
<path d="M48.6332 72.642V72.7048L48.4135 72.9871C44.3246 78.216 41.0931 81.1232 34.8813 82.1481C34.7879 82.7685 34.5315 83.353 34.1383 83.842C33.7452 84.3309 33.2293 84.7068 32.6434 84.9311C32.0575 85.1555 31.4225 85.2203 30.8033 85.1191C30.1842 85.0178 29.603 84.754 29.1191 84.3547C28.4927 84.9015 27.7356 85.277 26.9213 85.4448C26.107 85.6126 25.2631 85.5669 24.4716 85.3122C23.6801 85.0575 22.968 84.6024 22.4044 83.9912C21.8407 83.38 21.4447 82.6334 21.2549 81.8239C20.3457 82.2368 19.3189 82.3109 18.36 82.0328C17.401 81.7547 16.5732 81.1427 16.026 80.3075C15.7064 80.4762 15.402 80.6721 15.1162 80.8932C13.6416 82.0331 12.8887 83.6958 13.3593 84.9821C13.5886 85.5054 13.9665 85.9499 14.4462 86.2603C14.9258 86.5708 15.486 86.7336 16.0574 86.7286C15.8249 87.1872 15.7038 87.6942 15.7038 88.2083C15.7038 88.7225 15.8249 89.2295 16.0574 89.6881C17.1031 91.5287 20.094 91.6019 22.4993 89.96C23.932 91.8633 27.0693 91.8633 29.5478 89.9705C29.8975 89.7033 30.2229 89.4058 30.5204 89.0816C31.9531 91.2568 35.0381 91.2986 37.3493 89.3116C38.0552 88.7012 38.6252 87.9495 39.0225 87.1051C39.5014 87.195 39.9949 87.1699 40.4622 87.0317C40.9295 86.8935 41.3572 86.6463 41.7101 86.3103C42.2239 85.8594 42.613 85.284 42.8401 84.6394C43.0672 83.9947 43.1246 83.3024 43.0069 82.6292C46.9076 79.586 48.0684 76.5532 49.0096 72.1714L49.0306 71.9937C48.9426 72.2252 48.8229 72.4434 48.675 72.642" fill="#51B224"/>
<path d="M28.3244 74.9114C28.2347 74.8928 28.1422 74.8928 28.0525 74.9114C26.882 74.6995 25.7409 74.3484 24.6537 73.8656C23.909 72.1599 23.659 70.2791 23.9322 68.4381C23.9522 68.345 23.9522 68.2487 23.9322 68.1557C23.9043 67.9985 23.8219 67.8561 23.6995 67.7535C23.5771 67.6509 23.4226 67.5947 23.2629 67.5947C23.1032 67.5947 22.9486 67.6509 22.8262 67.7535C22.7038 67.8561 22.6215 67.9985 22.5936 68.1557C22.3391 69.73 22.4392 71.3413 22.8864 72.8721C21.922 72.2712 21.0575 71.5232 20.3243 70.6551C20.0964 70.2006 19.9657 69.7037 19.9405 69.196C19.9153 68.6882 19.9961 68.1808 20.1778 67.706C20.2099 67.5897 20.2099 67.4668 20.1778 67.3505C20.154 67.1997 20.0801 67.0613 19.9681 66.9577C19.856 66.854 19.7124 66.7911 19.5602 66.779C19.4081 66.7669 19.2563 66.8064 19.1293 66.8911C19.0023 66.9758 18.9075 67.1008 18.8602 67.2459C18.4937 68.3027 18.4392 69.4427 18.7033 70.5296C18.237 70.5008 17.7799 70.3875 17.3543 70.1949C17.192 70.1145 17.0044 70.1018 16.8328 70.1597C16.6612 70.2175 16.5196 70.3412 16.4392 70.5034C16.3588 70.6657 16.3461 70.8533 16.4039 71.0249C16.4618 71.1965 16.5855 71.3381 16.7477 71.4185C17.6026 71.8281 18.5591 71.9773 19.4981 71.8473C21.4247 73.846 23.8743 75.2628 26.5675 75.9362L27.2368 76.0931C26.9291 76.7167 26.4607 77.247 25.8798 77.6294C25.2989 78.0117 24.6266 78.2323 23.9322 78.2683C23.7505 78.2683 23.5763 78.3405 23.4478 78.4689C23.3194 78.5974 23.2472 78.7716 23.2472 78.9533C23.2472 79.135 23.3194 79.3092 23.4478 79.4376C23.5763 79.5661 23.7505 79.6383 23.9322 79.6383C24.9416 79.5899 25.9154 79.2501 26.7357 78.6599C27.5561 78.0697 28.1878 77.2544 28.5545 76.3127C30.376 76.5627 32.2232 76.5627 34.0448 76.3127C34.1106 76.3233 34.1777 76.3233 34.2435 76.3127C35.897 76.0674 37.5246 75.6719 39.1063 75.131C38.927 75.7049 38.5986 76.2209 38.1547 76.6264C38.0361 76.7459 37.9661 76.905 37.9581 77.0731C37.9501 77.2412 38.0047 77.4062 38.1114 77.5364C38.2181 77.6665 38.3693 77.7524 38.5357 77.7775C38.7021 77.8026 38.8719 77.7651 39.0122 77.6722C39.9196 76.8637 40.4906 75.7441 40.6122 74.5349C43.5691 73.3541 46.3913 71.8606 49.0307 70.0799C48.9234 69.6394 48.7316 69.2238 48.466 68.8564C45.7419 70.7175 42.8161 72.2647 39.7442 73.4682C37.9917 74.1462 36.1724 74.6369 34.3167 74.9323C32.5284 74.3048 31.9323 71.5545 31.9219 71.5231C31.8858 71.3456 31.7807 71.1897 31.6297 71.0896C31.4787 70.9896 31.2941 70.9537 31.1166 70.9897C30.9391 71.0258 30.7832 71.1309 30.6832 71.2819C30.5832 71.4329 30.5472 71.6175 30.5833 71.795C30.8502 73.0222 31.4099 74.1667 32.2147 75.131C30.9705 75.2008 29.7225 75.1377 28.4917 74.9428C28.4398 74.9103 28.3835 74.8857 28.3244 74.8695" fill="#51B224"/>
<path d="M50.0551 79.6591C67.6131 79.6591 81.8466 65.9359 81.8466 49.0075C81.8466 32.0791 67.6131 18.356 50.0551 18.356C32.4972 18.356 18.2637 32.0791 18.2637 49.0075C18.2637 65.9359 32.4972 79.6591 50.0551 79.6591Z" fill="#FFFBED"/>
<path d="M54.2392 60.9397C62.9257 60.9397 69.9676 53.8979 69.9676 45.2113C69.9676 36.5248 62.9257 29.4829 54.2392 29.4829C45.5526 29.4829 38.5107 36.5248 38.5107 45.2113C38.5107 53.8979 45.5526 60.9397 54.2392 60.9397Z" fill="#FEBC10"/>
<path d="M58.6203 56.6104C58.1543 56.58 57.712 56.3947 57.3636 56.0838C57.0152 55.773 56.7809 55.3545 56.6979 54.895C56.6149 54.4355 56.688 53.9615 56.9056 53.5484C57.1232 53.1353 57.4728 52.8069 57.8987 52.6155C59.351 52.067 60.6026 51.0904 61.4877 49.8149C62.3729 48.5395 62.8499 47.0254 62.8556 45.4729C62.8594 43.8465 62.3387 42.2621 61.3706 40.9552C61.1433 40.5109 61.0822 40.0001 61.1985 39.5148C61.3148 39.0295 61.6008 38.6018 62.0048 38.3089C62.4088 38.0159 62.9043 37.8771 63.4016 37.9175C63.899 37.9579 64.3656 38.1747 64.7171 38.529C66.2089 40.5443 67.0119 42.9864 67.0074 45.4938C66.9992 47.8864 66.2651 50.2201 64.9019 52.1864C63.5388 54.1527 61.6109 55.6589 59.3732 56.5058C59.1307 56.5863 58.8755 56.6218 58.6203 56.6104Z" fill="#FFEC59"/>
</svg>
