<svg width="100" height="100" viewBox="0 0 100 100" fill="none" xmlns="http://www.w3.org/2000/svg">
<path d="M50 89.5837V47.917" stroke="#8BC34A" stroke-width="44"/>
<path d="M56.25 89.5833C56.25 64.5833 68.75 50 68.75 50" stroke="#8BC34A" stroke-width="44"/>
<path d="M43.75 89.5833C43.75 64.5833 31.25 50 31.25 50" stroke="#8BC34A" stroke-width="44"/>
<path d="M62.5003 56.2507C70.5545 56.2507 77.0837 49.7215 77.0837 41.6673C77.0837 33.6132 70.5545 27.084 62.5003 27.084C54.4462 27.084 47.917 33.6132 47.917 41.6673C47.917 49.7215 54.4462 56.2507 62.5003 56.2507Z" fill="#558B2F"/>
<path d="M75.0003 54.1667C83.0545 54.1667 89.5837 47.6375 89.5837 39.5833C89.5837 31.5292 83.0545 25 75.0003 25C66.9462 25 60.417 31.5292 60.417 39.5833C60.417 47.6375 66.9462 54.1667 75.0003 54.1667Z" fill="#558B2F"/>
<path d="M25.0003 54.1667C33.0545 54.1667 39.5837 47.6375 39.5837 39.5833C39.5837 31.5292 33.0545 25 25.0003 25C16.9462 25 10.417 31.5292 10.417 39.5833C10.417 47.6375 16.9462 54.1667 25.0003 54.1667Z" fill="#558B2F"/>
<path d="M41.6667 60.4173C50.8714 60.4173 58.3333 52.9554 58.3333 43.7507C58.3333 34.5459 50.8714 27.084 41.6667 27.084C32.4619 27.084 25 34.5459 25 43.7507C25 52.9554 32.4619 60.4173 41.6667 60.4173Z" fill="#558B2F"/>
<path d="M37.5003 39.5837C45.5545 39.5837 52.0837 33.0545 52.0837 25.0003C52.0837 16.9462 45.5545 10.417 37.5003 10.417C29.4462 10.417 22.917 16.9462 22.917 25.0003C22.917 33.0545 29.4462 39.5837 37.5003 39.5837Z" fill="#558B2F"/>
<path d="M60.4173 41.6667C68.4715 41.6667 75.0007 35.1375 75.0007 27.0833C75.0007 19.0292 68.4715 12.5 60.4173 12.5C52.3632 12.5 45.834 19.0292 45.834 27.0833C45.834 35.1375 52.3632 41.6667 60.4173 41.6667Z" fill="#558B2F"/>
<path d="M45.834 71.8038C42.1486 56.4913 34.8256 47.7684 34.4152 47.2872L33.334 45.833C43.6527 64.4976 45.834 87.4997 45.834 87.4997V71.8038Z" fill="#689F38"/>
<path d="M54.167 71.8038C57.8524 56.4913 65.1753 47.7684 65.5857 47.2872L66.667 45.833C56.3482 64.4976 54.167 87.4997 54.167 87.4997V71.8038Z" fill="#689F38"/>
<path d="M41.6667 60.4163C50.8714 60.4163 58.3333 52.9544 58.3333 43.7497C58.3333 34.5449 50.8714 27.083 41.6667 27.083C32.4619 27.083 25 34.5449 25 43.7497C25 52.9544 32.4619 60.4163 41.6667 60.4163Z" fill="#689F38"/>
<path d="M26.817 54.0396C24.3024 50.8917 22.917 46.6812 22.917 41.6667C22.917 34.8958 26.1774 29.6104 31.1962 26.3958C29.3128 25.5104 27.2191 25 25.0003 25C16.9462 25 10.417 31.5292 10.417 39.5833C10.417 47.6375 16.9462 54.1667 25.0003 54.1667C25.7087 54.1667 26.4003 54.1 27.0837 54.0021C27.0837 53.9979 27.0837 53.9958 27.0837 53.9917C26.9941 54.0063 26.9087 54.0292 26.817 54.0396Z" fill="#689F38"/>
<path d="M75.0002 25C73.6273 25 72.3044 25.2042 71.046 25.5583C75.9439 28.3354 79.1669 33.1896 79.1669 39.5833C79.1669 46.1812 76.5814 51.1333 72.0294 53.8625C71.6523 53.7875 71.2835 53.6854 70.9189 53.5771C72.2148 53.9542 73.5814 54.1667 75.0002 54.1667C83.0544 54.1667 89.5835 47.6375 89.5835 39.5833C89.5835 31.5292 83.0544 25 75.0002 25Z" fill="#689F38"/>
<path d="M62.5003 27.083C59.2858 27.083 54.8441 29.2518 55.3399 28.9705C58.4941 32.158 60.417 36.4747 60.417 41.6663C60.417 47.0372 58.8108 51.4684 55.9462 54.6809C57.9191 55.6768 60.1399 56.2497 62.5003 56.2497C70.5524 56.2497 77.0837 49.7184 77.0837 41.6663C77.0837 33.6143 70.5524 27.083 62.5003 27.083Z" fill="#689F38"/>
<path d="M31.2503 24.9997C32.4009 24.9997 33.3337 24.0669 33.3337 22.9163C33.3337 21.7657 32.4009 20.833 31.2503 20.833C30.0997 20.833 29.167 21.7657 29.167 22.9163C29.167 24.0669 30.0997 24.9997 31.2503 24.9997Z" fill="#33691E"/>
<path d="M35.4173 18.7497C36.5679 18.7497 37.5007 17.8169 37.5007 16.6663C37.5007 15.5157 36.5679 14.583 35.4173 14.583C34.2667 14.583 33.334 15.5157 33.334 16.6663C33.334 17.8169 34.2667 18.7497 35.4173 18.7497Z" fill="#33691E"/>
<path d="M39.5833 24.9997C40.7339 24.9997 41.6667 24.0669 41.6667 22.9163C41.6667 21.7657 40.7339 20.833 39.5833 20.833C38.4327 20.833 37.5 21.7657 37.5 22.9163C37.5 24.0669 38.4327 24.9997 39.5833 24.9997Z" fill="#33691E"/>
<path d="M64.5833 20.8327C65.7339 20.8327 66.6667 19.8999 66.6667 18.7493C66.6667 17.5988 65.7339 16.666 64.5833 16.666C63.4327 16.666 62.5 17.5988 62.5 18.7493C62.5 19.8999 63.4327 20.8327 64.5833 20.8327Z" fill="#33691E"/>
<path d="M68.7503 49.9997C69.9009 49.9997 70.8337 49.0669 70.8337 47.9163C70.8337 46.7657 69.9009 45.833 68.7503 45.833C67.5997 45.833 66.667 46.7657 66.667 47.9163C66.667 49.0669 67.5997 49.9997 68.7503 49.9997Z" fill="#33691E"/>
<path d="M72.9173 43.7497C74.0679 43.7497 75.0007 42.8169 75.0007 41.6663C75.0007 40.5157 74.0679 39.583 72.9173 39.583C71.7667 39.583 70.834 40.5157 70.834 41.6663C70.834 42.8169 71.7667 43.7497 72.9173 43.7497Z" fill="#33691E"/>
<path d="M64.5833 43.7497C65.7339 43.7497 66.6667 42.8169 66.6667 41.6663C66.6667 40.5157 65.7339 39.583 64.5833 39.583C63.4327 39.583 62.5 40.5157 62.5 41.6663C62.5 42.8169 63.4327 43.7497 64.5833 43.7497Z" fill="#33691E"/>
<path d="M79.1673 33.3327C80.3179 33.3327 81.2507 32.3999 81.2507 31.2493C81.2507 30.0988 80.3179 29.166 79.1673 29.166C78.0167 29.166 77.084 30.0988 77.084 31.2493C77.084 32.3999 78.0167 33.3327 79.1673 33.3327Z" fill="#33691E"/>
<path d="M83.3333 39.5827C84.4839 39.5827 85.4167 38.6499 85.4167 37.4993C85.4167 36.3488 84.4839 35.416 83.3333 35.416C82.1827 35.416 81.25 36.3488 81.25 37.4993C81.25 38.6499 82.1827 39.5827 83.3333 39.5827Z" fill="#33691E"/>
<path d="M35.4173 39.5827C36.5679 39.5827 37.5007 38.6499 37.5007 37.4993C37.5007 36.3488 36.5679 35.416 35.4173 35.416C34.2667 35.416 33.334 36.3488 33.334 37.4993C33.334 38.6499 34.2667 39.5827 35.4173 39.5827Z" fill="#33691E"/>
<path d="M31.2503 45.8327C32.4009 45.8327 33.3337 44.8999 33.3337 43.7493C33.3337 42.5988 32.4009 41.666 31.2503 41.666C30.0997 41.666 29.167 42.5988 29.167 43.7493C29.167 44.8999 30.0997 45.8327 31.2503 45.8327Z" fill="#33691E"/>
<path d="M39.5833 45.8327C40.7339 45.8327 41.6667 44.8999 41.6667 43.7493C41.6667 42.5988 40.7339 41.666 39.5833 41.666C38.4327 41.666 37.5 42.5988 37.5 43.7493C37.5 44.8999 38.4327 45.8327 39.5833 45.8327Z" fill="#33691E"/>
<path d="M35.4173 52.0827C36.5679 52.0827 37.5007 51.1499 37.5007 49.9993C37.5007 48.8488 36.5679 47.916 35.4173 47.916C34.2667 47.916 33.334 48.8488 33.334 49.9993C33.334 51.1499 34.2667 52.0827 35.4173 52.0827Z" fill="#33691E"/>
<path d="M51.1611 30.0606C51.6194 30.3794 52.059 30.721 52.4819 31.0835C53.5715 28.7648 54.1673 26.0314 54.1673 22.9169C54.1673 19.8398 53.5965 17.1314 52.5361 14.8252C51.5194 15.4794 50.5944 16.2585 49.7715 17.1377C51.2298 19.4085 52.084 22.1023 52.084 25.0002C52.084 26.7835 51.7486 28.4835 51.1611 30.0606Z" fill="#33691E"/>
</svg>
