<svg width="100" height="100" viewBox="0 0 100 100" fill="none" xmlns="http://www.w3.org/2000/svg">
<path d="M50.0003 79.1668C71.8616 79.1668 89.5837 73.104 89.5837 65.6252C89.5837 58.1463 71.8616 52.0835 50.0003 52.0835C28.1391 52.0835 10.417 58.1463 10.417 65.6252C10.417 73.104 28.1391 79.1668 50.0003 79.1668Z" fill="#EF6C00"/>
<path d="M50.0003 66.6668C71.8616 66.6668 89.5837 60.604 89.5837 53.1252C89.5837 45.6463 71.8616 39.5835 50.0003 39.5835C28.1391 39.5835 10.417 45.6463 10.417 53.1252C10.417 60.604 28.1391 66.6668 50.0003 66.6668Z" fill="#EF6C00"/>
<path d="M50.0003 54.1668C71.8616 54.1668 89.5837 48.104 89.5837 40.6252C89.5837 33.1463 71.8616 27.0835 50.0003 27.0835C28.1391 27.0835 10.417 33.1463 10.417 40.6252C10.417 48.104 28.1391 54.1668 50.0003 54.1668Z" fill="#EF6C00"/>
<path d="M50.0003 41.6668C71.8616 41.6668 89.5837 35.604 89.5837 28.1252C89.5837 20.6463 71.8616 14.5835 50.0003 14.5835C28.1391 14.5835 10.417 20.6463 10.417 28.1252C10.417 35.604 28.1391 41.6668 50.0003 41.6668Z" fill="#EF6C00"/>
<path d="M50.0003 79.1665C29.167 79.1665 12.1295 73.6561 10.5712 66.6665H10.417C10.417 79.1665 29.292 85.4165 50.0003 85.4165C70.7087 85.4165 89.5837 79.1665 89.5837 66.6665H89.4295C87.8712 73.6561 70.8337 79.1665 50.0003 79.1665Z" fill="#FFCC80"/>
<path d="M50.0003 66.6665C29.167 66.6665 12.1295 61.1561 10.5712 54.1665H10.417C10.417 66.6665 29.292 72.9165 50.0003 72.9165C70.7087 72.9165 89.5837 66.6665 89.5837 54.1665H89.4295C87.8712 61.1561 70.8337 66.6665 50.0003 66.6665Z" fill="#FFCC80"/>
<path d="M50.0003 54.1665C29.167 54.1665 12.1295 48.6561 10.5712 41.6665H10.417C10.417 54.1665 29.292 60.4165 50.0003 60.4165C70.7087 60.4165 89.5837 54.1665 89.5837 41.6665H89.4295C87.8712 48.6561 70.8337 54.1665 50.0003 54.1665Z" fill="#FFCC80"/>
<path d="M50.0003 41.6665C29.167 41.6665 12.1295 36.1561 10.5712 29.1665H10.417C10.417 41.6665 29.292 47.9165 50.0003 47.9165C70.7087 47.9165 89.5837 41.6665 89.5837 29.1665H89.4295C87.8712 36.1561 70.8337 41.6665 50.0003 41.6665Z" fill="#FFCC80"/>
<path d="M50 35.4168C63.8071 35.4168 75 32.1522 75 28.1252C75 24.0981 63.8071 20.8335 50 20.8335C36.1929 20.8335 25 24.0981 25 28.1252C25 32.1522 36.1929 35.4168 50 35.4168Z" fill="#BF360C"/>
<path d="M64.5837 67.7088C64.5837 70.5858 62.2524 72.9171 59.3753 72.9171C56.4982 72.9171 54.167 70.5858 54.167 67.7088V33.8546C54.167 30.9775 64.5837 30.9775 64.5837 33.8546V67.7088Z" fill="#BF360C"/>
<path d="M45.8337 48.252C45.8337 51.1291 43.5024 53.4604 40.6253 53.4604C37.7482 53.4604 35.417 51.1291 35.417 48.252V33.4083C35.417 30.5312 45.8337 30.5312 45.8337 33.4083V48.252Z" fill="#BF360C"/>
<path d="M54.1663 27.0835C54.1663 29.3835 52.2997 31.2502 49.9997 31.2502C47.6997 31.2502 45.833 29.3835 45.833 27.0835V39.5835C45.833 37.2835 47.6997 35.4168 49.9997 35.4168C52.2997 35.4168 54.1663 37.2835 54.1663 39.5835V27.0835Z" fill="#BF360C"/>
<path d="M64.583 25V37.5C64.583 35.2 66.458 33.3333 67.4913 33.3333C67.4913 33.3333 64.583 27.3 64.583 25Z" fill="#BF360C"/>
<path d="M35.4166 25V37.5C35.4166 35.2 33.5416 33.3333 32.5083 33.3333C32.5083 33.3333 35.4166 27.3 35.4166 25Z" fill="#BF360C"/>
</svg>
