<svg width="100" height="100" viewBox="0 0 100 100" fill="none" xmlns="http://www.w3.org/2000/svg">
<path d="M58.333 8.33447C58.333 8.33447 52.083 14.7928 52.083 27.0845L58.333 8.33447Z" fill="white"/>
<path d="M58.333 8.33447C58.333 8.33447 52.083 14.7928 52.083 27.0845" stroke="#795548" stroke-width="22" stroke-miterlimit="10"/>
<path d="M81.25 54.1673C81.25 71.4589 67.2917 93.7506 50 93.7506C32.7083 93.7506 18.75 71.4589 18.75 54.1673C18.75 33.7506 27.9167 18.7506 52.0833 27.0839C71.6667 18.5423 81.25 36.8756 81.25 54.1673Z" fill="#9C27B0"/>
<path d="M68.5417 59.5833C68.9583 58.5417 68.9583 57.2917 68.9583 56.25L69.375 52.9167C69.375 51.875 69.375 50.625 69.375 49.375C69.375 48.125 69.375 47.0833 69.1667 46.0417C68.9583 45 68.75 43.75 68.5417 42.7083C68.3333 41.6667 67.9167 40.625 67.7083 39.5833C67.0833 37.5 66.25 35.625 65.4167 33.5417C64.375 31.875 63.5417 30 62.5 28.5417C61.6667 27.2917 60.8333 26.0417 59.7917 25C57.2917 25.2083 54.7917 25.8333 51.875 27.0833C62.7083 35.4167 65 51.875 65 52.9167V56.0417C65 57.0833 65 58.125 64.7917 59.1667C64.5833 60.2083 64.5833 61.25 64.375 62.2917C64.375 63.3333 64.1667 64.375 63.9583 65.2083C63.5417 67.0833 63.125 68.9583 62.5 70.8333C61.875 72.5 61.25 74.1667 60.625 75.625C60.4167 76.4583 60 77.0833 59.7917 77.7083C59.375 78.3333 59.1667 78.9583 58.75 79.5833C58.125 80.8333 57.7083 81.875 57.2917 82.7083C56.6667 84.375 56.25 85.4167 56.25 85.4167C56.25 85.4167 56.875 84.5833 57.9167 82.9167C58.5417 82.0833 59.1667 81.25 59.7917 80C60.2083 79.375 60.625 78.75 61.0417 78.3333C61.4583 77.7083 61.6667 77.0833 62.0833 76.25C62.9167 74.7917 63.75 73.125 64.5833 71.4583C65.4167 69.7917 66.0417 67.7083 66.6667 65.8333C67.0833 64.7917 67.2917 63.75 67.5 62.7083C67.9167 61.6667 68.3333 60.625 68.5417 59.5833Z" fill="#4A148C"/>
<path d="M52.0837 27.0841C52.0837 27.0841 49.3753 1.0424 22.917 10.4174C25.8337 37.5007 52.0837 27.0841 52.0837 27.0841Z" fill="#4CAF50"/>
</svg>
