<svg width="100" height="100" viewBox="0 0 100 100" fill="none" xmlns="http://www.w3.org/2000/svg">
<g clip-path="url(#clip0_190_5282)">
<path d="M19.0664 80.9354C32.8973 94.7663 57.9599 92.1281 75.0452 75.0429C92.1304 57.9576 94.7686 32.8951 80.9377 19.0641C67.1067 5.23319 42.0442 7.87135 24.9589 24.9566C7.87364 42.0419 5.23547 67.1044 19.0664 80.9354Z" fill="#795548"/>
<path d="M58.3146 14.3647C66.1833 14.3647 72.9875 17.0085 77.9896 22.0106C90.175 34.196 87.5292 56.6647 72.0958 72.1002C63.4917 80.7043 52.4083 85.6377 41.6875 85.6377C33.8167 85.6377 27.0125 82.9939 22.0083 77.9918C16.2271 72.2085 13.5813 63.9022 14.5604 54.6043C15.575 44.9752 20.3125 35.4939 27.9042 27.9043C36.5063 19.3002 47.5917 14.3647 58.3146 14.3647Z" fill="#8BC34A"/>
<path d="M24.6768 66.542C23.6164 64.4816 24.4122 61.9774 26.4581 60.9316C28.5206 59.8691 38.131 58.2754 38.131 58.2754C38.131 58.2754 32.3226 67.2962 30.2747 68.342C28.6247 69.1941 26.6664 68.8254 25.4289 67.5899C25.1185 67.2795 24.8706 66.9399 24.6768 66.542ZM32.0581 70.1233C33.0872 68.0608 41.5706 61.7754 41.5706 61.7754C41.5706 61.7754 40.5268 71.8462 39.481 73.892C38.4352 75.9399 35.931 76.7649 33.8685 75.7066C33.8685 75.7066 33.8685 75.7066 33.8831 75.7191C33.4727 75.5129 33.1185 75.2462 32.8227 74.9545C31.5706 73.7024 31.2164 71.7566 32.0581 70.1233ZM22.1726 54.1108C22.306 51.7983 24.281 50.0608 26.5768 50.1754C28.8768 50.2941 36.7518 53.3629 36.7518 53.3629C36.7518 53.3629 28.4039 58.6316 26.0914 58.5004C25.031 58.442 24.1039 57.9837 23.3956 57.2774C22.5851 56.467 22.1122 55.3462 22.1726 54.1108ZM41.9122 74.2629C41.7643 71.9629 47.331 63.2649 47.331 63.2649C47.331 63.2649 50.0872 71.4754 50.2227 73.7608C50.3539 76.0733 48.6039 78.0337 46.3039 78.1795C45.0664 78.2379 43.9164 77.767 43.1081 76.9566C42.4122 76.2649 41.9706 75.3212 41.9122 74.2629ZM25.3247 42.3233C26.3247 40.2629 28.8164 39.392 30.8935 40.4087C32.9706 41.3962 37.7081 47.6795 37.7081 47.6795C37.7081 47.6795 29.331 48.892 27.2539 47.9045C26.8268 47.6858 26.4435 47.4212 26.1206 47.0962C24.8977 45.8774 24.5289 43.9733 25.3247 42.3233ZM52.5039 73.0983C51.4872 71.0212 52.7247 62.1316 52.7247 62.1316C52.7247 62.1316 58.9997 67.3691 59.9997 69.4316C60.9893 71.5066 60.1477 73.9962 58.0706 75.0129C56.4352 75.7941 54.5206 75.4399 53.2977 74.2191C52.9768 73.8941 52.7102 73.5108 52.5039 73.0983ZM32.2789 32.6004C33.8977 30.9816 36.5352 30.9649 38.1706 32.6004C39.7893 34.2191 41.4893 41.8129 41.4893 41.8129C41.4893 41.8129 33.9122 40.1274 32.2789 38.4941C30.6581 36.8733 30.6435 34.2379 32.2789 32.6004ZM58.3477 58.3504C58.3477 58.3504 66.2185 60.4462 67.8539 62.0816C69.4727 63.7004 69.4893 66.3379 67.8539 67.9733C67.8393 67.9879 67.8247 68.0024 67.8102 68.017C67.8102 68.017 67.7935 68.0337 67.7789 68.0483C66.1602 69.667 63.5206 69.6816 61.8872 68.0483C60.2685 66.4254 58.3477 58.3504 58.3477 58.3504ZM40.056 31.217C39.0414 29.1399 39.9102 26.6504 41.9872 25.6337C44.0331 24.617 46.5414 25.4712 47.556 27.5483C48.5581 29.6087 47.1956 37.9004 47.1956 37.9004C47.1956 37.9004 40.7914 33.0587 40.056 31.217ZM72.8643 52.6816C74.9247 53.6816 75.8102 56.1566 74.7935 58.2358C73.7914 60.2962 71.3018 61.1649 69.2247 60.1795C67.0331 59.1149 62.1872 52.592 62.1872 52.592C62.1872 52.592 70.7872 51.6649 72.8643 52.6816ZM49.8372 26.8587C49.6914 24.5587 51.4289 22.5858 53.7268 22.4399C53.7268 22.4399 53.7268 22.4399 53.7414 22.4545C56.0393 22.3066 58.0143 24.0462 58.1456 26.3587C58.2768 28.6399 53.3102 36.7483 53.3102 36.7483C53.3102 36.7483 49.8956 27.917 49.8372 26.8587ZM63.2497 46.767C63.2497 46.767 71.6997 41.942 73.9956 42.0608C76.2789 42.192 78.0456 44.167 77.9143 46.4462C77.7956 48.7462 75.7206 50.2129 73.5393 50.3816C71.3602 50.5545 63.2497 46.767 63.2497 46.767ZM60.5768 26.6941C61.6227 24.6483 64.1268 23.8212 66.1768 24.867C68.2227 25.9129 69.0477 28.417 68.0018 30.4649C66.9727 32.5274 58.381 37.7566 58.381 37.7566C58.381 37.7566 59.7372 28.3587 60.5768 26.6941ZM69.7976 32.2337C71.831 31.1733 74.3497 31.9837 75.4102 34.017C76.456 36.0629 75.6747 38.5816 73.6143 39.6441C71.9643 40.4962 61.5497 41.2274 61.5497 41.2274C61.5497 41.2274 67.7372 33.292 69.7976 32.2337Z" fill="#689F38"/>
<path d="M63.1165 63.1923C64.004 62.3069 64.004 60.986 63.1894 60.1735C62.7144 59.7131 60.6498 58.8548 58.1353 58.0298C58.904 60.5923 59.7186 62.7069 60.1748 63.1965C60.9832 64.0069 62.304 64.0069 63.1165 63.1923Z" fill="#5D4037"/>
<path d="M45.0355 70.1438C45.4563 70.5647 46.048 70.7918 46.6563 70.7584C47.8001 70.6876 48.6646 69.7105 48.6001 68.5418C48.548 67.6939 47.9271 65.373 47.1959 62.9438C45.6896 65.5918 44.498 68.0313 44.4521 68.8418C44.4813 69.3272 44.6813 69.7897 45.0355 70.1438Z" fill="#5D4037"/>
<path d="M55.6415 68.8478C56.654 68.3541 57.0852 67.0895 56.5873 66.0437C56.5436 65.9541 56.2144 65.3624 54.6165 63.7624C54.0456 63.1916 53.4248 62.6041 52.8269 62.0562C52.5998 64.8791 52.5894 67.2687 52.8519 67.9124C52.9498 68.1082 53.0873 68.3082 53.2415 68.4624C53.8623 69.0811 54.8248 69.2374 55.6415 68.8478Z" fill="#5D4037"/>
<path d="M68.0226 52.7414C67.3976 52.4706 65.0705 52.4102 62.3101 52.5477C63.0788 53.4706 63.9351 54.4519 64.7267 55.2435C65.7121 56.2289 66.1309 56.456 66.2059 56.4914C67.2309 56.9789 68.4892 56.5414 68.9892 55.5123C69.3767 54.7185 69.2163 53.7706 68.5955 53.1456C68.4309 52.9831 68.2371 52.8477 68.0226 52.7414Z" fill="#5D4037"/>
<path d="M41.9666 61.3125C39.4729 63.3292 37.3666 65.2083 36.9833 65.8979C36.5666 66.7083 36.7208 67.6771 37.3625 68.3146C37.5145 68.4667 37.6895 68.5958 37.8833 68.6937L37.8854 68.6875C38.3833 68.9417 38.9479 68.9896 39.477 68.8188C40.0083 68.6479 40.4396 68.2771 40.6937 67.7812C41.0437 67.0896 41.5354 64.3979 41.9666 61.3125Z" fill="#5D4037"/>
<path d="M67.3873 40.5522C68.381 40.0417 68.781 38.773 68.2539 37.7397C68.1623 37.5647 68.0373 37.3917 67.8852 37.2438C67.2435 36.6022 66.2477 36.4438 65.4581 36.8542C64.7852 37.2167 62.9477 39.1751 60.9644 41.5063C64.0414 41.2001 66.7185 40.8355 67.3873 40.5522Z" fill="#5D4037"/>
<path d="M68.2667 48.5153C69.4313 48.4257 70.6501 47.7195 70.7105 46.5528C70.7459 45.957 70.523 45.382 70.1021 44.959C69.7376 44.5965 69.2584 44.3799 68.7521 44.3486C67.9813 44.3736 65.5396 45.434 62.8896 46.782C65.3355 47.7757 67.5501 48.532 68.2667 48.5153Z" fill="#5D4037"/>
<path d="M31.8501 62.9653C32.4813 63.5965 33.473 63.7507 34.2668 63.3403C34.948 62.9278 36.7105 60.6945 38.5751 58.0674C35.6251 58.6549 33.0813 59.2632 32.3584 59.6361C31.8688 59.8861 31.5063 60.309 31.3376 60.8299C31.1688 61.3632 31.2168 61.9341 31.4772 62.4403C31.5834 62.6549 31.6959 62.809 31.8501 62.9653Z" fill="#5D4037"/>
<path d="M36.9917 40.1837C37.4646 40.6337 39.4417 41.3879 41.8354 42.0837C41.1396 39.6879 40.3834 37.7066 39.9375 37.2358C39.125 36.4233 37.8042 36.4254 36.9917 37.2379C36.1792 38.0504 36.1792 39.3691 36.9917 40.1837Z" fill="#5D4037"/>
<path d="M32.5563 47.9872C33.1355 48.2184 35.3959 48.2018 38.073 47.9705C37.35 47.1101 36.548 46.2018 35.8021 45.458C34.7938 44.4497 34.3896 44.2413 34.348 44.2205C33.8271 43.9643 33.2625 43.9309 32.7375 44.1101C32.2125 44.2934 31.7896 44.6684 31.548 45.1663C31.1605 45.9684 31.3209 46.9309 31.9417 47.5559C32.098 47.7122 32.3042 47.8559 32.5563 47.9872Z" fill="#5D4037"/>
<path d="M58.3604 37.6709C60.8354 35.9897 62.9354 34.3751 63.3437 33.7001C63.7499 32.9063 63.5958 31.9376 62.9541 31.298C62.7999 31.1438 62.6187 31.0147 62.4208 30.9126C61.4041 30.3917 60.1499 30.8063 59.6249 31.8313C59.3458 32.423 58.8458 34.8542 58.3604 37.6709Z" fill="#5D4037"/>
<path d="M43.4938 34.4025L43.5292 34.4713L43.5584 34.5421C43.5625 34.5463 43.7563 34.9004 44.6229 35.765C45.3667 36.5088 46.3021 37.3296 47.1834 38.0671C47.4521 35.4234 47.4959 33.1692 47.2438 32.5442C47.1479 32.3504 47.0146 32.1629 46.8521 31.9984C46.2209 31.3671 45.2688 31.2067 44.4834 31.6004C43.4271 32.115 42.9896 33.3692 43.4938 34.4025Z" fill="#5D4037"/>
<path d="M53.1876 36.8293C54.5001 34.3876 55.5251 32.1522 55.5564 31.3897C55.5189 30.7668 55.2105 30.3272 54.9584 30.0731C54.5418 29.6564 53.9605 29.4376 53.3647 29.4772L53.0939 29.4939C52.6376 29.5793 52.2272 29.8106 51.9189 30.1626C51.5647 30.5626 51.3835 31.0751 51.4022 31.6106C51.5251 32.2043 52.2772 34.3501 53.1876 36.8293Z" fill="#5D4037"/>
<path d="M31.7645 51.7667C30.6083 51.7105 29.6145 52.5917 29.5499 53.7375C29.5208 54.3209 29.7395 54.8896 30.1645 55.3146C30.5437 55.6938 30.9937 55.9021 31.502 55.9292C32.2791 55.8917 34.6499 54.7542 37.2187 53.3188C34.8687 52.5042 32.6041 51.8084 31.7645 51.7667Z" fill="#5D4037"/>
<path d="M39.6932 60.3118C44.3038 64.9224 52.6582 64.0432 58.3533 58.3481C64.0484 52.653 64.9275 44.2986 60.3169 39.688C55.7064 35.0775 47.352 35.9566 41.6569 41.6517C35.9618 47.3468 35.0826 55.7012 39.6932 60.3118Z" fill="#E6EE9C"/>
</g>
<defs>
<clipPath id="clip0_190_5282">
<rect width="100" height="100" fill="white"/>
</clipPath>
</defs>
</svg>
