<svg width="100" height="100" viewBox="0 0 100 100" fill="none" xmlns="http://www.w3.org/2000/svg">
<g clip-path="url(#clip0_190_3462)">
<path opacity="0.974" fill-rule="evenodd" clip-rule="evenodd" d="M35.0585 -0.0976562C35.5794 -0.0976562 36.1001 -0.0976562 36.621 -0.0976562C38.4035 5.40381 40.0962 10.9377 41.6992 16.5039C41.6992 16.569 41.6992 16.6341 41.6992 16.6992C39.6158 16.6992 37.5326 16.6992 35.4492 16.6992C35.3189 16.6992 35.2538 16.6341 35.2538 16.5039C33.7244 11.7524 32.2921 6.96727 30.957 2.14844C30.9285 1.75113 31.0585 1.42561 31.3476 1.17188C32.6109 0.761783 33.848 0.338605 35.0585 -0.0976562Z" fill="#FC8D94"/>
<path opacity="0.971" fill-rule="evenodd" clip-rule="evenodd" d="M35.2535 16.5044C35.2535 16.6346 35.3185 16.6997 35.4488 16.6997C36.0887 18.6196 36.6096 20.5727 37.0113 22.5591C35.4129 22.4954 33.8504 22.5606 32.3238 22.7544C30.0523 22.9569 29.0107 21.9151 29.1988 19.6294C29.1434 18.6451 29.4037 17.7662 29.9801 16.9926C30.2404 16.8624 30.501 16.7322 30.7613 16.602C32.2572 16.5044 33.7547 16.4719 35.2535 16.5044Z" fill="#FAF1F2"/>
<path opacity="0.983" fill-rule="evenodd" clip-rule="evenodd" d="M41.6992 16.5039C48.6654 16.5039 55.6314 16.5039 62.5977 16.5039C63.343 16.7012 63.8963 17.1569 64.2578 17.8711C64.4291 19.1893 64.3641 20.4914 64.0625 21.7773C63.7896 22.084 63.4967 22.3445 63.1836 22.5586C62.5977 22.5586 62.0117 22.5586 61.4258 22.5586C55.4361 22.5586 49.4467 22.5586 43.457 22.5586C42.949 20.5791 42.3631 18.6261 41.6992 16.6992C41.6992 16.6341 41.6992 16.569 41.6992 16.5039Z" fill="#FAF1F2"/>
<path opacity="0.992" fill-rule="evenodd" clip-rule="evenodd" d="M62.5977 16.5044C64.7471 16.4719 66.8955 16.5044 69.043 16.602C69.4506 16.7568 69.8088 16.9846 70.1172 17.2856C70.6791 18.6917 70.7441 20.1239 70.3125 21.5825C69.6422 22.5839 68.698 22.9745 67.4805 22.7544C66.0844 22.5606 64.6521 22.4956 63.1836 22.5591C63.4967 22.345 63.7896 22.0845 64.0625 21.7778C64.3641 20.4919 64.4291 19.1898 64.2578 17.8716C63.8963 17.1573 63.343 16.7016 62.5977 16.5044Z" fill="#F0E5E0"/>
<path fill-rule="evenodd" clip-rule="evenodd" d="M35.4492 16.6992C37.5326 16.6992 39.6158 16.6992 41.6992 16.6992C42.3631 18.6261 42.949 20.5791 43.457 22.5586C41.3736 22.5586 39.2904 22.5586 37.207 22.5586C37.8318 24.5633 38.4178 26.5814 38.9648 28.6133C36.7514 28.6133 34.5377 28.6133 32.3242 28.6133C32.3242 26.6602 32.3242 24.707 32.3242 22.7539C33.8508 22.5602 35.4133 22.4949 37.0117 22.5586C36.61 20.5723 36.0891 18.6191 35.4492 16.6992Z" fill="#F0E5E0"/>
<path fill-rule="evenodd" clip-rule="evenodd" d="M43.457 22.5586C44.1338 24.5496 44.7197 26.5678 45.2148 28.6133C43.1314 28.6133 41.0482 28.6133 38.9648 28.6133C38.4178 26.5814 37.8318 24.5633 37.207 22.5586C39.2904 22.5586 41.3736 22.5586 43.457 22.5586Z" fill="#E2D6D1"/>
<path fill-rule="evenodd" clip-rule="evenodd" d="M43.457 22.5586C49.4467 22.5586 55.4361 22.5586 61.4258 22.5586C61.4258 24.5768 61.4258 26.5951 61.4258 28.6133C56.0873 28.6133 50.7486 28.6133 45.4102 28.6133C46.6875 33.0467 47.9896 37.4738 49.3164 41.8945C46.9164 42.3412 45.2889 43.7084 44.4336 45.9961C42.6164 40.2184 40.7936 34.424 38.9648 28.6133C41.0482 28.6133 43.1314 28.6133 45.2148 28.6133C44.7197 26.5678 44.1338 24.5496 43.457 22.5586Z" fill="#F0E5E0"/>
<path opacity="0.988" fill-rule="evenodd" clip-rule="evenodd" d="M61.4258 22.5587C62.0117 22.5587 62.5977 22.5587 63.1836 22.5587C64.6521 22.4952 66.0844 22.5602 67.4805 22.754C67.4805 24.7071 67.4805 26.6602 67.4805 28.6134C66.8945 28.6134 66.3086 28.6134 65.7227 28.6134C64.2904 28.6134 62.858 28.6134 61.4258 28.6134C61.4258 26.5952 61.4258 24.5768 61.4258 22.5587Z" fill="#E2D6D1"/>
<path opacity="0.994" fill-rule="evenodd" clip-rule="evenodd" d="M32.3238 28.6137C34.5372 28.6137 36.7509 28.6137 38.9644 28.6137C40.7931 34.4245 42.6159 40.2188 44.4331 45.9965C44.2921 47.162 44.1294 48.3338 43.9448 49.5122C42.5476 52.7661 40.1062 53.9704 36.6206 53.1254C33.8167 51.7852 32.5472 49.5391 32.812 46.3872C31.9593 43.5809 30.0712 42.0836 27.148 41.895C25.1681 41.9901 23.6056 42.8364 22.4605 44.434C22.0413 45.2104 21.6831 45.9916 21.3863 46.7778C21.3536 43.1313 21.3863 39.4856 21.4839 35.8403C22.0997 32.034 24.2808 29.6577 28.0269 28.7114C29.4577 28.6137 30.89 28.5813 32.3238 28.6137Z" fill="#F9F1F2"/>
<path opacity="0.974" fill-rule="evenodd" clip-rule="evenodd" d="M65.7227 28.6132C66.3086 28.6132 66.8945 28.6132 67.4805 28.6132C71.4885 27.9185 74.7111 29.1554 77.1484 32.3241C77.7736 33.4183 78.1643 34.5901 78.3203 35.8397C78.418 39.5501 78.4506 43.261 78.418 46.9726C77.866 44.3688 76.3035 42.7413 73.7305 42.0897C73.2523 41.8997 72.7314 41.8347 72.168 41.8944C72.2006 39.5497 72.168 37.206 72.0703 34.8632C71.0053 31.6821 68.8895 29.5987 65.7227 28.6132Z" fill="#F0E4E0"/>
<path fill-rule="evenodd" clip-rule="evenodd" d="M61.4258 28.6133C62.858 28.6133 64.2904 28.6133 65.7227 28.6133C68.8895 29.5988 71.0053 31.6822 72.0703 34.8633C72.168 37.2061 72.2006 39.5498 72.168 41.8945C68.374 42.6656 66.5836 45.0094 66.7969 48.9258C65.5723 52.5824 63.0658 53.982 59.2773 53.125C57.5338 52.4883 56.3943 51.2838 55.8594 49.5117C56.008 46.8939 55.1291 44.7129 53.2227 42.9688C52.0275 42.2342 50.7254 41.8762 49.3164 41.8945C47.9896 37.4738 46.6875 33.0467 45.4102 28.6133C50.7486 28.6133 56.0873 28.6133 61.4258 28.6133Z" fill="#F9F1F2"/>
<path opacity="0.997" fill-rule="evenodd" clip-rule="evenodd" d="M44.4336 45.9966C45.2889 43.7089 46.9164 42.3417 49.3164 41.895C50.7254 41.8766 52.0275 42.2346 53.2227 42.9692C55.1291 44.7134 56.008 46.8944 55.8594 49.5122C56.3943 51.2843 57.5338 52.4887 59.2773 53.1255C63.0658 53.9825 65.5723 52.5829 66.7969 48.9262C66.5836 45.0098 68.374 42.6661 72.168 41.895C72.7314 41.8352 73.2523 41.9003 73.7305 42.0903C73.2096 42.0903 72.6889 42.0903 72.168 42.0903C72.168 50.619 72.168 59.1475 72.168 67.6762C71.384 67.6438 70.6027 67.6764 69.8242 67.7739C68.6039 68.2538 67.432 68.8397 66.3086 69.5317C65.0197 69.8239 63.7176 69.8889 62.4023 69.727C61.2305 69.1411 60.0586 68.5552 58.8867 67.9692C57.5818 67.5882 56.2797 67.5882 54.9805 67.9692C53.9047 68.605 52.7979 69.1909 51.6602 69.727C50.4883 69.8573 49.3164 69.8573 48.1445 69.727C46.8424 69.0761 45.5404 68.4249 44.2383 67.7739C42.0389 67.4059 40.0857 67.9268 38.3789 69.3364C36.7693 70.1235 35.1418 70.1887 33.4961 69.5317C32.3727 68.8397 31.2008 68.2538 29.9805 67.7739C28.2084 67.4296 26.5809 67.7552 25.0977 68.7505C23.9236 69.7272 22.6867 70.6061 21.3867 71.3872C21.3867 63.1841 21.3867 54.9809 21.3867 46.7778C21.6836 45.9917 22.0418 45.2104 22.4609 44.4341C23.6061 42.8364 25.1686 41.9901 27.1484 41.895C30.0717 42.0837 31.9598 43.5809 32.8125 46.3872C32.5477 49.5391 33.8172 51.7852 36.6211 53.1255C40.1066 53.9704 42.548 52.7661 43.9453 49.5122C44.1299 48.3339 44.2926 47.162 44.4336 45.9966Z" fill="#EAD1FE"/>
<path opacity="0.978" fill-rule="evenodd" clip-rule="evenodd" d="M73.7305 42.0898C76.3035 42.7414 77.866 44.3689 78.418 46.9727C78.418 55.1107 78.418 63.2486 78.418 71.3867C77.1867 70.5098 75.9498 69.6309 74.707 68.75C74.0311 68.3465 73.315 68.0535 72.5586 67.8711C72.4918 67.7074 72.3617 67.6422 72.168 67.6758C72.168 59.1471 72.168 50.6186 72.168 42.0898C72.6889 42.0898 73.2096 42.0898 73.7305 42.0898Z" fill="#D6BDEF"/>
<path fill-rule="evenodd" clip-rule="evenodd" d="M30.176 58.6914C32.166 58.6953 32.9799 59.6719 32.6174 61.6211C31.9277 62.7309 30.9836 63.0238 29.7853 62.5C28.4017 61.0832 28.532 59.8137 30.176 58.6914Z" fill="#F9F1F3"/>
<path fill-rule="evenodd" clip-rule="evenodd" d="M49.3166 58.6914C51.8029 58.9277 52.4541 60.1322 51.2697 62.3047C48.8871 63.2133 47.8129 62.3994 48.0471 59.8633C48.45 59.427 48.873 59.0363 49.3166 58.6914Z" fill="#F9F1F3"/>
<path fill-rule="evenodd" clip-rule="evenodd" d="M68.4574 58.6914C70.2742 58.7176 71.088 59.6289 70.8988 61.4258C70.3597 62.558 69.4808 62.9811 68.2621 62.6953C67.1666 62.0553 66.8085 61.1113 67.1878 59.8633C67.5617 59.4031 67.9849 59.0125 68.4574 58.6914Z" fill="#F9F1F3"/>
<path opacity="0.997" fill-rule="evenodd" clip-rule="evenodd" d="M72.1675 67.6757C72.3613 67.6421 72.4914 67.7074 72.5582 67.871C72.2009 76.2671 72.038 84.7308 72.0699 93.2617C71.2402 97.0542 68.9289 99.2677 65.1363 99.9023C52.7013 99.9023 40.2666 99.9023 27.8316 99.9023C24.664 99.0454 22.6132 97.0271 21.6792 93.8476C21.3923 86.3685 21.2947 78.8814 21.3863 71.3866C22.6863 70.6056 23.9232 69.7267 25.0972 68.7499C26.5804 67.7546 28.208 67.429 29.98 67.7734C31.2003 68.2533 32.3722 68.8392 33.4957 69.5312C35.1414 70.1882 36.7689 70.123 38.3785 69.3359C40.0853 67.9263 42.0384 67.4054 44.2378 67.7734C45.54 68.4243 46.8419 69.0755 48.1441 69.7265C49.316 69.8568 50.4878 69.8568 51.6597 69.7265C52.7974 69.1904 53.9042 68.6044 54.98 67.9687C56.2792 67.5876 57.5814 67.5876 58.8863 67.9687C60.0582 68.5546 61.23 69.1406 62.4019 69.7265C63.7171 69.8884 65.0193 69.8234 66.3082 69.5312C67.4316 68.8392 68.6035 68.2533 69.8238 67.7734C70.6023 67.6759 71.3835 67.6433 72.1675 67.6757Z" fill="#C2AEEF"/>
<path opacity="0.982" fill-rule="evenodd" clip-rule="evenodd" d="M72.5586 67.8711C73.315 68.0535 74.0311 68.3465 74.707 68.75C75.9498 69.6309 77.1867 70.5098 78.418 71.3867C78.5096 78.8814 78.4119 86.3686 78.125 93.8477C77.191 97.0271 75.1402 99.0455 71.9727 99.9023C69.6939 99.9023 67.4154 99.9023 65.1367 99.9023C68.9293 99.2678 71.2406 97.0543 72.0703 93.2617C72.0385 84.7309 72.2014 76.2672 72.5586 67.8711Z" fill="#AD96ED"/>
<path fill-rule="evenodd" clip-rule="evenodd" d="M41.6996 75.6836C44.7712 75.9072 45.8455 77.4697 44.9222 80.3711C43.4072 82.0266 41.7796 82.1568 40.0394 80.7617C38.7601 78.4428 39.3134 76.75 41.6996 75.6836Z" fill="#706673"/>
<path fill-rule="evenodd" clip-rule="evenodd" d="M56.3478 75.8793C59.9947 75.7801 61.1339 77.4076 59.7658 80.7621C57.5533 82.3838 55.7954 81.9931 54.4923 79.5902C54.2845 77.9222 54.9031 76.6853 56.3478 75.8793Z" fill="#706672"/>
<path fill-rule="evenodd" clip-rule="evenodd" d="M30.1753 76.6596C32.2216 76.5911 33.0354 77.5676 32.6167 79.5893C31.8942 80.5213 30.9501 80.8143 29.7847 80.4682C28.3837 79.0163 28.5138 77.7467 30.1753 76.6596Z" fill="#E9D0FE"/>
<path fill-rule="evenodd" clip-rule="evenodd" d="M68.2618 76.6604C70.5362 76.5922 71.35 77.634 70.7032 79.7854C69.4545 81.1373 68.2827 81.0723 67.1875 79.5901C66.8139 78.3147 67.1719 77.3381 68.2618 76.6604Z" fill="#E8D0FE"/>
<path fill-rule="evenodd" clip-rule="evenodd" d="M34.0822 87.793C37.4494 88.082 38.4584 89.7748 37.1096 92.8711C34.6646 94.5779 32.9068 94.057 31.8361 91.3086C31.7476 89.5967 32.4963 88.4248 34.0822 87.793Z" fill="#706673"/>
<path fill-rule="evenodd" clip-rule="evenodd" d="M49.1208 87.793C52.1495 87.8629 53.2889 89.3602 52.5387 92.2852C51.3854 93.8512 49.9206 94.2092 48.1442 93.3594C46.7452 91.9029 46.6151 90.3404 47.7536 88.6719C48.2219 88.3742 48.6776 88.0812 49.1208 87.793Z" fill="#706672"/>
<path fill-rule="evenodd" clip-rule="evenodd" d="M64.1603 87.7927C66.7672 87.6979 68.0367 88.9348 67.9689 91.5036C66.7478 94.0663 64.99 94.5219 62.6955 92.8708C61.4295 90.6546 61.9177 88.962 64.1603 87.7927Z" fill="#706672"/>
</g>
<defs>
<clipPath id="clip0_190_3462">
<rect width="100" height="100" fill="white"/>
</clipPath>
</defs>
</svg>
