<svg width="100" height="100" viewBox="0 0 100 100" fill="none" xmlns="http://www.w3.org/2000/svg">
<path d="M79.6004 61.2038C79.5854 75.5652 66.323 84.4172 49.976 84.3999C33.6275 84.3833 20.3854 74.7469 20.4004 60.3855C20.4147 45.9932 35.6257 32.5885 44.2327 19.0868C47.279 14.3062 53.0133 14.5183 56.034 19.25C64.7852 32.9616 79.6147 47.0658 79.6004 61.2038Z" fill="#632C85"/>
<path d="M54.7796 21.9816C53.9813 20.6658 52.8875 19.4215 50.5996 19V82C65.058 82.0105 76.7845 73.6949 76.7996 61.0246C76.8109 48.5485 62.2349 34.259 54.7796 21.9816Z" fill="#F7B77F"/>
<path d="M54.3327 25.8504C53.6206 24.6803 52.644 23.5755 50.5996 23.2002V79.2002C63.5132 79.2092 73.9883 71.8177 73.9996 60.5563C74.0102 49.4668 60.9931 36.7643 54.3327 25.8504Z" fill="#D02F30"/>
<path d="M59.4359 43.8634C59.8883 44.0931 59.9229 44.8775 59.5159 45.6162C59.109 46.3534 58.4129 46.7663 57.9621 46.5366C57.512 46.3076 57.4759 45.5239 57.8828 44.7852C58.2898 44.0465 58.9859 43.6344 59.4359 43.8634Z" fill="#FBAD4B"/>
<path d="M56.1804 57.3746C56.3139 57.8741 55.7589 58.469 54.9398 58.7043C54.1223 58.9396 53.352 58.7254 53.22 58.2251C53.0865 57.7256 53.643 57.13 54.4605 56.8955C55.278 56.6602 56.0484 56.8736 56.1804 57.3746Z" fill="#FBAD4B"/>
<path d="M63.9806 52.1167C64.1126 52.5666 63.5569 53.1024 62.7381 53.314C61.9215 53.5256 61.1506 53.333 61.0194 52.883C60.8874 52.4323 61.4423 51.8966 62.2597 51.6857C63.0785 51.4741 63.8471 51.6674 63.9806 52.1167Z" fill="#FBAD4B"/>
<path d="M52.3075 32.8823C52.7285 32.6216 53.4261 33.0014 53.8634 33.7301C54.3008 34.458 54.3134 35.259 53.8925 35.5182C53.4715 35.7782 52.7754 35.3984 52.3366 34.672C51.8993 33.9433 51.8866 33.1423 52.3075 32.8823Z" fill="#FBAD4B"/>
<path d="M53.9071 69.0811C54.3296 68.8226 55.0257 69.2009 55.463 69.9289C55.9004 70.6576 55.913 71.4587 55.4921 71.7179C55.0711 71.9779 54.375 71.5981 53.9362 70.8701C53.4989 70.1429 53.4862 69.3418 53.9071 69.0811Z" fill="#FBAD4B"/>
<path d="M65.3584 65.7284C65.7574 66.0484 65.6515 66.8799 65.1222 67.583C64.5922 68.2853 63.8398 68.5942 63.4415 68.2727C63.0424 67.9527 63.1498 67.1211 63.679 66.4181C64.2083 65.7142 64.9616 65.4045 65.3584 65.7284Z" fill="#FBAD4B"/>
<path d="M70.3091 56.4824C70.7301 56.2218 71.4264 56.6015 71.8637 57.3286C72.3003 58.0571 72.3137 58.8573 71.8927 59.118C71.471 59.3787 70.7755 58.9989 70.3367 58.2703C69.8993 57.5433 69.8859 56.7424 70.3091 56.4824Z" fill="#FBAD4B"/>
</svg>
