<svg width="100" height="100" viewBox="0 0 100 100" fill="none" xmlns="http://www.w3.org/2000/svg">
<path d="M66.6663 21.7583C66.6663 17.6687 62.6538 10.4187 49.9997 10.4187C37.3434 10.4187 33.333 17.6687 33.333 21.7583C33.333 21.7791 33.3393 21.7979 33.3393 21.8145C33.3393 21.8354 33.333 21.8541 33.333 21.8729V26.0395C33.333 27.7645 34.7309 29.1645 36.458 29.1645H40.7413H59.2601H63.5413C65.2663 29.1645 66.6663 27.7645 66.6663 26.0395V21.8729C66.6663 21.852 66.6601 21.8333 66.6601 21.8145C66.6601 21.7979 66.6663 21.7791 66.6663 21.7583Z" fill="#90A4AE"/>
<path d="M66.6663 86.4572C66.6663 88.1822 65.2663 89.5822 63.5413 89.5822H36.458C34.733 89.5822 33.333 88.1822 33.333 86.4572V32.2905C33.333 30.5655 34.733 29.1655 36.458 29.1655H63.5413C65.2663 29.1655 66.6663 30.5655 66.6663 32.2905V86.4572Z" fill="#90CAF9"/>
<path d="M37.5 45.8345V82.2928C37.5 82.8678 37.9667 83.3345 38.5417 83.3345H40.625H59.375H61.4583C62.0333 83.3345 62.5 82.8678 62.5 82.2928V45.8345H37.5Z" fill="#EEEEEE"/>
<path d="M49.9993 16.6698C51.1499 16.6698 52.0827 15.7371 52.0827 14.5865C52.0827 13.4359 51.1499 12.5032 49.9993 12.5032C48.8488 12.5032 47.916 13.4359 47.916 14.5865C47.916 15.7371 48.8488 16.6698 49.9993 16.6698Z" fill="#37474F"/>
<path d="M41.6663 18.7543C42.8169 18.7543 43.7497 17.8216 43.7497 16.671C43.7497 15.5204 42.8169 14.5876 41.6663 14.5876C40.5157 14.5876 39.583 15.5204 39.583 16.671C39.583 17.8216 40.5157 18.7543 41.6663 18.7543Z" fill="#37474F"/>
<path d="M58.3333 18.7543C59.4839 18.7543 60.4167 17.8216 60.4167 16.671C60.4167 15.5204 59.4839 14.5876 58.3333 14.5876C57.1827 14.5876 56.25 15.5204 56.25 16.671C56.25 17.8216 57.1827 18.7543 58.3333 18.7543Z" fill="#37474F"/>
<path d="M47.9163 79.1698C49.0669 79.1698 49.9997 78.2371 49.9997 77.0865C49.9997 75.9359 49.0669 75.0032 47.9163 75.0032C46.7657 75.0032 45.833 75.9359 45.833 77.0865C45.833 78.2371 46.7657 79.1698 47.9163 79.1698Z" fill="#B0BEC5"/>
<path d="M52.0833 72.9198C53.2339 72.9198 54.1667 71.9871 54.1667 70.8365C54.1667 69.6859 53.2339 68.7532 52.0833 68.7532C50.9327 68.7532 50 69.6859 50 70.8365C50 71.9871 50.9327 72.9198 52.0833 72.9198Z" fill="#B0BEC5"/>
<path d="M56.2493 79.1698C57.3999 79.1698 58.3327 78.2371 58.3327 77.0865C58.3327 75.9359 57.3999 75.0032 56.2493 75.0032C55.0988 75.0032 54.166 75.9359 54.166 77.0865C54.166 78.2371 55.0988 79.1698 56.2493 79.1698Z" fill="#B0BEC5"/>
</svg>
