<svg width="100" height="100" viewBox="0 0 100 100" fill="none" xmlns="http://www.w3.org/2000/svg">
<path opacity="0.992" fill-rule="evenodd" clip-rule="evenodd" d="M45.6049 3.02697C62.2913 2.08035 75.9956 7.93972 86.7182 20.6051C96.3919 33.493 99.1262 47.7508 94.9214 63.3785C89.7456 79.2315 79.2313 89.7457 63.3784 94.9215C46.2983 99.4234 31.1292 95.9078 17.8706 84.3746C5.85229 72.4729 1.13225 58.1174 3.71042 41.3082C7.2337 24.8971 16.6412 13.2759 31.9331 6.44494C36.3626 4.6865 40.92 3.54718 45.6049 3.02697Z" fill="#D6E5EF"/>
<path fill-rule="evenodd" clip-rule="evenodd" d="M52.6364 12.5977C54.8649 13.0923 56.9481 13.9712 58.8864 15.2344C61.0626 15.234 63.211 15.4619 65.3317 15.918C67.612 16.6351 69.6301 17.807 71.3864 19.4336C72.9788 20.9631 74.2807 22.721 75.2926 24.7071C77.1503 25.6553 78.843 26.8272 80.3708 28.2227C81.8686 30.0475 83.0405 32.0657 83.8864 34.2774C84.3475 36.4622 84.5753 38.6756 84.57 40.918C85.8126 42.6217 86.6262 44.5098 87.0114 46.5821C87.5557 49.1325 87.4907 51.6715 86.8161 54.1993C86.33 55.8876 85.5813 57.4501 84.57 58.8868C84.5335 60.7889 84.3706 62.677 84.0817 64.5508C83.4091 67.1329 82.1721 69.4116 80.3708 71.3868C78.9055 72.9147 77.2128 74.1516 75.2926 75.0977C74.2807 77.0838 72.9788 78.8417 71.3864 80.3711C69.4112 82.1725 67.1325 83.4094 64.5505 84.0821C62.6749 84.36 60.787 84.5227 58.8864 84.5704C57.4497 85.5817 55.8872 86.3303 54.1989 86.8165C51.6712 87.4911 49.1321 87.5561 46.5817 87.0118C44.5094 86.6266 42.6214 85.8129 40.9177 84.5704C38.6753 84.5756 36.4618 84.3479 34.277 83.8868C32.0653 83.0409 30.0471 81.869 28.2223 80.3711C26.8268 78.8434 25.655 77.1506 24.7067 75.293C22.7206 74.2811 20.9628 72.9792 19.4333 71.3868C17.8066 69.6305 16.6347 67.6124 15.9176 65.3321C15.4615 63.2114 15.2336 61.0629 15.2341 58.8868C13.7673 56.6647 12.8233 54.2559 12.402 51.6602C12.3851 49.9633 12.4502 48.2708 12.5973 46.5821C13.1534 44.5618 14.0323 42.6737 15.2341 40.918C15.2287 38.6756 15.4566 36.4622 15.9176 34.2774C16.7635 32.0657 17.9353 30.0475 19.4333 28.2227C20.961 26.8272 22.6538 25.6553 24.5114 24.7071C25.5255 22.7835 26.7624 21.0256 28.2223 19.4336C30.0471 17.9357 32.0653 16.7638 34.277 15.918C36.4618 15.457 38.6753 15.2291 40.9177 15.2344C42.6733 14.0326 44.5614 13.1537 46.5817 12.5977C48.601 12.3509 50.6192 12.3509 52.6364 12.5977Z" fill="#FED13C"/>
<path fill-rule="evenodd" clip-rule="evenodd" d="M46.582 12.5967C44.5617 13.1527 42.6736 14.0316 40.918 15.2334C38.6756 15.2281 36.4621 15.4559 34.2773 15.917C38.1391 13.9975 42.2406 12.8907 46.582 12.5967Z" fill="#A8C4DB"/>
<path fill-rule="evenodd" clip-rule="evenodd" d="M52.6367 12.5967C56.4791 12.7809 60.19 13.5946 63.7695 15.0381C64.4859 15.2255 65.0068 15.5184 65.332 15.917C63.2113 15.4608 61.0629 15.233 58.8867 15.2334C56.9484 13.9702 54.8652 13.0913 52.6367 12.5967Z" fill="#A9C4D8"/>
<path fill-rule="evenodd" clip-rule="evenodd" d="M38.1836 23.9268C38.2133 24.7055 38.6039 24.9984 39.3555 24.8057C39.8764 24.35 39.8764 23.8941 39.3555 23.4385C38.8984 23.2924 38.5078 23.39 38.1836 23.7314C40.2971 18.5285 44.1707 15.7941 49.8047 15.5283C55.9178 15.8806 59.9867 18.9405 62.0117 24.708C61.1076 25.3566 60.1961 26.0076 59.2773 26.6611C57.4426 20.3066 53.2758 17.8001 46.7773 19.1416C43.3754 20.5574 41.292 23.0639 40.5273 26.6611C39.6496 25.9943 38.7383 25.3758 37.793 24.8057C37.91 24.4889 38.0402 24.1959 38.1836 23.9268Z" fill="#F9A119"/>
<path fill-rule="evenodd" clip-rule="evenodd" d="M36.0352 18.652C36.4461 18.5937 36.8367 18.6588 37.207 18.8474C36.4662 20.0356 35.7502 21.2401 35.0586 22.4606C34.3039 22.8548 33.5551 23.2128 32.8125 23.5349C31.6051 23.4349 30.4006 23.3046 29.1992 23.1442C31.018 20.9329 33.2965 19.4354 36.0352 18.652Z" fill="#F9A11A"/>
<path fill-rule="evenodd" clip-rule="evenodd" d="M62.5977 18.6533C65.874 19.0866 68.5432 20.584 70.6055 23.1455C69.1715 23.3371 67.7393 23.4348 66.3086 23.4385C65.707 22.9912 65.0885 22.568 64.4531 22.1689C63.8795 20.9557 63.2609 19.7838 62.5977 18.6533Z" fill="#FAA119"/>
<path fill-rule="evenodd" clip-rule="evenodd" d="M57.7153 19.2373C58.8849 19.2693 59.1452 19.7576 58.4966 20.7021C57.3058 20.7309 57.0454 20.2426 57.7153 19.2373Z" fill="#6BA943"/>
<path fill-rule="evenodd" clip-rule="evenodd" d="M28.2227 19.4346C26.7627 21.0266 25.5258 22.7844 24.5117 24.708C22.6541 25.6562 20.9613 26.8281 19.4336 28.2236C21.7773 24.708 24.707 21.7783 28.2227 19.4346Z" fill="#A8C4D9"/>
<path fill-rule="evenodd" clip-rule="evenodd" d="M71.3867 19.4322C71.4643 19.232 71.5943 19.1995 71.7773 19.3346C75.1508 21.8287 78.0152 24.7908 80.3711 28.2213C78.8434 26.8258 77.1506 25.6539 75.293 24.7057C74.2811 22.7195 72.9791 20.9617 71.3867 19.4322Z" fill="#A9C4D9"/>
<path fill-rule="evenodd" clip-rule="evenodd" d="M33.106 20.7998C34.2755 20.8318 34.5358 21.3201 33.8872 22.2646C32.6964 22.2934 32.436 21.8051 33.106 20.7998Z" fill="#6CA942"/>
<path fill-rule="evenodd" clip-rule="evenodd" d="M55.5664 25.4885C54.8371 25.4539 54.1209 25.5189 53.418 25.6838C53.4396 25.5633 53.5047 25.4656 53.6133 25.3908C53.033 25.2357 52.4471 25.1055 51.8555 25.0002C50.3643 24.9158 48.932 24.8832 47.5586 24.9025C47.5289 24.1238 47.1383 23.8309 46.3867 24.0236C45.9602 24.3943 45.8951 24.8174 46.1914 25.2932C45.4711 25.4572 44.7875 25.7178 44.1406 26.0744C44.5531 24.291 45.6273 23.0215 47.3633 22.2658C50.1393 21.3496 52.5807 21.9029 54.6875 23.926C55.0346 24.4258 55.3275 24.9467 55.5664 25.4885Z" fill="#F9A01B"/>
<path fill-rule="evenodd" clip-rule="evenodd" d="M63.3789 21.7783C64.3219 22.0012 64.5172 22.4895 63.9648 23.2432C63.0209 23.4711 62.6629 23.1129 62.8906 22.1689C63.085 22.0584 63.2477 21.9281 63.3789 21.7783Z" fill="#6AAC45"/>
<path fill-rule="evenodd" clip-rule="evenodd" d="M38.1836 23.926C38.1836 23.861 38.1836 23.7958 38.1836 23.7307C38.5078 23.3893 38.8984 23.2916 39.3555 23.4377C39.8764 23.8934 39.8764 24.3493 39.3555 24.8049C38.6039 24.9977 38.2133 24.7047 38.1836 23.926Z" fill="#69A943"/>
<path fill-rule="evenodd" clip-rule="evenodd" d="M47.5592 24.9021C47.1771 25.224 46.7215 25.3543 46.192 25.2927C45.8957 24.8169 45.9607 24.3939 46.3873 24.0232C47.1388 23.8304 47.5295 24.1234 47.5592 24.9021Z" fill="#D8E3E8"/>
<path fill-rule="evenodd" clip-rule="evenodd" d="M42.2854 24.7069C42.9807 24.588 43.3713 24.8809 43.4573 25.5858C43.1032 26.3497 42.6149 26.4473 41.9924 25.8788C41.8463 25.4218 41.944 25.0311 42.2854 24.7069Z" fill="#DAE4E3"/>
<path fill-rule="evenodd" clip-rule="evenodd" d="M55.5664 25.487C57.576 26.512 58.1619 28.0745 57.3242 30.1745C55.6281 32.1474 53.8703 32.2124 52.0508 30.3698C52.4344 29.606 52.2391 29.0851 51.4648 28.8073C51.4648 28.547 51.4648 28.2864 51.4648 28.0261C51.7656 26.9448 52.4166 26.1636 53.418 25.6823C54.1209 25.5175 54.8371 25.4525 55.5664 25.487Z" fill="#EF4E37"/>
<path fill-rule="evenodd" clip-rule="evenodd" d="M32.1285 29.7857C31.7476 29.3457 31.2918 29.2806 30.7613 29.5904C30.4113 29.5642 30.0859 29.6293 29.7847 29.7857C27.9332 29.93 26.3056 30.6136 24.9019 31.8365C24.9464 31.9144 25.0117 31.9468 25.0972 31.9342C24.6464 32.3191 24.1906 32.7097 23.73 33.106C21.1486 36.574 20.9209 40.2199 23.0464 44.0435C23.658 44.8507 24.3416 45.5994 25.0972 46.2896C24.2197 46.6957 23.3734 47.1513 22.5582 47.6568C22.3628 47.7871 22.1675 47.7871 21.9722 47.6568C17.9638 42.9343 17.4104 37.8236 20.3121 32.3248C24.3509 26.8338 29.5918 25.2388 36.0347 27.5396C37.1226 27.9191 38.0341 28.5377 38.7691 29.3951C38.1878 30.2045 37.5693 30.9857 36.9136 31.7388C35.5294 30.575 33.9345 29.9238 32.1285 29.7857Z" fill="#FAA019"/>
<path fill-rule="evenodd" clip-rule="evenodd" d="M74.9023 46.1917C75.2465 46.0429 75.4418 45.7823 75.4883 45.4104C77.3266 43.6446 78.2381 41.4638 78.2227 38.8675C77.9738 34.6901 75.923 31.7931 72.0703 30.1761C68.7207 29.0624 65.6607 29.5833 62.8906 31.7386C62.5076 31.1599 62.052 30.6392 61.5234 30.1761C61.2717 29.8724 61.1414 29.547 61.1328 29.1995C65.707 25.8884 70.4922 25.5954 75.4883 28.3206C80.9785 32.3577 82.5736 37.5987 80.2734 44.0433C79.1328 46.5511 77.375 48.5042 75 49.9026C74.933 48.7407 74.7703 47.6015 74.5117 46.4847C74.6906 46.4304 74.8207 46.3327 74.9023 46.1917Z" fill="#FAA019"/>
<path fill-rule="evenodd" clip-rule="evenodd" d="M51.4648 28.0276C51.4648 28.2879 51.4648 28.5485 51.4648 28.8088C50.927 29.1122 50.7643 29.5678 50.9766 30.176C51.3084 30.353 51.6666 30.418 52.0508 30.3713C53.8703 32.2139 55.6281 32.1489 57.3242 30.176C58.2277 31.0811 59.074 32.0577 59.8633 33.1057C59.7582 33.4215 59.6932 33.7471 59.668 34.0823C58.7273 34.3069 57.7508 34.3393 56.7383 34.1799C54.252 31.6696 51.257 30.7254 47.7539 31.3479C48.4221 30.3313 48.1615 29.843 46.9727 29.8831C46.4203 30.6368 46.6156 31.1251 47.5586 31.3479C45.725 31.9085 44.1625 32.9176 42.8711 34.3753C41.6297 34.4024 40.3928 34.3047 39.1602 34.0823C39.552 33.4321 40.0076 32.8462 40.5273 32.3245C40.8715 32.1756 41.0668 31.9151 41.1133 31.5432C44.0484 28.9038 47.499 27.7319 51.4648 28.0276Z" fill="#F9A11B"/>
<path fill-rule="evenodd" clip-rule="evenodd" d="M54.3949 28.2229C55.275 28.0329 55.6981 28.3585 55.6645 29.1995C54.4232 29.9224 54 29.5968 54.3949 28.2229Z" fill="#68A545"/>
<path fill-rule="evenodd" clip-rule="evenodd" d="M51.4651 28.8096C52.2394 29.0873 52.4347 29.6082 52.0511 30.3721C51.6669 30.4188 51.3087 30.3537 50.9769 30.1768C50.7646 29.5686 50.9273 29.1129 51.4651 28.8096Z" fill="#D9E0E6"/>
<path fill-rule="evenodd" clip-rule="evenodd" d="M32.1289 29.7843C32.1821 30.7108 31.7914 31.0364 30.9571 30.7608C30.7928 30.3939 30.7276 30.0032 30.7617 29.589C31.2922 29.2792 31.7481 29.3442 32.1289 29.7843Z" fill="#D9E4E7"/>
<path fill-rule="evenodd" clip-rule="evenodd" d="M59.6684 29.2002C60.7046 29.3449 60.9651 29.8332 60.4497 30.665C59.2196 30.7617 58.9591 30.2734 59.6684 29.2002Z" fill="#DBE4E2"/>
<path fill-rule="evenodd" clip-rule="evenodd" d="M30.7623 29.5901C30.7281 30.0044 30.7933 30.395 30.9576 30.762C30.7312 31.1286 30.4056 31.2262 29.981 31.0549C29.5545 30.6842 29.4894 30.2612 29.7857 29.7854C30.0869 29.629 30.4123 29.5639 30.7623 29.5901Z" fill="#6AAD4B"/>
<path fill-rule="evenodd" clip-rule="evenodd" d="M47.7543 31.3485C47.6892 31.3485 47.624 31.3485 47.559 31.3485C46.616 31.1256 46.4207 30.6373 46.973 29.8836C48.1619 29.8436 48.4224 30.3319 47.7543 31.3485Z" fill="#DAE1E1"/>
<path fill-rule="evenodd" clip-rule="evenodd" d="M67.8708 29.7861C69.0825 29.7497 69.3429 30.238 68.6521 31.2509C67.5681 31.1796 67.3077 30.6913 67.8708 29.7861Z" fill="#6CAD45"/>
<path fill-rule="evenodd" clip-rule="evenodd" d="M41.1135 31.5432C41.067 31.9151 40.8717 32.1756 40.5275 32.3245C39.6354 32.4059 39.3424 32.0153 39.6486 31.1526C40.291 30.6172 40.7793 30.7473 41.1135 31.5432Z" fill="#6DAC44"/>
<path fill-rule="evenodd" clip-rule="evenodd" d="M43.457 31.1533C44.3871 31.2689 44.6476 31.7572 44.2382 32.6182C42.8066 32.7131 42.5462 32.2248 43.457 31.1533Z" fill="#6EA942"/>
<path fill-rule="evenodd" clip-rule="evenodd" d="M29.0042 32.9098C30.112 34.9557 29.6562 36.5506 27.637 37.695C26.6011 38.1374 25.6245 38.0397 24.7074 37.402C23.3097 36.227 22.9841 34.7948 23.7308 33.1051C24.1913 32.7088 24.6472 32.3182 25.098 31.9332C26.6183 31.4456 27.9202 31.7709 29.0042 32.9098Z" fill="#F04D36"/>
<path fill-rule="evenodd" clip-rule="evenodd" d="M36.0356 32.3252C37.1981 32.3465 37.4586 32.8348 36.8168 33.79C35.7059 33.749 35.4455 33.2607 36.0356 32.3252Z" fill="#D9E4E6"/>
<path fill-rule="evenodd" clip-rule="evenodd" d="M35.4489 34.6674C35.1742 34.7598 35.044 34.9551 35.0582 35.2533C33.5313 35.7879 32.1641 36.5692 30.9567 37.5971C29.8547 37.142 29.399 37.4676 29.5895 38.5737C28.3295 39.9985 27.2553 41.561 26.3668 43.2612C25.0385 41.5397 24.4852 39.5865 24.7067 37.4018C25.6239 38.0395 26.6004 38.1371 27.6364 37.6947C29.6555 36.5504 30.1114 34.9555 29.0035 32.9096C31.4791 32.3875 33.6276 32.9735 35.4489 34.6674Z" fill="#F9A01A"/>
<path fill-rule="evenodd" clip-rule="evenodd" d="M74.9023 37.402C72.3945 37.3707 71.2227 38.6079 71.3867 41.1129C71.3453 40.0512 70.8896 39.1723 70.0195 38.4762C68.5941 37.3409 67.0967 36.3317 65.5273 35.4489C65.6463 34.7891 65.3859 34.3985 64.7461 34.277C67.1354 32.3707 69.6744 32.208 72.3633 33.7887C73.6305 34.6979 74.477 35.9022 74.9023 37.402Z" fill="#FAA01A"/>
<path fill-rule="evenodd" clip-rule="evenodd" d="M59.8633 33.1061C60.5236 32.9865 60.9793 33.2143 61.2305 33.7896C60.848 34.7986 60.3271 34.8963 59.668 34.0826C59.6932 33.7475 59.7582 33.4219 59.8633 33.1061Z" fill="#6BAC45"/>
<path fill-rule="evenodd" clip-rule="evenodd" d="M53.0268 35.0581C52.8965 34.993 52.7665 34.9278 52.6362 34.8628C52.4079 33.5561 52.8309 33.2305 53.9057 33.8862C54.0985 34.6378 53.8055 35.0284 53.0268 35.0581Z" fill="#D9E4E7"/>
<path fill-rule="evenodd" clip-rule="evenodd" d="M49.9029 34.2777C49.8709 35.4473 49.3826 35.7076 48.4381 35.059C48.3437 34.8738 48.3113 34.6785 48.3404 34.473C48.7757 33.7787 49.2966 33.7137 49.9029 34.2777Z" fill="#6AAB44"/>
<path fill-rule="evenodd" clip-rule="evenodd" d="M49.9023 34.2783C50.8373 34.374 51.7486 34.5693 52.6367 34.8643C52.767 34.9293 52.8971 34.9945 53.0273 35.0596C53.109 35.2006 53.2391 35.2982 53.418 35.3525C52.15 35.8883 50.9781 36.5719 49.9023 37.4033C48.8203 36.5691 47.6484 35.8855 46.3867 35.3525C46.9666 34.8998 47.6176 34.6068 48.3398 34.4736C48.3107 34.6791 48.3432 34.8744 48.4375 35.0596C49.382 35.7082 49.8703 35.4479 49.9023 34.2783Z" fill="#F9A11A"/>
<path fill-rule="evenodd" clip-rule="evenodd" d="M36.4254 35.8393C35.5976 35.7963 35.3371 35.4057 35.6441 34.6674C36.0082 34.4149 36.3988 34.4149 36.816 34.6674C37.1156 35.201 36.9853 35.5917 36.4254 35.8393Z" fill="#D5E4EA"/>
<path fill-rule="evenodd" clip-rule="evenodd" d="M64.7463 34.2783C65.3862 34.3998 65.6465 34.7904 65.5276 35.4502C64.5223 36.1201 64.034 35.8598 64.0627 34.6689C64.2221 34.4105 64.45 34.2805 64.7463 34.2783Z" fill="#D9E4E4"/>
<path fill-rule="evenodd" clip-rule="evenodd" d="M15.918 34.2783C15.4569 36.4631 15.2291 38.6766 15.2344 40.9189C14.0326 42.6746 13.1537 44.5627 12.5977 46.583C12.8918 42.2412 13.9985 38.1396 15.918 34.2783Z" fill="#A7C4DB"/>
<path fill-rule="evenodd" clip-rule="evenodd" d="M35.4493 34.6689C35.5143 34.6689 35.5796 34.6689 35.6446 34.6689C35.3376 35.4072 35.5981 35.7979 36.4259 35.8408C35.7466 36.1982 35.2909 36.0029 35.0587 35.2549C35.0444 34.9566 35.1747 34.7613 35.4493 34.6689Z" fill="#81B355"/>
<path fill-rule="evenodd" clip-rule="evenodd" d="M83.8867 34.2783C85.5615 37.5873 86.6357 41.1029 87.1094 44.8252C87.2666 45.4494 87.234 46.0354 87.0117 46.583C86.6266 44.5107 85.8129 42.6227 84.5703 40.9189C84.5756 38.6766 84.3479 36.4631 83.8867 34.2783Z" fill="#A7C4DB"/>
<path fill-rule="evenodd" clip-rule="evenodd" d="M64.7467 36.0344C65.8041 35.8517 66.1947 36.2424 65.9185 37.2062C64.7422 37.5851 64.3516 37.1945 64.7467 36.0344Z" fill="#68AC45"/>
<path fill-rule="evenodd" clip-rule="evenodd" d="M35.0591 36.2314C36.0952 36.3762 36.3557 36.8645 35.8403 37.6963C34.6102 37.793 34.3497 37.3047 35.0591 36.2314Z" fill="#6CAD45"/>
<path fill-rule="evenodd" clip-rule="evenodd" d="M30.9571 37.5974C31.08 38.7199 30.6241 39.0455 29.5899 38.574C29.3995 37.4679 29.8552 37.1423 30.9571 37.5974Z" fill="#D9E3E7"/>
<path fill-rule="evenodd" clip-rule="evenodd" d="M41.8942 37.5967C42.2012 38.335 41.9406 38.7256 41.1129 38.7686C40.9184 38.7854 40.7557 38.7201 40.6246 38.5733C40.4922 38.1635 40.5248 37.7729 40.7223 37.4014C41.1619 37.1348 41.5526 37.2 41.8942 37.5967Z" fill="#D8E2E1"/>
<path fill-rule="evenodd" clip-rule="evenodd" d="M64.3555 38.3789C64.1057 38.8676 64.1057 39.3559 64.3555 39.8438C64.9012 40.0336 65.2918 39.8709 65.5273 39.3555C65.6479 39.3338 65.7455 39.2688 65.8203 39.1602C67.5359 40.2567 68.8707 41.6889 69.8242 43.4571C69.0455 43.4868 68.7525 43.8774 68.9453 44.6289C69.4965 45.1303 69.9848 45.0653 70.4102 44.4336C71.6193 46.5418 72.0424 48.8205 71.6797 51.2696C71.5432 52.2713 71.3152 53.2479 70.9961 54.1993C70.4898 54.4993 70.2945 54.9549 70.4102 55.5664C67.2574 60.9504 62.5699 63.1313 56.3477 62.1094C54.2502 61.55 52.4271 60.5409 50.8789 59.0821C50.8789 58.9518 50.9439 58.8868 51.0742 58.8868C51.5357 59.1801 51.959 59.1149 52.3438 58.6914C52.5045 57.9754 52.2115 57.6498 51.4648 57.7149C51.4324 56.9309 51.465 56.1496 51.5625 55.3711C51.9961 55.8635 52.4844 56.2868 53.0273 56.6407C52.1811 57.5522 52.3764 58.0729 53.6133 58.2032C53.7854 58.0649 53.9154 57.902 54.0039 57.7149C55.4826 58.6871 57.1104 59.2079 58.8867 59.2774C59.0506 60.2868 59.5389 60.4821 60.3516 59.8633C60.4473 59.6108 60.4799 59.3502 60.4492 59.0821C60.6445 59.0821 60.8398 59.0821 61.0352 59.0821C61.159 59.3647 61.3869 59.4948 61.7188 59.4727C62.0506 59.4948 62.2785 59.3647 62.4023 59.0821C63.7287 58.3182 64.9656 57.4069 66.1133 56.3477C67.0334 56.7776 67.5217 56.5172 67.5781 55.5664C67.4398 55.3944 67.277 55.2643 67.0898 55.1758C69.6988 50.3465 68.9826 46.0823 64.9414 42.3829C64.3389 42 63.7203 41.642 63.0859 41.3086C63.0496 41.8039 62.952 42.2596 62.793 42.6758C62.9025 39.9864 61.6004 38.7493 58.8867 38.9649C57.7178 38.3118 57.2619 38.6373 57.5195 39.9414C57.1699 40.2875 56.9096 40.6782 56.7383 41.1133C56.5916 40.9037 56.3963 40.8711 56.1523 41.0157C55.2957 41.444 54.4492 41.8672 53.6133 42.2852C53.0416 41.4518 52.3906 40.6705 51.6602 39.9414C55.5971 37.1735 59.8289 36.6526 64.3555 38.3789Z" fill="#F9A11B"/>
<path fill-rule="evenodd" clip-rule="evenodd" d="M74.9018 37.4019C77.3733 38.2785 78.0569 39.906 76.9526 42.2848C75.3317 44.0342 73.6391 44.0994 71.8745 42.4801C71.5989 42.0601 71.436 41.6043 71.3862 41.1129C71.2221 38.6078 72.394 37.3707 74.9018 37.4019Z" fill="#F04D36"/>
<path fill-rule="evenodd" clip-rule="evenodd" d="M40.332 37.4034C39.6672 38.4876 39.9277 38.9433 41.1133 38.7706C41.941 38.7276 42.2016 38.337 41.8945 37.5987C43.9746 37.7602 45.8625 38.4438 47.5586 39.6495C47.4426 39.7401 47.3123 39.7727 47.168 39.7472C46.1393 39.1763 45.716 39.5018 45.8984 40.7237C46.0295 40.8706 46.1922 40.9358 46.3867 40.919C46.2127 41.3309 45.9848 41.7216 45.7031 42.0909C43.5639 40.8173 41.2525 40.329 38.7695 40.6261C38.1695 40.739 37.6486 40.9669 37.207 41.3097C36.4107 40.0001 35.2389 39.4141 33.6914 39.5518C34.8531 38.6784 36.1553 38.0599 37.5977 37.6964C38.4965 37.4772 39.4078 37.3796 40.332 37.4034Z" fill="#F9A01A"/>
<path fill-rule="evenodd" clip-rule="evenodd" d="M40.3319 37.4033C40.4622 37.4033 40.5922 37.4033 40.7225 37.4033C40.5251 37.7748 40.4924 38.1654 40.6249 38.5752C40.7559 38.7221 40.9186 38.7873 41.1131 38.7705C39.9276 38.9432 39.667 38.4875 40.3319 37.4033Z" fill="#78AC4B"/>
<path fill-rule="evenodd" clip-rule="evenodd" d="M64.3553 38.3781C65.1071 38.2841 65.4977 38.6097 65.5272 39.3546C65.2917 39.8701 64.901 40.0328 64.3553 39.8429C64.1055 39.355 64.1055 38.8668 64.3553 38.3781Z" fill="#D9E3E7"/>
<path fill-rule="evenodd" clip-rule="evenodd" d="M58.8862 38.9646C58.8452 39.9208 58.3895 40.2462 57.519 39.9412C57.2614 38.6371 57.7172 38.3115 58.8862 38.9646Z" fill="#DADDE2"/>
<path fill-rule="evenodd" clip-rule="evenodd" d="M58.8867 38.9644C61.6004 38.7488 62.9025 39.9859 62.793 42.6754C62.707 43.2379 62.5117 43.7586 62.207 44.2379C60.3896 45.6416 58.6969 45.5115 57.1289 43.8472C57.1625 43.6535 57.0973 43.5234 56.9336 43.4566C56.9598 43.1066 56.8947 42.7812 56.7383 42.4801C56.7383 42.0244 56.7383 41.5685 56.7383 41.1129C56.9096 40.6777 57.1699 40.2871 57.5195 39.941C58.39 40.2461 58.8457 39.9207 58.8867 38.9644Z" fill="#F04C37"/>
<path fill-rule="evenodd" clip-rule="evenodd" d="M51.6602 39.9412C52.3907 40.6703 53.0416 41.4516 53.6133 42.285C54.2147 43.3082 54.5403 44.4151 54.5899 45.6053C54.5832 46.752 54.3879 47.8588 54.0039 48.9256C52.4153 49.7951 51.0481 50.967 49.9024 52.4412C48.7567 50.967 47.3895 49.7951 45.8008 48.9256C44.7373 46.175 45.0953 43.636 46.875 41.3084C47.6303 40.4877 48.444 39.7391 49.3164 39.0623C50.2836 38.8623 51.0649 39.1553 51.6602 39.9412Z" fill="#6AA040"/>
<path fill-rule="evenodd" clip-rule="evenodd" d="M33.6918 39.5509C35.2392 39.4132 36.4111 39.9991 37.2074 41.3087C37.7535 43.864 36.7443 45.3614 34.18 45.8009C33.5752 45.7421 33.0218 45.5468 32.5199 45.215C31.2947 44.2575 30.9041 43.0206 31.348 41.504C31.8396 40.4905 32.6209 39.8396 33.6918 39.5509Z" fill="#EF4E37"/>
<path fill-rule="evenodd" clip-rule="evenodd" d="M47.1682 39.7463C47.4752 40.4846 47.2146 40.8752 46.3869 40.9182C46.1924 40.935 46.0297 40.8697 45.8986 40.7229C45.7162 39.501 46.1395 39.1754 47.1682 39.7463Z" fill="#6CAA43"/>
<path fill-rule="evenodd" clip-rule="evenodd" d="M56.7383 41.1143C56.7383 41.57 56.7383 42.0259 56.7383 42.4815C56.0391 42.1188 55.5832 42.3141 55.3711 43.0675C55.6992 43.9307 56.2199 44.061 56.9336 43.4581C57.0973 43.5249 57.1625 43.655 57.1289 43.8487C56.2559 44.3841 55.4094 44.97 54.5898 45.6065C54.5402 44.4163 54.2146 43.3094 53.6133 42.2862C54.4492 41.8682 55.2957 41.445 56.1523 41.0167C56.3963 40.8721 56.5916 40.9048 56.7383 41.1143Z" fill="#FECF3C"/>
<path fill-rule="evenodd" clip-rule="evenodd" d="M32.1294 41.1123C33.1655 41.257 33.426 41.7453 32.9106 42.5771C31.6805 42.6738 31.42 42.1855 32.1294 41.1123Z" fill="#6DA344"/>
<path fill-rule="evenodd" clip-rule="evenodd" d="M67.0899 55.1768C66.2289 55.0912 65.9034 55.4818 66.1133 56.3486C64.9657 57.4078 63.7287 58.3191 62.4024 59.083C62.4076 58.0057 61.9844 57.7453 61.1328 58.3018C61.0371 58.5543 61.0045 58.8148 61.0352 59.083C60.8399 59.083 60.6446 59.083 60.4492 59.083C59.843 58.5189 59.3221 58.584 58.8867 59.2783C57.1104 59.2088 55.4826 58.6881 54.0039 57.7158C53.9612 57.4863 54.0262 57.291 54.1992 57.1299C57.2971 58.2197 60.0315 57.6338 62.4024 55.3721C62.4801 56.2469 62.9358 56.5072 63.7696 56.1533C64.0989 55.2559 63.7735 54.8652 62.793 54.9814C62.793 54.8512 62.858 54.7861 62.9883 54.7861C63.8241 54.3596 64.4426 53.7084 64.8438 52.833C65.1078 52.2041 65.2707 51.5531 65.3321 50.8799C65.7686 50.9375 66.1592 50.8723 66.5039 50.6846C67.0639 50.4369 67.1942 50.0463 66.8946 49.5127C66.4774 49.2602 66.0867 49.2602 65.7227 49.5127C65.6576 49.5127 65.5924 49.5127 65.5274 49.5127C65.2578 47.2133 64.151 45.4555 62.2071 44.2393C62.5117 43.76 62.7071 43.2393 62.793 42.6768C62.952 42.2605 63.0496 41.8049 63.086 41.3096C63.7203 41.643 64.3389 42.001 64.9414 42.3838C68.9826 46.0832 69.6989 50.3475 67.0899 55.1768Z" fill="#FDD13C"/>
<path fill-rule="evenodd" clip-rule="evenodd" d="M31.3478 41.5029C30.9038 43.0195 31.2945 44.2564 32.5197 45.2139C31.4388 46.9297 30.9831 48.8176 31.1525 50.8779C31.1263 51.2279 31.1913 51.5533 31.3478 51.8545C32.6753 56.535 35.7679 59.009 40.6251 59.2764C42.4574 59.209 44.1499 58.6881 45.7033 57.7139C46.2468 58.5832 46.8654 59.3969 47.5587 60.1553C41.4019 63.7838 35.8355 63.035 30.8595 57.9092C27.4747 53.2357 27.1491 48.3529 29.8829 43.2607C30.3447 42.6377 30.8329 42.0518 31.3478 41.5029Z" fill="#FAA01A"/>
<path fill-rule="evenodd" clip-rule="evenodd" d="M56.7383 42.48C56.8947 42.7812 56.9598 43.1066 56.9336 43.4566C56.2199 44.0595 55.6992 43.9293 55.3711 43.066C55.5832 42.3126 56.0391 42.1173 56.7383 42.48Z" fill="#DAE4E3"/>
<path fill-rule="evenodd" clip-rule="evenodd" d="M34.668 42.2842C35.8375 42.3162 36.0979 42.8045 35.4492 43.749C34.8441 43.9574 34.4535 43.7621 34.2773 43.1631C34.2811 42.8051 34.4111 42.5121 34.668 42.2842Z" fill="#DBD8DF"/>
<path fill-rule="evenodd" clip-rule="evenodd" d="M69.824 43.4561C70.2589 43.632 70.4543 43.9574 70.4099 44.4326C69.9845 45.0643 69.4962 45.1293 68.9451 44.6279C68.7523 43.8764 69.0453 43.4857 69.824 43.4561Z" fill="#DAE1E2"/>
<path fill-rule="evenodd" clip-rule="evenodd" d="M43.6525 48.3393C43.5222 48.3393 43.3922 48.3393 43.2619 48.3393C42.366 47.0307 41.1291 46.5425 39.5509 46.8745C37.897 47.6106 37.1808 48.8802 37.4025 50.6831C37.0195 51.1641 36.5963 51.62 36.133 52.0503C35.6314 53.1423 35.8593 54.0536 36.8166 54.7846C35.8619 54.1884 35.1783 53.3421 34.7658 52.2456C33.5804 48.0305 35.0453 45.1985 39.1603 43.7495C41.1205 43.4639 42.8783 43.9196 44.4338 45.1167C44.0207 46.1518 43.7601 47.2261 43.6525 48.3393Z" fill="#F9A019"/>
<path fill-rule="evenodd" clip-rule="evenodd" d="M57.1289 43.8467C58.6969 45.5109 60.3896 45.641 62.207 44.2373C64.151 45.4535 65.2578 47.2113 65.5273 49.5107C64.8404 49.8787 64.7752 50.3344 65.332 50.8779C65.2707 51.5512 65.1078 52.2021 64.8438 52.8311C64.4426 53.7064 63.824 54.3576 62.9883 54.7842C63.9455 54.0531 64.1734 53.1418 63.6719 52.0498C63.2086 51.6195 62.7854 51.1637 62.4023 50.6826C62.4346 50.0932 62.402 49.5072 62.3047 48.9248C62.2311 48.6432 62.0684 48.4479 61.8164 48.3389C61.8607 47.8637 61.6654 47.5383 61.2305 47.3623C60.0992 46.6943 58.9273 46.6293 57.7148 47.167C57.6852 46.3883 57.2945 46.0953 56.543 46.2881C55.9949 46.8617 56.06 47.35 56.7383 47.7529C56.7271 47.9695 56.6621 48.1648 56.543 48.3389C55.6475 48.3338 54.801 48.5291 54.0039 48.9248C54.3879 47.858 54.5832 46.7512 54.5898 45.6045C55.4094 44.968 56.2559 44.382 57.1289 43.8467Z" fill="#F9A01A"/>
<path fill-rule="evenodd" clip-rule="evenodd" d="M38.1832 44.2392C39.3949 44.2029 39.6553 44.6911 38.9645 45.704C38.0137 45.6476 37.7533 45.1593 38.1832 44.2392Z" fill="#67A943"/>
<path fill-rule="evenodd" clip-rule="evenodd" d="M75.4885 45.41C75.442 45.7819 75.2467 46.0424 74.9025 46.1913C74.0104 46.2727 73.7174 45.8821 74.0236 45.0194C74.6568 44.4805 75.1451 44.6106 75.4885 45.41Z" fill="#6BAC45"/>
<path fill-rule="evenodd" clip-rule="evenodd" d="M16.5043 45.0186C17.0524 46.2547 17.736 47.4266 18.5551 48.5342C18.6853 49.4457 18.6853 50.357 18.5551 51.2686C17.741 52.3447 17.0899 53.5166 16.602 54.7842C15.2103 51.5479 15.1777 48.2926 16.5043 45.0186Z" fill="#FAA119"/>
<path fill-rule="evenodd" clip-rule="evenodd" d="M84.0821 47.9502C83.3829 47.5875 82.927 47.7828 82.7149 48.5361C82.927 49.2895 83.3829 49.4848 84.0821 49.1221C84.3643 51.0105 84.0713 52.8336 83.2032 54.5908C82.6299 53.4332 81.979 52.3264 81.25 51.2705C81.1198 50.359 81.1198 49.4477 81.25 48.5361C81.979 47.4803 82.6299 46.3734 83.2032 45.2158C83.75 46.0426 84.043 46.9539 84.0821 47.9502Z" fill="#F9A019"/>
<path fill-rule="evenodd" clip-rule="evenodd" d="M57.7151 47.1677C57.5391 47.6027 57.2137 47.798 56.7385 47.7537C56.0602 47.3507 55.9951 46.8625 56.5432 46.2888C57.2948 46.0961 57.6854 46.389 57.7151 47.1677Z" fill="#6CA943"/>
<path fill-rule="evenodd" clip-rule="evenodd" d="M43.262 48.3405C42.0387 48.2542 40.8668 48.4495 39.7463 48.9265C39.0866 48.8075 38.6959 49.0679 38.5745 49.7077C38.1887 50.0275 37.7981 50.353 37.4026 50.6843C37.1809 48.8814 37.8971 47.6118 39.551 46.8757C41.1291 46.5437 42.3661 47.0319 43.262 48.3405Z" fill="#FED03B"/>
<path fill-rule="evenodd" clip-rule="evenodd" d="M61.2305 47.3646C60.3383 47.2832 60.0453 47.6738 60.3516 48.5365C60.8873 48.8133 61.3756 48.7482 61.8164 48.3412C62.0684 48.4502 62.2311 48.6455 62.3047 48.9271C62.402 49.5095 62.4346 50.0955 62.4023 50.6849C60.7879 49.1041 58.8348 48.3228 56.543 48.3412C56.6621 48.1672 56.7271 47.9718 56.7383 47.7552C57.2135 47.7996 57.5389 47.6043 57.7148 47.1693C58.9273 46.6316 60.0992 46.6967 61.2305 47.3646Z" fill="#FACF3E"/>
<path fill-rule="evenodd" clip-rule="evenodd" d="M61.2307 47.3636C61.6656 47.5395 61.8609 47.8649 61.8166 48.3401C61.3758 48.7472 60.8875 48.8122 60.3518 48.5354C60.0455 47.6727 60.3385 47.2821 61.2307 47.3636Z" fill="#D9E4E7"/>
<path fill-rule="evenodd" clip-rule="evenodd" d="M24.5113 47.948C25.891 47.9191 26.1514 48.4074 25.2926 49.4128C24.3418 49.3564 24.0815 48.8681 24.5113 47.948Z" fill="#DAE4E3"/>
<path fill-rule="evenodd" clip-rule="evenodd" d="M84.082 47.9488C84.3424 48.3394 84.3424 48.73 84.082 49.1207C83.3828 49.4834 82.927 49.288 82.7148 48.5347C82.927 47.7814 83.3828 47.5861 84.082 47.9488Z" fill="#6CA943"/>
<path fill-rule="evenodd" clip-rule="evenodd" d="M43.2616 48.3402C43.3918 48.3402 43.5219 48.3402 43.6522 48.3402C44.3713 48.5103 45.0874 48.7056 45.8006 48.9261C47.3893 49.7956 48.7565 50.9675 49.9022 52.4417C51.0479 50.9675 52.4151 49.7956 54.0038 48.9261C54.8008 48.5304 55.6473 48.3351 56.5428 48.3402C58.8346 48.3218 60.7877 49.103 62.4022 50.6839C62.7852 51.165 63.2085 51.6208 63.6717 52.0511C64.1733 53.1431 63.9454 54.0544 62.9881 54.7855C62.8579 54.7855 62.7928 54.8505 62.7928 54.9808C62.5975 55.0458 62.4672 55.1761 62.4022 55.3714C60.0313 57.6331 57.2969 58.2191 54.1991 57.1292C54.026 57.2904 53.961 57.4857 54.0038 57.7152C53.9153 57.9023 53.7852 58.0652 53.6131 58.2034C52.3762 58.0732 52.1809 57.5525 53.0272 56.6409C52.4842 56.287 51.996 55.8638 51.5624 55.3714C51.4649 56.1499 51.4323 56.9312 51.4647 57.7152C51.3727 58.1212 51.2426 58.5118 51.0741 58.887C50.9438 58.887 50.8788 58.9521 50.8788 59.0823C50.0422 59.4259 49.2934 59.2956 48.6327 58.6917C48.401 57.6009 48.271 56.4943 48.242 55.3714C47.0184 56.7482 45.4885 57.4644 43.6522 57.5198C43.6202 58.6894 43.1319 58.9497 42.1874 58.3011C42.093 58.1159 42.0606 57.9206 42.0897 57.7152C40.0059 57.3238 38.2481 56.3472 36.8163 54.7855C35.859 54.0544 35.6311 53.1431 36.1327 52.0511C36.5959 51.6208 37.0192 51.165 37.4022 50.6839C37.7977 50.3527 38.1883 50.0271 38.5741 49.7073C39.0223 49.5169 39.4129 49.2566 39.7459 48.9261C40.8665 48.4491 42.0383 48.2538 43.2616 48.3402Z" fill="#4D8C40"/>
<path fill-rule="evenodd" clip-rule="evenodd" d="M39.7461 48.9249C39.4131 49.2554 39.0225 49.5158 38.5742 49.7062C38.6957 49.0664 39.0863 48.806 39.7461 48.9249Z" fill="#D4DDCD"/>
<path fill-rule="evenodd" clip-rule="evenodd" d="M66.5035 50.6831C65.6757 50.6401 65.4152 50.2495 65.7222 49.5112C66.0863 49.2586 66.4769 49.2586 66.8941 49.5112C67.1937 50.0448 67.0634 50.4354 66.5035 50.6831Z" fill="#D6E4EA"/>
<path fill-rule="evenodd" clip-rule="evenodd" d="M65.5272 49.5127C65.5922 49.5127 65.6575 49.5127 65.7225 49.5127C65.4155 50.251 65.676 50.6416 66.5037 50.6846C66.159 50.8723 65.7684 50.9375 65.3319 50.8799C64.775 50.3363 64.8403 49.8807 65.5272 49.5127Z" fill="#7BB053"/>
<path fill-rule="evenodd" clip-rule="evenodd" d="M24.707 49.9033C24.9072 51.0533 25.07 52.2252 25.1952 53.4189C21.082 57.302 20.496 61.6639 23.4374 66.5049C26.4249 69.9293 30.1034 71.0035 34.4726 69.7275C34.2825 70.7836 34.2173 71.8578 34.2773 72.9502C28.7273 74.1279 24.2025 72.5002 20.7031 68.0674C17.0666 61.8416 17.8154 56.2102 22.9491 51.1729C23.5482 50.7455 24.1341 50.3223 24.707 49.9033Z" fill="#F9A019"/>
<path fill-rule="evenodd" clip-rule="evenodd" d="M69.2387 50.2933C70.1188 50.1032 70.5418 50.4288 70.5082 51.2698C69.267 51.9927 68.8438 51.6671 69.2387 50.2933Z" fill="#68A943"/>
<path fill-rule="evenodd" clip-rule="evenodd" d="M31.3474 51.8548C31.191 51.5536 31.1259 51.2282 31.1521 50.8782C31.8658 50.2753 32.3865 50.4056 32.7146 51.2688C32.5025 52.0222 32.0466 52.2175 31.3474 51.8548Z" fill="#DAE4E3"/>
<path fill-rule="evenodd" clip-rule="evenodd" d="M70.9961 69.628C73.1205 70.7643 74.7156 70.2434 75.7812 68.0655C75.8783 67.6143 75.9107 67.1586 75.8789 66.6983C76.0734 66.7151 76.2361 66.6499 76.3672 66.503C79.2848 61.7184 78.7314 57.3889 74.707 53.5147C75.5783 53.1116 76.4246 52.6557 77.2461 52.1475C77.4414 52.0172 77.6367 52.0172 77.832 52.1475C81.5094 56.2131 82.3232 60.803 80.2734 65.917C77.2143 71.6946 72.4291 74.0709 65.918 73.0459C64.0547 72.5706 62.4271 71.6916 61.0352 70.4092C61.6164 69.5999 62.235 68.8186 62.8906 68.0655C65.3826 70.0946 68.0844 70.6155 70.9961 69.628Z" fill="#FAA019"/>
<path fill-rule="evenodd" clip-rule="evenodd" d="M29.5895 52.8311C30.5196 52.9467 30.7801 53.435 30.3708 54.2959C28.9436 54.4016 28.6833 53.9133 29.5895 52.8311Z" fill="#DAE0E0"/>
<path fill-rule="evenodd" clip-rule="evenodd" d="M80.3715 53.4183C81.2516 53.2282 81.6746 53.5538 81.641 54.3948C80.3998 55.1177 79.9766 54.7921 80.3715 53.4183Z" fill="#67AC45"/>
<path fill-rule="evenodd" clip-rule="evenodd" d="M12.4023 51.6592C12.8236 54.2549 13.7676 56.6637 15.2344 58.8857C15.2339 61.0619 15.4618 63.2104 15.918 65.3311C15.5882 64.9703 15.2953 64.4494 15.0391 63.7686C13.5198 59.8721 12.6409 55.8355 12.4023 51.6592Z" fill="#A9C4D8"/>
<path fill-rule="evenodd" clip-rule="evenodd" d="M33.6919 54.0029C34.728 54.1477 34.9885 54.6359 34.4731 55.4678C33.243 55.5645 32.9825 55.0762 33.6919 54.0029Z" fill="#6BAD45"/>
<path fill-rule="evenodd" clip-rule="evenodd" d="M86.8161 54.2002C86.6987 57.9178 85.8198 61.4984 84.1793 64.9424C84.0887 64.8264 84.0561 64.6961 84.0817 64.5518C84.3705 62.6779 84.5334 60.7898 84.57 58.8877C85.5813 57.451 86.3299 55.8885 86.8161 54.2002Z" fill="#A7C3D9"/>
<path fill-rule="evenodd" clip-rule="evenodd" d="M70.9961 54.2002C71.7416 54.402 71.9369 54.8578 71.5821 55.5674C71.1949 55.7867 70.8043 55.7867 70.4102 55.5674C70.2946 54.9559 70.4899 54.5002 70.9961 54.2002Z" fill="#D8E5EA"/>
<path fill-rule="evenodd" clip-rule="evenodd" d="M62.793 54.9795C63.7734 54.8632 64.0988 55.2539 63.7695 56.1513C62.9357 56.5052 62.4801 56.2449 62.4023 55.3701C62.4674 55.1748 62.5977 55.0445 62.793 54.9795Z" fill="#69AB45"/>
<path fill-rule="evenodd" clip-rule="evenodd" d="M67.0901 55.1756C67.2772 55.2641 67.4401 55.3941 67.5783 55.5662C67.5219 56.517 67.0336 56.7773 66.1135 56.3475C65.9035 55.4807 66.2291 55.09 67.0901 55.1756Z" fill="#67AA44"/>
<path fill-rule="evenodd" clip-rule="evenodd" d="M36.4258 55.5654C37.3785 55.5723 37.6389 56.0279 37.207 56.9326C36.5139 57.2512 36.1232 57.0232 36.0352 56.249C36.1059 55.9689 36.2359 55.741 36.4258 55.5654Z" fill="#D9E4E7"/>
<path fill-rule="evenodd" clip-rule="evenodd" d="M29.5899 59.6676C28.5792 59.4736 28.221 59.8643 28.5157 60.8395C28.5905 60.948 28.6881 61.0131 28.8087 61.0348C28.8903 61.1758 29.0204 61.2734 29.1993 61.3277C28.1553 62.8369 26.7881 63.2602 25.0977 62.5973C23.3139 61.4992 22.8907 60.002 23.8282 58.1051C25.5717 56.2918 27.3296 56.2918 29.1016 58.1051C29.435 58.5756 29.5977 59.0963 29.5899 59.6676Z" fill="#EF4D36"/>
<path fill-rule="evenodd" clip-rule="evenodd" d="M74.1208 64.1611C71.6239 63.6186 70.1265 64.5951 69.6286 67.0908C67.7997 67.2514 66.172 66.7631 64.7458 65.626C64.5313 65.4756 64.5313 65.3129 64.7458 65.1377C64.9411 65.0727 65.0714 64.9424 65.1364 64.7471C65.313 64.6086 65.378 64.4133 65.3317 64.1611C68.1153 63.1043 70.3614 61.3465 72.07 58.8877C72.1448 58.9963 72.2425 59.0613 72.363 59.083C72.9921 59.9051 73.4478 59.8074 73.7302 58.79C73.7136 58.5738 73.6483 58.3785 73.5349 58.2041C73.2157 58.1076 72.8901 58.0752 72.5583 58.1064C72.8983 57.6227 73.1913 57.1018 73.4372 56.5439C75.3843 58.9189 75.6122 61.458 74.1208 64.1611Z" fill="#F9A019"/>
<path fill-rule="evenodd" clip-rule="evenodd" d="M51.4648 57.7142C52.2115 57.6491 52.5045 57.9747 52.3438 58.6907C51.959 59.1142 51.5357 59.1794 51.0742 58.8861C51.2428 58.5109 51.3729 58.1202 51.4648 57.7142Z" fill="#D7E1E4"/>
<path fill-rule="evenodd" clip-rule="evenodd" d="M62.4018 59.0812C62.2779 59.3638 62.05 59.4939 61.7182 59.4718C61.3863 59.4939 61.1584 59.3638 61.0346 59.0812C61.0039 58.813 61.0365 58.5525 61.1322 58.2999C61.9838 57.7435 62.407 58.0038 62.4018 59.0812Z" fill="#D9E3E6"/>
<path fill-rule="evenodd" clip-rule="evenodd" d="M72.5584 58.1052C72.8902 58.074 73.2158 58.1064 73.5349 58.2029C73.6484 58.3773 73.7136 58.5726 73.7302 58.7888C73.4478 59.8062 72.9922 59.9039 72.3631 59.0818C72.3369 58.7318 72.4019 58.4064 72.5584 58.1052Z" fill="#67A943"/>
<path fill-rule="evenodd" clip-rule="evenodd" d="M60.4492 59.0824C60.4799 59.3506 60.4473 59.6111 60.3516 59.8637C59.5389 60.4824 59.0506 60.2871 58.8867 59.2777C59.3221 58.5834 59.843 58.5184 60.4492 59.0824Z" fill="#D9E2E3"/>
<path fill-rule="evenodd" clip-rule="evenodd" d="M29.59 59.6669C29.7092 59.8409 29.7742 60.0362 29.7853 60.2528C29.642 60.4888 29.5769 60.7491 29.59 61.0341C29.3297 61.0341 29.0691 61.0341 28.8088 61.0341C28.6883 61.0124 28.5906 60.9474 28.5158 60.8388C28.2211 59.8636 28.5793 59.473 29.59 59.6669Z" fill="#64A948"/>
<path fill-rule="evenodd" clip-rule="evenodd" d="M54.981 59.6689C56.1505 59.701 56.4108 60.1893 55.7622 61.1338C54.5714 61.1625 54.311 60.6742 54.981 59.6689Z" fill="#6CA942"/>
<path fill-rule="evenodd" clip-rule="evenodd" d="M61.6207 59.8635C63.0004 59.8346 63.2608 60.3229 62.402 61.3284C61.4512 61.2719 61.1908 60.7836 61.6207 59.8635Z" fill="#6CA942"/>
<path fill-rule="evenodd" clip-rule="evenodd" d="M29.7848 60.2552C30.446 60.1165 30.9018 60.3442 31.152 60.9388C31.0139 61.4349 30.6886 61.6628 30.1755 61.6224C29.7848 61.6224 29.5895 61.4271 29.5895 61.0364C29.5764 60.7515 29.6415 60.4911 29.7848 60.2552Z" fill="#D8E4E6"/>
<path fill-rule="evenodd" clip-rule="evenodd" d="M28.8086 61.0342C29.0689 61.0342 29.3295 61.0342 29.5898 61.0342C29.5898 61.4248 29.7852 61.6201 30.1758 61.6201C30.8883 62.2373 31.6695 62.7582 32.5195 63.1826C32.6498 63.2477 32.7799 63.3129 32.9102 63.3779C33.2688 63.7857 33.7244 64.0461 34.2773 64.1592C34.4533 64.5941 34.7787 64.7895 35.2539 64.7451C35.3189 64.8754 35.3842 65.0055 35.4492 65.1357C34.6975 65.0418 34.3068 65.3674 34.2773 66.1123C32.4064 67.1613 30.4533 67.324 28.418 66.6006C27.8777 66.3328 27.4221 65.9748 27.0508 65.5264C27.0951 65.0512 26.8998 64.7258 26.4648 64.5498C25.6357 64.2041 25.1801 63.5529 25.0977 62.5967C26.7881 63.2596 28.1553 62.8363 29.1992 61.3271C29.0203 61.2729 28.8902 61.1752 28.8086 61.0342Z" fill="#F9A019"/>
<path fill-rule="evenodd" clip-rule="evenodd" d="M32.9103 63.3786C32.78 63.3136 32.6499 63.2483 32.5197 63.1833C32.215 62.2831 32.5406 61.8598 33.4962 61.9137C33.8665 62.2669 33.9642 62.6901 33.7892 63.1833C33.5243 63.3552 33.2314 63.4204 32.9103 63.3786Z" fill="#6DAD45"/>
<path fill-rule="evenodd" clip-rule="evenodd" d="M49.1211 62.9893C49.0299 63.5355 48.7045 63.7961 48.1445 63.7705C47.4691 63.3768 47.4041 62.8885 47.9492 62.3057C48.6078 62.0865 48.9984 62.3145 49.1211 62.9893Z" fill="#6AAB44"/>
<path fill-rule="evenodd" clip-rule="evenodd" d="M50.0979 62.597C50.5731 62.5526 50.8985 62.7479 51.0744 63.1829C51.0448 63.9616 50.6541 64.2546 49.9026 64.0618C49.3545 63.4882 49.4196 62.9999 50.0979 62.597Z" fill="#DAE1E1"/>
<path fill-rule="evenodd" clip-rule="evenodd" d="M39.7465 62.7933C40.6266 62.6032 41.0496 62.9288 41.016 63.7698C39.7748 64.4927 39.3516 64.1671 39.7465 62.7933Z" fill="#67AC45"/>
<path fill-rule="evenodd" clip-rule="evenodd" d="M50.0977 62.5986C49.4193 63.0016 49.3543 63.4898 49.9023 64.0635C50.6539 64.2562 51.0445 63.9633 51.0742 63.1846C51.8189 63.6549 52.6002 64.0781 53.418 64.4541C51.0637 65.8527 48.7199 65.8527 46.3867 64.4541C46.9295 64.1178 47.5154 63.8898 48.1445 63.7705C48.7045 63.7961 49.0299 63.5355 49.1211 62.9893C49.3779 62.7986 49.6383 62.6033 49.9023 62.4033C50.0209 62.4275 50.0859 62.4926 50.0977 62.5986Z" fill="#F9A11B"/>
<path fill-rule="evenodd" clip-rule="evenodd" d="M56.1528 62.5967C57.0829 62.7123 57.3434 63.2006 56.9341 64.0615C55.704 64.1582 55.4434 63.6699 56.1528 62.5967Z" fill="#D9E5E7"/>
<path fill-rule="evenodd" clip-rule="evenodd" d="M35.2539 64.7473C34.7787 64.7917 34.4533 64.5963 34.2773 64.1614C34.307 63.3827 34.6977 63.0897 35.4492 63.2825C35.9506 63.8336 35.8855 64.3219 35.2539 64.7473Z" fill="#DAE3E4"/>
<path fill-rule="evenodd" clip-rule="evenodd" d="M65.1369 64.7456C65.0719 64.9409 64.9416 65.0712 64.7463 65.1362C63.8541 65.2177 63.5611 64.827 63.8674 63.9643C64.7361 63.5423 65.1594 63.8026 65.1369 64.7456Z" fill="#D8E5EB"/>
<path fill-rule="evenodd" clip-rule="evenodd" d="M74.1211 64.1595C75.0969 64.7433 75.6828 65.5896 75.8789 66.6986C75.9107 67.1589 75.8783 67.6146 75.7813 68.0658C74.7156 70.2437 73.1205 70.7646 70.9961 69.6283C70.1869 68.9872 69.7311 68.1408 69.6289 67.0892C70.1268 64.5935 71.6242 63.6169 74.1211 64.1595Z" fill="#F04D36"/>
<path fill-rule="evenodd" clip-rule="evenodd" d="M26.4651 64.5498C26.9001 64.7258 27.0954 65.0512 27.051 65.5264C25.9778 66.2358 25.4895 65.9752 25.5862 64.7452C25.851 64.5733 26.144 64.508 26.4651 64.5498Z" fill="#67AA44"/>
<path fill-rule="evenodd" clip-rule="evenodd" d="M39.3555 65.5285C39.3555 65.5935 39.3555 65.6587 39.3555 65.7238C38.6398 66.2995 38.1191 66.1369 37.793 65.2355C38.1002 64.5613 38.5885 64.3984 39.2578 64.7472C39.3535 64.9997 39.3861 65.2603 39.3555 65.5285Z" fill="#6CAC45"/>
<path fill-rule="evenodd" clip-rule="evenodd" d="M35.4492 65.1378C36.1191 66.1431 35.8588 66.6314 34.668 66.6027C34.4959 66.4644 34.3658 66.3015 34.2773 66.1144C34.3068 65.3695 34.6975 65.0439 35.4492 65.1378Z" fill="#DAE2E2"/>
<path fill-rule="evenodd" clip-rule="evenodd" d="M59.6678 66.8937C58.8428 66.74 58.5824 66.2843 58.8865 65.5265C59.8754 65.1392 60.2987 65.4646 60.1561 66.5031C60.0178 66.6751 59.8549 66.8052 59.6678 66.8937Z" fill="#6BAA43"/>
<path fill-rule="evenodd" clip-rule="evenodd" d="M44.8242 67.2852C44.443 68.0344 44.6709 68.49 45.5078 68.6523C45.8285 68.559 46.0564 68.3637 46.1914 68.0664C47.0092 68.2057 47.7904 68.401 48.5352 68.6523C47.2025 68.9434 46.291 69.7246 45.8008 70.9961C42.9256 70.1137 40.7771 68.3559 39.3555 65.7227C39.3555 65.6576 39.3555 65.5924 39.3555 65.5273C40.5326 65.4941 41.7045 65.4615 42.8711 65.4297C43.5018 66.0936 44.1527 66.7119 44.8242 67.2852Z" fill="#F9A01A"/>
<path fill-rule="evenodd" clip-rule="evenodd" d="M58.8867 65.5277C58.5826 66.2855 58.843 66.7411 59.668 66.8949C58.0752 69.1273 55.9268 70.5921 53.2227 71.2894C52.9168 71.4388 52.6564 71.4062 52.4414 71.1917C52.5354 70.44 52.2098 70.0493 51.4648 70.0199C50.9926 69.4247 50.4066 68.9691 49.707 68.6527C52.4979 68.6564 54.8416 67.6474 56.7383 65.6253C57.4516 65.5279 58.1676 65.4954 58.8867 65.5277Z" fill="#F9A11C"/>
<path fill-rule="evenodd" clip-rule="evenodd" d="M46.1917 68.0655C46.0567 68.3627 45.8288 68.558 45.5081 68.6514C44.6711 68.4891 44.4432 68.0334 44.8245 67.2842C45.7209 66.8461 46.1768 67.1065 46.1917 68.0655Z" fill="#6FAA43"/>
<path fill-rule="evenodd" clip-rule="evenodd" d="M31.9332 67.4799C33.1449 67.4436 33.4053 67.9319 32.7145 68.9448C31.7637 68.8883 31.5033 68.4 31.9332 67.4799Z" fill="#67AC45"/>
<path fill-rule="evenodd" clip-rule="evenodd" d="M54.5902 67.6761C55.4703 67.486 55.8934 67.8116 55.8598 68.6526C54.6186 69.3755 54.1953 69.0499 54.5902 67.6761Z" fill="#D9E2E6"/>
<path fill-rule="evenodd" clip-rule="evenodd" d="M39.5512 68.0654C40.4813 68.1811 40.7419 68.6693 40.3325 69.5303C39.1024 69.627 38.8419 69.1387 39.5512 68.0654Z" fill="#D9E4E6"/>
<path fill-rule="evenodd" clip-rule="evenodd" d="M48.535 68.6533C48.9256 68.6533 49.3162 68.6533 49.7069 68.6533C50.4065 68.9697 50.9924 69.4254 51.4647 70.0205C51.6911 70.4805 51.8864 70.9361 52.0506 71.3877C52.0655 72.9893 51.3493 74.0961 49.9022 74.708C49.0172 75.0275 48.1709 74.9623 47.3631 74.5127C46.1024 73.6828 45.5815 72.5109 45.8006 70.9971C46.2909 69.7256 47.2024 68.9443 48.535 68.6533Z" fill="#F04D36"/>
<path fill-rule="evenodd" clip-rule="evenodd" d="M40.7231 80.1768C41.4393 78.6793 41.0487 78.2887 39.5512 79.0049C38.5815 77.3016 37.8979 75.4785 37.5004 73.5361C37.3332 72.026 37.3983 70.5287 37.6957 69.0439C38.477 70.0855 39.3885 70.9971 40.4301 71.7783C41.0664 77.2973 44.1264 80.4223 49.6098 81.1533C54.8057 80.8732 58.0283 78.2041 59.2778 73.1455C60.1555 73.8123 61.0668 74.4309 62.0121 75.001C60.0061 80.9107 55.8719 84.0031 49.6098 84.2783C46.0582 84.1459 43.0959 82.7787 40.7231 80.1768Z" fill="#F9A019"/>
<path fill-rule="evenodd" clip-rule="evenodd" d="M51.4648 70.0186C52.2098 70.048 52.5354 70.4387 52.4414 71.1904C52.3111 71.2555 52.1811 71.3207 52.0508 71.3857C51.8865 70.9342 51.6912 70.4785 51.4648 70.0186Z" fill="#6FA443"/>
<path fill-rule="evenodd" clip-rule="evenodd" d="M29.5902 70.8017C30.802 70.7654 31.0623 71.2536 30.3715 72.2665C29.2606 72.2255 29.0002 71.7372 29.5902 70.8017Z" fill="#6DA942"/>
<path fill-rule="evenodd" clip-rule="evenodd" d="M19.4332 71.3877C20.9627 72.9801 22.7205 74.282 24.7066 75.2939C25.6549 77.1516 26.8268 78.8443 28.2223 80.3721C24.7918 78.0162 21.8297 75.1518 19.3356 71.7783C19.2005 71.5953 19.233 71.4652 19.4332 71.3877Z" fill="#A9C4D9"/>
<path fill-rule="evenodd" clip-rule="evenodd" d="M80.3711 71.3877C80.5713 71.4652 80.6039 71.5953 80.4688 71.7783C77.9623 75.066 75.065 77.9633 71.7773 80.4697C71.5943 80.6049 71.4643 80.5723 71.3867 80.3721C72.9791 78.8426 74.2811 77.0848 75.293 75.0986C77.2131 74.1525 78.9059 72.9156 80.3711 71.3877Z" fill="#A9C4D9"/>
<path fill-rule="evenodd" clip-rule="evenodd" d="M44.0428 73.73C42.9786 74.0661 42.5555 73.6755 42.7733 72.5581C43.9254 72.1806 44.3485 72.5712 44.0428 73.73Z" fill="#6CAD45"/>
<path fill-rule="evenodd" clip-rule="evenodd" d="M44.043 73.7314C45.1139 74.3311 46.2207 74.5916 47.3633 74.5127C48.1711 74.9623 49.0174 75.0275 49.9023 74.708C51.8756 74.9053 53.7961 74.5799 55.6641 73.7314C54.9576 76.1939 53.2975 77.5936 50.6836 77.9307C48.1596 78.2471 46.1738 77.3682 44.7266 75.2939C44.4373 74.7842 44.2094 74.2633 44.043 73.7314Z" fill="#FAA11A"/>
<path fill-rule="evenodd" clip-rule="evenodd" d="M35.0583 75.683C36.27 75.6467 36.5304 76.135 35.8396 77.1479C34.7556 77.0766 34.4952 76.5883 35.0583 75.683Z" fill="#6BAD45"/>
<path fill-rule="evenodd" clip-rule="evenodd" d="M32.1289 76.2695C32.5248 76.2379 32.9154 76.2705 33.3008 76.3672C33.8553 76.7422 34.4412 77.0677 35.0586 77.3437C35.7475 78.558 36.4637 79.7625 37.207 80.957C33.9287 80.7168 31.2594 79.2845 29.1992 76.6601C30.2053 76.5299 31.1818 76.3996 32.1289 76.2695Z" fill="#FAA119"/>
<path fill-rule="evenodd" clip-rule="evenodd" d="M66.3086 76.2686C67.7412 76.3699 69.1736 76.5002 70.6055 76.6592C68.5475 79.2824 65.8783 80.7148 62.5977 80.9561C63.3031 80.0012 63.8564 78.9594 64.2578 77.8311C64.9723 77.3299 65.6559 76.8092 66.3086 76.2686Z" fill="#FAA119"/>
<path fill-rule="evenodd" clip-rule="evenodd" d="M40.7227 80.1757C40.0064 80.1107 39.6158 79.72 39.5508 79.0038C41.0482 78.2876 41.4389 78.6782 40.7227 80.1757Z" fill="#6CAB44"/>
<path fill-rule="evenodd" clip-rule="evenodd" d="M34.2773 83.8877C36.4621 84.3488 38.6756 84.5766 40.918 84.5713C42.6217 85.8139 44.5098 86.6275 46.582 87.0127C42.2664 86.9166 38.1648 85.8748 34.2773 83.8877Z" fill="#A7C4DB"/>
<path fill-rule="evenodd" clip-rule="evenodd" d="M64.5508 84.0817C64.6951 84.0561 64.8254 84.0887 64.9414 84.1793C61.5078 85.8471 57.9271 86.726 54.1992 86.8161C55.8875 86.3299 57.45 85.5813 58.8867 84.57C60.7873 84.5223 62.6752 84.3596 64.5508 84.0817Z" fill="#A8C3D9"/>
</svg>
