<svg width="100" height="100" viewBox="0 0 100 100" fill="none" xmlns="http://www.w3.org/2000/svg">
<path opacity="0.996" fill-rule="evenodd" clip-rule="evenodd" d="M34.2269 10.0793C35.9023 11.0699 36.4915 12.5427 35.9942 14.4977C36.0111 15.5544 35.9308 16.5988 35.7532 17.6308C35.3533 18.3269 34.791 18.8089 34.0662 19.0768C31.8007 19.1019 30.7295 17.9772 30.8528 15.7027C30.8261 14.3627 30.8528 13.0238 30.9331 11.686C31.6068 10.3183 32.7047 9.78272 34.2269 10.0793Z" fill="#B48160"/>
<path fill-rule="evenodd" clip-rule="evenodd" d="M34.2271 10.0779C35.139 10.0512 36.0496 10.078 36.9585 10.1582C37.6815 10.4528 38.1903 10.9615 38.4848 11.6846C38.5652 13.0224 38.5919 14.3613 38.5652 15.7013C38.5652 16.1833 38.5652 16.6654 38.5652 17.1474C38.284 17.9377 37.7483 18.5001 36.9585 18.8344C36.0094 19.053 35.0454 19.1334 34.0664 19.0754C34.7912 18.8075 35.3535 18.3255 35.7534 17.6294C35.931 16.5974 36.0113 15.553 35.9945 14.4963C36.4917 12.5413 35.9025 11.0685 34.2271 10.0779Z" fill="#DC9E75"/>
<path opacity="0.998" fill-rule="evenodd" clip-rule="evenodd" d="M38.565 15.7031C42.1338 16.6198 44.5705 18.8156 45.8755 22.2906C46.3137 24.4185 46.876 26.5073 47.5626 28.5568C45.314 29.4401 43.1718 30.538 41.1357 31.8505C39.3065 33.4667 38.155 35.4751 37.6813 37.8757C37.4824 45.5321 37.3484 53.1908 37.2796 60.8515C37.0333 67.695 38.64 74.0681 42.0998 79.9713C34.5454 79.4973 27.69 77.0605 21.5339 72.6608C15.9763 68.2138 12.4415 62.51 10.9297 55.5494C11.2649 53.2981 11.8273 51.1024 12.6167 48.9619C15.4777 42.5751 18.3697 36.2019 21.2929 29.8421C22.1932 27.5757 22.9162 25.2727 23.462 22.9333C26.9972 22.9601 30.532 22.9333 34.0662 22.853C37.0778 22.1687 38.5774 20.2675 38.565 17.1492C38.565 16.6671 38.565 16.1851 38.565 15.7031Z" fill="#4F751E"/>
<path fill-rule="evenodd" clip-rule="evenodd" d="M30.8528 15.7031C30.7295 17.9776 31.8007 19.1023 34.0662 19.0772C35.0451 19.1352 36.0092 19.0548 36.9582 18.8362C37.7481 18.5019 38.2838 17.9395 38.5649 17.1492C38.5773 20.2675 37.0778 22.1687 34.0662 22.853C30.5319 22.9333 26.9971 22.9601 23.4619 22.9333C24.4472 19.0128 26.9109 16.6028 30.8528 15.7031Z" fill="#335506"/>
<path fill-rule="evenodd" clip-rule="evenodd" d="M41.1356 21.3257C42.5598 21.3301 43.2293 22.0263 43.144 23.4144C42.8516 23.8487 42.4499 23.9825 41.939 23.8161C40.8146 23.2389 40.5467 22.4088 41.1356 21.3257Z" fill="#F2F6F7"/>
<path fill-rule="evenodd" clip-rule="evenodd" d="M43.7068 26.467C44.678 26.3913 44.9994 26.793 44.6708 27.672C43.9266 27.6481 43.6052 27.2464 43.7068 26.467Z" fill="#EFF3F2"/>
<path fill-rule="evenodd" clip-rule="evenodd" d="M88.3728 59.726C90.4017 66.1496 89.6251 72.2016 86.0431 77.8818C80.4015 84.7491 73.3588 86.7038 64.9149 83.7462C59.1674 81.2121 55.1775 77.0079 52.945 71.1336C51.4544 67.6888 50.4904 64.1006 50.0529 60.3687C49.5641 51.697 49.2428 43.0208 49.0889 34.34C49.6411 32.2107 50.7926 30.4968 52.5433 29.1986C55.8071 27.3607 58.9669 27.5482 62.0228 29.7609C68.4175 35.5663 74.764 41.4308 81.0623 47.3544C84.2359 51.0207 86.6727 55.1446 88.3728 59.726Z" fill="#9DC256"/>
<path fill-rule="evenodd" clip-rule="evenodd" d="M47.563 28.5562C47.9666 29.2576 48.2879 30.0075 48.527 30.8055C48.3342 31.3403 47.9594 31.7419 47.4023 32.0106C45.6987 33.6234 44.6009 35.5783 44.1086 37.875C43.8528 46.9781 43.7456 56.0829 43.7872 65.189C44.4031 71.8882 46.7328 77.8865 50.7764 83.1841C44.3104 89.2326 36.7589 91.1338 28.1219 88.8879C20.4224 86.1692 15.0935 81.0011 12.1351 73.3832C10.4656 68.8097 9.87643 64.0968 10.3678 59.2442C10.4458 57.9733 10.6333 56.7416 10.9301 55.5488C12.4419 62.5094 15.9767 68.2132 21.5344 72.6602C27.6905 77.0598 34.5458 79.4967 42.1002 79.9707C38.6405 74.0675 37.0338 67.6944 37.2801 60.8509C37.3488 53.1901 37.4828 45.5315 37.6818 37.875C38.1554 35.4745 39.3069 33.4661 41.1362 31.8499C43.1722 30.5374 45.3144 29.4395 47.563 28.5562Z" fill="#335506"/>
<path fill-rule="evenodd" clip-rule="evenodd" d="M52.5436 29.1992C50.7929 30.4974 49.6414 32.2113 49.0892 34.3407C49.2431 43.0214 49.5644 51.6976 50.0532 60.3693C50.4907 64.1012 51.4547 67.6894 52.9452 71.1342C55.1778 77.0085 59.1677 81.2127 64.9152 83.7468C73.3591 86.7045 80.4017 84.7497 86.0434 77.8824C89.6254 72.2022 90.402 66.1502 88.3731 59.7266C91.7923 69.4804 89.5964 77.755 81.7856 84.5502C80.6697 85.4257 79.4915 86.2022 78.2509 86.8799C78.2412 86.7927 78.1877 86.7392 78.0902 86.7192C69.7969 89.8658 62.1382 88.768 55.1143 83.4255C52.6024 81.2136 50.701 78.5625 49.4105 75.4723C47.6367 71.5907 46.6192 67.5204 46.3578 63.2614C46.2949 54.3692 46.4019 45.4788 46.6791 36.5901C47.2922 33.7586 48.7651 31.5092 51.0975 29.8419C51.5134 29.5058 51.9954 29.2916 52.5436 29.1992Z" fill="#628F26"/>
<path fill-rule="evenodd" clip-rule="evenodd" d="M55.596 30.0022C57.475 29.856 59.1889 30.3112 60.7374 31.3679C67.0786 37.1198 73.3716 42.9306 79.6162 48.8007C83.4583 53.164 86.029 58.1983 87.3284 63.9037C88.1015 70.2627 86.1468 75.5915 81.4639 79.8904C75.6785 83.9122 69.6802 84.2335 63.4688 80.8545C60.3276 79.0522 57.8908 76.5618 56.1583 73.3833C53.6626 68.6485 52.2166 63.6142 51.8202 58.2803C51.584 50.9407 51.2894 43.6035 50.9365 36.2684C51.0485 33.0955 52.6017 31.0068 55.596 30.0022Z" fill="#FEFBC0"/>
<path opacity="0.992" fill-rule="evenodd" clip-rule="evenodd" d="M51.0976 29.8413C48.7651 31.5086 47.2922 33.758 46.6791 36.5895C46.402 45.4782 46.295 54.3686 46.3578 63.2608C46.6192 67.5198 47.6367 71.5901 49.4105 75.4717C50.701 78.5619 52.6024 81.213 55.1143 83.4249C62.1382 88.7674 69.7969 89.8652 78.0902 86.7187C78.1877 86.7386 78.2412 86.7921 78.2509 86.8793C71.6322 90.2749 64.8304 90.6766 57.8457 88.0844C55.1763 86.8851 52.8199 85.2516 50.7762 83.1839C46.7326 77.8863 44.4029 71.888 43.7871 65.1888C43.7454 56.0827 43.8526 46.9779 44.1084 37.8748C44.6007 35.578 45.6985 33.6232 47.4021 32.0104C47.9592 31.7417 48.334 31.34 48.5268 30.8053C48.626 30.8232 48.7063 30.8767 48.7678 30.966C49.5111 30.5275 50.2876 30.1525 51.0976 29.8413Z" fill="#4F751D"/>
<path fill-rule="evenodd" clip-rule="evenodd" d="M74.8767 76.7564C75.529 76.1471 76.0645 75.4507 76.4834 74.6676C77.1415 73.525 77.5967 72.2931 77.8491 70.9722C77.9614 69.362 77.9345 67.7553 77.7687 66.1521C77.9405 65.6849 77.9673 65.2029 77.8491 64.7061C77.5176 64.3471 77.1696 64.0258 76.8047 63.742C76.4472 62.7591 75.9652 61.8485 75.3587 61.0106C74.898 60.3023 74.3624 59.6596 73.752 59.0826C71.7588 56.8615 69.2418 55.6831 66.2005 55.5479C65.6572 55.5414 65.1217 55.5949 64.5938 55.7085C66.1942 54.4514 68.0151 53.9963 70.0565 54.3428C74.386 55.3499 77.4655 57.8938 79.2951 61.9747C80.5705 64.9363 80.8383 67.989 80.0985 71.1329C79.324 73.9154 77.5833 75.7899 74.8767 76.7564Z" fill="#DC9F76"/>
<path fill-rule="evenodd" clip-rule="evenodd" d="M66.2002 55.5483C69.2416 55.6836 71.7586 56.862 73.7517 59.0831C72.8729 58.5914 71.9624 58.5111 71.0203 58.8421C70.8328 59.0296 70.6455 59.2169 70.458 59.4044C70.1837 61.2925 70.9068 62.6582 72.6271 63.5015C74.713 64.0072 75.6236 63.177 75.3585 61.0111C75.965 61.849 76.447 62.7596 76.8045 63.7425C75.8667 63.5848 75.4115 63.9596 75.4388 64.8672C75.83 66.0396 76.6067 66.4682 77.7685 66.1526C77.9343 67.7558 77.9612 69.3625 77.8488 70.9727C77.5964 72.2936 77.1413 73.5254 76.4831 74.6681C71.4991 73.7849 67.9911 71 65.9592 66.3133C64.4941 62.6823 64.5744 59.094 66.2002 55.5483Z" fill="#B48160"/>
<path fill-rule="evenodd" clip-rule="evenodd" d="M66.2005 55.5484C64.5747 59.094 64.4944 62.6823 65.9595 66.3133C67.9914 71.0001 71.4995 73.785 76.4834 74.6682C76.0646 75.4513 75.5291 76.1476 74.8767 76.7569C74.8232 76.7569 74.7696 76.7569 74.7161 76.7569C72.2062 77.3115 69.8497 76.9098 67.6466 75.5518C63.3724 72.6018 61.1765 68.5047 61.0591 63.2606C61.0899 61.0258 61.7326 58.9907 62.9871 57.1551C63.4185 56.5633 63.954 56.0813 64.5938 55.709C65.1218 55.5954 65.6573 55.5419 66.2005 55.5484Z" fill="#8A5A3D"/>
<path fill-rule="evenodd" clip-rule="evenodd" d="M62.9874 57.1553C61.7329 58.9909 61.0902 61.026 61.0594 63.2608C61.1768 68.5049 63.3727 72.602 67.6469 75.552C69.85 76.91 72.2065 77.3117 74.7164 76.7571C71.8314 79.8956 68.4573 80.5116 64.5941 78.6048C59.7716 75.7113 57.3079 71.4267 57.2033 65.7511C57.1869 62.4094 58.5258 59.7851 61.22 57.8783C61.7777 57.5454 62.3669 57.3044 62.9874 57.1553Z" fill="#E0DA89"/>
<path fill-rule="evenodd" clip-rule="evenodd" d="M73.7517 59.0838C74.3621 59.6608 74.8977 60.3035 75.3584 61.0119C75.6235 63.1777 74.713 64.0079 72.627 63.5023C70.9067 62.6589 70.1837 61.2932 70.4579 59.4052C70.6454 59.2177 70.8328 59.0303 71.0203 58.8428C71.9623 58.5118 72.8728 58.5922 73.7517 59.0838Z" fill="#F6F8FA"/>
<path fill-rule="evenodd" clip-rule="evenodd" d="M76.8048 63.7431C77.1697 64.0268 77.5177 64.3481 77.8492 64.7071C77.9675 65.2039 77.9406 65.6859 77.7689 66.1531C76.6071 66.4687 75.8304 66.0402 75.4391 64.8678C75.4118 63.9601 75.867 63.5853 76.8048 63.7431Z" fill="#F5F5F7"/>
</svg>
