<svg width="100" height="100" viewBox="0 0 100 100" fill="none" xmlns="http://www.w3.org/2000/svg">
<path d="M89.5833 12.5002C89.375 10.2086 87.5 10.4169 87.5 10.4169C87.5 10.4169 61.875 8.75025 47.7083 22.9169C40 30.8336 37.2916 39.1669 34.7916 46.6669C33.3333 51.0419 31.4583 54.7919 29.7916 58.5419C25.2083 68.7502 21.875 71.6669 18.75 72.9169C17.2916 73.5419 11.6666 73.3336 10.4166 75.8336C9.79164 77.0836 10.625 78.5419 11.875 80.0003C16.6666 84.7919 26.875 89.5836 38.9583 89.5836C39.375 89.5836 39.7916 89.5836 40.2083 89.5836C49.375 89.3752 60.8333 87.7086 72.9166 75.0002C82.7083 64.7919 85.2083 49.3752 85.2083 37.5002C85.2083 31.0419 84.375 25.8336 83.3333 22.9169C81.4583 16.8752 89.5833 14.3752 89.5833 12.5002Z" fill="#EF6C00"/>
<path d="M70.8334 37.5003C70.0001 37.5003 69.3751 37.0836 68.9584 36.4586C66.2501 31.2503 60.4168 31.2503 60.4168 31.2503C59.3751 31.2503 58.3334 30.4169 58.3334 29.1669C58.3334 27.9169 59.1668 27.0836 60.4168 27.0836C60.8334 27.0836 68.7501 26.8753 72.7084 34.3753C73.3334 35.4169 72.9168 36.6669 71.8751 37.2919C71.4584 37.5003 71.2501 37.5003 70.8334 37.5003ZM73.9584 53.9586C75.0001 53.3336 75.4168 52.0836 74.7918 51.2503C71.6668 45.0003 65.2084 43.9586 65.0001 43.9586C63.7501 43.7503 62.7084 44.5836 62.7084 45.6253C62.5001 46.6669 63.3334 47.9169 64.3751 47.9169C64.3751 47.9169 68.9584 48.7503 71.2501 53.1253C71.6668 53.7503 72.2918 54.1669 73.1251 54.1669C73.3334 54.1669 73.5418 54.1669 73.9584 53.9586ZM52.9168 56.0419C53.9584 55.6253 54.5834 54.3753 53.9584 53.3336C51.8751 48.3336 46.2501 47.9169 45.8334 47.9169C44.7918 47.9169 43.7501 48.7503 43.5418 49.7919C43.5418 50.8336 44.3751 51.8753 45.4168 52.0836C45.4168 52.0836 48.9584 52.5003 50.0001 55.0003C50.4168 55.8336 51.0418 56.2503 51.8751 56.2503C52.2918 56.2503 52.7084 56.2503 52.9168 56.0419ZM58.7501 75.0003C59.7918 74.7919 60.6251 73.7503 60.4168 72.5003C59.5834 68.9586 56.4584 67.0836 54.7918 66.6669C53.7501 66.4586 52.5001 67.0836 52.2918 68.1253C52.0834 69.1669 52.7084 70.4169 53.7501 70.6253C53.7501 70.6253 56.0418 71.2503 56.4584 73.1253C56.6668 74.1669 57.5001 74.7919 58.5418 74.7919C58.5418 75.0003 58.5418 75.0003 58.7501 75.0003ZM40.0001 75.0003C41.0418 74.7919 41.8751 73.7503 41.6668 72.5003C40.8334 68.7503 37.7084 67.0836 35.8334 66.6669C34.7918 66.4586 33.5418 67.0836 33.3334 68.3336C33.1251 69.3753 33.7501 70.6253 35.0001 70.8336C35.0001 70.8336 37.0834 71.2503 37.5001 73.3336C37.7084 74.3753 38.5418 75.0003 39.5834 75.0003C39.7918 75.0003 39.7918 75.0003 40.0001 75.0003Z" fill="#BF360C"/>
<path d="M43.7502 83.3333C27.5002 84.1667 25.0002 72.9167 25.0002 72.9167C25.0002 72.9167 24.7919 70 26.0419 65.8333C23.3335 70.2083 21.0419 71.875 18.7502 72.9167C17.9169 73.3333 15.2085 73.3333 13.3335 73.9583C12.0835 74.375 11.0419 75 10.6252 75.8333C10.4169 76.25 10.2085 76.4583 10.4169 76.875C10.4169 77.9167 11.0419 78.9583 12.0835 80C16.8752 84.7917 27.0835 89.5833 39.1669 89.5833C39.5835 89.5833 40.0002 89.5833 40.4169 89.5833C43.7502 89.5833 47.5002 89.1667 51.4585 88.3333C54.7919 87.5 58.3335 86.25 61.8752 84.1667C63.3335 83.3333 64.7919 82.2917 66.2502 81.25C67.7085 80.2083 69.1669 78.9583 70.8335 77.5C71.6669 76.875 72.2919 76.0417 73.1252 75.2083C76.8752 71.4583 79.3752 66.875 81.2502 61.875C81.8752 60.2083 82.5002 58.5417 82.9169 56.875C83.3335 55.2083 83.7502 53.5417 84.1669 51.875C84.5835 50.2083 84.7919 48.5417 85.0002 46.875C85.2085 44.375 85.4169 42.0833 85.4169 39.7917C85.4169 38.9583 85.4169 38.3333 85.4169 37.5C85.8335 64.375 60.0002 82.5 43.7502 83.3333Z" fill="#D84315"/>
</svg>
