<svg width="100" height="100" viewBox="0 0 100 100" fill="none" xmlns="http://www.w3.org/2000/svg">
<path d="M80.9585 46.1261C80.1835 43.5532 77.8252 41.6678 75.0002 41.6678C74.9648 41.6678 74.9314 41.6782 74.896 41.6782C74.3918 38.1449 71.3814 35.4178 67.7085 35.4178C65.4627 35.4178 63.4793 36.4553 62.1418 38.0511C61.2877 37.7011 60.3564 37.5011 59.3752 37.5011C58.6689 37.5011 57.9981 37.6345 57.3522 37.822C55.9585 35.1657 53.2064 33.3345 50.0002 33.3345C46.8793 33.3345 44.1897 35.072 42.7627 37.6116C42.4064 37.5491 42.0418 37.5011 41.6668 37.5011C41.1606 37.5011 40.6731 37.5782 40.2022 37.6928C39.0564 36.3136 37.3502 35.4178 35.4168 35.4178C34.1127 35.4178 32.9043 35.8178 31.9022 36.5011C30.7981 35.8261 29.5147 35.4178 28.1252 35.4178C24.0981 35.4178 20.8335 38.6824 20.8335 42.7095C20.8335 43.0991 20.8897 43.472 20.9481 43.8449C17.3647 44.3053 14.5835 47.3324 14.5835 51.0428C14.5835 55.0699 17.8481 58.3345 21.8752 58.3345C22.2314 58.3345 22.5731 58.2782 22.9168 58.2303V58.3345H77.0835V57.9511C77.7377 58.1845 78.4314 58.3345 79.1668 58.3345C82.6189 58.3345 85.4168 55.5366 85.4168 52.0845C85.4168 49.2595 83.5314 46.9011 80.9585 46.1261Z" fill="#E5E5E5"/>
<path d="M66.0457 41.9843L84.0957 16.6655L87.4998 19.0676L69.9061 43.7489H66.5623C66.4728 43.128 66.2811 42.5447 66.0457 41.9843ZM63.4373 38.7364L77.0832 12.3489L73.3915 10.4155L59.3853 37.5009C60.8853 37.503 62.279 37.9572 63.4373 38.7364Z" fill="#FFCC80"/>
<path d="M66.8853 49.0718C67.3979 48.0385 68.6499 47.6239 69.6812 48.1364C70.7104 48.6489 71.127 49.9031 70.6124 50.9281L68.7499 54.6531C68.2374 55.6864 66.9854 56.101 65.9541 55.5885C64.9249 55.076 64.5104 53.8218 65.0229 52.7968L66.8853 49.0718ZM41.4354 48.5468C40.6333 49.3718 40.6499 50.6906 41.4729 51.4927C42.302 52.2947 43.6187 52.2781 44.4208 51.4531L47.327 48.4656C48.1312 47.6385 48.1104 46.3218 47.2854 45.5197C46.4604 44.7135 45.1395 44.7343 44.3395 45.5593L41.4354 48.5468ZM30.3083 41.8031C29.3437 41.176 28.0562 41.4364 27.4249 42.4052C26.7937 43.3656 27.0624 44.6593 28.027 45.2864L31.5104 47.5739C32.4749 48.2093 33.7645 47.9322 34.3958 46.9718C35.0291 46.0114 34.7583 44.7177 33.7937 44.0906L30.3083 41.8031ZM55.3083 42.0072C54.3437 41.376 53.0562 41.6406 52.4249 42.6052C51.7937 43.5697 52.0624 44.8593 53.027 45.4906L56.5104 47.7739C57.4749 48.4093 58.7645 48.1364 59.3958 47.176C60.0291 46.2114 59.7583 44.9177 58.7937 44.2906L55.3083 42.0072Z" fill="#BCAAA4"/>
<path d="M10.4165 52.0845H89.5832C89.5832 52.0845 89.4436 85.4178 49.9998 85.4178C10.5561 85.4178 10.4165 52.0845 10.4165 52.0845Z" fill="#5D4037"/>
<path d="M64.5832 83.3345H35.4165V89.5845H64.5832V83.3345Z" fill="#3E2723"/>
</svg>
