<svg width="100" height="100" viewBox="0 0 100 100" fill="none" xmlns="http://www.w3.org/2000/svg">
<path d="M91.5856 49.2624C91.348 38.2893 86.7935 27.8525 78.9102 20.2159C71.0269 12.5793 60.4505 8.35876 49.4755 8.46991C38.5004 8.58107 28.0118 13.0149 20.2848 20.8097C12.5577 28.6044 8.21559 39.1313 8.2002 50.1069C8.2002 50.2837 8.2002 50.4605 8.2002 50.6274C8.2002 50.7551 8.2002 50.8926 8.2002 51.0202C8.2002 51.3345 8.2002 51.6586 8.2002 52.0023C8.2002 52.346 8.2002 52.621 8.26894 52.9843C8.33768 53.3477 8.26894 53.603 8.33768 53.9075C8.33768 54.3003 8.3966 54.6931 8.44571 55.0859C9.61886 64.9134 14.2494 74.0031 21.5093 80.7298C28.7692 87.4566 38.1851 91.3816 48.0733 91.8032C57.9616 92.2247 67.6774 89.1153 75.4835 83.0309C83.2895 76.9464 88.6769 68.2838 90.6822 58.5918C91.0738 56.6475 91.333 54.6789 91.458 52.6995C91.458 52.2183 91.458 51.7175 91.458 51.2559C91.458 51.0792 91.5169 50.9024 91.5169 50.7256C91.5169 50.5587 91.5169 50.3819 91.5169 50.1855C91.5169 49.9891 91.5955 49.5374 91.5856 49.2624ZM49.9273 67.9311C47.5862 67.9324 45.2679 67.4722 43.1048 66.5769C40.9417 65.6816 38.9762 64.3688 37.3209 62.7134C35.6655 61.058 34.3526 59.0926 33.4573 56.9295C32.562 54.7664 32.1019 52.448 32.1032 50.1069C32.1032 49.8123 32.1032 49.5177 32.1032 49.2231C32.2798 45.7465 33.4718 42.3979 35.5316 39.5916C37.5913 36.7853 40.4286 34.6444 43.6924 33.4337C46.9561 32.223 50.5032 31.9956 53.8949 32.7796C57.2865 33.5637 60.3739 35.3248 62.7752 37.8451C65.1765 40.3655 66.7862 43.5344 67.4053 46.96C68.0245 50.3856 67.6258 53.9176 66.2587 57.119C64.8915 60.3204 62.6159 63.0508 59.7133 64.9725C56.8107 66.8941 53.4084 67.9227 49.9273 67.9311Z" fill="#EAA74E"/>
<path d="M85.4578 49.5768V49.3804C85.3615 39.9533 81.5241 30.9505 74.79 24.3526C68.0558 17.7548 58.9765 14.1023 49.5494 14.1986C40.1222 14.295 31.1194 18.1323 24.5216 24.8665C17.9237 31.6006 14.2712 40.68 14.3676 50.1071V50.716V50.9222C14.3676 51.1874 14.3676 51.4525 14.3676 51.7079V52.4149L14.5738 53.7309C14.5738 53.9273 14.5738 54.1237 14.6327 54.3397C15.6418 62.7142 19.5958 70.4569 25.788 76.1845C31.9802 81.9121 40.0073 85.2513 48.4349 85.6055C56.8624 85.9596 65.1414 83.3056 71.7923 78.1178C78.4432 72.9299 83.0328 65.5461 84.7409 57.2859C85.0818 55.628 85.3017 53.9475 85.3989 52.2578C85.3989 51.8846 85.3989 51.5114 85.3989 51.1383C85.3989 51.1383 85.3989 50.5785 85.3989 50.4803V49.4983L85.4578 49.5768ZM49.9274 74.069C43.5739 74.0638 37.4822 71.5376 32.9896 67.045C28.497 62.5524 25.9707 56.4606 25.9655 50.1071C25.9655 49.7241 25.9655 49.3313 25.9655 48.9483C26.1942 44.268 27.7906 39.7576 30.5572 35.9756C33.3237 32.1936 37.1388 29.3061 41.5301 27.6708C45.9214 26.0355 50.6958 25.7242 55.2623 26.7754C59.8287 27.8265 63.9865 30.1941 67.2208 33.5848C70.4551 36.9755 72.6238 41.2404 73.4583 45.8513C74.2928 50.4623 73.7565 55.2168 71.9158 59.5259C70.075 63.8351 67.0108 67.5097 63.1024 70.0947C59.194 72.6797 54.6133 74.0615 49.9274 74.069Z" fill="#EDB469"/>
<path d="M91.5958 50.6475V50.1073C91.5958 49.8225 91.5958 49.5377 91.5958 49.2628C91.5404 43.7889 90.4073 38.3795 88.2613 33.3436C86.1153 28.3076 82.9984 23.7436 79.0886 19.9122C75.1788 16.0808 70.5526 13.057 65.4741 11.0135C60.3957 8.96993 54.9645 7.94668 49.4906 8.00214C38.4356 8.11413 27.8779 12.6131 20.1401 20.5094C12.4022 28.4056 8.11802 39.0523 8.23001 50.1073V50.6671C8.22346 50.798 8.22346 50.9291 8.23001 51.0599C8.23001 51.3742 8.23001 51.6982 8.23001 52.042C8.23001 52.3857 8.23001 52.6606 8.28893 53.024C8.34786 53.3874 8.28893 53.6427 8.35768 53.9471C10.4998 55.5306 13.1671 56.2334 15.8114 55.9112C15.9669 56.1869 16.0481 56.4982 16.0471 56.8147V66.8021C16.0471 67.5183 16.3316 68.2053 16.8381 68.7117C17.3446 69.2182 18.0315 69.5027 18.7477 69.5027C19.464 69.5027 20.1509 69.2182 20.6573 68.7117C21.1638 68.2053 21.4483 67.5183 21.4483 66.8021V65.2996H21.5073V62.1276C21.602 61.6887 21.8441 61.2956 22.1935 61.0136C22.5428 60.7316 22.9782 60.5778 23.4272 60.5778C23.8761 60.5778 24.3115 60.7316 24.6608 61.0136C25.0102 61.2956 25.2524 61.6887 25.3471 62.1276V68.3537C25.3496 69.0588 25.6309 69.7342 26.1294 70.2327C26.6279 70.7313 27.3034 71.0125 28.0084 71.0151C28.7151 71.0151 29.3931 70.735 29.8937 70.2362C30.3944 69.7374 30.677 69.0605 30.6796 68.3537V49.0565C31.1706 48.7226 31.6616 48.3887 32.1723 48.0745C32.1723 47.7995 32.241 47.5245 32.2803 47.2594C32.3785 46.7094 32.4865 46.1693 32.624 45.6488C32.6928 45.3739 32.7713 45.1185 32.8597 44.8632C32.9481 44.6079 33.0267 44.3427 33.115 44.0874C33.1964 43.8304 33.2915 43.578 33.3998 43.3312C33.49 43.0861 33.595 42.8467 33.7141 42.6143C33.7828 42.4572 33.8516 42.3099 33.9301 42.1528C34.0087 41.9956 34.0676 41.9072 34.1265 41.7894L34.4015 41.2984L34.4801 41.1511C34.5881 40.9841 34.6863 40.827 34.7845 40.6699L34.922 40.4538L35.3345 39.8646C35.4621 39.6682 35.6094 39.4718 35.7469 39.295L35.9139 39.0986L36.3067 38.6076C37.3551 37.3785 38.5602 36.2923 39.8911 35.3766H39.9501C40.3756 35.0886 40.8143 34.8234 41.266 34.5812C41.5017 34.4437 41.7276 34.3259 41.9731 34.1982L42.6998 33.8643C42.8969 33.7659 43.1003 33.6806 43.3087 33.609C43.6475 33.4602 43.9952 33.3323 44.3496 33.226C44.5009 33.1691 44.6549 33.1199 44.8112 33.0787L45.2629 32.951L45.5772 32.8724L46.0191 32.7742C46.1839 32.7311 46.3511 32.6983 46.52 32.676C46.7556 32.6171 46.9815 32.5778 47.2172 32.5484L48.0814 32.4305H48.651C49.0635 32.4305 49.4759 32.4305 49.8884 32.4305H50.8017C51.1552 32.4305 51.5284 32.4305 51.8819 32.5287L52.5792 32.6171H52.6479L53.3255 32.7448C53.4416 32.7638 53.5564 32.79 53.6692 32.8233L54.229 32.9412L54.4647 33.0001L54.9164 33.1278C55.103 33.1278 55.2798 33.2358 55.4762 33.2947C55.9867 33.4581 56.4882 33.6483 56.9787 33.8643C57.4501 34.0705 57.9608 34.2964 58.3732 34.5419C58.8348 34.7972 59.2767 35.0526 59.699 35.3374C60.7659 36.0557 61.7535 36.8852 62.6451 37.8121C65.218 40.4508 66.9154 43.8181 67.5063 47.4558C69.4756 47.8477 71.398 48.4468 73.2414 49.2431V57.9637C73.2388 58.2645 73.2958 58.5629 73.4092 58.8416C73.5225 59.1203 73.6899 59.3738 73.9017 59.5874C74.1136 59.8011 74.3656 59.9707 74.6433 60.0864C74.921 60.2021 75.2189 60.2617 75.5198 60.2617C75.826 60.2696 76.1307 60.2159 76.4158 60.1038C76.7009 59.9917 76.9606 59.8236 77.1795 59.6093C77.3984 59.3949 77.572 59.1389 77.6901 58.8562C77.8081 58.5735 77.8683 58.27 77.8668 57.9637V54.8506C77.8989 54.3635 78.0873 53.8997 78.404 53.5281C78.7207 53.1566 79.1488 52.8972 79.6247 52.7883C79.7854 52.7489 79.9503 52.7291 80.1157 52.7294H80.1747C80.6015 52.7306 81.0191 52.8543 81.3777 53.0858C81.7363 53.3173 82.0209 53.647 82.1977 54.0355C82.3588 54.3382 82.4463 54.6747 82.453 55.0176V57.8066V65.1032C82.4504 65.4027 82.5072 65.6998 82.62 65.9773C82.7328 66.2548 82.8995 66.5072 83.1104 66.72C83.3214 66.9327 83.5723 67.1016 83.8488 67.2168C84.1254 67.332 84.422 67.3913 84.7215 67.3913H84.7804C85.3856 67.3887 85.9651 67.1465 86.3921 66.7177C86.8191 66.2888 87.0588 65.7083 87.0588 65.1032V63.2078H87.1177V60.4188C87.1177 59.8145 87.3577 59.235 87.785 58.8078C88.2123 58.3805 88.7918 58.1405 89.396 58.1405C89.8716 58.1369 90.336 58.2848 90.7218 58.5627C91.1134 56.6185 91.3726 54.6498 91.4976 52.6705C91.5049 52.5462 91.5049 52.4216 91.4976 52.2973C91.4976 51.9339 91.4976 51.5902 91.4976 51.217V50.6475H91.5958Z" fill="#F47CC3"/>
<path d="M91.5958 50.6475V50.1073C91.5958 49.8225 91.5958 49.5377 91.5958 49.2628C91.5404 43.7889 90.4073 38.3795 88.2613 33.3436C86.1153 28.3076 82.9984 23.7436 79.0886 19.9122C75.1788 16.0808 70.5526 13.057 65.4741 11.0135C60.3957 8.96993 54.9645 7.94668 49.4906 8.00214C38.4356 8.11413 27.8779 12.6131 20.1401 20.5094C12.4022 28.4056 8.11802 39.0523 8.23001 50.1073V50.6671C8.22346 50.798 8.22346 50.9291 8.23001 51.0599C8.23001 51.2858 8.23001 51.5117 8.23001 51.7277C8.65596 40.9268 13.2615 30.7139 21.0747 23.2443C28.8879 15.7747 39.2974 11.6328 50.1066 11.6927C60.9157 11.7526 71.2787 16.0096 79.0086 23.5653C86.7386 31.121 91.2307 41.3843 91.5369 52.1893C91.5369 51.8652 91.5369 51.5411 91.5369 51.2072V50.6376L91.5958 50.6475Z" fill="#FF99D6"/>
<path d="M28.0667 68.7068C27.7151 68.7094 27.3665 68.6426 27.0408 68.5101C26.7151 68.3776 26.4187 68.1822 26.1687 67.9349C25.9187 67.6877 25.72 67.3935 25.5839 67.0692C25.4479 66.745 25.3772 66.3971 25.3759 66.0455V59.8193C25.2812 59.3805 25.039 58.9873 24.6897 58.7053C24.3404 58.4233 23.905 58.2695 23.456 58.2695C23.0071 58.2695 22.5717 58.4233 22.2223 58.7053C21.873 58.9873 21.6308 59.3805 21.5361 59.8193V62.1271C21.6308 61.6883 21.873 61.2951 22.2223 61.0131C22.5717 60.7311 23.0071 60.5773 23.456 60.5773C23.905 60.5773 24.3404 60.7311 24.6897 61.0131C25.039 61.2951 25.2812 61.6883 25.3759 62.1271V68.3533C25.3785 69.0583 25.6597 69.7338 26.1583 70.2323C26.6568 70.7308 27.3322 71.0121 28.0373 71.0146C28.744 71.0146 29.4219 70.7346 29.9226 70.2358C30.4233 69.7369 30.7058 69.06 30.7084 68.3533V66.0455C30.7059 66.7472 30.4274 67.4196 29.9331 67.9176C29.4388 68.4156 28.7684 68.6991 28.0667 68.7068Z" fill="#D45C9E"/>
<path d="M21.448 64.5137C21.4066 65.1979 21.1056 65.8406 20.6064 66.3105C20.1073 66.7803 19.4476 67.042 18.7621 67.042C18.0766 67.042 17.4169 66.7803 16.9177 66.3105C16.4186 65.8406 16.1176 65.1979 16.0762 64.5137V54.4182C16.0763 54.1018 15.9952 53.7907 15.8405 53.5147C13.1963 53.8359 10.5294 53.1332 8.38676 51.5507C8.38676 51.2462 8.38676 50.932 8.31802 50.6275C8.24928 50.3231 8.31802 50.0088 8.2591 49.6455C8.20018 49.2821 8.2591 49.233 8.2591 49.0366C8.2591 49.3803 8.2591 49.7142 8.2591 50.0187V50.5784C8.25255 50.7093 8.25255 50.8404 8.2591 50.9713C8.2591 51.2855 8.2591 51.6096 8.2591 51.9533C8.2591 52.297 8.2591 52.572 8.31802 52.9353C8.37694 53.2987 8.31802 53.554 8.38676 53.8585C10.5289 55.4419 13.1962 56.1447 15.8405 55.8226C15.996 56.0982 16.0772 56.4095 16.0762 56.726V66.8018C16.1176 67.4861 16.4186 68.1288 16.9177 68.5986C17.4169 69.0685 18.0766 69.3301 18.7621 69.3301C19.4476 69.3301 20.1073 69.0685 20.6064 68.5986C21.1056 68.1288 21.4066 67.4861 21.448 66.8018V65.2993H21.5069V63.0013H21.448V64.5137Z" fill="#D45C9E"/>
<path d="M75.5787 57.9632C75.2787 57.9632 74.9816 57.9039 74.7046 57.7888C74.4275 57.6737 74.1759 57.505 73.9642 57.2924C73.7525 57.0798 73.5849 56.8275 73.471 56.5499C73.3571 56.2724 73.2991 55.975 73.3004 55.675V57.9632C73.2978 58.264 73.3548 58.5624 73.4681 58.8411C73.5815 59.1198 73.7489 59.3733 73.9607 59.5869C74.1725 59.8006 74.4246 59.9702 74.7023 60.0859C74.98 60.2016 75.2779 60.2612 75.5787 60.2612C75.88 60.2612 76.1784 60.2017 76.4566 60.0861C76.7349 59.9705 76.9876 59.801 77.2002 59.5875C77.4128 59.374 77.5811 59.1206 77.6955 58.8418C77.81 58.5631 77.8682 58.2645 77.8669 57.9632V55.6357C77.8721 55.9395 77.8168 56.2413 77.7041 56.5235C77.5915 56.8056 77.4237 57.0625 77.2107 57.2792C76.9977 57.4958 76.7437 57.6679 76.4635 57.7853C76.1833 57.9028 75.8825 57.9632 75.5787 57.9632Z" fill="#D45C9E"/>
<path d="M32.25 45.7568C32.25 45.7568 31.268 46.4148 30.7573 46.7388V49.0368C31.2483 48.7029 31.7394 48.369 32.25 48.0548C32.25 47.7798 32.3188 47.5048 32.3581 47.2397C32.4563 46.6897 32.5643 46.1496 32.7018 45.6291V45.5015L32.25 45.7568Z" fill="#D45C9E"/>
<path d="M67.0244 45.1968C67.0244 45.1968 67.4271 46.9252 67.5056 47.4948C69.475 47.8867 71.3974 48.4858 73.2408 49.2821V46.9448C71.2286 46.167 69.1471 45.5817 67.0244 45.1968Z" fill="#D45C9E"/>
<path d="M87.0492 62.8055C87.0492 63.4098 86.8092 63.9893 86.3819 64.4165C85.9547 64.8438 85.3751 65.0838 84.7709 65.0838H84.712C84.4132 65.0839 84.1174 65.0249 83.8416 64.9102C83.5657 64.7956 83.3152 64.6276 83.1044 64.4159C82.8936 64.2043 82.7267 63.953 82.6133 63.6766C82.4999 63.4003 82.4422 63.1042 82.4434 62.8055V65.1035C82.4409 65.403 82.4976 65.7001 82.6105 65.9776C82.7233 66.2551 82.89 66.5076 83.1009 66.7203C83.3118 66.933 83.5628 67.1019 83.8393 67.2171C84.1158 67.3323 84.4124 67.3917 84.712 67.3917H84.7709C85.3761 67.3891 85.9555 67.1468 86.3825 66.718C86.8095 66.2892 87.0492 65.7087 87.0492 65.1035V63.2081H87.1082V60.9102H87.0492V62.8055Z" fill="#D45C9E"/>
<path d="M91.5957 50.1072C91.5957 49.8911 91.5957 49.6751 91.5957 49.4492C91.5957 49.626 91.5957 49.8028 91.5957 49.9795C91.603 50.1038 91.603 50.2284 91.5957 50.3527C91.4716 52.3322 91.2124 54.3008 90.8199 56.245C90.432 55.9712 89.969 55.8237 89.4942 55.8227C88.8899 55.8227 88.3104 56.0627 87.8831 56.49C87.4559 56.9173 87.2158 57.4968 87.2158 58.101V60.4187C87.2158 59.8144 87.4559 59.2349 87.8831 58.8076C88.3104 58.3804 88.8899 58.1403 89.4942 58.1403C89.9697 58.1367 90.4341 58.2846 90.8199 58.5626C91.2115 56.6183 91.4707 54.6497 91.5957 52.6703C91.603 52.546 91.603 52.4214 91.5957 52.2971C91.5957 51.9338 91.5957 51.5901 91.5957 51.2169V50.1072Z" fill="#D45C9E"/>
<path d="M82.4519 52.7099C82.4463 52.3668 82.3588 52.0301 82.1965 51.7278C82.0141 51.3466 81.7271 51.0251 81.3689 50.8008C81.0107 50.5765 80.5961 50.4587 80.1735 50.461H80.1146C79.9491 50.4599 79.7841 50.4797 79.6236 50.5199C79.1469 50.6273 78.718 50.8863 78.401 51.2582C78.0841 51.63 77.8963 52.0946 77.8657 52.5822V54.8802C77.8978 54.3931 78.0862 53.9293 78.4029 53.5577C78.7196 53.1862 79.1477 52.9267 79.6236 52.8179C79.7843 52.7784 79.9492 52.7587 80.1146 52.759H80.1735C80.5972 52.7575 81.0125 52.8769 81.3708 53.103C81.7291 53.3291 82.0155 53.6526 82.1965 54.0356C82.3577 54.3383 82.4452 54.6748 82.4519 55.0177V52.7099Z" fill="#D45C9E"/>
<path d="M63.6762 30.0837C63.5533 30.3334 63.3372 30.5248 63.0745 30.6167C62.8118 30.7086 62.5235 30.6935 62.2718 30.5747L56.8018 27.9723C56.5505 27.8512 56.3576 27.6352 56.2655 27.3718C56.1734 27.1085 56.1897 26.8193 56.3108 26.568C56.4319 26.3166 56.6479 26.1237 56.9113 26.0316C57.1747 25.9395 57.4638 25.9558 57.7152 26.0769L63.1164 28.6892C63.2457 28.7427 63.3631 28.8216 63.4615 28.9211C63.56 29.0206 63.6376 29.1387 63.6897 29.2687C63.7418 29.3986 63.7675 29.5376 63.7652 29.6775C63.7629 29.8175 63.7326 29.9556 63.6762 30.0837Z" fill="#FFCE54"/>
<path d="M44.1334 19.6638C44.2548 19.9133 44.2745 20.2003 44.1884 20.4641C44.1023 20.7279 43.9171 20.948 43.6719 21.0779L38.3197 23.8276C38.0723 23.9579 37.7832 23.9845 37.5162 23.9016C37.2492 23.8187 37.026 23.6332 36.8957 23.3857C36.7655 23.1383 36.7389 22.8493 36.8218 22.5822C36.9047 22.3152 37.0902 22.092 37.3377 21.9618L42.6898 19.212C42.814 19.1457 42.9502 19.1047 43.0903 19.0916C43.2305 19.0784 43.3719 19.0933 43.5063 19.1353C43.6407 19.1774 43.7653 19.2457 43.873 19.3365C43.9807 19.4272 44.0692 19.5385 44.1334 19.6638Z" fill="#27AAE1"/>
<path d="M28.4987 36.2707C28.2928 36.4579 28.021 36.5558 27.743 36.5429C27.465 36.5301 27.2034 36.4074 27.0158 36.2019L22.9697 31.7631C22.8755 31.6609 22.8025 31.5411 22.7549 31.4105C22.7073 31.2799 22.6861 31.1412 22.6925 31.0024C22.6989 30.8635 22.7328 30.7274 22.7922 30.6017C22.8516 30.4761 22.9353 30.3634 23.0385 30.2704C23.246 30.0825 23.5194 29.9843 23.799 29.9972C24.0786 30.0101 24.3418 30.133 24.5312 30.3391L28.5674 34.7878C28.6613 34.8891 28.7341 35.0081 28.7816 35.1379C28.8291 35.2677 28.8502 35.4056 28.8438 35.5436C28.8374 35.6816 28.8036 35.817 28.7443 35.9418C28.6851 36.0667 28.6016 36.1784 28.4987 36.2707Z" fill="#FFCE54"/>
<path d="M27.949 23.4058C28.0111 23.5288 28.0482 23.6629 28.0582 23.8003C28.0681 23.9378 28.0506 24.0758 28.0067 24.2064C27.9629 24.3371 27.8935 24.4577 27.8027 24.5613C27.7119 24.665 27.6014 24.7495 27.4776 24.8101L22.0469 27.4125C21.923 27.5051 21.7802 27.5692 21.6286 27.6002C21.4771 27.6312 21.3205 27.6284 21.1702 27.5919C21.0199 27.5554 20.8794 27.4862 20.7589 27.3892C20.6385 27.2922 20.5409 27.1697 20.4732 27.0307C20.4055 26.8916 20.3693 26.7392 20.3673 26.5846C20.3652 26.4299 20.3974 26.2767 20.4614 26.1358C20.5254 25.995 20.6198 25.8701 20.7377 25.7699C20.8556 25.6698 20.9941 25.5969 21.1434 25.5565L26.5643 22.954C26.8079 22.8307 27.0905 22.8089 27.3501 22.8936C27.6097 22.9783 27.825 23.1625 27.949 23.4058Z" fill="#EF4136"/>
<path d="M20.2406 44.4405C20.2406 44.7192 20.1299 44.9864 19.9328 45.1835C19.7358 45.3806 19.4685 45.4913 19.1898 45.4913H13.1699C12.8946 45.4861 12.6323 45.3732 12.4395 45.1766C12.2467 44.9801 12.1387 44.7158 12.1387 44.4405C12.1374 44.3038 12.1631 44.1682 12.2142 44.0414C12.2653 43.9146 12.3409 43.7991 12.4367 43.7015C12.5324 43.6039 12.6464 43.5262 12.7722 43.4727C12.8981 43.4192 13.0332 43.391 13.1699 43.3897H19.1898C19.3282 43.3884 19.4654 43.4147 19.5935 43.467C19.7215 43.5194 19.8379 43.5967 19.9357 43.6945C20.0336 43.7924 20.1109 43.9087 20.1633 44.0368C20.2156 44.1649 20.2419 44.3021 20.2406 44.4405Z" fill="#EF4136"/>
<path d="M74.2814 28.0309C74.4072 28.096 74.5186 28.1855 74.6092 28.2943C74.6998 28.4032 74.7677 28.529 74.8089 28.6645C74.8501 28.7999 74.8637 28.9422 74.849 29.0831C74.8343 29.2239 74.7916 29.3603 74.7233 29.4844L71.9245 34.7678C71.8634 34.8955 71.7771 35.0095 71.6709 35.1031C71.5646 35.1966 71.4405 35.2677 71.3061 35.3121C71.1717 35.3565 71.0296 35.3733 70.8886 35.3614C70.7475 35.3496 70.6103 35.3093 70.4851 35.2431C70.36 35.1769 70.2495 35.0861 70.1604 34.9761C70.0712 34.8662 70.0052 34.7393 69.9663 34.6032C69.9273 34.4671 69.9163 34.3245 69.9339 34.184C69.9514 34.0436 69.9972 33.9081 70.0684 33.7857L72.8574 28.5023C72.92 28.3779 73.0064 28.2669 73.1118 28.1759C73.2172 28.0849 73.3396 28.0155 73.4718 27.9717C73.604 27.9279 73.7436 27.9106 73.8825 27.9208C74.0214 27.931 74.157 27.9684 74.2814 28.0309Z" fill="#EF4136"/>
<path d="M69.1073 17.091C69.1086 17.2294 69.0823 17.3666 69.03 17.4947C68.9776 17.6228 68.9003 17.7391 68.8025 17.837C68.7046 17.9348 68.5883 18.0121 68.4602 18.0645C68.3321 18.1168 68.1949 18.1431 68.0565 18.1418H62.0464C61.7677 18.1418 61.5004 18.0311 61.3034 17.834C61.1063 17.637 60.9956 17.3697 60.9956 17.091C60.9956 16.8123 61.1063 16.5451 61.3034 16.348C61.5004 16.1509 61.7677 16.0402 62.0464 16.0402H68.0467C68.1859 16.0376 68.3242 16.0629 68.4534 16.1147C68.5826 16.1664 68.7001 16.2435 68.799 16.3415C68.8979 16.4395 68.9761 16.5563 69.0291 16.685C69.082 16.8138 69.1086 16.9518 69.1073 17.091Z" fill="#27AAE1"/>
</svg>
