<svg width="100" height="100" viewBox="0 0 100 100" fill="none" xmlns="http://www.w3.org/2000/svg">
<path d="M70.833 68.7511H62.4997C56.7705 68.7511 52.083 64.0636 52.083 58.3345V43.7511C52.083 38.022 56.7705 33.3345 62.4997 33.3345H70.833C76.5622 33.3345 81.2497 38.022 81.2497 43.7511V58.3345C81.2497 64.0636 76.5622 68.7511 70.833 68.7511Z" stroke="#1976D2" stroke-width="22" stroke-miterlimit="10"/>
<path d="M14.583 25H68.7497V81.25C68.7497 84.7021 65.9518 87.5 62.4997 87.5H24.9997C21.5476 87.5 18.7497 84.7021 18.7497 81.25V35.4167L14.583 25Z" fill="#90CAF9"/>
<path d="M45.8337 25H41.667V62.5H45.8337V25Z" fill="#42A5F5"/>
<path d="M64.5837 62.5011H22.917C22.917 60.1991 24.7816 58.3345 27.0837 58.3345H60.417C62.7191 58.3345 64.5837 60.1991 64.5837 62.5011Z" fill="#42A5F5"/>
<path d="M52.0837 8.33447H35.417V12.5011H52.0837V8.33447Z" fill="#3F51B5"/>
<path d="M45.8337 12.5H41.667V25H45.8337V12.5Z" fill="#3F51B5"/>
<path d="M68.75 24.9989H18.75C18.75 24.9989 18.8812 16.6655 27.0833 16.6655H60.4167C68.6208 16.6655 68.75 24.9989 68.75 24.9989Z" fill="#1976D2"/>
<path d="M64.5837 22.9155H22.917V20.8322C22.917 18.5301 24.7816 16.6655 27.0837 16.6655H60.417C62.7191 16.6655 64.5837 18.5301 64.5837 20.8322V22.9155Z" fill="#1976D2"/>
<path d="M22.917 62.5V81.25C22.917 82.3979 23.8524 83.3333 25.0003 83.3333H62.5003C63.6482 83.3333 64.5837 82.3979 64.5837 81.25V62.5H22.917Z" fill="#E64A19"/>
<path d="M31.2503 77.0822C32.4009 77.0822 33.3337 76.1495 33.3337 74.9989C33.3337 73.8483 32.4009 72.9155 31.2503 72.9155C30.0997 72.9155 29.167 73.8483 29.167 74.9989C29.167 76.1495 30.0997 77.0822 31.2503 77.0822Z" fill="#BF360C"/>
<path d="M35.4163 70.8322C36.5669 70.8322 37.4997 69.8995 37.4997 68.7489C37.4997 67.5983 36.5669 66.6655 35.4163 66.6655C34.2657 66.6655 33.333 67.5983 33.333 68.7489C33.333 69.8995 34.2657 70.8322 35.4163 70.8322Z" fill="#BF360C"/>
<path d="M43.7503 79.1667C44.9009 79.1667 45.8337 78.2339 45.8337 77.0833C45.8337 75.9327 44.9009 75 43.7503 75C42.5997 75 41.667 75.9327 41.667 77.0833C41.667 78.2339 42.5997 79.1667 43.7503 79.1667Z" fill="#BF360C"/>
</svg>
