<svg width="100" height="100" viewBox="0 0 100 100" fill="none" xmlns="http://www.w3.org/2000/svg">
<path d="M8.33301 91.6678C8.33301 91.6678 9.16634 89.7928 10.833 86.8761C11.6663 85.4178 12.4997 83.7511 13.7497 81.6678C14.3747 80.6261 14.9997 79.5845 15.6247 78.5428C16.0413 77.9178 16.458 77.5011 16.8747 77.0845C17.2913 76.6678 17.9163 76.2511 18.333 75.6261C26.2497 67.7095 36.458 57.2928 46.8747 46.8761C57.2913 36.4595 67.708 26.0428 75.4164 18.1261C75.833 17.7095 76.458 17.0845 76.8747 16.6678C77.2914 16.0428 77.708 15.6261 78.333 15.4178C79.3747 14.7928 80.4163 14.1678 81.458 13.5428C83.5413 12.2928 85.208 11.4595 86.6663 10.6261C89.9997 9.16781 91.6664 8.33447 91.6664 8.33447C91.6664 8.33447 90.833 10.0011 89.1663 13.1261C88.333 14.5845 87.4997 16.2511 86.2497 18.3345C85.6247 19.3761 84.9997 20.4178 84.3747 21.4595C84.1663 22.0845 83.5414 22.5011 83.1247 22.9178C82.708 23.3345 82.083 23.7511 81.6664 24.3761C73.7497 32.2928 63.5413 42.7095 53.1247 53.1261C42.708 63.5428 32.2913 73.9595 24.583 81.8761C24.1663 82.2928 23.5413 82.9178 23.1247 83.3345C22.708 83.9595 22.2913 84.3761 21.6663 84.5845C20.6247 85.2095 19.583 85.8345 18.5413 86.4595C16.6663 87.7095 14.7913 88.5428 13.333 89.3762C10.208 90.8345 8.33301 91.6678 8.33301 91.6678Z" fill="#8D6E63"/>
<path d="M14.583 54.1678L24.9997 39.5845L56.2497 70.8345L39.583 89.5845L14.583 54.1678Z" fill="#FFD54F"/>
<path d="M25 53.125C25 51.4583 26.4583 50 28.125 50C29.7917 50 31.25 51.4583 31.25 53.125C31.25 54.7917 29.7917 56.25 28.125 56.25C26.4583 56.25 25 54.7917 25 53.125ZM29.1667 64.5833C30.4167 64.5833 31.25 63.75 31.25 62.5C31.25 61.25 30.4167 60.4167 29.1667 60.4167C27.9167 60.4167 27.0833 61.25 27.0833 62.5C27.0833 63.75 27.9167 64.5833 29.1667 64.5833Z" fill="#FFB300"/>
<path d="M76.179 55.3468C83.7454 47.7804 82.822 34.5896 74.1167 25.8843C65.4113 17.1789 52.2205 16.2556 44.6542 23.8219C37.0878 31.3882 38.0112 44.5791 46.7165 53.2844C55.4219 61.9898 68.6127 62.9131 76.179 55.3468Z" fill="#9E9D24"/>
<path d="M53.9878 33.1546C56.3472 30.7952 56.9408 27.5635 55.3136 25.9363C53.6864 24.3091 50.4547 24.9027 48.0953 27.2621C45.7359 29.6215 45.1423 32.8533 46.7695 34.4804C48.3967 36.1076 51.6284 35.514 53.9878 33.1546Z" fill="#C0CA33"/>
</svg>
