<svg width="100" height="100" viewBox="0 0 100 100" fill="none" xmlns="http://www.w3.org/2000/svg">
<path d="M45.8337 91.6666C41.8754 91.6666 38.3337 89.5833 36.4587 87.0833C32.292 87.7083 27.0837 86.6666 24.792 83.3333C21.042 78.3333 22.292 72.9166 23.1254 70.6249C23.1254 70.4166 23.3337 70.2083 23.3337 70.2083L29.167 61.4583C29.5837 60.6249 30.6254 60.4166 31.4587 60.6249L57.0837 70.6249C58.1254 70.8333 58.542 71.8749 58.542 72.9166L56.042 86.4583C56.042 86.8749 55.8337 87.0833 55.6254 87.2916C55.417 87.4999 52.7087 91.0416 47.0837 91.4583C46.667 91.6666 46.2504 91.6666 45.8337 91.6666Z" fill="#558B2F"/>
<path d="M51.0417 85.4167C50 84.1667 49.1667 82.7083 48.75 81.25C48.5417 80.8333 48.5417 80.4167 48.3333 80C48.125 79.5833 47.9167 78.5417 47.5 76.875C46.0417 76.6667 44.5833 76.25 43.125 75.625C42.7083 75.4167 42.5 75.4167 42.0833 75.2083C41.6667 75 41.25 74.7917 40.8333 74.5833C40.4167 74.375 40.2083 74.375 39.7917 74.1667C38.3333 73.5417 37.0833 72.7083 35.8333 71.875C34.5833 72.7083 33.125 73.3333 31.6667 73.5417C31.6667 73.5417 31.4583 73.5417 31.25 73.5417C30.625 73.75 29.1667 73.9583 27.5 73.9583C26.0417 73.9583 24.1667 73.75 22.5 73.125C26.25 77.7083 30.625 77.9167 32.5 77.5C33.5417 77.2917 34.5833 77.0833 35.625 76.4583C38.125 78.125 41.0417 79.375 44.1667 80.2083C44.375 80.625 44.375 80.8333 44.375 81.25C45.625 85.2083 50 88.75 54.5833 88.3333C53.125 87.7083 52.0833 86.6667 51.0417 85.4167Z" fill="#33691E"/>
<path d="M27.4999 73.7504C24.1666 73.7504 19.3749 72.9171 16.2499 68.5421C14.1666 65.4171 13.7499 59.7921 15.6249 56.0421C12.0833 52.9171 8.74992 46.2504 11.0416 39.3754C13.1249 32.9171 18.9583 30.0004 22.9166 28.9588C22.9166 25.8338 23.7499 22.0838 26.8749 18.9588C32.2916 13.3338 39.3749 14.7921 39.7916 14.7921C40.8333 15.0004 41.4583 16.0421 41.2499 17.0838L42.0833 66.0421C41.8749 66.8754 36.6666 72.7088 31.6666 73.5421C31.6666 73.3338 29.7916 73.7504 27.4999 73.7504Z" fill="#7CB342"/>
<path d="M86.6663 58.3337C83.5413 61.4587 79.1663 61.667 76.6663 61.2503C78.333 57.7087 79.1663 53.9587 79.1663 50.0003C79.1663 35.0003 67.083 22.917 52.083 22.917C46.0413 22.917 40.6247 24.792 36.2497 28.1253C35.208 26.8753 34.583 24.792 34.3747 23.3337V23.1253C34.3747 22.917 34.3747 22.5003 34.3747 22.292C34.3747 21.667 34.3747 21.042 34.583 20.417V20.2087C34.7913 19.5837 34.7913 18.9587 34.9997 18.542C34.9997 18.542 34.9997 18.3337 35.208 18.3337C35.4163 17.7087 35.6247 17.292 36.0413 16.667C36.0413 16.667 36.0413 16.667 36.0413 16.4587C36.458 15.8337 36.8747 15.417 37.2913 14.792C34.9997 15.8337 30.6247 18.542 29.9997 22.5003C29.9997 24.5837 30.208 26.2503 30.6247 27.5003C24.583 32.917 20.833 41.042 20.833 50.0003C20.833 59.3753 24.9997 67.7087 31.458 73.3337C31.6663 73.3337 31.8747 73.3337 31.8747 73.3337C33.333 73.1253 34.583 72.5003 36.0413 71.667C39.3747 74.167 43.333 75.8337 47.708 76.667C48.1247 78.3337 48.5413 79.5837 48.5413 79.792C49.7913 84.3753 52.9163 87.917 56.8747 89.167C57.9163 89.3753 59.1663 89.5837 60.4163 89.5837C62.708 89.5837 65.4163 88.9587 67.2913 87.7087C70.208 88.7503 75.208 88.9587 78.7497 86.8753C82.2913 84.792 84.3747 79.5837 83.7497 75.6253C86.8747 73.9587 88.7497 71.4587 89.583 68.3337C90.208 65.0003 89.1663 60.8337 86.6663 58.3337Z" fill="#689F38"/>
<path d="M76.667 61.2503C73.3337 68.542 66.667 74.167 58.7503 76.2503H58.542C57.5003 76.4587 56.667 76.667 55.6253 76.8753H55.417C54.167 77.0837 53.1253 77.0837 52.0837 77.0837C51.2503 77.0837 50.417 77.0837 49.5837 76.8753C49.167 76.8753 48.542 76.667 48.1253 76.667C47.917 76.667 47.7087 76.667 47.292 76.667C47.7087 78.3337 48.1253 79.5837 48.1253 79.792C48.3337 80.2087 48.3337 80.6253 48.542 81.042C49.792 81.2503 50.8337 81.2503 52.0837 81.2503C63.542 81.2503 73.542 75.0003 78.9587 65.8337C81.8753 65.6253 85.6253 62.917 86.667 58.542C86.2503 58.9587 85.8337 59.167 85.417 59.5837C82.5003 61.4587 78.9587 61.4587 76.667 61.2503Z" fill="#558B2F"/>
<path d="M72.917 58.3337C70.8337 57.5003 65.6253 58.542 63.3337 63.3337C60.0003 60.417 54.792 62.292 52.7087 65.2087C51.8753 62.5003 49.5837 53.542 39.5837 56.042L25.417 54.792C27.7087 67.5003 38.7503 77.0837 52.0837 77.0837C64.3753 77.0837 74.5837 68.9587 77.917 57.7087L72.917 58.3337Z" fill="#9CCC65"/>
<path d="M43.9587 55.8333C43.542 57.7083 42.917 59.375 41.667 60.4167C39.5837 62.0833 36.4587 62.7083 35.8337 62.5C34.792 63.75 33.3337 64.7917 31.8753 65.2083C31.2503 65.4167 30.6253 65.4167 29.792 65.4167C28.7503 63.9583 27.917 62.5 27.292 60.8333C28.1253 61.0417 28.9587 61.25 29.792 61.25C30.2087 61.25 30.417 61.25 30.6253 61.0417C32.0837 60.625 33.3337 58.9583 33.9587 57.2917C35.0003 57.9167 36.2503 58.5417 37.917 58.5417C38.7503 58.5417 39.5837 58.3333 40.6253 57.9167C41.4587 57.5 42.292 56.6667 42.917 55.625C43.1253 55.8333 43.542 55.8333 43.9587 55.8333ZM70.8337 58.125C70.2087 58.125 69.5837 58.3333 68.9587 58.5417C69.792 61.4583 72.0837 64.1667 74.5837 65C75.417 63.75 76.042 62.5 76.667 61.25C74.3753 60.8333 72.292 59.7917 70.8337 58.125Z" fill="#7CB342"/>
<path d="M87.2917 43.3335C90.2083 38.3335 90.4167 31.8751 87.2917 27.7085C84.7917 24.1668 80.625 22.2918 76.0417 22.5001C76.25 17.0835 73.125 11.2501 63.9583 8.75014C60.4167 7.91681 55.2083 8.75014 51.6667 11.8751C47.7083 9.58347 41.25 10.8335 38.125 13.5418C35.4167 16.0418 33.9583 18.9585 34.1667 22.2918C34.1667 23.7501 34.7917 26.6668 36.0417 28.1251C29.375 32.9168 25 41.0418 25 50.0001C25 53.9585 25.8333 57.5001 27.2917 60.8335C28.3333 61.2501 29.7917 61.4585 30.8333 61.2501C32.2917 60.8335 33.5417 59.1668 34.1667 57.5001C35.625 58.3335 37.9167 59.3751 40.8333 58.1251C42.7083 57.2918 44.375 54.1668 43.9583 52.2918C48.5417 55.8335 57.7083 50.6251 54.375 41.8751L58.5417 31.4585L55.4167 23.3335C55 23.3335 54.5833 23.3335 54.1667 23.1251C68.125 24.1668 79.1667 35.8335 79.1667 50.2085C79.1667 54.1668 78.3333 58.1251 76.6667 61.4585C79.5833 61.6668 84.5833 61.6668 87.7083 57.2918C89.375 55.0001 89.7917 50.4168 88.9583 47.0835C88.5417 45.4168 88.125 44.1668 87.2917 43.3335Z" fill="#AED581"/>
<path d="M52.083 18.75C45.6247 18.75 39.583 20.8333 34.583 24.1667C34.7913 25.625 35.4163 27.0833 36.2497 28.125C37.708 27.0833 39.1663 26.25 40.833 25.4167C40.208 28.5417 40.6247 31.6667 42.083 34.375C43.5413 36.875 45.833 38.75 48.5413 39.7917C48.5413 40.8333 48.1247 43.9583 51.0413 46.6667C52.083 47.5 53.1247 48.125 54.3747 48.5417C54.583 47.9167 54.9997 47.0833 54.9997 46.25C54.7913 46.0417 54.3747 45.625 54.1663 45.4167C52.2913 42.9167 52.2913 39.375 53.5413 36.4583C53.333 36.4583 53.333 36.4583 53.1247 36.4583C46.8747 36.4583 42.083 30.2083 45.833 23.5417H45.6247C47.708 23.125 49.7913 22.7083 52.083 22.7083C67.083 22.7083 79.1663 34.7917 79.1663 49.7917C79.1663 53.75 78.333 57.7083 76.6663 61.0417C77.9163 61.25 79.583 61.25 81.2497 60.8333C82.4997 57.2917 83.333 53.5417 83.333 49.5833C83.333 32.7083 69.1663 18.75 52.083 18.75Z" fill="#8BC34A"/>
<path d="M79.1671 50.0003C79.1671 35.0003 67.0838 22.917 52.0838 22.917C50.0005 22.917 47.9172 23.1253 45.8338 23.7503C42.0838 30.417 47.0838 36.8753 53.5422 36.667C52.2922 39.5837 52.2922 43.1253 54.1672 45.6253C56.0422 48.1253 59.5838 48.3337 62.7088 48.1253C62.2922 49.792 62.5005 52.7087 63.7505 53.7503C65.0005 54.792 67.7088 54.792 68.9588 54.3753C70.0005 58.542 73.3338 60.8337 76.6671 61.4587C78.1255 57.917 79.1671 53.9587 79.1671 50.0003Z" fill="#DCEDC8"/>
<path d="M64.5837 26.042L65.6253 27.292L66.8753 28.9587C66.8753 28.9587 67.0837 29.167 67.292 29.5837C67.5003 29.792 67.5003 30.0003 67.7087 30.417C67.917 30.6253 67.917 30.8337 68.1253 31.2503C68.3337 31.4587 68.3337 31.8753 68.542 32.292C68.7503 32.7087 68.7503 33.1253 68.7503 33.542C68.7503 33.9587 68.7503 34.3753 68.7503 35.0003C68.7503 35.417 68.7503 36.042 68.542 36.4587C68.1253 38.542 67.0837 40.417 66.042 41.667C65.0003 42.917 64.167 43.7503 64.167 43.7503C64.167 43.7503 65.2087 43.1253 66.4587 42.0837C67.7087 41.042 69.3753 39.167 70.417 37.0837C70.6253 36.4587 70.8337 36.042 71.042 35.417C71.2503 34.792 71.2503 34.167 71.4587 33.542C71.4587 32.917 71.4587 32.292 71.4587 31.8753V31.667C69.5837 29.3753 67.292 27.5003 64.5837 26.042Z" fill="#AED581"/>
</svg>
