<svg width="100" height="100" viewBox="0 0 100 100" fill="none" xmlns="http://www.w3.org/2000/svg">
<path d="M64.5832 41.6667V31.25C64.5832 28.7396 61.2623 21.0729 56.2498 17.0771V12.5H43.7498V17.0771C38.7353 21.0729 35.4165 28.7396 35.4165 31.25V41.6667C35.4165 45.1167 39.5832 45.8333 39.5832 47.9167C39.5832 50 35.4165 50.7167 35.4165 54.1667V87.5C35.4165 90.95 38.2144 93.75 41.6665 93.75H49.9998H58.3332C61.7832 93.75 64.5832 90.95 64.5832 87.5V54.1667C64.5832 50.7167 60.4165 50 60.4165 47.9167C60.4165 45.8333 64.5832 45.1167 64.5832 41.6667Z" fill="#B2EBF2"/>
<path d="M56.25 8.33333C56.25 7.18125 55.3187 6.25 54.1667 6.25H45.8333C44.6833 6.25 43.75 7.18125 43.75 8.33333V16.6667H56.25V8.33333Z" fill="#3F51B5"/>
<path d="M64.5832 58.3377V54.1669C64.5832 50.7169 60.4165 50.0002 60.4165 47.9169C60.4165 45.8336 64.5832 45.1169 64.5832 41.6669V31.2502C64.5832 30.569 64.3311 29.5002 63.8748 28.2357C63.2915 28.594 62.6686 28.9107 61.9873 29.1669C61.0373 29.5252 60.0623 29.8794 59.1144 30.2169C57.4582 30.8044 55.8998 30.8607 54.1519 30.8607C51.7998 30.8607 49.6769 30.4065 47.4248 29.7898C44.904 29.0982 42.304 28.1294 39.6915 27.8961C38.5394 27.7919 37.304 27.9815 36.1103 28.2711C35.6623 29.5211 35.4165 30.5752 35.4165 31.2502V41.6669C35.4165 45.1169 39.5832 45.8336 39.5832 47.9169C39.5832 50.0002 35.4165 50.7169 35.4165 54.1669V87.5002C35.4165 90.9502 38.2144 93.7502 41.6665 93.7502H49.9998H58.3332C61.7832 93.7502 64.5832 90.9502 64.5832 87.5002V58.3377Z" fill="#4DD0E1"/>
<path d="M64.5838 76.6533C63.9442 77.0096 61.1442 78.2992 60.5567 78.52C59.6192 78.8742 58.6567 79.2242 57.7234 79.5554C56.3609 80.0387 55.0421 80.0783 53.4588 80.0783C51.2275 80.0783 49.1713 79.6012 47.2817 79.0804C46.6525 78.9096 46.0192 78.7179 45.3817 78.5262C43.3942 77.9304 41.34 77.3137 39.1838 77.12C38.0713 77.0262 36.84 77.1533 35.415 77.4575V81.8158C35.6275 81.7304 35.84 81.645 36.0463 81.5617C37.1692 81.2971 38.0734 81.1971 38.8088 81.27C40.5442 81.4242 42.3109 81.9554 44.1817 82.5179C44.8505 82.7179 45.5171 82.9158 46.1775 83.0992C48.3484 83.6929 50.7338 84.2429 53.4567 84.2429C55.3067 84.2429 57.1317 84.1846 59.1192 83.4804C60.0775 83.1367 61.0671 82.7783 62.0234 82.4179C62.3963 82.2783 63.5046 81.7867 64.5838 81.2867V76.6533Z" fill="#00BCD4"/>
<path d="M60.5567 70.1847C59.6192 70.5388 58.6567 70.8888 57.7234 71.2201C56.3609 71.7034 55.0421 71.743 53.4588 71.743C51.2275 71.743 49.1713 71.2659 47.2817 70.7451C46.6525 70.5743 46.0192 70.3826 45.3817 70.1909C43.3942 69.5951 41.34 68.9784 39.1838 68.7847C38.0713 68.6909 36.84 68.8201 35.415 69.1243V73.4805C35.6275 73.3951 35.84 73.3097 36.0463 73.2263C37.1692 72.9617 38.0734 72.8597 38.8088 72.9347C40.5442 73.0888 42.3109 73.6201 44.1817 74.1826C44.8505 74.3826 45.5171 74.5805 46.1775 74.7638C48.3484 75.3576 50.7338 75.9076 53.4567 75.9076C55.3067 75.9076 57.1317 75.8493 59.1192 75.1451C60.0775 74.8013 61.0671 74.443 62.0234 74.0826C62.3963 73.943 63.5046 73.4513 64.5838 72.9513V68.3159C63.9442 68.6763 61.1442 69.9659 60.5567 70.1847Z" fill="#00BCD4"/>
<path d="M60.5567 61.8502C59.6192 62.2044 58.6567 62.5544 57.7234 62.8856C56.3609 63.3689 55.0421 63.4085 53.4588 63.4085C51.2275 63.4085 49.1713 62.9314 47.2817 62.4106C46.6525 62.2398 46.0192 62.0481 45.3817 61.8564C43.3942 61.2606 41.34 60.6439 39.1838 60.4502C38.0713 60.3564 36.84 60.4835 35.415 60.7877V65.146C35.6275 65.0606 35.84 64.9752 36.0463 64.8919C37.1692 64.6273 38.0734 64.5252 38.8088 64.6002C40.5442 64.7544 42.3109 65.2856 44.1817 65.8481C44.8505 66.0481 45.5171 66.246 46.1775 66.4294C48.3484 67.0231 50.7338 67.5731 53.4567 67.5731C55.3067 67.5731 57.1317 67.5148 59.1192 66.8106C60.0775 66.4669 61.0671 66.1085 62.0234 65.7481C62.3963 65.6085 63.5046 65.1169 64.5838 64.6169V59.9814C63.9442 60.3419 61.1442 61.6314 60.5567 61.8502Z" fill="#00BCD4"/>
</svg>
