<svg width="100" height="100" viewBox="0 0 100 100" fill="none" xmlns="http://www.w3.org/2000/svg">
<path opacity="0.997" fill-rule="evenodd" clip-rule="evenodd" d="M56.1525 11.6211C61.3398 11.8396 65.8972 13.6299 69.8244 16.9922C76.1679 23.0168 80.6928 30.2107 83.3986 38.5742C85.0713 43.617 86.0152 48.7928 86.2306 54.1016C84.7305 74.482 73.7929 85.5498 53.4181 87.3047C42.6443 88.3055 32.6834 85.9617 23.5353 80.2734C11.5122 71.3965 9.20099 60.4266 16.6017 47.3633C19.6084 42.6549 22.9937 38.2279 26.758 34.082C30.8898 29.9518 34.731 25.5898 38.2814 20.9961C41.0781 17.6761 44.4308 15.1045 48.34 13.2812C50.8806 12.2869 53.4849 11.7335 56.1525 11.6211Z" fill="#F6DDA8"/>
<path fill-rule="evenodd" clip-rule="evenodd" d="M45.4102 43.6518C53.5216 43.2917 58.6323 47.0026 60.7423 54.7846C61.305 60.0018 59.5798 64.2663 55.5665 67.5776C49.7077 71.3356 44.0436 71.0751 38.5743 66.7964C33.8524 61.8065 33.0386 56.2401 36.1329 50.0971C38.3448 46.6809 41.4372 44.5325 45.4102 43.6518Z" fill="#FEB138"/>
<path fill-rule="evenodd" clip-rule="evenodd" d="M46.5821 48.34C47.5131 48.2797 48.4246 48.3773 49.3164 48.633C50.1809 49.6957 50.0506 50.6072 48.9258 51.3674C44.5137 51.8084 42.1373 54.2498 41.7969 58.6916C40.7342 59.5561 39.8227 59.4258 39.0625 58.301C38.8366 56.3096 39.2922 54.4865 40.4297 52.8322C41.2424 51.8242 42.1213 50.8803 43.0664 50.0002C44.1813 49.2795 45.3532 48.7262 46.5821 48.34Z" fill="#F6DCA7"/>
<path fill-rule="evenodd" clip-rule="evenodd" d="M78.027 54.5897C78.9606 54.4219 79.6442 54.7475 80.0778 55.5662C79.9073 63.2311 76.8799 69.5137 70.9958 74.4139C69.8114 75.3805 68.4768 76.0641 66.9919 76.4647C65.6036 76.0963 65.213 75.25 65.82 73.9256C72.9524 69.9102 76.7284 63.7904 77.1481 55.5662C77.3483 55.1391 77.6413 54.8135 78.027 54.5897Z" fill="#F9E9CA"/>
</svg>
