<svg width="100" height="100" viewBox="0 0 100 100" fill="none" xmlns="http://www.w3.org/2000/svg">
<path d="M93.75 43.3333C93.75 44.375 93.125 45.2083 92.2917 45.625C90.8333 46.0417 88.75 45.8333 87.2917 45.2083C85 44.375 82.9167 43.125 80.4167 43.5417C78.5417 43.9583 77.0833 45.2083 75.2083 45.4167C72.9167 45.625 71.0417 45.8333 69.1667 44.5833C65.8333 42.5 61.6667 41.0417 58.125 42.7083C56.875 43.3333 56.0417 44.1667 54.7917 44.7917C53.125 45.625 51.0417 45.8333 49.1667 45.4167C45.4167 44.375 41.4583 41.25 38.75 41.25C36.0417 41.25 34.1667 43.125 31.875 44.375C28.5417 46.25 24.375 45.8333 20.8333 44.375C18.3333 43.125 16.875 41.25 14.5833 41.25C11.875 41.25 9.79167 44.1667 8.33333 45.2083C7.5 45.8333 6.25 45.2083 6.25 44.1667V20.625C6.25 19.7917 6.45833 18.75 7.08333 18.125C8.33333 16.4583 10.8333 14.375 13.125 14.5833C15.8333 14.7917 17.9167 15.8333 20.4167 17.0833C23.9583 18.75 27.9167 19.7917 31.0417 17.9167C33.3333 16.6667 35.8333 15.2083 38.5417 14.7917C42.2917 14.375 45.2083 18.125 48.9583 19.1667C50.8333 19.5833 52.9167 19.375 54.5833 18.5417C55.625 17.9167 56.6667 17.0833 57.9167 16.4583C61.4583 14.7917 65.625 16.25 68.9583 18.3333C71.0417 19.1667 72.9167 18.75 75.2083 18.5417C77.0833 18.3333 78.5417 17.0833 80.4167 16.6667C82.7083 16.25 85 17.5 87.2917 18.3333C88.75 18.9583 90.8333 19.1667 92.2917 18.75C92.9167 18.5417 93.75 19.1667 93.75 20V43.3333Z" fill="#D84315"/>
<path d="M93.75 82.9168C93.75 83.9585 93.125 84.7918 92.2917 85.2085C90.8333 85.6252 88.75 85.4168 87.2917 84.7918C85 83.9585 82.9167 82.7085 80.4167 83.1252C78.5417 83.5418 77.0833 84.7918 75.2083 85.0002C72.9167 85.2085 71.0417 85.4168 69.1667 84.1668C65.8333 82.0835 61.6667 80.6252 58.125 82.2918C56.875 82.9168 56.0417 83.7502 54.7917 84.3752C53.125 85.2085 51.0417 85.4168 49.1667 85.0002C45.4167 83.9585 41.4583 80.8335 38.75 80.8335C36.0417 80.8335 34.1667 82.7085 31.875 84.1668C28.5417 86.0418 24.375 85.6252 20.8333 84.1668C18.3333 82.9168 16.875 81.0418 14.5833 81.0418C11.875 81.0418 9.79167 83.9585 8.33333 85.0002C7.5 85.6252 6.25 85.0002 6.25 83.9585V59.7918C6.25 58.9585 6.45833 58.1252 7.08333 57.2918C8.54167 55.4168 10.8333 53.9585 13.3333 54.1668C16.0417 54.3752 18.125 55.0002 20.625 56.2502C24.1667 57.9168 28.125 58.9585 31.25 57.0835C33.5417 55.8335 36.0417 54.7918 38.75 54.3752C42.5 53.9585 45.4167 57.2918 49.1667 58.3335C51.0417 58.9585 53.125 58.5418 54.7917 57.7085C55.8333 57.0835 56.875 56.2502 58.125 55.6252C61.6667 53.9585 65.8333 55.4168 69.1667 57.5002C71.0417 58.7502 72.9167 58.3335 75.2083 58.1252C77.0833 57.9168 78.5417 56.6668 80.4167 56.2502C82.7083 55.8335 85 57.0835 87.2917 57.9168C88.75 58.5418 90.8333 58.7502 92.2917 58.3335C93.125 58.1252 93.9583 58.7502 93.9583 59.5835L93.75 82.9168Z" fill="#FF5722"/>
<path d="M92.2917 38.7507C91.4583 38.9591 90.4167 38.9591 89.5833 38.9591C88.75 38.9591 87.7083 38.5424 86.6667 38.1257C86.0417 37.7091 85.2083 37.5007 84.375 37.0841C82.9167 36.4591 81.4583 36.0424 80.2083 36.2507C79.7917 36.2507 79.375 36.4591 78.9583 36.6674C78.3333 36.8757 77.9167 37.0841 77.2917 37.2924C75.8333 37.7091 74.375 38.1257 72.7083 38.1257C71.875 38.1257 71.25 37.9174 70.2083 37.7091C69.375 37.5007 68.5417 37.0841 68.125 36.6674C66.875 35.8341 66.0417 35.4174 65 35.0007C62.7083 34.1674 60.2083 33.9591 58.125 35.0007L56.25 36.0424L55.4167 36.6674L55 36.8757H54.7917H54.5833L54.1667 37.2924C52.2917 38.1257 50.4167 37.9174 48.5417 37.2924C46.875 36.6674 45.625 35.6257 44.5833 34.7924C43.3333 33.9591 42.2917 33.3341 41.0417 32.9174C39.7917 32.5007 38.5417 32.5007 37.5 32.9174C36.25 33.3341 35.2083 33.9591 34.1667 34.7924L33.3333 35.4174L32.5 36.0424L31.6667 36.6674L31.4583 36.8757C31.25 37.0841 31.25 37.0841 31.25 37.0841C31.0417 37.0841 31.0417 37.2924 30.8333 37.2924C29.375 37.9174 27.9167 37.9174 26.6667 37.9174C25.4167 37.9174 23.9583 37.5007 22.9167 37.0841C21.6667 36.6674 20.8333 36.0424 19.7917 35.4174C17.9167 34.1674 16.25 33.3341 14.375 32.9174C12.7083 32.5007 11.0417 32.7091 10 33.1257C8.75 33.5424 7.91667 33.9591 7.29167 34.3757C6.45833 34.7924 6.25 35.0007 6.25 35.0007C6.25 35.0007 6.45833 34.7924 7.08333 34.3757C7.5 33.9591 8.33333 33.3341 9.58333 32.9174C10.8333 32.5007 12.5 32.0841 14.1667 32.2924C16.0417 32.5007 17.9167 33.3341 19.7917 34.3757C20.8333 34.7924 21.875 35.4174 22.9167 35.8341C23.9583 36.2507 25.2083 36.4591 26.25 36.4591C27.5 36.4591 28.75 36.2507 29.5833 35.8341C29.7917 35.8341 29.7917 35.6257 30 35.6257C30 35.6257 30.2083 35.4174 30.2083 35.6257L30.4167 35.4174L31.25 34.7924L32.0833 34.1674L32.9167 33.5424C33.9583 32.7091 35.2083 31.6674 36.875 31.2507C38.3333 30.6257 40.2083 30.6257 41.875 31.0424C45.2083 31.6674 47.7083 33.9591 49.7917 34.7924C50.8333 35.2091 51.875 35.0007 52.7083 34.5841C53.9583 33.7507 55 32.9174 56.25 32.0841C59.375 30.4174 63.125 30.4174 66.0417 31.2507C67.5 31.6674 69.1667 32.5007 70.2083 33.1257C70.8333 33.3341 71.25 33.5424 71.6667 33.7507C71.875 33.7507 72.5 33.9591 72.9167 33.7507C73.75 33.7507 74.7917 33.5424 75.625 33.1257C76.0417 32.9174 76.6667 32.7091 77.0833 32.2924C77.7083 32.0841 78.3333 31.6674 79.1667 31.4591C80.625 31.0424 82.0833 31.0424 83.3333 31.2507C84.5833 31.4591 85.625 31.8757 86.6667 32.0841C87.5 32.5007 88.3333 32.7091 89.1667 32.9174C89.5833 33.1257 90 33.1257 90.4167 33.1257C90.8333 33.1257 90.8333 33.1257 91.0417 33.1257C91.4583 32.9174 91.875 32.9174 92.2917 32.7091C92.5 32.7091 93.3333 32.0841 94.1667 31.6674V38.7507H93.9583C93.125 38.5424 92.7083 38.7507 92.2917 38.7507ZM8.75 21.8757C7.70833 22.0841 6.875 22.5007 6.25 22.9174V31.0424C7.5 30.0007 8.75 28.7507 8.95833 28.5424C9.375 28.3341 10 27.9174 10.625 27.5007C11.4583 27.0841 12.5 26.8757 13.75 27.0841C15 27.2924 16.4583 27.9174 18.5417 28.9591C18.9583 29.1674 19.5833 29.3757 20 29.7924L20.4167 30.0007L20.8333 30.2091H21.0417C21.25 30.2091 21.6667 30.4174 22.0833 30.6257C23.5417 31.0424 25 31.4591 26.4583 31.4591C27.9167 31.4591 29.5833 31.2507 31.25 30.4174C32.9167 29.5841 33.9583 28.5424 35 27.7091C36.0417 26.8757 36.875 26.2507 37.9167 25.8341C38.125 25.8341 38.3333 25.6257 38.75 25.6257H38.9583H39.1667C39.375 25.6257 39.5833 25.6257 39.5833 25.6257C40 25.6257 40.625 25.6257 41.0417 25.8341C42.0833 26.0424 43.3333 26.6674 44.5833 27.2924C45.8333 27.9174 47.0833 28.9591 48.75 29.5841C50.4167 30.2091 52.5 30.2091 54.1667 29.3757C55.8333 28.5424 56.6667 27.5007 57.9167 26.8757C60 25.6257 62.7083 25.6257 65.2083 26.2507C67.5 26.8757 70 28.5424 72.9167 28.7507C74.375 28.7507 75.625 28.5424 76.875 27.9174C78.125 27.2924 78.9583 26.8757 80 26.6674C81.875 26.0424 83.9583 26.6674 85.625 27.0841C87.2917 27.7091 88.75 28.3341 90.2083 28.5424C90.8333 28.5424 91.4583 28.5424 92.0833 28.3341C92.5 28.1257 92.9167 27.9174 93.3333 27.9174C93.9583 27.7091 94.375 27.5007 94.375 27.5007C94.375 27.5007 93.9583 27.5007 93.3333 27.7091C92.7083 27.7091 91.6667 28.1257 90.4167 27.9174C89.1667 27.9174 87.9167 27.0841 86.25 26.2507C84.5833 25.6257 82.5 24.7924 80 25.4174C78.75 25.6257 77.7083 26.2507 76.6667 26.6674C75.625 27.0841 74.5833 27.2924 73.5417 27.0841C72.5 26.8757 71.25 26.4591 70.2083 25.8341C69.1667 25.2091 67.7083 24.5841 66.4583 24.1674C63.75 23.3341 60.2083 22.9174 57.2917 24.3757C55.8333 25.0007 54.5833 26.2507 53.75 26.4591C52.7083 26.8757 51.6667 26.8757 50.625 26.2507C48.5417 25.2091 46.25 22.9174 42.7083 21.8757C41.875 21.6674 41.0417 21.4591 40 21.4591C39.7917 21.4591 39.5833 21.4591 39.375 21.4591C39.1667 21.4591 39.375 21.4591 38.9583 21.4591H38.5417C38.125 21.4591 37.7083 21.6674 37.2917 21.6674C35.625 22.2924 34.1667 23.1257 32.9167 23.9591C31.6667 24.7924 30.8333 25.6257 30 25.8341C29.1667 26.2507 28.125 26.2507 27.2917 26.2507C26.25 26.2507 25.4167 25.8341 24.5833 25.6257C24.375 25.6257 24.1667 25.4174 23.9583 25.4174H23.75C23.9583 25.6257 23.75 25.4174 23.9583 25.4174L22.5 25.0007C22.0833 24.7924 21.4583 24.3757 21.0417 24.1674C19.375 23.1257 17.0833 21.8757 14.7917 21.4591C12.5 20.8341 10.2083 21.2507 8.75 21.8757ZM93.5417 78.1257L93.75 71.0424C92.9167 71.6674 92.0833 72.0841 91.875 72.0841C91.4583 72.0841 91.0417 72.2924 90.625 72.5007C90.4167 72.5007 90.4167 72.5007 90 72.5007C89.5833 72.5007 89.1667 72.5007 88.75 72.2924C87.9167 72.0841 87.2917 71.6674 86.25 71.4591C85.4167 71.0424 84.1667 70.8341 82.9167 70.6257C81.6667 70.4174 80.2083 70.4174 78.75 70.8341C78.125 71.0424 77.2917 71.2507 76.6667 71.6674C76.25 71.8757 75.625 72.0841 75.2083 72.5007C74.375 72.9174 73.5417 73.1257 72.5 73.1257C72.0833 73.1257 71.4583 73.1257 71.25 73.1257C70.8333 73.1257 70.4167 72.9174 69.7917 72.5007C68.75 71.8757 67.0833 71.0424 65.625 70.6257C62.7083 69.7924 58.9583 69.5841 55.8333 71.4591C54.5833 72.2924 53.5417 73.1257 52.2917 73.9591C51.4583 74.3757 50.2083 74.5841 49.375 74.1674C47.0833 73.3341 44.5833 71.0424 41.4583 70.4174C39.7917 70.0007 38.125 70.2091 36.4583 70.6257C35 71.2507 33.75 72.0841 32.5 72.9174L31.6667 73.5424L30.8333 74.1674L30 74.7924L29.7917 75.0007C30 75.0007 29.7917 75.0007 29.5833 75.0007C29.375 75.0007 29.375 75.2091 29.1667 75.2091C28.125 75.6257 26.875 75.8341 25.8333 75.8341C24.5833 75.8341 23.5417 75.6257 22.5 75.2091C21.4583 74.7924 20.4167 74.3757 19.375 73.7507C17.5 72.7091 15.4167 71.8757 13.75 71.6674C11.875 71.4591 10.2083 71.6674 9.16667 72.2924C7.91667 72.7091 7.08333 73.3341 6.66667 73.7507C6.45833 74.3757 6.25 74.5841 6.25 74.5841C6.25 74.5841 6.45833 74.3757 7.08333 73.9591C7.70833 73.5424 8.54167 73.1257 9.79167 72.7091C11.0417 72.2924 12.5 72.0841 14.1667 72.5007C15.8333 72.9174 17.7083 73.7507 19.5833 75.0007C20.625 75.4174 21.4583 76.2507 22.7083 76.6674C23.9583 77.0841 25.2083 77.5007 26.4583 77.5007C27.7083 77.5007 29.1667 77.5007 30.625 76.8757C30.8333 76.8757 31.0417 76.6674 31.0417 76.6674C31.25 76.6674 31.0417 76.6674 31.25 76.4591L31.4583 76.2507L32.2917 75.6257L33.3333 75.0007L34.1667 74.3757C35.2083 73.5424 36.25 72.9174 37.5 72.5007C38.5417 72.0841 40 72.2924 41.0417 72.5007C42.2917 72.9174 43.3333 73.5424 44.5833 74.3757C45.8333 75.2091 46.875 76.0424 48.5417 76.8757C50.2083 77.7091 52.2917 77.7091 54.1667 76.8757L54.5833 76.6674H54.7917H55L55.4167 76.4591L56.25 75.8341L57.9167 74.7924C60 73.7507 62.5 73.9591 64.7917 74.7924C66.0417 75.2091 66.6667 75.6257 67.9167 76.4591C68.5417 76.8757 69.1667 77.2924 70 77.5007C71.0417 77.9174 71.6667 77.9174 72.5 77.9174C74.1667 77.9174 75.625 77.7091 77.0833 77.0841C77.7083 76.8757 78.125 76.6674 78.75 76.4591C79.1667 76.2507 79.5833 76.2507 80 76.0424C81.4583 75.8341 82.7083 76.2507 84.1667 76.8757C85 77.2924 85.625 77.5007 86.4583 77.9174C87.5 78.3341 88.3333 78.5424 89.375 78.7507C90.2083 78.9591 91.25 78.7507 92.0833 78.5424C92.7083 78.3341 93.125 78.1257 93.5417 78.1257ZM8.75 61.4591C7.70833 61.6674 6.875 62.0841 6.25 62.5007V70.6257C7.5 69.5841 8.75 68.3341 8.95833 68.1257C9.375 67.9174 10 67.5007 10.625 67.0841C11.4583 66.6674 12.5 66.4591 13.75 66.6674C15 66.8757 16.4583 67.5007 18.5417 68.5424C18.9583 68.7507 19.5833 68.9591 20 69.3757L20.4167 69.5841L20.8333 69.7924H21.0417C21.25 69.7924 21.6667 70.0007 22.0833 70.2091C23.5417 70.6257 25 71.0424 26.4583 71.0424C27.9167 71.0424 29.5833 70.8341 31.25 70.0007C32.9167 69.1674 33.9583 68.1257 35 67.2924C36.0417 66.4591 36.875 65.8341 37.9167 65.4174C38.125 65.4174 38.3333 65.2091 38.75 65.2091H38.9583H39.1667C39.375 65.2091 39.5833 65.2091 39.5833 65.2091C40 65.2091 40.625 65.2091 41.0417 65.4174C42.0833 65.6257 43.3333 66.2507 44.5833 66.8757C45.8333 67.5007 47.0833 68.5424 48.75 69.1674C50.4167 69.7924 52.5 69.7924 54.1667 68.9591C55.8333 68.1257 56.6667 67.0841 57.9167 66.4591C60 65.2091 62.7083 65.2091 65.2083 65.8341C67.5 66.4591 70 68.1257 72.9167 68.3341C74.375 68.3341 75.625 68.1257 76.875 67.5007C78.125 66.8757 78.9583 66.4591 80 66.2507C81.875 65.6257 83.9583 66.2507 85.625 66.6674C87.2917 67.2924 88.75 67.9174 90.2083 68.1257C90.8333 68.1257 91.4583 68.1257 92.0833 67.9174C92.5 67.7091 92.9167 67.5007 93.3333 67.5007C93.9583 67.2924 94.375 67.0841 94.375 67.0841C94.375 67.0841 93.9583 67.0841 93.3333 67.2924C92.7083 67.2924 91.6667 67.7091 90.4167 67.5007C89.1667 67.5007 87.9167 66.6674 86.25 65.8341C84.5833 65.2091 82.5 64.3757 80 65.0007C78.75 65.2091 77.7083 65.8341 76.6667 66.2507C75.625 66.6674 74.5833 66.8757 73.5417 66.6674C72.5 66.4591 71.25 66.0424 70.2083 65.4174C69.1667 64.7924 67.7083 64.1674 66.4583 63.7507C63.75 62.9174 60.2083 62.5007 57.2917 63.9591C55.8333 64.5841 54.5833 65.8341 53.75 66.0424C52.7083 66.4591 51.6667 66.4591 50.625 65.8341C48.5417 64.7924 46.25 62.5007 42.7083 61.4591C41.875 61.2507 41.0417 61.0424 40 61.0424C39.7917 61.0424 39.5833 61.0424 39.375 61.0424C39.1667 61.0424 39.375 61.0424 38.9583 61.0424H38.5417C38.125 61.0424 37.7083 61.2507 37.2917 61.2507C35.625 61.8757 34.1667 62.7091 32.9167 63.5424C31.6667 64.3757 30.8333 65.2091 30 65.4174C29.1667 65.8341 28.125 65.8341 27.2917 65.8341C26.25 65.8341 25.4167 65.4174 24.5833 65.2091C24.375 65.2091 24.1667 65.0007 23.9583 65.0007H23.75C23.9583 65.2091 23.75 65.0007 23.9583 65.0007L22.5 64.5841C22.0833 64.3757 21.4583 63.9591 21.0417 63.7507C19.375 62.7091 17.0833 61.4591 14.7917 61.0424C12.5 60.4174 10.2083 60.8341 8.75 61.4591Z" fill="#FFF3E0"/>
</svg>
