<svg width="100" height="100" viewBox="0 0 100 100" fill="none" xmlns="http://www.w3.org/2000/svg">
<path d="M38.6812 55.455L14.6179 60.075C14.0433 60.183 13.4679 60.1757 12.9226 60.067C11.2399 59.7377 9.83259 58.4436 9.48725 56.669L9.47993 56.6256C8.07193 49.3043 9.83258 42.0817 13.8353 36.247L27.5019 33.6243L34.2413 32.3317L35.3479 38.087L38.6812 55.455Z" fill="#EAC260"/>
<path d="M35.3476 38.0867C34.7736 38.942 33.861 39.5747 32.7683 39.7894C30.5976 40.206 28.4923 38.7834 28.0756 36.606L27.5016 33.624L13.835 36.2467C18.009 30.1541 24.6343 25.592 32.6463 24.046L34.241 32.3314L35.3476 38.0867Z" fill="#EDA6CA"/>
<path d="M53.6931 38.9842C54.1751 41.4922 52.5358 43.9142 50.0292 44.3962C47.5212 44.8762 45.0991 43.2316 44.6178 40.7242L43.6551 35.7229C43.1798 37.0016 42.0811 38.0002 40.6511 38.2736C38.4745 38.6902 36.3765 37.2749 35.9525 35.0902C36.1605 36.1749 35.9158 37.2382 35.3478 38.0862L34.2411 32.3309L32.6465 24.0456C40.6578 22.5082 48.4978 24.2969 54.6345 28.3996L54.6425 28.4076L51.4871 29.0182C51.7591 29.4636 51.9611 29.9742 52.0691 30.5129L53.6931 38.9842Z" fill="#E397C1"/>
<path d="M66.239 45.7206L66.2484 45.766C66.6937 48.12 65.1037 50.3793 62.751 50.8313L38.6817 55.4546L35.3457 38.0853C35.919 37.2399 36.1637 36.1753 35.955 35.0906C36.373 37.2713 38.4764 38.6906 40.6517 38.2739C42.079 37.9993 43.1844 36.9993 43.6557 35.7246L44.617 40.7273C45.097 43.2333 47.5217 44.8753 50.0284 44.3939C52.535 43.9119 54.1764 41.4886 53.695 38.9819L52.0684 30.5146C51.9644 29.972 51.7597 29.4666 51.4904 29.016L54.6484 28.4079C60.5257 32.3419 64.833 38.3999 66.239 45.7206Z" fill="#C09D4B"/>
<path d="M62.1571 53.1112V76.6592H37.6491C35.2538 76.6592 33.2651 74.7398 33.2598 72.3438V72.2972C33.2598 64.8438 36.3471 58.0812 41.3758 53.1112H62.1571Z" fill="#EAC260"/>
<path d="M62.1563 44.6792V58.9726C61.4297 59.7039 60.4183 60.1572 59.3077 60.1572C57.0923 60.1572 55.2957 58.3672 55.2957 56.1459V53.1119H41.375C46.6263 47.9125 53.9937 44.6792 62.1563 44.6792Z" fill="#AEDFE3"/>
<path d="M82.9376 53.1118C77.6862 47.9125 70.3202 44.6792 62.1562 44.6792V53.1118V58.9725C62.8776 58.2512 63.3189 57.2512 63.3189 56.1458C63.3189 58.3672 65.1162 60.1572 67.3322 60.1572C68.7856 60.1572 70.0589 59.3838 70.7616 58.2225V63.3158C70.7616 65.8685 72.8322 67.9385 75.3842 67.9385C77.9362 67.9385 80.0069 65.8685 80.0069 63.3158V54.6925C80.0069 54.1405 79.9022 53.6052 79.7216 53.1118H82.9376Z" fill="#49C4D5"/>
<path d="M91.0536 72.2972V72.3438C91.0482 74.7398 89.0602 76.6592 86.6642 76.6592H62.1562V58.9718C62.8776 58.2505 63.3189 57.2505 63.3189 56.1452C63.3189 58.3665 65.1162 60.1565 67.3322 60.1565C68.7856 60.1565 70.0589 59.3832 70.7616 58.2218V63.3152C70.7616 65.8678 72.8322 67.9378 75.3842 67.9378C77.9362 67.9378 80.0069 65.8678 80.0069 63.3152V54.6918C80.0069 54.1398 79.9023 53.6045 79.7216 53.1112H82.9376C87.9662 58.0812 91.0536 64.8438 91.0536 72.2972Z" fill="#C09D4B"/>
</svg>
