<svg width="100" height="100" viewBox="0 0 100 100" fill="none" xmlns="http://www.w3.org/2000/svg">
<path d="M74.9045 16.7626C74.3712 13.8647 71.4524 11.8022 68.2503 12.7209C66.5837 13.2001 65.2462 14.5772 64.7857 16.248C64.5837 16.9772 64.5399 17.6876 64.6253 18.3564C64.9295 20.7564 64.092 23.1564 62.3816 24.8668L50.917 36.3314L55.3357 40.7501L66.8003 29.2855C68.5107 27.5751 70.9107 26.7397 73.3128 27.0418C73.9816 27.1272 74.6899 27.0814 75.417 26.8814C77.0878 26.4209 78.467 25.0834 78.9462 23.4168C79.8649 20.2168 77.8045 17.2959 74.9045 16.7626Z" fill="#D7CCC8"/>
<path d="M91.5355 33.4252C91.8001 32.2335 91.7355 30.921 90.673 29.421C89.7376 28.1022 88.2585 27.1418 86.6397 27.0856C83.6814 26.9856 81.2501 29.3543 81.2501 32.2918C81.2501 32.3043 81.2501 32.3168 81.2501 32.3293C81.2668 34.5314 80.2272 36.6022 78.2564 37.5877L63.1855 45.1231L65.9814 50.7147L82.3189 42.546C84.1251 41.6418 86.2043 41.9335 87.9251 42.9918C89.1147 43.7231 90.6189 43.9856 92.196 43.5231C93.8147 43.0481 95.1335 41.7293 95.6064 40.1085C96.5439 36.8814 94.4585 33.9418 91.5355 33.4252Z" fill="#D7CCC8"/>
<path d="M64.5833 39.5824C64.5833 33.0095 66.8 29.2845 66.8 29.2845L62.3813 24.8657C56.7542 30.4928 37.5 29.1657 37.5 29.1657L64.5833 39.5824Z" fill="#BF360C"/>
<path d="M4.16699 74.9989C4.16699 74.9989 18.5316 87.4989 41.667 87.4989C64.8024 87.4989 83.3337 74.0864 83.3337 62.4989C83.3337 50.9114 66.667 39.5822 66.667 39.5822C66.667 39.5822 49.6982 29.1655 37.5003 29.1655C4.16491 29.1655 4.16699 74.9989 4.16699 74.9989Z" fill="#E64A19"/>
<path d="M81.9521 56.4833C80.4917 53.1083 78.0604 49.9458 75.5438 47.2812C59.4146 49.25 31.25 58.3333 31.25 58.3333C31.25 58.3333 36.4583 70.8333 52.0833 70.8333C65.9979 70.8333 72.4396 67.5083 81.9521 56.4833Z" fill="#D84315"/>
<path d="M37.5003 29.1655C53.7045 29.1655 61.2357 37.4989 70.8337 37.4989C77.3524 37.4989 78.2566 37.4989 78.2566 37.4989L80.9899 43.2926C80.9899 43.2926 67.1691 66.6655 50.0003 66.6655C37.5003 66.6655 31.2503 58.3322 31.2503 58.3322C31.2503 58.3322 28.8191 52.0822 20.8337 52.0822C10.417 52.0822 4.16699 74.9989 4.16699 74.9989C4.16699 74.9989 4.16699 29.1655 37.5003 29.1655Z" fill="#FF7043"/>
<path d="M27.0837 41.6655C27.0837 42.8155 26.1503 43.7489 25.0003 43.7489C23.8503 43.7489 22.917 42.8155 22.917 41.6655C22.917 40.5155 23.8503 39.5822 25.0003 39.5822C26.1503 39.5822 27.0837 40.5155 27.0837 41.6655ZM33.3337 35.4155C32.1837 35.4155 31.2503 36.3489 31.2503 37.4989C31.2503 38.6489 32.1837 39.5822 33.3337 39.5822C34.4837 39.5822 35.417 38.6489 35.417 37.4989C35.417 36.3489 34.4837 35.4155 33.3337 35.4155ZM33.3337 43.7489C32.1837 43.7489 31.2503 44.6822 31.2503 45.8322C31.2503 46.9822 32.1837 47.9155 33.3337 47.9155C34.4837 47.9155 35.417 46.9822 35.417 45.8322C35.417 44.6822 34.4837 43.7489 33.3337 43.7489Z" fill="#F4511E"/>
</svg>
