<svg width="100" height="100" viewBox="0 0 100 100" fill="none" xmlns="http://www.w3.org/2000/svg">
<path d="M39.5068 69.6001H20.5068V47.6001H39.5068V69.6001Z" fill="#F0E3CF"/>
<path d="M54.9068 35.5052C54.9068 43.179 48.7105 49.3999 41.067 49.3999H20.3467C12.7024 49.3999 6.50684 43.179 6.50684 35.5052V29.2946C6.50684 21.6186 12.7024 15.3999 20.3467 15.3999H41.067C48.7105 15.3999 54.9068 21.6186 54.9068 29.2946V35.5052Z" fill="#E4D1B2"/>
<path d="M24.9067 29.6001C24.9067 30.7048 24.0114 31.6001 22.9067 31.6001C21.802 31.6001 20.9067 30.7048 20.9067 29.6001C20.9067 28.4954 21.802 27.6001 22.9067 27.6001C24.0114 27.6001 24.9067 28.4954 24.9067 29.6001Z" fill="#C9B08E"/>
<path d="M17.5068 34.7994C17.5068 35.9032 16.6115 36.7998 15.5083 36.7998C14.4022 36.7998 13.5068 35.9032 13.5068 34.7994C13.5068 33.6964 14.4022 32.7998 15.5083 32.7998C16.6115 32.7998 17.5068 33.6964 17.5068 34.7994Z" fill="#C9B08E"/>
<path d="M27.7065 42.6008C27.7065 43.7036 26.8112 44.6001 25.7066 44.6001C24.6019 44.6001 23.7065 43.7036 23.7065 42.6008C23.7065 41.4951 24.6019 40.6001 25.7066 40.6001C26.8112 40.6001 27.7065 41.4951 27.7065 42.6008Z" fill="#C9B08E"/>
<path d="M46.3066 39.3006C46.3066 40.3495 45.4113 41.2002 44.3067 41.2002C43.202 41.2002 42.3066 40.3495 42.3066 39.3006C42.3066 38.2509 43.202 37.4002 44.3067 37.4002C45.4113 37.4002 46.3066 38.2509 46.3066 39.3006Z" fill="#C9B08E"/>
<path d="M37.1064 42.6008C37.1064 43.7036 36.2109 44.6001 35.1061 44.6001C34.0012 44.6001 33.1064 43.7036 33.1064 42.6008C33.1064 41.4951 34.0012 40.6001 35.1061 40.6001C36.2109 40.6001 37.1064 41.4951 37.1064 42.6008Z" fill="#C9B08E"/>
<path d="M41.3064 54.0006C41.3064 54.6634 40.7832 55.2002 40.14 55.2002H20.2714C19.6282 55.2002 19.1064 54.6634 19.1064 54.0006C19.1064 53.3363 19.6282 52.8002 20.2714 52.8002H40.14C40.7832 52.8002 41.3064 53.3363 41.3064 54.0006Z" fill="#E4D1B2"/>
<path d="M41.3064 57.8008C41.3064 58.4614 40.7832 59 40.14 59H20.2714C19.6282 59 19.1064 58.4614 19.1064 57.8008C19.1064 57.1371 19.6282 56.6 20.2714 56.6H40.14C40.7832 56.6 41.3064 57.1371 41.3064 57.8008Z" fill="#E4D1B2"/>
<path d="M85.4379 35.8283L66.6627 27.2483C59.7369 24.0825 51.5638 27.1453 48.4069 34.0906L45.8518 39.71C42.6942 46.6553 45.749 54.8489 52.6763 58.0148L52.9051 58.1192L44.5068 76.5934L61.5897 84.3999L69.99 65.9272L71.4494 66.5948C78.3766 69.7606 86.5504 66.6978 89.7066 59.754L92.2624 54.1331C95.4186 47.1893 92.3644 38.9942 85.4379 35.8283Z" fill="#F0E3CF"/>
<path d="M52.8678 58C52.8678 58 46.5334 51.0247 51.2568 48.5197C54.9484 46.5615 56.3068 50.7679 56.3068 50.7679L52.8678 58Z" fill="#9A7D5C"/>
<path d="M69.9067 65.9999C69.9067 65.9999 79.36 66.0963 78.2097 60.8801C77.3095 56.8015 73.208 58.5908 73.208 58.5908L69.9067 65.9999Z" fill="#9A7D5C"/>
<path d="M53.3742 76.7998L52.5068 76.406L62.8402 53.7998L63.7068 54.1965L53.3742 76.7998Z" fill="#C9B08E"/>
<path d="M57.5875 78.7998L56.7065 78.4038L62.8256 65.1998L63.7065 65.5944L57.5875 78.7998Z" fill="#C9B08E"/>
</svg>
