<svg width="100" height="100" viewBox="0 0 100 100" fill="none" xmlns="http://www.w3.org/2000/svg">
<g clip-path="url(#clip0_190_5591)">
<path opacity="0.929" fill-rule="evenodd" clip-rule="evenodd" d="M36.0352 18.0653C35.9049 18.0653 35.8399 18.1304 35.8399 18.2606C35.3971 18.4409 34.9414 18.6037 34.4727 18.7489C33.1723 18.8465 31.8701 18.8791 30.5664 18.8466C30.6233 17.5921 30.5582 16.3551 30.3711 15.1356C30.3385 12.1401 30.3711 9.14535 30.4688 6.15127C30.8237 4.89063 31.6375 4.46744 32.9102 4.88174C33.4184 5.06436 33.7114 5.42242 33.7891 5.95596C33.8541 9.01586 33.9194 12.0757 33.9844 15.1356C36.8164 12.8245 39.6485 10.5132 42.4805 8.20205C43.966 7.6103 44.8776 8.09858 45.2149 9.6669C45.1067 10.0789 44.9438 10.4696 44.7266 10.8388C41.7924 13.2211 38.8951 15.63 36.0352 18.0653Z" fill="#AFDB81"/>
<path opacity="0.927" fill-rule="evenodd" clip-rule="evenodd" d="M30.371 15.1358C30.5581 16.3553 30.6231 17.5923 30.5663 18.8467C29.8159 18.7701 29.0997 18.5748 28.4178 18.2608C28.4178 18.1306 28.3528 18.0655 28.2225 18.0655C25.2403 15.5732 22.278 13.0341 19.3358 10.4483C19.0835 8.1228 20.0276 7.43921 22.1678 8.39753C24.8723 10.6919 27.6067 12.938 30.371 15.1358Z" fill="#96CC81"/>
<path opacity="0.99" fill-rule="evenodd" clip-rule="evenodd" d="M28.2228 18.066C28.3531 18.066 28.4181 18.1311 28.4181 18.2613C29.1 18.5752 29.8162 18.7705 30.5666 18.8472C31.8703 18.8797 33.1724 18.8471 34.4728 18.7495C34.9416 18.6043 35.3973 18.4416 35.84 18.2613C35.9703 18.2613 36.0353 18.1962 36.0353 18.066C43.8015 14.6236 51.0281 15.5025 57.715 20.7027C62.1187 24.9876 64.3648 30.2285 64.4533 36.4253C64.5012 38.5087 64.4687 40.5919 64.3556 42.6753C64.3556 43.7822 64.3556 44.8888 64.3556 45.9956C62.3074 45.4287 60.2892 44.7451 58.301 43.9449C51.8133 42.7454 46.4422 44.6662 42.1877 49.7066C39.2847 54.0874 38.1129 58.905 38.6721 64.1597C39.8996 82.1523 49.5025 91.397 67.4806 91.8941C84.6388 91.8308 94.3068 83.3023 96.4846 66.3081C96.7426 62.6314 96.5472 58.9855 95.8986 55.3706C93.4123 47.8937 88.2365 43.9224 80.3713 43.4566C79.1728 43.4292 78.001 43.5921 76.8556 43.9449C74.9303 44.7277 72.9771 45.4113 70.9963 45.9956C70.9963 44.8888 70.9963 43.7822 70.9963 42.6753C78.8879 38.7525 86.3097 39.5013 93.2619 44.9214C97.0726 48.6693 99.2863 53.1941 99.9025 58.4956C99.9025 60.9697 99.9025 63.4435 99.9025 65.9175C99.3959 72.63 97.215 78.7497 93.3596 84.2769C88.4771 90.2189 82.1945 93.7019 74.5119 94.7261C66.565 95.9415 58.8826 95.03 51.465 91.9917C42.976 87.4283 37.8978 80.3644 36.2306 70.8003C35.6969 68.0273 35.4365 65.2279 35.4494 62.4019C21.4426 60.2121 13.0768 52.1392 10.3517 38.1831C9.61651 33.6435 9.48629 29.0863 9.96112 24.5113C10.476 21.9564 11.3549 19.5476 12.5978 17.2847C16.0079 15.974 19.5236 15.681 23.1447 16.4058C24.8619 16.9075 26.5545 17.4609 28.2228 18.066Z" fill="#E6646E"/>
<path fill-rule="evenodd" clip-rule="evenodd" d="M12.5977 17.2842C11.3547 19.5471 10.4758 21.9559 9.96094 24.5107C9.48611 29.0857 9.61633 33.643 10.3516 38.1826C13.0766 52.1387 21.4424 60.2115 35.4492 62.4014C35.4363 65.2273 35.6967 68.0268 36.2305 70.7998C28.308 71.6715 20.8211 70.2717 13.7695 66.6006C7.25629 62.4092 3.05707 56.5172 1.17188 48.9248C0.639166 46.5727 0.215988 44.2289 -0.0976562 41.8936C-0.0976562 39.3545 -0.0976562 36.8154 -0.0976562 34.2764C0.579594 28.2006 3.31397 23.2852 8.10547 19.5303C9.49824 18.5735 10.9956 17.8248 12.5977 17.2842Z" fill="#DC4655"/>
<path fill-rule="evenodd" clip-rule="evenodd" d="M64.3553 42.6748C66.2328 43.0754 68.1207 43.1406 70.0193 42.8701C70.2797 42.8701 70.5402 42.8701 70.8006 42.8701C70.768 46.0609 70.8006 49.251 70.8982 52.4404C71.0957 53.3258 71.3887 54.1723 71.7771 54.9795C71.4311 56.9078 72.082 58.3727 73.7303 59.374C76.5586 59.2104 78.935 60.1545 80.8592 62.2061C82.8549 65.5648 82.4318 68.5922 79.5896 71.2881C78.077 72.1373 76.4492 72.593 74.7068 72.6553C73.0789 73.1437 72.1023 74.218 71.7771 75.8779C71.6172 76.4258 71.5195 77.0117 71.4842 77.6357C68.8412 79.4518 66.2045 79.4518 63.574 77.6357C63.9234 75.1748 62.9469 73.5146 60.6443 72.6553C55.3588 72.3834 52.9174 69.6164 53.3201 64.3545C54.7031 61.0221 57.2098 59.427 60.8396 59.5693C62.8494 58.9061 63.7609 57.5064 63.574 55.3701C63.6283 54.5436 63.8561 53.7623 64.2576 53.0264C64.3553 50.6836 64.3879 48.3398 64.3553 45.9951C64.3553 44.8883 64.3553 43.7816 64.3553 42.6748Z" fill="#FEB3AE"/>
<path fill-rule="evenodd" clip-rule="evenodd" d="M70.0193 42.8707C70.2964 42.685 70.6218 42.6199 70.9958 42.6754C70.9958 43.7822 70.9958 44.8889 70.9958 45.9957C72.9767 45.4113 74.9298 44.7277 76.8552 43.9449C78.0005 43.5922 79.1724 43.4293 80.3708 43.4566C88.2361 43.9225 93.4118 47.8938 95.8982 55.3707C96.5468 58.9856 96.7421 62.6315 96.4841 66.3082C94.3064 83.3023 84.6384 91.8309 67.4802 91.8941C49.5021 91.3971 39.8991 82.1524 38.6716 64.1598C38.1124 58.9051 39.2843 54.0875 42.1872 49.7066C46.4417 44.6662 51.8128 42.7455 58.3005 43.9449C60.2888 44.7451 62.307 45.4287 64.3552 45.9957C64.3878 48.3404 64.3552 50.6842 64.2575 53.027C63.856 53.7629 63.6282 54.5441 63.5739 55.3707C63.0972 52.4426 61.4695 50.3918 58.6911 49.2184C54.0239 47.5397 49.955 48.4838 46.4841 52.0504C44.1978 55.1033 43.1886 58.5539 43.4568 62.402C43.4531 66.7975 44.2669 71.0293 45.8982 75.0973C48.4511 80.7779 52.748 84.2936 58.7888 85.6441C61.1271 85.5207 62.6896 84.3488 63.4763 82.1285C63.5739 80.6326 63.6064 79.1352 63.5739 77.6363C66.2044 79.4523 68.8411 79.4523 71.4841 77.6363C71.5195 77.0123 71.6171 76.4264 71.7771 75.8785C71.7445 77.9629 71.7771 80.0463 71.8747 82.1285C73.0216 85.0961 75.1374 86.1703 78.2224 85.3512C84.9277 82.7898 89.1269 78.0047 90.82 70.9957C91.8115 66.4647 92.0068 61.9072 91.406 57.3238C89.6226 50.9768 85.4234 48.0145 78.8083 48.4371C75.0823 49.2027 72.7386 51.3838 71.7771 54.9801C71.3886 54.1729 71.0956 53.3264 70.8982 52.441C70.8005 49.2516 70.7679 46.0615 70.8005 42.8707C70.5402 42.8707 70.2796 42.8707 70.0193 42.8707Z" fill="#FE7F86"/>
<path fill-rule="evenodd" clip-rule="evenodd" d="M63.5745 55.3708C63.7614 57.5071 62.8498 58.9067 60.8401 59.57C57.2102 59.4276 54.7036 61.0227 53.3205 64.3552C52.9178 69.6171 55.3592 72.3841 60.6448 72.6559C62.9473 73.5153 63.9239 75.1755 63.5745 77.6364C63.6069 79.1352 63.5745 80.6327 63.4768 82.1286C62.6901 84.3489 61.1276 85.5208 58.7893 85.6442C52.7485 84.2936 48.4516 80.778 45.8987 75.0973C44.2674 71.0294 43.4536 66.7975 43.4573 62.402C43.1891 58.554 44.1983 55.1034 46.4846 52.0505C49.9555 48.4839 54.0245 47.5397 58.6916 49.2184C61.47 50.3919 63.0977 52.4427 63.5745 55.3708Z" fill="#E6646E"/>
<path fill-rule="evenodd" clip-rule="evenodd" d="M71.7771 75.878C72.1023 74.218 73.0789 73.1438 74.7068 72.6553C76.4492 72.593 78.0769 72.1373 79.5896 71.2881C82.4318 68.5922 82.8548 65.5649 80.8591 62.2061C78.9349 60.1545 76.5586 59.2104 73.7302 59.3741C72.082 58.3727 71.431 56.9078 71.7771 54.9795C72.7386 51.3832 75.0824 49.2022 78.8084 48.4366C85.4234 48.0139 89.6226 50.9762 91.406 57.3233C92.0068 61.9067 91.8115 66.4641 90.8201 70.9951C89.1269 78.0041 84.9277 82.7893 78.2224 85.3506C75.1375 86.1698 73.0216 85.0955 71.8748 82.128C71.7771 80.0457 71.7445 77.9623 71.7771 75.878Z" fill="#E6646E"/>
<path fill-rule="evenodd" clip-rule="evenodd" d="M55.5664 52.8319C56.8953 52.6952 57.709 53.2811 58.0078 54.5897C58.3869 55.5096 58.6799 56.4538 58.8867 57.4217C58.6682 58.6159 57.952 59.1368 56.7383 58.9842C56.334 58.7991 56.041 58.5061 55.8594 58.1053C55.3957 56.9092 54.9725 55.7049 54.5898 54.4921C54.6898 53.8036 55.0152 53.2503 55.5664 52.8319Z" fill="#FEC069"/>
<path fill-rule="evenodd" clip-rule="evenodd" d="M78.418 52.832C79.6656 52.6464 80.4469 53.1673 80.7617 54.3945C80.3312 55.7181 79.843 57.0202 79.2969 58.3007C78.5076 59.2408 77.6611 59.3058 76.7578 58.496C76.5654 58.1316 76.4678 57.7409 76.4648 57.3241C76.74 55.6482 77.3912 54.1507 78.418 52.832Z" fill="#FEC069"/>
<path fill-rule="evenodd" clip-rule="evenodd" d="M49.7071 56.7373C51.1139 57.0682 52.3184 57.7844 53.3204 58.8857C53.9086 60.7713 53.2251 61.585 51.2696 61.3271C50.4378 60.6668 49.6239 59.9832 48.8282 59.2764C48.3434 58.1623 48.6364 57.316 49.7071 56.7373Z" fill="#FEDE7C"/>
<path fill-rule="evenodd" clip-rule="evenodd" d="M84.6679 56.7373C86.396 56.8023 87.0146 57.6488 86.5234 59.2764C85.7747 59.8949 85.0259 60.5133 84.2773 61.1318C82.3701 61.7564 81.5562 61.0729 81.8359 59.0811C82.7601 58.2525 83.704 57.4713 84.6679 56.7373Z" fill="#FEDD7C"/>
<path fill-rule="evenodd" clip-rule="evenodd" d="M48.3398 64.5497C49.5135 64.5173 50.6853 64.5499 51.8554 64.6474C52.9338 65.6943 52.8687 66.6708 51.6601 67.5771C50.4664 67.7546 49.2945 67.6896 48.1445 67.3818C47.3179 66.3679 47.383 65.4237 48.3398 64.5497Z" fill="#FEC169"/>
<path fill-rule="evenodd" clip-rule="evenodd" d="M83.4961 64.5511C84.7562 64.4699 85.9931 64.5675 87.207 64.8441C88.073 65.8978 87.9427 66.8093 86.8164 67.5785C85.6226 67.756 84.4508 67.691 83.3008 67.3831C82.4742 66.3693 82.5392 65.4251 83.4961 64.5511Z" fill="#FEC169"/>
<path fill-rule="evenodd" clip-rule="evenodd" d="M52.0506 70.2155C53.8827 70.0501 54.5662 70.8313 54.1014 72.5593C53.3373 73.4544 52.4584 74.2032 51.4647 74.8054C49.9963 74.7688 49.378 74.02 49.6092 72.5593C50.3649 71.7108 51.1787 70.9296 52.0506 70.2155Z" fill="#FEDD7C"/>
<path fill-rule="evenodd" clip-rule="evenodd" d="M81.7381 70.2147C82.4174 70.153 83.0685 70.2506 83.6912 70.5077C84.3748 71.1913 85.0584 71.8749 85.742 72.5585C85.9377 74.1202 85.2541 74.869 83.6912 74.8045C82.9426 74.186 82.1937 73.5676 81.4451 72.9491C80.7418 71.9438 80.8394 71.0323 81.7381 70.2147Z" fill="#FEDE7C"/>
<path fill-rule="evenodd" clip-rule="evenodd" d="M56.543 73.7296C57.6635 73.638 58.3797 74.1263 58.6914 75.1944C58.2748 76.6466 57.7213 78.0464 57.0313 79.3937C56.242 80.3337 55.3955 80.3987 54.4922 79.589C54.2025 78.9636 54.1373 78.3124 54.2969 77.6359C54.7645 76.5056 55.2852 75.3987 55.8594 74.3155C56.083 74.0937 56.3109 73.8984 56.543 73.7296Z" fill="#FEC069"/>
<path fill-rule="evenodd" clip-rule="evenodd" d="M77.6367 73.7311C78.3359 73.6184 78.9219 73.8137 79.3945 74.3171C79.8797 75.2876 80.368 76.2641 80.8594 77.2467C81.5488 79.0911 80.9305 80.0352 79.0039 80.0788C77.6314 78.5395 76.8826 76.7491 76.7578 74.7077C76.958 74.2805 77.251 73.9549 77.6367 73.7311Z" fill="#FEC069"/>
</g>
<defs>
<clipPath id="clip0_190_5591">
<rect width="100" height="100" fill="white"/>
</clipPath>
</defs>
</svg>
