<svg width="100" height="100" viewBox="0 0 100 100" fill="none" xmlns="http://www.w3.org/2000/svg">
<g clip-path="url(#clip0_190_4736)">
<path opacity="0.986" fill-rule="evenodd" clip-rule="evenodd" d="M99.9023 42.2859C99.9023 42.4162 99.9023 42.5462 99.9023 42.6765C83.3074 52.1459 66.7709 61.7162 50.293 71.3875C49.8016 71.3376 49.3457 71.1748 48.9258 70.8992C32.6377 61.3882 16.2965 51.9808 -0.0976562 42.6765C-0.0976562 42.5462 -0.0976562 42.4162 -0.0976562 42.2859C16.4686 32.6677 33.0701 23.0974 49.707 13.575C66.474 23.0974 83.2059 32.6677 99.9023 42.2859Z" fill="#FEC275"/>
<path fill-rule="evenodd" clip-rule="evenodd" d="M49.5118 15.7219C49.7057 17.3789 49.7708 19.0717 49.7071 20.8C47.812 22.0081 45.8588 23.1149 43.8477 24.1204C42.4838 23.3446 41.1167 22.5633 39.7461 21.7766C39.5467 21.6786 39.5141 21.5485 39.6485 21.386C42.9575 19.5203 46.2454 17.6323 49.5118 15.7219Z" fill="#FF9912"/>
<path fill-rule="evenodd" clip-rule="evenodd" d="M49.5117 15.7234C49.5234 15.6173 49.5885 15.5522 49.707 15.5281C53.1576 17.5138 56.608 19.4994 60.0586 21.4851C58.6146 22.4671 57.1172 23.346 55.5664 24.1218C53.6133 23.015 51.6602 21.9083 49.707 20.8015C49.7707 19.0731 49.7057 17.3804 49.5117 15.7234Z" fill="#FFA834"/>
<path fill-rule="evenodd" clip-rule="evenodd" d="M49.707 20.8C51.6602 21.9069 53.6133 23.0135 55.5664 24.1204C53.7322 25.3 51.8441 26.4069 49.9023 27.4407C47.8275 26.4008 45.8094 25.294 43.8477 24.1204C45.8588 23.1149 47.8119 22.0081 49.707 20.8Z" fill="#FFB556"/>
<path fill-rule="evenodd" clip-rule="evenodd" d="M37.4023 22.7532C37.5963 24.4102 37.6613 26.103 37.5977 27.8313C35.7486 28.9844 33.8607 30.0913 31.9336 31.1516C30.3773 30.3735 28.8799 29.4946 27.4414 28.5149C30.767 26.592 34.0873 24.6715 37.4023 22.7532Z" fill="#FF9912"/>
<path fill-rule="evenodd" clip-rule="evenodd" d="M37.4023 22.755C37.549 22.5454 37.7443 22.5128 37.9883 22.6573C41.3674 24.6077 44.7529 26.5608 48.1445 28.5167C46.6029 29.4497 45.0404 30.3286 43.457 31.1534C41.5039 30.0466 39.5508 28.9399 37.5977 27.8331C37.6613 26.1048 37.5963 24.412 37.4023 22.755Z" fill="#FFA834"/>
<path fill-rule="evenodd" clip-rule="evenodd" d="M61.6211 22.7532C61.815 24.4102 61.8801 26.103 61.8164 27.8313C59.9605 28.9874 58.0725 30.0942 56.1523 31.1516C54.6016 30.3758 53.1041 29.4969 51.6602 28.5149C54.9273 26.4911 58.2477 24.5706 61.6211 22.7532Z" fill="#FF9912"/>
<path fill-rule="evenodd" clip-rule="evenodd" d="M61.6211 22.7546C61.6328 22.6486 61.6979 22.5835 61.8164 22.5593C65.2922 24.506 68.7426 26.4917 72.168 28.5164C70.724 29.4984 69.2266 30.3773 67.6758 31.1531C65.7174 30.0439 63.7643 28.9373 61.8164 27.8328C61.8801 26.1044 61.815 24.4117 61.6211 22.7546Z" fill="#FFA834"/>
<path fill-rule="evenodd" clip-rule="evenodd" d="M37.5977 27.8313C39.5508 28.9381 41.5039 30.0448 43.457 31.1516C41.6229 32.3313 39.7348 33.4381 37.793 34.4719C35.7715 33.462 33.8184 32.3551 31.9336 31.1516C33.8607 30.0913 35.7486 28.9844 37.5977 27.8313Z" fill="#FFB556"/>
<path fill-rule="evenodd" clip-rule="evenodd" d="M61.8164 27.8313C63.7643 28.9358 65.7174 30.0424 67.6758 31.1516C65.8121 32.3286 63.8916 33.4352 61.9141 34.4719C59.9365 33.4352 58.016 32.3286 56.1523 31.1516C58.0725 30.0942 59.9605 28.9874 61.8164 27.8313Z" fill="#FFB556"/>
<path fill-rule="evenodd" clip-rule="evenodd" d="M25.6836 29.5906C29.1561 31.5318 32.6064 33.5175 36.0352 35.5476C34.4936 36.4806 32.9311 37.3595 31.3477 38.1843C29.4986 37.0312 27.6107 35.9244 25.6836 34.864C25.6836 33.1062 25.6836 31.3484 25.6836 29.5906Z" fill="#FFA834"/>
<path fill-rule="evenodd" clip-rule="evenodd" d="M25.6836 29.5906C25.6836 31.3484 25.6836 33.1062 25.6836 34.864C23.7564 35.9244 21.8686 37.0312 20.0195 38.1843C18.4361 37.3595 16.8736 36.4806 15.332 35.5476C18.764 33.5121 22.2146 31.5263 25.6836 29.5906Z" fill="#FF9913"/>
<path fill-rule="evenodd" clip-rule="evenodd" d="M49.9023 29.5906C49.9023 30.1765 49.9023 30.7625 49.9023 31.3484C46.9656 33.1423 43.9707 34.8351 40.9179 36.4265C40.5648 36.1517 40.1742 35.9238 39.746 35.7429C39.4857 35.6126 39.4857 35.4826 39.746 35.3523C43.1105 33.3777 46.4958 31.457 49.9023 29.5906Z" fill="#FF9A15"/>
<path fill-rule="evenodd" clip-rule="evenodd" d="M49.9023 29.5906C53.3475 31.574 56.798 33.5597 60.2539 35.5476C59.8482 35.8806 59.3926 36.1085 58.8867 36.2312C55.892 34.6037 52.8971 32.9759 49.9023 31.3484C49.9023 30.7625 49.9023 30.1765 49.9023 29.5906Z" fill="#FFA935"/>
<path fill-rule="evenodd" clip-rule="evenodd" d="M73.9258 29.5906C73.9258 31.3484 73.9258 33.1062 73.9258 34.864C72.0309 35.8755 70.208 36.9822 68.457 38.1843C66.8104 37.4585 65.2479 36.5796 63.7695 35.5476C67.1283 33.5105 70.5137 31.5248 73.9258 29.5906Z" fill="#FF9912"/>
<path fill-rule="evenodd" clip-rule="evenodd" d="M73.9258 29.5906C77.4293 31.473 80.8799 33.4585 84.2773 35.5476C82.8334 36.5296 81.3359 37.4085 79.7852 38.1843C77.8287 37.072 75.8756 35.9654 73.9258 34.864C73.9258 33.1062 73.9258 31.3484 73.9258 29.5906Z" fill="#FFA834"/>
<path fill-rule="evenodd" clip-rule="evenodd" d="M49.9023 31.3469C52.8971 32.9745 55.892 34.6022 58.8867 36.2297C59.4076 36.6204 59.9283 37.011 60.4492 37.4016C57.0377 39.4663 53.5871 41.4844 50.0977 43.4563C46.6457 41.3393 43.1301 39.3211 39.5508 37.4016C40.0408 37.1241 40.4967 36.7985 40.918 36.425C43.9707 34.8336 46.9656 33.1409 49.9023 31.3469Z" fill="#FFE476"/>
<path fill-rule="evenodd" clip-rule="evenodd" d="M73.9258 34.8625C75.8756 35.9639 77.8287 37.0706 79.7852 38.1829C77.9215 39.3598 76.001 40.4665 74.0234 41.5032C72.0779 40.5155 70.2225 39.4088 68.457 38.1829C70.208 36.9807 72.0309 35.8741 73.9258 34.8625Z" fill="#FFB556"/>
<path fill-rule="evenodd" clip-rule="evenodd" d="M25.6836 34.8625C27.6107 35.9229 29.4986 37.0297 31.3477 38.1829C29.5234 39.3194 27.668 40.4262 25.7812 41.5032C23.8037 40.4665 21.8832 39.3598 20.0195 38.1829C21.8686 37.0297 23.7564 35.9229 25.6836 34.8625Z" fill="#FFB556"/>
<path fill-rule="evenodd" clip-rule="evenodd" d="M13.5742 36.6218C13.5742 38.3796 13.5742 40.1375 13.5742 41.8953C11.9247 42.7949 10.2971 43.7388 8.69141 44.7273C8.39357 44.9244 8.06805 45.022 7.71484 45.0203C6.21398 44.3345 4.78168 43.5209 3.41797 42.5789C6.73061 40.471 10.116 38.4853 13.5742 36.6218Z" fill="#FF9912"/>
<path fill-rule="evenodd" clip-rule="evenodd" d="M37.793 36.6218C37.793 38.3796 37.793 40.1375 37.793 41.8953C35.9822 42.8009 34.2244 43.8101 32.5195 44.9226C32.267 45.0183 32.0064 45.0509 31.7383 45.0203C30.3344 44.1728 28.9021 43.3589 27.4414 42.5789C30.8389 40.4898 34.2895 38.5042 37.793 36.6218Z" fill="#FF9913"/>
<path fill-rule="evenodd" clip-rule="evenodd" d="M37.793 36.6218C38.3789 36.8822 38.9648 37.1427 39.5508 37.4031C39.5508 39.2259 39.5508 41.049 39.5508 42.8718C38.9963 42.4968 38.4104 42.1712 37.793 41.8953C37.793 40.1375 37.793 38.3796 37.793 36.6218Z" fill="#FFA834"/>
<path fill-rule="evenodd" clip-rule="evenodd" d="M62.0117 36.6218C65.4807 38.5576 68.9313 40.5433 72.3633 42.5789C70.8225 43.5023 69.26 44.3812 67.6758 45.2156C65.7877 44.0107 63.8346 42.9039 61.8164 41.8953C62.0061 40.1539 62.0711 38.396 62.0117 36.6218Z" fill="#FFA834"/>
<path fill-rule="evenodd" clip-rule="evenodd" d="M86.0352 36.6218C89.5387 38.5042 92.9893 40.4898 96.3867 42.5789C94.9084 43.6109 93.3459 44.4898 91.6992 45.2156C89.909 43.9617 88.0211 42.8548 86.0352 41.8953C86.0352 40.1375 86.0352 38.3796 86.0352 36.6218Z" fill="#FFA834"/>
<path fill-rule="evenodd" clip-rule="evenodd" d="M13.5742 36.6218C15.0268 37.3158 16.4591 38.0644 17.8711 38.8679C19.8893 40.1048 21.9076 41.3419 23.9258 42.5789C22.3842 43.5119 20.8217 44.3908 19.2383 45.2156C17.4481 43.9617 15.5601 42.8548 13.5742 41.8953C13.5742 40.1375 13.5742 38.3796 13.5742 36.6218Z" fill="#FFA834"/>
<path fill-rule="evenodd" clip-rule="evenodd" d="M62.0117 36.6218C62.0711 38.396 62.0061 40.1539 61.8164 41.8953C61.4225 42.0962 61.0318 42.2916 60.6445 42.4812C60.6445 40.7884 60.6445 39.0958 60.6445 37.4031C61.0031 36.9953 61.4588 36.7349 62.0117 36.6218Z" fill="#FF9A14"/>
<path fill-rule="evenodd" clip-rule="evenodd" d="M86.0352 36.6218C86.0352 38.3796 86.0352 40.1375 86.0352 41.8953C84.1305 43.0427 82.1773 44.0843 80.1758 45.0203C78.7225 44.2605 77.2902 43.4468 75.8789 42.5789C79.2377 40.5417 82.623 38.556 86.0352 36.6218Z" fill="#FF9912"/>
<path fill-rule="evenodd" clip-rule="evenodd" d="M39.5508 37.4031C43.1301 39.3226 46.6457 41.3408 50.0976 43.4578C50.0336 45.5761 50.0988 47.6595 50.2929 49.7078C50.2812 49.8138 50.2162 49.8789 50.0976 49.9031C49.7572 49.6027 49.3666 49.4074 48.9258 49.3171C47.4679 48.3595 45.9705 47.448 44.4336 46.5828C43.9574 46.2376 43.4365 45.9771 42.8711 45.8015C41.874 45.139 40.8324 44.5205 39.7461 43.946C39.5691 43.6142 39.5041 43.256 39.5508 42.8718C39.5508 41.049 39.5508 39.2259 39.5508 37.4031Z" fill="#FED944"/>
<path fill-rule="evenodd" clip-rule="evenodd" d="M60.4496 37.4031C60.5146 37.4031 60.5799 37.4031 60.6449 37.4031C60.6449 39.0958 60.6449 40.7884 60.6449 42.4812C60.7051 42.9546 60.6398 43.4103 60.4496 43.8484C59.3482 44.4341 58.3064 45.0851 57.3246 45.8015C56.6879 46.0503 56.1019 46.3757 55.5668 46.7781C53.9387 47.5916 52.3762 48.5031 50.8793 49.5125C50.6627 49.5236 50.4674 49.5886 50.2933 49.7078C50.0992 47.6595 50.034 45.5761 50.098 43.4578C53.5875 41.4859 57.0381 39.4677 60.4496 37.4031Z" fill="#FED222"/>
<path fill-rule="evenodd" clip-rule="evenodd" d="M13.5742 41.8938C15.5601 42.8534 17.4481 43.9602 19.2383 45.2141C17.4141 46.3506 15.5586 47.4575 13.6719 48.5344C11.6609 47.3833 9.67525 46.2114 7.71484 45.0188C8.06805 45.0206 8.39357 44.9229 8.69141 44.7258C10.2971 43.7374 11.9247 42.7934 13.5742 41.8938Z" fill="#FFB556"/>
<path fill-rule="evenodd" clip-rule="evenodd" d="M37.793 41.8938C38.4104 42.1698 38.9963 42.4954 39.5508 42.8704C39.5041 43.2545 39.5691 43.6127 39.7461 43.9446C40.8324 44.519 41.874 45.1375 42.8711 45.8C41.1414 46.586 39.4812 47.4975 37.8906 48.5344C35.809 47.3924 33.7582 46.2206 31.7383 45.0188C32.0064 45.0495 32.267 45.0168 32.5195 44.9211C34.2244 43.8086 35.9822 42.7995 37.793 41.8938Z" fill="#FFB656"/>
<path fill-rule="evenodd" clip-rule="evenodd" d="M61.8164 41.8938C63.8346 42.9024 65.7877 44.0092 67.6758 45.2141C65.8322 46.3649 63.9441 47.4717 62.0117 48.5344C60.4369 47.6178 58.8744 46.7063 57.3242 45.8C58.3061 45.0836 59.3479 44.4327 60.4492 43.8469C60.6395 43.4088 60.7047 42.9532 60.6445 42.4797C61.0318 42.2901 61.4225 42.0948 61.8164 41.8938Z" fill="#FFB656"/>
<path fill-rule="evenodd" clip-rule="evenodd" d="M86.0352 41.8938C88.0211 42.8534 89.909 43.9602 91.6992 45.2141C89.9537 46.4139 88.1309 47.5208 86.2305 48.5344C84.168 47.4067 82.1498 46.2348 80.1758 45.0188C82.1773 44.0829 84.1305 43.0413 86.0352 41.8938Z" fill="#FFB556"/>
<path fill-rule="evenodd" clip-rule="evenodd" d="M99.902 42.675C99.902 44.9538 99.902 47.2323 99.902 49.511C83.3004 59.1463 66.6989 68.7819 50.0973 78.4172C50.0364 76.0579 50.1014 73.7141 50.2926 71.386C66.7705 61.7147 83.3071 52.1444 99.902 42.675Z" fill="#FF9911"/>
<path fill-rule="evenodd" clip-rule="evenodd" d="M25.6836 43.6531C25.6836 45.4109 25.6836 47.1687 25.6836 48.9265C23.7742 50.0556 21.8211 51.0974 19.8242 52.0515C18.326 51.3029 16.8937 50.4566 15.5273 49.5125C18.8596 47.456 22.2451 45.5029 25.6836 43.6531Z" fill="#FF9912"/>
<path fill-rule="evenodd" clip-rule="evenodd" d="M31.7383 52.0515C29.6977 51.0636 27.6795 50.022 25.6836 48.9265C25.6836 47.1687 25.6836 45.4109 25.6836 43.6531C29.1461 45.4214 32.5965 47.3746 36.0352 49.5125C34.6564 50.4617 33.2242 51.3082 31.7383 52.0515Z" fill="#FFA834"/>
<path fill-rule="evenodd" clip-rule="evenodd" d="M74.1211 43.6531C77.6246 45.5355 81.0752 47.521 84.4727 49.6101C83.0119 50.3902 81.5797 51.2041 80.1758 52.0515C78.0445 51.0888 75.9613 50.0472 73.9258 48.9265C74.1154 47.1851 74.1805 45.4273 74.1211 43.6531Z" fill="#FFA834"/>
<path fill-rule="evenodd" clip-rule="evenodd" d="M74.1211 43.6531C74.1805 45.4273 74.1154 47.1851 73.9258 48.9265C72.0211 50.074 70.068 51.1156 68.0664 52.0515C66.6625 51.2041 65.2303 50.3902 63.7695 49.6101C67.167 47.521 70.6176 45.5355 74.1211 43.6531Z" fill="#FF9913"/>
<path fill-rule="evenodd" clip-rule="evenodd" d="M44.4336 46.5813C45.9705 47.4465 47.468 48.3581 48.9258 49.3157C47.3943 50.3749 45.7668 51.2864 44.043 52.05C42.5561 51.2411 41.0588 50.4272 39.5508 49.6086C41.1908 48.5946 42.8186 47.5856 44.4336 46.5813Z" fill="#FF9913"/>
<path fill-rule="evenodd" clip-rule="evenodd" d="M55.5664 46.7781C57.1234 47.6873 58.6859 48.5988 60.2539 49.5125C58.8807 50.4595 57.4482 51.3058 55.957 52.0515C54.2121 51.3091 52.5193 50.4628 50.8789 49.5125C52.3758 48.5031 53.9383 47.5916 55.5664 46.7781Z" fill="#FFA834"/>
<path fill-rule="evenodd" clip-rule="evenodd" d="M25.6836 48.925C27.6795 50.0206 29.6977 51.0622 31.7383 52.05C29.7975 53.2168 27.8443 54.3887 25.8789 55.5657C23.8164 54.4379 21.7982 53.2661 19.8242 52.05C21.8211 51.0959 23.7742 50.0542 25.6836 48.925Z" fill="#FFB556"/>
<path fill-rule="evenodd" clip-rule="evenodd" d="M73.9258 48.925C75.9613 50.0458 78.0445 51.0874 80.1758 52.05C78.1652 53.2096 76.1471 54.3815 74.1211 55.5657C72.0912 54.3752 70.073 53.2034 68.0664 52.05C70.068 51.1141 72.0211 50.0725 73.9258 48.925Z" fill="#FFB556"/>
<path fill-rule="evenodd" clip-rule="evenodd" d="M48.9258 49.3157C49.3666 49.4059 49.7572 49.6012 50.0977 49.9016C50.2162 49.8774 50.2812 49.8124 50.293 49.7063C50.467 49.5872 50.6623 49.5221 50.8789 49.511C52.5193 50.4614 54.2121 51.3077 55.957 52.05C53.983 53.2661 51.9648 54.4379 49.9023 55.5657C47.9369 54.3887 45.9838 53.2168 44.043 52.05C45.7668 51.2864 47.3943 50.3749 48.9258 49.3157Z" fill="#FFB556"/>
<path fill-rule="evenodd" clip-rule="evenodd" d="M-0.0976562 49.5125C16.5305 59.0312 33.132 68.6015 49.707 78.2234C49.9674 79.0697 49.9674 79.9162 49.707 80.7625C33.1266 71.1382 16.5251 61.5679 -0.0976562 52.0515C-0.0976562 51.2052 -0.0976562 50.3587 -0.0976562 49.5125Z" fill="#FFB556"/>
<path fill-rule="evenodd" clip-rule="evenodd" d="M99.9023 49.5125C99.9023 50.3587 99.9023 51.2052 99.9023 52.0515C83.3326 61.6712 66.7311 71.2416 50.0977 80.7625C50.0977 79.9812 50.0977 79.2 50.0977 78.4187C66.6992 68.7833 83.3008 59.1478 99.9023 49.5125Z" fill="#FFA733"/>
<path fill-rule="evenodd" clip-rule="evenodd" d="M37.5977 50.6843C37.7916 52.4066 37.8568 54.1644 37.793 55.9578C35.8398 56.9994 33.8867 58.0412 31.9336 59.0828C30.5047 58.2417 29.0725 57.3955 27.6367 56.5437C30.9303 54.539 34.2506 52.5859 37.5977 50.6843Z" fill="#FF9912"/>
<path fill-rule="evenodd" clip-rule="evenodd" d="M37.5977 50.6829C37.6094 50.5768 37.6744 50.5118 37.793 50.4875C41.2756 52.4565 44.7262 54.4747 48.1445 56.5422C46.7713 57.4893 45.3389 58.3356 43.8477 59.0813C41.8346 58.0487 39.8164 57.0069 37.793 55.9563C37.8568 54.1629 37.7916 52.4051 37.5977 50.6829Z" fill="#FFA834"/>
<path fill-rule="evenodd" clip-rule="evenodd" d="M61.8164 50.6843C62.0732 52.423 62.0732 54.1808 61.8164 55.9578C59.9545 57.0513 58.0664 58.0931 56.1523 59.0828C54.6611 58.3371 53.2287 57.4908 51.8555 56.5437C55.149 54.539 58.4693 52.5859 61.8164 50.6843Z" fill="#FF9912"/>
<path fill-rule="evenodd" clip-rule="evenodd" d="M61.8164 50.6829C61.8281 50.5768 61.8932 50.5118 62.0117 50.4875C65.4943 52.4565 68.9449 54.4747 72.3633 56.5422C70.9275 57.394 69.4953 58.2403 68.0664 59.0813C65.983 58.0397 63.8998 56.9979 61.8164 55.9563C62.0732 54.1793 62.0732 52.4215 61.8164 50.6829Z" fill="#FFA834"/>
<path fill-rule="evenodd" clip-rule="evenodd" d="M-0.0976562 42.675C16.2965 51.9793 32.6377 61.3868 48.9258 70.8977C49.3457 71.1733 49.8016 71.3362 50.293 71.386C50.1018 73.7141 50.0367 76.0579 50.0977 78.4172C50.0977 79.1985 50.0977 79.9797 50.0977 80.761C49.973 82.5959 50.1033 84.3538 50.4883 86.0344C50.4068 86.1563 50.2766 86.2213 50.0977 86.2297C49.5549 86.0561 49.0342 85.8282 48.5352 85.5461C32.3773 76.1004 16.1664 66.7579 -0.0976562 57.5188C-0.0976562 55.6959 -0.0976562 53.8729 -0.0976562 52.05C16.5251 61.5665 33.1266 71.1368 49.707 80.761C49.9674 79.9147 49.9674 79.0682 49.707 78.2219C33.132 68.6 16.5304 59.0297 -0.0976562 49.511C-0.0976562 47.2323 -0.0976562 44.9538 -0.0976562 42.675Z" fill="#FFA834"/>
<path fill-rule="evenodd" clip-rule="evenodd" d="M99.9021 52.05C99.9021 53.8729 99.9021 55.6959 99.9021 57.5188C83.4309 67.0241 66.9594 76.5292 50.4881 86.0344C50.1031 84.3538 49.9728 82.5959 50.0975 80.761C66.7309 71.2401 83.3324 61.6698 99.9021 52.05Z" fill="#FF9913"/>
<path fill-rule="evenodd" clip-rule="evenodd" d="M37.793 55.9563C39.8164 57.0069 41.8346 58.0487 43.8477 59.0813C41.941 60.3118 39.9555 61.4184 37.8906 62.4016C35.8799 61.3336 33.8941 60.2268 31.9336 59.0813C33.8867 58.0397 35.8398 56.9979 37.793 55.9563Z" fill="#FFB556"/>
<path fill-rule="evenodd" clip-rule="evenodd" d="M61.8164 55.9563C63.8998 56.9979 65.983 58.0397 68.0664 59.0813C66.1092 60.2727 64.1234 61.4446 62.1094 62.5969C60.0953 61.4446 58.1096 60.2727 56.1523 59.0813C58.0664 58.0917 59.9545 57.0499 61.8164 55.9563Z" fill="#FFB556"/>
<path fill-rule="evenodd" clip-rule="evenodd" d="M49.707 57.7156C49.901 59.3726 49.966 61.0654 49.9023 62.7937C48.0533 63.9468 46.1654 65.0537 44.2383 66.114C42.6875 65.3382 41.19 64.4593 39.7461 63.4773C43.0717 61.5544 46.392 59.6339 49.707 57.7156Z" fill="#FF9912"/>
<path fill-rule="evenodd" clip-rule="evenodd" d="M49.707 57.7141C49.7188 57.6081 49.7838 57.543 49.9023 57.5188C53.3455 59.4329 56.7635 61.386 60.1562 63.3782C60.2906 63.5407 60.258 63.6708 60.0586 63.7688C58.6881 64.5555 57.3209 65.3368 55.957 66.1125C53.9127 65.0579 51.8945 63.951 49.9023 62.7922C49.966 61.0639 49.901 59.3711 49.707 57.7141Z" fill="#FFA834"/>
<path fill-rule="evenodd" clip-rule="evenodd" d="M49.9023 62.7937C51.8945 63.9525 53.9127 65.0593 55.957 66.114C54.0723 67.3175 52.1191 68.4244 50.0977 69.4343C48.0762 68.4244 46.123 67.3175 44.2383 66.114C46.1654 65.0537 48.0533 63.9468 49.9023 62.7937Z" fill="#FFB556"/>
</g>
<defs>
<clipPath id="clip0_190_4736">
<rect width="100" height="100" fill="white"/>
</clipPath>
</defs>
</svg>
