<svg width="100" height="100" viewBox="0 0 100 100" fill="none" xmlns="http://www.w3.org/2000/svg">
<path d="M74.9269 37.4645C79.8623 32.529 82.7602 33.5103 77.8248 28.5686L71.3186 22.0665C66.3831 17.1311 65.2811 20.0311 60.3436 24.9645L14.1186 65.6124C9.18314 70.5478 9.18314 78.5519 14.1186 83.4915L16.4186 85.879C21.3561 90.8144 29.3623 90.8144 34.2977 85.879L74.9269 37.4645Z" fill="#8BC34A"/>
<path d="M60.9981 43.4312C55.171 49.2812 47.6106 56.8853 40.4668 64.1145C30.3043 74.3978 26.5814 81.2166 24.8772 83.9999C21.7272 84.3207 18.8481 84.427 16.5918 83.2957C15.6877 80.5853 16.3543 77.4811 17.0564 74.3228C21.1314 71.7791 27.3689 67.6041 35.5314 59.3853C42.3585 52.5103 49.5293 45.2853 55.196 39.5707C54.0522 39.3832 52.9335 38.5687 52.6335 37.3541C52.5647 37.0687 52.5418 36.7249 52.5356 36.3687L18.7127 69.002C15.8668 71.8499 6.72933 77.4041 15.3772 84.7041C23.2335 94.1041 28.6897 83.3041 31.5397 80.4603L63.4856 45.9749C62.6356 45.2395 61.8606 44.0561 61.9106 42.9124C61.7043 43.1624 61.3793 43.3291 60.9981 43.4312Z" fill="#689F38"/>
<path d="M83.8021 20.3964C90.6751 21.3402 87.2355 26.3797 85.9876 26.6902C91.6063 29.8443 89.4251 34.2485 87.5501 33.3068C88.4896 34.5693 89.4251 35.1964 89.4251 38.9756C89.4251 39.9193 88.1709 41.4985 84.7376 39.9193C85.9876 41.1777 87.5501 44.6422 86.3001 46.8547C85.673 47.7985 84.1105 47.7985 83.4834 47.1652C83.8001 49.0547 83.8001 54.7214 80.9855 55.6714C77.2334 57.5589 76.6063 54.411 75.3626 52.5193C74.7355 57.8756 69.7397 55.036 70.048 52.2027C64.7376 55.6714 63.1709 51.2589 65.0522 49.0547C60.9876 52.8339 57.8626 50.3172 59.1105 47.1652C57.5522 49.0547 49.7376 48.7402 53.173 42.1277C52.2376 43.0714 45.3605 43.0714 48.798 38.3506C45.3605 39.6047 40.048 36.1381 45.6751 32.6797C41.923 32.6797 38.7938 29.8464 42.2334 27.6443C36.6084 25.7464 41.298 23.2318 43.7959 21.9714C42.5522 21.3422 39.1126 20.0818 44.4209 18.1922C42.5542 16.3047 45.9834 15.3589 50.9792 15.9902C49.423 14.0964 51.6084 9.37349 60.3605 14.4152C58.798 10.3172 61.923 9.37349 66.298 11.5777C65.6709 9.68807 70.9813 10.3172 72.2313 12.8381C74.4251 10.0006 79.7355 11.2631 79.1126 15.3568C81.6126 13.7839 86.6084 16.9277 83.8021 20.3964Z" fill="#558B2F"/>
<path d="M70.3855 20.1478C70.1188 17.9978 68.3313 16.0978 66.0438 16.2853C64.8563 16.3832 63.5563 18.8144 64.998 19.4311C64.1209 17.4332 60.723 17.3561 58.9751 17.6248C57.7917 17.804 56.798 18.5457 57.0313 19.8957C57.298 21.4373 58.7292 21.5728 59.9501 21.854C57.9188 20.4457 53.5896 21.4998 52.0771 23.2936C51.5501 23.9144 50.6626 25.304 51.2292 26.1311C51.7667 26.9144 53.4917 27.0665 54.2917 26.7957C52.198 27.1457 49.7376 29.3269 49.2771 31.4623C49.0834 32.3665 49.1834 33.4832 50.1855 33.7519C51.1126 34.0123 53.1521 33.7894 53.5334 32.6894C52.7001 33.7436 52.3084 36.0498 52.6292 37.3561C53.2355 39.8061 57.2022 40.7665 57.9501 37.9061C57.3001 38.9478 56.9501 41.2936 57.5251 42.4165C58.3146 43.9665 62.6042 44.0686 62.1563 41.9603C61.2688 43.5519 62.7376 45.5561 63.9813 46.354C65.9647 47.6373 70.5001 48.6561 70.5917 44.929C70.6084 47.0186 81.4438 30.9644 79.848 31.5228C81.273 31.3936 83.1438 29.8248 82.3334 28.1748C81.4542 26.3769 77.9584 25.9665 76.6251 27.2353C77.6334 26.5019 80.3709 24.1228 78.6084 22.7915C77.1209 21.6623 74.3105 22.0519 73.3209 23.6332C74.4001 22.6498 75.8876 21.479 75.7626 19.7894C75.6938 18.8415 74.5855 18.0998 73.7313 17.8644C73.0584 17.6811 71.9647 17.7165 71.3501 18.1457C70.9042 18.4582 70.6501 19.254 70.3813 19.504" fill="#7CB342"/>
<path d="M68.0835 26.95C66.5085 27.7833 65.8252 29.1375 67.2127 30.502C65.621 29.5354 59.6856 30.4562 61.1085 33.5C61.5772 34.4979 63.5793 34.2271 64.3418 33.8312C62.8189 34.425 59.6731 36.3083 59.7418 38.3896C59.8356 41.2312 64.3314 42.075 65.2231 39.5562C64.5481 41.7354 63.1397 44.4687 65.2064 46.4187C67.6814 48.752 71.8481 47.1041 72.8856 44.3041C71.8002 46.6479 74.2606 48.4666 76.4252 47.3104C79.021 45.9145 79.0085 43.0979 77.0147 41.1146C78.671 41.6687 80.996 41.6395 82.0647 39.9187C84.1356 36.5812 80.3189 35.8229 77.7522 35.8146C79.1314 35.3021 82.0981 32.5479 81.0439 30.6604C79.7752 28.3812 75.5335 29.6687 73.8418 31.4416C74.6106 30.5291 75.8022 29.1583 75.021 28.2812C73.2418 26.2708 71.9106 29.075 71.9106 31.0562C71.9106 31.0562 71.5689 26 68.0835 26.95Z" fill="#33691E"/>
<path d="M16.8169 70.7022C16.3607 68.5022 16.2878 66.0418 16.7273 63.3188L14.119 65.6147C9.65443 70.0793 9.26901 77.0293 12.8794 81.9772C9.75235 77.1876 13.8107 73.323 16.8169 70.7022Z" fill="#DCEDC8"/>
<path d="M29.6272 82.7604C26.9876 86.1 23.1334 90.6604 18.1313 87.2813C23.0626 90.7313 29.8938 90.2833 34.2959 85.8813L37.473 82.0938C34.9043 82.9521 32.2043 83.1542 29.6272 82.7604Z" fill="#DCEDC8"/>
<path d="M15.2565 84.7673C12.8149 82.3298 12.9565 78.5048 15.2565 75.9298C17.017 73.9569 20.694 71.9048 20.694 71.9048C20.694 71.9048 19.1211 77.6673 20.7378 79.286C22.4065 80.9548 27.9732 79.4235 27.919 79.3277C27.8649 79.2319 26.7607 82.2652 24.092 84.7673C21.2149 87.4631 17.6961 87.2069 15.2565 84.7673Z" fill="#DCEDC8"/>
</svg>
