<svg width="100" height="100" viewBox="0 0 100 100" fill="none" xmlns="http://www.w3.org/2000/svg">
<g clip-path="url(#clip0_190_2674)">
<path d="M86.8827 35.0971C86.8827 40.4588 82.5706 44.8 77.248 44.8H25.9191C20.5965 44.8 16.2827 40.4588 16.2827 35.0971C16.2827 29.7438 20.5965 25.4 25.9191 25.4H77.248C82.5706 25.4 86.8827 29.7438 86.8827 35.0971Z" fill="#F2B98C"/>
<path d="M39.2826 26.0978L35.9826 29.3999L32.6826 26.0978L35.9826 22.7999L39.2826 26.0978Z" fill="#49220C"/>
<path d="M49.8827 26.0978L46.5823 29.3999L43.2827 26.0978L46.5823 22.7999L49.8827 26.0978Z" fill="#49220C"/>
<path d="M60.2826 26.0978L56.9839 29.3999L53.6826 26.0978L56.9839 22.7999L60.2826 26.0978Z" fill="#49220C"/>
<path d="M70.6827 26.0978L67.4827 29.3999L64.2827 26.0978L67.4827 22.7999L70.6827 26.0978Z" fill="#49220C"/>
<path d="M81.2826 26.0978L77.9822 29.3999L74.6826 26.0978L77.9822 22.7999L81.2826 26.0978Z" fill="#49220C"/>
<path d="M28.8827 26.0978L25.5814 29.3999L22.2827 26.0978L25.5814 22.7999L28.8827 26.0978Z" fill="#49220C"/>
<path d="M32.6827 31.5001C32.6827 32.7684 31.6968 33.8 30.4835 33.8C29.2687 33.8 28.2827 32.7684 28.2827 31.5001C28.2827 30.2317 29.2687 29.2 30.4835 29.2C31.6968 29.2 32.6827 30.2317 32.6827 31.5001Z" fill="#49220C"/>
<path d="M43.2826 31.5001C43.2826 32.7684 42.252 33.8 40.9822 33.8C39.7124 33.8 38.6826 32.7684 38.6826 31.5001C38.6826 30.2317 39.7124 29.2 40.9822 29.2C42.252 29.2 43.2826 30.2317 43.2826 31.5001Z" fill="#49220C"/>
<path d="M53.8827 31.5001C53.8827 32.7684 52.8526 33.8 51.5823 33.8C50.312 33.8 49.2827 32.7684 49.2827 31.5001C49.2827 30.2317 50.312 29.2 51.5823 29.2C52.8526 29.2 53.8827 30.2317 53.8827 31.5001Z" fill="#49220C"/>
<path d="M64.2828 31.5001C64.2828 32.7684 63.2985 33.8 62.082 33.8C60.8671 33.8 59.8828 32.7684 59.8828 31.5001C59.8828 30.2317 60.8671 29.2 62.082 29.2C63.2985 29.2 64.2828 30.2317 64.2828 31.5001Z" fill="#49220C"/>
<path d="M74.8827 31.5001C74.8827 32.7684 73.8521 33.8 72.584 33.8C71.3124 33.8 70.2827 32.7684 70.2827 31.5001C70.2827 30.2317 71.3124 29.2 72.584 29.2C73.8521 29.2 74.8827 30.2317 74.8827 31.5001Z" fill="#49220C"/>
<path d="M91.8286 35.4H16.083C16.083 35.4 20.0231 78.2 37.0169 78.2C42.7686 78.2 60.3274 78.2 66.0791 78.2C74.5777 78.2 79.8093 67.5041 82.919 56.8H91.8286C96.828 56.8 100.883 52.7527 100.883 47.7579V44.442C100.883 39.4556 96.828 35.4 91.8286 35.4ZM95.4475 47.7579C95.4475 49.7525 93.824 51.3814 91.8286 51.3814H84.3261C85.2556 47.3923 85.903 43.6691 86.3249 40.8268H91.8286C93.824 40.8268 95.4475 42.4557 95.4475 44.442V47.7579Z" fill="#49220C"/>
<path d="M46.483 68.4842V73.939C40.9577 73.939 32.3048 76.1193 27.083 54.4H32.7093C36.9903 70.6644 41.4255 68.4842 46.483 68.4842Z" fill="#EEEEED"/>
<path d="M66.0829 83.6001H37.4829V78.2001H66.0829V83.6001Z" fill="#49220C"/>
<path d="M69.0828 90.3999H36.8828V85.7999H69.0828V90.3999Z" fill="#DCA47D"/>
<path d="M16.2827 76.7999C16.2827 91.1525 89.6827 90.7123 89.6827 76.7999H16.2827Z" fill="#F2B98C"/>
</g>
<defs>
<clipPath id="clip0_190_2674">
<rect width="100" height="100" fill="white"/>
</clipPath>
</defs>
</svg>
