<svg width="100" height="100" viewBox="0 0 100 100" fill="none" xmlns="http://www.w3.org/2000/svg">
<path d="M38.3335 11.0405C38.9585 10.6239 40.2085 10.4155 41.8752 10.4155C54.1668 10.6239 91.8752 23.3322 91.8752 31.2489C91.8752 40.2072 66.8752 66.6655 58.5418 66.6655C50.2085 66.6655 33.7502 15.2072 38.3335 11.0405Z" fill="#FFA000"/>
<path d="M66.6663 42.2905C66.6663 48.3322 64.583 57.0822 61.458 65.8322C60.208 66.2489 59.3747 66.6655 58.333 66.6655C57.4997 66.6655 56.2497 66.0405 55.208 64.7905C58.1247 56.4572 60.4163 48.1239 60.208 42.4989C60.208 39.1655 59.7913 36.8739 58.1247 36.2489C56.8747 35.8322 55.208 35.4155 53.1247 35.4155C52.9163 35.4155 52.708 35.4155 52.4997 35.4155C49.583 35.4155 45.833 35.8322 42.083 36.4572C41.458 34.3739 40.833 32.2905 40.208 30.4155C44.583 29.7905 48.7497 29.1655 52.4997 29.1655C52.708 29.1655 52.9163 29.1655 53.1247 29.1655C56.2497 29.1655 58.5413 29.5822 60.4163 30.4155C66.458 32.9155 66.6663 39.7905 66.6663 42.2905ZM75.208 38.5405C75.208 40.2072 76.6663 41.6655 78.333 41.6655C79.9997 41.6655 81.458 40.2072 81.458 38.5405C81.458 36.8739 79.9997 35.4155 78.333 35.4155C76.6663 35.4155 75.208 36.8739 75.208 38.5405ZM62.708 22.9155C62.708 23.9572 63.5413 24.9989 64.7913 24.9989C65.833 24.9989 66.8747 24.1655 66.8747 22.9155C66.8747 21.6655 66.0413 20.8322 64.7913 20.8322C63.5413 20.8322 62.708 21.8739 62.708 22.9155ZM43.5413 18.1239C43.5413 19.1655 44.3747 20.2072 45.6247 20.2072C46.6663 20.2072 47.708 19.3739 47.708 18.1239C47.708 16.8739 46.8747 16.0405 45.6247 16.0405C44.3747 16.0405 43.5413 17.0822 43.5413 18.1239ZM77.2913 29.1655C77.2913 30.2072 78.1247 31.2489 79.3747 31.2489C80.6247 31.2489 81.458 30.4155 81.458 29.1655C81.458 27.9155 80.6247 27.0822 79.3747 27.0822C78.1247 27.0822 77.2913 28.1239 77.2913 29.1655ZM68.7497 49.9989C68.7497 51.0405 69.583 52.0822 70.833 52.0822C71.8747 52.0822 72.9163 51.2489 72.9163 49.9989C72.9163 48.9572 72.083 47.9155 70.833 47.9155C69.7913 47.9155 68.7497 48.9572 68.7497 49.9989Z" fill="#F57F17"/>
<path d="M8.33361 45.8336C10.2086 41.042 39.7919 33.1253 53.3336 33.3336C55.4169 33.3336 57.0836 33.542 58.3336 34.167C60.0003 34.792 60.4169 37.0836 60.4169 40.417C60.6253 55.2086 47.7086 89.5836 41.6669 89.5836C34.3753 89.5836 6.04194 51.4586 8.33361 45.8336Z" fill="#FFC107"/>
<path d="M50.0003 41.6678C51.2503 41.6678 52.0837 42.5011 52.0837 43.7511C52.0837 45.0011 51.2503 45.8345 50.0003 45.8345C48.7503 45.8345 47.917 45.0011 47.917 43.7511C47.917 42.5011 48.7503 41.6678 50.0003 41.6678ZM31.2503 41.6678C31.2503 42.9178 32.0837 43.7511 33.3337 43.7511C34.5837 43.7511 35.417 42.9178 35.417 41.6678C35.417 40.4178 34.5837 39.5845 33.3337 39.5845C32.0837 39.5845 31.2503 40.4178 31.2503 41.6678ZM22.917 54.1678C22.917 55.4178 23.7503 56.2511 25.0003 56.2511C26.2503 56.2511 27.0837 55.4178 27.0837 54.1678C27.0837 52.9178 26.2503 52.0845 25.0003 52.0845C23.7503 52.0845 22.917 52.9178 22.917 54.1678ZM45.8337 55.2095C45.8337 56.8761 47.292 58.3345 48.9587 58.3345C50.6253 58.3345 52.0837 56.8761 52.0837 55.2095C52.0837 53.5428 50.6253 52.0845 48.9587 52.0845C47.292 52.0845 45.8337 53.5428 45.8337 55.2095ZM26.8753 65.6261C26.8753 67.2928 28.3337 68.7511 30.0003 68.7511C31.667 68.7511 33.1253 67.2928 33.1253 65.6261C33.1253 63.9595 31.667 62.5011 30.0003 62.5011C28.3337 62.5011 26.8753 63.9595 26.8753 65.6261ZM41.667 66.6678C41.667 67.7095 42.5003 68.7511 43.7503 68.7511C44.792 68.7511 45.8337 67.9178 45.8337 66.6678C45.8337 65.6261 45.0003 64.5845 43.7503 64.5845C42.7087 64.5845 41.667 65.6261 41.667 66.6678ZM39.5837 79.1678C39.5837 80.2095 40.417 81.2511 41.667 81.2511C42.7087 81.2511 43.7503 80.4178 43.7503 79.1678C43.7503 78.1261 42.917 77.0845 41.667 77.0845C40.6253 77.0845 39.5837 78.1261 39.5837 79.1678ZM35.417 53.1261C35.417 53.7511 35.8337 54.1678 36.4587 54.1678C37.0837 54.1678 37.5003 53.7511 37.5003 53.1261C37.5003 52.5011 37.0837 52.0845 36.4587 52.0845C35.8337 52.0845 35.417 52.5011 35.417 53.1261Z" fill="#F9A825"/>
</svg>
