<svg width="100" height="100" viewBox="0 0 100 100" fill="none" xmlns="http://www.w3.org/2000/svg">
<path d="M41.2501 89.5838C39.7917 89.5838 38.3334 89.5838 36.8751 89.3755C27.2917 88.3338 19.3751 83.7505 15.0001 76.4588C4.37506 59.1671 15.2084 49.3755 25.6251 40.2088C28.3334 37.7088 31.2501 35.2088 33.7501 32.5005C34.5834 31.6671 35.4167 30.6255 36.2501 29.7921C47.5001 17.2921 60.0001 3.12545 77.5001 15.2088C84.5834 20.2088 88.75 27.7088 89.7917 37.0838C91.0417 50.0005 85.6251 64.7921 75.8334 75.0005C66.2501 84.1671 53.5417 89.5838 41.2501 89.5838Z" fill="#8D6E63"/>
<path d="M41.25 89.5833C39.7917 89.5833 38.3333 89.5833 36.875 89.375C27.2917 88.3333 19.375 83.75 15 76.4583C12.0833 71.6667 10.8333 67.7083 10.625 63.9583C30.8333 82.2917 80.625 68.5417 89.5833 36.875C90.8333 49.7917 85.4167 64.5833 75.625 74.7917C66.25 84.1667 53.5417 89.5833 41.25 89.5833Z" fill="#795548"/>
<path d="M46.875 83.3345C48.6009 83.3345 50 81.9354 50 80.2095C50 78.4836 48.6009 77.0845 46.875 77.0845C45.1491 77.0845 43.75 78.4836 43.75 80.2095C43.75 81.9354 45.1491 83.3345 46.875 83.3345Z" fill="#3E2723"/>
<path d="M70.8337 27.0845C72.0837 27.0845 72.917 27.9178 72.917 29.1678C72.917 30.4178 72.0837 31.2511 70.8337 31.2511C69.5837 31.2511 68.7503 30.4178 68.7503 29.1678C68.7503 27.9178 69.5837 27.0845 70.8337 27.0845ZM70.8337 50.0011C70.8337 51.2511 71.667 52.0845 72.917 52.0845C74.167 52.0845 75.0003 51.2511 75.0003 50.0011C75.0003 48.7511 74.167 47.9178 72.917 47.9178C71.667 47.9178 70.8337 48.7511 70.8337 50.0011ZM54.167 35.4178C54.167 36.6678 55.0003 37.5011 56.2503 37.5011C57.5003 37.5011 58.3337 36.6678 58.3337 35.4178C58.3337 34.1678 57.5003 33.3345 56.2503 33.3345C55.0003 33.3345 54.167 34.1678 54.167 35.4178ZM29.167 66.6678C29.167 67.9178 30.0003 68.7511 31.2503 68.7511C32.5003 68.7511 33.3337 67.9178 33.3337 66.6678C33.3337 65.4178 32.5003 64.5845 31.2503 64.5845C30.0003 64.5845 29.167 65.4178 29.167 66.6678ZM41.667 59.3761C41.667 61.0428 43.1253 62.5011 44.792 62.5011C46.4587 62.5011 47.917 61.0428 47.917 59.3761C47.917 57.7095 46.4587 56.2511 44.792 56.2511C43.1253 56.2511 41.667 57.7095 41.667 59.3761Z" fill="#5D4037"/>
</svg>
