<svg width="100" height="100" viewBox="0 0 100 100" fill="none" xmlns="http://www.w3.org/2000/svg">
<path d="M48.7936 30.0053C48.7936 28.6119 47.9982 27.4053 46.8389 26.7946C47.5882 25.6773 47.6962 24.1899 46.9796 22.9519C46.2842 21.7473 44.9902 21.0993 43.6829 21.1486C43.7716 19.8073 43.1216 18.4646 41.8836 17.7513C40.6762 17.0546 39.2282 17.1406 38.1189 17.8413C37.5242 16.6406 36.2936 15.8046 34.8689 15.8046C33.4809 15.8046 32.2742 16.6039 31.6622 17.7606C30.5436 17.0146 29.0582 16.9026 27.8222 17.6173C26.6189 18.3113 25.9736 19.6066 26.0216 20.9139C24.6802 20.8266 23.3382 21.4739 22.6229 22.7113C21.9329 23.9066 22.0162 25.3426 22.7036 26.4479C21.4862 27.0379 20.6436 28.2786 20.6436 29.7199C20.6436 31.1173 21.4356 32.3306 22.5942 32.9373C21.8456 34.0533 21.7429 35.5393 22.4589 36.7813C23.1582 37.9906 24.4489 38.6446 25.7569 38.5926C25.6676 39.9326 26.3209 41.2719 27.5616 41.9873C28.7702 42.6853 30.2129 42.6066 31.3182 41.9113C31.9082 43.1213 33.1462 43.9546 34.5856 43.9546C35.9862 43.9546 37.1996 43.1653 37.8069 42.0066C38.9216 42.7539 40.4069 42.8553 41.6489 42.1379C42.8629 41.4373 43.5189 40.1459 43.4656 38.8399C44.8042 38.9299 46.1436 38.2746 46.8602 37.0326C47.5629 35.8126 47.4822 34.3579 46.7729 33.2513C47.9669 32.6526 48.7936 31.4259 48.7936 30.0053Z" fill="#58853B"/>
<path d="M42.3136 33.2513C41.6043 34.3579 41.5223 35.8126 42.227 37.0326C42.9443 38.2746 44.2803 38.9299 45.621 38.8399C45.5676 40.1459 46.2243 41.4373 47.4363 42.1379C48.6796 42.8553 50.1656 42.7539 51.2803 42.0066C51.887 43.1653 53.1016 43.9546 54.5016 43.9546C55.9403 43.9546 57.1783 43.1213 57.7683 41.9113C58.8736 42.6066 60.3163 42.6853 61.5236 41.9873C62.7656 41.2719 63.4196 39.9326 63.331 38.5926C64.637 38.6446 65.9283 37.9906 66.6276 36.7813C67.3436 35.5393 67.2396 34.0533 66.4923 32.9373C67.6496 32.3306 68.443 31.1173 68.443 29.7199C68.443 28.2786 67.6003 27.0379 66.3843 26.4479C67.0703 25.3426 67.1536 23.9066 66.4636 22.7113C65.749 21.4739 64.4063 20.8266 63.065 20.9139C63.1123 19.6066 62.4676 18.3113 61.2656 17.6173C60.029 16.9026 58.5416 17.0146 57.4243 17.7606C56.811 16.6039 55.6056 15.8046 54.2176 15.8046C52.793 15.8046 51.5623 16.6406 50.9663 17.8413C49.8583 17.1406 48.4103 17.0546 47.203 17.7513C45.965 18.4646 45.315 19.8073 45.4036 21.1486C44.0963 21.0993 42.8023 21.7473 42.107 22.9519C41.391 24.1899 41.5003 25.6773 42.2476 26.7946C41.0896 27.4053 40.2916 28.6119 40.293 30.0053C40.2916 31.4259 41.1196 32.6526 42.3136 33.2513Z" fill="#58853B"/>
<path d="M22.7784 44.574C42.7471 60.7227 37.4044 79.6213 37.4044 79.6213C37.4044 79.6213 40.8691 81.146 44.9811 81.146C50.7757 81.146 53.5204 79.6213 53.5204 79.6213C53.5204 79.6213 47.6257 63.1053 67.1297 43.9313C68.3757 42.706 58.7524 42.5493 58.7524 42.5493C58.7524 42.5493 53.1664 58.84 49.6584 58.0653C45.3891 57.1253 48.8251 34.2646 48.8251 34.2646H40.4084C40.4084 34.2646 46.0071 57.1253 40.5644 58.1613C38.0231 58.646 28.7024 40.1007 28.7024 40.1007C28.7024 40.1007 21.6431 43.6567 22.7784 44.574Z" fill="#58853B"/>
<path d="M39.6495 38.328C39.6495 36.9374 38.8529 35.728 37.6969 35.1173C38.4429 34.0013 38.5522 32.5134 37.8375 31.276C37.1422 30.0707 35.8462 29.4234 34.5389 29.4713C34.6275 28.13 33.9789 26.7894 32.7395 26.0754C31.5329 25.378 30.0862 25.466 28.9769 26.1654C28.3802 24.9634 27.1495 24.1294 25.7255 24.1294C24.3362 24.1294 23.1315 24.9274 22.5195 26.0847C21.4009 25.3374 19.9142 25.2267 18.6782 25.94C17.4755 26.6354 16.8309 27.93 16.8789 29.2387C15.5365 29.15 14.194 29.7967 13.4805 31.034C12.7891 32.2307 12.8737 33.6667 13.5586 34.772C12.3425 35.3607 11.5 36.6027 11.5 38.0434C11.5 39.4414 12.2929 40.6527 13.4505 41.262C12.7018 42.378 12.5989 43.8634 13.3164 45.104C14.0143 46.314 15.306 46.9674 16.6135 46.9154C16.5249 48.2554 17.1769 49.5954 18.4182 50.3114C19.6262 51.008 21.0689 50.9314 22.1742 50.2347C22.7642 51.4454 24.0055 52.2773 25.4415 52.2773C26.8409 52.2773 28.0562 51.4887 28.6629 50.3307C29.7775 51.078 31.2629 51.1787 32.5062 50.4614C33.7189 49.7607 34.3749 48.47 34.3229 47.164C35.6615 47.254 36.9989 46.598 37.7162 45.3554C38.4209 44.1367 38.3389 42.6827 37.6289 41.5754C38.8229 40.9767 39.6509 39.7487 39.6495 38.328Z" fill="#58853B"/>
<path d="M51.0143 40.9659C50.305 42.0719 50.2243 43.526 50.9283 44.7446C51.6443 45.9873 52.9803 46.6433 54.3217 46.5533C54.2683 47.8606 54.9257 49.1513 56.1383 49.852C57.3803 50.5693 58.867 50.4686 59.9817 49.72C60.589 50.8793 61.8023 51.6693 63.203 51.668C64.641 51.6693 65.8803 50.8346 66.4703 49.6253C67.5743 50.3206 69.0183 50.3986 70.2257 49.7006C71.4663 48.9846 72.1197 47.646 72.0303 46.306C73.3377 46.358 74.629 45.7046 75.3283 44.4933C76.0443 43.254 75.9417 41.7673 75.193 40.6513C76.3517 40.0433 77.1437 38.8306 77.1437 37.4339C77.1437 35.9919 76.3023 34.7513 75.085 34.1626C75.771 33.056 75.8543 31.6213 75.1643 30.4233C74.4503 29.1873 73.107 28.5406 71.7657 28.628C71.8137 27.3206 71.1697 26.0246 69.9663 25.3306C68.729 24.616 67.245 24.728 66.125 25.474C65.513 24.3166 64.3077 23.5186 62.9183 23.5186C61.4937 23.5186 60.2643 24.354 59.667 25.5546C58.559 24.8553 57.1123 24.7686 55.905 25.4659C54.6657 26.1799 54.017 27.5206 54.1057 28.8619C52.7983 28.8126 51.5043 29.46 50.8077 30.6653C50.0937 31.904 50.2017 33.3893 50.9483 34.508C49.789 35.1186 48.9937 36.3266 48.9937 37.7186C48.9937 39.1393 49.8203 40.3673 51.0143 40.9659Z" fill="#58853B"/>
<path d="M62.4105 32.229C62.4105 30.5403 61.4471 29.075 60.0405 28.3317C60.9485 26.9777 61.0798 25.1743 60.2098 23.6717C59.3671 22.2097 57.7958 21.423 56.2098 21.483C56.3178 19.8563 55.5291 18.229 54.0265 17.3617C52.5625 16.517 50.8065 16.6223 49.4625 17.471C48.7385 16.013 47.2451 14.9997 45.5171 14.9997C43.8325 14.9997 42.3685 15.971 41.6278 17.3737C40.2698 16.467 38.4665 16.333 36.9665 17.199C35.5065 18.0417 34.7245 19.6117 34.7838 21.199C33.1551 21.0923 31.5278 21.8777 30.6605 23.379C29.8218 24.8303 29.9245 26.5717 30.7565 27.9137C29.2805 28.629 28.2578 30.135 28.2578 31.8823C28.2578 33.579 29.2191 35.049 30.6251 35.7863C29.7178 37.1403 29.5925 38.9437 30.4611 40.449C31.3091 41.9163 32.8765 42.711 34.4611 42.6483C34.3545 44.273 35.1471 45.8983 36.6525 46.7657C38.1171 47.6117 39.8685 47.5183 41.2085 46.673C41.9245 48.1403 43.4285 49.1523 45.1725 49.1523C46.8711 49.1523 48.3438 48.195 49.0825 46.789C50.4338 47.6963 52.2371 47.819 53.7438 46.9477C55.2151 46.099 56.0105 44.5323 55.9485 42.9477C57.5731 43.0557 59.1945 42.2603 60.0638 40.7537C60.9171 39.2743 60.8191 37.5103 59.9585 36.1677C61.4078 35.441 62.4105 33.953 62.4105 32.229Z" fill="#58853B"/>
<path d="M48.2287 37.1539C47.6754 38.0186 47.6107 39.1552 48.1614 40.1079C48.7214 41.0779 49.7654 41.5912 50.8134 41.5206C50.7707 42.5419 51.2847 43.5506 52.2341 44.0979C53.2027 44.6586 54.3647 44.5806 55.2367 43.9959C55.7107 44.9012 56.6587 45.5186 57.7554 45.5186C58.8774 45.5186 59.8461 44.8659 60.3061 43.9219C61.1721 44.4646 62.2981 44.5259 63.2421 43.9806C64.2121 43.4219 64.7227 42.3752 64.6534 41.3279C65.6727 41.3686 66.6847 40.8566 67.2301 39.9112C67.7887 38.9412 67.7094 37.7799 67.1247 36.9072C68.0314 36.4326 68.6494 35.4859 68.6494 34.3932C68.6494 33.2672 67.9907 32.2966 67.0401 31.8372C67.5767 30.9726 67.6421 29.8506 67.1027 28.9139C66.5427 27.9492 65.4947 27.4425 64.4467 27.5119C64.4827 26.4899 63.9787 25.4766 63.0401 24.9352C62.0741 24.3766 60.9114 24.4632 60.0387 25.0459C59.5601 24.1419 58.6167 23.5186 57.5327 23.5186C56.4194 23.5186 55.4567 24.1706 54.9894 25.1092C54.1234 24.5639 52.9934 24.4946 52.0494 25.0406C51.0821 25.5992 50.5741 26.6459 50.6441 27.6939C49.6221 27.6552 48.6121 28.1612 48.0661 29.1039C47.5074 30.0719 47.5921 31.2332 48.1754 32.1066C47.2707 32.5846 46.6494 33.5286 46.6494 34.6159C46.6494 35.7266 47.2954 36.6859 48.2287 37.1539Z" fill="#95B83D"/>
<path d="M34.8814 34.7127C34.3268 35.5767 34.2628 36.7133 34.8134 37.6667C35.3734 38.6367 36.4181 39.15 37.4661 39.0793C37.4241 40.1007 37.9374 41.1093 38.8854 41.6567C39.8568 42.2173 41.0168 42.138 41.8881 41.5547C42.3634 42.46 43.3108 43.0767 44.4061 43.0767C45.5314 43.0767 46.4988 42.4247 46.9581 41.4807C47.8241 42.0233 48.9501 42.0847 49.8941 41.5393C50.8648 40.9807 51.3748 39.934 51.3048 38.8867C52.3268 38.9273 53.3361 38.4153 53.8828 37.47C54.4414 36.5 54.3621 35.3386 53.7774 34.466C54.6821 33.9906 55.3021 33.0447 55.3021 31.952C55.3021 30.8253 54.6434 29.8553 53.6928 29.396C54.2288 28.5313 54.2941 27.4087 53.7541 26.474C53.1968 25.508 52.1468 25.0013 51.0988 25.0707C51.1368 24.0467 50.6328 23.0353 49.6928 22.4933C48.7268 21.9353 47.5634 22.022 46.6901 22.604C46.2108 21.7007 45.2694 21.0767 44.1848 21.0767C43.0701 21.0767 42.1094 21.7307 41.6434 22.6693C40.7761 22.1227 39.6454 22.0533 38.7014 22.5993C37.7328 23.1566 37.2268 24.206 37.2968 25.2527C36.2748 25.2133 35.2628 25.72 34.7188 26.6627C34.1614 27.63 34.2448 28.792 34.8294 29.6653C33.9228 30.1433 33.3008 31.086 33.3008 32.1747C33.3008 33.2853 33.9481 34.2447 34.8814 34.7127Z" fill="#95B83D"/>
<path d="M21.6286 37.2477C21.074 38.1137 21.01 39.2503 21.5606 40.2023C22.1206 41.1723 23.1653 41.6856 24.2133 41.615C24.172 42.6356 24.6846 43.645 25.6326 44.1917C26.604 44.753 27.764 44.675 28.6366 44.0903C29.1106 44.995 30.0586 45.6123 31.1546 45.6123C32.2786 45.6123 33.246 44.9616 33.7053 44.0163C34.5713 44.559 35.6993 44.6217 36.6433 44.0757C37.612 43.5163 38.122 42.469 38.0533 41.4223C39.074 41.463 40.0833 40.9523 40.6313 40.0057C41.1887 39.0357 41.1093 37.8743 40.5247 37.003C41.4307 36.5277 42.0493 35.5797 42.0493 34.489C42.0493 33.3623 41.3906 32.391 40.44 31.9316C40.9767 31.067 41.0413 29.9443 40.5026 29.0097C39.944 28.0437 38.894 27.5383 37.846 27.6057C37.8826 26.5837 37.38 25.5723 36.44 25.029C35.474 24.4703 34.3106 24.5576 33.4373 25.141C32.958 24.2376 32.0167 23.6123 30.932 23.6123C29.8186 23.6123 28.858 24.2663 28.3906 25.205C27.5246 24.6576 26.3933 24.5903 25.45 25.1343C24.4813 25.693 23.974 26.741 24.044 27.7883C23.022 27.7503 22.01 28.2556 21.466 29.1983C20.9086 30.1656 20.9933 31.327 21.5766 32.201C20.672 32.679 20.0493 33.623 20.0493 34.7103C20.0493 35.821 20.6953 36.7803 21.6286 37.2477Z" fill="#95B83D"/>
<path d="M53.9853 84.6258C41.0313 86.5878 21.392 82.6072 20.7693 78.4965C20.112 74.1572 37.7267 64.7712 50.682 62.8078C63.638 60.8472 66.7733 65.3692 67.6847 71.3938C68.5973 77.4185 66.9413 82.6645 53.9853 84.6258Z" fill="#F7931E"/>
<path d="M56.3748 72.9444C55.7341 73.0424 55.1368 72.6024 55.0401 71.9617L54.1041 65.7804C54.0075 65.141 54.4481 64.5437 55.0875 64.4457C55.7275 64.3497 56.3241 64.7897 56.4221 65.429L57.3581 71.611C57.4541 72.2504 57.0141 72.8484 56.3748 72.9444Z" fill="#4D4D4E"/>
<path d="M50.0507 83.3866C49.4114 83.4833 48.8134 83.042 48.716 82.4026L47.7814 76.2226C47.6847 75.582 48.1247 74.9833 48.7654 74.8866C49.4047 74.7893 50.0014 75.2306 50.1001 75.8713L51.0347 82.0519C51.1314 82.6926 50.6901 83.2906 50.0507 83.3866Z" fill="#4D4D4E"/>
<path d="M41.0379 76.057C40.3972 76.1537 39.8012 75.7124 39.7032 75.073L38.7685 68.8917C38.6725 68.2524 39.1125 67.6537 39.7519 67.557C40.3912 67.461 40.9885 67.901 41.0865 68.5417L42.0212 74.721C42.1185 75.3617 41.6772 75.9597 41.0379 76.057Z" fill="#4D4D4E"/>
<path d="M31.3033 79.6237C30.7106 79.7124 30.0946 79.4724 30.0333 79.0717L29.4226 75.039C29.3633 74.6377 29.88 74.2277 30.4726 74.1377C31.066 74.0477 31.6793 74.2877 31.742 74.6884L32.3513 78.7224C32.4126 79.1224 31.8953 79.5337 31.3033 79.6237Z" fill="#4D4D4E"/>
<path d="M77.8553 76.6449C78.556 75.3989 78.112 73.8209 76.8667 73.1189L74.776 71.9456L76.1287 71.6749L83.2527 75.6763C84.5027 76.3756 86.0793 75.9329 86.78 74.6863C87.48 73.4389 87.0387 71.8596 85.7913 71.1589L83.922 70.1109L86.41 69.6096C87.812 69.3296 88.7213 67.9636 88.4387 66.5616C88.1573 65.1589 86.7927 64.2502 85.3894 64.5316L82.454 65.1229L83.6927 63.2996C84.4947 62.1162 84.186 60.5056 83.004 59.7036C81.8213 58.9003 80.2094 59.2076 79.406 60.3909L75.238 66.5302C75.198 66.5496 75.16 66.5723 75.122 66.5929L73.6613 66.8856L74.768 65.2596C75.57 64.0756 75.2627 62.4663 74.0793 61.6629C72.8953 60.8583 71.2847 61.1656 70.4814 62.3496C70.4814 62.3496 65.8107 69.0289 65.504 69.4743C64.5373 70.8716 65.224 72.5223 66.1953 73.0696L74.328 77.6356C75.5767 78.3362 77.1547 77.8923 77.8553 76.6449Z" fill="#58853B"/>
</svg>
