<svg width="100" height="100" viewBox="0 0 100 100" fill="none" xmlns="http://www.w3.org/2000/svg">
<path d="M14.5835 85.4161C14.5835 70.8328 18.6585 66.8703 20.7314 64.764C22.8189 62.6744 25.3752 61.0515 28.5418 60.0369C31.7606 59.0807 35.4022 58.5432 40.5168 59.4765C41.4522 64.589 40.9168 68.2307 39.9564 71.4515C38.9481 74.6203 37.3231 77.1744 35.2293 79.2619C33.1293 81.3369 29.1668 85.4161 14.5835 85.4161Z" fill="#D4E157"/>
<path d="M12.5 66.6661C12.8417 61.4515 14.2708 58.187 16.0063 55.2224C17.7792 52.3203 20.0146 50.1682 22.5833 48.5536C25.1625 46.9516 28.0896 45.912 31.4729 45.6141C34.8979 45.3786 38.6333 45.6453 43.4646 47.687C43.1354 52.9245 41.7125 56.387 39.9729 59.3453C38.1958 62.2411 35.9604 64.3953 33.3792 65.987C30.7896 67.5682 27.8625 68.6057 24.475 68.8995C21.05 69.137 17.3187 68.6849 12.5 66.6661Z" fill="#D4E157"/>
<path d="M33.3331 87.4994C31.3143 82.6806 30.8602 78.9473 31.0956 75.5223C31.3893 72.1348 32.4289 69.214 34.0102 66.6223C35.6018 64.039 37.7581 61.8035 40.6518 60.0265C43.6122 58.2848 47.0747 56.8619 52.3102 56.5327C54.3497 61.364 54.6164 65.1015 54.381 68.5265C54.0789 71.9077 53.0414 74.8327 51.4435 77.416C49.831 79.9806 47.6706 82.2223 44.7747 83.9931C41.8122 85.7244 38.5456 87.1577 33.3331 87.4994Z" fill="#D4E157"/>
<path d="M47.8856 84.5515C45.4023 79.8911 44.7794 76.1161 44.6835 72.6036C44.6523 69.1119 45.4127 66.0078 46.7481 63.1744C48.094 60.3474 50.0377 57.8015 52.769 55.6349C55.5627 53.5015 58.8898 51.6203 64.1065 50.6411C66.6127 55.3119 67.2398 59.0869 67.3335 62.6036C67.3606 66.0869 66.5981 69.1974 65.2419 72.0203C63.8752 74.8411 61.9294 77.3828 59.2002 79.5474C56.4002 81.6786 53.0773 83.5557 47.8856 84.5515Z" fill="#D4E157"/>
<path d="M20.8335 39.583C22.0856 34.4517 24.6106 32.0017 26.8439 29.3767C29.1043 26.8205 31.6856 25.0955 34.5043 23.9725C37.3272 22.86 40.4002 22.3767 43.7918 22.7142C47.2127 23.1246 50.8522 24.0975 55.2606 27.0434C54.0189 32.1975 52.0043 35.383 49.7731 38.0038C47.5106 40.5559 44.9314 42.283 42.1002 43.385C39.2668 44.4705 36.2002 44.9559 32.8022 44.6142C29.3835 44.2038 25.0002 43.7496 20.8335 39.583Z" fill="#D4E157"/>
<path d="M60.4163 79.1665C57.5642 74.7873 55.8976 70.6519 55.5101 67.2394C55.1913 63.854 55.6851 60.7894 56.7705 57.954C57.8684 55.129 59.5913 52.5373 62.1163 50.2706C64.7122 48.029 67.8622 46.004 72.9517 44.7373C75.8288 49.1206 76.7684 52.7498 77.1538 56.1561C77.4684 59.5394 76.9747 62.604 75.8663 65.4248C74.7413 68.2456 73.0267 70.8352 70.4934 73.1019C67.8934 75.3456 65.483 77.8936 60.4163 79.1665Z" fill="#D4E157"/>
<path d="M44.7353 69.5742C42.5103 64.8242 42.0874 61.0742 42.177 57.6117C42.327 54.1825 43.2499 51.1825 44.7228 48.4888C46.2103 45.8013 48.2749 43.4367 51.1041 41.495C53.9937 39.5867 57.402 37.9721 62.6354 37.3638C64.8854 42.1284 65.3124 45.8763 65.2187 49.3388C65.0604 52.7659 64.1395 55.7638 62.6478 58.4513C61.1374 61.1242 59.0749 63.4929 56.2437 65.4304C53.3478 67.3325 49.9416 68.9575 44.7353 69.5742Z" fill="#D4E157"/>
<path d="M30.4229 55.2557C31.0083 49.989 32.6145 46.5515 34.5041 43.6327C36.4333 40.7786 38.7916 38.7057 41.4645 37.1973C44.1479 35.7015 47.1541 34.7932 50.5958 34.6577C54.0708 34.589 57.8416 35.0494 62.6333 37.3598C62.0645 42.6557 60.4645 46.0973 58.5687 49.0098C56.6395 51.8577 54.2749 53.9369 51.5895 55.4223C48.8979 56.8952 45.8895 57.8057 42.4479 57.9327C38.9729 57.9994 35.2062 57.5452 30.4229 55.2557Z" fill="#D4E157"/>
<path d="M15.4458 52.1122C16.4396 46.9247 18.3208 43.5976 20.4562 40.7976C22.6187 38.0622 25.1646 36.1226 27.9791 34.7518C30.8041 33.3976 33.9146 32.6372 37.3979 32.6622C40.9146 32.7539 44.6896 33.383 49.3604 35.8893C48.3812 41.1039 46.5 44.4351 44.3666 47.2268C42.1958 49.9581 39.6562 51.8997 36.8271 53.2518C33.9916 54.5872 30.8833 55.3435 27.3937 55.3122C23.8791 55.2164 20.1062 54.5914 15.4458 52.1122Z" fill="#D4E157"/>
<path d="M44.5646 72.5419C44.55 71.5189 44.6188 70.5314 44.7354 69.5752C43.1459 70.6939 41.3667 71.6273 39.2959 72.2689C36.975 72.9377 34.4271 73.3794 31.2917 73.2335C31.2 73.7044 31.1438 74.2002 31.0854 74.6898C34.2625 75.8627 38.4625 76.846 40.4521 76.2773C40.5334 76.2481 40.6125 76.2252 40.6917 76.2023C41.0459 78.6752 41.7896 81.5627 43.375 84.8731C43.8959 84.6127 44.4021 84.3419 44.8875 84.0606C45.6229 83.621 46.3042 83.1523 46.9417 82.6544C45.1729 78.8169 44.6646 75.5814 44.5646 72.5419Z" fill="#C0CA33"/>
<path d="M26.7647 68.7059C26.6147 65.5684 27.0605 63.0205 27.7272 60.7018C28.371 58.6309 29.3001 56.8476 30.423 55.258C29.4647 55.3809 28.4751 55.4497 27.4543 55.433C24.4147 55.3309 21.1772 54.8226 17.3418 53.0518C16.846 53.6893 16.3751 54.3747 15.9355 55.1059C15.6543 55.5893 15.3855 56.1038 15.123 56.6184C18.4439 58.208 21.3376 58.9518 23.7939 59.3038C23.7772 59.358 23.7585 59.4163 23.746 59.4684C23.1085 61.6622 23.623 65.6809 24.948 68.9622C25.5647 68.8997 26.173 68.8184 26.7647 68.7059Z" fill="#C0CA33"/>
<path d="M31.3061 73.2325C30.0478 73.17 28.7103 73.0242 27.2415 72.7512C26.9686 71.2825 26.8248 69.9429 26.7623 68.6929C26.0457 68.8387 25.3144 68.9617 24.5436 69.02C22.5811 69.1408 20.1832 68.8512 17.8603 68.4033C17.4957 69.4137 16.8394 69.8367 16.1353 72.4992C19.1478 73.0992 22.7832 73.3033 24.7998 73.1783C25.5957 73.12 26.3623 72.995 27.1311 72.8596C27.0019 73.6054 26.8811 74.3575 26.8228 75.1221C26.6957 77.1825 26.8457 80.8575 27.4478 83.8762C29.5748 83.1554 30.4207 82.745 31.5915 82.1346C31.1394 79.8137 30.854 77.42 30.979 75.4533C31.0394 74.6825 31.1603 73.9492 31.3061 73.2325Z" fill="#C0CA33"/>
<path d="M59.6795 40.314C58.8086 42.391 57.6378 44.166 56.3961 45.8723C55.1357 47.5577 53.7545 49.1327 52.2815 50.6077C50.8107 52.0848 49.2357 53.4619 47.5503 54.7286C45.8461 55.9702 44.069 57.139 41.9878 58.0077C42.8524 55.9285 44.0253 54.1473 45.267 52.4431C46.5315 50.7535 47.9065 49.1827 49.3857 47.7119C50.8607 46.239 52.4336 44.864 54.119 43.5973C55.8315 42.3556 57.6045 41.1806 59.6795 40.314Z" fill="#C0CA33"/>
<path d="M33.8709 44.6592C33.5126 44.6404 33.1667 44.6508 32.8021 44.6154C29.4626 44.2154 25.2063 43.7467 21.1271 39.8467C20.8813 40.1196 20.6313 40.38 20.3959 40.6758C19.748 41.5383 19.1251 42.4592 18.5459 43.4633L19.0376 43.7883C24.3334 47.3029 28.673 48.28 31.923 48.7029C32.4855 47.1946 33.148 45.8738 33.8709 44.6592Z" fill="#C0CA33"/>
<path d="M55.3024 67.1118C55.2649 66.7493 52.8628 68.3909 51.3545 68.9659C51.7816 72.2139 52.6274 75.6034 56.1274 80.8805L56.4524 81.3722C57.4503 80.7868 58.3774 80.168 59.2357 79.5159C59.5587 79.2639 59.8462 78.993 60.142 78.7243C57.7628 74.9826 56.2566 71.4305 55.6837 68.3701C55.5066 68.0055 55.3607 67.593 55.3024 67.1118Z" fill="#C0CA33"/>
<path d="M68.7501 47.9161C67.6709 48.7266 66.5564 49.3536 65.4355 49.8453C65.2564 53.1536 64.3751 56.0641 62.9251 58.6599C61.4168 61.3349 59.3418 63.6953 56.4897 65.6203C53.573 67.5161 50.1355 69.1203 44.8668 69.7036C44.8439 69.6578 44.8293 69.612 44.8064 69.5682C44.7814 69.5682 44.7605 69.5766 44.7355 69.5766C42.5772 64.9703 42.1209 61.312 42.1751 57.9349C40.3584 57.9557 38.4564 57.8141 36.3709 57.3536C36.2814 57.3328 36.1897 57.3099 36.1001 57.2911C35.6376 57.1786 35.1647 57.0557 34.6834 56.9099C34.5293 56.8661 34.3751 56.8161 34.2189 56.7703C33.773 56.6307 33.3147 56.4661 32.8501 56.2932C32.6814 56.2307 32.5168 56.1703 32.3439 56.1016C31.7189 55.8536 31.0814 55.5807 30.4189 55.2641C31.0043 49.9974 32.6105 46.5599 34.5001 43.6411C36.4293 40.787 38.7876 38.7141 41.4605 37.2057C43.9355 35.8266 46.7022 34.9766 49.8126 34.7411C50.3439 33.4641 51.0626 32.2703 52.0834 31.2495C49.9022 31.4911 47.8314 31.4078 45.8751 31.1328C43.6168 31.6453 41.4605 32.4286 39.4355 33.5578C30.4689 39.1099 25.2855 50.1995 27.1543 57.9141C30.0105 60.7724 34.5209 61.6932 38.1793 61.9807C38.5105 65.6807 39.5001 70.2599 42.3605 73.1203C49.4564 75.6057 61.0126 69.6536 66.5689 60.6891C67.6439 58.7661 68.4084 56.7224 68.923 54.5786C68.5939 52.4932 68.4897 50.2661 68.7501 47.9161Z" fill="#C0CA33"/>
<path d="M42.1668 75.1305C42.1668 73.5472 42.3959 72.0243 42.8147 70.5909C41.698 71.2097 40.5126 71.7597 39.1938 72.1764C37.1438 72.7868 34.9188 73.2264 32.2543 73.2264C30.7418 73.2264 29.0876 73.0847 27.2438 72.7514C26.3272 67.6597 26.8668 64.0222 27.8209 60.7993C28.1543 59.7514 28.5751 58.7951 29.0376 57.8764C28.4168 57.9535 27.7876 58.0076 27.1438 58.0076C26.2459 58.0076 25.3709 57.9243 24.5209 57.7764C24.2855 58.3576 24.0418 58.9347 23.848 59.541C22.9022 62.7285 21.9938 67.116 23.1418 73.491L23.6543 76.3389L26.5043 76.8534C28.5209 77.2159 30.4001 77.393 32.2522 77.393C34.9938 77.393 37.5772 77.0035 40.3793 76.1701C41.0001 75.9722 41.5897 75.7243 42.1813 75.4847C42.1793 75.366 42.1668 75.2493 42.1668 75.1305Z" fill="#C0CA33"/>
<path d="M77.0832 70.8312C77.0832 70.8312 67.2748 61.1916 68.7498 47.9166C60.4165 54.1666 49.9998 50 49.9998 50C49.9998 50 45.8332 37.5 52.0832 31.25C38.8103 32.7229 29.1665 22.9145 29.1665 22.9145C43.9123 8.17079 62.8748 11.0625 75.9082 24.0916C88.9353 37.1208 91.8269 56.0854 77.0832 70.8312Z" fill="#7CB342"/>
<path d="M77.3557 25.5437L74.4536 22.6416C79.1661 16.6666 87.2099 16.6646 87.4994 16.6646V20.7666C87.4557 20.7666 81.2495 20.8333 77.3557 25.5437Z" fill="#689F38"/>
<path d="M75.9083 24.0923C75.7938 28.4069 74.6729 31.709 73.25 34.7069C71.8083 37.6881 69.9104 40.2173 67.7146 42.4402C65.5 44.6527 62.975 46.5465 59.9938 47.9923C56.9938 49.4215 54.3271 49.9048 50 50.0006C50.0979 45.6715 50.5771 43.0048 52.0062 40.009C53.4521 37.0319 55.3479 34.5027 57.5583 32.2902C59.7812 30.0902 62.3104 28.1944 65.2917 26.7527C68.2854 25.3256 71.5896 24.2048 75.9083 24.0923Z" fill="#689F38"/>
<path d="M29.1665 22.9146C32.1498 19.3063 35.8186 17.4022 39.7832 15.4959C43.7728 13.6397 47.7082 13.0501 52.2165 12.6397C56.7123 12.2334 61.4811 12.6584 65.9415 14.4334C70.3478 16.1792 74.4873 19.5772 75.9061 24.0917C71.4457 22.7042 67.8207 22.9667 64.1519 22.9146C60.5123 22.8667 29.1665 22.9146 29.1665 22.9146Z" fill="#689F38"/>
<path d="M77.0832 70.8319C77.0832 70.8319 77.127 39.484 77.0832 35.8423C77.0311 32.1756 77.2957 28.5506 75.9082 24.0923C80.4207 25.511 83.8186 29.6465 85.5645 34.0548C87.3436 38.5173 87.7686 43.284 87.3582 47.7798C86.9478 52.2923 85.9999 57.0194 84.1395 61.009C82.2395 64.9756 80.6915 67.8465 77.0832 70.8319Z" fill="#689F38"/>
</svg>
