<svg width="100" height="100" viewBox="0 0 100 100" fill="none" xmlns="http://www.w3.org/2000/svg">
<path opacity="0.992" fill-rule="evenodd" clip-rule="evenodd" d="M50.0003 11.6038C49.9716 16.3531 50.0003 21.102 50.0861 25.8506C51.2755 23.6872 52.7917 21.7704 54.6348 20.1004C56.4371 19.6141 57.0951 20.2721 56.6088 22.0744C51.0159 27.4094 48.8418 33.9321 50.0861 41.6424C51.2473 39.4907 52.6205 37.4881 54.2057 35.6346C56.6375 33.2029 59.069 30.7713 61.5008 28.3396C63.3031 27.8533 63.961 28.5112 63.4747 30.3135C60.6089 33.122 57.8054 35.9827 55.0639 38.896C52.3188 42.5004 50.6594 46.5629 50.0861 51.0831C50.029 57.5486 49.9716 64.0139 49.9145 70.4794C49.3302 67.8657 47.8712 65.9204 45.5374 64.6433C42.1903 65.7925 39.1579 67.4804 36.44 69.707C33.9224 72.2246 31.405 74.742 28.8875 77.2596C27.0851 77.7458 26.4272 77.0879 26.9135 75.2856C29.6362 72.5056 32.4112 69.7878 35.2385 67.1323C36.8389 65.8736 38.5554 64.7865 40.388 63.8709C32.6167 62.5921 26.0369 64.7662 20.6483 70.3936C18.846 70.8799 18.188 70.2219 18.6743 68.4196C20.3443 66.5765 22.261 65.0603 24.4246 63.8709C19.2182 63.7851 14.0115 63.7564 8.80453 63.7851C8.74761 62.6685 9.20534 61.8389 10.1777 61.2962C11.5905 61.0777 13.0209 60.9632 14.4689 60.9529C13.3246 60.4951 12.1803 60.0375 11.036 59.5797C9.62559 58.2419 9.48256 56.7828 10.6068 55.2026C11.3732 54.5275 12.2601 54.2701 13.2674 54.4302C14.2348 54.7914 15.2075 55.0775 16.1854 55.2885C15.2378 54.5121 14.351 53.6825 13.5249 52.7996C12.809 49.7967 13.982 48.4522 17.0437 48.7658C18.0852 49.3492 19.0292 50.0643 19.8759 50.9114C19.2272 49.7547 18.6837 48.5245 18.2452 47.221C18.5709 44.9107 19.8868 43.9953 22.1932 44.4746C22.4792 44.6462 22.7653 44.8179 23.0514 44.9895C23.8168 45.976 24.4749 47.0345 25.0254 48.165C24.818 46.8614 24.7035 45.5453 24.6821 44.2171C25.1924 42.5737 26.3081 41.8585 28.0292 42.0715C29.1278 42.3116 29.8429 42.9697 30.1748 44.0454C30.2708 44.6781 30.3853 45.3076 30.5181 45.9336C30.4519 44.5099 30.881 43.2797 31.8055 42.2431C32.9499 41.671 34.0941 41.671 35.2385 42.2431C35.6858 42.5758 36.0004 43.0049 36.1826 43.5305C36.157 46.2565 36.4429 48.9457 37.0408 51.598C37.5935 52.9897 38.2801 54.3056 39.1006 55.5459C41.3849 57.7719 43.7308 57.829 46.1382 55.7176C46.5148 55.1934 46.8009 54.6211 46.9964 54.0011C47.2695 47.356 44.3802 42.6929 38.3282 40.0117C35.5244 39.2391 32.6636 38.8958 29.7457 38.9818C28.204 38.214 27.6603 36.9838 28.115 35.2913C28.4297 34.5189 28.9733 33.9753 29.7457 33.6607C30.8901 33.6035 32.0343 33.5462 33.1787 33.489C31.9394 33.333 30.7378 33.0469 29.5741 32.6308C28.0919 31.4706 27.8344 30.0688 28.8016 28.4254C29.4361 27.7793 30.2085 27.436 31.1189 27.3955C32.2104 27.5778 33.2975 27.7208 34.3802 27.8246C33.2498 27.2741 32.1912 26.616 31.2047 25.8506C30.2869 24.3307 30.4299 22.9289 31.6339 21.6452C32.5041 21.2291 33.4195 21.1147 34.3802 21.3019C35.2728 21.8627 36.1884 22.3204 37.1266 22.6751C36.2795 21.8285 35.5644 20.8844 34.981 19.8429C34.6674 16.7812 36.0119 15.6083 39.0148 16.3241C39.8977 17.1503 40.7273 18.0371 41.5037 18.9847C41.2927 18.0067 41.0066 17.034 40.6454 16.0666C40.4959 14.0198 41.44 12.8755 43.4776 12.6337C44.4056 12.74 45.178 13.1405 45.7949 13.8352C46.2527 14.9795 46.7103 16.1239 47.1681 17.2682C47.2253 15.9522 47.2826 14.6362 47.3397 13.3203C47.8228 12.1205 48.7097 11.5483 50.0003 11.6038Z" fill="#5FAA45"/>
<path opacity="0.995" fill-rule="evenodd" clip-rule="evenodd" d="M50.0007 11.6038C51.2914 11.5483 52.1783 12.1205 52.6613 13.3203C52.7184 14.6362 52.7758 15.9522 52.8329 17.2682C53.2907 16.1239 53.7483 14.9795 54.2061 13.8352C55.544 12.4248 57.003 12.2818 58.5832 13.4061C59.2583 14.1725 59.5157 15.0593 59.3556 16.0666C58.9944 17.034 58.7083 18.0067 58.4974 18.9847C59.2737 18.0371 60.1033 17.1503 60.9863 16.3241C63.9891 15.6083 65.3336 16.7812 65.02 19.8429C64.4366 20.8844 63.7215 21.8285 62.8744 22.6751C63.8126 22.3204 64.7282 21.8627 65.6208 21.3019C68.9367 21.0709 70.0524 22.53 68.9679 25.679C67.9542 26.5441 66.8385 27.2592 65.6208 27.8246C66.7036 27.7208 67.7906 27.5778 68.8821 27.3955C71.1685 27.7656 72.0554 29.0816 71.5427 31.3434C71.2162 32.1845 70.6154 32.7281 69.7404 32.9741C68.7711 33.1643 67.7983 33.3359 66.8223 33.489C67.9667 33.5462 69.1109 33.6035 70.2553 33.6607C71.7971 34.4285 72.3407 35.6587 71.886 37.3511C71.5713 38.1236 71.0277 38.6672 70.2553 38.9818C67.5264 38.9385 64.8374 39.2247 62.1878 39.84C56.3495 42.1026 53.2598 46.3651 52.9188 52.6279C52.719 57.7484 52.6903 62.8978 52.8329 68.0763C53.1725 66.762 53.8877 65.7321 54.9785 64.9866C58.0828 65.9662 60.8864 67.4826 63.3894 69.5353C66.0262 72.2295 68.7155 74.8614 71.4569 77.4312C73.0942 77.5586 73.6377 76.8433 73.0875 75.2856C70.6558 72.8538 68.2242 70.4223 65.7924 67.9905C63.9194 66.348 61.8596 64.9748 59.6131 63.8709C64.7984 63.1522 69.7189 63.9533 74.3749 66.274C76.1923 67.4424 77.8516 68.8156 79.3527 70.3936C81.155 70.8799 81.813 70.2219 81.3267 68.4196C79.6567 66.5765 77.7399 65.0603 75.5764 63.8709C80.7829 63.7851 85.9895 63.7564 91.1965 63.7851C91.2519 65.0757 90.6798 65.9626 89.48 66.4457C88.164 66.5028 86.8481 66.5601 85.5321 66.6173C86.6765 67.0751 87.8207 67.5327 88.9651 67.9905C90.4174 69.379 90.5317 70.8666 89.3084 72.4534C88.7047 72.9194 88.0181 73.1769 87.2486 73.2258C86.0953 72.8882 84.9509 72.5735 83.8156 72.2817C84.588 72.9397 85.3604 73.5978 86.1329 74.2557C87.2184 76.1607 86.8466 77.6768 85.0171 78.8044C84.3305 78.9189 83.6439 78.9189 82.9573 78.8044C81.9158 78.221 80.9717 77.5059 80.1251 76.6588C80.4798 77.597 80.9376 78.5126 81.4983 79.4052C81.7294 82.7211 80.2703 83.8368 77.1213 82.7523C76.2562 81.7386 75.5411 80.6228 74.9757 79.4052C75.0795 80.4879 75.2225 81.575 75.4048 82.6665C75.3021 84.457 74.3581 85.4295 72.5726 85.5845C71.4421 85.5063 70.5839 84.9913 69.9978 84.0397C69.7253 82.9056 69.4965 81.7612 69.3112 80.6067C69.2541 81.7511 69.1968 82.8953 69.1396 84.0397C68.3718 85.5814 67.1416 86.1251 65.4491 85.6704C64.6767 85.3557 64.1331 84.8121 63.8185 84.0397C63.844 81.3137 63.5581 78.6245 62.9602 75.9722C61.867 72.878 59.9502 70.4463 57.21 68.6771C55.6224 67.7256 54.2777 67.9831 53.1762 69.4495C52.9888 69.8862 52.8743 70.344 52.8329 70.8227C52.7471 76.7158 52.7184 82.609 52.7471 88.5026C50.9161 88.5026 49.0853 88.5026 47.2543 88.5026C47.283 82.609 47.2543 76.7158 47.1685 70.8227C47.0702 69.1508 46.1832 68.2354 44.5079 68.0763C43.0742 68.4787 41.8155 69.1938 40.7317 70.2219C38.4966 72.4316 37.0948 75.0921 36.5263 78.2036C36.3599 80.1458 36.2455 82.0911 36.183 84.0397C35.4152 85.5814 34.185 86.1251 32.4925 85.6704C31.7201 85.3557 31.1765 84.8121 30.8618 84.0397C30.8047 82.8953 30.7474 81.7511 30.6902 80.6067C30.505 81.7612 30.2762 82.9056 30.0036 84.0397C28.738 85.7491 27.2217 86.0066 25.4549 84.8121C24.9171 84.2009 24.6312 83.4856 24.5967 82.6665C24.779 81.575 24.9219 80.4879 25.0258 79.4052C24.4604 80.6228 23.7453 81.7386 22.8802 82.7523C19.7311 83.8368 18.2721 82.7211 18.5031 79.4052C19.0639 78.5126 19.5216 77.597 19.8763 76.6588C19.0297 77.5059 18.0856 78.221 17.0441 78.8044C13.9798 79.1134 12.8069 77.7688 13.5253 74.7706C14.3514 73.8877 15.2383 73.0581 16.1859 72.2817C15.0505 72.5735 13.9062 72.8882 12.7529 73.2258C10.9219 73.1113 9.94928 72.1387 9.83484 70.3078C9.94118 69.3798 10.3417 68.6074 11.0364 67.9905C12.1807 67.5327 13.325 67.0751 14.4694 66.6173C13.1534 66.5601 11.8374 66.5028 10.5214 66.4457C9.32164 65.9626 8.74949 65.0757 8.80495 63.7851C14.012 63.7564 19.2186 63.7851 24.425 63.8709C22.2615 65.0603 20.3447 66.5765 18.6748 68.4196C18.1884 70.2219 18.8464 70.8799 20.6487 70.3936C26.0373 64.7662 32.6171 62.5921 40.3884 63.8709C38.5558 64.7865 36.8394 65.8736 35.2389 67.1323C32.4117 69.7878 29.6366 72.5056 26.9139 75.2856C26.4276 77.0879 27.0856 77.7458 28.8879 77.2596C31.4055 74.742 33.9229 72.2246 36.4404 69.707C39.1583 67.4804 42.1907 65.7925 45.5378 64.6433C47.8716 65.9204 49.3306 67.8657 49.9149 70.4794C49.9721 64.0139 50.0294 57.5486 50.0865 51.0831C50.6599 46.5629 52.3192 42.5004 55.0644 38.896C57.8058 35.9827 60.6093 33.122 63.4752 30.3135C63.9615 28.5112 63.3035 27.8533 61.5012 28.3396C59.0695 30.7713 56.6379 33.2029 54.2061 35.6346C52.6209 37.4881 51.2477 39.4907 50.0865 41.6424C48.8423 33.9321 51.0164 27.4094 56.6092 22.0744C57.0955 20.2721 56.4376 19.6141 54.6352 20.1004C52.7921 21.7704 51.2759 23.6872 50.0865 25.8506C50.0007 21.102 49.9721 16.3531 50.0007 11.6038Z" fill="#90C73C"/>
<path fill-rule="evenodd" clip-rule="evenodd" d="M91.1963 63.7857C85.9893 63.757 80.7827 63.7857 75.5762 63.8715C77.7397 65.0609 79.6565 66.5771 81.3265 68.4202C81.8128 70.2225 81.1548 70.8805 79.3525 70.3942C77.8515 68.8162 76.1921 67.443 74.3747 66.2746C69.7187 63.9539 64.7982 63.1528 59.6129 63.8715C61.8594 64.9754 63.9192 66.3486 65.7922 67.9911C68.224 70.4229 70.6556 72.8544 73.0873 75.2862C73.6375 76.8439 73.094 77.5592 71.4567 77.4318C68.7153 74.862 66.026 72.2302 63.3892 69.5359C60.8862 67.4832 58.0826 65.9668 54.9784 64.9872C53.8875 65.7327 53.1723 66.7626 52.8327 68.0769C52.6901 62.8984 52.7188 57.749 52.9186 52.6285C52.9994 55.5131 54.4869 57.0579 57.3814 57.263C59.272 57.1039 60.6738 56.1885 61.5868 54.5167C62.5227 52.9104 63.1521 51.1939 63.475 49.3672C63.6413 47.425 63.7558 45.4797 63.8183 43.5311C64.5861 41.9894 65.8163 41.4457 67.5087 41.9004C68.2812 42.2151 68.8248 42.7587 69.1394 43.5311C69.1966 44.6755 69.2539 45.8197 69.3111 46.9641C69.4173 45.5799 69.7606 44.2641 70.341 43.0162C71.5732 41.8429 72.9177 41.7 74.3747 42.587C74.8435 43.0378 75.1581 43.5814 75.3188 44.2177C75.2973 45.5459 75.1828 46.862 74.9755 48.1656C75.526 47.0352 76.1841 45.9766 76.9494 44.9901C77.8362 44.4144 78.8087 44.2428 79.8675 44.4752C81.4092 45.243 81.9528 46.4732 81.4981 48.1656C80.9374 49.0582 80.4796 49.9738 80.1249 50.912C80.9715 50.0649 81.9156 49.3498 82.9572 48.7664C86.0189 48.4528 87.1917 49.7973 86.476 52.8002C85.6498 53.6831 84.7629 54.5127 83.8154 55.2891C84.7935 55.0781 85.766 54.792 86.7334 54.4308C88.7802 54.2813 89.9246 55.2254 90.1664 57.263C90.0754 58.1029 89.7321 58.8182 89.1365 59.4087C87.969 59.989 86.7674 60.5039 85.5319 60.9535C86.8479 61.0107 88.1638 61.068 89.4798 61.1251C90.6796 61.6082 91.2518 62.4951 91.1963 63.7857Z" fill="#5FAA45"/>
</svg>
