<svg width="100" height="100" viewBox="0 0 100 100" fill="none" xmlns="http://www.w3.org/2000/svg">
<path d="M91.6668 28.3345C91.6668 15.4178 88.9585 8.33447 82.7085 8.33447C76.6668 8.33447 75.8335 15.0011 71.6668 22.9178C70.4168 23.1261 69.3752 24.1678 69.3752 25.6261C69.3752 26.0428 69.3752 26.4595 69.5835 26.6678C68.1252 29.1678 66.6668 31.4595 65.2085 33.7511C65.0002 33.7511 64.7918 33.7511 64.7918 33.7511C63.3335 33.7511 62.0835 35.0011 62.0835 36.4595C62.0835 37.0845 62.2918 37.5011 62.5002 37.9178C59.7918 41.6678 56.8752 45.2095 54.1668 48.3345C53.9585 48.3345 53.9585 48.3345 53.7502 48.3345C52.2918 48.3345 51.0418 49.5845 51.0418 51.0428C51.0418 51.2511 51.0418 51.4595 51.0418 51.6678C48.1252 54.5845 45.4168 57.0845 42.7085 59.1678C41.4585 59.1678 40.2085 60.0011 40.0002 61.2511C37.2918 63.1261 34.7918 65.0011 32.2918 66.4595C32.0835 66.4595 31.8752 66.2511 31.6668 66.2511C30.4168 66.2511 29.1668 67.0845 28.9585 68.3345C26.4585 69.7928 24.1668 71.0428 22.0835 72.0845C21.6668 71.8761 21.0418 71.6678 20.6252 71.6678C19.1668 71.6678 17.9168 72.9178 17.9168 74.3761C11.8752 77.5011 8.3335 79.7928 8.3335 83.5428C8.3335 86.2511 10.2085 88.7511 14.1668 90.2095C14.7918 91.0428 15.6252 91.6678 16.6668 91.6678C17.2918 91.6678 17.7085 91.4595 18.1252 91.2511C19.7918 91.4595 21.6668 91.6678 23.7502 91.6678C26.6668 91.6678 30.0002 91.2511 33.1252 90.8345C33.5418 91.4595 34.3752 91.6678 35.2085 91.6678C36.4585 91.6678 37.5002 90.8345 37.9168 89.7928C41.4585 88.7511 45.2085 87.5011 48.7502 86.0428C49.1668 86.2511 49.5835 86.2512 50.0002 86.2512C51.2502 86.2512 52.5002 85.4178 52.7085 84.1678C55.0002 83.1261 57.2918 81.6678 59.3752 80.4178C59.7918 80.8345 60.4168 80.8345 61.0418 80.8345C62.5002 80.8345 63.7502 79.5845 63.7502 78.1261C63.7502 77.9178 63.7502 77.7095 63.7502 77.5011C65.6252 76.2511 67.2918 74.7928 69.1668 73.3345C69.5835 73.5428 70.0002 73.5428 70.4168 73.5428C71.8752 73.5428 73.1252 72.2928 73.1252 70.8345C73.1252 70.4178 73.1252 70.2095 72.9168 69.7928C74.5835 68.1261 76.2502 66.2511 77.9168 64.3761C79.3752 64.3761 80.6252 63.1261 80.6252 61.6678C80.6252 61.4595 80.6252 61.2511 80.6252 61.0428C82.2918 58.5428 83.9585 56.0428 85.4168 53.5428C86.8752 53.5428 88.1252 52.2928 88.1252 50.8345C88.1252 50.2095 87.9168 49.5845 87.5002 49.1678C88.7502 46.4595 89.5835 43.5428 90.4168 40.6261C91.2502 40.2095 91.8752 39.3761 91.8752 38.3345C91.8752 37.7095 91.6668 37.0845 91.2502 36.6678C91.4585 33.9595 91.6668 31.2511 91.6668 28.3345Z" fill="#4CAF50"/>
<path d="M91.6668 28.3345C69.3752 86.0428 20.6252 86.8761 8.3335 83.5428C8.3335 86.2511 10.2085 88.7511 14.1668 90.2095C14.7918 91.0428 15.6252 91.6678 16.6668 91.6678C17.2918 91.6678 17.7085 91.4595 18.1252 91.2511C19.7918 91.4595 21.6668 91.6678 23.7502 91.6678C26.6668 91.6678 30.0002 91.2511 33.1252 90.8345C33.5418 91.4595 34.3752 91.6678 35.2085 91.6678C36.4585 91.6678 37.5002 90.8345 37.9168 89.7928C41.4585 88.7511 45.2085 87.5011 48.7502 86.0428C49.1668 86.2511 49.5835 86.2511 50.0002 86.2511C51.2502 86.2511 52.5002 85.4178 52.7085 84.1678C55.0002 83.1261 57.2918 81.6678 59.3752 80.4178C59.7918 80.8345 60.4168 80.8345 61.0418 80.8345C62.5002 80.8345 63.7502 79.5845 63.7502 78.1261C63.7502 77.9178 63.7502 77.7095 63.7502 77.5011C65.6252 76.2511 67.2918 74.7928 69.1668 73.3345C69.5835 73.5428 70.0002 73.5428 70.4168 73.5428C71.8752 73.5428 73.1252 72.2928 73.1252 70.8345C73.1252 70.4178 73.1252 70.2095 72.9168 69.7928C74.5835 68.1261 76.2502 66.2511 77.9168 64.3761C79.3752 64.3761 80.6252 63.1261 80.6252 61.6678C80.6252 61.4595 80.6252 61.2511 80.6252 61.0428C82.2918 58.5428 83.9585 56.0428 85.4168 53.5428C86.8752 53.5428 88.1252 52.2928 88.1252 50.8345C88.1252 50.2095 87.9168 49.5845 87.5002 49.1678C88.7502 46.4595 89.5835 43.5428 90.4168 40.6261C91.2502 40.2095 91.8752 39.3761 91.8752 38.3345C91.8752 37.7095 91.6668 37.0845 91.2502 36.6678C91.4585 33.9595 91.6668 31.2511 91.6668 28.3345Z" fill="#388E3C"/>
<path d="M79.1665 25C80.4165 25 81.2498 25.8333 81.2498 27.0833C81.2498 28.3333 80.2082 29.1667 79.1665 29.1667C77.9165 29.1667 77.0832 28.3333 77.0832 27.0833C77.0832 25.8333 77.9165 25 79.1665 25ZM74.9998 47.9167C76.2498 47.9167 77.0832 48.75 77.0832 50C77.0832 51.25 76.2498 52.0833 74.9998 52.0833C73.7498 52.0833 72.9165 51.25 72.9165 50C72.9165 48.75 73.7498 47.9167 74.9998 47.9167ZM68.7498 41.6667C69.9998 41.6667 70.8332 42.5 70.8332 43.75C70.8332 45 69.7915 45.8333 68.7498 45.8333C67.4998 45.8333 66.6665 45 66.6665 43.75C66.6665 42.5 67.4998 41.6667 68.7498 41.6667ZM60.4165 62.5C61.6665 62.5 62.4998 63.3333 62.4998 64.5833C62.4998 65.8333 61.6665 66.6667 60.4165 66.6667C59.1665 66.6667 58.3332 65.8333 58.3332 64.5833C58.3332 63.3333 59.1665 62.5 60.4165 62.5ZM52.0832 64.5833C53.3332 64.5833 54.1665 65.4167 54.1665 66.6667C54.1665 67.9167 53.3332 68.75 52.0832 68.75C50.8332 68.75 49.9998 67.9167 49.9998 66.6667C49.9998 65.4167 50.8332 64.5833 52.0832 64.5833ZM39.5832 75C40.8332 75 41.6665 75.8333 41.6665 77.0833C41.6665 78.3333 40.8332 79.1667 39.5832 79.1667C38.3332 79.1667 37.4998 78.3333 37.4998 77.0833C37.4998 75.8333 38.3332 75 39.5832 75ZM24.9998 77.0833C26.2498 77.0833 27.0832 77.9167 27.0832 79.1667C27.0832 80.4167 26.2498 81.25 24.9998 81.25C23.7498 81.25 22.9165 80.4167 22.9165 79.1667C22.9165 77.9167 23.7498 77.0833 24.9998 77.0833Z" fill="#AED581"/>
</svg>
