<svg width="100" height="100" viewBox="0 0 100 100" fill="none" xmlns="http://www.w3.org/2000/svg">
<path d="M79.1665 43.7503C79.1665 39.2294 82.7707 35.5711 87.2603 35.4419C86.9957 26.6378 86.604 18.9336 86.604 18.9336C53.1124 21.694 19.3624 28.5398 19.3624 28.5398C14.8811 29.4273 13.9832 30.3148 13.0874 33.8586C13.0874 33.8586 11.2936 40.9482 13.9832 56.0169C16.6728 71.0857 26.5603 77.2919 31.0165 77.2919C31.0165 77.2919 67.5061 80.7273 86.604 78.2961C86.604 78.2961 87.3582 64.0253 87.4832 52.0815C82.8874 52.0711 79.1665 48.3461 79.1665 43.7503Z" fill="#FFE57F"/>
<path d="M31.4058 73.2357L31.2099 73.2169H31.0141C28.9433 73.2169 20.4328 68.7419 18.0349 55.3065C15.5766 41.5294 17.0724 34.8753 17.0808 34.8419C17.3933 33.6023 17.5745 33.2919 17.5808 33.2711C17.6766 33.2003 18.1516 32.9294 20.187 32.5294C20.5058 32.4648 51.2391 26.2711 82.6849 23.3648L86.7953 23.0357C86.6828 20.5169 86.6016 18.9336 86.6016 18.9336C53.1099 21.694 19.3599 28.5398 19.3599 28.5398C14.8787 29.4273 13.9808 30.3148 13.0849 33.8586C13.0849 33.8586 11.2912 40.9482 13.9808 56.0169C16.6703 71.0857 26.5599 77.2919 31.0162 77.2919C31.0162 77.2919 50.9328 79.1669 69.037 79.1669C75.437 79.1669 81.6141 78.9315 86.6037 78.2961C86.6037 78.2961 86.6891 76.6586 86.8099 74.0315C81.8099 74.6753 73.4683 75.094 69.0391 75.094C51.3453 75.094 31.6037 73.2544 31.4058 73.2357Z" fill="#FFB300"/>
<path d="M12.7712 35.8228C12.9233 34.5124 13.0858 33.8582 13.0858 33.8582C13.9817 30.3144 14.8775 29.4269 19.3608 28.5394C19.3608 28.5394 53.1108 21.6936 86.6025 18.9332C86.6025 18.9332 58.5692 17.4999 52.4775 16.904C46.3858 16.3082 41.0629 16.904 38.0629 17.8374C35.0608 18.7686 25.2754 22.8415 25.2754 22.8415C11.8275 28.0353 12.7712 35.8228 12.7712 35.8228Z" fill="#FFA000"/>
<path d="M45.8333 54.1667C50.4357 54.1667 54.1667 50.4357 54.1667 45.8333C54.1667 41.231 50.4357 37.5 45.8333 37.5C41.231 37.5 37.5 41.231 37.5 45.8333C37.5 50.4357 41.231 54.1667 45.8333 54.1667Z" fill="#FFC400"/>
<path d="M68.7497 37.4998C71.0509 37.4998 72.9163 35.6344 72.9163 33.3332C72.9163 31.032 71.0509 29.1665 68.7497 29.1665C66.4485 29.1665 64.583 31.032 64.583 33.3332C64.583 35.6344 66.4485 37.4998 68.7497 37.4998Z" fill="#FFC400"/>
<path d="M34.3748 66.6667C37.2513 66.6667 39.5832 64.3348 39.5832 61.4583C39.5832 58.5819 37.2513 56.25 34.3748 56.25C31.4984 56.25 29.1665 58.5819 29.1665 61.4583C29.1665 64.3348 31.4984 66.6667 34.3748 66.6667Z" fill="#FFC400"/>
<path d="M26.0415 47.9165C27.7674 47.9165 29.1665 46.5174 29.1665 44.7915C29.1665 43.0656 27.7674 41.6665 26.0415 41.6665C24.3156 41.6665 22.9165 43.0656 22.9165 44.7915C22.9165 46.5174 24.3156 47.9165 26.0415 47.9165Z" fill="#FFC400"/>
<path d="M68.75 64.583C72.2018 64.583 75 61.7848 75 58.333C75 54.8812 72.2018 52.083 68.75 52.083C65.2982 52.083 62.5 54.8812 62.5 58.333C62.5 61.7848 65.2982 64.583 68.75 64.583Z" fill="#FFC400"/>
</svg>
