<svg width="100" height="100" viewBox="0 0 100 100" fill="none" xmlns="http://www.w3.org/2000/svg">
<path d="M56.2493 33.3345C37.4993 33.3345 22.916 47.9178 22.916 47.9178L16.666 52.0907L22.916 56.5657C31.3035 62.5449 41.7035 70.8345 56.2493 70.8345C70.8327 70.8345 91.666 56.2511 91.666 50.0011C91.666 43.7511 70.8327 33.3345 56.2493 33.3345Z" fill="#00BCD4"/>
<path d="M65.775 34.5249C63.6729 39.2082 62.5 44.5312 62.5 49.9999C62.5 56.702 64.4208 63.1687 67.5 68.6145C78.2229 64.9082 91.6667 55.902 91.6667 49.9999C91.6667 44.0978 77.0833 36.9457 65.775 34.5249Z" fill="#4DD0E1"/>
<path d="M72.9167 49.9989C75.2179 49.9989 77.0833 48.1334 77.0833 45.8322C77.0833 43.531 75.2179 41.6655 72.9167 41.6655C70.6155 41.6655 68.75 43.531 68.75 45.8322C68.75 48.1334 70.6155 49.9989 72.9167 49.9989Z" fill="white"/>
<path d="M72.9173 47.9167C74.0679 47.9167 75.0007 46.9839 75.0007 45.8333C75.0007 44.6827 74.0679 43.75 72.9173 43.75C71.7667 43.75 70.834 44.6827 70.834 45.8333C70.834 46.9839 71.7667 47.9167 72.9173 47.9167Z" fill="#0277BD"/>
<path d="M56.25 33.3322C59.2417 33.3322 62.4937 33.7759 65.775 34.5239C65.5833 33.5009 64.1771 26.5968 60.4167 22.9155C55.3375 23.1759 36.5604 30.103 31.25 35.4155C32.4667 37.2405 33.2979 38.6739 33.9083 39.8405C39.7729 36.4739 47.55 33.3322 56.25 33.3322Z" fill="#006064"/>
<path d="M8.33398 35.4155C10.4173 37.4989 12.5007 47.2364 12.5007 52.0822C12.5007 56.9009 10.4173 66.6655 8.33398 68.7489C14.584 66.6655 21.2507 59.8572 22.8527 56.5176C22.8736 56.5343 22.8965 56.5509 22.9173 56.5634L18.7507 52.0884L22.9173 47.9155C22.9173 47.9155 18.7507 39.5822 8.33398 35.4155Z" fill="#006064"/>
<path d="M60.8532 77.0033C52.2678 77.3303 50.7282 76.647 47.5928 76.0366C49.5594 72.2428 61.0365 61.5824 63.1344 62.6658L62.949 63.647C65.0449 64.7324 62.8178 73.2074 60.8532 77.0033Z" fill="#006064"/>
<path d="M62.5007 50C62.5007 44.5313 63.6736 39.2083 65.7757 34.525C64.2507 34.1313 61.6819 33.7812 61.6819 33.7812C59.484 38.9583 58.334 44.4021 58.334 50C58.334 56.8875 60.0298 63.7708 63.3131 69.8396C64.659 69.4667 66.1882 69.1479 67.5027 68.6125C64.4215 63.1687 62.5007 56.7021 62.5007 50Z" fill="#0097A7"/>
</svg>
