<svg width="100" height="100" viewBox="0 0 100 100" fill="none" xmlns="http://www.w3.org/2000/svg">
<path d="M83.611 41.601C83.9665 39.601 82.8776 37.9565 81.1665 37.9565H19.3665C17.6888 37.9565 16.611 39.5565 16.9221 41.501L26.9999 91.701H73.5443L83.5443 41.8677C83.5554 41.7788 83.5888 41.6899 83.611 41.601Z" fill="#DBDBDB"/>
<path d="M53.4446 2.77832C52.7746 2.77828 52.1189 2.97241 51.5569 3.33722C50.9949 3.70202 50.5506 4.22188 50.2779 4.83388C50.022 4.26274 49.6166 3.77126 49.1047 3.41126C48.5927 3.05126 47.9931 2.83608 47.3691 2.78842C46.745 2.74077 46.1197 2.86239 45.559 3.14048C44.9983 3.41856 44.523 3.8428 44.1833 4.36845C43.8436 4.89409 43.6521 5.50167 43.6289 6.1271C43.6056 6.75253 43.7516 7.37264 44.0514 7.92202C44.3512 8.47141 44.7937 8.92971 45.3323 9.2486C45.8708 9.56748 46.4854 9.73514 47.1112 9.73388V31.1117H53.4446V9.73388C54.3669 9.73388 55.2515 9.36747 55.9037 8.71526C56.556 8.06305 56.9224 7.17846 56.9224 6.2561C56.9224 5.33373 56.556 4.44915 55.9037 3.79694C55.2515 3.14473 54.3669 2.77832 53.4446 2.77832Z" fill="#FCD69B"/>
<path d="M53.5112 21.4673H47.0557C40.489 25.1006 35.5557 38.8895 35.5557 45.8451C35.5557 49.7437 37.1044 53.4827 39.8612 56.2395C42.618 58.9963 46.357 60.5451 50.2557 60.5451C54.1543 60.5451 57.8933 58.9963 60.6501 56.2395C63.4069 53.4827 64.9557 49.7437 64.9557 45.8451C64.9779 38.8895 60.0779 25.1006 53.5112 21.4673Z" fill="#B86533"/>
<path d="M53.5113 21.4673H50.2891V60.5451C54.1858 60.5421 57.922 58.9921 60.6764 56.2356C63.4307 53.4791 64.978 49.7418 64.978 45.8451C64.978 38.8895 60.078 25.1006 53.5113 21.4673Z" fill="#A35A2D"/>
<path d="M67.7781 11.1118C67.1081 11.1118 66.4524 11.3059 65.8904 11.6707C65.3284 12.0355 64.8841 12.5554 64.6114 13.1674C64.3555 12.5962 63.9501 12.1048 63.4382 11.7448C62.9262 11.3848 62.3266 11.1696 61.7026 11.1219C61.0785 11.0743 60.4532 11.1959 59.8925 11.474C59.3318 11.7521 58.8565 12.1763 58.5168 12.7019C58.1771 13.2276 57.9856 13.8352 57.9624 14.4606C57.9391 15.086 58.0851 15.7061 58.3849 16.2555C58.6847 16.8049 59.1272 17.2632 59.6658 17.5821C60.2043 17.901 60.8189 18.0686 61.4447 18.0674V39.3785H67.7781V18.0229C68.627 17.9265 69.4108 17.5209 69.9798 16.8836C70.5488 16.2463 70.8633 15.4218 70.8633 14.5674C70.8633 13.713 70.5488 12.8885 69.9798 12.2511C69.4108 11.6138 68.627 11.2082 67.7781 11.1118Z" fill="#FCD69B"/>
<path d="M67.8669 29.7676H61.4114C54.8447 33.3898 49.9336 47.1342 49.9336 54.1454C49.9336 58.044 51.4823 61.783 54.2391 64.5398C56.9959 67.2966 60.7349 68.8454 64.6336 68.8454C68.5323 68.8454 72.2713 67.2966 75.0281 64.5398C77.7849 61.783 79.3336 58.044 79.3336 54.1454C79.3447 47.1342 74.4447 33.3898 67.8669 29.7676Z" fill="#B86533"/>
<path d="M67.8668 29.7676H64.6445V68.8898C66.5787 68.8898 68.4939 68.5081 70.2803 67.7666C72.0667 67.0251 73.6891 65.9383 75.0547 64.5686C76.4204 63.1988 77.5022 61.5731 78.2383 59.7845C78.9745 57.9958 79.3504 56.0795 79.3445 54.1454C79.3445 47.1342 74.4445 33.3898 67.8668 29.7676Z" fill="#A35A2D"/>
<path d="M38.7562 11.1118C38.0842 11.1024 37.424 11.2886 36.8559 11.6476C36.2877 12.0066 35.8362 12.5231 35.5562 13.134C35.3003 12.5629 34.895 12.0714 34.383 11.7114C33.871 11.3514 33.2714 11.1363 32.6474 11.0886C32.0233 11.0409 31.398 11.1626 30.8373 11.4407C30.2766 11.7187 29.8014 12.143 29.4617 12.6686C29.122 13.1943 28.9304 13.8018 28.9072 14.4273C28.884 15.0527 29.03 15.6728 29.3298 16.2222C29.6296 16.7716 30.072 17.2299 30.6106 17.5488C31.1491 17.8677 31.7637 18.0353 32.3896 18.034V39.3785H38.7229V18.0229C39.6453 18.0229 40.5299 17.6565 41.1821 17.0043C41.8343 16.3521 42.2007 15.4675 42.2007 14.5452C42.2007 13.6228 41.8343 12.7382 41.1821 12.086C40.5299 11.4338 39.6453 11.0674 38.7229 11.0674L38.7562 11.1118Z" fill="#FCD69B"/>
<path d="M38.8114 29.7676H32.3558C25.7892 33.3898 20.8892 47.1342 20.8892 54.1454C20.8892 56.0758 21.2694 57.9873 22.0081 59.7708C22.7469 61.5543 23.8297 63.1748 25.1947 64.5398C26.5597 65.9048 28.1802 66.9876 29.9637 67.7264C31.7472 68.4651 33.6587 68.8454 35.5892 68.8454C37.5196 68.8454 39.4311 68.4651 41.2146 67.7264C42.9981 66.9876 44.6186 65.9048 45.9836 64.5398C47.3487 63.1748 48.4314 61.5543 49.1702 59.7708C49.9089 57.9873 50.2892 56.0758 50.2892 54.1454C50.2892 47.1342 45.3781 33.3898 38.8114 29.7676Z" fill="#B86533"/>
<path d="M38.8112 29.7676H35.5557V68.8898C37.4926 68.8942 39.4114 68.5158 41.2016 67.7762C42.9919 67.0366 44.6183 65.9506 45.9875 64.5804C47.3566 63.2102 48.4414 61.583 49.1796 59.7922C49.9179 58.0014 50.2949 56.0823 50.289 54.1454C50.289 47.1342 45.3779 33.3898 38.8112 29.7676Z" fill="#A35A2D"/>
<path d="M83.0669 47.1117C83.4224 45.1117 82.3335 43.4673 80.6224 43.4673C79.7106 43.5656 78.8588 43.9692 78.2053 44.6127C77.5518 45.2561 77.1349 46.1015 77.0224 47.0117C77.2669 45.0562 76.1335 43.4673 74.4558 43.4673C73.5546 43.5621 72.7145 43.9677 72.0799 44.6145C71.4452 45.2613 71.0556 46.1089 70.978 47.0117C71.1558 45.0562 69.978 43.4673 68.3002 43.4673C67.4135 43.5642 66.5905 43.9745 65.9794 44.6243C65.3683 45.2741 65.0092 46.1207 64.9669 47.0117C65.0308 46.5929 65.0079 46.1655 64.8995 45.7559C64.7912 45.3463 64.5998 44.9634 64.3372 44.631C64.0746 44.2986 63.7464 44.0237 63.373 43.8235C62.9997 43.6233 62.5891 43.5021 62.1669 43.4673C61.2825 43.5522 60.4608 43.9612 59.8598 44.6155C59.2588 45.2699 58.921 46.1233 58.9113 47.0117C58.9589 46.5868 58.9208 46.1567 58.7993 45.7467C58.6778 45.3368 58.4754 44.9554 58.204 44.625C57.9327 44.2945 57.5978 44.0219 57.2193 43.823C56.8408 43.6242 56.4263 43.5032 56.0002 43.4673C55.1251 43.5488 54.314 43.9608 53.7319 44.6192C53.1498 45.2777 52.8405 46.1333 52.8669 47.0117C52.9256 46.1433 52.6423 45.2864 52.0776 44.624C51.5129 43.9617 50.7115 43.5465 49.8447 43.4673C49.4008 43.487 48.9654 43.5952 48.564 43.7857C48.1626 43.9761 47.8033 44.2448 47.5072 44.576C47.2112 44.9073 46.9843 45.2944 46.84 45.7146C46.6957 46.1348 46.6368 46.5796 46.6669 47.0228C46.6904 46.1433 46.3786 45.2877 45.7947 44.6296C45.2108 43.9714 44.3985 43.5599 43.5224 43.4784C43.0964 43.5143 42.6819 43.6353 42.3034 43.8341C41.9248 44.033 41.59 44.3057 41.3186 44.6361C41.0473 44.9665 40.8449 45.3479 40.7234 45.7579C40.6019 46.1678 40.5638 46.5979 40.6113 47.0228C40.6017 46.1344 40.2639 45.281 39.6629 44.6267C39.0619 43.9723 38.2402 43.5634 37.3558 43.4784C36.9339 43.513 36.5237 43.6343 36.1508 43.8346C35.778 44.0349 35.4504 44.31 35.1887 44.6427C34.9269 44.9753 34.7366 45.3584 34.6296 45.7679C34.5226 46.1775 34.5013 46.6047 34.5669 47.0228C34.5223 46.1326 34.1625 45.2872 33.5518 44.6378C32.9412 43.9885 32.1194 43.5775 31.2336 43.4784C29.5558 43.4784 28.378 45.0784 28.5558 47.0228C28.4756 46.1191 28.0838 45.2713 27.4473 44.6246C26.8108 43.978 25.9693 43.5728 25.0669 43.4784C23.3891 43.4784 22.2669 45.0784 22.5002 47.0228C22.3877 46.1127 21.9709 45.2672 21.3174 44.6238C20.6639 43.9804 19.812 43.5767 18.9002 43.4784C17.2224 43.4784 16.1447 45.0784 16.4558 47.0228L26.4558 97.2228H73.0002L83.0002 47.3895C83.0113 47.3006 83.0447 47.2117 83.0669 47.1117Z" fill="#D3CCCC"/>
<path d="M50.278 54.5337C38.3336 54.5337 28.978 60.7781 28.978 68.7559C28.978 76.7337 38.3336 82.9781 50.278 82.9781C62.2225 82.9781 71.578 76.7226 71.578 68.7559C71.578 60.7892 62.2225 54.5337 50.278 54.5337Z" fill="#FF860D"/>
<path d="M50.2779 58.8892C42.0001 58.8892 35.5557 63.2336 35.5557 68.7558C35.5557 74.278 42.0334 78.6114 50.3112 78.6114C58.589 78.6114 65.0668 74.278 65.0668 68.7558C65.0668 63.2336 58.5446 58.8892 50.2779 58.8892Z" fill="#F04B3E"/>
</svg>
