<svg width="100" height="100" viewBox="0 0 100 100" fill="none" xmlns="http://www.w3.org/2000/svg">
<path opacity="0.962" fill-rule="evenodd" clip-rule="evenodd" d="M59.2296 13.8065C58.7184 13.1444 58.1162 12.5923 57.4229 12.1503C58.3753 11.7597 59.3791 11.6343 60.434 11.7739C60.5792 12.1724 60.5039 12.5488 60.2082 12.9031C59.9015 13.2352 59.5754 13.5364 59.2296 13.8065Z" fill="#D4C751"/>
<path opacity="0.974" fill-rule="evenodd" clip-rule="evenodd" d="M57.4229 12.1509C58.1163 12.5929 58.7185 13.1449 59.2296 13.807C58.689 14.3791 58.0867 14.8809 57.4229 15.3126C56.9262 14.565 56.324 13.9125 55.6162 13.3554C56.1775 12.8948 56.7797 12.4933 57.4229 12.1509Z" fill="#D4A94C"/>
<path opacity="0.954" fill-rule="evenodd" clip-rule="evenodd" d="M55.6164 13.3545C56.3242 13.9117 56.9264 14.5641 57.4231 15.3118C57.1173 15.6163 56.7659 15.8672 56.3692 16.0646C55.7209 15.5166 55.1187 14.9143 54.5625 14.2578C54.91 13.9611 55.2614 13.66 55.6164 13.3545Z" fill="#D49147"/>
<path opacity="0.973" fill-rule="evenodd" clip-rule="evenodd" d="M54.5624 14.2588C55.1186 14.9153 55.7208 15.5175 56.3691 16.0655C56.0306 16.4913 55.7295 16.943 55.4657 17.4205C54.6717 16.8778 53.969 16.2254 53.3579 15.4633C53.7092 15.0116 54.1107 14.6101 54.5624 14.2588Z" fill="#D47E44"/>
<path opacity="0.984" fill-rule="evenodd" clip-rule="evenodd" d="M53.3579 15.4624C53.9691 16.2245 54.6717 16.877 55.4658 17.4197C55.1699 18.2413 55.0194 19.0945 55.0141 19.9792C54.0659 19.1064 53.1374 18.203 52.2287 17.2691C52.156 17.1264 52.131 16.9758 52.1535 16.8174C52.4504 16.2747 52.8519 15.823 53.3579 15.4624Z" fill="#D46A40"/>
<path opacity="0.986" fill-rule="evenodd" clip-rule="evenodd" d="M52.1534 16.8179C52.131 16.9763 52.156 17.1268 52.2287 17.2695C53.1373 18.2034 54.0658 19.1068 55.014 19.9796C55.221 21.3527 55.6727 22.6576 56.3691 23.8942C55.8986 24.0416 55.3967 24.0918 54.8635 24.0447C54.6077 24.0689 54.3567 24.0438 54.1107 23.9695C52.8758 22.7094 51.6212 21.4798 50.3467 20.2807C50.5951 18.9304 51.1973 17.7761 52.1534 16.8179Z" fill="#D4553B"/>
<path opacity="0.995" fill-rule="evenodd" clip-rule="evenodd" d="M50.3468 20.2803C51.6213 21.4794 52.8759 22.7089 54.1108 23.969C54.3568 24.0433 54.6078 24.0684 54.8636 24.0443C54.7568 24.1804 54.6063 24.2306 54.4119 24.1948C52.1193 24.3322 49.8609 24.6835 47.6367 25.2487C48.6679 24.1396 49.496 22.885 50.121 21.4848C50.2447 21.0908 50.32 20.6893 50.3468 20.2803Z" fill="#D34238"/>
<path opacity="0.994" fill-rule="evenodd" clip-rule="evenodd" d="M31.9786 23.7437C31.2664 23.1826 30.6642 22.5301 30.1719 21.7864C30.4742 21.421 30.8756 21.2704 31.3764 21.3348C32.4715 21.2664 32.8982 21.7683 32.6561 22.8403C32.5369 23.2328 32.311 23.5339 31.9786 23.7437Z" fill="#D4D057"/>
<path opacity="0.994" fill-rule="evenodd" clip-rule="evenodd" d="M73.9844 24.045C73.1357 24.4696 72.3328 24.9715 71.5755 25.5506C71.4751 25.6008 71.3748 25.651 71.2744 25.7012C71.2941 25.5692 71.244 25.4689 71.1238 25.4001C69.9607 26.1817 68.8567 27.0348 67.8115 27.9596C66.607 26.8555 65.4527 25.7012 64.3486 24.4967C64.9872 24.1774 65.6397 23.8512 66.3059 23.5181C68.2672 21.9849 70.3751 20.6801 72.6294 19.6035C73.4625 19.2563 74.2655 19.3065 75.0384 19.7541C75.7346 20.3058 75.8098 20.9331 75.2642 21.6361C74.559 22.2938 74.1324 23.0968 73.9844 24.045Z" fill="#D33439"/>
<path opacity="0.962" fill-rule="evenodd" clip-rule="evenodd" d="M30.1716 21.7866C30.6639 22.5303 31.2662 23.1828 31.9783 23.7439C31.572 24.2995 31.1706 24.8515 30.7738 25.4001C30.0712 24.7476 29.3687 24.0952 28.666 23.4428C29.0609 22.7968 29.5627 22.2447 30.1716 21.7866Z" fill="#D4B658"/>
<path opacity="0.985" fill-rule="evenodd" clip-rule="evenodd" d="M28.6662 23.4424C29.3689 24.0948 30.0714 24.7472 30.774 25.3997C30.6235 25.7008 30.4729 26.0019 30.3224 26.303C29.5696 25.6004 28.8168 24.8978 28.064 24.1952C28.2302 23.9108 28.4309 23.6599 28.6662 23.4424Z" fill="#D5A15A"/>
<path opacity="0.994" fill-rule="evenodd" clip-rule="evenodd" d="M56.3689 23.8945C59.0428 23.9268 61.7026 24.1275 64.3486 24.4968C65.4526 25.7012 66.6069 26.8556 67.8114 27.9596C66.6368 29.2254 65.2316 30.1537 63.5958 30.745C63.2445 30.8454 62.8931 30.8454 62.5418 30.745C61.5496 30.3225 60.5459 29.9461 59.5306 29.6158C59.5504 29.5045 59.5252 29.4041 59.4554 29.3147C57.7437 27.6281 56.0625 25.9218 54.4116 24.1957C54.606 24.2314 54.7566 24.1812 54.8633 24.0451C55.3966 24.0922 55.8984 24.042 56.3689 23.8945Z" fill="#D5323D"/>
<path opacity="0.992" fill-rule="evenodd" clip-rule="evenodd" d="M73.9846 24.0448C75.5864 23.7783 76.5651 24.4308 76.9205 26.002C76.9957 26.6526 77.0208 27.305 76.9958 27.9593C76.7929 28.6659 76.5419 29.3685 76.243 30.0671C74.5949 28.6701 73.0391 27.1645 71.5757 25.5503C72.333 24.9712 73.1359 24.4693 73.9846 24.0448Z" fill="#412624"/>
<path opacity="0.996" fill-rule="evenodd" clip-rule="evenodd" d="M54.4117 24.1953C56.0626 25.9215 57.7437 27.6278 59.4555 29.3143C59.5253 29.4038 59.5505 29.5042 59.5307 29.6155C55.789 28.6999 52.025 28.6246 48.2388 29.3896C46.5576 29.7972 44.9015 30.274 43.2703 30.8199C42.2578 29.808 41.3043 28.7541 40.4097 27.6582C42.7256 26.5851 45.1345 25.7821 47.6365 25.2492C49.8607 24.684 52.1191 24.3327 54.4117 24.1953Z" fill="#D52F41"/>
<path opacity="0.963" fill-rule="evenodd" clip-rule="evenodd" d="M28.0642 24.1953C28.817 24.8979 29.5697 25.6005 30.3225 26.3031C30.2013 26.6667 30.0508 27.0182 29.8709 27.3571C29.0679 26.6043 28.2648 25.8515 27.4619 25.0987C27.6087 24.7531 27.8094 24.452 28.0642 24.1953Z" fill="#D5945A"/>
<path opacity="0.938" fill-rule="evenodd" clip-rule="evenodd" d="M27.4616 25.0986C28.2645 25.8514 29.0676 26.6042 29.8706 27.357C29.7872 27.8457 29.6366 28.2974 29.4189 28.7121C29.4413 28.5537 29.4163 28.4031 29.3436 28.2604C28.5771 27.4176 27.749 26.6648 26.8594 26.002C26.9858 25.6478 27.1867 25.3467 27.4616 25.0986Z" fill="#D6895A"/>
<path fill-rule="evenodd" clip-rule="evenodd" d="M71.2743 25.701C70.869 26.0567 70.4675 26.408 70.0698 26.7549C69.5076 27.1661 69.056 27.6679 68.7148 28.2605C68.4137 28.4612 68.1627 28.7122 67.962 29.0133C67.6409 29.2529 67.39 29.554 67.2092 29.9167C66.9295 30.2755 66.7286 30.677 66.607 31.1212C66.2729 33.182 67.1261 34.5622 69.1665 35.2616C69.7652 35.3939 70.3173 35.3186 70.8226 35.0357C71.2353 35.0045 71.5866 34.854 71.8765 34.584C72.318 34.3883 72.6694 34.0872 72.9305 33.6807C73.2171 33.6448 73.418 33.4943 73.5327 33.229C74.0848 32.7773 74.5866 32.2755 75.0383 31.7234C75.3895 31.3219 75.741 30.9205 76.0922 30.5189C76.4213 30.5206 76.5467 30.6711 76.4686 30.9706C75.5589 31.955 74.6807 32.9587 73.8338 33.9818C72.5369 35.1553 71.5583 36.5606 70.8979 38.1975C70.7975 38.5487 70.7975 38.9001 70.8979 39.2514C71.3222 40.1516 71.6986 41.0549 72.0271 41.9615C73.1223 47.5121 72.6706 52.9323 70.6721 58.2219C69.014 62.192 66.856 65.8556 64.198 69.2127C60.9802 72.8847 57.3167 75.9963 53.2072 78.5474C48.9118 80.9769 44.2946 82.382 39.3557 82.7631C31.2986 83.0645 25.201 79.8023 21.0627 72.9767C19.3808 69.561 18.6029 65.9475 18.729 62.1364C19.0439 57.2276 20.4491 52.6607 22.9447 48.4355C25.3961 44.2262 28.5077 40.5626 32.2794 37.4447C35.6332 34.7382 39.2968 32.53 43.2702 30.82C44.9014 30.2741 46.5575 29.7973 48.2387 29.3897C52.025 28.6247 55.789 28.7 59.5307 29.6156C60.5459 29.9459 61.5497 30.3223 62.5418 30.7448C62.8931 30.8452 63.2445 30.8452 63.5958 30.7448C65.2316 30.1535 66.6368 29.2252 67.8114 27.9594C68.8566 27.0347 69.9607 26.1815 71.1237 25.3999C71.2439 25.4687 71.294 25.5691 71.2743 25.701Z" fill="#FEFEFE"/>
<path fill-rule="evenodd" clip-rule="evenodd" d="M71.5754 25.5498C73.0389 27.164 74.5946 28.6695 76.2428 30.0666C76.1509 30.2007 76.1008 30.3513 76.0922 30.5183C75.741 30.9198 75.3895 31.3212 75.0383 31.7227C73.4323 30.0165 71.7761 28.3603 70.0698 26.7543C70.4675 26.4073 70.869 26.056 71.2743 25.7004C71.3747 25.6502 71.475 25.6 71.5754 25.5498Z" fill="#482429"/>
<path opacity="0.975" fill-rule="evenodd" clip-rule="evenodd" d="M26.8594 26.0024C27.7491 26.6652 28.5771 27.418 29.3436 28.2608C29.4164 28.4036 29.4414 28.5541 29.4189 28.7125C29.3765 29.3259 29.2762 29.9281 29.1178 30.5192C28.0138 29.5154 26.9598 28.4615 25.9561 27.3575C26.1456 26.8268 26.4467 26.3751 26.8594 26.0024Z" fill="#D6765B"/>
<path opacity="0.987" fill-rule="evenodd" clip-rule="evenodd" d="M25.9559 27.3569C26.9597 28.461 28.0136 29.5149 29.1177 30.5187C29.0511 31.0688 29.0008 31.6209 28.9671 32.1748C27.7679 31.0511 26.5885 29.8967 25.429 28.712C25.3563 28.5692 25.3312 28.4187 25.3537 28.2603C25.5004 27.9148 25.7012 27.6136 25.9559 27.3569Z" fill="#D6685C"/>
<path fill-rule="evenodd" clip-rule="evenodd" d="M70.0699 26.7549C71.7762 28.3609 73.4323 30.0171 75.0383 31.7233C74.5867 32.2755 74.0849 32.7773 73.5327 33.2289C71.9267 31.5728 70.3209 29.9166 68.7148 28.2605C69.056 27.6679 69.5077 27.1661 70.0699 26.7549Z" fill="#532130"/>
<path fill-rule="evenodd" clip-rule="evenodd" d="M68.7147 28.2603C70.3207 29.9164 71.9266 31.5726 73.5326 33.2287C73.4179 33.494 73.217 33.6446 72.9304 33.6804C71.3548 32.1801 69.799 30.6495 68.263 29.0883C68.1736 29.0185 68.0732 28.9933 67.9619 29.0131C68.1626 28.7119 68.4136 28.4609 68.7147 28.2603Z" fill="#5B1E34"/>
<path opacity="0.989" fill-rule="evenodd" clip-rule="evenodd" d="M76.8452 37.2937C75.9004 36.1476 74.8966 35.0434 73.834 33.9814C74.6809 32.9583 75.5591 31.9545 76.4688 30.9702C76.5469 30.6707 76.4215 30.5201 76.0924 30.5185C76.101 30.3515 76.1511 30.201 76.2429 30.0668C76.5418 29.3682 76.7928 28.6656 76.9957 27.959C77.5898 28.1136 78.1921 28.1387 78.8025 28.0343C79.4977 27.5901 80.1503 27.0881 80.7597 26.5287C81.7707 26.3843 82.2725 26.836 82.2653 27.8837C82.183 28.727 81.9068 29.5048 81.4372 30.2174C80.2829 31.8234 79.1287 33.4293 77.9744 35.0353C77.5117 35.7599 77.1353 36.5127 76.8452 37.2937Z" fill="#D33439"/>
<path fill-rule="evenodd" clip-rule="evenodd" d="M67.9623 29.0129C68.0735 28.9931 68.174 29.0183 68.2634 29.0881C69.7994 30.6493 71.3551 32.1799 72.9307 33.6802C72.6697 34.0867 72.3183 34.3878 71.8768 34.5836C70.5103 32.9906 69.055 31.46 67.5106 29.9915C67.4212 29.9216 67.3207 29.8965 67.2095 29.9162C67.3903 29.5535 67.6411 29.2524 67.9623 29.0129Z" fill="#641B39"/>
<path opacity="0.991" fill-rule="evenodd" clip-rule="evenodd" d="M25.3539 28.2603C25.3314 28.4186 25.3565 28.5692 25.4292 28.7119C26.5887 29.8967 27.7681 31.051 28.9673 32.1748C29.0367 33.0465 29.4884 33.5986 30.3224 33.831C30.0673 34.1864 29.7662 34.4875 29.419 34.7343C29.2684 34.8347 29.1179 34.935 28.9673 35.0354C27.3071 33.4756 25.7011 31.8696 24.1494 30.2175C24.5153 29.5344 24.9168 28.8821 25.3539 28.2603Z" fill="#D7575C"/>
<path opacity="0.989" fill-rule="evenodd" clip-rule="evenodd" d="M40.4098 27.6577C41.3044 28.7536 42.2579 29.8076 43.2704 30.8195C39.297 32.5294 35.6334 34.7376 32.2796 37.4441C31.3261 36.5407 30.3724 35.6374 29.4189 34.734C29.7661 34.4872 30.0673 34.1861 30.3223 33.8307C33.4097 31.35 36.7721 29.2925 40.4098 27.6577Z" fill="#D62B48"/>
<path fill-rule="evenodd" clip-rule="evenodd" d="M67.2092 29.9167C67.3204 29.8969 67.4209 29.9221 67.5103 29.9919C69.0547 31.4605 70.51 32.9911 71.8765 34.584C71.5865 34.854 71.2353 35.0045 70.8226 35.0357C69.3751 33.7895 67.9699 32.4846 66.6069 31.1211C66.7286 30.677 66.9294 30.2754 67.2092 29.9167Z" fill="#6F1740"/>
<path opacity="0.997" fill-rule="evenodd" clip-rule="evenodd" d="M24.1495 30.2178C25.7012 31.8699 27.3071 33.4759 28.9674 35.0357C28.5502 35.4711 28.0985 35.8725 27.6123 36.2402C26.1569 34.835 24.7015 33.4297 23.2461 32.0245C23.5472 31.4223 23.8483 30.82 24.1495 30.2178Z" fill="#D7495D"/>
<path fill-rule="evenodd" clip-rule="evenodd" d="M66.6071 31.1211C67.9701 32.4846 69.3753 33.7895 70.8228 35.0356C70.3175 35.3185 69.7654 35.3938 69.1666 35.2615C67.1263 34.5621 66.273 33.182 66.6071 31.1211Z" fill="#7F154A"/>
<path fill-rule="evenodd" clip-rule="evenodd" d="M50.3471 33.3799C49.6911 33.091 48.9884 32.9404 48.2393 32.9282C48.3011 32.3894 48.6023 32.0631 49.1426 31.9496C50.5395 31.6625 50.9409 32.1393 50.3471 33.3799Z" fill="#651941"/>
<path opacity="0.987" fill-rule="evenodd" clip-rule="evenodd" d="M23.246 32.0244C24.7014 33.4296 26.1568 34.8349 27.6122 36.2401C27.2609 36.6918 26.8594 37.0933 26.4077 37.4446C25.0106 36.2986 23.7057 35.0439 22.4932 33.6806C22.7032 33.1099 22.9541 32.5578 23.246 32.0244Z" fill="#D63D5E"/>
<path fill-rule="evenodd" clip-rule="evenodd" d="M48.2386 32.9282C48.9878 32.9404 49.6904 33.091 50.3464 33.3799C49.7368 34.3137 49.0593 34.3638 48.3139 33.5305C48.2401 33.3358 48.2149 33.1349 48.2386 32.9282Z" fill="#401E30"/>
<path fill-rule="evenodd" clip-rule="evenodd" d="M29.4192 34.7344C30.3727 35.6377 31.3263 36.5411 32.2798 37.4444C28.5081 40.5624 25.3966 44.226 22.9451 48.4353C21.841 47.6324 20.8875 46.6787 20.0845 45.5747C21.3573 43.348 22.8629 41.2903 24.6013 39.4017C25.1993 38.7533 25.8015 38.1007 26.408 37.4444C26.8597 37.0932 27.2612 36.6916 27.6125 36.24C28.0986 35.8723 28.5503 35.4709 28.9675 35.0355C29.118 34.9351 29.2686 34.8348 29.4192 34.7344Z" fill="#D6284E"/>
<path opacity="0.988" fill-rule="evenodd" clip-rule="evenodd" d="M22.4934 33.6807C23.7059 35.044 25.0108 36.2987 26.4079 37.4447C25.8014 38.1009 25.1992 38.7535 24.6012 39.4019C23.6393 38.2891 22.5854 37.2855 21.4395 36.3907C21.6759 35.4285 22.0272 34.5252 22.4934 33.6807Z" fill="#D7315E"/>
<path fill-rule="evenodd" clip-rule="evenodd" d="M63.1442 35.1867C62.9301 35.2181 62.7294 35.2934 62.542 35.4125C62.1108 35.7687 61.7092 36.1451 61.3375 36.5417C61.0343 35.6838 61.2351 34.956 61.9397 34.3586C62.6252 34.2244 63.0268 34.5004 63.1442 35.1867Z" fill="#661841"/>
<path fill-rule="evenodd" clip-rule="evenodd" d="M63.1441 35.186C63.3632 35.721 63.313 36.2479 62.9936 36.7669C62.366 37.1136 61.8139 37.0384 61.3374 36.5411C61.7091 36.1445 62.1107 35.7681 62.5419 35.4119C62.7293 35.2928 62.93 35.2175 63.1441 35.186Z" fill="#441E32"/>
<path opacity="0.904" fill-rule="evenodd" clip-rule="evenodd" d="M85.879 37.595C85.5553 37.4189 85.2039 37.2683 84.825 37.1433C84.7233 36.9774 84.623 36.8269 84.5239 36.6916C84.6447 35.9918 85.0462 35.6656 85.7284 35.713C86.2746 36.3095 86.3249 36.9369 85.879 37.595Z" fill="#D4C250"/>
<path opacity="0.999" fill-rule="evenodd" clip-rule="evenodd" d="M73.834 33.9819C74.8966 35.044 75.9004 36.1482 76.8452 37.2942C76.8452 39.101 76.8452 40.9077 76.8452 42.7144C76.8452 44.0193 76.8452 45.324 76.8452 46.6289C75.2392 45.0732 73.6333 43.5173 72.0273 41.9616C71.6987 41.0551 71.3223 40.1517 70.8981 39.2515C70.7976 38.9003 70.7976 38.5489 70.8981 38.1976C71.5584 36.5607 72.5371 35.1554 73.834 33.9819Z" fill="#D5323E"/>
<path opacity="0.981" fill-rule="evenodd" clip-rule="evenodd" d="M84.5236 36.6914C84.6227 36.8266 84.723 36.9772 84.8248 37.1431C85.2036 37.268 85.555 37.4186 85.8787 37.5948C85.7189 38.0648 85.5181 38.5165 85.2764 38.9498C84.7048 38.6643 84.1025 38.4635 83.4697 38.3476C83.8805 37.8358 84.2317 37.2837 84.5236 36.6914Z" fill="#D5A74B"/>
<path opacity="0.983" fill-rule="evenodd" clip-rule="evenodd" d="M21.4392 36.3906C22.5852 37.2854 23.6391 38.289 24.601 39.4018C22.8626 41.2904 21.357 43.3481 20.0842 45.5748C19.9196 45.8531 19.7189 46.1041 19.4819 46.3276C19.7104 42.9269 20.3628 39.6146 21.4392 36.3906Z" fill="#D8235F"/>
<path opacity="0.964" fill-rule="evenodd" clip-rule="evenodd" d="M83.4695 38.3477C84.1023 38.4636 84.7045 38.6644 85.2762 38.9499C84.9632 39.6264 84.6119 40.2787 84.2223 40.9072C83.3895 40.6657 82.6367 40.3144 81.9639 39.8533C82.5119 39.4056 83.0137 38.9038 83.4695 38.3477Z" fill="#D48946"/>
<path fill-rule="evenodd" clip-rule="evenodd" d="M36.6457 38.8001C36.0444 39.2506 35.4421 39.7023 34.839 40.1551C34.5639 39.3662 34.7646 38.6887 35.4412 38.1226C36.0804 37.9347 36.4819 38.1605 36.6457 38.8001Z" fill="#6B1743"/>
<path fill-rule="evenodd" clip-rule="evenodd" d="M36.6456 38.7993C37.1027 40.0743 36.651 40.7016 35.2905 40.6813C35.1084 40.5249 34.9578 40.3492 34.8389 40.1544C35.442 39.7015 36.0442 39.2498 36.6456 38.7993Z" fill="#3F1E2F"/>
<path opacity="0.964" fill-rule="evenodd" clip-rule="evenodd" d="M81.9641 39.853C82.6369 40.3142 83.3897 40.6654 84.2225 40.9069C83.9715 41.3085 83.7207 41.7099 83.4697 42.1114C82.474 41.7794 81.4703 41.4783 80.4585 41.2081C80.8974 40.6873 81.3992 40.2356 81.9641 39.853Z" fill="#D37041"/>
<path opacity="0.994" fill-rule="evenodd" clip-rule="evenodd" d="M72.0274 41.9619C73.6334 43.5176 75.2393 45.0735 76.8453 46.6293C76.8453 47.5326 76.8453 48.436 76.8453 49.3393C76.8287 52.4666 76.3771 55.5279 75.4903 58.5235C75.2242 58.8686 75.0737 59.2699 75.0386 59.7279C74.7525 60.1823 74.5518 60.6841 74.4364 61.2335C74.3359 61.334 74.2357 61.4342 74.1352 61.5347C72.9809 60.4306 71.8267 59.3264 70.6724 58.2223C72.6709 52.9327 73.1226 47.5126 72.0274 41.9619Z" fill="#D53042"/>
<path opacity="0.973" fill-rule="evenodd" clip-rule="evenodd" d="M80.4588 41.2085C81.4705 41.4788 82.4743 41.7799 83.4699 42.1119C82.9903 42.9728 82.4383 43.7758 81.8138 44.5208C80.5813 43.93 79.3267 43.3779 78.0498 42.8647C78.4657 42.7322 78.8672 42.5566 79.2543 42.3377C79.6361 41.9304 80.0376 41.554 80.4588 41.2085Z" fill="#D45A3C"/>
<path opacity="0.994" fill-rule="evenodd" clip-rule="evenodd" d="M76.8452 42.7139C77.2361 42.829 77.6376 42.8793 78.0497 42.8644C79.3266 43.3777 80.5812 43.9298 81.8137 44.5206C80.5518 46.5352 78.8957 48.1412 76.8452 49.3385C76.8452 48.4351 76.8452 47.5318 76.8452 46.6284C76.8452 45.3235 76.8452 44.0188 76.8452 42.7139Z" fill="#D44238"/>
<path opacity="0.989" fill-rule="evenodd" clip-rule="evenodd" d="M20.0842 45.5752C20.8872 46.6792 21.8407 47.6329 22.9448 48.4358C20.4492 52.661 19.044 57.2279 18.7292 62.1367C17.5247 60.9824 16.3202 59.8282 15.1157 58.6739C15.795 54.2769 17.2504 50.1617 19.482 46.328C19.7189 46.1046 19.9196 45.8536 20.0842 45.5752Z" fill="#D72355"/>
<path fill-rule="evenodd" clip-rule="evenodd" d="M60.5845 46.3272C59.8733 46.6327 59.271 47.0844 58.7778 47.6822C58.5641 46.8721 58.8151 46.1946 59.5306 45.6497C60.0908 45.5301 60.4422 45.756 60.5845 46.3272Z" fill="#751C4A"/>
<path fill-rule="evenodd" clip-rule="evenodd" d="M60.585 46.3271C60.7211 46.4339 60.7713 46.5845 60.7356 46.7788C60.3925 47.1491 60.0662 47.5506 59.757 47.9833C59.7068 47.8829 59.6565 47.7826 59.6064 47.6822C59.4393 47.9136 59.2134 48.0139 58.9289 47.9833C58.8787 47.8829 58.8285 47.7826 58.7783 47.6822C59.2716 47.0843 59.8738 46.6326 60.585 46.3271Z" fill="#511A37"/>
<path fill-rule="evenodd" clip-rule="evenodd" d="M60.7354 46.7788C61.0394 47.6743 60.7131 48.2264 59.7568 48.435C59.3956 48.418 59.1196 48.2674 58.9287 47.9833C59.2133 48.0138 59.4391 47.9136 59.6062 47.6822C59.6564 47.7826 59.7067 47.8829 59.7568 47.9833C60.066 47.5506 60.3923 47.149 60.7354 46.7788Z" fill="#402A35"/>
<path fill-rule="evenodd" clip-rule="evenodd" d="M25.8054 49.3391C25.8279 49.4974 25.8028 49.648 25.7301 49.7907C25.2617 50.2862 24.7348 50.6876 24.1493 50.9952C23.9522 50.826 23.8519 50.6001 23.8481 50.3177C24.0087 49.5675 24.4352 49.0405 25.1279 48.7368C25.4749 48.808 25.7007 49.0089 25.8054 49.3391Z" fill="#6D1A45"/>
<path fill-rule="evenodd" clip-rule="evenodd" d="M45.3782 50.0912C44.5819 49.9425 43.7789 49.8421 42.9692 49.7901C43.0986 49.3457 43.3997 49.0697 43.8726 48.962C44.3243 48.8616 44.776 48.8616 45.2276 48.962C45.5611 49.2996 45.6113 49.676 45.3782 50.0912Z" fill="#681842"/>
<path fill-rule="evenodd" clip-rule="evenodd" d="M42.9694 49.7905C43.7791 49.8425 44.582 49.9429 45.3784 50.0916C45.2992 50.3521 45.1486 50.553 44.9267 50.6939C44.3193 50.668 43.7171 50.5927 43.12 50.468C42.9875 50.2639 42.9372 50.038 42.9694 49.7905Z" fill="#491B34"/>
<path fill-rule="evenodd" clip-rule="evenodd" d="M25.8056 49.3389C26.2711 50.0855 26.1707 50.763 25.5045 51.3714C25.1531 51.4718 24.8018 51.4718 24.4505 51.3714C24.318 51.2648 24.2176 51.1393 24.1494 50.995C24.7349 50.6874 25.2619 50.286 25.7303 49.7905C25.803 49.6478 25.8281 49.4973 25.8056 49.3389Z" fill="#442133"/>
<path fill-rule="evenodd" clip-rule="evenodd" d="M42.9691 49.7905C42.9369 50.038 42.9872 50.2639 43.1197 50.468C43.7168 50.5927 44.319 50.668 44.9264 50.6939C44.1927 51.5265 43.5152 51.4762 42.8938 50.5433C42.7764 50.2592 42.8016 50.0082 42.9691 49.7905Z" fill="#3D2F36"/>
<path opacity="0.986" fill-rule="evenodd" clip-rule="evenodd" d="M88.5888 54.6086C88.5888 55.0602 88.5888 55.5119 88.5888 55.9636C88.4382 56.1643 88.2877 56.3651 88.1371 56.5658C87.5674 56.306 87.0154 56.0049 86.481 55.6625C86.858 55.059 87.3849 54.6575 88.0618 54.458C88.2509 54.4803 88.4266 54.5306 88.5888 54.6086Z" fill="#D4D654"/>
<path fill-rule="evenodd" clip-rule="evenodd" d="M68.2634 56.7159C67.4739 56.5179 66.671 56.4175 65.8545 56.4148C66.1692 55.7284 66.7213 55.3771 67.5106 55.3608C68.3892 55.4465 68.64 55.8982 68.2634 56.7159Z" fill="#671842"/>
<path opacity="0.946" fill-rule="evenodd" clip-rule="evenodd" d="M86.481 55.6626C87.0155 56.005 87.5675 56.3061 88.1372 56.566C87.7546 57.1309 87.3029 57.6327 86.7821 58.0716C86.2516 57.6316 85.6995 57.2301 85.126 56.8671C85.5777 56.4655 86.0293 56.0641 86.481 55.6626Z" fill="#D3BE50"/>
<path fill-rule="evenodd" clip-rule="evenodd" d="M65.8542 56.415C66.6707 56.4177 67.4736 56.5182 68.2632 56.7162C67.707 57.8378 66.9292 58.0385 65.9295 57.3184C65.855 57.0213 65.8298 56.7202 65.8542 56.415Z" fill="#421F31"/>
<path fill-rule="evenodd" clip-rule="evenodd" d="M57.2724 56.8662C58.0707 56.9708 58.4721 57.4475 58.4769 58.2965C58.4337 59.3934 57.8816 59.7947 56.8207 59.501C56.1015 58.9631 56.0262 58.3357 56.5949 57.619C56.8519 57.3876 57.0777 57.1366 57.2724 56.8662Z" fill="#272727"/>
<path opacity="0.977" fill-rule="evenodd" clip-rule="evenodd" d="M85.126 56.8662C85.6995 57.2292 86.2516 57.6308 86.7822 58.0707C86.4811 58.4722 86.1298 58.8235 85.7283 59.1246C84.955 58.854 84.3025 58.4024 83.771 57.7696C84.2192 57.4734 84.6709 57.1723 85.126 56.8662Z" fill="#D4AA4C"/>
<path opacity="0.978" fill-rule="evenodd" clip-rule="evenodd" d="M83.7709 57.7705C84.3024 58.4033 84.9549 58.855 85.7282 59.1255C85.4772 59.4768 85.1761 59.7779 84.8248 60.0289C84.0289 59.5339 83.2761 58.9819 82.5664 58.3727C82.9201 58.0956 83.3215 57.8949 83.7709 57.7705Z" fill="#D49A4A"/>
<path opacity="0.988" fill-rule="evenodd" clip-rule="evenodd" d="M75.4898 58.5225C75.9906 59.9281 76.9942 60.4802 78.501 60.1786C79.5993 61.03 80.7034 61.8833 81.8133 62.7381C81.3586 63.1922 80.8566 63.5938 80.3077 63.9426C78.6327 62.6276 76.9264 61.3479 75.1887 60.1033C75.0755 60.0023 75.0252 59.8769 75.0381 59.7269C75.0732 59.2689 75.2238 58.8675 75.4898 58.5225Z" fill="#D4683F"/>
<path opacity="0.977" fill-rule="evenodd" clip-rule="evenodd" d="M82.5665 58.3726C83.2762 58.9817 84.029 59.5337 84.8249 60.0287C84.3637 60.6409 83.8118 61.1427 83.1687 61.5343C82.1827 60.8667 81.2291 60.1641 80.3081 59.4265C81.0324 59.0395 81.7852 58.6883 82.5665 58.3726Z" fill="#D48846"/>
<path fill-rule="evenodd" clip-rule="evenodd" d="M34.0863 60.1793C33.4118 60.0256 32.7092 59.9253 31.9785 59.8782C32.0443 59.6412 32.1949 59.4655 32.4302 59.3512C32.932 59.2508 33.434 59.2508 33.9358 59.3512C34.2449 59.6038 34.2952 59.8798 34.0863 60.1793Z" fill="#731647"/>
<path opacity="0.982" fill-rule="evenodd" clip-rule="evenodd" d="M80.3077 59.4268C81.2287 60.1643 82.1823 60.867 83.1683 61.5346C82.81 62.0436 82.3583 62.445 81.8133 62.7391C80.7034 61.8842 79.5993 61.031 78.501 60.1796C79.1026 59.929 79.7049 59.678 80.3077 59.4268Z" fill="#D47642"/>
<path fill-rule="evenodd" clip-rule="evenodd" d="M31.9782 59.8779C32.7089 59.9251 33.4115 60.0253 34.086 60.179C34.1023 60.4823 34.002 60.7331 33.7849 60.9318C33.1312 60.8959 32.4787 60.8456 31.8276 60.7813C31.7832 60.4448 31.8335 60.1437 31.9782 59.8779Z" fill="#501936"/>
<path opacity="0.997" fill-rule="evenodd" clip-rule="evenodd" d="M75.0383 59.7275C75.0253 59.8775 75.0756 60.0029 75.1888 60.1039C76.9266 61.3485 78.6329 62.6282 80.3078 63.9432C79.8532 64.3973 79.3512 64.7988 78.8022 65.1477C77.5725 63.9464 76.2174 62.8675 74.7371 61.9107C74.5057 61.7435 74.4055 61.5177 74.436 61.2331C74.5515 60.6837 74.7522 60.1819 75.0383 59.7275Z" fill="#D45C3D"/>
<path fill-rule="evenodd" clip-rule="evenodd" d="M31.8276 60.7812C32.4787 60.8455 33.1312 60.8958 33.7849 60.9318C33.0707 61.773 32.4183 61.7228 31.8276 60.7812Z" fill="#412F39"/>
<path opacity="0.998" fill-rule="evenodd" clip-rule="evenodd" d="M70.6723 58.2217C71.8266 59.3257 72.9808 60.4299 74.1352 61.534C73.926 62.2031 73.6751 62.8555 73.3824 63.4913C71.8667 66.2619 70.1103 68.8715 68.1128 71.3204C67.8693 71.8148 67.5181 72.2163 67.0589 72.5248C66.1054 71.4208 65.1517 70.3166 64.1982 69.2125C66.8562 65.8554 69.0142 62.1918 70.6723 58.2217Z" fill="#D62B48"/>
<path opacity="0.991" fill-rule="evenodd" clip-rule="evenodd" d="M15.1159 58.6733C16.3203 59.8277 17.5248 60.9819 18.7293 62.1362C18.6032 65.9473 19.3811 69.5608 21.063 72.9765C25.2013 79.8021 31.2989 83.0643 39.356 82.7629C40.4641 83.9714 41.6184 85.1258 42.8188 86.2257C40.3328 86.6706 37.8236 86.8715 35.2909 86.828C32.0193 86.752 28.7572 86.5511 25.5045 86.2257C25.3461 86.2482 25.1955 86.2232 25.0528 86.1505C22.1543 83.1765 19.1933 80.2907 16.1698 77.4933C16.5842 77.0509 16.8352 76.524 16.9226 75.9124C16.6508 73.9469 16.2242 72.0146 15.6428 70.1159C14.6391 69.3129 13.7357 68.4096 12.9328 67.4058C12.2899 66.253 11.8132 65.0485 11.5024 63.7924C11.5024 63.1901 11.5024 62.5879 11.5024 61.9857C12.3644 63.0731 13.3932 63.9765 14.5889 64.6957C14.7458 62.6995 14.9215 60.692 15.1159 58.6733Z" fill="#D71F5B"/>
<path fill-rule="evenodd" clip-rule="evenodd" d="M44.7756 61.8352C44.374 62.5379 43.8221 63.0898 43.1194 63.4914C43.0374 62.549 43.4138 61.8966 44.2486 61.5341C44.5044 61.5171 44.6801 61.6173 44.7756 61.8352Z" fill="#6F1645"/>
<path opacity="0.991" fill-rule="evenodd" clip-rule="evenodd" d="M74.4364 61.2329C74.4058 61.5175 74.5061 61.7433 74.7375 61.9104C76.2178 62.8672 77.5728 63.9461 78.8026 65.1475C78.0999 65.5991 77.3974 66.0508 76.6948 66.5025C75.7122 65.5964 74.6583 64.7684 73.533 64.0183C73.407 63.866 73.3569 63.6903 73.3825 63.4913C73.6752 62.8555 73.9261 62.2031 74.1353 61.534C74.2357 61.4336 74.336 61.3333 74.4364 61.2329Z" fill="#D3503B"/>
<path fill-rule="evenodd" clip-rule="evenodd" d="M44.7763 61.835C45.0462 62.1249 45.1968 62.4762 45.228 62.8889C44.6752 63.2424 44.1734 63.6438 43.7224 64.0934C43.3896 64.034 43.1889 63.8333 43.1201 63.4911C43.8228 63.0896 44.3747 62.5376 44.7763 61.835Z" fill="#4F1C37"/>
<path fill-rule="evenodd" clip-rule="evenodd" d="M45.2278 62.8892C45.2671 64.0202 44.7651 64.4216 43.7222 64.0936C44.1732 63.6441 44.6751 63.2427 45.2278 62.8892Z" fill="#35242D"/>
<path opacity="0.986" fill-rule="evenodd" clip-rule="evenodd" d="M73.3824 63.4912C73.3568 63.6903 73.4069 63.866 73.5329 64.0182C74.6582 64.7683 75.7121 65.5963 76.6947 66.5024C73.903 68.2247 71.0424 69.8305 68.1128 71.3203C70.1103 68.8715 71.8667 66.2618 73.3824 63.4912Z" fill="#D44138"/>
<path opacity="0.988" fill-rule="evenodd" clip-rule="evenodd" d="M64.198 69.2124C65.1515 70.3165 66.1052 71.4207 67.0587 72.5247C63.9668 76.3721 60.2529 79.4334 55.9173 81.7088C54.9942 80.7105 54.0407 79.7318 53.0566 78.7729C53.1404 78.7153 53.1905 78.64 53.2072 78.5471C57.3167 75.996 60.9803 72.8844 64.198 69.2124Z" fill="#D6284E"/>
<path fill-rule="evenodd" clip-rule="evenodd" d="M27.0097 71.0195C26.2779 70.9242 25.5753 70.7736 24.9019 70.5678C24.9644 70.2287 25.1652 70.0029 25.5041 69.8903C26.006 69.7898 26.5078 69.7898 27.0097 69.8903C27.3962 70.2725 27.3962 70.6489 27.0097 71.0195Z" fill="#701C47"/>
<path fill-rule="evenodd" clip-rule="evenodd" d="M24.9024 70.5679C25.5759 70.7737 26.2785 70.9242 27.0102 71.0195C26.9744 71.3062 26.8238 71.5071 26.5586 71.6218C26.0083 71.5552 25.4563 71.505 24.9024 71.4712C24.7409 71.1471 24.7409 70.846 24.9024 70.5679Z" fill="#4B1C35"/>
<path fill-rule="evenodd" clip-rule="evenodd" d="M24.9019 71.4712C25.4557 71.5049 26.0078 71.5552 26.558 71.6218C25.9717 72.229 25.4197 72.1787 24.9019 71.4712Z" fill="#3F2C36"/>
<path fill-rule="evenodd" clip-rule="evenodd" d="M55.4658 73.127C54.7865 72.904 54.0839 72.8036 53.3579 72.8258C53.345 72.6759 53.3953 72.5505 53.5085 72.4494C54.178 71.9946 54.8556 71.9695 55.5411 72.3742C55.6585 72.6583 55.6334 72.9093 55.4658 73.127Z" fill="#731647"/>
<path fill-rule="evenodd" clip-rule="evenodd" d="M53.3579 72.8263C54.0839 72.804 54.7864 72.9044 55.4657 73.1274C55.1714 74.3012 54.4939 74.6023 53.4332 74.0308C53.1869 73.6202 53.1619 73.2188 53.3579 72.8263Z" fill="#471C33"/>
<path fill-rule="evenodd" clip-rule="evenodd" d="M36.1939 77.0421C36.0355 77.0196 35.8849 77.0446 35.7422 77.1174C35.271 77.5895 34.8193 78.0663 34.3872 78.5477C34.2198 77.7967 34.4706 77.1695 35.14 76.6657C35.6088 76.502 35.9601 76.6274 36.1939 77.0421Z" fill="#761A4A"/>
<path opacity="0.982" fill-rule="evenodd" clip-rule="evenodd" d="M16.1694 77.4937C19.1929 80.291 22.1539 83.1768 25.0524 86.1508C25.1952 86.2235 25.3457 86.2485 25.5041 86.2261C23.3466 86.7775 21.1384 87.0534 18.8795 87.0542C17.5063 86.233 16.3771 85.1541 15.4919 83.8172C14.2564 81.5613 14.4823 79.4535 16.1694 77.4937Z" fill="#D81B5E"/>
<path fill-rule="evenodd" clip-rule="evenodd" d="M36.1938 77.0416C36.3299 77.1484 36.38 77.299 36.3443 77.4933C36.3773 77.6702 36.3272 77.8208 36.1938 77.945C35.7728 78.4169 35.2708 78.7683 34.6882 78.9989C34.4765 78.9277 34.3761 78.7771 34.387 78.5472C34.8191 78.0659 35.2708 77.5891 35.7421 77.1169C35.8848 77.0442 36.0354 77.0192 36.1938 77.0416Z" fill="#551939"/>
<path fill-rule="evenodd" clip-rule="evenodd" d="M36.3446 77.4937C36.699 78.4899 36.3478 79.0921 35.2907 79.3004C35.0114 79.3245 34.8107 79.224 34.6885 78.9992C35.2711 78.7686 35.7731 78.4172 36.1941 77.9453C36.3275 77.8211 36.3776 77.6706 36.3446 77.4937Z" fill="#3D2632"/>
<path opacity="0.997" fill-rule="evenodd" clip-rule="evenodd" d="M53.2074 78.5479C53.1907 78.6407 53.1406 78.716 53.0569 78.7737C54.0409 79.7326 54.9944 80.7112 55.9175 81.7096C55.0358 82.3263 54.0823 82.8283 53.0569 83.2152C52.8899 83.2238 52.7393 83.2739 52.6052 83.3658C52.2561 83.4398 51.9549 83.5904 51.7018 83.8174C51.094 83.9025 50.5421 84.1033 50.0457 84.4197C49.2295 84.5245 48.4767 84.7754 47.7873 85.1725C46.3893 85.3593 45.0343 85.6604 43.7222 86.0758C43.4309 86.1737 43.1297 86.2238 42.8188 86.2264C41.6184 85.1264 40.4641 83.9721 39.356 82.7635C44.2949 82.3825 48.9121 80.9773 53.2074 78.5479Z" fill="#D72455"/>
<path opacity="0.991" fill-rule="evenodd" clip-rule="evenodd" d="M53.0568 83.2148C52.9907 83.8495 53.2416 84.3011 53.8096 84.5699C54.0606 85.7745 54.3116 86.979 54.5624 88.1833C54.2112 88.1833 53.8598 88.1833 53.5085 88.1833C53.2524 86.6568 52.901 85.1512 52.4546 83.6665C52.5092 83.5637 52.5594 83.4633 52.6051 83.3654C52.7393 83.2736 52.8899 83.2234 53.0568 83.2148Z" fill="#D6775B"/>
<path opacity="0.996" fill-rule="evenodd" clip-rule="evenodd" d="M52.605 83.3657C52.5592 83.4636 52.5091 83.564 52.4545 83.6668C52.9009 85.1515 53.2523 86.6571 53.5084 88.1836C53.2574 88.1836 53.0066 88.1836 52.7556 88.1836C52.4234 86.7238 52.0722 85.2683 51.7017 83.8174C51.9548 83.5904 52.2559 83.4398 52.605 83.3657Z" fill="#D6685C"/>
<path opacity="0.979" fill-rule="evenodd" clip-rule="evenodd" d="M51.7021 83.8174C52.0726 85.2683 52.4238 86.7238 52.756 88.1836C52.1036 88.1836 51.4511 88.1836 50.7987 88.1836C50.6298 86.9487 50.3788 85.694 50.0459 84.4196C50.5423 84.1033 51.0942 83.9024 51.7021 83.8174Z" fill="#D7535D"/>
<path opacity="0.978" fill-rule="evenodd" clip-rule="evenodd" d="M50.0455 84.4194C50.3784 85.6938 50.6294 86.9485 50.7983 88.1834C49.9973 88.0722 49.1942 87.9717 48.3893 87.8823C48.2829 86.9547 48.0821 86.0513 47.7871 85.1722C48.4765 84.7752 49.2293 84.5242 50.0455 84.4194Z" fill="#D73B5E"/>
<path opacity="0.955" fill-rule="evenodd" clip-rule="evenodd" d="M47.7873 85.1719C48.0822 86.051 48.2831 86.9543 48.3895 87.8819C46.7374 87.5155 45.1817 86.9132 43.7222 86.0752C45.0343 85.6598 46.3893 85.3587 47.7873 85.1719Z" fill="#D8255E"/>
<path opacity="0.973" fill-rule="evenodd" clip-rule="evenodd" d="M53.8096 84.5693C54.3952 84.9865 54.9473 85.4382 55.4657 85.9244C55.522 86.6508 55.6726 87.3535 55.9174 88.0322C55.4978 88.1793 55.0461 88.2294 54.5624 88.1828C54.3115 86.9784 54.0606 85.774 53.8096 84.5693Z" fill="#D5925A"/>
<path opacity="0.973" fill-rule="evenodd" clip-rule="evenodd" d="M55.4658 85.9248C55.7093 86.0058 55.9603 86.0559 56.2186 86.0754C56.3455 86.7338 56.4961 87.3863 56.6703 88.0326C56.4193 88.0326 56.1685 88.0326 55.9175 88.0326C55.6727 87.3539 55.5221 86.6513 55.4658 85.9248Z" fill="#D5A559"/>
<path fill-rule="evenodd" clip-rule="evenodd" d="M56.2183 86.0752C56.5012 86.2018 56.8023 86.2521 57.1216 86.2258C57.3437 86.7574 57.5444 87.3095 57.7239 87.8819C57.3767 87.9561 57.0254 88.0063 56.6699 88.0325C56.4957 87.3861 56.3452 86.7336 56.2183 86.0752Z" fill="#D4BB58"/>
<path fill-rule="evenodd" clip-rule="evenodd" d="M57.1221 86.2255C57.3167 86.1265 57.5426 86.0762 57.7996 86.075C58.6659 86.039 58.967 86.4405 58.7029 87.2794C58.4563 87.6158 58.1301 87.8165 57.7243 87.8817C57.5448 87.3093 57.3441 86.7572 57.1221 86.2255Z" fill="#D4D756"/>
</svg>
