<svg width="100" height="100" viewBox="0 0 100 100" fill="none" xmlns="http://www.w3.org/2000/svg">
<path opacity="0.994" fill-rule="evenodd" clip-rule="evenodd" d="M52.0508 6.15234C51.0094 8.65518 50.3258 11.2593 50 13.9648C49.9023 17.6101 49.8697 21.2559 49.9023 24.9023C46.6846 24.6246 43.5596 25.0152 40.5273 26.0742C40.8049 21.9377 42.8557 19.0732 46.6797 17.4805C46.7773 13.705 46.81 9.92895 46.7773 6.15234C48.5352 6.15234 50.293 6.15234 52.0508 6.15234Z" fill="#317D3C"/>
<path fill-rule="evenodd" clip-rule="evenodd" d="M52.0503 6.15242C53.9429 6.08761 55.8308 6.15273 57.7144 6.34773C56.5257 8.26882 55.3865 10.2219 54.2964 12.2071C53.4589 13.9514 53.1659 15.7743 53.4175 17.6759C57.057 19.2882 59.0101 22.0878 59.2769 26.0743C56.2277 25.1278 53.1027 24.7372 49.9019 24.9024C49.8693 21.2559 49.9019 17.6102 49.9995 13.9649C50.3253 11.2594 51.0089 8.65525 52.0503 6.15242Z" fill="#1E5F30"/>
<path opacity="0.999" fill-rule="evenodd" clip-rule="evenodd" d="M49.9023 24.9022C49.9023 45.2147 49.9023 65.5272 49.9023 85.8397C45.1793 85.5776 42.152 83.1688 40.8203 78.6132C40.9369 76.447 39.9928 75.6983 37.9883 76.3671C37.5984 77.2013 37.5008 78.0802 37.6953 79.0038C39.3674 85.2598 43.4363 88.5802 49.9023 88.9647C49.9023 90.5272 49.9023 92.0897 49.9023 93.6522C47.2906 93.7477 44.8168 93.2268 42.4805 92.0897C37.6186 89.5343 34.5262 85.563 33.2031 80.1757C31.9279 67.587 30.7887 54.9893 29.7852 42.3827C29.6381 38.169 30.875 34.4255 33.4961 31.1522C34.7428 29.5497 36.24 28.2151 37.9883 27.1483C38.7959 26.679 39.6422 26.3208 40.5273 26.0741C43.5596 25.0151 46.6846 24.6245 49.9023 24.9022Z" fill="#E43A35"/>
<path fill-rule="evenodd" clip-rule="evenodd" d="M49.9023 24.9026C53.1031 24.7373 56.2281 25.128 59.2773 26.0744C61.207 26.7791 62.9648 27.7881 64.5508 29.1018C65.251 29.703 65.8369 30.3865 66.3086 31.1526C68.7564 34.2668 69.9934 37.8151 70.0195 41.7971C69.068 54.9408 67.8637 68.0594 66.4062 81.1526C64.8178 86.0258 61.7904 89.6717 57.3242 92.09C54.9879 93.2272 52.5141 93.7481 49.9023 93.6525C49.9023 92.09 49.9023 90.5275 49.9023 88.965C51.3598 88.6545 51.783 87.808 51.1719 86.426C50.8119 86.0996 50.3889 85.9043 49.9023 85.8401C49.9023 65.5276 49.9023 45.2151 49.9023 24.9026Z" fill="#D32E2E"/>
<path fill-rule="evenodd" clip-rule="evenodd" d="M52.4411 29.5898C59.0577 29.7967 63.3219 33.052 65.234 39.3555C65.4723 40.651 65.5374 41.9531 65.4293 43.2617C64.7165 44.8105 63.7399 45.0059 62.4997 43.8477C62.5719 37.0195 59.219 33.2762 52.4411 32.6172C51.1499 31.6012 51.1499 30.592 52.4411 29.5898Z" fill="#EE5350"/>
<path fill-rule="evenodd" clip-rule="evenodd" d="M33.496 31.1522C30.8749 34.4254 29.638 38.1689 29.7851 42.3826C30.7886 54.9893 31.9279 67.5869 33.2031 80.1756C34.5261 85.5629 37.6185 89.5342 42.4804 92.0897C39.5167 93.6027 36.3917 94.0584 33.1054 93.4568C28.2099 88.7002 26.1591 82.9059 26.9531 76.074C27.7775 72.6688 28.1031 69.2182 27.9296 65.7225C26.4972 59.3408 25.0648 52.9606 23.6327 46.5818C22.5579 41.9648 23.1765 37.6027 25.4882 33.4959C27.8548 31.7748 30.5242 30.9936 33.496 31.1522Z" fill="#D32E2E"/>
<path fill-rule="evenodd" clip-rule="evenodd" d="M66.3086 31.1522C69.2805 30.9936 71.9498 31.7748 74.3164 33.4959C76.602 37.6127 77.2203 41.9746 76.1719 46.5818C74.7352 52.9721 73.3027 59.3522 71.875 65.7225C71.7447 67.285 71.7447 68.8475 71.875 70.41C72.2502 72.417 72.5758 74.4352 72.8516 76.4647C73.6324 83.1818 71.5816 88.8459 66.6992 93.4568C63.4105 94.0586 60.2855 93.6029 57.3242 92.0896C61.7904 89.6713 64.8178 86.0254 66.4062 81.1521C67.8637 68.059 69.068 54.9404 70.0195 41.7967C69.9934 37.8147 68.7564 34.2664 66.3086 31.1522Z" fill="#E43934"/>
<path opacity="0.982" fill-rule="evenodd" clip-rule="evenodd" d="M74.3164 33.4961C78.0809 36.0055 80.327 39.5211 81.0547 44.043C81.185 45.6055 81.185 47.168 81.0547 48.7305C79.4992 55.4076 78.0994 62.1135 76.8555 68.8477C77.1285 71.2674 77.4865 73.6764 77.9297 76.0742C78.6965 82.8377 76.3201 88.1437 70.8008 91.9922C69.5094 92.7035 68.1422 93.1918 66.6992 93.457C71.5816 88.8461 73.6324 83.182 72.8516 76.4648C72.5758 74.4354 72.2502 72.4172 71.875 70.4102C71.7447 68.8477 71.7447 67.2852 71.875 65.7227C73.3027 59.3523 74.7352 52.9723 76.1719 46.582C77.2203 41.9748 76.602 37.6129 74.3164 33.4961Z" fill="#D32E2E"/>
<path opacity="0.982" fill-rule="evenodd" clip-rule="evenodd" d="M25.4883 33.4961C23.1765 37.6029 22.558 41.965 23.6328 46.582C25.0648 52.9607 26.4972 59.341 27.9297 65.7227C28.1031 69.2184 27.7775 72.6689 26.9531 76.0742C26.1592 82.9061 28.2099 88.7004 33.1054 93.457C28.3096 92.4061 24.9566 89.6066 23.0469 85.0586C21.892 82.1656 21.5013 79.1709 21.875 76.0742C22.6597 72.9258 22.9201 69.7357 22.6562 66.5039C21.3791 60.5744 20.0771 54.65 18.75 48.7305C18.0006 42.2748 20.2467 37.1967 25.4883 33.4961Z" fill="#E43934"/>
<path fill-rule="evenodd" clip-rule="evenodd" d="M49.9028 85.8397C50.3893 85.9039 50.8124 86.0992 51.1723 86.4256C51.7835 87.8076 51.3602 88.6541 49.9028 88.9647C43.4368 88.5801 39.3678 85.2598 37.6958 79.0037C37.5012 78.0801 37.5989 77.2012 37.9887 76.367C39.9932 75.6983 40.9374 76.4469 40.8208 78.6131C42.1524 83.1688 45.1798 85.5776 49.9028 85.8397Z" fill="#E47271"/>
</svg>
