<svg width="100" height="100" viewBox="0 0 100 100" fill="none" xmlns="http://www.w3.org/2000/svg">
<g clip-path="url(#clip0_190_4884)">
<path opacity="0.97" fill-rule="evenodd" clip-rule="evenodd" d="M32.3242 -0.0966797C32.9752 -0.0966797 33.6264 -0.0966797 34.2773 -0.0966797C34.5299 0.254072 34.8229 0.579594 35.1563 0.879883C35.2865 1.46582 35.2865 2.05176 35.1563 2.6377C33.9619 4.04973 33.018 5.61223 32.3242 7.3252C30.957 7.3252 29.5898 7.3252 28.2227 7.3252C28.8779 4.45188 30.2451 1.97791 32.3242 -0.0966797Z" fill="#4E4117"/>
<path opacity="0.993" fill-rule="evenodd" clip-rule="evenodd" d="M28.2227 7.3252C29.5899 7.3252 30.957 7.3252 32.3242 7.3252C35.4566 7.44078 38.3863 8.25457 41.1133 9.7666C42.519 10.8517 43.4629 12.2515 43.9453 13.9658C44.1572 17.7117 44.8734 21.3574 46.0938 24.9033C47.7797 29.252 49.7328 33.4838 51.9531 37.5986C52.5414 39.1047 53.1274 40.6021 53.7109 42.0908C59.1801 39.7648 64.2908 36.8678 69.043 33.3994C70.6867 31.6898 72.3795 30.0623 74.1211 28.5166C76.8414 27.1248 79.5758 27.1248 82.3242 28.5166C87.2949 30.9482 91.3639 34.4314 94.5313 38.9658C95.8065 41.7666 95.6762 44.501 94.1406 47.1689C92.5963 49.3459 91.3594 51.6896 90.4297 54.2002C88.8861 59.2025 87.6492 64.2807 86.7188 69.4346C83.7588 78.6418 78.3877 86.0963 70.6055 91.7979C66.5043 94.368 62.0772 96.1908 57.3242 97.2666C53.6385 98.3674 49.9275 99.2463 46.1914 99.9033C44.3686 99.9033 42.5455 99.9033 40.7227 99.9033C37.2133 99.1945 34.9348 97.1111 33.8867 93.6533C33.2736 91.3535 32.9154 89.0098 32.8125 86.6221C30.483 71.1477 34.9426 58.0943 46.1914 47.4619C47.568 46.2805 49.0002 45.1736 50.4883 44.1416C48.6479 44.7584 46.89 45.6047 45.2149 46.6807C38.3256 51.4854 33.1498 57.7027 29.6875 65.333C28.4481 68.2729 27.6668 71.3328 27.3438 74.5127C27.2459 77.6414 27.0832 80.7664 26.8555 83.8877C23.1049 79.575 19.6869 75.0178 16.6016 70.2158C13.1027 64.0467 11.3775 57.4061 11.4258 50.2939C11.3995 44.3879 12.5388 38.7238 14.8438 33.3018C17.8365 27.9682 20.1803 22.3691 21.875 16.5049C22.3115 14.5098 22.5721 12.4916 22.6563 10.4502C22.9055 9.60582 23.1332 8.75947 23.3399 7.91113C24.9502 7.60029 26.5777 7.40498 28.2227 7.3252Z" fill="#417916"/>
<path opacity="0.998" fill-rule="evenodd" clip-rule="evenodd" d="M23.3397 7.90918C23.1331 8.75752 22.9053 9.60387 22.6561 10.4482C22.5719 12.4897 22.3114 14.5079 21.8749 16.5029C20.1801 22.3672 17.8364 27.9662 14.8436 33.2998C12.5387 38.7219 11.3994 44.3859 11.4256 50.292C11.3773 57.4041 13.1026 64.0447 16.6014 70.2139C19.6868 75.0158 23.1047 79.573 26.8553 83.8857C27.0831 80.7645 27.2458 77.6395 27.3436 74.5107C27.6667 71.3309 28.4479 68.2709 29.6874 65.3311C33.1497 57.7008 38.3255 51.4834 45.2147 46.6787C46.8899 45.6027 48.6477 44.7564 50.4881 44.1396C49.0001 45.1717 47.5678 46.2785 46.1913 47.46C34.9424 58.0924 30.4829 71.1457 32.8124 86.6201C32.9153 89.0078 33.2735 91.3516 33.8866 93.6514C30.3258 95.0383 27.0055 94.6152 23.9256 92.3818C22.6008 91.3111 21.3313 90.1719 20.1171 88.9639C15.758 83.9541 11.8517 78.6156 8.3983 72.9482C4.98983 65.9096 3.68776 58.4877 4.49205 50.6826C4.81387 46.7262 5.66022 42.885 7.03112 39.1592C9.39348 34.565 11.5419 29.8775 13.4764 25.0967C14.6784 21.9516 15.3294 18.6964 15.4296 15.3311C16.2534 10.9598 18.8901 8.4859 23.3397 7.90918Z" fill="#346212"/>
<path fill-rule="evenodd" clip-rule="evenodd" d="M35.4495 15.9167C36.2676 15.8545 36.886 16.18 37.3049 16.8932C37.7303 20.6131 38.6743 24.1938 40.137 27.6354C39.8362 29.1042 39.0223 29.4948 37.6956 28.8073C36.0071 25.2723 34.9329 21.5614 34.4729 17.6745C34.4489 16.8747 34.7745 16.2888 35.4495 15.9167Z" fill="#315C10"/>
<path fill-rule="evenodd" clip-rule="evenodd" d="M76.465 29.7841C77.5088 29.7517 78.5504 29.7843 79.59 29.8818C84.6842 31.8511 88.8834 35.0085 92.1877 39.3544C93.3679 41.1392 93.5633 43.0273 92.7736 45.0185C89.9554 48.9755 88.0023 53.3376 86.9142 58.1044C86.0679 61.88 85.2217 65.656 84.3752 69.4325C81.4918 77.9062 76.4461 84.7747 69.2385 90.038C67.8687 90.9185 66.4363 91.6997 64.9416 92.3817C59.4474 94.3737 53.8484 96.0013 48.1447 97.2646C45.7506 97.6855 43.3418 97.8157 40.9181 97.6552C38.0728 96.9581 36.3476 95.1677 35.7424 92.2841C34.9722 88.913 34.6793 85.495 34.8635 82.0302C33.6785 71.1364 36.5756 61.5337 43.5549 53.2216C46.4297 49.8896 49.7174 47.0575 53.4181 44.7255C57.8252 42.7173 62.122 40.5038 66.3088 38.0849C69.5191 36.0489 72.3836 33.5751 74.9025 30.663C75.4101 30.3124 75.931 30.0194 76.465 29.7841Z" fill="#FE893A"/>
<path fill-rule="evenodd" clip-rule="evenodd" d="M40.5273 32.3249C41.0781 32.2757 41.5988 32.3733 42.0898 32.6178C43.3459 34.4995 44.0947 36.5503 44.3359 38.7702C43.4146 40.0694 42.5033 40.0694 41.6016 38.7702C41.0643 37.0776 40.4457 35.4174 39.7461 33.7897C39.8295 33.1993 40.09 32.711 40.5273 32.3249Z" fill="#315C10"/>
<path fill-rule="evenodd" clip-rule="evenodd" d="M79.1992 48.1451C77.9588 46.6008 76.5266 46.4055 74.9023 47.5592C74.523 46.7334 74.0021 46.0174 73.3398 45.4107C75.1572 44.2545 76.8824 44.3848 78.5156 45.8014C79.0385 46.4916 79.2664 47.2729 79.1992 48.1451Z" fill="#FBAD60"/>
<path fill-rule="evenodd" clip-rule="evenodd" d="M73.34 45.4098C74.0023 46.0165 74.5232 46.7325 74.9025 47.5583C76.5267 46.4046 77.959 46.5999 79.1994 48.1442C79.7369 49.2188 79.6719 50.2604 79.0041 51.2692C78.6051 51.6673 78.1494 51.9928 77.6369 52.2458C78.0377 52.7102 78.4283 53.1659 78.8088 53.613C79.1564 54.7606 78.9611 55.8024 78.2228 56.738C77.4822 57.3102 76.6359 57.5706 75.6838 57.5192C75.7031 59.4206 74.7592 60.3971 72.8517 60.4489C71.4701 60.2405 70.5586 59.4592 70.1174 58.1051C69.8131 58.4682 69.4551 58.7612 69.0431 58.9841C70.3318 60.1899 70.5596 61.5897 69.7267 63.1833C68.2883 64.4704 66.856 64.4704 65.4299 63.1833C65.125 63.8245 64.7019 64.378 64.1603 64.8434C64.9635 65.1909 65.5818 65.7442 66.0158 66.5036C67.2162 64.7544 68.681 64.494 70.4103 65.7223C70.4656 65.8764 70.5633 66.0067 70.7033 66.113C70.8004 65.6618 70.8328 65.2061 70.801 64.7458C71.4414 62.9932 72.6785 62.3747 74.5119 62.8903C75.8414 63.5639 76.3623 64.6382 76.0744 66.113C75.8355 66.8061 75.4449 67.3921 74.9025 67.8708C73.4974 68.5581 72.293 68.2975 71.2892 67.0895C71.3775 68.7049 70.6939 69.8442 69.2385 70.5075C70.5084 71.1268 71.0293 72.1358 70.801 73.5348C70.5123 74.8005 69.731 75.5167 68.4572 75.6833C66.9654 75.7874 65.9562 75.1364 65.4299 73.7301C64.3531 75.4786 62.9209 75.8692 61.133 74.902C60.9234 75.3018 60.6957 75.6924 60.4494 76.0739C62.3793 76.2454 63.3558 77.287 63.3791 79.1989C63.089 80.7579 62.1449 81.6042 60.5471 81.738C59.866 81.6903 59.2801 81.4299 58.7892 80.9567C58.416 83.3469 57.0488 84.2585 54.6877 83.6911C54.6984 86.4833 53.3637 87.6225 50.6838 87.1091C50.1305 86.8161 49.7072 86.3928 49.4142 85.8395C48.606 88.2624 47.0762 88.8483 44.8244 87.5973C43.4482 85.9673 43.5785 84.47 45.215 83.1051C43.0539 81.6137 42.9236 79.9536 44.8244 78.1247C45.3863 77.9046 45.9723 77.7743 46.5822 77.7341C44.8521 76.2569 44.7871 74.6944 46.3869 73.0466C46.8668 72.7415 47.3877 72.5462 47.9494 72.4606C46.9828 71.6956 46.6246 70.6866 46.8752 69.4333C47.2701 68.5505 47.8887 67.8995 48.7307 67.4801C49.9476 67.3538 50.9568 67.7444 51.758 68.652C52.5041 66.6428 53.9039 65.9919 55.9572 66.6989C55.7558 65.3776 56.2115 64.3684 57.3244 63.6716C56.6998 63.5059 56.1465 63.213 55.6642 62.7926C54.8758 65.1565 53.3457 65.8401 51.0744 64.8434C50.6207 64.4196 50.2951 63.9313 50.0978 63.3786C49.8201 61.7844 50.406 60.6778 51.8557 60.0583C53.0172 59.6964 54.0264 59.9567 54.883 60.8395C55.0279 59.9311 55.451 59.1825 56.1525 58.5934C55.2088 58.0417 54.6228 57.2278 54.3947 56.152C54.4592 54.5913 55.2404 53.6147 56.7385 53.2223C58.3867 53.1024 59.4935 53.8186 60.0588 55.3708C60.5603 54.9378 61.1463 54.7098 61.8166 54.6872C60.6223 53.7407 60.2316 52.5362 60.6447 51.0739C61.3088 49.9928 62.2853 49.4719 63.5744 49.5114C64.3043 49.6223 64.9228 49.9479 65.4299 50.488C66.1986 48.8178 67.4681 48.2319 69.2385 48.7301C69.2076 48.0657 69.2728 47.4145 69.4338 46.777C70.3281 45.2612 71.6303 44.8053 73.34 45.4098Z" fill="#262524"/>
<path fill-rule="evenodd" clip-rule="evenodd" d="M71.7779 46.1913C72.7209 46.1688 72.9812 46.5921 72.5592 47.4608C71.4338 47.5425 71.1732 47.1192 71.7779 46.1913Z" fill="#A5A5A5"/>
<path fill-rule="evenodd" clip-rule="evenodd" d="M69.4336 46.7783C69.2727 47.4158 69.2074 48.067 69.2383 48.7314C67.468 48.2332 66.1984 48.8191 65.4297 50.4893C64.9227 49.9492 64.3041 49.6236 63.5742 49.5127C65.4617 48.5043 67.4148 47.593 69.4336 46.7783Z" fill="#F8AB60"/>
<path fill-rule="evenodd" clip-rule="evenodd" d="M76.4654 47.9491C77.3683 47.7358 77.7263 48.0614 77.5396 48.9256C76.4497 49.3655 76.0917 49.0399 76.4654 47.9491Z" fill="#A9A9A9"/>
<path fill-rule="evenodd" clip-rule="evenodd" d="M68.0668 49.5127C68.941 49.5713 69.2015 49.9945 68.848 50.7822C67.6447 50.9537 67.3843 50.5305 68.0668 49.5127Z" fill="#A5A5A5"/>
<path fill-rule="evenodd" clip-rule="evenodd" d="M73.9258 49.7061C74.115 50.1285 74.2777 50.5842 74.4141 51.0732C74.7432 51.3695 75.0361 51.6951 75.293 52.0498C74.0566 52.634 73.4707 53.6105 73.5352 54.9795C72.3787 54.8578 71.4348 55.2484 70.7031 56.1514C70.5363 55.2014 70.048 54.4527 69.2383 53.9053C70.4314 53.1018 71.0174 51.9623 70.9961 50.4873C72.157 50.859 73.1336 50.5986 73.9258 49.7061Z" fill="#FAAD61"/>
<path fill-rule="evenodd" clip-rule="evenodd" d="M63.1839 50.4873C64.0582 50.5459 64.3187 50.9691 63.9652 51.7568C62.7619 51.9283 62.5015 51.5051 63.1839 50.4873Z" fill="#A6A6A6"/>
<path fill-rule="evenodd" clip-rule="evenodd" d="M60.6445 51.0752C60.2314 52.5375 60.6221 53.742 61.8164 54.6885C61.1461 54.7111 60.5602 54.9391 60.0586 55.3721C59.4934 53.8199 58.3865 53.1037 56.7383 53.2236C58.1256 52.724 59.4277 52.0078 60.6445 51.0752Z" fill="#F7AA5F"/>
<path fill-rule="evenodd" clip-rule="evenodd" d="M79.0039 51.2686C78.8359 52.0369 78.7709 52.8182 78.8086 53.6123C78.4281 53.1652 78.0375 52.7096 77.6367 52.2451C78.1492 51.9922 78.6049 51.6666 79.0039 51.2686Z" fill="#ECA35B"/>
<path fill-rule="evenodd" clip-rule="evenodd" d="M65.918 53.0283C66.2393 53.2195 66.4998 53.4799 66.6992 53.8096C64.707 55.383 64.642 57.0432 66.5039 58.79C65.573 59.2645 65.0195 60.0133 64.8438 61.0361C64.4182 60.5457 63.9299 60.1225 63.3789 59.7666C64.5564 58.715 64.8494 57.4455 64.2578 55.958C63.9648 55.665 63.6719 55.3721 63.3789 55.0791C64.6689 54.927 65.5152 54.2434 65.918 53.0283Z" fill="#F0A75E"/>
<path fill-rule="evenodd" clip-rule="evenodd" d="M76.0748 53.0272C77.0177 53.0048 77.2781 53.428 76.856 54.2967C75.7306 54.3784 75.4701 53.9551 76.0748 53.0272Z" fill="#A6A6A6"/>
<path fill-rule="evenodd" clip-rule="evenodd" d="M57.129 54.2002C58.1538 54.2275 58.3491 54.6506 57.715 55.4697C56.7154 55.4354 56.52 55.0123 57.129 54.2002Z" fill="#AAAAAA"/>
<path fill-rule="evenodd" clip-rule="evenodd" d="M67.6763 54.785C68.5792 54.5717 68.9372 54.8973 68.7505 55.7616C67.6607 56.2014 67.3027 55.8758 67.6763 54.785Z" fill="#ABABAB"/>
<path fill-rule="evenodd" clip-rule="evenodd" d="M61.6214 55.7619C62.804 55.6529 63.0644 56.0761 62.4027 57.0314C61.4829 57.0474 61.2226 56.6242 61.6214 55.7619Z" fill="#A7A7A7"/>
<path fill-rule="evenodd" clip-rule="evenodd" d="M72.9496 55.9561C73.8238 56.0146 74.0843 56.4379 73.7308 57.2256C72.5275 57.3971 72.2671 56.9738 72.9496 55.9561Z" fill="#A6A6A6"/>
<path fill-rule="evenodd" clip-rule="evenodd" d="M54.3945 56.1533C54.6227 57.2291 55.2086 58.043 56.1523 58.5947C55.4508 59.1838 55.0277 59.9324 54.8828 60.8408C54.0262 59.958 53.017 59.6977 51.8555 60.0596C52.508 58.6227 53.3543 57.3205 54.3945 56.1533Z" fill="#FBAE61"/>
<path fill-rule="evenodd" clip-rule="evenodd" d="M78.2227 56.7373C77.4996 59.8875 76.7836 63.0125 76.0742 66.1123C76.3621 64.6375 75.8412 63.5633 74.5117 62.8896C72.6783 62.374 71.4412 62.9926 70.8008 64.7451C70.6705 65.0707 70.5404 65.3961 70.4102 65.7217C68.6809 64.4934 67.216 64.7537 66.0156 66.5029C65.5816 65.7436 64.9633 65.1902 64.1602 64.8428C64.7018 64.3773 65.1248 63.8238 65.4297 63.1826C66.8559 64.4697 68.2881 64.4697 69.7266 63.1826C70.5594 61.5891 70.3316 60.1893 69.043 58.9834C69.4549 58.7605 69.8129 58.4676 70.1172 58.1045C70.5584 59.4586 71.4699 60.2398 72.8516 60.4482C74.759 60.3965 75.7029 59.4199 75.6836 57.5186C76.6357 57.5699 77.482 57.3096 78.2227 56.7373Z" fill="#F8AC60"/>
<path fill-rule="evenodd" clip-rule="evenodd" d="M58.8865 57.9092C59.2703 57.9967 59.3353 58.192 59.0818 58.4951C58.6875 58.3715 58.6223 58.1762 58.8865 57.9092Z" fill="#C98E53"/>
<path fill-rule="evenodd" clip-rule="evenodd" d="M57.7152 59.0811C58.5894 59.1396 58.85 59.5629 58.4964 60.3506C57.2931 60.5221 57.0328 60.0988 57.7152 59.0811Z" fill="#A3A3A3"/>
<path fill-rule="evenodd" clip-rule="evenodd" d="M67.4806 59.6689C68.4529 59.7572 68.6482 60.1805 68.0665 60.9385C67.0669 60.9041 66.8716 60.4811 67.4806 59.6689Z" fill="#ACACAC"/>
<path fill-rule="evenodd" clip-rule="evenodd" d="M60.2539 59.6689C60.5238 59.923 60.8492 60.0857 61.2305 60.1572C60.951 60.248 60.7232 60.4109 60.5469 60.6455C60.4281 60.3225 60.3305 59.9969 60.2539 59.6689Z" fill="#E29E5B"/>
<path fill-rule="evenodd" clip-rule="evenodd" d="M62.4029 60.8397C63.3459 60.8173 63.6062 61.2405 63.1842 62.1092C62.0588 62.1909 61.7982 61.7676 62.4029 60.8397Z" fill="#A5A5A5"/>
<path fill-rule="evenodd" clip-rule="evenodd" d="M52.6373 60.8397C53.5802 60.8173 53.8406 61.2405 53.4185 62.1092C52.2931 62.1909 52.0326 61.7676 52.6373 60.8397Z" fill="#A4A4A4"/>
<path fill-rule="evenodd" clip-rule="evenodd" d="M48.7305 67.4814C49.1469 66.1021 49.6025 64.735 50.0977 63.3799C50.2949 63.9326 50.6205 64.4209 51.0742 64.8447C53.3455 65.8414 54.8756 65.1578 55.6641 62.7939C56.1463 63.2143 56.6996 63.5072 57.3242 63.6729C56.2113 64.3697 55.7557 65.3789 55.957 66.7002C53.9037 65.9932 52.5039 66.6441 51.7578 68.6533C50.9566 67.7457 49.9475 67.3551 48.7305 67.4814Z" fill="#F9AD61"/>
<path fill-rule="evenodd" clip-rule="evenodd" d="M59.668 62.7939C60.2504 63.616 60.0551 63.7787 59.082 63.2822C59.2912 63.1158 59.4865 62.9531 59.668 62.7939Z" fill="#D39556"/>
<path fill-rule="evenodd" clip-rule="evenodd" d="M73.1448 63.7697C74.3275 63.6607 74.5878 64.0839 73.9261 65.0392C73.0064 65.0552 72.746 64.632 73.1448 63.7697Z" fill="#A5A5A5"/>
<path fill-rule="evenodd" clip-rule="evenodd" d="M58.4964 64.3565C59.5737 64.3512 59.8341 64.7745 59.2777 65.626C58.3579 65.642 58.0976 65.2188 58.4964 64.3565Z" fill="#A7A7A7"/>
<path fill-rule="evenodd" clip-rule="evenodd" d="M61.2305 64.9404C62.1016 65.0783 62.1992 65.4037 61.5234 65.917C61.4047 65.5939 61.307 65.2684 61.2305 64.9404Z" fill="#CA8F54"/>
<path fill-rule="evenodd" clip-rule="evenodd" d="M70.8008 64.7471C70.8326 65.2074 70.8002 65.6631 70.7031 66.1143C70.5631 66.008 70.4654 65.8777 70.4102 65.7236C70.5404 65.398 70.6705 65.0727 70.8008 64.7471Z" fill="#906A43"/>
<path fill-rule="evenodd" clip-rule="evenodd" d="M63.3785 65.9178C64.3215 65.8954 64.5818 66.3186 64.1598 67.1874C63.1969 67.2708 62.9365 66.8475 63.3785 65.9178Z" fill="#A8A8A8"/>
<path fill-rule="evenodd" clip-rule="evenodd" d="M68.4574 65.9189C69.3316 65.9775 69.5921 66.4008 69.2386 67.1885C68.0353 67.36 67.775 66.9367 68.4574 65.9189Z" fill="#A5A5A5"/>
<path fill-rule="evenodd" clip-rule="evenodd" d="M54.3947 67.4814C55.4195 67.5088 55.6148 67.9318 54.9806 68.751C53.981 68.7166 53.7857 68.2936 54.3947 67.4814Z" fill="#AAAAAA"/>
<path fill-rule="evenodd" clip-rule="evenodd" d="M74.9023 67.8721C73.965 70.0727 72.5979 71.9607 70.8008 73.5361C71.0291 72.1371 70.5082 71.1281 69.2383 70.5088C70.6938 69.8455 71.3773 68.7062 71.2891 67.0908C72.2928 68.2988 73.4973 68.5594 74.9023 67.8721Z" fill="#F9AD61"/>
<path fill-rule="evenodd" clip-rule="evenodd" d="M60.6445 67.8721C60.8516 68.7334 61.3072 69.4494 62.0117 70.0205C61.1273 70.4816 60.4764 71.1652 60.0586 72.0713C59.1777 71.8221 58.2662 71.757 57.3242 71.876C56.657 72.1201 56.1361 72.5434 55.7617 73.1455C55.4723 72.7582 55.1467 72.4002 54.7852 72.0713C56.6182 71.4721 57.4318 70.2025 57.2266 68.2627C58.4801 69.1008 59.6193 68.9705 60.6445 67.8721Z" fill="#F6AB60"/>
<path fill-rule="evenodd" clip-rule="evenodd" d="M49.3169 68.6522C50.2199 68.4389 50.5779 68.7645 50.3911 69.6287C49.3013 70.0686 48.9433 69.743 49.3169 68.6522Z" fill="#A8A8A8"/>
<path fill-rule="evenodd" clip-rule="evenodd" d="M65.918 69.0439C66.4068 69.4996 66.9275 69.9227 67.4805 70.3135C66.7096 70.6639 66.0584 71.1521 65.5273 71.7783C65.1811 71.2783 64.7904 70.8227 64.3555 70.4111C64.9996 70.0924 65.5203 69.6367 65.918 69.0439Z" fill="#EEA65E"/>
<path fill-rule="evenodd" clip-rule="evenodd" d="M52.0508 70.9971C53.1033 71.4533 53.0381 71.6812 51.8555 71.6807C52.0189 71.4832 52.084 71.2553 52.0508 70.9971Z" fill="#DF9C5A"/>
<path fill-rule="evenodd" clip-rule="evenodd" d="M62.5973 70.9971C63.6746 70.9918 63.935 71.4151 63.3785 72.2667C62.4156 72.35 62.1553 71.9268 62.5973 70.9971Z" fill="#A7A7A7"/>
<path fill-rule="evenodd" clip-rule="evenodd" d="M67.8714 71.3869C69.054 71.2779 69.3144 71.7011 68.6527 72.6564C67.7329 72.6724 67.4726 72.2492 67.8714 71.3869Z" fill="#A5A5A5"/>
<path fill-rule="evenodd" clip-rule="evenodd" d="M53.0279 72.5585C53.9709 72.536 54.2312 72.9592 53.8092 73.828C52.6838 73.9096 52.4232 73.4864 53.0279 72.5585Z" fill="#A7A7A7"/>
<path fill-rule="evenodd" clip-rule="evenodd" d="M58.1051 72.753C59.1824 72.7477 59.4428 73.1709 58.8863 74.0225C57.9235 74.1059 57.6631 73.6827 58.1051 72.753Z" fill="#A5A5A5"/>
<path fill-rule="evenodd" clip-rule="evenodd" d="M50.4883 72.7536C50.6326 72.728 50.7629 72.7606 50.8789 72.8512C50.5852 73.1424 50.4225 73.5004 50.3906 73.9254C50.0977 73.6325 49.8047 73.3395 49.5117 73.0465C49.8793 73.0079 50.2047 72.9102 50.4883 72.7536Z" fill="#D89857"/>
<path fill-rule="evenodd" clip-rule="evenodd" d="M47.9495 73.5342C48.9247 73.6313 49.12 74.0545 48.5354 74.8037C47.4901 74.8379 47.2948 74.4148 47.9495 73.5342Z" fill="#A6A6A6"/>
<path fill-rule="evenodd" clip-rule="evenodd" d="M68.457 75.6846C66.9021 77.0486 65.2094 78.2205 63.3789 79.2002C63.3557 77.2883 62.3791 76.2467 60.4492 76.0752C60.6955 75.6938 60.9232 75.3031 61.1328 74.9033C62.9207 75.8705 64.3529 75.4799 65.4297 73.7314C65.9561 75.1377 66.9652 75.7887 68.457 75.6846Z" fill="#F7AC60"/>
<path fill-rule="evenodd" clip-rule="evenodd" d="M55.5664 75.4873C56.1977 76.5063 57.1092 77.1572 58.3008 77.4404C58.0137 77.9889 57.851 78.5748 57.8125 79.1982C56.5693 78.1736 55.3324 78.1736 54.1016 79.1982C54.0023 78.317 53.5791 77.6334 52.832 77.1475C54.0984 77.1346 55.01 76.5812 55.5664 75.4873Z" fill="#F9AD61"/>
<path fill-rule="evenodd" clip-rule="evenodd" d="M50.6836 75.6846C50.9074 76.0703 51.233 76.3633 51.6602 76.5635C51.2748 76.6602 50.8842 76.6928 50.4883 76.6611C50.5135 76.326 50.5785 76.0004 50.6836 75.6846Z" fill="#DB9A58"/>
<path fill-rule="evenodd" clip-rule="evenodd" d="M60.4488 77.2471C61.5262 77.2418 61.7865 77.6651 61.2301 78.5167C60.2672 78.6 60.0068 78.1768 60.4488 77.2471Z" fill="#A3A3A3"/>
<path fill-rule="evenodd" clip-rule="evenodd" d="M51.0738 77.6377C52.1512 77.6325 52.4115 78.0557 51.8551 78.9073C50.8922 78.9907 50.6318 78.5674 51.0738 77.6377Z" fill="#A5A5A5"/>
<path fill-rule="evenodd" clip-rule="evenodd" d="M47.5586 78.2236C47.9227 77.971 48.3133 77.971 48.7305 78.2236C48.6328 78.4189 48.5352 78.6142 48.4375 78.8095C48.217 78.489 47.924 78.2937 47.5586 78.2236Z" fill="#E5A05B"/>
<path fill-rule="evenodd" clip-rule="evenodd" d="M45.9964 78.8096C47.0737 78.8043 47.3341 79.2276 46.7777 80.0792C45.8579 80.0952 45.5976 79.6719 45.9964 78.8096Z" fill="#ABABAB"/>
<path fill-rule="evenodd" clip-rule="evenodd" d="M55.9567 79.3936C56.8407 79.5633 57.036 79.9865 56.5426 80.6631C55.3063 80.6973 55.111 80.274 55.9567 79.3936Z" fill="#A4A4A4"/>
<path fill-rule="evenodd" clip-rule="evenodd" d="M48.9258 80.9561C49.3877 81.417 49.9086 81.8076 50.4883 82.1279C49.8576 82.6734 49.3693 83.3246 49.0234 84.0811C48.6297 83.6545 48.2064 83.2639 47.7539 82.9092C48.3945 82.4008 48.7852 81.7498 48.9258 80.9561Z" fill="#EFA75E"/>
<path fill-rule="evenodd" clip-rule="evenodd" d="M53.0273 81.3467C53.2418 81.5617 53.2744 81.8221 53.125 82.1279C52.9166 81.993 52.6887 81.8953 52.4414 81.835C52.723 81.7613 52.9184 81.5986 53.0273 81.3467Z" fill="#E7A15C"/>
<path fill-rule="evenodd" clip-rule="evenodd" d="M51.6605 82.9103C52.8431 82.8013 53.1034 83.2246 52.4417 84.1798C51.522 84.1958 51.2616 83.7726 51.6605 82.9103Z" fill="#A4A4A4"/>
<path fill-rule="evenodd" clip-rule="evenodd" d="M46.387 83.8869C47.5696 83.7779 47.83 84.2011 47.1683 85.1564C46.2486 85.1724 45.9882 84.7492 46.387 83.8869Z" fill="#A6A6A6"/>
</g>
<defs>
<clipPath id="clip0_190_4884">
<rect width="100" height="100" fill="white"/>
</clipPath>
</defs>
</svg>
