<svg width="100" height="100" viewBox="0 0 100 100" fill="none" xmlns="http://www.w3.org/2000/svg">
<g clip-path="url(#clip0_190_4035)">
<path opacity="0.975" fill-rule="evenodd" clip-rule="evenodd" d="M37.2069 4.19917C38.1735 4.09349 39.085 4.25624 39.9412 4.68746C42.1873 6.93355 44.4334 9.17964 46.6795 11.4257C47.5676 14.0136 46.6887 15.5761 44.0428 16.1132C43.3487 16.0049 42.6977 15.7771 42.0897 15.4296C39.7008 13.1714 37.4547 10.7951 35.3514 8.30074C34.8141 6.38207 35.4326 5.01488 37.2069 4.19917Z" fill="#FFF6CC"/>
<path opacity="0.974" fill-rule="evenodd" clip-rule="evenodd" d="M60.6446 4.19924C64.1215 4.19291 65.261 5.82053 64.0626 9.08205C61.9467 11.1979 59.8307 13.3138 57.7149 15.4297C56.4128 16.3412 55.1108 16.3412 53.8087 15.4297C53.3952 15.0916 53.1022 14.6685 52.9298 14.1602C52.7581 13.2253 52.8233 12.3138 53.1251 11.4258C55.5518 8.90068 58.0585 6.49182 60.6446 4.19924Z" fill="#FFE6B3"/>
<path opacity="0.993" fill-rule="evenodd" clip-rule="evenodd" d="M45.4102 36.4256C32.9752 36.4256 20.5404 36.4256 8.10547 36.4256C8.45836 35.7197 8.81643 35.0037 9.17969 34.2771C11.1809 31.5117 13.1341 28.7123 15.0391 25.8787C16.5822 22.9416 17.8192 19.8818 18.75 16.699C19.7791 15.7722 20.9836 15.4792 22.3633 15.8201C30.141 17.8783 37.8885 20.0267 45.6055 22.2654C46.409 22.9168 46.7996 23.7633 46.7773 24.8045C45.7684 28.6125 45.3125 32.4861 45.4102 36.4256Z" fill="#ECF2FF"/>
<path opacity="0.992" fill-rule="evenodd" clip-rule="evenodd" d="M91.6991 36.426C79.1991 36.426 66.6991 36.426 54.1991 36.426C54.4376 34.4107 54.4052 32.3926 54.1015 30.3713C53.7681 28.5094 53.4101 26.6539 53.0273 24.8049C53.005 23.7637 53.3956 22.9172 54.1991 22.2658C62.2806 19.8711 70.4187 17.6901 78.6132 15.7229C79.5915 15.6425 80.4054 15.9681 81.0546 16.6994C82.0124 20.0285 83.3146 23.2188 84.9609 26.2697C86.8489 28.9391 88.7368 31.6082 90.6249 34.2775C91.0882 34.9436 91.4462 35.6598 91.6991 36.426Z" fill="#CCDCFF"/>
<path opacity="0.996" fill-rule="evenodd" clip-rule="evenodd" d="M8.10556 36.4258C20.5405 36.4258 32.9753 36.4258 45.4102 36.4258C47.0513 44.4775 46.2374 52.29 42.9688 59.8633C38.3222 67.6395 31.4536 71.1551 22.3634 70.4102C20.3858 70.057 18.4327 69.5361 16.504 68.8477C9.4072 65.4883 5.33817 59.8893 4.29696 52.0508C4.10646 46.4732 5.37599 41.2648 8.10556 36.4258Z" fill="#E64560"/>
<path opacity="0.996" fill-rule="evenodd" clip-rule="evenodd" d="M54.1992 36.4258C66.6992 36.4258 79.1992 36.4258 91.6992 36.4258C93.9441 40.624 95.2463 45.1162 95.6055 49.9023C95.1875 58.6459 91.0859 64.9611 83.3008 68.8477C81.3432 69.4344 79.39 69.9553 77.4414 70.4102C69.3395 71.1516 62.8617 68.2869 58.0078 61.8164C55.748 58.0975 54.3809 54.0609 53.9062 49.707C53.7164 48.1182 53.6188 46.523 53.6133 44.9219C53.7117 42.0824 53.907 39.2504 54.1992 36.4258Z" fill="#BF2640"/>
<path fill-rule="evenodd" clip-rule="evenodd" d="M31.3479 45.2145C33.7561 45.1815 34.9604 46.3534 34.9612 48.7302C34.0669 50.9163 32.5368 51.5349 30.3714 50.5856C29.0997 49.3647 28.872 47.9649 29.6878 46.3864C30.2095 45.9173 30.763 45.5267 31.3479 45.2145Z" fill="#FE6565"/>
<path fill-rule="evenodd" clip-rule="evenodd" d="M67.0898 45.2152C69.6372 45.19 70.7765 46.4269 70.5077 48.9262C69.8524 50.7029 68.5829 51.3865 66.6991 50.9769C64.8812 49.9502 64.3929 48.4853 65.2343 46.5824C65.7282 45.9213 66.3468 45.4656 67.0898 45.2152Z" fill="#E5445F"/>
<path fill-rule="evenodd" clip-rule="evenodd" d="M19.6287 51.0739C22.0369 51.0409 23.2412 52.2128 23.242 54.5895C22.3477 56.7757 20.8176 57.3942 18.6522 56.445C17.3805 55.2241 17.1527 53.8243 17.9686 52.2458C18.4903 51.7767 19.0437 51.386 19.6287 51.0739Z" fill="#FE6565"/>
<path fill-rule="evenodd" clip-rule="evenodd" d="M78.8085 51.0746C81.356 51.0494 82.4952 52.2863 82.2265 54.7855C81.5712 56.5623 80.3017 57.2459 78.4179 56.8363C76.5999 55.8096 76.1116 54.3447 76.953 52.4418C77.447 51.7807 78.0655 51.325 78.8085 51.0746Z" fill="#E5445F"/>
<path opacity="0.977" fill-rule="evenodd" clip-rule="evenodd" d="M16.5039 68.8477C18.4326 69.5361 20.3857 70.057 22.3633 70.4102C20.9885 76.0393 19.4911 81.6383 17.8711 87.207C17.912 87.3215 17.9771 87.4191 18.0664 87.5C21.2418 88.2549 24.3668 89.1662 27.4414 90.2344C28.7918 91.9166 28.7268 93.5441 27.2461 95.1172C26.3879 95.5809 25.4766 95.7111 24.5117 95.5078C16.6634 93.4775 8.85094 91.3291 1.07422 89.0625C0.562348 88.6496 0.171723 88.1613 -0.0976562 87.5977C-0.0976562 86.8814 -0.0976562 86.1654 -0.0976562 85.4492C0.453045 84.1857 1.42961 83.5348 2.83203 83.4961C5.85785 84.1574 8.85264 84.9387 11.8164 85.8398C13.5343 80.2287 15.0968 74.5646 16.5039 68.8477Z" fill="#ECF1FE"/>
<path opacity="0.973" fill-rule="evenodd" clip-rule="evenodd" d="M83.3006 68.8477C84.7072 74.5635 86.2697 80.2275 87.9881 85.8398C90.9519 84.9387 93.9467 84.1574 96.9724 83.4961C98.3748 83.5348 99.3513 84.1857 99.9021 85.4492C99.9021 86.1654 99.9021 86.8814 99.9021 87.5977C99.1681 88.9768 97.9963 89.7256 96.3865 89.8438C89.3553 91.7318 82.324 93.6197 75.2928 95.5078C72.364 95.7689 71.0945 94.4344 71.4842 91.5039C71.7531 91.0637 72.0461 90.6406 72.3631 90.2344C75.4482 89.2025 78.5732 88.291 81.7381 87.5C81.8273 87.4191 81.8926 87.3215 81.9334 87.207C80.3133 81.6383 78.816 76.0393 77.4412 70.4102C79.3898 69.9553 81.3429 69.4344 83.3006 68.8477Z" fill="#CCDBFE"/>
</g>
<defs>
<clipPath id="clip0_190_4035">
<rect width="100" height="100" fill="white"/>
</clipPath>
</defs>
</svg>
