<svg width="100" height="100" viewBox="0 0 100 100" fill="none" xmlns="http://www.w3.org/2000/svg">
<path d="M58.4064 41.6655C54.8168 41.6655 52.1564 42.8489 50.0731 42.8489C47.9897 42.8489 44.8877 41.6655 41.7397 41.6655C30.3043 41.6655 22.9897 49.978 22.9897 60.6114C22.9897 71.2447 31.3231 81.2489 40.4939 81.2489C40.1731 81.2489 39.8981 81.2489 39.6564 81.2489C47.9897 81.2489 50.0731 89.5822 50.0731 89.5822C50.0731 89.5822 52.1564 81.2489 61.6147 81.2051C61.3731 81.2072 61.096 81.2072 60.7793 81.2051C68.8231 81.2489 77.0835 71.2447 77.0835 60.6114C77.0835 49.978 70.3293 41.6759 58.4064 41.6655Z" fill="#D81B60"/>
<path d="M43.4023 45.6595C43.4023 49.3032 46.3565 52.2574 50.0003 52.2574C53.644 52.2574 56.5982 49.3032 56.5982 45.6595C56.5982 44.2636 56.1357 42.9928 55.3919 41.9282C53.2357 42.2761 51.4648 42.8491 50.0003 42.8491C48.5711 42.8491 46.6523 42.3053 44.5794 41.9553C43.8523 43.0116 43.4023 44.2782 43.4023 45.6595Z" fill="#AD1457"/>
<path d="M35.4165 56.25H41.8415" stroke="#AD1457" stroke-width="22" stroke-linecap="round"/>
<path d="M58.334 58.3315H66.6673" stroke="#AD1457" stroke-width="22" stroke-linecap="round"/>
<path d="M34.2002 66.6655H47.9169" stroke="#AD1457" stroke-width="22" stroke-linecap="round"/>
<path d="M51.4336 75H60.4169" stroke="#AD1457" stroke-width="22" stroke-linecap="round"/>
<path d="M79.2915 15.3498C78.4603 14.5186 79.2915 14.9331 79.5019 14.3081C79.9186 13.4769 78.2498 13.2665 77.4186 13.2665C77.2082 13.2665 77.2082 13.2665 77.0019 13.2665C74.7103 13.0581 77.2103 12.6415 77.0019 11.5998C76.7936 10.5581 74.2936 10.7665 73.6686 10.7665C72.4165 10.9769 70.9582 11.3936 69.9165 12.0186C70.3332 11.8081 70.9582 10.9769 70.5436 10.5602C70.1269 10.1436 68.4603 10.7686 67.8332 10.7686C66.5832 11.1852 65.5415 11.3956 64.2936 12.0206C63.4603 12.4373 62.8353 13.2706 61.9998 13.8936C61.9998 13.479 62.2103 13.0623 62.2103 12.6436C60.3353 12.2269 57.2103 16.1852 57.4165 18.0602C57.4165 17.229 57.4165 15.7686 56.3748 16.604C55.9603 17.4352 49.9165 23.8956 49.9165 37.4373C49.9165 41.1873 49.9186 42.3311 49.9165 43.8394C49.9165 44.1581 49.9519 44.4373 49.9998 44.6956V47.9165C51.0394 47.9165 51.9269 47.1206 52.0832 46.1269C52.0623 46.1373 52.104 46.1165 52.0832 46.1269C52.5061 43.1977 53.2498 40.1436 54.4998 36.6019C55.3311 33.6852 56.5832 30.3519 59.9165 29.7269C60.7498 29.5165 61.9998 29.9352 62.8332 29.1019C62.6228 28.8915 61.7915 26.6019 61.5811 26.3915C62.6228 26.6019 63.6644 28.2665 64.9165 28.4748C66.5832 28.6852 66.7894 27.6436 66.9998 26.3915C67.6248 27.4331 69.0832 28.2665 70.1248 28.4748C71.3748 28.6852 72.4165 27.6436 71.5832 26.3915C72.8332 27.2248 77.4165 29.7269 77.4165 26.3915C77.4165 24.5186 75.7498 21.8102 74.0811 21.1831C75.3332 21.1831 77.2061 22.0165 78.6644 21.8102C79.9165 21.8102 80.7478 20.9769 81.1644 19.7269C81.5832 17.8498 80.3332 16.6019 79.2915 15.3498Z" fill="#4CAF50"/>
<path d="M50.0002 37.4358C50.0002 23.8942 43.9585 17.4338 43.5419 16.6025C42.5002 15.7692 42.5002 17.2275 42.5002 18.0588C42.7085 16.1858 39.5835 12.2254 37.7065 12.6421C37.7065 13.0588 37.9169 13.4754 37.9169 13.8921C37.0835 13.2671 36.4585 12.4358 35.6231 12.0192C34.3731 11.3942 33.3315 11.1858 32.0835 10.7671C31.4565 10.7671 29.7898 10.1421 29.3731 10.5588C28.9585 10.9754 29.5835 11.8088 30.0002 12.0171C28.9585 11.3921 27.5002 10.9754 26.2481 10.765C25.6231 10.765 23.1231 10.5567 22.9148 11.5983C22.7065 12.64 25.2065 13.0567 22.9148 13.265C22.7065 13.265 22.7065 13.265 22.4981 13.265C21.6669 13.265 19.9981 13.4754 20.4148 14.3067C20.6252 14.9317 21.4565 14.5171 20.6252 15.3483C19.5835 16.6025 18.3335 17.8504 18.7502 19.7275C19.1669 20.9775 20.0002 21.8108 21.2502 21.8108C22.7085 22.0192 24.5835 21.1838 25.8335 21.1838C24.1648 21.8108 22.4981 24.5192 22.4981 26.3921C22.4981 29.7275 27.0815 27.2254 28.3315 26.3921C27.5002 27.6442 28.5419 28.6858 29.7898 28.4754C30.8315 28.2671 32.2898 27.4338 32.9148 26.3921C33.1252 27.6442 33.3315 28.6858 34.9981 28.4754C36.2502 28.2671 37.2919 26.6025 38.3335 26.3921C38.1231 26.6025 37.2919 28.8921 37.0815 29.1025C37.9148 29.9338 39.1648 29.5171 39.9981 29.7275C43.3315 30.3525 44.5815 33.6838 45.4148 36.6025C46.7273 40.315 47.5252 43.4588 47.9148 45.8358C47.9148 46.9879 48.846 47.9192 49.9981 47.9192V43.7525C49.9981 42.2838 50.0002 41.1108 50.0002 37.4358Z" fill="#388E3C"/>
</svg>
