<svg width="100" height="100" viewBox="0 0 100 100" fill="none" xmlns="http://www.w3.org/2000/svg">
<path opacity="0.995" fill-rule="evenodd" clip-rule="evenodd" d="M68.6523 23.9258C67.0347 32.6728 61.8914 38.1092 53.2226 40.2344C52.1244 40.4353 51.0175 40.533 49.9023 40.5273C41.6162 40.1494 35.7892 36.1781 32.4218 28.6133C31.9627 27.0992 31.5396 25.6018 31.1523 24.1211C30.5431 15.0815 34.2541 8.53851 42.2851 4.49218C50.8347 1.34828 58.224 3.07355 64.4531 9.66796C67.7592 13.8394 69.1588 18.592 68.6523 23.9258Z" fill="#D6E5EF"/>
<path fill-rule="evenodd" clip-rule="evenodd" d="M54.0039 6.15234C56.0873 6.25049 56.608 7.19451 55.5664 8.98438C53.793 9.61229 52.9791 8.99379 53.125 7.12891C53.3252 6.70176 53.6182 6.37625 54.0039 6.15234Z" fill="#A6C4DC"/>
<path fill-rule="evenodd" clip-rule="evenodd" d="M60.2539 9.27734C62.3373 9.37549 62.858 10.3195 61.8164 12.1094C60.043 12.7373 59.2291 12.1188 59.375 10.2539C59.5752 9.82676 59.8682 9.50125 60.2539 9.27734Z" fill="#A6C4DC"/>
<path fill-rule="evenodd" clip-rule="evenodd" d="M50.6836 11.231C51.9795 13.0988 51.4586 14.1079 49.1211 14.2584C47.7389 15.0219 46.567 16.0311 45.6055 17.2857C44.7592 16.6347 43.9127 15.9836 43.0664 15.3326C44.4869 13.2925 46.375 11.8927 48.7305 11.1334C49.3992 10.9875 50.0502 11.0201 50.6836 11.231Z" fill="#AFD663"/>
<path fill-rule="evenodd" clip-rule="evenodd" d="M50.6836 11.2305C51.7539 11.3376 52.7305 11.6957 53.6133 12.3047C54.6418 13.2341 55.5533 14.2432 56.3477 15.332C54.1992 17.3503 52.1158 19.4336 50.0977 21.582C48.5457 20.2912 47.0482 18.924 45.6055 17.4805C45.6055 17.4154 45.6055 17.3503 45.6055 17.2852C46.567 16.0305 47.7389 15.0214 49.1211 14.2578C51.4586 14.1074 51.9795 13.0983 50.6836 11.2305Z" fill="#91C83C"/>
<path fill-rule="evenodd" clip-rule="evenodd" d="M38.3789 12.4023C40.4623 12.5005 40.983 13.4445 39.9414 15.2344C38.168 15.8623 37.3541 15.2438 37.5 13.3789C37.7002 12.9518 37.9932 12.6262 38.3789 12.4023Z" fill="#A6C4DC"/>
<path fill-rule="evenodd" clip-rule="evenodd" d="M43.0662 15.332C43.9125 15.9831 44.759 16.6341 45.6053 17.2852C45.6053 17.3503 45.6053 17.4154 45.6053 17.4805C44.2324 18.3656 43.1582 19.5375 42.3826 20.9961C42.1903 22.307 42.5809 23.4139 43.5545 24.3164C43.9184 25.8732 43.2998 26.6545 41.699 26.6602C39.7694 25.2057 38.9555 23.2525 39.2576 20.8008C39.9485 18.5792 41.218 16.7563 43.0662 15.332Z" fill="#F99F1C"/>
<path fill-rule="evenodd" clip-rule="evenodd" d="M56.3477 15.332C58.1372 16.5032 59.4717 18.0657 60.3516 20.0195C60.6235 21.716 60.4282 23.3436 59.7657 24.9023C58.7233 26.1727 57.5839 27.3445 56.3477 28.418C54.3364 26.309 52.2856 24.2256 50.1954 22.168C50.101 21.9828 50.0686 21.7875 50.0977 21.582C52.1159 19.4336 54.1993 17.3503 56.3477 15.332Z" fill="#EF4D38"/>
<path fill-rule="evenodd" clip-rule="evenodd" d="M45.6055 17.4805C47.0482 18.924 48.5457 20.2912 50.0977 21.582C50.0686 21.7875 50.101 21.9828 50.1953 22.168C52.2855 24.2256 54.3363 26.309 56.3477 28.418C55.2662 29.7271 54.0293 30.8666 52.6367 31.8359C50.3768 32.6514 48.2283 32.4561 46.1914 31.25C44.6545 29.7457 43.157 28.2158 41.6992 26.6602C43.3 26.6545 43.9186 25.8732 43.5547 24.3164C42.5811 23.4139 42.1904 22.307 42.3828 20.9961C43.1584 19.5375 44.2326 18.3656 45.6055 17.4805Z" fill="#EF6423"/>
<path fill-rule="evenodd" clip-rule="evenodd" d="M35.2539 18.6523C37.3373 18.7505 37.858 19.6945 36.8164 21.4844C35.043 22.1123 34.2291 21.4938 34.375 19.6289C34.5752 19.2018 34.8682 18.8762 35.2539 18.6523Z" fill="#A6C4DC"/>
<path opacity="0.999" fill-rule="evenodd" clip-rule="evenodd" d="M31.1523 24.1211C31.5396 25.6018 31.9627 27.0992 32.4219 28.6133C35.7893 36.1781 41.6162 40.1494 49.9023 40.5273C49.9023 46.7773 49.9023 53.0273 49.9023 59.2773C48.8486 59.3228 47.807 59.2578 46.7773 59.082C45.9887 49.1803 40.7803 43.0604 31.1523 40.7227C31.1523 35.1889 31.1523 29.6549 31.1523 24.1211Z" fill="#555A6E"/>
<path fill-rule="evenodd" clip-rule="evenodd" d="M68.6523 23.9258C68.6523 29.5248 68.6523 35.1236 68.6523 40.7227C61.6662 42.1385 56.816 46.1748 54.1016 52.832C53.4271 54.8602 53.0691 56.9436 53.0273 59.082C51.9977 59.2578 50.9561 59.3228 49.9023 59.2773C49.9023 53.0273 49.9023 46.7773 49.9023 40.5273C51.0176 40.533 52.1244 40.4354 53.2227 40.2344C61.8914 38.1092 67.0348 32.6729 68.6523 23.9258Z" fill="#463C4B"/>
<path fill-rule="evenodd" clip-rule="evenodd" d="M63.3789 24.9023C65.4623 25.0006 65.983 25.9445 64.9414 27.7344C63.168 28.3623 62.3541 27.7438 62.5 25.8789C62.7002 25.4518 62.9932 25.1262 63.3789 24.9023Z" fill="#A6C4DC"/>
<path fill-rule="evenodd" clip-rule="evenodd" d="M41.5039 31.1523C43.5873 31.2506 44.108 32.1945 43.0664 33.9844C41.293 34.6123 40.4791 33.9938 40.625 32.1289C40.8252 31.7018 41.1182 31.3762 41.5039 31.1523Z" fill="#A6C4DC"/>
<path opacity="0.997" fill-rule="evenodd" clip-rule="evenodd" d="M31.1525 40.7227C40.7804 43.0604 45.9888 49.1803 46.7775 59.0821C46.7775 59.8633 46.7775 60.6446 46.7775 61.4258C45.1599 70.1729 40.0165 75.6092 31.3478 77.7344C30.2495 77.9354 29.1427 78.0331 28.0275 78.0274C19.7413 77.6495 13.9144 73.6782 10.547 66.1133C10.0879 64.5993 9.66472 63.1018 9.27745 61.6211C8.6707 53.5577 11.7306 47.3403 18.4571 42.9688C22.4282 40.7444 26.6599 39.9957 31.1525 40.7227Z" fill="#D6E5EE"/>
<path opacity="0.997" fill-rule="evenodd" clip-rule="evenodd" d="M90.5273 61.4259C88.9098 70.173 83.7664 75.6093 75.0977 77.7345C73.9994 77.9355 72.8926 78.0331 71.7773 78.0275C63.4912 77.6495 57.6643 73.6782 54.2969 66.1134C53.8377 64.5993 53.4146 63.1019 53.0273 61.6212C53.0273 60.7749 53.0273 59.9284 53.0273 59.0822C53.0691 56.9437 53.4271 54.8603 54.1016 52.8322C56.816 46.1749 61.6662 42.1386 68.6523 40.7228C78.4986 39.671 85.4322 43.6425 89.4531 52.6368C90.4203 55.487 90.7785 58.4167 90.5273 61.4259Z" fill="#D6E5EE"/>
<path fill-rule="evenodd" clip-rule="evenodd" d="M32.1289 43.6523C34.2123 43.7506 34.733 44.6945 33.6914 46.4844C31.918 47.1123 31.1041 46.4938 31.25 44.6289C31.4502 44.2018 31.7432 43.8762 32.1289 43.6523Z" fill="#A6C4DC"/>
<path fill-rule="evenodd" clip-rule="evenodd" d="M75.8789 43.6523C77.9623 43.7506 78.483 44.6945 77.4414 46.4844C75.668 47.1123 74.8541 46.4938 75 44.6289C75.2002 44.2018 75.4932 43.8762 75.8789 43.6523Z" fill="#A6C4DC"/>
<path fill-rule="evenodd" clip-rule="evenodd" d="M38.3789 46.7773C40.4623 46.8756 40.983 47.8195 39.9414 49.6094C38.168 50.2373 37.3541 49.6188 37.5 47.7539C37.7002 47.3268 37.9932 47.0012 38.3789 46.7773Z" fill="#A6C4DC"/>
<path fill-rule="evenodd" clip-rule="evenodd" d="M82.1289 46.7773C84.2123 46.8756 84.733 47.8195 83.6914 49.6094C81.918 50.2373 81.1041 49.6188 81.25 47.7539C81.4502 47.3268 81.7432 47.0012 82.1289 46.7773Z" fill="#A6C4DC"/>
<path fill-rule="evenodd" clip-rule="evenodd" d="M28.8086 48.731C30.1045 50.5988 29.5836 51.608 27.2461 51.7584C25.8639 52.5221 24.692 53.531 23.7305 54.7857C22.8842 54.1348 22.0377 53.4836 21.1914 52.8326C22.6119 50.7926 24.5 49.3928 26.8555 48.6334C27.5242 48.4875 28.1752 48.5201 28.8086 48.731Z" fill="#AFD663"/>
<path fill-rule="evenodd" clip-rule="evenodd" d="M72.5586 48.731C73.8545 50.5988 73.3336 51.608 70.9961 51.7584C69.6139 52.5221 68.442 53.531 67.4805 54.7857C66.6342 54.1348 65.7877 53.4836 64.9414 52.8326C66.3619 50.7926 68.25 49.3928 70.6055 48.6334C71.2742 48.4875 71.9252 48.5201 72.5586 48.731Z" fill="#AFD663"/>
<path fill-rule="evenodd" clip-rule="evenodd" d="M28.8086 48.7305C29.8789 48.8377 30.8555 49.1957 31.7383 49.8047C32.7668 50.7342 33.6783 51.7432 34.4727 52.832C32.3242 54.8502 30.2408 56.9336 28.2227 59.082C26.6707 57.7912 25.1732 56.424 23.7305 54.9805C23.7305 54.9154 23.7305 54.8502 23.7305 54.7852C24.692 53.5305 25.8639 52.5215 27.2461 51.7578C29.5836 51.6074 30.1045 50.5982 28.8086 48.7305Z" fill="#91C83C"/>
<path fill-rule="evenodd" clip-rule="evenodd" d="M72.5586 48.7305C73.6289 48.8377 74.6055 49.1957 75.4883 49.8047C76.5168 50.7342 77.4283 51.7432 78.2227 52.832C76.0742 54.8502 73.9908 56.9336 71.9727 59.082C70.4207 57.7912 68.9232 56.424 67.4805 54.9805C67.4805 54.9154 67.4805 54.8502 67.4805 54.7852C68.442 53.5305 69.6139 52.5215 70.9961 51.7578C73.3336 51.6074 73.8545 50.5982 72.5586 48.7305Z" fill="#91C83C"/>
<path fill-rule="evenodd" clip-rule="evenodd" d="M16.5039 49.9023C18.5872 50.0006 19.1081 50.9445 18.0664 52.7344C16.293 53.3623 15.4792 52.7438 15.625 50.8789C15.8252 50.4518 16.1182 50.1262 16.5039 49.9023Z" fill="#A6C4DC"/>
<path fill-rule="evenodd" clip-rule="evenodd" d="M60.2539 49.9023C62.3373 50.0006 62.858 50.9445 61.8164 52.7344C60.043 53.3623 59.2291 52.7438 59.375 50.8789C59.5752 50.4518 59.8682 50.1262 60.2539 49.9023Z" fill="#A6C4DC"/>
<path fill-rule="evenodd" clip-rule="evenodd" d="M21.1912 52.832C22.0375 53.483 22.884 54.1342 23.7303 54.7852C23.7303 54.8502 23.7303 54.9154 23.7303 54.9805C22.3574 55.8656 21.2832 57.0375 20.5076 58.4961C20.3152 59.807 20.7059 60.9139 21.6795 61.8164C22.0434 63.3732 21.4248 64.1545 19.824 64.1602C17.8944 62.7057 17.0805 60.7525 17.3826 58.3008C18.0734 56.0793 19.3429 54.2562 21.1912 52.832Z" fill="#F99F1C"/>
<path fill-rule="evenodd" clip-rule="evenodd" d="M34.4727 52.832C36.2622 54.0031 37.5967 55.5656 38.4766 57.5195C38.7485 59.216 38.5532 60.8436 37.8907 62.4023C36.8483 63.6727 35.7089 64.8445 34.4727 65.918C32.4614 63.809 30.4106 61.7256 28.3204 59.668C28.226 59.4828 28.1936 59.2875 28.2227 59.082C30.2409 56.9336 32.3243 54.8502 34.4727 52.832Z" fill="#EF4D38"/>
<path fill-rule="evenodd" clip-rule="evenodd" d="M64.9412 52.832C65.7875 53.483 66.634 54.1342 67.4803 54.7852C67.4803 54.8502 67.4803 54.9154 67.4803 54.9805C66.1074 55.8656 65.0332 57.0375 64.2576 58.4961C64.0653 59.807 64.4559 60.9139 65.4295 61.8164C65.7934 63.3732 65.1748 64.1545 63.574 64.1602C61.6444 62.7057 60.8305 60.7525 61.1326 58.3008C61.8235 56.0793 63.093 54.2562 64.9412 52.832Z" fill="#F99F1C"/>
<path fill-rule="evenodd" clip-rule="evenodd" d="M78.2227 52.832C80.0122 54.0031 81.3467 55.5656 82.2266 57.5195C82.4985 59.216 82.3032 60.8436 81.6407 62.4023C80.5983 63.6727 79.4589 64.8445 78.2227 65.918C76.2114 63.809 74.1606 61.7256 72.0704 59.668C71.976 59.4828 71.9436 59.2875 71.9727 59.082C73.9909 56.9336 76.0743 54.8502 78.2227 52.832Z" fill="#EF4D38"/>
<path fill-rule="evenodd" clip-rule="evenodd" d="M23.7305 54.9805C25.1732 56.424 26.6707 57.7912 28.2227 59.082C28.1936 59.2875 28.226 59.4828 28.3203 59.668C30.4105 61.7256 32.4613 63.809 34.4727 65.918C33.3912 67.2271 32.1543 68.3666 30.7617 69.3359C28.5018 70.1514 26.3533 69.9561 24.3164 68.75C22.7795 67.2457 21.282 65.7158 19.8242 64.1602C21.425 64.1545 22.0436 63.3732 21.6797 61.8164C20.7061 60.9139 20.3154 59.807 20.5078 58.4961C21.2834 57.0375 22.3576 55.8656 23.7305 54.9805Z" fill="#EF6423"/>
<path fill-rule="evenodd" clip-rule="evenodd" d="M67.4805 54.9805C68.9232 56.424 70.4207 57.7912 71.9727 59.082C71.9436 59.2875 71.976 59.4828 72.0703 59.668C74.1605 61.7256 76.2113 63.809 78.2227 65.918C77.1412 67.2271 75.9043 68.3666 74.5117 69.3359C72.2518 70.1514 70.1033 69.9561 68.0664 68.75C66.5295 67.2457 65.032 65.7158 63.5742 64.1602C65.175 64.1545 65.7936 63.3732 65.4297 61.8164C64.4561 60.9139 64.0654 59.807 64.2578 58.4961C65.0334 57.0375 66.1076 55.8656 67.4805 54.9805Z" fill="#EF6423"/>
<path fill-rule="evenodd" clip-rule="evenodd" d="M13.3789 56.1523C15.4622 56.2506 15.9831 57.1945 14.9414 58.9844C13.168 59.6123 12.3542 58.9938 12.5 57.1289C12.7002 56.7018 12.9932 56.3762 13.3789 56.1523Z" fill="#A6C4DC"/>
<path fill-rule="evenodd" clip-rule="evenodd" d="M57.1289 56.1523C59.2123 56.2506 59.733 57.1945 58.6914 58.9844C56.918 59.6123 56.1041 58.9938 56.25 57.1289C56.4502 56.7018 56.7432 56.3762 57.1289 56.1523Z" fill="#A6C4DC"/>
<path opacity="0.994" fill-rule="evenodd" clip-rule="evenodd" d="M9.27734 61.6211C9.6646 63.1018 10.0878 64.5992 10.5469 66.1133C13.9143 73.6781 19.7412 77.6494 28.0273 78.0273C28.0273 84.2773 28.0273 90.5273 28.0273 96.7773C19.5623 96.4811 13.6704 92.4445 10.3516 84.668C9.90347 83.3965 9.57796 82.0943 9.37499 80.7617C9.27734 74.3818 9.2448 68.0016 9.27734 61.6211Z" fill="#555A6E"/>
<path fill-rule="evenodd" clip-rule="evenodd" d="M46.7773 61.4258C46.81 67.8715 46.7773 74.3168 46.6797 80.7617C45.2965 88.4602 40.902 93.5709 33.4961 96.0938C31.7131 96.6404 29.8902 96.8684 28.0273 96.7773C28.0273 90.5273 28.0273 84.2773 28.0273 78.0273C29.1426 78.033 30.2494 77.9354 31.3477 77.7344C40.0164 75.6092 45.1598 70.1729 46.7773 61.4258Z" fill="#463C4B"/>
<path opacity="0.994" fill-rule="evenodd" clip-rule="evenodd" d="M53.0274 61.6211C53.4147 63.1018 53.8377 64.5992 54.2969 66.1133C57.6643 73.6781 63.4912 77.6494 71.7774 78.0273C71.7774 84.2773 71.7774 90.5273 71.7774 96.7773C63.3123 96.4811 57.4205 92.4445 54.1016 84.668C53.6535 83.3965 53.328 82.0943 53.125 80.7617C53.0274 74.3818 52.9948 68.0016 53.0274 61.6211Z" fill="#555A6E"/>
<path fill-rule="evenodd" clip-rule="evenodd" d="M90.5273 61.4258C90.56 67.8715 90.5273 74.3168 90.4297 80.7617C89.0465 88.4602 84.652 93.5709 77.2461 96.0938C75.4631 96.6404 73.6402 96.8684 71.7773 96.7773C71.7773 90.5273 71.7773 84.2773 71.7773 78.0273C72.8926 78.033 73.9994 77.9354 75.0977 77.7344C83.7664 75.6092 88.9098 70.1729 90.5273 61.4258Z" fill="#463C4B"/>
<path fill-rule="evenodd" clip-rule="evenodd" d="M41.5039 62.4023C43.5873 62.5006 44.108 63.4445 43.0664 65.2344C41.293 65.8623 40.4791 65.2438 40.625 63.3789C40.8252 62.9518 41.1182 62.6262 41.5039 62.4023Z" fill="#A6C4DC"/>
<path fill-rule="evenodd" clip-rule="evenodd" d="M85.2539 62.4023C87.3373 62.5006 87.858 63.4445 86.8164 65.2344C85.043 65.8623 84.2291 65.2438 84.375 63.3789C84.5752 62.9518 84.8682 62.6262 85.2539 62.4023Z" fill="#A6C4DC"/>
<path fill-rule="evenodd" clip-rule="evenodd" d="M19.6289 68.6523C21.7123 68.7506 22.233 69.6945 21.1914 71.4844C19.418 72.1123 18.6042 71.4938 18.75 69.6289C18.9502 69.2018 19.2432 68.8762 19.6289 68.6523Z" fill="#A6C4DC"/>
<path fill-rule="evenodd" clip-rule="evenodd" d="M63.3789 68.6523C65.4623 68.7506 65.983 69.6945 64.9414 71.4844C63.168 72.1123 62.3541 71.4938 62.5 69.6289C62.7002 69.2018 62.9932 68.8762 63.3789 68.6523Z" fill="#A6C4DC"/>
</svg>
