<svg width="100" height="100" viewBox="0 0 100 100" fill="none" xmlns="http://www.w3.org/2000/svg">
<path d="M83.4602 16.5394C93.5686 26.6498 83.6873 46.7269 65.2081 65.2082C46.729 83.6811 26.6498 93.5644 16.5415 83.4582C6.43107 73.3477 16.3123 53.2707 34.7915 34.7894C53.2686 16.3144 73.3498 6.43108 83.4602 16.5394Z" fill="#FFB300"/>
<path d="M41.4709 60.2849C42.1063 68.9974 40.7521 73.9703 38.9813 76.812C35.2 80.2099 33.4146 80.5932 33.4146 80.5932C33.4146 80.5932 32.8167 56.9141 33.4646 47.9161C33.5084 47.3078 36.3729 43.4453 36.3729 43.4453C36.3729 43.4453 40.8146 51.2849 41.4709 60.2849Z" fill="#FFA000"/>
<path d="M58.1374 46.3518C58.7729 55.0643 57.4166 60.0372 55.6479 62.8789C51.8666 66.2768 50.0812 66.6601 50.0812 66.6601C50.0812 66.6601 49.4833 42.983 50.1291 33.983C50.1729 33.3747 53.0374 29.5122 53.0374 29.5122C53.0374 29.5122 57.4833 37.3539 58.1374 46.3518Z" fill="#FFA000"/>
<path d="M74.8498 33.2434C75.4853 41.9559 74.129 46.9288 72.3603 49.7705C68.579 53.1684 66.7936 53.5517 66.7936 53.5517C66.7936 53.5517 66.1957 29.8746 66.8415 20.8746C66.8853 20.2663 69.7498 16.4038 69.7498 16.4038C69.7498 16.4038 74.1915 24.2455 74.8498 33.2434Z" fill="#FFA000"/>
<path d="M37.4998 64.2566C37.4998 73.2795 33.4144 80.5941 33.4144 80.5941C33.4144 80.5941 29.3311 73.2795 29.3311 64.2566C29.3311 55.2337 33.4144 47.917 33.4144 47.917C33.4144 47.917 37.4998 55.2337 37.4998 64.2566Z" fill="#FFE082"/>
<path d="M54.1956 50.3272C54.1956 59.3522 50.1123 66.6668 50.1123 66.6668C50.1123 66.6668 46.0289 59.3522 46.0269 50.3272C46.0269 41.3064 50.1123 33.9897 50.1123 33.9897C50.1123 33.9897 54.1956 41.3064 54.1956 50.3272Z" fill="#FFE082"/>
<path d="M70.8329 37.171C70.8329 46.196 66.7475 53.5106 66.7475 53.5106C66.7475 53.5106 62.6642 46.196 62.6621 37.171C62.6621 28.1502 66.7475 20.8335 66.7475 20.8335C66.7475 20.8335 70.8329 28.1502 70.8329 37.171Z" fill="#FFE082"/>
</svg>
