<svg width="100" height="100" viewBox="0 0 100 100" fill="none" xmlns="http://www.w3.org/2000/svg">
<path d="M31.25 33.3345C38.1536 33.3345 43.75 27.738 43.75 20.8345C43.75 13.9309 38.1536 8.33447 31.25 8.33447C24.3464 8.33447 18.75 13.9309 18.75 20.8345C18.75 27.738 24.3464 33.3345 31.25 33.3345Z" fill="#FFECB3"/>
<path d="M46.8753 29.1667C53.2036 29.1667 58.3337 24.0366 58.3337 17.7083C58.3337 11.3801 53.2036 6.25 46.8753 6.25C40.5471 6.25 35.417 11.3801 35.417 17.7083C35.417 24.0366 40.5471 29.1667 46.8753 29.1667Z" fill="#FFECB3"/>
<path d="M61.4587 27.0833C65.4857 27.0833 68.7503 23.8187 68.7503 19.7917C68.7503 15.7646 65.4857 12.5 61.4587 12.5C57.4316 12.5 54.167 15.7646 54.167 19.7917C54.167 23.8187 57.4316 27.0833 61.4587 27.0833Z" fill="#FFECB3"/>
<path d="M55.2087 35.4178C59.2357 35.4178 62.5003 32.1532 62.5003 28.1261C62.5003 24.0991 59.2357 20.8345 55.2087 20.8345C51.1816 20.8345 47.917 24.0991 47.917 28.1261C47.917 32.1532 51.1816 35.4178 55.2087 35.4178Z" fill="#FFECB3"/>
<path d="M17.7083 27.0822C20.5848 27.0822 22.9167 24.7503 22.9167 21.8739C22.9167 18.9974 20.5848 16.6655 17.7083 16.6655C14.8319 16.6655 12.5 18.9974 12.5 21.8739C12.5 24.7503 14.8319 27.0822 17.7083 27.0822Z" fill="#FFECB3"/>
<path d="M67.7083 27.0822C70.5848 27.0822 72.9167 24.7503 72.9167 21.8739C72.9167 18.9974 70.5848 16.6655 67.7083 16.6655C64.8319 16.6655 62.5 18.9974 62.5 21.8739C62.5 24.7503 64.8319 27.0822 67.7083 27.0822Z" fill="#FFECB3"/>
<path d="M67.7292 81.2489C61.4125 81.2489 56.2709 76.1072 56.2709 69.7905V46.8739C56.2709 46.2718 56.2625 45.7947 56.2563 45.4218C56.2355 44.103 56.2167 42.9655 57.2271 41.9384L58.1438 41.0072L59.523 40.978C60.3855 40.978 61 41.3114 61.3313 41.4905C61.3459 41.4989 61.3605 41.5051 61.373 41.5134C64.2959 39.778 72.2375 35.4155 78.1459 35.4155C87.5209 35.4155 87.5209 42.5864 87.5209 46.8718C87.4063 48.9593 86.4313 65.853 85.3563 70.4926C83.8001 77.2259 79.5459 81.2468 73.9792 81.2468L67.7292 81.2489ZM62.5209 47.9155V69.7905C62.5209 72.6614 64.8563 74.9989 67.7292 74.9989L73.9771 74.9968C77.3917 74.9968 78.7563 71.2926 79.2688 69.0843C80.075 65.5947 80.9896 51.7405 81.2751 46.6947C81.2709 41.6655 81.0334 41.6655 78.1459 41.6655C73.7813 41.6655 66.0375 45.9364 63.6688 47.4343L62.9021 47.9155H62.5209Z" fill="#BBDEFB"/>
<path d="M16.667 83.3311V87.4977C16.667 89.7977 18.5337 91.6644 20.8337 91.6644H64.5837C66.8837 91.6644 68.7503 89.7977 68.7503 87.4977V83.3311H16.667Z" fill="#BBDEFB"/>
<path d="M68.7503 25H16.667V83.3333H68.7503V25Z" fill="#FFB300"/>
<path d="M68.7503 25H16.667V41.6667H68.7503V25Z" fill="#FFD54F"/>
<path d="M51.042 60.4155C52.7679 60.4155 54.167 59.0164 54.167 57.2905C54.167 55.5646 52.7679 54.1655 51.042 54.1655C49.3161 54.1655 47.917 55.5646 47.917 57.2905C47.917 59.0164 49.3161 60.4155 51.042 60.4155Z" fill="#FFECB3"/>
<path d="M55.208 72.9155C56.9339 72.9155 58.333 71.5164 58.333 69.7905C58.333 68.0646 56.9339 66.6655 55.208 66.6655C53.4821 66.6655 52.083 68.0646 52.083 69.7905C52.083 71.5164 53.4821 72.9155 55.208 72.9155Z" fill="#FFE082"/>
<path d="M60.4163 54.1667C61.5669 54.1667 62.4997 53.2339 62.4997 52.0833C62.4997 50.9327 61.5669 50 60.4163 50C59.2657 50 58.333 50.9327 58.333 52.0833C58.333 53.2339 59.2657 54.1667 60.4163 54.1667Z" fill="#FFF8E1"/>
<path d="M29.9918 40.7125C31.1501 34.6812 31.1501 28.1187 25.6938 25C29.1668 20.8333 39.5834 20.8333 43.1001 25C37.0418 28.4625 37.7043 36.1708 39.2189 42.6812C40.4355 46.075 41.198 49.1313 41.498 51.075C41.5022 51.1 41.5043 51.1208 41.5084 51.1458C41.5938 51.7104 41.6501 52.2146 41.6501 52.5562C41.6501 56.5604 38.4022 59.8063 34.4001 59.8063C30.3938 59.8063 27.1501 56.5583 27.1501 52.5562C27.1501 52.2437 27.1959 51.8042 27.2668 51.3083C27.5584 48.9583 28.5897 45.4208 29.9918 40.7125Z" fill="#FFFDF0"/>
<path d="M45.6229 24.9989C44.6584 20.2426 40.4563 16.6655 35.4167 16.6655C30.3771 16.6655 26.175 20.2426 25.2104 24.9989H45.6229Z" fill="#FFFDF0"/>
<path d="M54.0604 25C54.1292 24.6625 54.1667 24.3146 54.1667 23.9583C54.1667 21.0812 51.8354 18.75 48.9583 18.75C46.0813 18.75 43.75 21.0812 43.75 23.9583C43.75 24.3146 43.7875 24.6625 43.8542 25H54.0604Z" fill="#FFFDF0"/>
</svg>
