<svg width="100" height="100" viewBox="0 0 100 100" fill="none" xmlns="http://www.w3.org/2000/svg">
<g clip-path="url(#clip0_190_5846)">
<path d="M52.084 16.6676C52.1152 9.17594 60.4173 3.79053 60.4173 3.79053" stroke="#F57F17" stroke-width="22" stroke-miterlimit="10"/>
<path d="M50 10.4155L53.6125 14.0968L57.8396 11.3259L60.6813 15.7572L65.3375 14.0176L67.2812 19.0051L72.1625 18.3739L73.1271 23.6989L78.0208 24.2009L77.9625 29.6322L82.6542 31.2489L81.5771 36.5468L85.8604 39.2072L83.8083 44.1405L87.5 47.7259L84.5646 52.0822L87.5 56.4384L83.8083 60.0239L85.8604 64.9572L81.5771 67.6176L82.6542 72.9155L77.9625 74.5322L78.0208 79.9634L73.1271 80.4655L72.1625 85.7905L67.2812 85.1593L65.3375 90.1468L60.6813 88.4072L57.8396 92.8384L53.6125 90.0676L50 93.7489L46.3875 90.0676L42.1604 92.8384L39.3187 88.4072L34.6625 90.1468L32.7188 85.1593L27.8375 85.7905L26.8729 80.4655L21.9792 79.9634L22.0375 74.5322L17.3458 72.9155L18.4229 67.6176L14.1396 64.9572L16.1917 60.0239L12.5 56.4384L15.4354 52.0822L12.5 47.7259L16.1917 44.1405L14.1396 39.2072L18.4229 36.5468L17.3458 31.2489L22.0375 29.6322L21.9792 24.2009L26.8729 23.6989L27.8375 18.3739L32.7188 19.0051L34.6625 14.0176L39.3187 15.7572L42.1604 11.3259L46.3875 14.0968L50 10.4155Z" fill="#CDDC39"/>
<path d="M50.0007 85.4167C66.109 85.4167 79.1673 70.4928 79.1673 52.0833C79.1673 33.6738 66.109 18.75 50.0007 18.75C33.8923 18.75 20.834 33.6738 20.834 52.0833C20.834 70.4928 33.8923 85.4167 50.0007 85.4167Z" fill="#FFF9C4"/>
<path d="M47.9163 43.4562V25.4895C47.9163 24.1541 46.6725 23.1541 45.3663 23.4395C35.6204 25.5708 27.8809 34.2979 25.6663 45.502C25.2079 47.8208 26.9204 50 29.2829 50H41.3725C44.9871 50 47.9163 47.0708 47.9163 43.4562Z" fill="#FFC107"/>
<path d="M58.6268 50H70.7163C73.0788 50 74.7913 47.8209 74.333 45.5021C72.1184 34.2979 64.3788 25.5709 54.633 23.4396C53.3268 23.1542 52.083 24.1521 52.083 25.4896V43.4563C52.083 47.0709 55.0122 50 58.6268 50Z" fill="#FFC107"/>
<path d="M41.3725 54.1655H29.2829C26.9204 54.1655 25.2079 56.3447 25.6663 58.6634C27.8809 69.8676 35.6204 78.5947 45.3663 80.7259C46.6725 81.0114 47.9163 80.0134 47.9163 78.6759V60.7093C47.9163 57.0947 44.9871 54.1655 41.3725 54.1655Z" fill="#FFC107"/>
<path d="M52.083 60.7093V78.6759C52.083 80.0114 53.3268 81.0114 54.633 80.7259C64.3788 78.5947 72.1184 69.8676 74.333 58.6634C74.7913 56.3447 73.0788 54.1655 70.7163 54.1655H58.6268C55.0122 54.1655 52.083 57.0947 52.083 60.7093Z" fill="#FFC107"/>
</g>
<defs>
<clipPath id="clip0_190_5846">
<rect width="100" height="100" fill="white"/>
</clipPath>
</defs>
</svg>
