<svg width="100" height="100" viewBox="0 0 100 100" fill="none" xmlns="http://www.w3.org/2000/svg">
<path d="M60.9979 77.2436C60.1395 74.9644 60.4166 72.9144 60.4166 72.9144C60.4166 72.9144 75.4771 84.1081 87.3104 68.9144C87.0062 69.6061 86.65 70.2852 86.2541 70.9456C87.4646 68.9602 88.252 66.779 88.5895 64.6519C89.0458 61.9061 88.8937 59.2561 88.4229 56.7769C88.1833 55.5331 87.8625 54.3269 87.4708 53.1602C87.2666 52.5456 87.0833 52.0623 86.8104 51.3706C86.6208 50.9394 86.3041 50.2186 86.0062 49.6581C84.8312 47.4436 83.5 45.6873 82.4937 43.9769C81.9895 43.1227 81.5666 42.2915 81.2645 41.4519C80.9583 40.6311 80.8208 39.9165 80.8583 39.0623C80.925 37.3436 81.6729 35.6331 82.8354 33.7727C83.3979 32.8206 83.9937 31.7998 84.4416 30.6394C84.7916 29.6102 85.2458 28.604 85.4875 27.2998C85.8458 24.7394 84.9354 22.5248 84.0479 20.5227C83.1291 18.504 82.0062 16.6352 81.25 14.5811C81.6916 16.7311 82.5354 18.7915 83.1229 20.8686C83.7145 22.9144 84.1312 25.0998 83.5625 26.8706C83.2875 27.6936 82.702 28.6352 82.1812 29.6019C81.6979 30.4206 81.0625 31.2081 80.3687 32.0394C78.9541 33.6665 77.3791 35.8311 76.8354 38.4811C76.5375 39.7873 76.5562 41.2936 76.8187 42.579C77.0479 43.8581 77.4416 45.0644 77.8791 46.1811C78.7562 48.4081 79.7771 50.3561 80.3604 52.1373C81.4312 55.5873 81.6229 59.7956 80.5416 62.7831C80.0145 64.3061 79.1875 65.5081 78.1604 66.4019C77.0979 67.3165 75.7687 67.9852 74.4437 68.3061C71.8 68.9602 69.0375 68.1477 67.1875 66.4998C66.275 65.7019 65.5229 64.5998 65.1416 63.6102C64.6187 62.3769 64.5229 61.3998 64.5229 60.0123C64.5354 57.2852 65.6083 53.554 66.5771 48.8019L66.6354 48.5123C66.7312 48.0248 66.7833 47.5186 66.7916 47.0019C66.8562 42.3748 63.1583 38.5706 58.5312 38.5061C53.902 38.4394 50.0979 42.1373 50.0312 46.7665C49.977 50.6519 49.1021 55.5811 50.0416 61.6019C50.5083 64.5477 51.7062 67.8456 53.4312 70.3623C55.2687 73.1331 58.3333 74.9977 60.3166 76.9019C60.4645 77.0436 60.3166 76.9019 60.9979 77.2436Z" fill="#673AB7"/>
<path d="M68.75 22.9155C68.75 33.2718 60.3562 58.3322 50 58.3322C39.6437 58.3322 31.25 33.2718 31.25 22.9155C31.25 12.5593 39.6437 4.16553 50 4.16553C60.3562 4.16553 68.75 12.5593 68.75 22.9155Z" fill="#673AB7"/>
<path d="M50.8186 53.2561C50.6749 50.9956 50.552 48.9373 50.4624 46.7894C50.4457 46.4331 50.404 46.0269 50.3395 45.6644C49.5228 41.1186 45.1791 38.0977 40.6374 38.9144C36.0936 39.729 33.0707 44.0748 33.8874 48.6144L33.9165 48.7811C34.6999 53.1581 36.0082 58.0581 36.0999 60.3081L36.1103 60.8456V60.8623C36.129 60.7352 36.0707 61.1665 36.152 60.5852L36.1499 60.6373L36.1436 60.7394L36.1311 60.9477L36.104 61.3581C36.0353 61.8956 36.179 61.5081 36.1061 61.9206C36.0582 62.404 35.952 62.9186 35.7311 63.4415C35.3103 64.4915 34.5186 65.6081 33.4811 66.5373C32.9395 66.9977 32.4499 67.4206 31.7645 67.7415C31.6186 67.8665 30.9207 68.1331 30.3124 68.2394C29.0145 68.5019 27.3374 68.4498 25.6999 68.1311L25.0915 68.0019L24.7936 67.929L24.6457 67.8915L24.6082 67.8811C24.679 67.9102 24.4207 67.8123 24.7645 67.9456L24.7395 67.9373L24.6415 67.904L23.9311 67.6769C23.8436 67.6394 23.7832 67.6477 23.6561 67.5998C23.1145 67.3915 22.6415 67.1227 22.1874 66.7436C21.2811 66.0019 20.454 64.6915 19.8686 62.9998C18.6728 59.954 18.9645 56.1415 20.104 52.2623L20.3082 51.5769L20.552 50.8727C20.6936 50.4665 20.8999 49.9686 21.102 49.5019L22.454 46.429C23.3478 44.2811 24.2561 41.5998 23.7165 38.7352C23.2186 36.0498 21.6978 33.8436 20.2499 32.1811C19.5478 31.3415 18.8999 30.554 18.3957 29.7227C17.8999 28.8394 17.2749 27.7769 16.9686 26.9852C16.3207 25.2206 16.5957 23.0227 17.0832 20.9394C17.5624 18.8331 18.3145 16.7373 18.7499 14.5811C17.9936 16.6436 16.9499 18.5644 16.1249 20.6394C15.3249 22.6936 14.5665 24.9706 15.0332 27.5061C15.3436 28.8227 15.727 29.7206 16.127 30.829C16.5895 31.9727 17.1957 32.9894 17.7561 33.9373C18.9061 35.7706 19.6103 37.5227 19.6415 39.2248C19.6811 40.7727 18.9228 42.3956 17.852 44.1081L16.0895 46.8248C15.7749 47.3227 15.4749 47.7998 15.152 48.3852L14.7228 49.1811L14.3165 50.0186C13.2936 52.1706 12.4249 54.4769 11.9103 56.9977C11.654 58.2561 11.4895 59.5686 11.4603 60.9248C11.4478 61.5852 11.4645 62.2894 11.5415 63.0852L11.6249 63.929L11.7957 64.9936C12.0499 66.4477 12.4895 67.9998 13.1665 69.5436C13.0874 69.3644 13.004 69.1873 12.9332 69.0102C24.7353 83.7998 39.8728 72.9144 39.8728 72.9144C39.8728 72.9144 40.0457 75.0915 39.2207 77.3415C39.5707 77.1665 39.9311 77.0081 40.2645 76.8165C42.877 75.3269 45.2707 73.2977 47.1936 70.6394C48.1561 69.3186 48.9665 67.8186 49.5811 66.2206C49.8728 65.5977 50.2395 64.1331 50.377 63.5998L50.479 63.1998L50.529 62.9977L50.5541 62.8998L50.5665 62.8498L50.6165 62.4873L50.7811 61.3894C50.979 59.8977 51.0249 58.3227 50.9936 56.9602C50.9645 55.5894 50.8874 54.3915 50.8186 53.2561Z" fill="#673AB7"/>
<path d="M63.3183 60.4329C63.1267 60.8787 62.8454 61.6058 62.7642 61.7225C62.635 61.9183 62.4954 62.2766 62.3579 62.6746C62.085 63.435 61.8496 64.2662 61.6537 65.1412C61.26 66.8871 60.9954 68.7746 60.8725 70.6996C60.7433 72.6204 60.735 74.5891 60.8662 76.51L60.8892 76.8704L60.8933 76.9141V76.9246C60.9017 76.9579 60.8287 76.6975 60.86 76.8121L60.8621 76.8391L60.8767 76.9412L60.9017 77.1454L61.0037 77.9475C61.0475 78.3016 61.06 78.6516 61.1579 79.0871C61.3121 79.9162 61.5267 80.7433 61.8329 81.5371C62.985 84.7433 65.5308 87.6266 69.06 89.4808C72.5725 91.3454 76.8808 92.1912 81.2517 92.0204C77.1517 93.5391 72.5267 94.2329 67.7787 93.4496C63.0683 92.6975 58.1871 90.1746 54.7808 85.9808C53.9183 84.9537 53.1642 83.835 52.4912 82.6662C52.1558 82.1079 51.8329 81.4329 51.5162 80.7662L51.1558 80.01L51.0683 79.8246L51.0246 79.7329L51.0142 79.7079L50.9683 79.5579L50.9475 79.5058L50.7725 79.0787C49.835 76.8037 49.0787 74.5016 48.4558 72.1246C47.8308 69.7516 47.3579 67.3058 47.0787 64.7266C46.9392 63.4371 46.86 62.1058 46.8579 60.7225C46.8579 60.0475 46.8683 59.3308 46.9537 58.4683L47.1017 56.5891L47.1121 56.46C47.4808 51.8058 51.5537 48.3329 56.2079 48.7017C60.8621 49.0683 64.335 53.1412 63.9683 57.7933C63.8912 58.7141 63.6558 59.6225 63.3183 60.4329Z" fill="#673AB7"/>
<path d="M53.077 56.5822L53.227 58.4614C53.3103 59.3239 53.3228 60.0406 53.3207 60.7156C53.3207 62.0989 53.2416 63.4302 53.102 64.7197C52.8228 67.2989 52.352 69.7447 51.7249 72.1177C51.0999 74.4947 50.3457 76.7968 49.4082 79.0718L49.2332 79.4989L49.2124 79.551L49.1666 79.701L49.1562 79.726L49.1124 79.8177L49.0249 80.0031L48.6645 80.7593C48.3499 81.426 48.0249 82.1031 47.6895 82.6593C47.0207 83.8281 46.2645 84.9468 45.402 85.9739C41.9957 90.1677 37.1124 92.6906 32.402 93.4427C27.6541 94.226 23.0291 93.5343 18.9312 92.0135C23.302 92.1843 27.6103 91.3385 31.1228 89.4739C34.6478 87.6198 37.1978 84.7385 38.3499 81.5302C38.6562 80.7364 38.8707 79.9114 39.0249 79.0802C39.1207 78.6447 39.1353 78.2947 39.1791 77.9406L39.2812 77.1385L39.3062 76.9343L39.3187 76.8323L39.3207 76.8052C39.352 76.6885 39.2791 76.9489 39.2874 76.9177V76.9072L39.2895 76.8635L39.3124 76.5031C39.4437 74.5822 39.4353 72.6135 39.3062 70.6927C39.1832 68.7677 38.9187 66.8802 38.5249 65.1343C38.3291 64.2593 38.0916 63.4302 37.8207 62.6677C37.6832 62.2697 37.5416 61.9114 37.4145 61.7156C37.3312 61.5968 37.052 60.8718 36.8624 60.426C35.0353 56.1281 37.0353 51.1656 41.3312 49.3385C45.6291 47.5093 50.5916 49.5093 52.4187 53.8072C52.7832 54.6593 52.9937 55.5364 53.0687 56.4135L53.077 56.5822Z" fill="#673AB7"/>
<path d="M68.75 38.5394C68.75 45.8311 54.9604 58.3311 52.0833 58.3311H47.9167C45.0396 58.3311 31.25 45.8311 31.25 38.5394C31.25 35.6623 33.5812 33.3311 36.4583 33.3311H63.5417C66.4187 33.3311 68.75 35.6623 68.75 38.5394Z" fill="#673AB7"/>
<path d="M52.0837 16.6678C54.3848 16.6678 56.2503 14.8023 56.2503 12.5011C56.2503 10.2 54.3848 8.33447 52.0837 8.33447C49.7825 8.33447 47.917 10.2 47.917 12.5011C47.917 14.8023 49.7825 16.6678 52.0837 16.6678Z" fill="#7E57C2"/>
<path d="M43.7503 14.5856C44.9009 14.5856 45.8337 13.6529 45.8337 12.5023C45.8337 11.3517 44.9009 10.4189 43.7503 10.4189C42.5997 10.4189 41.667 11.3517 41.667 12.5023C41.667 13.6529 42.5997 14.5856 43.7503 14.5856Z" fill="#7E57C2"/>
<path d="M61.459 20.8345C63.1849 20.8345 64.584 19.4354 64.584 17.7095C64.584 15.9836 63.1849 14.5845 61.459 14.5845C59.7331 14.5845 58.334 15.9836 58.334 17.7095C58.334 19.4354 59.7331 20.8345 61.459 20.8345Z" fill="#7E57C2"/>
<path d="M62.5003 27.0856C63.6509 27.0856 64.5837 26.1529 64.5837 25.0023C64.5837 23.8517 63.6509 22.9189 62.5003 22.9189C61.3497 22.9189 60.417 23.8517 60.417 25.0023C60.417 26.1529 61.3497 27.0856 62.5003 27.0856Z" fill="#7E57C2"/>
<path d="M47.9163 22.9167C49.0669 22.9167 49.9997 21.9839 49.9997 20.8333C49.9997 19.6827 49.0669 18.75 47.9163 18.75C46.7657 18.75 45.833 19.6827 45.833 20.8333C45.833 21.9839 46.7657 22.9167 47.9163 22.9167Z" fill="#B39DDB"/>
<path d="M38.5417 18.7489C39.117 18.7489 39.5833 18.2825 39.5833 17.7072C39.5833 17.1319 39.117 16.6655 38.5417 16.6655C37.9664 16.6655 37.5 17.1319 37.5 17.7072C37.5 18.2825 37.9664 18.7489 38.5417 18.7489Z" fill="#B39DDB"/>
<path d="M55.2087 22.9144C55.784 22.9144 56.2503 22.448 56.2503 21.8727C56.2503 21.2974 55.784 20.8311 55.2087 20.8311C54.6334 20.8311 54.167 21.2974 54.167 21.8727C54.167 22.448 54.6334 22.9144 55.2087 22.9144Z" fill="#B39DDB"/>
<path d="M43.8311 42.0947C45.9206 40.0051 42.1394 40.4009 40.0498 38.3134C37.9602 36.2217 38.3561 32.4426 36.2686 34.5322" fill="#FFEB3B"/>
<path d="M43.8311 42.0947C45.9206 40.0051 42.1394 40.4009 40.0498 38.3134C37.9602 36.2217 38.3561 32.4426 36.2686 34.5322" stroke="#311B92" stroke-width="22" stroke-linecap="round"/>
<path d="M55.2374 42.0947C53.1457 40.0051 56.929 40.4009 59.0186 38.3134C61.1082 36.2217 60.7124 32.4426 62.7999 34.5322" fill="#FFEB3B"/>
<path d="M55.2374 42.0947C53.1457 40.0051 56.929 40.4009 59.0186 38.3134C61.1082 36.2217 60.7124 32.4426 62.7999 34.5322" stroke="#311B92" stroke-width="22" stroke-linecap="round"/>
<path d="M50.0001 64.5845C50.0001 64.5845 46.2522 91.1782 31.6855 93.5345C31.923 93.5032 32.1605 93.4866 32.398 93.4449C37.1085 92.6928 41.9918 90.1699 45.398 85.9761C46.2605 84.9491 47.0168 83.8303 47.6855 82.6616C48.023 82.1032 48.346 81.4282 48.6605 80.7616L49.021 80.0053L49.1085 79.8199L49.1522 79.7282L49.1626 79.7032L49.2085 79.5532L49.2293 79.5011L49.4043 79.0741C49.6543 78.4678 49.8605 77.8491 50.0855 77.2366C50.3105 77.8491 50.5168 78.4678 50.7668 79.0741L50.9418 79.5011L50.9626 79.5532L51.0085 79.7032L51.0189 79.7282L51.0626 79.8199L51.1501 80.0053L51.5105 80.7616C51.8251 81.4282 52.1501 82.1053 52.4855 82.6616C53.1564 83.8303 53.9126 84.9491 54.7751 85.9761C58.1397 90.1199 62.948 92.6241 67.6064 93.4095C53.6251 90.4595 50.0001 64.5845 50.0001 64.5845Z" fill="#311B92"/>
<path d="M42.4646 43.5917C44.5542 41.5021 40.773 41.898 38.6834 39.8105C36.5938 37.7188 36.9896 33.9397 34.9021 36.0292C32.8126 38.1188 32.8126 41.5042 34.9021 43.5938C36.9917 45.6834 40.3771 45.6813 42.4646 43.5917Z" fill="#FFEB3B"/>
<path d="M56.4293 43.5699C54.2231 41.3636 58.2106 41.7845 60.4168 39.5824C62.6189 37.3761 62.2002 33.3886 64.4043 35.5949C66.6064 37.797 66.6064 41.3657 64.4043 43.5699C62.1981 45.772 58.6314 45.772 56.4293 43.5699Z" fill="#FFEB3B"/>
<path d="M58.7275 40.7373C59.1025 41.2831 59.7025 41.6665 60.4171 41.6665C61.5692 41.6665 62.5005 40.7331 62.5005 39.5831C62.5005 38.8706 62.1171 38.2706 61.5713 37.8936C61.2796 38.4894 60.9171 39.0831 60.4171 39.5831C59.915 40.0831 59.3213 40.4456 58.7275 40.7373Z" fill="#263238"/>
<path d="M40.3773 40.9507C39.7836 40.6673 39.1836 40.3111 38.6815 39.809C38.1794 39.3069 37.8231 38.7069 37.5398 38.1152C36.9856 38.4902 36.5981 39.0923 36.5981 39.809C36.5981 40.959 37.5315 41.8923 38.6815 41.8923C39.4002 41.8923 40.0044 41.5069 40.3773 40.9507Z" fill="#263238"/>
<path d="M60.8556 76.806C60.8576 76.8102 60.8597 76.8164 60.8618 76.8206C60.8514 76.7914 60.8493 76.7789 60.8556 76.806Z" fill="#FF80AB"/>
<path d="M60.787 73.1731C60.7724 74.2898 60.7891 75.4064 60.8641 76.5106L60.8891 76.871L60.8912 76.9148C60.9287 77.0273 60.9558 77.1335 60.9995 77.2481C77.7808 85.3314 86.8495 70.7919 87.312 68.9189C76.5641 82.7127 63.1599 74.7544 60.787 73.1731Z" fill="#FF80AB"/>
<path d="M39.1934 77.3556C39.2018 77.3514 39.2101 77.3473 39.2205 77.3431C39.2393 77.291 39.2518 77.2389 39.2705 77.1868L39.2747 77.1431L39.2997 76.9389L39.3122 76.8368L39.3143 76.8098C39.3455 76.6931 39.2726 76.9535 39.2809 76.9243V76.9118L39.283 76.8681L39.3059 76.5056C39.3809 75.4243 39.3997 74.3285 39.3872 73.2327C36.7434 74.9077 23.5018 82.2598 12.9268 69.0098C18.9226 82.2035 33.7247 80.2514 39.1934 77.3556Z" fill="#FF80AB"/>
</svg>
