<svg width="100" height="100" viewBox="0 0 100 100" fill="none" xmlns="http://www.w3.org/2000/svg">
<path d="M45.8333 33.333V91.6663C45.8333 93.958 43.9583 95.833 41.6667 95.833C39.375 95.833 37.5 93.958 37.5 91.6663V33.333H45.8333ZM54.1667 33.333V91.6663C54.1667 93.958 56.0417 95.833 58.3333 95.833C60.625 95.833 62.5 93.958 62.5 91.6663V33.333H54.1667Z" fill="#558B2F"/>
<path d="M41.667 10.417C41.667 10.417 47.917 18.3337 47.917 28.1253C47.917 37.917 45.2087 45.8337 41.667 45.8337C38.1253 45.8337 35.417 37.917 35.417 28.1253C35.417 18.3337 41.667 10.417 41.667 10.417ZM52.0837 28.1253C52.0837 37.917 54.792 45.8337 58.3337 45.8337C61.8753 45.8337 64.5837 37.917 64.5837 28.1253C64.5837 18.3337 58.3337 10.417 58.3337 10.417C58.3337 10.417 52.0837 18.3337 52.0837 28.1253Z" fill="#1B5E20"/>
<path d="M54.167 33.333V91.6663C54.167 93.958 52.292 95.833 50.0003 95.833C47.7087 95.833 45.8337 93.958 45.8337 91.6663V33.333H54.167ZM62.5003 33.333V91.6663C62.5003 93.958 64.3753 95.833 66.667 95.833C68.9587 95.833 70.8337 93.958 70.8337 91.6663V33.333H62.5003ZM29.167 33.333V91.6663C29.167 93.958 31.042 95.833 33.3337 95.833C35.6253 95.833 37.5003 93.958 37.5003 91.6663V33.333H29.167Z" fill="#8BC34A"/>
<path d="M66.6663 4.16699C66.6663 4.16699 72.9163 12.0837 72.9163 21.8753C72.9163 31.667 70.208 39.5837 66.6663 39.5837C63.1247 39.5837 60.4163 31.667 60.4163 21.8753C60.4163 12.0837 66.6663 4.16699 66.6663 4.16699ZM27.083 21.8753C27.083 31.667 29.7913 39.5837 33.333 39.5837C36.8747 39.5837 39.583 31.667 39.583 21.8753C39.583 12.0837 33.333 4.16699 33.333 4.16699C33.333 4.16699 27.083 12.0837 27.083 21.8753ZM43.7497 21.8753C43.7497 31.667 46.458 39.5837 49.9997 39.5837C53.5413 39.5837 56.2497 31.667 56.2497 21.8753C56.2497 12.0837 49.9997 4.16699 49.9997 4.16699C49.9997 4.16699 43.7497 12.0837 43.7497 21.8753Z" fill="#689F38"/>
<path d="M35.4163 14.583C35.4163 15.833 34.583 16.6663 33.333 16.6663C32.083 16.6663 31.2497 15.833 31.2497 14.583C31.2497 13.333 33.333 8.33301 33.333 8.33301C33.333 8.33301 35.4163 13.333 35.4163 14.583ZM29.1663 14.583C29.1663 14.583 27.083 19.583 27.083 20.833C27.083 22.083 27.9163 22.9163 29.1663 22.9163C30.4163 22.9163 31.2497 22.083 31.2497 20.833C31.2497 19.583 29.1663 14.583 29.1663 14.583ZM37.4997 14.583C37.4997 14.583 35.4163 19.583 35.4163 20.833C35.4163 22.083 36.2497 22.9163 37.4997 22.9163C38.7497 22.9163 39.583 22.083 39.583 20.833C39.583 19.583 37.4997 14.583 37.4997 14.583ZM33.333 20.833C33.333 20.833 31.2497 25.833 31.2497 27.083C31.2497 28.333 32.083 29.1663 33.333 29.1663C34.583 29.1663 35.4163 28.333 35.4163 27.083C35.4163 25.833 33.333 20.833 33.333 20.833ZM27.9163 30.6247C28.333 32.4997 28.7497 34.1663 29.3747 35.4163C30.4163 35.4163 31.458 34.3747 31.458 33.333C31.458 32.083 29.3747 27.083 29.3747 27.083C29.3747 27.083 28.5413 28.958 27.9163 30.6247ZM37.4997 27.083C37.4997 27.083 35.4163 32.083 35.4163 33.333C35.4163 34.3747 36.2497 35.208 37.2913 35.4163C37.9163 33.958 38.333 32.2913 38.7497 30.4163C38.333 28.7497 37.4997 27.083 37.4997 27.083ZM33.333 33.333C33.333 33.333 31.2497 38.333 31.2497 39.583C31.2497 40.833 32.083 41.6663 33.333 41.6663C34.583 41.6663 35.4163 40.833 35.4163 39.583C35.4163 38.333 33.333 33.333 33.333 33.333ZM49.9997 8.33301C49.9997 8.33301 47.9163 13.333 47.9163 14.583C47.9163 15.833 48.7497 16.6663 49.9997 16.6663C51.2497 16.6663 52.083 15.833 52.083 14.583C52.083 13.333 49.9997 8.33301 49.9997 8.33301ZM45.833 14.583C45.833 14.583 43.7497 19.583 43.7497 20.833C43.7497 22.083 44.583 22.9163 45.833 22.9163C47.083 22.9163 47.9163 22.083 47.9163 20.833C47.9163 19.583 45.833 14.583 45.833 14.583ZM54.1663 14.583C54.1663 14.583 52.083 19.583 52.083 20.833C52.083 22.083 52.9163 22.9163 54.1663 22.9163C55.4163 22.9163 56.2497 22.083 56.2497 20.833C56.2497 19.583 54.1663 14.583 54.1663 14.583ZM49.9997 20.833C49.9997 20.833 47.9163 25.833 47.9163 27.083C47.9163 28.333 48.7497 29.1663 49.9997 29.1663C51.2497 29.1663 52.083 28.333 52.083 27.083C52.083 25.833 49.9997 20.833 49.9997 20.833ZM44.583 30.6247C44.9997 32.4997 45.4163 34.1663 46.0413 35.4163C47.083 35.4163 48.1247 34.3747 48.1247 33.333C48.1247 32.083 46.0413 27.083 46.0413 27.083C46.0413 27.083 45.208 28.958 44.583 30.6247ZM54.1663 27.083C54.1663 27.083 52.083 32.083 52.083 33.333C52.083 34.3747 52.9163 35.208 53.958 35.4163C54.583 33.958 54.9997 32.2913 55.4163 30.4163C54.9997 28.7497 54.1663 27.083 54.1663 27.083ZM49.9997 33.333C49.9997 33.333 47.9163 38.333 47.9163 39.583C47.9163 40.833 48.7497 41.6663 49.9997 41.6663C51.2497 41.6663 52.083 40.833 52.083 39.583C52.083 38.333 49.9997 33.333 49.9997 33.333ZM66.6663 8.33301C66.6663 8.33301 64.583 13.333 64.583 14.583C64.583 15.833 65.4163 16.6663 66.6663 16.6663C67.9163 16.6663 68.7497 15.833 68.7497 14.583C68.7497 13.333 66.6663 8.33301 66.6663 8.33301ZM62.4997 14.583C62.4997 14.583 60.4163 19.583 60.4163 20.833C60.4163 22.083 61.2497 22.9163 62.4997 22.9163C63.7497 22.9163 64.583 22.083 64.583 20.833C64.583 19.583 62.4997 14.583 62.4997 14.583ZM70.833 14.583C70.833 14.583 68.7497 19.583 68.7497 20.833C68.7497 22.083 69.583 22.9163 70.833 22.9163C72.083 22.9163 72.9163 22.083 72.9163 20.833C72.9163 19.583 70.833 14.583 70.833 14.583ZM66.6663 20.833C66.6663 20.833 64.583 25.833 64.583 27.083C64.583 28.333 65.4163 29.1663 66.6663 29.1663C67.9163 29.1663 68.7497 28.333 68.7497 27.083C68.7497 25.833 66.6663 20.833 66.6663 20.833ZM61.2497 30.6247C61.6663 32.4997 62.083 34.1663 62.708 35.4163C63.7497 35.4163 64.7913 34.3747 64.7913 33.333C64.7913 32.083 62.708 27.083 62.708 27.083C62.708 27.083 61.8747 28.958 61.2497 30.6247ZM70.833 27.083C70.833 27.083 68.7497 32.083 68.7497 33.333C68.7497 34.3747 69.583 35.208 70.6247 35.4163C71.2497 33.958 71.6663 32.2913 72.083 30.4163C71.6663 28.7497 70.833 27.083 70.833 27.083ZM66.6663 33.333C66.6663 33.333 64.583 38.333 64.583 39.583C64.583 40.833 65.4163 41.6663 66.6663 41.6663C67.9163 41.6663 68.7497 40.833 68.7497 39.583C68.7497 38.333 66.6663 33.333 66.6663 33.333Z" fill="#2E7D32"/>
<path d="M35.4167 54.167C35.4167 55.417 34.5833 56.2503 33.3333 56.2503C32.0833 56.2503 31.25 55.417 31.25 54.167C31.25 52.917 33.3333 47.917 33.3333 47.917C33.3333 47.917 35.4167 52.917 35.4167 54.167ZM50 47.917C50 47.917 47.9167 52.917 47.9167 54.167C47.9167 55.417 48.75 56.2503 50 56.2503C51.25 56.2503 52.0833 55.417 52.0833 54.167C52.0833 52.917 50 47.917 50 47.917ZM66.6667 47.917C66.6667 47.917 64.5833 52.917 64.5833 54.167C64.5833 55.417 65.4167 56.2503 66.6667 56.2503C67.9167 56.2503 68.75 55.417 68.75 54.167C68.75 52.917 66.6667 47.917 66.6667 47.917Z" fill="#558B2F"/>
</svg>
