<svg width="100" height="100" viewBox="0 0 100 100" fill="none" xmlns="http://www.w3.org/2000/svg">
<path d="M57.8 85.7998H42V79.7998H57.8V85.7998Z" fill="#1F9546"/>
<path d="M92.7699 30.7744C92.51 29.5337 84.8299 34.8568 84.2988 35.4728C84.1765 35.6147 84.0598 35.7565 83.9535 35.8992C82.8494 34.0055 83.2711 33.7032 82.9081 29.4216C82.7633 27.7295 82.4551 25.7342 80.8865 25.0836C79.8363 24.6507 78.7048 24.974 77.5684 25.2948C76.4852 25.6004 75.3996 25.9059 74.3743 25.5625C72.6891 24.9973 72.0452 23.0247 71.2211 21.4438C70.1717 19.4299 68.4817 17.7515 66.4553 16.7139C65.8975 18.3827 64.7861 20.2691 62.7396 19.9983C59.543 19.5871 59.6838 14.3454 56.2571 14.2793C53.6078 14.2245 53.9232 18.132 48.6737 18.2392H48.6704L48.6624 18.236C46.8927 17.608 46.7527 17.2234 46.0139 16.5986C44.9242 15.6788 43.8434 14.1688 42.2821 14.2003C38.8602 14.2664 38.9986 19.5065 35.8004 19.9241C33.7555 20.1901 32.6441 18.3069 32.0856 16.6365C30.0631 17.6725 28.3731 19.3509 27.3197 21.368C26.498 22.9456 25.8534 24.9183 24.1698 25.4851C23.1437 25.8301 22.0572 25.5246 20.9764 25.2174C19.84 24.895 18.7077 24.5741 17.6567 25.0086C14.4512 26.3308 16.1896 31.1509 15.6463 34.4038C14.778 33.5791 7.48188 28.5542 7.2324 29.7618C6.44774 33.5516 5.41679 38.5136 6.40667 42.3268C8.08705 48.794 11.3899 50.8094 11.3899 50.8094C12.2132 67.452 28.9188 80.7474 49.431 80.7998C70.3439 80.7998 86.627 67.4206 87.6893 51.2246C87.6893 51.2246 92.5623 47.3122 93.5932 43.3394C94.5839 39.5262 93.5505 34.5626 92.7699 30.7744Z" fill="#1F9546"/>
<path d="M78.7934 43.3227C80.1105 31.8848 68.1622 23.3725 57.0048 27.4249C55.1486 25.3472 52.2352 24.0002 48.9476 24.0002C45.9102 24.0002 43.1914 25.1503 41.3312 26.9652C30.519 24.1698 19.8661 32.2417 20.7793 42.8879C17.3863 45.3682 15.2002 49.2076 15.2002 53.5277C15.2002 61.2524 22.2171 67.6147 30.8714 67.0248C34.5516 72.5207 41.2677 76.2002 48.9476 76.2002C56.7232 76.2002 63.5092 72.4283 67.1581 66.819C76.2259 68.4474 84.6002 62.163 84.6002 53.8588C84.6002 49.55 82.3135 45.7355 78.7934 43.3227Z" fill="#AFB7C5"/>
<path d="M72.7963 42.1231C73.6284 34.8837 67.6361 28.7137 60.106 28.7137C58.4933 28.7137 56.9579 29.0092 55.537 29.5254C52.447 26.0474 46.4619 25.8687 43.1004 29.1606C42.0065 28.8772 40.8594 28.7137 39.6689 28.7137C32.2805 28.7137 26.2125 34.5865 26.8271 41.776C24.1358 43.7433 22.3999 46.7896 22.3999 50.2201C22.3999 56.3474 27.9637 61.3932 34.8195 60.9246C37.7348 65.2827 43.0593 68.2002 49.1459 68.2002C55.3074 68.2002 60.6851 65.2086 63.577 60.7595C70.7615 62.0519 77.3999 57.0681 77.3999 50.481C77.3999 47.0634 75.5875 44.0372 72.7963 42.1231Z" fill="#D1CAA7"/>
<path d="M65.4841 41.3641C66.0493 36.4706 61.9979 32.2958 56.9015 32.2958C55.8121 32.2958 54.7727 32.4938 53.813 32.8423C52.8179 31.7252 51.2551 31 49.4903 31C47.8583 31 46.3986 31.6197 45.4018 32.5976C44.6611 32.4053 43.8858 32.2958 43.0807 32.2958C38.08 32.2958 33.9795 36.2694 34.3958 41.1283C32.5746 42.4603 31.3999 44.5191 31.3999 46.8395C31.3999 50.9756 35.1582 54.4019 39.8135 54.0783C41.7868 57.0225 45.3753 59 49.4903 59C53.656 59 57.2855 56.9742 59.2419 53.9665C64.1065 54.847 68.5999 51.4706 68.5999 47.0158C68.5999 44.705 67.3729 42.6583 65.4841 41.3641Z" fill="#E3DEBB"/>
<path d="M91.7998 46.9999C90.617 56.6389 81.7693 73.516 72.8733 77.5957C69.109 79.3179 66.3728 79.4014 49.7998 81.3999C50.4686 75.9555 53.1299 70.4114 57.434 66.1743C59.6248 64.0047 62.1661 62.2962 64.9547 60.8809C72.203 57.1875 79.4658 56.1746 84.3944 53.5592C87.6157 51.8596 91.0021 48.0979 91.7998 46.9999Z" fill="#31B44A"/>
<path d="M49.8 81.3999C49.5386 81.3622 36.9017 79.8478 36.6298 79.8149C29.1398 78.9184 23.8783 78.1078 17.7122 69.2404C13.3015 62.9082 9.93105 55.5624 9 47.9999C9.41861 48.8651 12.3713 51.983 15.3345 53.5576L15.3754 53.5833C18.8838 55.4564 22.693 56.2197 27.9946 58.0896C33.9233 60.157 39.0011 62.6385 43.1095 67.1248C46.4439 70.758 48.6019 75.1689 49.4776 79.4561C49.5971 80.0123 49.7126 80.6864 49.8 81.3999Z" fill="#31B44A"/>
<path d="M64.975 66.3999C64.1632 66.3999 64.7558 65.0185 65.9289 63.9086C71.9036 58.2543 78.589 59.7546 84.0001 55.9999C80.3788 60.2994 73.4501 59.9438 69.2186 63.6354C66.8715 65.6845 65.5587 66.3999 64.975 66.3999Z" fill="#B4DDBD"/>
<path d="M38.0247 67.2002C37.441 67.2002 36.129 66.4985 33.7811 64.4887C29.5494 60.8685 22.6206 61.2166 19 57.0002C24.4056 60.6798 31.1007 59.2162 37.0708 64.7566C38.244 65.8452 38.8373 67.2002 38.0247 67.2002Z" fill="#B4DDBD"/>
<path d="M61.9998 38.4997C61.9998 40.2125 60.1652 41.6001 57.9002 41.6001C55.6345 41.6001 53.7998 40.2125 53.7998 38.4997C53.7998 36.7877 55.6345 35.4001 57.9002 35.4001C60.1652 35.4001 61.9998 36.7877 61.9998 38.4997Z" fill="white"/>
</svg>
