<svg width="100" height="100" viewBox="0 0 100 100" fill="none" xmlns="http://www.w3.org/2000/svg">
<path opacity="0.99" fill-rule="evenodd" clip-rule="evenodd" d="M42.0897 23.1442C40.585 24.46 39.5758 26.0877 39.0623 28.027C38.9652 28.5438 38.9326 29.0647 38.9647 29.5895C37.5395 30.4983 36.1072 31.4098 34.6678 32.3239C33.1951 31.3905 31.5676 30.9998 29.785 31.152C29.8313 30.8998 29.7662 30.7045 29.5897 30.5661C29.5314 29.236 29.6617 27.934 29.9803 26.6598C31.8293 22.8051 34.8893 21.21 39.16 21.8746C40.2367 22.0879 41.2133 22.5112 42.0897 23.1442Z" fill="#5FA945"/>
<path opacity="0.992" fill-rule="evenodd" clip-rule="evenodd" d="M51.465 23.1445C52.0646 23.743 52.5855 24.394 53.0275 25.0977C48.0533 25.7359 43.3658 27.2332 38.965 29.5899C38.933 29.065 38.9656 28.5442 39.0627 28.0274C39.5762 26.0881 40.5853 24.4604 42.09 23.1445C44.3262 21.767 46.735 21.409 49.3166 22.0703C50.0924 22.3279 50.8086 22.6861 51.465 23.1445Z" fill="#91C73C"/>
<path opacity="0.968" fill-rule="evenodd" clip-rule="evenodd" d="M62.5977 25.0983C61.1623 25.0887 59.7299 25.0236 58.3008 24.9029C56.5375 24.8678 54.7797 24.9328 53.0273 25.0983C52.5854 24.3945 52.0645 23.7436 51.4648 23.1451C53.9164 21.6805 56.5205 21.3875 59.2773 22.2662C60.7045 22.8475 61.8113 23.7914 62.5977 25.0983Z" fill="#5FAA45"/>
<path fill-rule="evenodd" clip-rule="evenodd" d="M58.3005 24.903C59.4277 25.6921 59.558 26.6361 58.6912 27.7351C45.1605 28.1339 34.6462 33.8956 27.1482 45.0202C22.9933 52.1349 21.1052 59.8173 21.4841 68.0671C20.3851 68.9339 19.4411 68.8036 18.6521 67.6765C18.6521 67.2208 18.6521 66.765 18.6521 66.3093C18.6521 65.5931 18.6521 64.8771 18.6521 64.1609C18.6223 62.1923 18.7526 60.2392 19.0427 58.3015C19.1477 57.3862 19.2779 56.4747 19.4334 55.5671C19.5933 55.1234 19.7234 54.6675 19.824 54.1999C21.1918 49.3163 23.3402 44.8241 26.2693 40.7234C28.7433 37.5984 31.5427 34.7989 34.6677 32.3249C36.1072 31.4109 37.5394 30.4993 38.9646 29.5905C43.3654 27.2339 48.0529 25.7366 53.0271 25.0984C54.7794 24.9329 56.5373 24.8679 58.3005 24.903Z" fill="#FED03B"/>
<path opacity="0.967" fill-rule="evenodd" clip-rule="evenodd" d="M75.6836 29.1992C72.3373 27.6069 68.8867 26.3699 65.332 25.4883C68.9744 24.1285 72.1318 24.8448 74.8047 27.6367C75.1518 28.1365 75.4447 28.6574 75.6836 29.1992Z" fill="#E1352C"/>
<path opacity="0.999" fill-rule="evenodd" clip-rule="evenodd" d="M58.3008 24.9031C59.7299 25.0238 61.1623 25.0888 62.5977 25.0984C63.5092 25.2287 64.4205 25.3587 65.332 25.489C68.8867 26.3707 72.3373 27.6076 75.6836 29.2C86.9047 35.2523 93.7732 44.5623 96.2891 57.1296C96.8432 61.2919 96.9082 65.4587 96.4844 69.6296C95.4871 72.3847 93.5666 74.1101 90.7227 74.8054C64.4207 74.9031 38.1186 74.9357 11.8164 74.9031C15.7529 74.091 18.0315 71.6822 18.6523 67.6765C19.4414 68.8037 20.3854 68.9339 21.4844 68.0671C21.1055 59.8173 22.9936 52.1349 27.1484 45.0203C34.6465 33.8957 45.1607 28.1339 58.6914 27.7351C59.5582 26.6361 59.4279 25.6921 58.3008 24.9031Z" fill="#F9A019"/>
<path opacity="0.976" fill-rule="evenodd" clip-rule="evenodd" d="M29.9805 26.6594C29.6619 27.9336 29.5316 29.2356 29.5898 30.5657C29.5656 31.2983 29.175 31.6889 28.418 31.7375C27.5572 30.4206 26.4504 29.379 25.0977 28.6125C26.7041 27.9069 28.3316 27.2559 29.9805 26.6594Z" fill="#EF6423"/>
<path opacity="0.993" fill-rule="evenodd" clip-rule="evenodd" d="M25.0973 28.613C26.4501 29.3794 27.5569 30.421 28.4177 31.738C27.5938 32.1837 26.8778 32.7697 26.2692 33.4958C24.0333 32.8884 22.5358 33.6697 21.777 35.8396C18.5841 36.0667 16.5008 37.6943 15.527 40.7224C14.7814 39.4943 14.2605 38.1921 13.9645 36.8162C13.7305 32.3328 15.7487 29.4357 20.0192 28.1248C21.7624 27.8919 23.4552 28.0546 25.0973 28.613Z" fill="#E0322C"/>
<path fill-rule="evenodd" clip-rule="evenodd" d="M29.5897 30.5657C29.7662 30.7042 29.8313 30.8995 29.785 31.1516C31.5676 30.9995 33.1951 31.3901 34.6678 32.3235C31.5428 34.7975 28.7434 37.5969 26.2694 40.7219C23.0535 40.1889 20.4494 41.2305 18.4569 43.8469C17.5434 43.6045 16.632 43.6045 15.7225 43.8469C15.5869 42.8108 15.5218 41.7692 15.5272 40.7219C16.5009 37.6938 18.5842 36.0663 21.7772 35.8391C21.6799 37.9872 22.6889 39.2243 24.8045 39.55C26.7938 39.3838 27.868 38.3096 28.0272 36.3274C27.9565 35.0543 27.3705 34.1104 26.2694 33.4954C26.8779 32.7692 27.594 32.1833 28.4178 31.7375C29.1748 31.6889 29.5654 31.2983 29.5897 30.5657Z" fill="#A65023"/>
<path fill-rule="evenodd" clip-rule="evenodd" d="M26.2696 33.4961C27.3708 34.1112 27.9567 35.0551 28.0274 36.3282C27.8682 38.3104 26.794 39.3846 24.8048 39.5508C22.6891 39.2251 21.6801 37.9879 21.7774 35.8399C22.5362 33.67 24.0337 32.8887 26.2696 33.4961Z" fill="#D16D27"/>
<path opacity="0.987" fill-rule="evenodd" clip-rule="evenodd" d="M13.9647 36.8157C14.2607 38.1917 14.7815 39.4938 15.5272 40.7219C15.5218 41.7692 15.5869 42.8108 15.7225 43.8469C14.5301 44.5383 13.9441 45.5799 13.9647 46.9719C11.0438 47.9278 9.48131 49.9461 9.27717 53.0266C6.1645 55.5815 5.38325 58.7065 6.93342 62.4016C6.62188 62.9456 6.42657 63.5315 6.34749 64.1594C6.08708 65.0709 6.08708 65.9823 6.34749 66.8938C7.12141 69.8694 9.042 71.4969 12.1092 71.7766C15.7612 71.6657 17.9422 69.8428 18.6522 66.3079C18.6522 66.7635 18.6522 67.2194 18.6522 67.675C18.0314 71.6807 15.7527 74.0895 11.8162 74.9016C7.3329 75.1356 4.43577 73.1174 3.12483 68.8469C1.99524 57.2752 5.12024 47.054 12.4998 38.1829C12.9627 37.687 13.4509 37.2313 13.9647 36.8157Z" fill="#EF6322"/>
<path fill-rule="evenodd" clip-rule="evenodd" d="M26.2695 40.7227C23.3404 44.8235 21.1919 49.3157 19.8242 54.1993C18.2536 52.9354 17.3421 51.3077 17.0898 49.3165C16.8747 47.312 17.3305 45.4891 18.457 43.8477C20.4496 41.2313 23.0537 40.1897 26.2695 40.7227Z" fill="#E0332C"/>
<path fill-rule="evenodd" clip-rule="evenodd" d="M65.5272 43.6523C66.9263 43.424 67.9353 43.9449 68.5546 45.2148C68.7173 47.3958 67.7083 48.4048 65.5272 48.2421C63.4519 46.7054 63.4519 45.1755 65.5272 43.6523Z" fill="#F57827"/>
<path fill-rule="evenodd" clip-rule="evenodd" d="M18.4571 43.8473C17.3306 45.4887 16.8748 47.3116 17.0899 49.3161C17.0899 49.5114 17.0899 49.7067 17.0899 49.902C16.5194 49.9444 15.9986 49.8143 15.5274 49.5114C14.5606 48.9459 14.0398 48.0997 13.9649 46.9723C13.9443 45.5803 14.5303 44.5387 15.7227 43.8473C16.6322 43.6049 17.5436 43.6049 18.4571 43.8473Z" fill="#F18938"/>
<path fill-rule="evenodd" clip-rule="evenodd" d="M13.9648 46.9719C14.0397 48.0993 14.5606 48.9456 15.5273 49.511C15.5111 52.4141 16.8132 54.4323 19.4336 55.5657C19.2781 56.4733 19.1479 57.3848 19.043 58.3C18.8493 58.2665 18.7191 58.3317 18.6523 58.4954C17.6523 56.2842 16.0247 55.6657 13.7695 56.6399C13.1084 57.1338 12.6527 57.7524 12.4023 58.4954C10.4611 57.2204 9.41943 55.3975 9.27734 53.0266C9.48148 49.9461 11.044 47.9278 13.9648 46.9719Z" fill="#A55023"/>
<path fill-rule="evenodd" clip-rule="evenodd" d="M17.09 49.3157C17.3423 51.3069 18.2538 52.9346 19.8244 54.1985C19.7238 54.6661 19.5937 55.1219 19.4337 55.5657C16.8134 54.4323 15.5113 52.4141 15.5275 49.511C15.9987 49.8139 16.5196 49.944 17.09 49.9016C17.09 49.7063 17.09 49.511 17.09 49.3157Z" fill="#D16D28"/>
<path fill-rule="evenodd" clip-rule="evenodd" d="M39.9414 49.9031C42.0248 50.0013 42.5455 50.9453 41.5039 52.7351C39.7305 53.363 38.9166 52.7445 39.0625 50.8796C39.2627 50.4525 39.5557 50.1269 39.9414 49.9031Z" fill="#F57927"/>
<path fill-rule="evenodd" clip-rule="evenodd" d="M78.0272 49.9023C79.4263 49.674 80.4353 50.1949 81.0546 51.4648C81.2173 53.6458 80.2083 54.6548 78.0272 54.4921C75.9519 52.9554 75.9519 51.4255 78.0272 49.9023Z" fill="#F57827"/>
<path fill-rule="evenodd" clip-rule="evenodd" d="M9.27743 53.0281C9.41952 55.399 10.4612 57.2218 12.4024 58.4968C12.4024 58.7572 12.4024 59.0177 12.4024 59.2781C10.0452 59.4142 8.22234 60.4558 6.93368 62.4031C5.38351 58.708 6.16476 55.583 9.27743 53.0281Z" fill="#E0332C"/>
<path fill-rule="evenodd" clip-rule="evenodd" d="M18.6523 58.496C18.7084 59.7733 18.3178 60.8802 17.4805 61.8163C14.727 63.0438 13.0343 62.1974 12.4023 59.2772C12.4023 59.0169 12.4023 58.7563 12.4023 58.496C12.6527 57.753 13.1084 57.1345 13.7695 56.6405C16.0247 55.6663 17.6523 56.2849 18.6523 58.496Z" fill="#D16D27"/>
<path fill-rule="evenodd" clip-rule="evenodd" d="M12.4023 59.2781C13.0343 62.1982 14.727 63.0447 17.4805 61.8171C17.8775 62.6111 18.2681 63.3923 18.6523 64.1609C18.6523 64.8771 18.6523 65.5931 18.6523 66.3093C17.9423 69.8443 15.7613 71.6671 12.1094 71.7781C9.04217 71.4984 7.12158 69.8708 6.34766 66.8953C8.03953 69.0958 9.895 69.2261 11.9141 67.2859C12.9624 64.9248 12.2788 63.3296 9.86328 62.5007C8.31385 62.2664 7.14197 62.8199 6.34766 64.1609C6.42674 63.533 6.62205 62.947 6.93359 62.4031C8.22225 60.4558 10.0452 59.4142 12.4023 59.2781Z" fill="#A55023"/>
<path fill-rule="evenodd" clip-rule="evenodd" d="M44.2384 59.2773C47.1359 59.147 48.4705 60.5142 48.2424 63.3789C47.1951 65.5138 45.6002 66.0673 43.4572 65.039C42.0091 63.8095 41.7162 62.3447 42.5783 60.6445C43.055 60.0675 43.6086 59.6119 44.2384 59.2773Z" fill="#F57927"/>
<path fill-rule="evenodd" clip-rule="evenodd" d="M19.043 58.3008C18.7528 60.2385 18.6226 62.1916 18.6523 64.1602C18.2681 63.3916 17.8775 62.6104 17.4805 61.8164C18.3178 60.8803 18.7084 59.7735 18.6523 58.4961C18.7191 58.3324 18.8493 58.2672 19.043 58.3008Z" fill="#DF372C"/>
<path fill-rule="evenodd" clip-rule="evenodd" d="M70.6055 62.4031C71.775 62.4351 72.0354 62.9234 71.3867 63.8679C70.1959 63.8966 69.9355 63.4083 70.6055 62.4031Z" fill="#F57A27"/>
<path fill-rule="evenodd" clip-rule="evenodd" d="M6.34765 66.8936C6.08724 65.9821 6.08724 65.0707 6.34765 64.1592C7.14197 62.8182 8.31384 62.2647 9.86328 62.4991C12.2788 63.328 12.9624 64.9231 11.9141 67.2842C9.895 69.2245 8.03953 69.0942 6.34765 66.8936Z" fill="#F08838"/>
</svg>
