<svg width="100" height="100" viewBox="0 0 100 100" fill="none" xmlns="http://www.w3.org/2000/svg">
<path d="M78.2444 37.2113C76.7666 33.1668 73.3999 30.3002 69.9666 28.2113H69.5999C70.711 21.4668 65.8999 18.1335 61.2222 15.4224L60.9888 15.5113C60.3777 13.7668 58.8888 11.9335 55.8999 10.4002C51.8999 8.36684 47.2333 6.54462 44.2222 3.28906C46.7222 7.73351 49.1666 12.7002 43.2444 15.2224C40.711 16.3335 36.9777 15.678 34.9999 17.9557C33.5444 19.6113 32.311 23.5113 33.0222 25.8335C28.111 25.978 25.6999 27.6891 24.7666 30.3668C23.8777 32.8668 23.9777 36.5557 25.4999 37.7002C25.4999 37.7002 18.5999 41.4113 22.1666 47.2557C26.2444 53.9224 38.8333 54.5335 45.9333 54.6224C55.211 54.7002 83.4444 51.4335 78.2444 37.2113Z" fill="#F4E6D0"/>
<path d="M78.6774 37.0225C77.1329 32.8225 73.6663 29.9002 70.1996 27.778H70.1218C70.1806 27.295 70.2103 26.809 70.2107 26.3225C70.2148 23.7308 69.2014 21.2411 67.3885 19.3891C65.6311 17.6399 63.6241 16.1609 61.4329 15.0002C61.3795 14.9648 61.3187 14.942 61.2552 14.9336C60.1754 12.7145 58.3395 10.9534 56.0774 9.9669C52.0774 7.90024 47.444 6.0669 44.544 2.92246C44.461 2.84102 44.3493 2.79541 44.2329 2.79541C44.1166 2.79541 44.0049 2.84102 43.9218 2.92246C43.829 2.99864 43.7667 3.10567 43.7463 3.224C43.7259 3.34232 43.7488 3.46404 43.8107 3.5669C45.1552 5.98912 46.444 8.51135 46.4329 10.5336C46.4329 12.2336 45.6552 13.6447 43.0996 14.7891C41.7233 15.2319 40.3045 15.5298 38.8663 15.678C37.2799 15.8124 35.7941 16.51 34.6774 17.6447C33.2207 19.5662 32.4115 21.9005 32.3663 24.3113C32.3648 24.6458 32.387 24.98 32.4329 25.3113C32.1996 25.3113 31.9774 25.3113 31.7552 25.3113C30.559 25.244 29.3651 25.4772 28.2821 25.9895C27.1992 26.5019 26.2617 27.2772 25.5552 28.2447C24.4068 29.9512 23.8025 31.9656 23.8218 34.0225C23.809 34.8656 23.929 35.7055 24.1774 36.5113C24.291 36.9072 24.4673 37.2824 24.6996 37.6225C24.0841 38.0227 23.5109 38.4844 22.9885 39.0002C22.2881 39.6267 21.72 40.3868 21.3174 41.2359C20.9148 42.085 20.6859 43.0059 20.644 43.9447C20.673 45.2211 21.0578 46.4641 21.7552 47.5336C23.9774 51.0669 28.2329 52.8891 32.8663 53.9002C37.1719 54.7305 41.548 55.1399 45.9329 55.1225H46.3885C53.0504 55.0262 59.6706 54.0511 66.0774 52.2225C69.3988 51.3304 72.531 49.8434 75.3218 47.8336C76.5196 47.0115 77.5076 45.9196 78.2062 44.6459C78.9048 43.3721 79.2946 41.9521 79.344 40.5002C79.3252 39.3111 79.0996 38.1343 78.6774 37.0225ZM35.344 18.2669C36.3319 17.3268 37.6169 16.7609 38.9774 16.6669C40.4887 16.5142 41.979 16.1975 43.4218 15.7225C46.244 14.5558 47.3996 12.6447 47.3885 10.5447C47.2722 8.75607 46.7638 7.01494 45.8996 5.44468C48.8329 7.6669 52.5663 9.21135 55.6885 10.8336C58.6107 12.3336 59.9996 14.0669 60.5551 15.6669C60.8605 16.5423 60.9553 17.4774 60.8317 18.3963C60.7082 19.3152 60.3698 20.1921 59.844 20.9558C57.0663 24.8002 51.5774 25.6447 45.6329 25.6336C41.8107 25.6336 37.8552 25.3002 34.3329 25.3002H33.3329C33.2649 24.9525 33.2314 24.599 33.2329 24.2447C33.2998 22.0884 34.0291 20.0051 35.3218 18.278L35.344 18.2669ZM26.3218 28.8891C26.9279 28.0315 27.7404 27.3406 28.6843 26.8804C29.6282 26.4201 30.6729 26.2053 31.7218 26.2558L34.344 26.3225C37.7885 26.3225 41.7774 26.6558 45.644 26.6558C51.6329 26.6558 57.4218 25.8891 60.5885 21.5891C61.1259 20.8263 61.5018 19.9617 61.6928 19.0484C61.8839 18.135 61.8862 17.1923 61.6996 16.278C63.5457 17.2786 65.2435 18.5314 66.744 20.0002C68.3794 21.6667 69.2934 23.9098 69.2885 26.2447C69.2896 26.8513 69.2413 27.457 69.144 28.0558C69.1547 28.1444 69.1547 28.2339 69.144 28.3225C68.5663 31.6558 65.1551 34.5002 60.1107 36.5113C54.2608 38.6654 48.0663 39.731 41.8329 39.6558C36.3726 39.711 30.9393 38.8817 25.744 37.2002C25.4402 36.9194 25.2241 36.5567 25.1218 36.1558C24.9119 35.4531 24.8107 34.7224 24.8218 33.9891C24.7997 32.1772 25.3222 30.4005 26.3218 28.8891ZM74.7663 47.1113C67.9218 52.5225 52.944 54.1669 46.3663 54.1558H45.9218C41.5931 54.1864 37.272 53.7881 33.0218 52.9669C28.5218 51.9891 24.4552 50.178 22.544 47.0336C21.9527 46.1261 21.6257 45.0719 21.5996 43.9891C21.6416 43.1857 21.843 42.3986 22.1921 41.6738C22.5412 40.9489 23.031 40.3007 23.6329 39.7669C24.0799 39.3338 24.5632 38.9398 25.0774 38.5891C25.2294 38.4577 25.3889 38.3353 25.5552 38.2225C30.8004 39.9027 36.281 40.7317 41.7885 40.678C48.1356 40.7574 54.4435 39.6729 60.3996 37.478C65.4218 35.4558 69.1107 32.5558 69.9996 28.778C73.3329 30.8225 76.4774 33.6002 77.8551 37.3891C78.2387 38.3938 78.4418 39.4583 78.4552 40.5336C78.4107 43.1447 77.0551 45.2669 74.7663 47.0669V47.1113Z" fill="#F4E0C1"/>
<path d="M63.4665 97.2228H36.5332C35.7325 97.2139 34.9617 96.9171 34.3619 96.3866C33.762 95.8561 33.3732 95.1275 33.2665 94.3339L28.7109 56.3228H71.2887L66.722 94.3339C66.6156 95.1256 66.2284 95.8528 65.6309 96.383C65.0333 96.9132 64.2653 97.2112 63.4665 97.2228Z" fill="#F5C476"/>
<path d="M52.8998 87.3333L57.2887 91.7221L61.6776 87.3333L57.2887 82.9444L52.8998 87.3333ZM49.9998 90.2555L45.5554 94.6333L48.1443 97.2221H51.7776L54.3665 94.6333L49.9998 90.2555ZM38.2776 87.3333L42.6665 91.7221L47.0554 87.3333L42.6665 82.9444L38.2776 87.3333ZM60.2109 79.9999L64.5998 84.4444L68.3776 80.6666L68.5109 79.5555L64.5998 75.6444L60.2109 79.9999ZM57.2887 77.0777L61.6776 72.6888L57.2887 68.2999L52.8998 72.6888L57.2887 77.0777ZM49.9998 75.6333L45.5554 79.9999L49.9998 84.4444L54.3665 79.9999L49.9998 75.6333ZM42.6665 77.0999L47.0554 72.711L42.6665 68.3221L38.2776 72.711L42.6665 77.0999ZM39.7443 79.9999L35.3554 75.611L31.4887 79.4777L31.6332 80.6555L35.3554 84.4444L39.7443 79.9999ZM70.6998 61.2666L71.2998 56.311H69.2998L67.522 58.0888L70.6998 61.2666ZM68.9887 65.3999L64.5998 61.011L60.2109 65.3999L64.5998 69.7888L68.9887 65.3999ZM57.2887 62.4777L61.6776 58.0888L59.8998 56.311H54.6776L52.8998 58.0888L57.2887 62.4777ZM54.3665 65.3999L49.9998 61.011L45.5554 65.3999L49.9998 69.7888L54.3665 65.3999ZM42.6665 62.4777L47.0554 58.0888L45.2776 56.311H40.0554L38.2776 58.0888L42.6665 62.4777ZM35.3554 69.7888L39.7443 65.3999L35.3554 61.011L30.9665 65.3999L35.3554 69.7888ZM30.6665 56.3221H28.7109L29.2998 61.2333L32.4332 58.0999L30.6665 56.3221Z" fill="#F0B85F"/>
<path d="M72.0664 56.3219H27.9331C26.431 56.3488 24.9794 55.7791 23.8965 54.7378C22.8135 53.6965 22.1874 52.2684 22.1553 50.7664L20.522 42.1108H79.4775L77.8442 50.7664C77.8121 52.2684 77.186 53.6965 76.103 54.7378C75.0201 55.7791 73.5685 56.3488 72.0664 56.3219Z" fill="#EEAF4B"/>
</svg>
