<svg width="100" height="100" viewBox="0 0 100 100" fill="none" xmlns="http://www.w3.org/2000/svg">
<path opacity="0.996" fill-rule="evenodd" clip-rule="evenodd" d="M65.5274 6.15137C60.319 6.15137 55.1108 6.15137 49.9024 6.15137C49.9024 9.27637 49.9024 12.4014 49.9024 15.5264C45.7358 15.5264 41.569 15.5264 37.4024 15.5264C35.9338 15.5895 34.9247 14.9384 34.375 13.5732C34.2448 10.7087 34.2448 7.84409 34.375 4.9795C34.7331 4.10059 35.3516 3.48209 36.2305 3.12403C45.3452 2.99381 54.4596 2.99381 63.5743 3.12403C64.9395 3.67364 65.5905 4.68276 65.5274 6.15137Z" fill="#55596D"/>
<path fill-rule="evenodd" clip-rule="evenodd" d="M65.5273 6.15332C65.56 8.62814 65.5273 11.1021 65.4297 13.5752C64.8801 14.9404 63.8709 15.5914 62.4023 15.5283C58.2357 15.5283 54.0689 15.5283 49.9023 15.5283C49.9023 12.4033 49.9023 9.27832 49.9023 6.15332C55.1107 6.15332 60.3189 6.15332 65.5273 6.15332Z" fill="#463C4B"/>
<path fill-rule="evenodd" clip-rule="evenodd" d="M37.4023 15.5283C41.5689 15.5283 45.7357 15.5283 49.9023 15.5283C54.0689 15.5283 58.2357 15.5283 62.4023 15.5283C62.4023 16.57 62.4023 17.6117 62.4023 18.6533C62.4023 20.7367 62.4023 22.8199 62.4023 24.9033C58.2357 24.9033 54.0689 24.9033 49.9023 24.9033C49.9023 22.8199 49.9023 20.7367 49.9023 18.6533C48.3398 18.6533 46.7773 18.6533 45.2148 18.6533C44.1732 18.6533 43.1314 18.6533 42.0898 18.6533C40.5273 18.6533 38.9648 18.6533 37.4023 18.6533C37.4023 17.6117 37.4023 16.57 37.4023 15.5283Z" fill="#50C3EB"/>
<path fill-rule="evenodd" clip-rule="evenodd" d="M37.4023 18.6533C38.9648 18.6533 40.5273 18.6533 42.0898 18.6533C42.0898 20.7367 42.0898 22.8199 42.0898 24.9033C40.5273 24.9033 38.9648 24.9033 37.4023 24.9033C37.4023 22.8199 37.4023 20.7367 37.4023 18.6533Z" fill="#9BD2EF"/>
<path fill-rule="evenodd" clip-rule="evenodd" d="M42.0898 18.6533C43.1314 18.6533 44.1732 18.6533 45.2148 18.6533C45.2148 20.7367 45.2148 22.8199 45.2148 24.9033C44.1732 24.9033 43.1314 24.9033 42.0898 24.9033C42.0898 22.8199 42.0898 20.7367 42.0898 18.6533Z" fill="#A5FFFE"/>
<path fill-rule="evenodd" clip-rule="evenodd" d="M45.2148 18.6533C46.7773 18.6533 48.3398 18.6533 49.9023 18.6533C49.9023 20.7367 49.9023 22.8199 49.9023 24.9033C48.3398 24.9033 46.7773 24.9033 45.2148 24.9033C45.2148 22.8199 45.2148 20.7367 45.2148 18.6533Z" fill="#9BD2EF"/>
<path fill-rule="evenodd" clip-rule="evenodd" d="M62.4023 18.6523C67.6902 17.6863 71.6291 19.5093 74.2187 24.121C74.8057 25.6287 75.0334 27.1912 74.9023 28.8085C73.7754 31.0974 72.0828 31.6507 69.8242 30.4687C69.3551 29.947 68.9645 29.3935 68.6523 28.8085C68.7078 26.6193 67.666 25.3497 65.5273 24.9999C64.4877 24.9025 63.4461 24.8699 62.4023 24.9023C62.4023 22.8189 62.4023 20.7357 62.4023 18.6523Z" fill="#99D1EF"/>
<path fill-rule="evenodd" clip-rule="evenodd" d="M37.4028 24.9033C38.9653 24.9033 40.5278 24.9033 42.0903 24.9033C42.0903 26.2705 42.0903 27.6377 42.0903 29.0049C43.1142 28.7258 44.1558 28.5305 45.2153 28.4189C45.2153 27.2471 45.2153 26.0752 45.2153 24.9033C46.7778 24.9033 48.3403 24.9033 49.9028 24.9033C49.9028 25.9449 49.9028 26.9867 49.9028 28.0283C53.6167 28.3244 55.6999 30.3102 56.1528 33.9854C56.0419 37.6373 54.219 39.8184 50.6841 40.5283C41.6149 40.7125 35.3974 45.0094 32.0317 53.4189C31.6464 54.6291 31.386 55.866 31.2505 57.1299C31.1528 68.2625 31.1202 79.3953 31.1528 90.5283C29.0694 90.5283 26.9862 90.5283 24.9028 90.5283C24.8702 79.135 24.9028 67.7416 25.0005 56.3486C25.4444 52.8684 26.5513 49.6131 28.3208 46.583C29.678 44.6395 31.1105 42.7516 32.6177 40.9189C32.6409 39.1869 31.8271 38.6334 30.1763 39.2588C25.8587 43.5635 23.1569 48.7393 22.0708 54.7861C21.7831 66.6947 21.6855 78.6088 21.7778 90.5283C20.7362 90.5283 19.6944 90.5283 18.6528 90.5283C18.6203 78.9396 18.6528 67.351 18.7505 55.7627C20.455 44.0701 26.6073 35.6717 37.2075 30.5674C37.4024 28.6838 37.4677 26.7959 37.4028 24.9033Z" fill="#F99F19"/>
<path fill-rule="evenodd" clip-rule="evenodd" d="M42.0898 24.9033C43.1314 24.9033 44.1732 24.9033 45.2148 24.9033C45.2148 26.0752 45.2148 27.2471 45.2148 28.4189C44.1553 28.5305 43.1137 28.7258 42.0898 29.0049C42.0898 27.6377 42.0898 26.2705 42.0898 24.9033Z" fill="#FED105"/>
<path opacity="0.998" fill-rule="evenodd" clip-rule="evenodd" d="M49.9028 24.9033C54.0694 24.9033 58.2362 24.9033 62.4028 24.9033C62.3379 26.7959 62.4032 28.6838 62.5981 30.5674C64.7208 31.5887 66.7391 32.7605 68.6528 34.083C69.5262 34.923 70.4377 35.7369 71.3872 36.5244C72.5329 37.8322 73.7047 39.1018 74.9028 40.333C78.3524 44.8926 80.4032 50.0359 81.0551 55.7627C81.1854 67.8721 81.1854 79.9814 81.0551 92.0908C80.4366 94.5322 78.9067 96.0621 76.4653 96.6807C58.7569 96.8109 41.0487 96.8109 23.3403 96.6807C21.4243 96.1639 20.0245 95.0244 19.1411 93.2627C18.7554 92.391 18.5927 91.4797 18.6528 90.5283C19.6944 90.5283 20.7362 90.5283 21.7778 90.5283C22.0883 91.9857 22.9348 92.409 24.3168 91.7979C24.6432 91.4379 24.8385 91.0148 24.9028 90.5283C26.9862 90.5283 29.0694 90.5283 31.1528 90.5283C43.6528 90.5283 56.1528 90.5283 68.6528 90.5283C68.6854 79.265 68.6528 68.0022 68.5551 56.7393C67.2502 49.6668 63.3114 44.6863 56.7387 41.7979C54.7764 41.0955 52.7581 40.6725 50.684 40.5283C54.219 39.8184 56.0419 37.6373 56.1528 33.9854C55.6999 30.3102 53.6167 28.3244 49.9028 28.0283C49.9028 26.9867 49.9028 25.9449 49.9028 24.9033Z" fill="#EF6423"/>
<path fill-rule="evenodd" clip-rule="evenodd" d="M68.6523 28.8096C68.9645 29.3945 69.3551 29.948 69.8242 30.4697C72.0828 31.6518 73.7754 31.0984 74.9023 28.8096C74.9023 32.6508 74.9023 36.4918 74.9023 40.333C73.7043 39.1018 72.5324 37.8322 71.3867 36.5244C70.4373 35.7369 69.5258 34.923 68.6523 34.083C68.6523 32.3252 68.6523 30.5674 68.6523 28.8096Z" fill="#52C2E9"/>
<path fill-rule="evenodd" clip-rule="evenodd" d="M24.9028 90.5276C24.8386 91.0142 24.6433 91.4372 24.3169 91.7972C22.9349 92.4083 22.0884 91.9851 21.7778 90.5276C21.6854 78.6081 21.7831 66.694 22.0708 54.7854C23.1569 48.7386 25.8587 43.5628 30.1763 39.2581C31.827 38.6327 32.6409 39.1862 32.6177 40.9183C31.1104 42.7509 29.678 44.6388 28.3208 46.5823C26.5513 49.6124 25.4444 52.8677 25.0005 56.3479C24.9028 67.7409 24.8702 79.1343 24.9028 90.5276Z" fill="#FED105"/>
<path fill-rule="evenodd" clip-rule="evenodd" d="M50.6841 40.5283C52.7581 40.6725 54.7765 41.0955 56.7388 41.7979C63.3115 44.6863 67.2503 49.6668 68.5552 56.7393C68.6529 68.0021 68.6855 79.265 68.6529 90.5283C56.1529 90.5283 43.6529 90.5283 31.1529 90.5283C31.1202 79.3953 31.1529 68.2625 31.2505 57.1299C31.3861 55.866 31.6464 54.6291 32.0318 53.4189C35.3974 45.0094 41.615 40.7125 50.6841 40.5283Z" fill="#D7E5EF"/>
<path fill-rule="evenodd" clip-rule="evenodd" d="M49.9024 49.9014C49.9024 60.8389 49.9024 71.7764 49.9024 82.7139C48.442 82.5881 47.5631 81.8069 47.2657 80.3701C47.1682 79.5916 47.1356 78.8104 47.168 78.0264C44.2375 78.059 41.3079 78.0264 38.379 77.9287C37.5272 77.494 37.2342 76.8104 37.5 75.878C38.2124 75.0026 38.9612 74.1563 39.7461 73.3389C37.9202 71.4805 36.1297 69.5924 34.375 67.6748C34.2448 65.7217 34.2448 63.7686 34.375 61.8155C34.5377 61.3922 34.8307 61.0992 35.254 60.9365C37.2071 60.8063 39.1602 60.8063 41.1133 60.9365C41.9858 61.6133 42.7995 62.3619 43.5547 63.1826C43.6198 60.6436 43.685 58.1045 43.75 55.5655C45.4042 53.7158 47.1295 51.9254 48.9258 50.1944C49.2237 49.9973 49.5493 49.8996 49.9024 49.9014Z" fill="#E1322D"/>
<path fill-rule="evenodd" clip-rule="evenodd" d="M49.9023 49.9033C50.2303 49.9799 50.5559 50.0775 50.8789 50.1963C52.6752 51.9273 54.4006 53.7178 56.0547 55.5674C56.1197 58.1064 56.185 60.6455 56.25 63.1846C57.0053 62.3639 57.8189 61.6152 58.6914 60.9385C60.7891 60.7572 62.8725 60.8223 64.9414 61.1338C65.176 61.3102 65.3389 61.5379 65.4297 61.8174C65.6109 63.915 65.5459 65.9984 65.2344 68.0674C63.4738 69.7955 61.7484 71.5533 60.0586 73.3408C60.7066 74.0865 61.3902 74.8027 62.1094 75.4893C62.4764 76.1338 62.4764 76.785 62.1094 77.4424C61.8807 77.7145 61.5877 77.8773 61.2305 77.9307C58.3016 78.0283 55.3719 78.0609 52.4414 78.0283C52.4738 79.007 52.4412 79.9836 52.3438 80.958C51.9289 82.0936 51.1152 82.6795 49.9023 82.7158C49.9023 71.7783 49.9023 60.8408 49.9023 49.9033Z" fill="#EF4B37"/>
</svg>
