<svg width="100" height="100" viewBox="0 0 100 100" fill="none" xmlns="http://www.w3.org/2000/svg">
<path d="M56.7 30.3999C82.86 30.3999 85.04 36.9356 85.04 36.9356C85.04 36.9356 89.4 45.6499 89.4 54.3642C89.4 70.0848 85.04 91.3999 56.7 91.3999C28.36 91.3999 24 70.0848 24 54.3642C24 45.6499 28.36 36.9356 28.36 36.9356C28.36 36.9356 30.54 30.3999 56.7 30.3999Z" fill="#795548"/>
<path d="M56.6999 28.2C41.0696 28.2 28.3999 32.5904 28.3999 38C28.3999 43.4117 41.0696 47.7999 56.6999 47.7999C72.3302 47.7999 84.9999 43.4117 84.9999 38C84.9999 32.5904 72.3302 28.2 56.6999 28.2Z" fill="#4E342E"/>
<path d="M80.5998 38.0284C79.1559 36.2675 70.9817 32.6001 56.6998 32.6001C42.4179 32.6001 34.2415 36.2675 32.7998 38.0284C34.2415 39.7894 42.4157 43.4567 56.6998 43.4567C59.426 43.4567 61.9272 43.3199 64.2056 43.0941L69.2101 46.7832C71.3094 50.5331 72.7686 55.8637 73.5375 61.8001C73.5419 61.7871 73.5441 61.774 73.5484 61.761C73.7079 60.0978 74.3326 50.4006 72.9302 43.4024C72.797 42.8292 72.679 42.2625 72.5305 41.6762L72.3164 41.7045C77.0086 40.5146 79.8134 38.9881 80.5998 38.0284Z" fill="#FAFAFA"/>
<path d="M72.3999 41.6001C74.3239 48.6593 73.5942 60.0192 73.4211 61.8348C73.8834 64.2236 74.1201 75.0935 74.0127 78.6001C75.0755 76.3097 76.158 72.4334 76.158 72.4334C76.3202 71.8603 79.6992 59.7545 77.4027 44.6255L72.3999 41.6001Z" fill="#3E2723"/>
<path d="M63.8951 43.0997L77.8511 16.9229L89.3998 12.7278L88.0221 8.6001L75.6506 13.0674C75.1217 13.2415 74.682 13.616 74.4187 14.108L58.7998 43.4001C60.6042 43.3544 62.3084 43.2521 63.8951 43.0997Z" fill="#FF1744"/>
<path d="M29.4789 35.1555C31.4061 36.8062 32.8039 37.9439 32.8039 37.9439C33.7445 39.0968 37.5617 41.0577 44.0476 42.2892C45.1676 39.9877 45.7998 37.4024 45.7998 34.6685C45.7998 25.0193 37.9664 17.2 28.2998 17.2C18.6332 17.2 10.7998 25.0193 10.7998 34.6685C10.7998 42.8569 16.4501 49.7112 24.0648 51.5999C24.7976 43.8636 28.4376 35.828 29.4789 35.1555Z" fill="#FFEB3B"/>
<path d="M56.6914 91.3945C53.1807 91.5646 49.6656 90.4111 46.5867 88.6034C43.4925 86.7826 40.7995 84.2009 38.8108 81.183C36.8003 78.1673 35.5182 74.7416 34.8597 71.2811C34.2098 67.814 34.1706 64.2815 34.8858 60.8711C35.9826 64.1768 36.9486 67.3386 38.1327 70.35C39.3211 73.3548 40.7384 76.1764 42.448 78.7778C45.8693 83.9959 50.588 88.2 56.6914 91.3945Z" fill="#5D4037"/>
<path d="M57.7818 67.5007C58.6693 69.5047 59.0924 71.513 59.3998 73.5191C59.6789 75.5274 59.7792 77.5335 59.7182 79.5374C59.6593 81.5413 59.4325 83.5474 59.0051 85.5427C58.5254 87.5161 58.0043 89.5767 56.6916 91.3953C56.1922 89.3041 55.7888 87.3525 55.5795 85.3529C55.3658 83.3665 55.2938 81.3843 55.3592 79.4C55.4225 77.4179 55.6209 75.4358 55.9807 73.4515C56.371 71.4672 56.8529 69.485 57.7818 67.5007Z" fill="#5D4037"/>
<path d="M30.5252 19.436H26.1641V34.6999H30.5252V19.436Z" fill="#FFFDE7"/>
<path d="M19.0945 22.3643L16.0112 25.4476L26.938 36.4201L30.0235 33.3368L19.0945 22.3643Z" fill="#FFFDE7"/>
<path d="M29.5198 35.1863C30.2917 35.8492 30.9742 36.4249 31.5193 36.8806H43.8809V32.5195H13.0806V36.8806H28.3445C28.5342 36.3006 29.0531 35.7337 29.5198 35.1863Z" fill="#FFFDE7"/>
<path d="M29.5198 35.1859C29.8381 35.4585 30.1369 35.7136 30.4225 35.9557L40.6799 25.4476L37.5944 22.3643L16.0112 43.9496L19.0945 47.0329L27.6009 38.5244C28.3445 36.6578 29.0728 35.7093 29.5198 35.1859Z" fill="#FFFDE7"/>
<path d="M14.0811 34.6685C14.0811 26.8404 20.4576 20.4753 28.2998 20.4753C36.1398 20.4753 42.5186 26.8404 42.5186 34.6685C42.5186 37.1644 41.8514 39.5008 40.7139 41.538C41.7311 41.8066 42.8423 42.0577 44.0454 42.2892C45.1676 39.9877 45.7998 37.4024 45.7998 34.6685C45.7998 25.0193 37.9664 17.2 28.2998 17.2C18.6332 17.2 10.7998 25.0193 10.7998 34.6685C10.7998 42.8569 16.4501 49.7112 24.0648 51.5999C24.172 50.4907 24.3295 49.3989 24.5307 48.3399C18.5151 46.6847 14.0811 41.1887 14.0811 34.6685Z" fill="#FFC107"/>
</svg>
