<svg width="100" height="100" viewBox="0 0 100 100" fill="none" xmlns="http://www.w3.org/2000/svg">
<path d="M75.4207 53.2601C77.3007 51.5401 78.8007 49.3934 79.7141 47.0134C79.7274 46.9668 79.7474 46.9268 79.7608 46.8801C79.8941 46.5201 80.0207 46.1601 80.1207 45.7934C81.694 40.4201 79.974 34.7268 75.8074 31.0201C72.054 27.6868 66.3141 27.4401 61.5807 29.1068C56.8474 30.7801 52.8741 34.0534 49.0141 37.2601C37.3007 47.0068 28.4341 56.6468 11.3474 50.0201C6.57475 48.1668 8.89672 52.8001 10.4761 54.8001C16.3607 62.2534 24.1807 64.7868 33.7541 65.6468C48.6074 66.9801 64.414 63.3334 75.4207 53.2601Z" fill="#ED4024"/>
<path d="M79.6473 35.8735L78.6406 34.1069L89.0007 27.5002C89.7073 27.0935 90.6073 27.3402 91.014 28.0469C91.4207 28.7535 91.1673 29.6535 90.4607 30.0602L79.6473 35.8735Z" fill="#74AF43"/>
<path d="M85.0408 41.2061C86.3541 41.0261 87.6075 40.3861 88.5275 39.2994L81.7074 33.5261L80.2074 24.7128C78.8008 24.9528 77.6142 25.7128 76.7942 26.7461L75.2208 23.9994C72.5541 25.5194 71.6275 28.9128 73.1475 31.5795L79.0341 41.8861C80.5541 44.5528 83.9475 45.4795 86.6142 43.9595L85.0408 41.2061Z" fill="#527836"/>
<path d="M76.8209 58.5932C76.8209 68.1399 69.0809 75.8799 59.5342 75.8799C49.9875 75.8799 42.2476 68.1399 42.2476 58.5932C42.2476 49.0532 49.9875 41.3132 59.5342 41.3132C69.0809 41.3132 76.8209 49.0532 76.8209 58.5932Z" fill="#B72825"/>
<path d="M74.0741 58.5928C74.0741 66.6261 67.5674 73.1328 59.5341 73.1328C51.5074 73.1328 44.9941 66.6261 44.9941 58.5928C44.9941 50.5661 51.5074 44.0595 59.5341 44.0595C67.5674 44.0595 74.0741 50.5661 74.0741 58.5928Z" fill="#EB8B29"/>
<path d="M64.4673 58.5997C64.4673 61.3197 62.2606 63.5264 59.5339 63.5264C56.8073 63.5264 54.6006 61.3197 54.6006 58.5997C54.6006 55.873 56.8073 53.6664 59.5339 53.6664C62.2606 53.6664 64.4673 55.873 64.4673 58.5997Z" fill="#FDB62A"/>
<path d="M61.5272 49.4266C61.5272 51.1866 60.6339 52.6133 59.5339 52.6133C58.4339 52.6133 57.5405 51.1866 57.5405 49.4266C57.5405 47.6599 58.4339 46.2333 59.5339 46.2333C60.6339 46.2333 61.5272 47.6599 61.5272 49.4266Z" fill="#FFD075"/>
<path d="M55.7539 50.0068C56.7873 51.4334 56.9073 53.1134 56.0206 53.7601C55.1273 54.4001 53.5673 53.7734 52.534 52.3468C51.5006 50.9201 51.3806 49.2401 52.2673 48.5934C53.154 47.9468 54.7139 48.5801 55.7539 50.0068Z" fill="#FFD075"/>
<path d="M51.4276 53.8672C53.1009 54.4139 54.1876 55.7006 53.8476 56.7472C53.5076 57.7939 51.8742 58.2006 50.1942 57.6539C48.5209 57.1139 47.4342 55.8206 47.7742 54.7739C48.1142 53.7339 49.7542 53.3272 51.4276 53.8672Z" fill="#FFD075"/>
<path d="M50.1943 59.5401C51.8743 58.9934 53.5076 59.4001 53.8476 60.4468C54.1876 61.4934 53.101 62.7801 51.4276 63.3267C49.7543 63.8667 48.1142 63.4601 47.7742 62.4134C47.4409 61.3734 48.521 60.0801 50.1943 59.5401Z" fill="#FFD075"/>
<path d="M52.534 64.8462C53.574 63.4195 55.1273 62.7862 56.0206 63.4329C56.9073 64.0795 56.7939 65.7595 55.7539 67.1862C54.7206 68.6129 53.154 69.2462 52.2673 68.5995C51.3806 67.9462 51.5006 66.2729 52.534 64.8462Z" fill="#FFD075"/>
<path d="M57.5474 67.7666C57.5474 66.0066 58.434 64.58 59.534 64.5733C60.634 64.5733 61.5274 66.0066 61.5274 67.7666C61.5274 69.5333 60.634 70.96 59.534 70.96C58.434 70.96 57.5474 69.5333 57.5474 67.7666Z" fill="#FFD075"/>
<path d="M63.3142 67.1866C62.2809 65.76 62.1609 64.08 63.0476 63.4333C63.9409 62.7866 65.5009 63.42 66.5342 64.8466C67.5742 66.2733 67.6942 67.9466 66.8009 68.6C65.9142 69.24 64.3542 68.6133 63.3142 67.1866Z" fill="#FFD075"/>
<path d="M67.641 63.3194C65.9676 62.7794 64.881 61.4861 65.221 60.4461C65.561 59.3994 67.1943 58.9928 68.8743 59.5394C70.5476 60.0794 71.6343 61.3728 71.2943 62.4128C70.9543 63.4594 69.321 63.8661 67.641 63.3194Z" fill="#FFD075"/>
<path d="M68.8743 57.6539C67.1943 58.2006 65.561 57.7939 65.221 56.7472C64.881 55.7006 65.9676 54.4139 67.641 53.8672C69.321 53.3272 70.9543 53.7272 71.2943 54.7739C71.6343 55.8206 70.5476 57.1139 68.8743 57.6539Z" fill="#FFD075"/>
<path d="M66.5342 52.3468C65.5009 53.7734 63.9409 54.4001 63.0476 53.7601C62.1609 53.1134 62.2809 51.4334 63.3142 50.0068C64.3542 48.5801 65.9142 47.9468 66.8009 48.5934C67.6876 49.2401 67.5742 50.9201 66.5342 52.3468Z" fill="#FFD075"/>
</svg>
