<svg width="100" height="100" viewBox="0 0 100 100" fill="none" xmlns="http://www.w3.org/2000/svg">
<path d="M52.4331 25.1682C52.4331 25.1682 48.1863 24.9549 44.494 26.3578C44.1935 24.8965 43.7994 23.8715 43.7994 23.8715C43.7994 23.8715 42.1627 24.5051 40.4243 25.7115C38.5024 21.962 34.7491 19.2352 34.7491 19.2352C34.7491 19.2352 33.9208 20.3762 33.0668 22.0883C28.953 19.133 23.6175 18.0001 23.6175 18.0001C23.6175 18.0001 21.4161 23.1005 21.3363 28.2561C19.3335 27.9229 17.8189 27.9365 17.8189 27.9365C17.8189 27.9365 17.8674 32.5664 19.8155 36.3038C17.8221 37.0133 16.3528 37.976 16.3528 37.976C16.3528 37.976 16.9615 38.8908 17.98 39.9829C14.6895 42.1696 12.4004 45.7409 12.4004 45.7409C12.4004 45.7409 15.5329 48.7401 19.2866 50.2101C18.4917 51.5755 18.088 52.6836 18.088 52.6836C18.088 52.6836 22.5961 54.3191 26.218 53.2205C29.8439 52.1244 30.3157 46.9944 30.3157 46.9944L36.4259 43.213L43.0592 40.4447C43.0592 40.4447 47.5246 43.0396 50.5224 40.7307C53.5202 38.4258 54.8004 33.8159 54.8004 33.8159C54.8004 33.8159 53.6628 33.5027 52.0854 33.3541C53.0652 29.4537 52.4331 25.1682 52.4331 25.1682Z" fill="#5A7132"/>
<path d="M67.8002 78.6002C67.8002 86.1119 62.069 92.2002 54.9986 92.2002C47.9313 92.2002 42.2002 86.1119 42.2002 78.6002C42.2002 71.0885 47.9313 65.0002 54.9986 65.0002C62.069 65.0002 67.8002 71.0885 67.8002 78.6002Z" fill="#454A7C"/>
<path d="M87.8002 66.3992C87.8002 73.9113 82.0717 80 75.0014 80C67.9319 80 62.2002 73.9113 62.2002 66.3992C62.2002 58.8879 67.9319 52.8 75.0014 52.8C82.0717 52.8 87.8002 58.8879 87.8002 66.3992Z" fill="#454A7C"/>
<path d="M80.5998 49.4C80.5998 56.9133 74.8237 63 67.7002 63C60.5759 63 54.7998 56.9133 54.7998 49.4C54.7998 41.8899 60.5759 35.8 67.7002 35.8C74.8237 35.8 80.5998 41.8899 80.5998 49.4Z" fill="#3C3F6D"/>
<path d="M52.2002 44.3999C52.1946 36.7099 53.9759 27.8658 58.2141 21.5336C57.0645 18.2757 57.9074 13.036 61.6405 9.96897C64.1674 7.89328 67.3723 7.29656 70.8067 8.22532C71.7523 8.48358 72.2486 9.54229 71.8757 10.4574L71.8471 10.5328C71.5268 11.3188 70.6776 11.7046 69.8602 11.4977C64.843 10.2208 61.3576 13.6888 61.1394 18.1033C65.4978 14.4516 71.1102 16.3067 71.8303 21.3804C72.2318 24.1892 70.8529 26.7301 68.3992 27.7014C65.5114 28.8467 62.2865 27.1471 60.189 24.7779C57.2406 29.9238 55.5724 36.9858 55.5788 44.3967L52.2002 44.3999ZM62.1877 21.8504C62.5168 23.4778 65.5145 25.195 67.1644 24.5373C70.6433 23.1602 67.15 15.9811 62.1877 21.8504Z" fill="#618E3D"/>
<path d="M51.8002 48.3996C51.8002 55.9111 46.0689 62 38.999 62C31.9315 62 26.2002 55.9111 26.2002 48.3996C26.2002 40.8889 31.9315 34.8 38.999 34.8C46.0689 34.8 51.8002 40.8889 51.8002 48.3996Z" fill="#1D204B"/>
<path d="M77.5998 70.701C77.5998 78.1563 71.8239 84.2002 64.6998 84.2002C57.5757 84.2002 51.7998 78.1563 51.7998 70.701C51.7998 63.245 57.5757 57.2002 64.6998 57.2002C71.8239 57.2002 77.5998 63.245 77.5998 70.701Z" fill="#1D204B"/>
<path d="M55.6 62.8991C55.6 70.3551 49.8687 76.3999 42.7988 76.3999C35.7313 76.3999 30 70.3551 30 62.8991C30 55.4431 35.7313 49.3999 42.7988 49.3999C49.8687 49.3999 55.6 55.4431 55.6 62.8991Z" fill="#3C3F6D"/>
<path d="M67.0002 51.9993C67.0002 59.5106 61.2257 65.6001 54.1006 65.6001C46.9763 65.6001 41.2002 59.5106 41.2002 51.9993C41.2002 44.488 46.9763 38.4001 54.1006 38.4001C61.2257 38.4001 67.0002 44.488 67.0002 51.9993Z" fill="#454A7C"/>
</svg>
