<svg width="100" height="100" viewBox="0 0 100 100" fill="none" xmlns="http://www.w3.org/2000/svg">
<path d="M31.4521 31.2496C27.2125 31.7954 21.2021 28.8537 20.85 24.5266C20.7042 22.7475 21.5167 20.9954 23.5125 20.8891C25.3042 20.7933 26.7771 22.5287 27.0896 19.8891C27.2688 18.3787 25.45 16.6996 26.7792 15.1912C29.5771 12.0204 32.4209 17.7975 35.0084 16.3954C36.7125 15.4704 35.0167 8.02872 38.2063 8.89747C38.9375 9.09747 39.0042 10.635 39.3938 11.185C40.523 12.7891 42.6021 13.3016 43.298 10.9933C43.7959 9.34122 43.075 7.78497 43.9084 6.1308C44.7459 4.47247 46.275 3.92039 48.1209 4.26205C50.9709 4.78497 49.7813 6.30997 50.4459 8.17872C50.6855 8.84539 51.7417 10.1933 52.5355 10.2641C53.7042 10.3683 54.2146 8.85163 55.2042 8.37455C58.5625 6.7558 57.248 10.1391 58.7188 11.2183C59.5521 11.8329 60.6584 10.7871 61.4855 11.1579C62.3792 11.5558 62.4521 13.3287 63.498 13.4433C64.3938 13.5433 66.248 11.5204 67.2 11.1641C68.7313 10.5933 71.15 10.2475 72.7021 10.9704C73.8896 11.5266 75.6875 13.6183 75.7209 14.9871C75.7542 16.3225 74.4709 17.2225 74.1167 18.5121C73.725 19.9391 73.7084 21.8516 75.5625 22.2537C76.6667 22.4912 77.4834 21.5496 78.6375 21.7475C80.3105 22.035 81.5438 25.1516 81.1855 26.5412C80.0125 31.0766 73.3292 33.7162 69.6813 33.335C66.1063 32.96 55.675 37.6683 52.0834 37.5391C44.5167 37.2641 42.248 30.81 34.6771 30.8579C32.9584 30.8641 33.1646 31.2683 31.4521 31.2496Z" fill="#8BC34A"/>
<path d="M62.5 45.8345C69.4036 45.8345 75 40.238 75 33.3345C75 26.4309 69.4036 20.8345 62.5 20.8345C55.5964 20.8345 50 26.4309 50 33.3345C50 40.238 55.5964 45.8345 62.5 45.8345Z" fill="#DCE775"/>
<path d="M62.5 22.9178C68.2437 22.9178 72.9167 27.5907 72.9167 33.3345C72.9167 39.0782 68.2437 43.7511 62.5 43.7511C56.7562 43.7511 52.0833 39.0782 52.0833 33.3345C52.0833 27.5907 56.7562 22.9178 62.5 22.9178ZM62.5 20.8345C55.5979 20.8345 50 26.4324 50 33.3345C50 40.2366 55.5979 45.8345 62.5 45.8345C69.4021 45.8345 75 40.2366 75 33.3345C75 26.4324 69.4021 20.8345 62.5 20.8345Z" fill="#2E7D32"/>
<path d="M41.667 43.75C48.5706 43.75 54.167 38.1536 54.167 31.25C54.167 24.3464 48.5706 18.75 41.667 18.75C34.7634 18.75 29.167 24.3464 29.167 31.25C29.167 38.1536 34.7634 43.75 41.667 43.75Z" fill="#FF3D00"/>
<path d="M37.0586 25C37.0586 25 32.4878 36.2542 45.8336 47.075" stroke="#FFEB3B" stroke-width="22"/>
<path d="M50.0004 16.6655C50.0004 16.6655 39.5837 22.9155 43.7504 39.5822" stroke="#FFEB3B" stroke-width="22"/>
<path d="M70.2306 29.2509V29.1655H73.6556C75.5473 29.1655 77.0827 30.6947 77.0827 32.5884L72.916 91.6655C72.916 92.8176 71.9848 93.7489 70.8327 93.7489H47.916C37.3285 87.4655 35.416 78.1614 35.416 65.1072C35.416 45.8384 51.1556 30.1489 70.2306 29.2509Z" fill="#FFC107"/>
<path d="M33.9351 29.2509V29.1655H30.5101C28.6184 29.1655 27.083 30.6947 27.083 32.5884L31.2497 91.6655C31.2497 92.8176 32.1809 93.7489 33.333 93.7489H50.9288C61.5163 87.4655 68.7497 78.1614 68.7497 65.1072C68.7497 45.8384 53.0101 30.1489 33.9351 29.2509Z" fill="#FFC107"/>
<path d="M56.0605 32.8718C54.6834 33.5343 53.3605 34.2906 52.0834 35.1135C62.0313 41.5239 68.75 52.5385 68.75 65.1052C68.75 78.1593 61.5167 87.4635 50.9292 93.7468H58.1334C67.3667 86.1677 72.9167 76.9552 72.9167 65.1072C72.9167 52.0656 66.2209 40.2447 56.0605 32.8718Z" fill="#FFA000"/>
<path d="M41.667 49.999C42.8187 49.999 43.7524 49.0653 43.7524 47.9135C43.7524 46.7618 42.8187 45.8281 41.667 45.8281C40.5152 45.8281 39.5815 46.7618 39.5815 47.9135C39.5815 49.0653 40.5152 49.999 41.667 49.999Z" fill="#F57C00"/>
<path d="M45.8333 56.248C46.9839 56.248 47.9167 55.3152 47.9167 54.1646C47.9167 53.014 46.9839 52.0813 45.8333 52.0813C44.6827 52.0813 43.75 53.014 43.75 54.1646C43.75 55.3152 44.6827 56.248 45.8333 56.248Z" fill="#F57C00"/>
<path d="M37.5 56.2521C38.6517 56.2521 39.5854 55.3185 39.5854 54.1667C39.5854 53.015 38.6517 52.0813 37.5 52.0813C36.3482 52.0813 35.4146 53.015 35.4146 54.1667C35.4146 55.3185 36.3482 56.2521 37.5 56.2521Z" fill="#F57C00"/>
</svg>
