<svg width="100" height="100" viewBox="0 0 100 100" fill="none" xmlns="http://www.w3.org/2000/svg">
<path d="M63.6167 63.0842C61.4792 63.0842 59.7667 62.5675 58.4479 61.5383C56.8271 60.2779 56.25 58.5133 56.25 57.2904H62.5C62.5 56.9363 62.4313 56.7092 62.2896 56.6113C62.3 56.6196 63.325 57.2467 66.9479 56.3425C73.225 54.7717 79.1667 41.0425 79.1667 36.4571C79.1667 33.405 78.6354 32.2425 78.1917 31.7988C77.8167 31.4279 77.1938 31.2342 76.0667 31.2529C70.8813 31.2529 65.3292 34.855 65.2729 34.8925L61.8062 29.6946C62.0937 29.5029 68.925 25.0029 76.0396 25.0029C76.0813 25.0029 76.1187 25.0029 76.1583 25.0029C78.8396 25.0029 81.0104 25.7967 82.5917 27.3613C85.1229 29.8696 85.4167 33.755 85.4167 36.4571C85.4167 42.7217 78.6625 59.8529 68.4667 62.4008C66.6521 62.8571 65.0396 63.0842 63.6167 63.0842Z" fill="#90CAF9"/>
<path d="M68.7497 47.9176C65.533 24.853 68.7497 18.7551 68.7497 16.6718C68.7497 16.6718 66.6663 14.5822 52.083 16.6655C37.6455 18.728 31.2497 10.4155 22.9163 10.4155C14.583 10.4155 14.583 14.5884 14.583 14.5884C20.833 20.8364 24.3559 23.2655 20.833 47.9176C16.6663 77.078 31.2497 87.4989 31.2497 87.4989C33.4955 89.9072 35.4163 89.5822 35.4163 89.5822H54.1663C54.1663 89.5822 55.7934 89.9072 58.333 87.4989C58.333 87.4989 72.8288 77.1634 68.7497 47.9176Z" fill="#90CAF9"/>
<path d="M32.811 83.3405H56.7797C59.5276 80.6947 67.7297 70.7572 64.6256 48.4926C63.911 43.3739 63.5193 39.0822 63.3235 35.4155H26.3068C26.136 39.0322 25.7006 43.3114 24.9589 48.5072C21.7922 70.6655 30.0089 80.6468 32.811 83.3405Z" fill="#FAFAFA"/>
</svg>
