<svg width="100" height="100" viewBox="0 0 100 100" fill="none" xmlns="http://www.w3.org/2000/svg">
<path d="M89.4 51.1206L67.7167 32.2623L48.8813 10.5498C38.2833 10.6811 26.2729 16.604 20.1646 22.8165C7.36876 35.8436 8.91668 59.4269 14.6375 72.3477C14.6563 72.3936 14.65 72.429 14.675 72.479C16.8646 77.0394 13.8917 83.0936 15.3771 84.6102C15.3875 84.6206 15.4 84.6269 15.4104 84.6373C15.4188 84.6477 15.425 84.6581 15.4354 84.6685C16.95 86.1581 22.9979 83.1811 27.5542 85.3727C27.6042 85.3977 27.6354 85.3894 27.6833 85.4061C40.5854 91.1373 64.1417 92.6873 77.1521 79.8769C83.3542 73.7581 89.2729 61.7331 89.4 51.1206Z" fill="#E65100"/>
<path d="M44.744 22.7793C42.4544 23.0355 39.7294 23.7959 37.3107 24.7438C34.8378 25.7084 32.4565 26.948 30.2315 28.4376C28.0565 29.9105 25.8003 31.7001 24.2232 33.6418C22.5378 35.6563 21.2065 38.0251 20.1565 40.5397C18.0732 45.5959 17.0982 51.1876 16.7148 56.7959C16.3565 62.4147 16.5336 68.1126 17.2898 73.7439C16.0523 68.1918 15.3794 62.498 15.2524 56.7605C15.1586 51.0314 15.6378 45.1959 17.4086 39.5397C18.3107 36.723 19.5503 33.9543 21.3065 31.4397C23.1482 28.8293 25.2149 26.8334 27.5357 24.8584C29.8482 22.9313 32.3815 21.2563 35.0794 19.8647C37.8294 18.4751 40.5107 17.3418 43.819 16.6001L44.744 22.7793Z" fill="#D84315"/>
<path d="M51.2815 34.6624C47.4315 35.8041 43.3502 37.7645 39.7877 40.1124C37.9877 41.3062 36.2711 42.6145 34.6773 44.0957C33.169 45.5062 31.7481 47.1957 30.494 48.977C27.969 52.5645 25.9606 56.602 24.2877 60.7791C22.6273 64.9666 21.2648 69.3041 20.2856 73.7436C20.7523 69.2166 21.6127 64.7187 22.8044 60.2832C24.0169 55.8562 25.5836 51.477 27.8377 47.3312C28.9752 45.252 30.2648 43.2728 31.8731 41.377C33.4169 39.5749 35.1481 37.902 36.9731 36.3645C40.6877 33.2916 44.6044 30.7499 49.2773 28.7437L51.2815 34.6624Z" fill="#D84315"/>
<path d="M59.9918 44.4222L21.7876 78.2534L55.5689 40.0034L59.9918 44.4222Z" fill="#D84315"/>
<path d="M83.3648 56.1865C82.6273 59.4927 81.4981 62.1719 80.1106 64.924C78.7231 67.6219 77.0523 70.1594 75.1315 72.474C73.1586 74.799 71.1752 76.8656 68.5648 78.7135C66.0544 80.4719 63.2877 81.7177 60.4752 82.624C54.8211 84.4031 48.9898 84.8844 43.2606 84.7906C37.5252 84.6677 31.8356 83.9927 26.2856 82.7552C31.9148 83.5115 37.6106 83.6906 43.2273 83.3281C48.8294 82.9427 54.419 81.9656 59.4711 79.876C61.9815 78.824 64.344 77.4885 66.3565 75.801C68.2898 74.2198 70.0773 71.9594 71.544 69.7823C73.0315 67.5552 74.2648 65.1719 75.2273 62.699C76.1711 60.2802 76.9294 57.5531 77.1836 55.2656L83.3648 56.1865Z" fill="#D84315"/>
<path d="M71.238 50.7187C69.238 55.3896 66.6984 59.3083 63.6359 63.0271C62.1025 64.8521 60.4317 66.5875 58.6338 68.1333C56.74 69.7437 54.763 71.0375 52.688 72.175C48.5463 74.4354 44.1692 76.0083 39.7442 77.2208C35.313 78.4167 30.815 79.2833 26.29 79.75C30.7275 78.7687 35.065 77.4042 39.2484 75.7396C43.4213 74.0625 47.4546 72.05 51.038 69.5229C52.8171 68.2687 54.5025 66.8417 55.9109 65.3354C57.388 63.7354 58.6921 62.0187 59.8838 60.2167C62.2255 56.6521 64.1817 52.5687 65.3192 48.7188L71.238 50.7187Z" fill="#D84315"/>
<path d="M24.5105 75.7322C20.6126 71.8947 16.473 69.0697 12.9668 67.6343C13.3772 69.3197 13.9314 70.953 14.6397 72.5134C14.648 72.5384 14.6439 72.5572 14.6543 72.5843C16.898 78.3739 13.921 83.1801 15.4355 84.6676C16.9501 86.1572 22.998 83.1801 27.5543 85.3718C27.6043 85.3968 27.6355 85.3884 27.6835 85.4051C29.298 86.1218 30.9835 86.6864 32.7335 87.0989C31.2668 83.6489 28.4043 79.5634 24.5105 75.7322Z" fill="#FB8C00"/>
<path d="M88.9127 56.314C91.596 44.2931 85.4252 34.0473 75.9064 24.439L56.2627 44.1077C58.0814 44.0265 66.5856 45.5848 66.5856 54.4431C72.0981 51.691 76.9085 52.966 81.3314 60.3494C84.2606 53.4556 88.9127 56.314 88.9127 56.314Z" fill="#FB8C00"/>
<path d="M43.9687 10.9932C56.2604 8.67024 66.3125 14.9077 75.9041 24.439L56.2604 44.1077C56.3416 42.2869 54.7854 33.7702 45.9375 33.7702C48.6875 28.2494 47.4125 23.4369 40.0396 19.0057C46.925 16.0765 43.9687 10.9932 43.9687 10.9932Z" fill="#FB8C00"/>
<path d="M65.6705 32.2166C68.3135 34.8603 71.3762 36.0835 72.5113 34.9487C73.6464 33.814 72.4241 30.7509 69.7811 28.1072C67.1381 25.4635 64.0754 24.2402 62.9403 25.375C61.8052 26.5098 63.0275 29.5729 65.6705 32.2166Z" fill="#EF6C00"/>
</svg>
