<svg width="100" height="100" viewBox="0 0 100 100" fill="none" xmlns="http://www.w3.org/2000/svg">
<g clip-path="url(#clip0_190_2784)">
<path opacity="0.983" fill-rule="evenodd" clip-rule="evenodd" d="M72.9498 23.3404C73.0148 23.3404 73.08 23.3404 73.1451 23.3404C73.1906 23.6454 73.3208 23.9058 73.5357 24.1216C66.2874 20.3755 58.6703 19.4314 50.6841 21.2896C37.5206 25.1423 28.3734 33.4431 23.2427 46.1919C19.8509 55.6849 20.6322 64.7995 25.5865 73.5357C26.6189 75.056 27.7583 76.4884 29.0044 77.8325C28.2394 77.4591 27.5234 77.0034 26.856 76.4654C26.856 76.3351 26.791 76.27 26.6607 76.27C26.6607 76.1398 26.5957 76.0747 26.4654 76.0747C25.5539 75.0331 24.5773 74.0566 23.5357 73.145C23.5357 73.0148 23.4707 72.9497 23.3404 72.9497C18.2793 66.3142 16.2936 58.8271 17.3833 50.4888C19.7007 37.4347 26.6343 27.7017 38.1841 21.2896C46.0685 17.1591 54.3369 16.1174 62.9888 18.1646C66.7078 19.1772 70.0281 20.9025 72.9498 23.3404Z" fill="#99DBFE"/>
<path fill-rule="evenodd" clip-rule="evenodd" d="M77.2461 22.5586C78.6779 23.1289 80.1752 23.552 81.7383 23.8281C79.899 24.8129 78.0109 25.6918 76.0742 26.4648C75.2279 25.6836 74.3814 24.9023 73.5352 24.1211C73.3203 23.9053 73.19 23.6449 73.1445 23.3398C74.1035 21.4807 75.0475 19.5926 75.9766 17.6758C76.2287 19.3713 76.6518 20.9988 77.2461 22.5586Z" fill="#AFA0EA"/>
<path opacity="0.996" fill-rule="evenodd" clip-rule="evenodd" d="M73.5354 24.1209C74.3817 24.9021 75.2281 25.6834 76.0744 26.4646C76.0744 26.5949 76.1395 26.66 76.2698 26.66C76.2698 26.7902 76.3348 26.8553 76.4651 26.8553C81.1473 33.0141 83.1328 39.9801 82.4221 47.7537C80.6451 60.9807 74.0371 70.9742 62.5979 77.7342C53.3547 82.9295 43.7192 83.8408 33.6916 80.4685C31.9649 79.8344 30.4024 78.9555 29.0041 77.8318C27.758 76.4877 26.6186 75.0553 25.5862 73.535C20.6319 64.7988 19.8506 55.6842 23.2424 46.1912C28.3731 33.4424 37.5203 25.1416 50.6838 21.2889C58.6699 19.4307 66.2871 20.3748 73.5354 24.1209Z" fill="#BDE4FE"/>
<path opacity="0.979" fill-rule="evenodd" clip-rule="evenodd" d="M99.3164 21.5824C97.633 23.6244 95.6799 25.3498 93.457 26.7582C92.4531 27.2013 91.4115 27.5267 90.332 27.7347C87.9307 28.0296 85.5219 28.0947 83.1055 27.93C80.8754 27.6597 78.6619 27.3017 76.4648 26.8558C76.3346 26.8558 76.2695 26.7908 76.2695 26.6605C76.1393 26.6605 76.0742 26.5955 76.0742 26.4652C78.0109 25.6921 79.899 24.8132 81.7383 23.8285C80.1752 23.5523 78.6779 23.1293 77.2461 22.5589C79.0479 21.6638 80.8709 20.7849 82.7148 19.9222C84.6354 19.499 85.3842 20.2478 84.9609 22.1683C84.098 22.7138 83.2191 23.2345 82.3242 23.7308C84.3727 24.2482 86.4559 24.5086 88.5742 24.5121C92.5055 24.722 96.0861 23.7455 99.3164 21.5824Z" fill="#C5B9EF"/>
<path fill-rule="evenodd" clip-rule="evenodd" d="M64.5509 36.2305C57.9749 31.7989 51.0087 31.1153 43.6525 34.1798C37.4115 37.4452 33.6679 42.5559 32.422 49.5118C31.9521 53.1551 32.4078 56.6708 33.7892 60.0587C34.5085 61.6292 35.3224 63.1264 36.2306 64.5508C31.0083 59.4632 28.9576 53.2784 30.0783 45.9962C32.1066 37.5225 37.3474 32.2165 45.8009 30.0782C51.7445 29.0469 57.1482 30.284 62.0119 33.7891C62.9564 34.5059 63.8027 35.3196 64.5509 36.2305Z" fill="#E7E8E8"/>
<path fill-rule="evenodd" clip-rule="evenodd" d="M64.551 36.2297C69.817 42.1434 71.2168 48.9143 68.7502 56.5422C64.8254 65.9133 57.7616 70.3079 47.5588 69.7258C43.2041 69.2079 39.4282 67.4825 36.2307 64.5501C35.3225 63.1256 34.5086 61.6284 33.7893 60.0579C32.4078 56.67 31.9522 53.1543 32.4221 49.511C33.668 42.5551 37.4115 37.4444 43.6526 34.179C51.0088 31.1145 57.975 31.7981 64.551 36.2297Z" fill="#F7F6F6"/>
<path fill-rule="evenodd" clip-rule="evenodd" d="M45.4104 33.8862C46.1315 33.7829 46.7499 33.9782 47.2659 34.4721C47.5862 35.2323 47.8465 36.0135 48.0471 36.8159C48.7307 36.002 49.4143 35.1883 50.0979 34.3745C52.0897 34.0948 52.7733 34.9086 52.1487 36.8159C51.02 38.1055 50.0108 39.4727 49.1213 40.9174C49.586 42.8432 50.1395 44.7311 50.7815 46.5815C52.1487 45.2143 53.5159 43.8471 54.8831 42.4799C54.8581 40.6829 54.6952 38.8924 54.3948 37.1088C54.9799 35.1944 55.9891 34.9665 57.4221 36.4252C57.4784 37.4215 57.6413 38.3981 57.9104 39.3549C58.4678 38.8299 59.0538 38.3417 59.6682 37.8901C61.3934 37.5321 62.077 38.2157 61.719 39.9409C61.2379 40.6176 60.6846 41.236 60.0588 41.7963C61.0375 41.9106 62.0141 42.0407 62.9885 42.187C64.4489 43.0991 64.5141 44.0756 63.1838 45.1167C61.1487 45.1303 59.1303 45.0001 57.1292 44.726C55.6969 46.1583 54.2645 47.5907 52.8323 49.0229C54.7131 49.5418 56.6012 50.0301 58.4963 50.4877C58.9438 50.4639 59.3344 50.3012 59.6682 49.9995C60.8401 49.0879 62.012 48.1766 63.1838 47.2651C64.9961 47.0571 65.6797 47.8059 65.2346 49.5112C64.4389 50.218 63.625 50.9016 62.7932 51.562C63.6428 51.8567 64.4891 52.1823 65.3323 52.5385C65.9223 53.4911 65.792 54.3374 64.9416 55.0776C64.0442 55.1821 63.1653 55.0844 62.3049 54.7846C62.2073 54.8497 62.1096 54.9149 62.012 54.9799C62.4776 55.878 62.8032 56.8219 62.9885 57.812C62.7528 59.1487 61.9715 59.6043 60.6448 59.1792C60.4821 59.0165 60.3192 58.8536 60.1565 58.6909C59.4581 56.9692 58.7094 55.2766 57.9104 53.6127C55.9524 53.001 53.9993 52.5454 52.051 52.2456C52.6344 54.1237 53.1879 56.0116 53.7112 57.9096C55.3336 58.737 56.9938 59.4858 58.6917 60.1557C59.5149 61.1241 59.4497 62.0356 58.4963 62.8901C57.2885 62.9243 56.1491 62.6313 55.0784 62.0112C54.9807 62.0762 54.8831 62.1415 54.7854 62.2065C55.1333 63.0909 55.2309 64.0024 55.0784 64.9409C54.2487 65.8776 53.3698 65.9428 52.4417 65.1362C52.2081 64.3317 51.9151 63.5504 51.5627 62.7924C50.9024 63.6243 50.2188 64.4381 49.512 65.2338C48.2272 65.6971 47.4459 65.2415 47.1682 63.8667C47.8901 62.3276 48.8342 60.928 50.0002 59.6674C50.2557 59.3483 50.4186 58.9901 50.4885 58.5932C50.1065 56.6418 49.6182 54.7213 49.0237 52.8315C47.6565 54.1987 46.2893 55.5659 44.9221 56.9331C45.0356 59.0786 45.1006 61.227 45.1174 63.3784C44.2059 64.42 43.2946 64.42 42.3831 63.3784C42.1155 62.2866 41.9202 61.1797 41.7971 60.0581C41.2368 60.6838 40.6184 61.2372 39.9417 61.7182C38.0729 61.8668 37.4543 61.053 38.0862 59.2768C38.545 58.7852 39.0333 58.3295 39.551 57.9096C38.4413 57.6747 37.3344 57.4467 36.2307 57.226C35.5233 56.4444 35.4581 55.5981 36.0354 54.687C36.4327 54.4905 36.8557 54.3928 37.3049 54.394C39.0288 54.6463 40.7542 54.809 42.4807 54.8823C43.8833 53.5124 45.2504 52.1126 46.5823 50.6831C44.7823 50.0885 42.9594 49.5676 41.1135 49.1206C39.4815 50.0647 37.919 51.1389 36.426 52.3432C34.7338 52.5385 34.0502 51.7897 34.3752 50.0971C35.1983 49.3389 36.0772 48.6553 37.012 48.0463C36.3043 47.8206 35.5883 47.6252 34.8635 47.4604C33.5793 46.4579 33.5793 45.4813 34.8635 44.5307C35.8135 44.4422 36.725 44.6051 37.5979 45.019C37.6629 44.954 37.7282 44.8887 37.7932 44.8237C37.3198 43.8448 36.9292 42.8356 36.6213 41.7963C36.7276 40.9088 37.2159 40.4206 38.0862 40.3315C38.6358 40.3135 39.0915 40.5088 39.4534 40.9174C40.2315 42.6696 41.0454 44.3948 41.8948 46.0932C43.7782 46.6129 45.6663 47.1012 47.5588 47.5581C47.129 45.5913 46.6407 43.6381 46.094 41.6987C44.3721 40.9508 42.6467 40.202 40.9182 39.4526C40.0825 38.4696 40.1475 37.5581 41.1135 36.7182C42.4368 36.726 43.6737 37.084 44.8245 37.7924C44.925 37.2735 44.8274 36.7528 44.5315 36.2299C44.2334 35.2024 44.5264 34.4211 45.4104 33.8862Z" fill="#C5B9EF"/>
<path opacity="0.987" fill-rule="evenodd" clip-rule="evenodd" d="M23.3398 72.9492C23.4701 72.9492 23.5352 73.0143 23.5352 73.1445C21.7086 74.016 19.8857 74.9275 18.0664 75.8789C19.5896 76.3076 21.0871 76.7635 22.5586 77.2461C20.6996 77.9641 18.8767 78.7779 17.0898 79.6875C15.2446 80.5248 14.3006 79.9715 14.2578 78.0273C14.411 77.6785 14.6389 77.3855 14.9414 77.1484C15.8112 76.8113 16.6575 76.4207 17.4805 75.9766C12.8137 74.9373 8.19131 75.0674 3.61328 76.3672C2.75656 76.7955 1.9102 77.2188 1.07422 77.6367C2.55379 75.8639 4.24648 74.334 6.15234 73.0469C8.51486 72.1271 10.9563 71.6389 13.4766 71.582C16.7969 71.7408 20.0848 72.1965 23.3398 72.9492Z" fill="#C5B9EF"/>
<path fill-rule="evenodd" clip-rule="evenodd" d="M23.5352 73.1445C24.5768 74.0561 25.5533 75.0326 26.4648 76.0742C25.6918 78.0109 24.8129 79.899 23.8281 81.7383C23.5516 80.173 23.1283 78.6756 22.5586 77.2461C21.0871 76.7635 19.5896 76.3076 18.0664 75.8789C19.8857 74.9275 21.7086 74.016 23.5352 73.1445Z" fill="#AFA0EA"/>
<path opacity="0.993" fill-rule="evenodd" clip-rule="evenodd" d="M22.5586 77.2464C21.5326 79.2841 20.6211 81.3675 19.8242 83.4964C19.9734 84.9087 20.7547 85.397 22.168 84.9613C22.7459 84.0333 23.2994 83.0894 23.8281 82.1292C24.6443 86.088 24.7094 90.0595 24.0234 94.0433C23.5193 95.962 22.7055 97.7199 21.582 99.3167C21.4518 99.512 21.3217 99.7074 21.1914 99.9027C20.6705 99.9027 20.1498 99.9027 19.6289 99.9027C17.5135 96.8488 14.6489 94.798 11.0352 93.7503C7.7633 91.8454 5.5823 89.0784 4.49219 85.4495C3.33271 83.2839 1.80277 81.4609 -0.0976562 79.9808C-0.0976562 79.5251 -0.0976562 79.0693 -0.0976562 78.6136C0.292969 78.288 0.683594 77.9626 1.07422 77.637C1.9102 77.2191 2.75656 76.7958 3.61328 76.3675C8.19131 75.0677 12.8137 74.9376 17.4805 75.9769C16.6575 76.421 15.8112 76.8116 14.9414 77.1488C14.6389 77.3859 14.411 77.6788 14.2578 78.0277C14.3006 79.9718 15.2446 80.5251 17.0898 79.6878C18.8767 78.7782 20.6996 77.9644 22.5586 77.2464Z" fill="#E2D1FE"/>
<path opacity="0.979" fill-rule="evenodd" clip-rule="evenodd" d="M26.4648 76.0742C26.5951 76.0742 26.6602 76.1393 26.6602 76.2695C26.7904 76.2695 26.8555 76.3346 26.8555 76.4648C27.3187 78.6584 27.6768 80.8719 27.9297 83.1055C28.0943 85.5219 28.0293 87.9307 27.7344 90.332C27.3586 92.1771 26.6426 93.8699 25.5859 95.4102C24.277 96.7518 22.9424 98.0539 21.582 99.3164C22.7055 97.7195 23.5193 95.9617 24.0234 94.043C24.7094 90.0592 24.6443 86.0877 23.8281 82.1289C23.2994 83.0891 22.7459 84.033 22.168 84.9609C20.7547 85.3967 19.9734 84.9084 19.8242 83.4961C20.6211 81.3672 21.5326 79.2838 22.5586 77.2461C23.1283 78.6756 23.5516 80.173 23.8281 81.7383C24.8129 79.899 25.6918 78.0109 26.4648 76.0742Z" fill="#C5B9EF"/>
</g>
<defs>
<clipPath id="clip0_190_2784">
<rect width="100" height="100" fill="white"/>
</clipPath>
</defs>
</svg>
