<svg width="100" height="100" viewBox="0 0 100 100" fill="none" xmlns="http://www.w3.org/2000/svg">
<g clip-path="url(#clip0_190_4624)">
<path fill-rule="evenodd" clip-rule="evenodd" d="M95.2148 59.8624C93.4791 60.6978 91.7213 61.479 89.9414 62.2062C89.8764 62.2062 89.8111 62.2062 89.7461 62.2062C80.1881 48.8843 70.4877 35.6681 60.6445 22.5578C61.5012 21.206 62.4777 19.9365 63.5742 18.7492C64.3564 18.5347 65.04 18.6974 65.625 19.2374C75.5357 32.7589 85.399 46.3005 95.2148 59.8624Z" fill="#FB2B3A"/>
<path opacity="0.998" fill-rule="evenodd" clip-rule="evenodd" d="M60.6445 22.5593C70.4877 35.6697 80.1881 48.8859 89.7461 62.2078C82.4637 64.6248 74.9766 65.8619 67.2852 65.9187C66.9596 65.5281 66.6342 65.1375 66.3086 64.7468C60.4592 56.7152 54.5672 48.7074 48.6328 40.7234C48.3283 40.388 48.1656 39.9974 48.1445 39.5515C52.3174 33.8828 56.484 28.2187 60.6445 22.5593Z" fill="#FC4755"/>
<path fill-rule="evenodd" clip-rule="evenodd" d="M48.1445 39.5513C48.1656 39.9972 48.3283 40.3878 48.6328 40.7231C54.5672 48.7071 60.4592 56.7149 66.3086 64.7466C64.7229 65.7343 63.0303 66.5155 61.2305 67.0903C60.3271 66.1997 59.5135 65.2231 58.7891 64.1606C49.9285 51.9036 40.9768 39.729 31.9336 27.6372C32.7217 26.2931 33.6332 25.0235 34.668 23.8286C35.3445 23.669 35.9957 23.7343 36.6211 24.0239C40.3949 29.2651 44.2361 34.4409 48.1445 39.5513Z" fill="#FB2B3A"/>
<path opacity="0.997" fill-rule="evenodd" clip-rule="evenodd" d="M31.9336 27.6375C40.9768 39.7292 49.9285 51.9039 58.7891 64.1609C59.5135 65.2234 60.3271 66.2 61.2305 67.0906C61.2305 67.1556 61.2305 67.2208 61.2305 67.2859C54.3801 69.5087 47.3488 70.713 40.1367 70.8992C30.1656 71.5298 20.4 70.4232 10.8398 67.5789C8.6758 66.7894 6.59246 65.8455 4.58984 64.7468C13.6352 52.3175 22.7498 39.9476 31.9336 27.6375Z" fill="#FC4755"/>
<path fill-rule="evenodd" clip-rule="evenodd" d="M62.9881 32.3246C63.7721 32.2922 64.5533 32.3248 65.3319 32.4223C66.6311 33.3436 66.6311 34.2549 65.3319 35.1567C63.2742 35.7139 62.3303 34.9652 62.4998 32.9106C62.7039 32.7401 62.8666 32.5447 62.9881 32.3246Z" fill="#6D5D67"/>
<path fill-rule="evenodd" clip-rule="evenodd" d="M33.8869 39.5517C34.7439 39.4429 35.3625 39.7685 35.7423 40.5282C35.8726 41.1792 35.8726 41.8304 35.7423 42.4814C35.3076 43.3331 34.624 43.6261 33.6916 43.3603C32.9484 42.5613 32.7205 41.6173 33.008 40.5282C33.2082 40.1011 33.5011 39.7755 33.8869 39.5517Z" fill="#6B5D67"/>
<path fill-rule="evenodd" clip-rule="evenodd" d="M56.1525 40.1372C57.21 39.9963 58.1539 40.2567 58.9846 40.9184C59.5869 42.1866 59.2287 43.0329 57.9104 43.4575C57.159 43.262 56.4754 42.9364 55.8596 42.4809C55.4025 41.6122 55.5002 40.8309 56.1525 40.1372Z" fill="#6C5D67"/>
<path fill-rule="evenodd" clip-rule="evenodd" d="M70.2147 41.1145C71.8309 40.9594 72.4495 41.6756 72.0702 43.2629C71.3393 44.1986 70.3952 44.5566 69.2382 44.3371C68.5952 43.866 68.3673 43.2475 68.5546 42.4816C69.0679 41.9523 69.6212 41.4965 70.2147 41.1145Z" fill="#6B5D67"/>
<path fill-rule="evenodd" clip-rule="evenodd" d="M64.7461 49.707C66.0297 49.3585 66.7459 49.8144 66.8945 51.0742C66.8182 51.7091 66.5902 52.2951 66.2109 52.832C64.8549 53.798 63.976 53.4724 63.5742 51.8554C63.8107 51.0568 64.2014 50.3406 64.7461 49.707Z" fill="#6C5D67"/>
<path fill-rule="evenodd" clip-rule="evenodd" d="M24.5117 49.902C25.6213 49.887 26.5654 50.2776 27.3438 51.0739C27.6027 52.5721 26.9842 53.2557 25.4883 53.1247C24.2697 52.8218 23.6512 52.0731 23.6328 50.8786C23.833 50.4514 24.126 50.1259 24.5117 49.902Z" fill="#6C5D67"/>
<path fill-rule="evenodd" clip-rule="evenodd" d="M38.7699 49.9034C40.0353 49.5682 40.8166 50.0239 41.1136 51.2706C40.4671 52.9354 39.3279 53.4561 37.6957 52.8331C37.4111 52.2733 37.346 51.6874 37.5003 51.0753C37.9033 50.639 38.3263 50.2483 38.7699 49.9034Z" fill="#6B5D67"/>
<path fill-rule="evenodd" clip-rule="evenodd" d="M76.4649 51.6606C78.0358 51.5707 78.6543 52.2868 78.3203 53.809C77.486 54.6508 76.4768 54.9438 75.293 54.6879C74.607 53.9582 74.542 53.177 75.0977 52.3442C75.5713 52.1073 76.0272 51.8795 76.4649 51.6606Z" fill="#6A5D67"/>
<path fill-rule="evenodd" clip-rule="evenodd" d="M47.5583 56.7387C49.0546 56.5752 49.7382 57.2262 49.6091 58.6918C49.2573 59.3334 48.7038 59.6917 47.9489 59.7661C46.5562 60.0647 45.8726 59.5114 45.8982 58.1059C46.2597 57.3917 46.813 56.936 47.5583 56.7387Z" fill="#6B5D67"/>
<path fill-rule="evenodd" clip-rule="evenodd" d="M27.4414 59.4725C28.6304 59.3047 29.6396 59.6301 30.4687 60.4491C30.7537 61.7041 30.2654 62.4201 29.0039 62.5975C26.6812 62.3799 26.1603 61.3383 27.4414 59.4725Z" fill="#6D5D67"/>
<path fill-rule="evenodd" clip-rule="evenodd" d="M95.2148 59.8625C96.7773 61.8807 98.3398 63.8991 99.9023 65.9172C99.9023 66.4381 99.9023 66.9588 99.9023 67.4797C98.2314 68.5432 96.4736 69.4547 94.6289 70.2141C94.4244 70.1012 94.457 69.9711 94.7266 69.8235C94.8568 69.4329 94.8568 69.0422 94.7266 68.6516C93.0891 66.5272 91.4939 64.3788 89.9414 62.2063C91.7213 61.4792 93.4791 60.6979 95.2148 59.8625Z" fill="#82D162"/>
<path opacity="0.997" fill-rule="evenodd" clip-rule="evenodd" d="M89.7461 62.2063C89.8111 62.2063 89.8764 62.2063 89.9414 62.2063C91.4939 64.3788 93.0891 66.5272 94.7266 68.6516C94.8568 69.0422 94.8568 69.4329 94.7266 69.8235C94.457 69.9711 94.4244 70.1012 94.6289 70.2141C87.6152 73.3184 80.2584 75.1739 72.5586 75.7805C69.6326 75.9879 66.7029 76.1182 63.7695 76.1711C56.2275 79.0729 48.415 80.7004 40.332 81.054C28.5424 81.8065 17.1492 80.0487 6.15234 75.7805C3.90656 74.8866 1.82323 73.7471 -0.0976562 72.3625C-0.0976562 71.9069 -0.0976562 71.451 -0.0976562 70.9954C1.46484 68.912 3.02734 66.8288 4.58984 64.7454C6.59246 65.844 8.6758 66.7879 10.8398 67.5774C20.4 70.4217 30.1656 71.5284 40.1367 70.8977C47.3488 70.7116 54.3801 69.5073 61.2305 67.2844C62.718 69.3917 64.2479 71.4749 65.8203 73.5344C66.0977 74.0586 66.1953 74.5795 66.1133 75.0969C67.5764 74.3981 69.0086 73.6493 70.4102 72.8508C70.7906 72.5698 71.051 72.2118 71.1914 71.7766C69.9627 69.7682 68.6607 67.8151 67.2852 65.9172C74.9766 65.8604 82.4637 64.6233 89.7461 62.2063Z" fill="#ADE093"/>
<path fill-rule="evenodd" clip-rule="evenodd" d="M66.3086 64.7468C66.6342 65.1375 66.9596 65.5281 67.2852 65.9187C68.6607 67.8166 69.9627 69.7697 71.1914 71.7781C71.051 72.2132 70.7906 72.5712 70.4102 72.8523C69.0086 73.6507 67.5764 74.3996 66.1133 75.0984C66.1953 74.581 66.0977 74.0601 65.8203 73.5359C64.2479 71.4763 62.718 69.3931 61.2305 67.2859C61.2305 67.2208 61.2305 67.1556 61.2305 67.0906C63.0303 66.5158 64.7229 65.7345 66.3086 64.7468Z" fill="#81D161"/>
</g>
<defs>
<clipPath id="clip0_190_4624">
<rect width="100" height="100" fill="white"/>
</clipPath>
</defs>
</svg>
