<svg width="100" height="100" viewBox="0 0 100 100" fill="none" xmlns="http://www.w3.org/2000/svg">
<g clip-path="url(#clip0_190_4849)">
<path opacity="0.999" fill-rule="evenodd" clip-rule="evenodd" d="M48.7309 -0.0969238C49.1215 -0.0969238 49.5121 -0.0969238 49.9027 -0.0969238C49.9027 3.93954 49.9027 7.97599 49.9027 12.0125C49.1094 12.0562 48.5561 12.4468 48.2426 13.1843C48.1449 17.8063 48.1123 22.4287 48.1449 27.0515C47.1922 26.6533 46.4434 26.0021 45.8988 25.0984C43.8576 21.5763 42.8484 17.7678 42.8715 13.6726C42.9394 10.4681 43.558 7.37562 44.7269 4.39526C45.5621 2.42251 46.8967 0.925117 48.7309 -0.0969238Z" fill="#7DC86E"/>
<path opacity="0.971" fill-rule="evenodd" clip-rule="evenodd" d="M49.9023 -0.0969238C50.293 -0.0969238 50.6836 -0.0969238 51.0742 -0.0969238C52.9646 0.785379 54.2992 2.21767 55.0781 4.19995C57.3012 9.98825 57.4965 15.8476 55.6641 21.7781C54.9572 23.6812 53.883 25.3414 52.4414 26.7585C52.1982 26.913 51.9379 27.0107 51.6602 27.0515C51.6928 22.3636 51.6602 17.6761 51.5625 12.989C51.1682 12.3617 50.6146 12.0362 49.9023 12.0125C49.9023 7.97599 49.9023 3.93954 49.9023 -0.0969238Z" fill="#8BE06E"/>
<path opacity="0.974" fill-rule="evenodd" clip-rule="evenodd" d="M49.9027 12.0125C50.615 12.0362 51.1685 12.3617 51.5629 12.989C51.6605 17.6761 51.6931 22.3636 51.6605 27.0515C51.6281 28.8755 51.6605 30.6986 51.7582 32.5203C54.2607 30.1128 56.8974 27.8992 59.6683 25.8796C59.8738 25.9087 60.0691 25.8763 60.2543 25.782C62.8246 23.9429 65.4937 22.2501 68.2621 20.7039C69.0095 20.5132 69.6605 20.6759 70.2152 21.1921C70.7685 22.0435 70.7033 22.8574 70.0199 23.6335C68.4246 24.6593 66.797 25.6359 65.1371 26.5632C63.9476 27.2857 62.8408 28.0996 61.8168 29.0046C57.8787 31.4771 54.5258 34.6021 51.7582 38.3796C51.6607 39.3541 51.6281 40.3306 51.6605 41.3093C50.4886 41.3093 49.3168 41.3093 48.1449 41.3093C48.1773 40.2656 48.1447 39.224 48.0472 38.1843C45.2179 34.5408 41.8652 31.481 37.9886 29.0046C37.6949 28.5484 37.3043 28.1904 36.8168 27.9304C34.5058 26.4167 32.1621 24.9519 29.7855 23.5359C29.082 22.8062 29.017 22.025 29.5902 21.1921C30.2933 20.5507 31.0746 20.4531 31.934 20.8992C34.7117 22.5146 37.4461 24.1748 40.1371 25.8796C42.8855 27.8607 45.5222 30.0091 48.0472 32.325C48.1449 30.5683 48.1773 28.8105 48.1449 27.0515C48.1123 22.4287 48.1449 17.8063 48.2425 13.1843C48.556 12.4468 49.1093 12.0562 49.9027 12.0125Z" fill="#9AF47C"/>
<path opacity="0.96" fill-rule="evenodd" clip-rule="evenodd" d="M40.1367 25.8778C37.4457 24.1729 34.7113 22.5128 31.9336 20.8973C31.0742 20.4512 30.293 20.5489 29.5898 21.1903C27.3445 19.6444 25.066 18.147 22.7539 16.6981C23.7795 15.4538 25.1141 14.8679 26.7578 14.9403C32.7037 15.5008 37.0006 18.4305 39.6484 23.7294C39.8738 24.4333 40.0365 25.1495 40.1367 25.8778Z" fill="#8CE16E"/>
<path opacity="0.96" fill-rule="evenodd" clip-rule="evenodd" d="M77.0508 16.6981C74.7387 18.147 72.4602 19.6444 70.2148 21.1903C69.6602 20.6741 69.0092 20.5114 68.2617 20.702C65.4934 22.2483 62.8242 23.9411 60.2539 25.7801C60.0687 25.8745 59.8734 25.9069 59.668 25.8778C60.1293 23.1001 61.4314 20.7889 63.5742 18.9442C66.2842 16.5642 69.4418 15.2296 73.0469 14.9403C74.6906 14.8679 76.0252 15.4538 77.0508 16.6981Z" fill="#8CE16E"/>
<path opacity="0.999" fill-rule="evenodd" clip-rule="evenodd" d="M22.7539 16.7C25.066 18.1488 27.3445 19.6462 29.5898 21.1921C29.0166 22.025 29.0816 22.8062 29.7852 23.5359C32.1617 24.9519 34.5055 26.4167 36.8164 27.9304C37.3039 28.1904 37.6945 28.5484 37.9883 29.0046C35.0602 29.7662 32.2607 29.4082 29.5898 27.9304C26.7568 26.3341 24.5107 24.1531 22.8516 21.3875C22.4629 20.5183 22.235 19.607 22.168 18.6531C22.1859 17.9257 22.3812 17.2746 22.7539 16.7Z" fill="#7DC86E"/>
<path opacity="0.998" fill-rule="evenodd" clip-rule="evenodd" d="M77.0508 16.7C77.4234 17.2746 77.6187 17.9257 77.6367 18.6531C77.4584 20.3931 76.8398 21.9556 75.7812 23.3406C73.4588 26.1171 70.5617 28.0376 67.0898 29.1023C65.3115 29.524 63.5537 29.4914 61.8164 29.0046C62.8404 28.0996 63.9473 27.2857 65.1367 26.5632C66.7967 25.6359 68.4242 24.6593 70.0195 23.6335C70.7029 22.8574 70.7682 22.0435 70.2148 21.1921C72.4602 19.6462 74.7387 18.1488 77.0508 16.7Z" fill="#7DC86E"/>
<path opacity="0.994" fill-rule="evenodd" clip-rule="evenodd" d="M48.145 41.3093C49.3168 41.3093 50.4887 41.3093 51.6606 41.3093C59.2352 41.4041 65.6479 44.1384 70.8989 49.5125C75.843 55.8691 77.0801 62.9003 74.6098 70.6062C73.445 73.2675 71.8499 75.6113 69.8247 77.6375C59.962 77.4423 50.0661 77.3773 40.1372 77.4421C38.6555 73.0125 37.9393 68.4552 37.9887 63.7703C39.0034 63.8789 39.9473 63.6835 40.8208 63.1843C41.5182 62.1125 41.3555 61.1683 40.3325 60.3523C39.554 60.2548 38.7727 60.2222 37.9887 60.2546C38.2 55.0826 39.5999 50.265 42.1879 45.8015C42.4713 43.7589 41.5924 42.7824 39.5512 42.8718C42.3059 41.8787 45.1704 41.3578 48.145 41.3093Z" fill="#FE556E"/>
<path fill-rule="evenodd" clip-rule="evenodd" d="M39.5508 42.8714C41.592 42.7819 42.4709 43.7585 42.1875 45.801C39.5994 50.2645 38.1996 55.0821 37.9883 60.2542C38.7723 60.2217 39.5535 60.2544 40.332 60.3518C41.3551 61.1678 41.5178 62.112 40.8203 63.1839C39.9469 63.6831 39.0029 63.8784 37.9883 63.7698C37.9389 68.4547 38.6551 73.012 40.1367 77.4417C36.7514 77.4417 33.3658 77.4417 29.9805 77.4417C26.135 73.6948 24.1166 69.1049 23.9258 63.6721C24.3873 53.1368 29.5957 46.2032 39.5508 42.8714Z" fill="#D74664"/>
<path fill-rule="evenodd" clip-rule="evenodd" d="M47.5583 49.9014C48.6891 49.8225 49.7958 49.9202 50.8786 50.1944C52.1042 51.6206 51.8436 52.6622 50.0973 53.3194C49.1624 53.4911 48.251 53.4259 47.3629 53.1241C46.2889 51.9821 46.3542 50.9079 47.5583 49.9014Z" fill="#FF6E81"/>
<path fill-rule="evenodd" clip-rule="evenodd" d="M57.9101 60.2529C59.474 60.2205 61.0365 60.2529 62.5976 60.3505C63.5597 60.8101 63.9179 61.5587 63.6719 62.5966C63.3056 63.1214 62.8174 63.4796 62.207 63.6708C60.8398 63.8011 59.4726 63.8011 58.1054 63.6708C56.9117 63.0277 56.6187 62.0835 57.2265 60.8388C57.523 60.7093 57.751 60.514 57.9101 60.2529Z" fill="#FF6E81"/>
<path fill-rule="evenodd" clip-rule="evenodd" d="M44.0434 70.6052C45.7523 70.5251 47.4449 70.6228 49.1215 70.8982C50.0875 71.738 50.1525 72.6495 49.3168 73.6325C49.0068 73.8009 48.6812 73.9312 48.3402 74.0232C47.0381 74.1534 45.7361 74.1534 44.434 74.0232C43.2646 73.6052 42.8414 72.7913 43.1645 71.5817C43.4978 71.2816 43.7908 70.956 44.0434 70.6052Z" fill="#FF6E81"/>
<path fill-rule="evenodd" clip-rule="evenodd" d="M29.9805 77.4407C33.3658 77.4407 36.7514 77.4407 40.1367 77.4407C40.6576 78.6125 41.1783 79.7844 41.6992 80.9563C39.0605 80.892 36.4563 80.9571 33.8867 81.1516C32.4613 80.0518 31.1592 78.8149 29.9805 77.4407Z" fill="#FE6F82"/>
<path opacity="0.991" fill-rule="evenodd" clip-rule="evenodd" d="M40.1367 77.4415C50.0656 77.3767 59.9615 77.4417 69.8242 77.6368C68.7057 78.879 67.4688 79.9858 66.1133 80.9571C63.2297 80.8659 60.3652 80.9636 57.5195 81.2501C56.6822 82.2964 56.7475 83.273 57.7148 84.1798C58.9287 84.4564 60.1656 84.554 61.4258 84.4728C59.1826 86.1597 56.9041 87.8198 54.5898 89.4532C53.2418 90.5532 52.3629 91.9528 51.9531 93.6525C51.7479 95.4042 51.6176 97.162 51.5625 98.9259C51.3623 99.353 51.0693 99.6786 50.6836 99.9025C50.1627 99.9025 49.642 99.9025 49.1211 99.9025C48.742 99.6732 48.449 99.3476 48.2422 98.9259C48.1771 97.4937 48.1119 96.0612 48.0469 94.629C47.8246 92.3941 46.8156 90.6038 45.0195 89.2579C43.3787 88.0493 41.7512 86.845 40.1367 85.6446C40.9924 85.5097 41.7086 85.1191 42.2852 84.4728C45.476 84.5054 48.666 84.4728 51.8555 84.3751C53.6924 83.5755 53.8877 82.4689 52.4414 81.0548C48.8613 80.9571 45.2805 80.9245 41.6992 80.9571C41.1783 79.7853 40.6576 78.6134 40.1367 77.4415Z" fill="#FF959F"/>
<path fill-rule="evenodd" clip-rule="evenodd" d="M41.6992 80.9568C41.9896 81.5375 42.2826 82.1234 42.5781 82.7146C42.733 83.3476 42.6354 83.9336 42.2852 84.4724C41.7086 85.1187 40.9924 85.5093 40.1367 85.6443C37.9434 84.2968 35.86 82.7996 33.8867 81.1521C36.4562 80.9576 39.0605 80.8926 41.6992 80.9568Z" fill="#DC4B67"/>
<path fill-rule="evenodd" clip-rule="evenodd" d="M41.6992 80.9561C45.2805 80.9235 48.8613 80.9561 52.4414 81.0537C53.8877 82.4678 53.6924 83.5744 51.8555 84.3741C48.666 84.4717 45.476 84.5043 42.2852 84.4717C42.6354 83.9328 42.733 83.3469 42.5781 82.7139C42.2826 82.1227 41.9896 81.5367 41.6992 80.9561Z" fill="#FE566F"/>
<path fill-rule="evenodd" clip-rule="evenodd" d="M66.1129 80.9581C64.6977 82.3179 63.1352 83.4897 61.4254 84.4737C60.1652 84.555 58.9283 84.4573 57.7145 84.1807C56.7471 83.2739 56.6818 82.2973 57.5192 81.2511C60.3649 80.9645 63.2293 80.8669 66.1129 80.9581Z" fill="#FF576F"/>
</g>
<defs>
<clipPath id="clip0_190_4849">
<rect width="100" height="100" fill="white"/>
</clipPath>
</defs>
</svg>
