<svg width="100" height="100" viewBox="0 0 100 100" fill="none" xmlns="http://www.w3.org/2000/svg">
<path d="M50.5214 49.8886C70.4325 49.8886 75.1658 43.9997 75.1658 37.3774H25.877C25.877 43.9997 30.5992 49.8886 50.5214 49.8886Z" fill="#824B3D"/>
<path d="M76.3999 30.5996C76.449 31.3 76.2199 31.9916 75.7622 32.5241C75.3046 33.0567 74.6553 33.3872 73.9555 33.444H27.0999C26.4 33.3872 25.7508 33.0567 25.2931 32.5241C24.8355 31.9916 24.6063 31.3 24.6555 30.5996C24.6124 29.9028 24.8443 29.217 25.3014 28.6893C25.7584 28.1616 26.4041 27.8342 27.0999 27.7773H73.9444C74.6442 27.8341 75.2935 28.1647 75.7511 28.6972C76.2088 29.2298 76.4379 29.9213 76.3888 30.6218L76.3999 30.5996Z" fill="#FFF7DE"/>
<path d="M50.5214 11.311C30.6103 11.311 25.877 17.1999 25.877 23.811H75.1658C75.1658 17.1999 70.4325 11.311 50.5214 11.311Z" fill="#824B3D"/>
<path d="M77.3439 25.9224C77.3813 25.4041 77.2155 24.8916 76.8816 24.4934C76.5477 24.0952 76.0719 23.8426 75.555 23.7891H25.555C25.0301 23.8317 24.5432 24.0796 24.2 24.479C23.8567 24.8784 23.6849 25.3971 23.7217 25.9224C23.6849 26.4477 23.8567 26.9664 24.2 27.3658C24.5432 27.7652 25.0301 28.0131 25.555 28.0557H75.555C76.0799 28.0131 76.5669 27.7652 76.9101 27.3658C77.2533 26.9664 77.4252 26.4477 77.3884 25.9224H77.3439Z" fill="#9E5C4B"/>
<path d="M23.7001 35.289C23.6635 35.8179 23.8383 36.3397 24.1863 36.7397C24.5342 37.1398 25.0268 37.3853 25.5557 37.4223H75.5557C76.0806 37.3797 76.5675 37.1318 76.9107 36.7324C77.254 36.333 77.4258 35.8143 77.389 35.289C77.4289 34.7618 77.2584 34.2403 76.9149 33.8384C76.5713 33.4366 76.0826 33.1871 75.5557 33.1445H25.5557C25.0307 33.1871 24.5438 33.435 24.2006 33.8344C23.8573 34.2339 23.6855 34.7525 23.7223 35.2779L23.7001 35.289Z" fill="#9E5C4B"/>
<path d="M29.5995 84.1669C49.5106 84.1669 54.244 78.278 54.244 71.6558H4.95508C4.95508 78.278 9.68841 84.1669 29.5995 84.1669Z" fill="#FF99D6"/>
<path d="M55.4775 64.8782C55.5095 65.2304 55.4711 65.5854 55.3645 65.9226C55.258 66.2598 55.0854 66.5724 54.8569 66.8423C54.6284 67.1122 54.3485 67.3339 54.0334 67.4946C53.7184 67.6553 53.3746 67.7517 53.022 67.7782H6.17754C5.47767 67.7214 4.82844 67.3909 4.37078 66.8584C3.91313 66.3258 3.68399 65.6343 3.7331 64.9338C3.68399 64.2333 3.91313 63.5418 4.37078 63.0092C4.82844 62.4767 5.47767 62.1462 6.17754 62.0894H53.022C53.7219 62.1462 54.3711 62.4767 54.8288 63.0092C55.2864 63.5418 55.5155 64.2333 55.4664 64.9338L55.4775 64.8782Z" fill="#FFF7DE"/>
<path d="M29.5995 45.5557C9.68841 45.5557 4.95508 51.4779 4.95508 58.1001H54.244C54.244 51.4779 49.5106 45.5557 29.5995 45.5557Z" fill="#FF99D6"/>
<path d="M56.4219 60.1997C56.4588 59.6744 56.2869 59.1557 55.9437 58.7563C55.6004 58.3569 55.1135 58.109 54.5886 58.0664H4.58861C4.0677 58.1145 3.58636 58.3648 3.2478 58.7636C2.90924 59.1624 2.74041 59.6779 2.7775 60.1997C2.74066 60.7251 2.91252 61.2438 3.25576 61.6432C3.599 62.0426 4.08593 62.2905 4.61083 62.3331H54.6108C55.1357 62.2905 55.6227 62.0426 55.9659 61.6432C56.3091 61.2438 56.481 60.7251 56.4442 60.1997H56.4219Z" fill="#F47CC3"/>
<path d="M2.77736 69.5552C2.74053 70.0805 2.91238 70.5992 3.25563 70.9986C3.59887 71.398 4.08579 71.6459 4.6107 71.6885H54.6107C55.1356 71.6459 55.6225 71.398 55.9658 70.9986C56.309 70.5992 56.4809 70.0805 56.444 69.5552C56.4809 69.0299 56.309 68.5112 55.9658 68.1118C55.6225 67.7124 55.1356 67.4645 54.6107 67.4219H4.6107C4.08579 67.4645 3.59887 67.7124 3.25563 68.1118C2.91238 68.5112 2.74053 69.0299 2.77736 69.5552Z" fill="#F47CC3"/>
<path d="M59.355 79.1667C74.8995 91.6222 82.2217 90 86.4106 84.8111L47.9439 54C43.8106 59.1667 43.8106 66.6667 59.355 79.1667Z" fill="#82C60A"/>
<path d="M91.611 80.2887C91.2109 80.8664 90.599 81.2628 89.9083 81.3918C89.2175 81.5208 88.5037 81.3719 87.9221 80.9776L51.3555 51.6887C50.842 51.2071 50.5398 50.5419 50.5149 49.8384C50.4899 49.1348 50.7441 48.45 51.2221 47.9331C51.6222 47.3554 52.2341 46.959 52.9249 46.83C53.6156 46.701 54.3294 46.8499 54.911 47.2442L91.4777 76.5442C91.9911 77.0259 92.2933 77.691 92.3183 78.3945C92.3432 79.0981 92.089 79.783 91.611 80.2998V80.2887Z" fill="#FFF7DE"/>
<path d="M83.4774 49.067C67.933 36.667 60.5552 38.2559 56.4219 43.4226L94.8885 74.2226C99.0219 69.067 99.0219 61.5114 83.4774 49.067Z" fill="#82C60A"/>
<path d="M95.2775 77.2329C95.6275 76.8467 95.8129 76.3391 95.7943 75.8182C95.7756 75.2973 95.5543 74.8042 95.1775 74.444L56.1775 43.1774C55.7406 42.8822 55.2048 42.7714 54.6867 42.8692C54.1685 42.967 53.71 43.2654 53.4108 43.6996C53.054 44.087 52.8644 44.5994 52.8831 45.1257C52.9018 45.652 53.1274 46.1497 53.5108 46.5107L92.5108 77.7774C92.9477 78.0726 93.4835 78.1834 94.0016 78.0856C94.5197 77.9878 94.9783 77.6893 95.2775 77.2552V77.2329Z" fill="#51B224"/>
<path d="M47.5553 50.9994C47.1985 51.3868 47.0089 51.8992 47.0276 52.4255C47.0464 52.9518 47.2719 53.4495 47.6553 53.8105L86.6664 85.055C87.1033 85.3502 87.6391 85.461 88.1572 85.3632C88.6754 85.2654 89.1339 84.9669 89.4331 84.5327C89.7899 84.1454 89.9795 83.6329 89.9608 83.1066C89.9421 82.5803 89.7165 82.0827 89.3331 81.7216L50.322 50.4772C49.8851 50.182 49.3493 50.0712 48.8312 50.169C48.3131 50.2668 47.8545 50.5652 47.5553 50.9994Z" fill="#51B224"/>
</svg>
