<svg width="100" height="100" viewBox="0 0 100 100" fill="none" xmlns="http://www.w3.org/2000/svg">
<path opacity="0.989" fill-rule="evenodd" clip-rule="evenodd" d="M96.7773 48.9256C95.6855 46.818 94.058 46.2646 91.8945 47.2654C91.3176 47.7422 90.8619 48.2957 90.5273 48.9256C89.6322 33.758 82.7312 22.2672 69.8242 14.4529C68.4971 13.7239 67.1299 13.1054 65.7227 12.5975C60.8502 10.3548 55.707 9.24804 50.293 9.27714C40.327 9.23446 31.5379 12.3595 23.9258 18.6521C23.5352 18.6521 23.1445 18.6521 22.7539 18.6521C20.1498 18.6521 17.5456 18.6521 14.9414 18.6521C23.1053 9.55677 33.3268 4.38099 45.6055 3.1248C63.8086 2.08804 78.2291 8.89142 88.8672 23.535C93.9574 31.2215 96.5941 39.6851 96.7773 48.9256Z" fill="#A5C2DB"/>
<path fill-rule="evenodd" clip-rule="evenodd" d="M50.293 9.2768C51.5945 9.95654 51.7898 10.9006 50.8789 12.1088C43.8797 12.2847 37.3041 14.0425 31.1523 17.3823C30.5533 17.8097 29.9674 18.2328 29.3945 18.6518C27.5717 18.6518 25.7486 18.6518 23.9258 18.6518C31.5379 12.3591 40.327 9.23412 50.293 9.2768Z" fill="#FED03C"/>
<path fill-rule="evenodd" clip-rule="evenodd" d="M50.293 9.27693C55.707 9.24782 60.8502 10.3546 65.7227 12.5972C67.3225 16.7461 68.2338 21.0429 68.457 25.4879C64.2236 21.9072 59.3408 19.7588 53.8086 19.0426C52.1594 18.7229 50.4666 18.5927 48.7305 18.6519C42.2852 18.6519 35.8398 18.6519 29.3945 18.6519C29.9674 18.2329 30.5533 17.8098 31.1523 17.3824C37.3041 14.0426 43.8797 12.2848 50.8789 12.109C51.7898 10.9007 51.5945 9.95667 50.293 9.27693Z" fill="#F99F19"/>
<path fill-rule="evenodd" clip-rule="evenodd" d="M65.7227 12.5967C67.1299 13.1046 68.4971 13.7231 69.8242 14.4521C82.7312 22.2664 89.6322 33.7572 90.5273 48.9248C90.0791 66.8394 81.8107 79.6324 65.7227 87.3037C60.3391 89.4922 54.7402 90.5664 48.9258 90.5264C34.6982 89.7142 23.5979 83.4642 15.625 71.7764C14.4078 69.8627 13.3987 67.8445 12.5977 65.7217C15.0759 66.6506 17.615 67.3666 20.2148 67.8701C22.2398 68.5473 24.3232 68.8076 26.4648 68.6514C30.3576 68.7377 34.1988 68.3471 37.9883 67.4795C38.4502 67.9404 38.9711 68.3311 39.5508 68.6514C37.8244 69.5 37.1408 70.8672 37.5 72.7529C37.9232 73.6969 38.6068 74.3805 39.5508 74.8037C43.6523 74.934 47.7539 74.934 51.8555 74.8037C58.9508 74.2498 65.0055 71.483 70.0195 66.5029C72.5352 68.9322 75.3346 69.2902 78.418 67.5771C81.1488 65.4006 81.8324 62.6988 80.4688 59.4717C80.051 58.8 79.5627 58.1814 79.0039 57.6162C78.1889 57.034 77.3426 56.5457 76.4648 56.1514C80.0531 44.2715 77.3838 34.0502 68.457 25.4873C68.2338 21.0424 67.3225 16.7455 65.7227 12.5967Z" fill="#F4871E"/>
<path fill-rule="evenodd" clip-rule="evenodd" d="M59.6679 14.5497C61.2609 14.4171 61.9445 15.1333 61.7187 16.6982C60.6777 18.0284 59.7011 17.9633 58.789 16.5028C58.6793 15.6691 58.9722 15.0181 59.6679 14.5497Z" fill="#F04E36"/>
<path fill-rule="evenodd" clip-rule="evenodd" d="M14.9414 18.6528C17.5456 18.6528 20.1498 18.6528 22.7539 18.6528C21.4517 19.6944 21.4517 20.7362 22.7539 21.7778C17.3502 21.7778 11.9466 21.7778 6.54295 21.7778C5.62918 21.8102 4.71772 21.7776 3.80858 21.6802C3.62963 21.6071 3.46686 21.5095 3.3203 21.3872C3.03059 20.7618 2.96549 20.1106 3.12499 19.4341C3.22264 19.076 3.45051 18.8481 3.80858 18.7505C7.51895 18.6528 11.2299 18.6203 14.9414 18.6528Z" fill="#F4816D"/>
<path fill-rule="evenodd" clip-rule="evenodd" d="M23.9258 18.6533C25.7486 18.6533 27.5717 18.6533 29.3945 18.6533C35.8398 18.6533 42.2852 18.6533 48.7305 18.6533C49.884 19.1627 50.177 20.009 49.6094 21.1924C49.3807 21.4645 49.0877 21.6273 48.7305 21.6807C40.4625 21.7783 32.1943 21.8109 23.9258 21.7783C25.2043 20.7291 25.2043 19.6873 23.9258 18.6533Z" fill="#F4816D"/>
<path fill-rule="evenodd" clip-rule="evenodd" d="M48.7305 18.6516C50.4666 18.5924 52.1594 18.7225 53.8086 19.0422C53.5668 19.1028 53.5668 19.2004 53.8086 19.3352C58.4805 21.024 61.3125 24.3119 62.3047 29.1985C62.8402 35.3235 60.3988 39.7832 54.9805 42.5774C53.6898 43.0852 52.3877 43.4432 51.0742 43.6516C45.8004 43.6842 40.527 43.6516 35.2539 43.5539C27.3148 42.6655 21.0648 38.9871 16.5039 32.5188C16.2929 32.0313 16.0325 31.5754 15.7227 31.1516C15.214 30.1994 14.7583 29.2229 14.3555 28.2219C14.1417 27.6004 13.8813 27.0145 13.5742 26.4641C13.254 25.6944 12.8308 24.9782 12.3047 24.3157C11.9421 23.7883 11.4538 23.4629 10.8398 23.3391C9.55668 22.4 8.12439 21.8793 6.54297 21.7766C11.9466 21.7766 17.3503 21.7766 22.7539 21.7766C23.1445 21.7766 23.5352 21.7766 23.9258 21.7766C32.1943 21.8092 40.4625 21.7766 48.7305 21.6789C49.0877 21.6256 49.3807 21.4627 49.6094 21.1907C50.177 20.0073 49.884 19.1609 48.7305 18.6516Z" fill="#EF4B36"/>
<path fill-rule="evenodd" clip-rule="evenodd" d="M22.754 18.6533C23.1446 18.6533 23.5352 18.6533 23.9258 18.6533C25.2043 19.6873 25.2043 20.7291 23.9258 21.7783C23.5352 21.7783 23.1446 21.7783 22.754 21.7783C21.4518 20.7367 21.4518 19.6949 22.754 18.6533Z" fill="#4D3E4C"/>
<path fill-rule="evenodd" clip-rule="evenodd" d="M53.8087 19.0439C59.3409 19.7602 64.2237 21.9086 68.4571 25.4893C77.3839 34.0521 80.0532 44.2734 76.4649 56.1533C71.1288 55.9232 68.5571 58.4623 68.7501 63.7705C69.1253 64.7156 69.5485 65.6271 70.0196 66.5049C65.0056 71.485 58.9509 74.2518 51.8556 74.8057C47.754 74.9359 43.6524 74.9359 39.5509 74.8057C38.6069 74.3824 37.9233 73.6988 37.5001 72.7549C37.1409 70.8691 37.8245 69.502 39.5509 68.6533C38.9712 68.333 38.4503 67.9424 37.9884 67.4814C36.8101 65.2811 37.3308 63.6209 39.5509 62.501C41.3737 62.3707 43.1968 62.3707 45.0196 62.501C45.8546 62.7672 46.6358 63.1254 47.3634 63.5752C49.0343 64.8338 49.8808 66.5264 49.9024 68.6533C57.6565 67.8979 61.8231 63.6336 62.4024 55.8604C62.3698 55.307 62.3374 54.7535 62.3048 54.2002C62.1157 53.0789 61.7575 52.0371 61.2306 51.0752C59.2335 46.7385 55.8481 44.2646 51.0743 43.6533C52.3878 43.4449 53.6899 43.0869 54.9806 42.5791C60.3989 39.785 62.8403 35.3252 62.3048 29.2002C61.3126 24.3137 58.4806 21.0258 53.8087 19.3369C53.5669 19.2021 53.5669 19.1045 53.8087 19.0439Z" fill="#E1322C"/>
<path opacity="0.979" fill-rule="evenodd" clip-rule="evenodd" d="M10.8399 23.3408C11.4538 23.4646 11.9421 23.79 12.3047 24.3174C12.8308 24.9799 13.254 25.6961 13.5742 26.4658C12.4006 26.4334 11.2287 26.466 10.0586 26.5635C9.53637 26.6943 9.08062 26.9223 8.69142 27.2471C7.58695 27.7307 6.61039 28.4143 5.76174 29.2979C3.38543 30.0465 2.57164 29.2328 3.32033 26.8564C5.39178 24.7629 7.8983 23.591 10.8399 23.3408Z" fill="#E1322D"/>
<path opacity="0.989" fill-rule="evenodd" clip-rule="evenodd" d="M13.5746 26.4652C13.8817 27.0156 14.1421 27.6016 14.3559 28.2231C11.7058 28.7608 9.52484 30.0629 7.81289 32.1293C7.6622 33.9922 8.47601 34.6108 10.2543 33.9848C11.1294 32.9947 12.1711 32.2461 13.3793 31.7387C10.5319 37.6602 9.16466 43.9102 9.27773 50.4887C9.29855 55.8295 10.4053 60.9076 12.598 65.7231C13.3991 67.8459 14.4082 69.8641 15.6254 71.7777C23.5982 83.4656 34.6986 89.7156 48.9262 90.5277C46.8186 91.6195 46.2652 93.2471 47.266 95.4106C47.7793 95.9399 48.3326 96.3957 48.9262 96.7777C31.8322 95.9985 18.7138 88.4463 9.5707 74.1215C2.13986 60.9301 0.967979 47.193 6.05507 32.9106C6.82992 30.9705 7.70882 29.0824 8.69179 27.2465C9.08099 26.9217 9.53673 26.6938 10.059 26.5629C11.2291 26.4654 12.4009 26.4328 13.5746 26.4652Z" fill="#A5C2DB"/>
<path fill-rule="evenodd" clip-rule="evenodd" d="M14.3555 28.2217C14.7584 29.2227 15.2141 30.1992 15.7227 31.1514C14.9077 31.225 14.1264 31.4203 13.379 31.7373C12.1708 32.2447 11.1291 32.9934 10.254 33.9834C8.4757 34.6094 7.66189 33.9908 7.81258 32.1279C9.52453 30.0615 11.7055 28.7594 14.3555 28.2217Z" fill="#E03530"/>
<path fill-rule="evenodd" clip-rule="evenodd" d="M15.7223 31.1533C16.0321 31.5771 16.2925 32.033 16.5035 32.5205C13.8117 38.34 12.3469 44.46 12.109 50.8799C11.01 51.7467 10.066 51.6164 9.27699 50.4893C9.16392 43.9107 10.5311 37.6607 13.3785 31.7393C14.126 31.4223 14.9072 31.227 15.7223 31.1533Z" fill="#FED03C"/>
<path fill-rule="evenodd" clip-rule="evenodd" d="M67.6759 31.1523C70.8291 31.0814 72.0986 32.5789 71.4845 35.6445C70.3203 37.3599 68.7904 37.783 66.8947 36.914C65.4466 35.6845 65.1537 34.2197 66.0158 32.5195C66.4925 31.9425 67.0461 31.4869 67.6759 31.1523Z" fill="#EF6323"/>
<path fill-rule="evenodd" clip-rule="evenodd" d="M16.5039 32.5186C21.0648 38.9869 27.3148 42.6652 35.2539 43.5537C40.527 43.6514 45.8004 43.684 51.0742 43.6514C55.848 44.2627 59.2334 46.7365 61.2305 51.0732C61.1078 51.5791 60.8799 52.0348 60.5469 52.4404C58.5176 55.0107 56.2715 57.3545 53.8086 59.4717C53.5482 59.602 53.3529 59.7973 53.2227 60.0576C51.498 61.2252 49.7402 62.3645 47.9492 63.4756C47.7641 63.5699 47.5687 63.6023 47.3633 63.5732C46.6357 63.1234 45.8545 62.7652 45.0195 62.499C43.1967 62.3687 41.3736 62.3687 39.5508 62.499C37.3307 63.6189 36.81 65.2791 37.9883 67.4795C34.1988 68.3471 30.3576 68.7377 26.4648 68.6514C33.3148 67.2035 36.9607 62.9717 37.4023 55.9561C36.8631 49.3287 33.3475 45.2598 26.8555 43.749C20.0434 43.2082 15.3883 46.1053 12.8906 52.4404C11.4541 59.4621 13.8955 64.6053 20.2148 67.8701C17.615 67.3666 15.0759 66.6506 12.5977 65.7217C10.4049 60.9062 9.29816 55.8281 9.27734 50.4873C10.0664 51.6145 11.0104 51.7447 12.1094 50.8779C12.3472 44.458 13.8121 38.3381 16.5039 32.5186Z" fill="#F99F19"/>
<path fill-rule="evenodd" clip-rule="evenodd" d="M84.6681 37.4022C86.9086 36.7473 87.7875 37.5286 87.3048 39.7459C86.4769 42.651 84.5564 43.9206 81.5431 43.5545C80.7439 41.3284 81.3298 39.5055 83.3009 38.0858C83.7746 37.8489 84.2304 37.6211 84.6681 37.4022Z" fill="#4D8B40"/>
<path fill-rule="evenodd" clip-rule="evenodd" d="M14.9415 38.9658C17.0248 39.0641 17.5456 40.008 16.504 41.7979C14.7257 42.4238 13.9119 41.8053 14.0626 39.9424C14.2628 39.5152 14.5557 39.1896 14.9415 38.9658Z" fill="#F04E35"/>
<path fill-rule="evenodd" clip-rule="evenodd" d="M26.4645 68.6522C24.3229 68.8084 22.2395 68.5481 20.2145 67.8709C13.8952 64.6061 11.4538 59.4629 12.8903 52.4412C15.388 46.1061 20.043 43.209 26.8552 43.7498C33.3471 45.2606 36.8628 49.3295 37.402 55.9569C36.9604 62.9725 33.3145 67.2043 26.4645 68.6522Z" fill="#4E8D40"/>
<path fill-rule="evenodd" clip-rule="evenodd" d="M23.1448 45.4104C23.9523 45.2181 24.7987 45.153 25.6839 45.2151C25.6513 48.2106 25.6839 51.2054 25.7816 54.1995C27.9476 52.1317 29.9984 49.9833 31.9339 47.7542C32.4548 48.1448 32.9105 48.6005 33.3011 49.1214C31.072 51.0569 28.9235 53.1077 26.8558 55.2737C29.7847 55.3714 32.7144 55.404 35.6448 55.3714C35.6448 55.0458 35.6448 54.7204 35.6448 54.3948C35.8372 55.2022 35.9023 56.0487 35.8401 56.9339C32.8446 56.9013 29.8499 56.9339 26.8558 57.0315C28.9235 59.1976 31.072 61.2483 33.3011 63.1839C32.9105 63.7048 32.4548 64.1604 31.9339 64.5511C29.9984 62.322 27.9476 60.1735 25.7816 58.1058C25.6839 61.0999 25.6513 64.0946 25.6839 67.0901C24.7987 67.1522 23.9523 67.0872 23.1448 66.8948C23.4704 66.8948 23.7958 66.8948 24.1214 66.8948C24.154 63.9644 24.1214 61.0347 24.0237 58.1058C21.8577 60.1735 19.8069 62.322 17.8714 64.5511C17.3506 64.1604 16.8948 63.7048 16.5042 63.1839C18.7334 61.2483 20.8817 59.1976 22.9495 57.0315C19.9554 56.9339 16.9607 56.9013 13.9651 56.9339C13.903 56.0487 13.9681 55.2022 14.1605 54.3948C14.1605 54.7204 14.1605 55.0458 14.1605 55.3714C17.0909 55.404 20.0206 55.3714 22.9495 55.2737C20.8817 53.1077 18.7334 51.0569 16.5042 49.1214C16.8948 48.6005 17.3506 48.1448 17.8714 47.7542C19.8069 49.9833 21.8577 52.1317 24.0237 54.1995C24.1214 51.2706 24.154 48.3409 24.1214 45.4104C23.7958 45.4104 23.4704 45.4104 23.1448 45.4104Z" fill="#5FAA45"/>
<path fill-rule="evenodd" clip-rule="evenodd" d="M23.1445 45.4092C23.4701 45.4092 23.7955 45.4092 24.1211 45.4092C24.1537 48.3396 24.1211 51.2693 24.0234 54.1982C21.8574 52.1305 19.8066 49.982 17.8711 47.7529C19.4116 46.4945 21.1695 45.7133 23.1445 45.4092Z" fill="#90C73C"/>
<path fill-rule="evenodd" clip-rule="evenodd" d="M25.6836 45.2158C28.0287 45.4541 30.1121 46.3004 31.9336 47.7549C29.9981 49.984 27.9473 52.1324 25.7813 54.2002C25.6836 51.2061 25.651 48.2113 25.6836 45.2158Z" fill="#90C73C"/>
<path fill-rule="evenodd" clip-rule="evenodd" d="M96.7773 48.9247C96.7259 65.7933 89.89 79.1072 76.2695 88.8662C67.9978 94.3681 58.8833 97.0048 48.9257 96.7763C48.3322 96.3943 47.7788 95.9384 47.2656 95.4091C46.2648 93.2456 46.8181 91.6181 48.9257 90.5263C54.7402 90.5663 60.339 89.4921 65.7226 87.3037C81.8107 79.6324 90.0791 66.8394 90.5273 48.9247C90.8619 48.2949 91.3175 47.7413 91.8945 47.2646C94.058 46.2638 95.6855 46.8171 96.7773 48.9247Z" fill="#D6E5EF"/>
<path fill-rule="evenodd" clip-rule="evenodd" d="M16.5039 49.1221C18.7331 51.0576 20.8814 53.1084 22.9492 55.2744C20.0203 55.3721 17.0906 55.4047 14.1602 55.3721C14.1602 55.0465 14.1602 54.7211 14.1602 54.3955C14.4643 52.4205 15.2456 50.6627 16.5039 49.1221Z" fill="#90C73C"/>
<path fill-rule="evenodd" clip-rule="evenodd" d="M33.3008 49.1221C34.5582 50.6609 35.3395 52.4188 35.6445 54.3955C35.6445 54.7211 35.6445 55.0465 35.6445 55.3721C32.7141 55.4047 29.7844 55.3721 26.8555 55.2744C28.9232 53.1084 31.0717 51.0576 33.3008 49.1221Z" fill="#90C73C"/>
<path fill-rule="evenodd" clip-rule="evenodd" d="M44.0428 49.9022C46.8391 49.6558 48.7596 50.8276 49.8045 53.4179C49.9348 54.1991 49.9348 54.9804 49.8045 55.7616C46.6537 56.6257 44.6355 55.4538 43.7498 52.246C43.5533 51.4058 43.651 50.6245 44.0428 49.9022Z" fill="#4D8C40"/>
<path fill-rule="evenodd" clip-rule="evenodd" d="M61.2305 51.0752C61.7574 52.0371 62.1156 53.0789 62.3047 54.2002C62.3373 54.7535 62.3697 55.307 62.4023 55.8604C61.823 63.6336 57.6564 67.8979 49.9023 68.6533C49.8807 66.5264 49.0342 64.8338 47.3633 63.5752C47.5688 63.6043 47.7641 63.5719 47.9492 63.4775C49.7402 62.3664 51.498 61.2271 53.2227 60.0596C52.8674 62.0148 53.6486 62.6984 55.5664 62.1104C56.2049 61.4359 56.3025 60.6873 55.8594 59.8643C55.2654 59.2701 54.5818 59.14 53.8086 59.4736C56.2715 57.3564 58.5176 55.0127 60.5469 52.4424C60.8799 52.0367 61.1078 51.5811 61.2305 51.0752Z" fill="#F4861E"/>
<path fill-rule="evenodd" clip-rule="evenodd" d="M83.8865 52.4404C85.9806 52.8057 86.3712 53.8148 85.0583 55.4678C83.3755 55.8031 82.6269 55.1195 82.8123 53.417C83.1501 53.0455 83.5082 52.7199 83.8865 52.4404Z" fill="#F04D36"/>
<path fill-rule="evenodd" clip-rule="evenodd" d="M76.4647 56.152C77.3424 56.5464 78.1887 57.0346 79.0038 57.6169C79.5625 58.1821 80.0508 58.8007 80.4686 59.4723C81.8323 62.6995 81.1487 65.4013 78.4178 67.5778C75.3344 69.2909 72.535 68.9329 70.0194 66.5036C69.5483 65.6259 69.125 64.7143 68.7498 63.7692C68.5569 58.461 71.1286 55.922 76.4647 56.152Z" fill="#EF6423"/>
<path fill-rule="evenodd" clip-rule="evenodd" d="M13.9648 56.9341C16.9604 56.9015 19.9551 56.9341 22.9492 57.0318C20.8814 59.1978 18.7331 61.2486 16.5039 63.1841C15.0495 61.3626 14.2031 59.2792 13.9648 56.9341Z" fill="#90C73C"/>
<path fill-rule="evenodd" clip-rule="evenodd" d="M35.8398 56.9341C35.6016 59.2792 34.7553 61.3626 33.3008 63.1841C31.0717 61.2486 28.9232 59.1978 26.8555 57.0318C29.8496 56.9341 32.8443 56.9015 35.8398 56.9341Z" fill="#90C73C"/>
<path fill-rule="evenodd" clip-rule="evenodd" d="M23.1445 66.8955C21.1678 66.5904 19.4101 65.8092 17.8711 64.5518C19.8066 62.3227 21.8574 60.1742 24.0234 58.1064C24.1211 61.0354 24.1537 63.965 24.1211 66.8955C23.7955 66.8955 23.4701 66.8955 23.1445 66.8955Z" fill="#90C73C"/>
<path fill-rule="evenodd" clip-rule="evenodd" d="M31.9336 64.5518C30.1121 66.0062 28.0287 66.8525 25.6836 67.0908C25.651 64.0953 25.6836 61.1006 25.7813 58.1064C27.9473 60.1742 29.9981 62.3227 31.9336 64.5518Z" fill="#90C73C"/>
<path fill-rule="evenodd" clip-rule="evenodd" d="M53.2229 60.0599C53.3532 59.7995 53.5485 59.6042 53.8089 59.4739C54.5821 59.1403 55.2657 59.2704 55.8597 59.8646C56.3028 60.6876 56.2052 61.4362 55.5667 62.1107C53.6489 62.6987 52.8677 62.0151 53.2229 60.0599Z" fill="#F06522"/>
<path fill-rule="evenodd" clip-rule="evenodd" d="M27.0509 71.7775C29.9443 71.6434 31.2789 73.0106 31.0549 75.8791C29.9799 77.9143 28.3847 78.4676 26.2697 77.5393C24.8216 76.3098 24.5287 74.8449 25.3908 73.1447C25.8675 72.5678 26.4211 72.1121 27.0509 71.7775Z" fill="#F06422"/>
<path fill-rule="evenodd" clip-rule="evenodd" d="M69.629 71.7782C71.2224 71.6459 71.906 72.3621 71.6798 73.9266C71.245 74.7783 70.5614 75.0713 69.629 74.8055C68.7773 74.3707 68.4843 73.6871 68.7501 72.7547C68.9503 72.3276 69.2433 72.002 69.629 71.7782Z" fill="#F06522"/>
<path fill-rule="evenodd" clip-rule="evenodd" d="M59.6681 81.1522C61.9086 80.4973 62.7875 81.2786 62.3048 83.4959C61.4769 86.401 59.5564 87.6706 56.5431 87.3045C55.7439 85.0784 56.3298 83.2555 58.3009 81.8358C58.7746 81.5989 59.2304 81.3711 59.6681 81.1522Z" fill="#4D8B40"/>
<path fill-rule="evenodd" clip-rule="evenodd" d="M43.4572 83.3019C45.2908 83.1408 45.9744 83.922 45.508 85.6457C44.4996 86.732 43.5883 86.667 42.7736 85.4504C42.5123 84.5636 42.7402 83.8474 43.4572 83.3019Z" fill="#F04D36"/>
</svg>
