<svg width="100" height="100" viewBox="0 0 100 100" fill="none" xmlns="http://www.w3.org/2000/svg">
<path d="M48.6043 63.4679C47.2668 60.1804 44.8251 57.3575 41.6855 55.6846" stroke="#BF360C" stroke-width="20.2455" stroke-miterlimit="10" stroke-linecap="round" stroke-linejoin="round"/>
<path d="M63.1875 52.0834C60.6667 48.3959 53.7687 42.448 47.5625 41.7563" stroke="#BF360C" stroke-width="20.2455" stroke-miterlimit="10" stroke-linecap="round" stroke-linejoin="round"/>
<path d="M55.9834 58.3324C54.0396 54.1699 50.523 50.8533 46.2959 49.072" stroke="#BF360C" stroke-width="20.2455" stroke-miterlimit="10" stroke-linecap="round" stroke-linejoin="round"/>
<path d="M75.9604 69.2582C75.3833 69.5477 67.2729 74.179 64.3771 75.9165C60.6104 77.9457 56.8479 79.3915 54.8208 79.3915C54.6729 79.3915 54.5312 79.3665 54.3854 79.3623H54.3875L54.3667 79.4519C53.7938 82.0832 52.6792 84.579 51.1562 86.7915C53.45 87.2602 55.6688 87.4998 57.7167 87.4998C64.3771 87.4998 69.8792 86.9227 73.9333 85.7623C76.2083 85.4811 80.3042 83.4477 80.3042 83.4477C82.4313 82.3832 83.2396 77.604 77.7708 79.1665C84.8667 72.3311 82.1562 65.4915 75.9604 69.2582Z" fill="#DD2C00"/>
<path d="M50.2978 78.5646C50.2936 78.5625 50.2894 78.5605 50.2853 78.5605C50.2915 78.5626 50.2999 78.5646 50.3061 78.5667C43.4748 76.0376 39.4603 68.1292 39.4749 62.598C39.4874 58.0084 43.3686 51.873 47.0249 48.4126C48.4249 47.0876 50.304 42.7084 46.5207 41.6667C42.8311 34.3313 39.2894 35.2938 35.5249 24.8688C30.1144 22.9167 24.1269 35.6667 24.1269 35.6667C13.4853 64.1209 30.6769 80.4605 46.8332 85.6605L46.829 85.6584C48.5103 83.6417 49.7165 81.2209 50.2978 78.5646Z" fill="#FF5722"/>
<path d="M77.4457 79.363C77.4457 79.363 67.1395 85.0422 52.9999 83.5234C52.4811 84.6651 51.8686 85.763 51.1582 86.7943C53.4499 87.2609 55.6686 87.5005 57.7165 87.5005C64.377 87.5005 69.879 86.9234 73.9332 85.763C76.2082 85.4818 80.304 83.4484 80.304 83.4484C82.4311 82.3839 83.2395 77.6047 77.7707 79.1672C77.7853 79.1526 77.7978 79.138 77.8124 79.1234L77.4457 79.363Z" fill="#FF5722"/>
<path d="M71.6079 24.9146L87.4996 14.4979C87.4996 14.4979 79.1412 16.0042 73.6037 16.6667C75.3412 15.8 82.2142 12.5 81.9225 12.5C44.2787 16.5542 40.0516 18.5813 36.5766 22.0583C31.6537 26.4 42.8121 44.3271 48.6037 43.75C60.21 37.7604 75.6558 30.5083 79.8537 25L71.6079 24.9146Z" fill="#FF5722"/>
<path d="M54.3873 79.3652C54.3852 79.3652 54.3852 79.3652 54.3873 79.3652C53.6811 79.3423 53.0019 79.259 52.3415 79.1319C52.2894 79.1215 52.2352 79.111 52.1852 79.0985C51.5373 78.9652 50.9102 78.7923 50.3061 78.5673C50.2998 78.5652 50.2915 78.5631 50.2852 78.561C50.2894 78.561 50.2936 78.5631 50.2977 78.5652C49.7186 81.2214 48.5123 83.6444 46.8311 85.659L46.8352 85.661C47.4873 85.8735 48.1415 86.0652 48.7894 86.2381C49.3811 86.386 50.1498 86.5673 51.1498 86.7923C51.154 86.7923 51.1561 86.7923 51.1602 86.7944C52.6831 84.5798 53.7977 82.084 54.3706 79.4548L54.3873 79.3652Z" fill="#FFCCBC"/>
<path d="M44.3248 74.3861C43.3685 73.3194 42.5373 72.1486 41.8519 70.9236L41.8539 70.9277C39.4144 73.9027 36.3081 76.2965 32.7769 77.9298C33.956 78.9277 35.1914 79.8423 36.4623 80.6798C39.4269 79.0361 42.0956 76.9007 44.3248 74.3861Z" fill="#FFCCBC"/>
<path d="M39.4727 62.5985C39.4748 61.961 39.5685 61.2902 39.7081 60.6047C36.6269 61.2443 33.4394 61.5839 30.1727 61.5839C27.3373 61.5839 24.5664 61.3172 21.8706 60.8339C22.2623 62.3672 22.7539 63.8318 23.3373 65.2318C25.6248 65.5422 27.9144 65.7506 30.1727 65.7506C33.356 65.7506 36.5477 65.436 39.6789 64.8443C39.5498 64.0672 39.4706 63.311 39.4727 62.5985Z" fill="#FFCCBC"/>
<path d="M41.8519 55.173C42.579 53.8667 43.4206 52.5959 44.3248 51.4313C44.3206 51.4334 44.3186 51.4355 44.3165 51.4396C35.9415 49.9917 28.4373 46.0355 22.6248 40.3313C22.1769 41.923 21.8206 43.475 21.5498 44.9834C27.3415 50.0771 34.2852 53.5605 41.8519 55.173Z" fill="#FFCCBC"/>
<path d="M48.3248 43.7649C43.356 43.7649 34.9269 31.269 35.4102 24.8482C34.0081 24.394 32.5748 24.9149 31.2144 25.9295C31.281 27.5607 31.6644 29.4982 32.5331 31.792C34.8914 38.0295 41.1644 47.1128 47.5019 47.8586C48.2727 46.8211 48.9727 45.1149 48.6685 43.719C48.6477 43.7315 48.6248 43.742 48.606 43.7524C48.5123 43.7586 48.4185 43.7649 48.3248 43.7649Z" fill="#FFCCBC"/>
<path d="M69.4372 20.8333C71.7384 20.8333 73.6038 18.9679 73.6038 16.6667C73.6038 14.3655 71.7384 12.5 69.4372 12.5C67.136 12.5 65.2705 14.3655 65.2705 16.6667C65.2705 18.9679 67.136 20.8333 69.4372 20.8333Z" fill="#3E2723"/>
</svg>
