<svg width="100" height="100" viewBox="0 0 100 100" fill="none" xmlns="http://www.w3.org/2000/svg">
<path d="M29.1667 45.8333C25 45.8333 16.6667 31.25 16.6667 31.25H13.5417H12.5H7.29167H6.25V33.3333H7.29167C13.5417 35.4167 12.5 41.6667 14.5833 54.1667C16.6667 66.6667 27.0833 68.75 27.0833 68.75C27.0833 68.75 33.3333 45.8333 29.1667 45.8333Z" fill="#0097A7"/>
<path d="M68.7503 33.3348C68.7503 28.1785 62.4399 22.916 52.0837 22.916C41.7274 22.916 35.417 28.1785 35.417 33.3348C35.417 38.491 41.7274 41.5806 52.0837 41.5806C62.4399 41.5806 68.7503 38.491 68.7503 33.3348Z" fill="#0097A7"/>
<path d="M74.8812 31.9102L65.7666 34.7498L67.6249 40.7165L76.7416 37.8769C81.127 36.5123 85.8083 38.9665 87.1854 43.3873C87.1958 43.4207 87.9874 46.9498 87.0249 52.8498L86.7604 54.5165C85.7124 61.2207 85.0395 63.6623 81.6479 64.7165L75.6812 66.5769L77.5395 72.5436L83.5062 70.6832C90.9166 68.3769 91.9437 61.8207 92.9374 55.4811L93.1937 53.854C94.4062 46.4082 93.2791 41.8936 93.1458 41.4957C90.752 33.8207 82.5583 29.5186 74.8812 31.9102Z" fill="#0097A7"/>
<path d="M52.0837 22.9183C54.3848 22.9183 56.2503 21.0528 56.2503 18.7516C56.2503 16.4504 54.3848 14.585 52.0837 14.585C49.7825 14.585 47.917 16.4504 47.917 18.7516C47.917 21.0528 49.7825 22.9183 52.0837 22.9183Z" fill="#0097A7"/>
<path d="M70.8331 79.1665C74.9997 79.1665 31.2497 79.1665 35.4164 79.1665C39.5831 79.1665 39.5831 85.4165 39.5831 85.4165H66.6664C66.6664 85.4165 66.6664 79.1665 70.8331 79.1665Z" fill="#4DD0E1"/>
<path d="M33.3333 29.1665C33.3333 29.1665 25 49.9998 25 64.5832C25 79.1665 35.2604 83.3332 47.9167 83.3332H58.3333C70.9896 83.3332 81.25 79.1665 81.25 64.5832C81.25 49.9998 70.8333 29.1665 70.8333 29.1665H33.3333Z" fill="#4DD0E1"/>
</svg>
