<svg width="100" height="100" viewBox="0 0 100 100" fill="none" xmlns="http://www.w3.org/2000/svg">
<path opacity="0.986" fill-rule="evenodd" clip-rule="evenodd" d="M61.4639 6.6001C61.5203 6.6001 61.5769 6.6001 61.6332 6.6001C66.0711 14.1252 69.5424 22.0838 72.0471 30.4758C72.7246 24.0966 73.9663 17.8314 75.7724 11.68C77.7416 17.3465 79.1526 23.1602 80.0057 29.1212C80.3296 31.5435 80.6119 33.9705 80.8524 36.4024C82.9023 30.5336 85.4422 24.8892 88.4723 19.4693C88.6856 20.6366 88.7984 21.8219 88.8109 23.0252C89.038 29.8317 88.6711 36.6049 87.7103 43.345C87.0355 42.6805 86.3582 42.0032 85.6783 41.313C83.0736 38.2613 79.7436 36.6527 75.6877 36.4871C71.0645 36.387 66.7183 37.4313 62.6492 39.6197C62.9567 38.1355 63.2388 36.6679 63.4959 35.2171C63.6461 35.5956 63.8154 35.6802 64.0039 35.4711C63.8855 34.843 63.7162 34.2504 63.4959 33.6931C63.4153 30.9201 62.9638 28.2108 62.1412 25.5652C61.3325 19.255 61.1068 12.9333 61.4639 6.6001Z" fill="#7DB357"/>
<path opacity="0.998" fill-rule="evenodd" clip-rule="evenodd" d="M58.7542 19.8079C56.766 25.0396 54.0285 29.8372 50.5416 34.2011C49.6296 35.3104 48.6417 36.3264 47.5783 37.249C43.4446 41.4315 38.5903 44.5359 33.0158 46.5623C30.7092 45.7192 28.5642 44.5621 26.5812 43.091C24.697 41.6024 22.8627 40.0501 21.0779 38.4344C20.3344 39.0927 19.6853 39.8264 19.1306 40.6357C22.0051 43.4561 25.1659 45.8831 28.6132 47.9169C26.4395 48.611 24.2382 49.1754 22.0093 49.6102C19.5932 47.4485 17.2508 45.1909 14.982 42.837C12.2247 39.7445 9.43071 36.6965 6.6001 33.6931C6.6001 33.5238 6.6001 33.3544 6.6001 33.1851C10.1562 29.5441 13.6275 25.8188 17.014 22.0092C19.6229 19.1723 22.5298 16.717 25.7345 14.6433C32.4348 11.1176 39.4903 10.158 46.901 11.7647C51.1905 12.9527 54.8311 15.1822 57.8228 18.4533C58.175 18.8876 58.4854 19.3392 58.7542 19.8079Z" fill="#955639"/>
<path fill-rule="evenodd" clip-rule="evenodd" d="M37.0798 15.5742C37.3621 15.5742 37.6442 15.5742 37.9265 15.5742C38.0054 16.5887 38.0618 17.6047 38.0958 18.6222C37.144 18.6663 36.2127 18.8357 35.3018 19.1302C34.7153 18.2668 34.3483 17.3073 34.2012 16.2515C35.198 16.1008 36.1576 15.8751 37.0798 15.5742Z" fill="#A26447"/>
<path fill-rule="evenodd" clip-rule="evenodd" d="M30.1367 17.9451C30.2851 17.923 30.398 17.9794 30.4754 18.1144C30.8705 18.9047 31.2657 19.6949 31.6607 20.4851C27.9149 22.9245 24.4154 25.6903 21.1622 28.7823C20.6569 28.1922 20.1207 27.6278 19.5535 27.089C19.3873 26.8758 19.3308 26.6501 19.3842 26.4117C22.7082 23.2253 26.2924 20.4031 30.1367 17.9451Z" fill="#A26447"/>
<path fill-rule="evenodd" clip-rule="evenodd" d="M58.7537 19.8076C60.2287 21.5147 61.3575 23.4338 62.1403 25.5649C62.9629 28.2105 63.4144 30.9198 63.495 33.6928C63.495 34.2008 63.495 34.7088 63.495 35.2168C63.2379 36.6676 62.9558 38.1352 62.6483 39.6194C55.7709 43.2795 50.4653 48.5288 46.7312 55.3672C46.1847 55.397 45.6767 55.5099 45.2072 55.7059C39.9708 56.2931 34.8343 55.8417 29.798 54.3512C26.9306 53.2004 24.334 51.6201 22.0088 49.6099C24.2377 49.1751 26.439 48.6107 28.6127 47.9166C32.9474 50.2139 37.5759 51.3993 42.4979 51.4726C42.4979 50.4566 42.4979 49.4406 42.4979 48.4246C39.1875 48.451 36.0265 47.8303 33.0153 46.562C38.5899 44.5356 43.4441 41.4312 47.5778 37.2487C48.6412 36.3261 49.6291 35.3101 50.5411 34.2008C54.028 29.8369 56.7656 25.0393 58.7537 19.8076Z" fill="#8F4D2E"/>
<path fill-rule="evenodd" clip-rule="evenodd" d="M50.6264 23.0249C53.5919 23.0823 54.7489 24.5499 54.0977 27.4275C53.2434 28.7668 52.0298 29.2465 50.4571 28.8668C48.4322 27.7826 47.9523 26.2303 49.0177 24.2102C49.4902 23.7082 50.0264 23.313 50.6264 23.0249Z" fill="#662E13"/>
<path fill-rule="evenodd" clip-rule="evenodd" d="M47.5779 37.2492C45.4218 38.5178 43.7566 38.0662 42.5826 35.8945C42.2084 34.018 42.9138 32.748 44.6993 32.0845C46.8476 31.8365 48.0895 32.7678 48.4246 34.8785C48.4093 35.7712 48.127 36.5615 47.5779 37.2492Z" fill="#662E13"/>
<path fill-rule="evenodd" clip-rule="evenodd" d="M55.1983 32C58.2964 32.1036 59.397 33.6276 58.5003 36.5719C57.4423 37.9 56.1159 38.267 54.521 37.6726C52.9503 36.5511 52.5833 35.1118 53.4203 33.3547C53.9038 32.7263 54.4964 32.2748 55.1983 32Z" fill="#662E13"/>
<path fill-rule="evenodd" clip-rule="evenodd" d="M85.6778 41.313C87.8729 44.3354 88.7478 47.722 88.3025 51.4729C87.7611 55.9479 86.2654 60.0683 83.8152 63.834C78.1575 72.3958 70.2555 77.6168 60.1088 79.4972C56.5229 79.9815 53.1363 79.3888 49.9489 77.7192C47.0187 75.759 45.1277 73.0497 44.2763 69.5913C43.8139 66.4494 43.9832 63.345 44.7843 60.2781C45.2769 58.7868 45.813 57.3194 46.393 55.8755C46.5455 55.7417 46.6585 55.5724 46.7316 55.3675C50.4657 48.529 55.7714 43.2798 62.6488 39.6197C66.7178 37.4312 71.064 36.387 75.6873 36.487C79.7431 36.6526 83.0732 38.2613 85.6778 41.313Z" fill="#DFDFDD"/>
<path fill-rule="evenodd" clip-rule="evenodd" d="M33.0155 46.5625C36.0268 47.8308 39.1877 48.4515 42.4981 48.4251C42.4981 49.4411 42.4981 50.4571 42.4981 51.4731C37.5761 51.3998 32.9476 50.2144 28.6129 47.9171C25.1657 45.8833 22.0049 43.4563 19.1304 40.6359C19.685 39.8266 20.3342 39.0929 21.0777 38.4346C22.8624 40.0503 24.6968 41.6026 26.581 43.0912C28.564 44.5623 30.7089 45.7194 33.0155 46.5625Z" fill="#743B20"/>
<path fill-rule="evenodd" clip-rule="evenodd" d="M77.38 42.6678C77.6583 42.6316 77.9123 42.6882 78.1419 42.8372C79.6597 45.0549 81.1555 47.2845 82.6292 49.5258C81.7492 52.3968 80.9872 55.3037 80.3433 58.2463C76.8103 61.723 73.2261 65.1378 69.5907 68.4909C65.8614 69.9972 62.108 71.4366 58.3302 72.8088C56.0992 72.1027 53.8697 71.3973 51.6416 70.6922C51.4453 67.6285 51.4172 64.5522 51.5569 61.4636C53.8007 57.9361 56.002 54.3802 58.1608 50.7957C60.8835 48.8276 63.6209 46.8803 66.3734 44.9538C70.0608 44.1895 73.7295 43.4275 77.38 42.6678Z" fill="#C7C7C5"/>
<path fill-rule="evenodd" clip-rule="evenodd" d="M85.6777 41.3135C86.3575 42.0037 87.0349 42.681 87.7097 43.3455C90.7322 47.4465 92.5949 52.0184 93.2976 57.0613C93.2976 59.0369 93.2976 61.0123 93.2976 62.9879C91.9592 71.4797 87.5002 77.7449 79.9204 81.7837C82.9064 76.1878 84.2047 70.2046 83.815 63.8345C86.2653 60.0688 87.761 55.9484 88.3023 51.4734C88.7477 47.7225 87.8727 44.3359 85.6777 41.3135Z" fill="#8F4D2E"/>
<path opacity="0.99" fill-rule="evenodd" clip-rule="evenodd" d="M29.7985 54.3519C34.8347 55.8424 39.9712 56.2938 45.2076 55.7066C45.591 55.8283 45.9861 55.8847 46.393 55.8759C45.813 57.3198 45.2769 58.7872 44.7843 60.2785C43.9832 63.3454 43.8139 66.4498 44.2763 69.5917C45.1277 73.0502 47.0186 75.7595 49.9489 77.7196C50.1183 77.9454 50.2876 78.1713 50.4569 78.397C43.2559 84.5129 35.2974 89.4799 26.5812 93.2981C26.3555 93.2981 26.1296 93.2981 25.9039 93.2981C29.3383 87.6472 33.2893 82.3698 37.7571 77.4656C33.9258 79.2526 30.0312 80.9459 26.0732 82.5456C22.7021 83.7822 19.2872 84.8829 15.8287 85.8475C15.6157 85.7883 15.5593 85.6753 15.6593 85.5089C20.4724 80.5239 25.637 75.9803 31.1531 71.8777C22.9534 72.7738 14.769 72.6326 6.6001 71.4544C6.6001 71.398 6.6001 71.3414 6.6001 71.2851C14.1374 67.5967 22.0395 64.972 30.3065 63.4111C23.1448 61.8894 16.2022 59.6881 9.47873 56.8072C16.1257 55.0641 22.899 54.2457 29.7985 54.3519Z" fill="#5F9548"/>
<path opacity="0.996" fill-rule="evenodd" clip-rule="evenodd" d="M83.815 63.8345C84.2046 70.2045 82.9064 76.1877 79.9204 81.7836C69.4586 86.106 59.6374 84.9772 50.4567 78.397C50.2874 78.1713 50.1181 77.9454 49.9487 77.7196C53.1361 79.3893 56.5227 79.9819 60.1086 79.4976C70.2553 77.6172 78.1573 72.3962 83.815 63.8345Z" fill="#95573A"/>
</svg>
