<svg width="100" height="100" viewBox="0 0 100 100" fill="none" xmlns="http://www.w3.org/2000/svg">
<g clip-path="url(#clip0_190_5423)">
<path d="M95.6251 47.7083C95.6251 47.4999 95.4168 47.2916 95.4168 47.0833C96.6668 45.4166 96.8751 43.1249 96.0418 41.2499C95.0001 38.7499 92.7084 37.2916 90.2084 37.4999C91.0418 35.2083 90.6251 32.4999 88.5418 30.6249C86.6668 28.9583 83.9584 28.5416 81.8751 29.3749C81.8751 27.0833 80.4168 24.7916 78.1251 23.7499C75.8335 22.7083 73.3335 23.1249 71.6668 24.5833C71.0418 22.4999 69.1668 20.6249 66.8751 20.2083C64.5835 19.7916 62.2918 20.6249 60.8335 22.2916C59.7918 20.4166 57.9168 18.9583 55.6251 18.7499C53.3335 18.5416 51.2501 19.7916 50.0001 21.4583C48.7501 19.5833 46.6668 18.5416 44.3751 18.7499C42.0835 18.9583 40.0001 20.2083 39.1668 22.0833C37.7085 20.4166 35.4168 19.5833 33.1251 19.9999C30.8335 20.4166 28.9585 22.2916 28.3335 24.3749C26.6668 22.9166 24.1668 22.4999 21.8751 23.5416C19.5835 24.5833 18.1251 26.6666 18.1251 29.1666C15.8335 28.1249 13.3335 28.5416 11.4585 30.2083C9.58345 31.8749 8.95845 34.5833 9.79179 36.8749C7.29179 36.8749 5.00012 38.3333 3.95845 40.6249C3.12512 42.4999 3.33345 44.7916 4.37512 46.4583C4.37512 46.8749 4.16679 47.0833 4.16679 47.4999C3.95845 48.3333 3.95845 49.1666 4.16679 49.9999C2.91679 52.2916 3.12512 54.9999 5.00012 56.8749C6.87512 59.1666 10.0001 59.5833 12.5001 58.3333C12.7085 60.8333 14.3751 62.9166 16.8751 63.7499C19.1668 64.3749 21.4585 63.9583 23.1251 62.2916C23.9585 64.3749 25.6251 65.8333 27.9168 66.2499C30.2085 66.6666 32.2918 65.8333 33.7501 64.1666C34.5835 66.0416 36.4585 67.4999 38.7501 67.7083C38.9585 67.7083 39.1668 67.7083 39.3751 67.7083C41.4585 67.7083 43.3335 66.6666 44.5835 64.9999C44.7918 65.4166 45.2085 65.8333 45.6251 66.2499C46.8751 67.4999 48.3335 68.1249 50.0001 68.1249C50.0001 68.1249 50.0001 68.1249 50.2085 68.1249C50.2085 68.1249 50.2085 68.1249 50.4168 68.1249C52.0835 68.1249 53.7501 67.4999 54.7918 66.2499C55.2085 65.8333 55.4168 65.4166 55.6251 64.9999C56.8751 66.6666 58.9585 67.9166 61.2501 67.7083C63.5418 67.4999 65.4168 66.0416 66.2501 64.1666C67.7085 65.8333 69.7918 66.6666 72.0834 66.2499C74.3751 65.8333 76.2501 64.3749 76.8751 62.2916C78.5418 63.7499 80.8335 64.3749 83.1251 63.7499C85.6251 62.9166 87.2918 60.8333 87.5001 58.5416C90.0001 59.7916 93.1251 59.3749 95.0001 57.2916C96.8751 55.2083 97.0835 52.2916 95.8335 49.9999C95.8335 49.5833 95.8335 48.7499 95.6251 47.7083Z" fill="#D50000"/>
<path d="M75 53.9595C64.5833 61.8761 50 56.0428 50 56.0428C50 56.0428 35.2083 61.8761 25 53.9595C10.4167 61.6678 0 47.7095 0 47.7095C0 47.7095 6.04167 68.1261 14.5833 76.8761C14.5833 76.8761 31.25 83.1261 50 83.1261C68.75 83.1261 85.4167 76.8761 85.4167 76.8761C93.9583 68.1261 100 47.7095 100 47.7095C100 47.7095 89.7917 61.8761 75 53.9595Z" fill="#FFC107"/>
<path d="M49.9997 56.0428L54.1663 58.1261L49.9997 83.1261L45.833 58.1261L49.9997 56.0428ZM20.833 53.9595L29.1663 81.0428V56.0428L24.9997 53.9595H20.833ZM74.9997 53.9595L70.833 56.0428V81.0428L79.1663 53.9595H74.9997Z" fill="#FFB300"/>
<path d="M98.7501 45.8336C97.7085 45.417 96.4585 46.042 96.0418 47.0836C96.0418 47.0836 94.3751 51.4586 89.5835 53.3336C85.8335 54.792 81.2501 54.3753 75.8335 52.0836L74.7918 51.667L73.7501 52.292C63.3335 59.5836 51.0418 54.3753 50.6251 54.167L50.0001 53.7503L49.1668 54.167C48.9585 54.167 36.6668 59.5836 26.0418 52.292L25.0001 51.667L24.1668 52.0836C18.7501 54.3753 14.1668 54.792 10.4168 53.3336C5.83348 51.4586 3.95848 47.0836 3.95848 47.0836C3.54181 46.042 2.29181 45.417 1.25014 45.8336C0.208475 46.2503 -0.416525 47.5003 0.000141859 48.542C0.000141859 48.7503 2.50014 54.5836 8.75014 57.0836C13.3335 58.9586 18.5418 58.7503 24.5835 56.2503C28.7501 59.5836 33.5418 60.8336 37.7085 60.8336C43.1251 60.8336 47.9168 59.167 50.0001 58.3336C51.8751 59.167 56.6668 60.8336 62.2918 60.8336C66.6668 60.8336 71.4585 59.792 75.4168 56.2503C81.4585 58.542 86.6668 58.9586 91.2501 57.0836C97.5001 54.3753 99.7918 48.7503 100 48.542C100.208 47.5003 99.7918 46.2503 98.7501 45.8336Z" fill="#FF8F00"/>
<path d="M41.6663 32.0822C41.6663 34.9989 39.3747 37.2905 36.458 37.2905C33.5413 37.2905 31.2497 34.9989 31.2497 32.0822C31.2497 29.1655 33.5413 26.8739 36.458 26.8739C39.3747 26.8739 41.6663 29.3739 41.6663 32.0822ZM58.333 24.7905C56.0413 24.7905 54.1663 26.6655 54.1663 28.9572C54.1663 31.2489 56.0413 33.1239 58.333 33.1239C60.6247 33.1239 62.4997 31.2489 62.4997 28.9572C62.4997 26.6655 60.6247 24.7905 58.333 24.7905ZM77.083 33.1239C73.5413 33.1239 70.833 35.8322 70.833 39.3739C70.833 42.9155 73.5413 45.6239 77.083 45.6239C80.6247 45.6239 83.333 42.9155 83.333 39.3739C83.333 36.0405 80.6247 33.1239 77.083 33.1239ZM49.9997 37.2905C46.458 37.2905 43.7497 39.9989 43.7497 43.5405C43.7497 47.0822 46.458 49.7905 49.9997 49.7905C53.5413 49.7905 56.2497 47.0822 56.2497 43.5405C56.2497 40.2072 53.5413 37.2905 49.9997 37.2905ZM19.7913 37.2905C16.8747 37.2905 14.583 39.5822 14.583 42.4989C14.583 45.4155 16.8747 47.7072 19.7913 47.7072C22.708 47.7072 24.9997 45.4155 24.9997 42.4989C24.9997 39.7905 22.708 37.2905 19.7913 37.2905Z" fill="#FF1744"/>
<path d="M31.2497 38.3345C31.2497 41.2511 28.958 43.5428 26.0413 43.5428C23.1247 43.5428 20.833 41.2511 20.833 38.3345C20.833 35.4178 23.1247 33.1261 26.0413 33.1261C28.958 33.1261 31.2497 35.6261 31.2497 38.3345ZM33.333 45.6261C33.333 47.9178 35.208 49.7928 37.4997 49.7928C39.7913 49.7928 41.6663 47.9178 41.6663 45.6261C41.6663 43.3345 39.7913 41.4595 37.4997 41.4595C35.208 41.4595 33.333 43.3345 33.333 45.6261ZM64.583 35.2095C61.0413 35.2095 58.333 37.9178 58.333 41.4595C58.333 45.0011 61.0413 47.7095 64.583 47.7095C68.1247 47.7095 70.833 45.0011 70.833 41.4595C70.833 38.1261 68.1247 35.2095 64.583 35.2095ZM85.4163 45.6261C87.708 45.6261 89.583 43.7511 89.583 41.4595C89.583 39.1678 87.708 37.2928 85.4163 37.2928C83.1247 37.2928 81.2497 39.1678 81.2497 41.4595C81.2497 43.9595 83.1247 45.6261 85.4163 45.6261ZM51.0413 22.7095C48.1247 22.7095 45.833 25.0011 45.833 27.9178C45.833 30.8345 48.1247 33.1261 51.0413 33.1261C53.958 33.1261 56.2497 30.8345 56.2497 27.9178C56.2497 25.0011 53.958 22.7095 51.0413 22.7095Z" fill="#B71C1C"/>
</g>
<defs>
<clipPath id="clip0_190_5423">
<rect width="100" height="100" fill="white"/>
</clipPath>
</defs>
</svg>
