<svg width="100" height="100" viewBox="0 0 100 100" fill="none" xmlns="http://www.w3.org/2000/svg">
<path d="M86.4604 77.4042L86.4583 77.3688C86.4583 77.3688 83.5938 76.173 82.1604 69.923C80.7271 63.673 79.8167 41.8125 70.4417 39.9896C66.5104 43.7855 57.3479 45.8667 50 45.8334C42.65 45.8667 33.4896 43.7855 29.5562 39.9875C20.1813 41.8105 19.2688 63.6709 17.8375 69.9209C16.4063 76.1709 13.5417 77.3688 13.5417 77.3688L13.5396 77.4063C12.9292 77.7667 12.5 78.4042 12.5 79.1667C12.5 79.4834 12.5542 79.7042 12.6458 79.8896C12.7833 80.2605 13.0312 80.5584 13.3396 80.7959L13.3375 80.8334C13.3375 80.8334 22.9167 87.5001 50 87.5001C77.0833 87.5001 86.6646 80.8313 86.6646 80.8313L86.6625 80.7938C86.9708 80.5584 87.2167 80.2584 87.3542 79.8876C87.4479 79.7042 87.5 79.4834 87.5 79.1667C87.5 78.4042 87.0708 77.7667 86.4604 77.4042Z" fill="#FFB300"/>
<path d="M23.0894 24.7844C23.0894 24.7844 28.2102 31.6407 29.556 37.7032C30.2956 41.0282 34.6498 45.8344 49.9998 45.8344C65.3477 45.8344 69.2623 40.0928 66.6664 41.6698C66.2769 41.9032 73.2539 38.4282 77.0831 29.1678L23.0894 24.7844Z" fill="#FFB300"/>
<path d="M29.5581 39.9875C33.4894 43.7855 42.6498 45.8667 49.9998 45.8334C57.3477 45.8667 66.5102 43.7855 70.4435 39.9875" stroke="#795548" stroke-width="22" stroke-linecap="round"/>
<path d="M33.3329 81.2508C33.3329 72.9029 32.9975 66.5654 34.2829 58.2863C34.6475 55.9363 35.1496 53.605 35.8391 51.3279C36.2829 49.8613 36.9642 46.2613 38.3079 45.3696C41.2454 43.4175 43.5392 53.4529 43.9642 55.1738C45.6454 61.9696 45.8621 67.98 45.8329 75.0008" stroke="#795548" stroke-width="22" stroke-linecap="round"/>
<path d="M77.0837 27.0854C81.2503 36.6333 75.2441 41.6687 62.5003 41.6687C49.7545 41.6687 22.917 30.0208 22.917 23.7833C22.917 17.5542 31.2503 12.5 50.0003 12.5C62.7441 12.5 74.5941 21.375 77.0837 27.0854Z" fill="#FF9800"/>
<path d="M68.554 38.4729C67.1665 32.0021 60.8998 22.9167 58.3331 22.9167C56.6206 22.9167 54.6498 25.6021 52.0831 25C49.229 24.0917 45.8331 18.75 43.8644 18.75C40.9206 18.75 36.0644 26.625 33.4248 32.9021C41.1206 36.9042 51.4977 40.5104 59.0706 41.4396C60.2936 41.5896 66.0977 41.5208 68.554 38.4729Z" fill="white"/>
<path d="M58.3333 31.2511C59.4839 31.2511 60.4167 30.3184 60.4167 29.1678C60.4167 28.0172 59.4839 27.0845 58.3333 27.0845C57.1827 27.0845 56.25 28.0172 56.25 29.1678C56.25 30.3184 57.1827 31.2511 58.3333 31.2511Z" fill="#BDBDBD"/>
<path d="M60.4163 37.5011C61.5669 37.5011 62.4997 36.5684 62.4997 35.4178C62.4997 34.2672 61.5669 33.3345 60.4163 33.3345C59.2657 33.3345 58.333 34.2672 58.333 35.4178C58.333 36.5684 59.2657 37.5011 60.4163 37.5011Z" fill="#BDBDBD"/>
</svg>
