<svg width="100" height="100" viewBox="0 0 100 100" fill="none" xmlns="http://www.w3.org/2000/svg">
<path d="M41.0415 64.9997L12.2915 89.3747C11.4581 90.208 9.79145 88.7497 10.8331 87.9164L34.9998 59.1664C34.9998 58.958 41.0415 59.583 41.0415 64.9997Z" fill="#9575CD"/>
<path d="M84.7913 34.1665C87.708 31.6665 89.583 27.9165 89.583 23.9582C89.583 16.4582 83.5413 10.4165 76.0413 10.4165C72.2913 10.4165 68.958 11.8748 66.458 14.3748C64.583 12.0832 61.6663 10.4165 58.333 10.4165C52.9163 10.4165 48.5413 14.5832 48.1247 19.7915C46.458 19.1665 44.583 18.7498 42.708 18.7498C34.1663 18.7498 27.083 25.8332 27.083 34.3748C27.083 35.4165 27.2913 36.6665 27.4997 37.7082C23.7497 38.5415 20.833 41.8748 20.833 45.8332C20.833 48.3332 21.8747 50.4165 23.5413 51.8748C21.8747 54.3748 20.833 57.2915 20.833 60.4165C20.833 68.5415 27.2913 74.9998 35.4163 74.9998C38.7497 74.9998 41.8747 73.9582 44.1663 72.0832C47.2913 75.2082 51.458 77.0832 56.2497 77.0832C64.1663 77.0832 70.833 71.4582 72.4997 63.9582C77.4997 62.2915 81.2497 57.7082 81.2497 52.0832C81.2497 51.4582 81.2497 50.6248 81.0413 49.9998H81.2497C85.833 49.9998 89.583 46.2498 89.583 41.6665C89.583 38.3332 87.708 35.6248 84.7913 34.1665Z" fill="#F8BBD0"/>
<path d="M50 60.4168H54.1667C54.1667 54.5835 58.75 50.0002 64.5833 50.0002V45.8335C56.4583 45.8335 50 52.2918 50 60.4168Z" fill="#F48FB1"/>
<path d="M64.1663 29.3752C66.8747 27.5002 68.7497 24.3752 68.7497 20.8335H64.583C64.583 24.3752 61.8747 27.0835 58.333 27.0835V31.2502C60.6247 31.2502 62.4997 33.1252 62.4997 35.4168H66.6663C66.6663 33.1252 65.6247 31.0418 64.1663 29.3752Z" fill="#F48FB1"/>
<path d="M37.5 37.5V41.6667C39.7917 41.6667 41.6667 43.5417 41.6667 45.8333H45.8333C45.8333 41.25 42.0833 37.5 37.5 37.5Z" fill="#F48FB1"/>
</svg>
