<svg width="100" height="100" viewBox="0 0 100 100" fill="none" xmlns="http://www.w3.org/2000/svg">
<path d="M84.3682 29.7265L67.7202 32.2632L70.5662 15.9998L79.4362 20.4885L84.3682 29.7265Z" fill="#17ABE1"/>
<path d="M29.7267 84.3687L32.2627 67.7207L16 70.5653L20.488 79.4353L29.7267 84.3687Z" fill="#17ABE1"/>
<path d="M67.8136 27.2645L72.8176 32.2686C76.965 36.4159 76.943 43.1433 72.831 47.2539C72.8243 47.2606 72.8243 47.2606 72.8176 47.2686C45.4783 74.6072 47.2763 72.8572 46.6016 73.3919C42.607 76.5886 36.8163 76.2686 33.1996 72.6513L27.431 66.8832C23.5003 62.9519 23.5183 56.5599 27.439 52.6392C55.2656 24.7972 53.745 26.3632 54.823 25.6892C58.8697 23.1619 64.289 23.7399 67.8136 27.2645Z" fill="#F79532"/>
<path d="M31.207 48.8853L34.483 45.6259L65.7504 54.3666L62.483 57.6353L31.207 48.8853Z" fill="#8CC2E9"/>
<path d="M41.5288 38.5239L44.8242 35.1906L75.1615 43.7279C74.6522 45.0039 73.8788 46.2112 72.8375 47.2539L41.5288 38.5239Z" fill="#8CC2E9"/>
<path d="M51.2212 28.8621L52.8185 27.2647C53.4332 26.65 54.1079 26.1241 54.8279 25.6908L70.6832 30.1307L72.8212 32.2688C73.7899 33.2361 74.5325 34.3521 75.0425 35.5381L51.2212 28.8621Z" fill="#8CC2E9"/>
<path d="M55.7914 64.2947L52.5207 67.5654L24.4907 59.7128C24.4907 58.3621 24.7681 57.0201 25.3241 55.7594L55.7914 64.2947Z" fill="#8CC2E9"/>
<path d="M46.6013 73.3921C44.5027 75.0735 41.8993 75.7855 39.372 75.5542H39.3567C36.828 75.2362 34.7967 74.2495 33.1993 72.6515L29.0127 68.4655L46.6013 73.3921Z" fill="#8CC2E9"/>
</svg>
