<svg width="100" height="100" viewBox="0 0 100 100" fill="none" xmlns="http://www.w3.org/2000/svg">
<path d="M68.75 89.5833H31.25V87.5C31.25 87.5 47.9167 85.4167 47.9167 81.25C47.9167 77.0833 52.0833 77.0833 52.0833 81.25C52.0833 85.4167 68.75 87.5 68.75 87.5V89.5833Z" fill="#90CAF9"/>
<path d="M56.2495 68.0718C60.4161 68.0718 39.5828 68.1072 43.7495 68.1072C47.9161 68.1072 47.9161 81.2489 47.9161 81.2489H52.0828C52.0828 81.2489 52.0828 68.0718 56.2495 68.0718Z" fill="#90CAF9"/>
<path d="M33.5332 10.4155C31.4749 22.9155 -2.48967 68.7489 49.9999 68.7489C102.489 68.7489 68.527 22.9155 66.4666 10.4155H33.5332Z" fill="#90CAF9"/>
<path d="M21.8308 41.6655C18.6058 55.7239 22.0162 68.7489 49.9996 68.7489C77.9829 68.7489 81.3912 55.7239 78.1683 41.6655H21.8308Z" fill="#9B2310"/>
<path d="M32.0684 41.6678C33.7184 35.1407 36.3913 28.4345 38.6768 23.3616C40.1997 19.9782 41.5122 17.0657 42.3768 14.5845H36.5018C35.6372 17.0657 34.3268 19.9782 32.8018 23.3616C30.308 28.8928 27.3538 35.4699 25.7705 41.6678H32.0684Z" fill="#FAFAFA"/>
<path d="M32.0684 41.6655H25.7704C24.2663 47.5447 23.9934 53.0801 26.5538 57.0426C28.0621 59.3759 30.6267 61.1509 34.1371 62.403C33.4809 61.7864 32.8934 61.1343 32.4288 60.4155C29.6454 56.1093 30.21 49.0009 32.0684 41.6655Z" fill="#FF3D00"/>
</svg>
