<svg width="100" height="100" viewBox="0 0 100 100" fill="none" xmlns="http://www.w3.org/2000/svg">
<path fill-rule="evenodd" clip-rule="evenodd" d="M49.9023 12.4019C49.935 16.9597 49.9023 21.517 49.8047 26.0738C48.9018 30.6879 46.1348 33.3896 41.5039 34.1793C36.4912 34.2769 31.4783 34.3096 26.4648 34.2769C26.7906 24.6137 31.3479 17.8102 40.1367 13.8668C43.2793 12.6377 46.5346 12.1495 49.9023 12.4019Z" fill="#AED662"/>
<path opacity="0.997" fill-rule="evenodd" clip-rule="evenodd" d="M49.9025 12.4017C59.7773 12.1448 66.9715 16.3766 71.4846 25.097C73.6676 30.1673 73.8953 35.3104 72.1682 40.5266C64.4285 40.555 58.3088 43.68 53.8088 49.9016C51.2047 49.9016 48.6004 49.9016 45.9963 49.9016C41.4467 43.7854 35.327 40.6604 27.6369 40.5266C26.7705 38.5378 26.3799 36.4544 26.465 34.2766C31.4785 34.3093 36.4914 34.2766 41.5041 34.179C46.135 33.3893 48.902 30.6876 49.8049 26.0735C49.9025 21.5167 49.9352 16.9594 49.9025 12.4017Z" fill="#5FAA46"/>
<path fill-rule="evenodd" clip-rule="evenodd" d="M26.4648 40.527C26.4648 41.5686 26.4648 42.6104 26.4648 43.652C17.9688 43.4553 11.7514 47.101 7.8125 54.5895C6.75244 57.086 6.19906 59.6902 6.15234 62.402C5.11068 62.402 4.069 62.402 3.02734 62.402C3.35311 52.7387 7.91039 45.9352 16.6992 41.9918C19.8418 40.7627 23.0971 40.2744 26.4648 40.527Z" fill="#FE8672"/>
<path opacity="0.994" fill-rule="evenodd" clip-rule="evenodd" d="M26.4647 40.5281C26.8554 40.5281 27.246 40.5281 27.6366 40.5281C35.3267 40.6619 41.4464 43.7869 45.996 49.9031C48.0702 53.0068 49.3724 56.3921 49.9022 60.0593C49.9022 60.8406 49.9022 61.6218 49.9022 62.4031C49.9022 62.7287 49.9022 63.0541 49.9022 63.3796C49.7198 63.5882 49.6546 63.8486 49.7069 64.1609C48.4231 72.0201 43.8659 76.6425 36.035 78.0281C29.3944 78.0281 22.7538 78.0281 16.1132 78.0281C8.95435 76.5007 4.62491 72.1386 3.12489 64.9421C3.02743 64.0982 2.99487 63.2519 3.02724 62.4031C4.0689 62.4031 5.11058 62.4031 6.15224 62.4031C6.60952 68.6214 9.79964 72.6904 15.7225 74.6101C22.4206 74.9289 29.1263 74.9941 35.8397 74.8054C42.0165 73.6417 45.6298 69.9632 46.6796 63.7703C46.9108 55.7353 43.5579 49.7132 36.621 45.7039C33.402 44.2017 30.0167 43.5181 26.4647 43.6531C26.4647 42.6115 26.4647 41.5697 26.4647 40.5281Z" fill="#FE6955"/>
<path fill-rule="evenodd" clip-rule="evenodd" d="M72.168 40.5281C72.5586 40.5281 72.9492 40.5281 73.3398 40.5281C73.3725 45.216 73.3398 49.9035 73.2422 54.5906C72.233 58.7248 69.6615 61.2962 65.5273 62.3054C60.3193 62.4031 55.1111 62.4357 49.9023 62.4031C49.9023 61.6218 49.9023 60.8406 49.9023 60.0593C50.4002 56.3503 51.7023 52.9648 53.8086 49.9031C58.3086 43.6814 64.4283 40.5564 72.168 40.5281Z" fill="#FED13C"/>
<path opacity="0.998" fill-rule="evenodd" clip-rule="evenodd" d="M73.3398 40.5264C82.4963 40.1719 89.4299 43.8828 94.1406 51.6592C97.0252 57.0437 97.5461 62.6428 95.7031 68.456C93.341 73.716 89.3371 76.906 83.6914 78.0264C76.8471 78.0889 70.0111 78.0238 63.1836 77.831C55.8074 76.3793 51.4453 71.9521 50.0977 64.5498C50.0943 64.1465 50.0293 63.7559 49.9023 63.3779C49.9023 63.0523 49.9023 62.7269 49.9023 62.4014C55.1111 62.434 60.3193 62.4014 65.5273 62.3037C69.6615 61.2945 72.233 58.723 73.2422 54.5889C73.3398 49.9017 73.3725 45.2142 73.3398 40.5264Z" fill="#F9A019"/>
<path fill-rule="evenodd" clip-rule="evenodd" d="M26.4648 43.6527C30.0168 43.5177 33.4021 44.2013 36.6211 45.7035C43.558 49.7128 46.9109 55.7349 46.6797 63.7699C45.6299 69.9628 42.0166 73.6414 35.8398 74.805C29.1264 74.9937 22.4207 74.9285 15.7227 74.6097C9.79975 72.69 6.60963 68.621 6.15234 62.4027C6.19906 59.691 6.75244 57.0867 7.8125 54.5902C11.7514 47.1017 17.9688 43.456 26.4648 43.6527Z" fill="#A44F22"/>
<path fill-rule="evenodd" clip-rule="evenodd" d="M45.9961 49.9031C48.6002 49.9031 51.2045 49.9031 53.8086 49.9031C51.7023 52.9648 50.4002 56.3503 49.9023 60.0593C49.3725 56.3921 48.0703 53.0068 45.9961 49.9031Z" fill="#A6C2D9"/>
<path fill-rule="evenodd" clip-rule="evenodd" d="M17.4805 50.4875C19.0734 50.3548 19.757 51.0711 19.5312 52.6359C18.4902 53.9662 17.5137 53.9009 16.6015 52.4406C16.4918 51.607 16.7847 50.9558 17.4805 50.4875Z" fill="#8D3C14"/>
<path fill-rule="evenodd" clip-rule="evenodd" d="M25.4881 60.2532C27.0784 60.2495 27.6967 61.0307 27.3436 62.5969C26.2873 63.6735 25.3108 63.6085 24.4139 62.4016C24.253 61.4215 24.611 60.7053 25.4881 60.2532Z" fill="#8D3C14"/>
<path fill-rule="evenodd" clip-rule="evenodd" d="M38.1837 61.4266C40.0395 61.23 40.7231 62.0112 40.2344 63.7704C39.1628 64.8706 38.2512 64.7403 37.5001 63.3798C37.3403 62.5925 37.5682 61.9415 38.1837 61.4266Z" fill="#8C3C14"/>
<path fill-rule="evenodd" clip-rule="evenodd" d="M49.9022 63.3782C50.0292 63.7561 50.0942 64.1467 50.0976 64.55C49.9673 64.4198 49.8372 64.2897 49.7069 64.1594C49.6546 63.8471 49.7198 63.5868 49.9022 63.3782Z" fill="#D1A789"/>
<path fill-rule="evenodd" clip-rule="evenodd" d="M49.707 64.1594C49.8373 64.2897 49.9674 64.4198 50.0977 64.55C51.4453 71.9524 55.8074 76.3795 63.1836 77.8313C54.1672 78.0264 45.1178 78.0915 36.0352 78.0266C43.866 76.6411 48.4232 72.0186 49.707 64.1594Z" fill="#A6C2DA"/>
<path opacity="0.998" fill-rule="evenodd" clip-rule="evenodd" d="M63.1836 77.8313C70.0111 78.0241 76.8471 78.0891 83.6914 78.0266C87.4029 77.994 91.1138 78.0266 94.8242 78.1243C96.5785 78.9979 97.1971 80.3977 96.6797 82.3235C96.3217 83.2024 95.7031 83.8209 94.8242 84.179C91.5045 84.2766 88.1842 84.3092 84.8633 84.2766C61.556 84.2766 38.2486 84.2766 14.9414 84.2766C11.6204 84.3092 8.30012 84.2766 4.98045 84.179C3.22611 83.3053 2.60762 81.9055 3.12498 79.9797C3.48305 79.1008 4.10154 78.4823 4.98045 78.1243C8.69082 78.0266 12.4018 77.994 16.1133 78.0266C22.7539 78.0266 29.3945 78.0266 36.0351 78.0266C45.1178 78.0915 54.1672 78.0264 63.1836 77.8313Z" fill="#D7E5EF"/>
<path opacity="0.997" fill-rule="evenodd" clip-rule="evenodd" d="M14.9414 84.2781C38.2486 84.2781 61.5561 84.2781 84.8633 84.2781C83.0791 86.0294 81.2561 87.7546 79.3945 89.4539C78.7016 89.833 77.9855 90.1583 77.2461 90.4304C59.017 90.5607 40.7877 90.5607 22.5586 90.4304C21.7229 90.1427 20.9416 89.7521 20.2148 89.2585C18.4184 87.6244 16.6606 85.9642 14.9414 84.2781Z" fill="#A5C3DC"/>
</svg>
