<svg width="100" height="100" viewBox="0 0 100 100" fill="none" xmlns="http://www.w3.org/2000/svg">
<path opacity="0.973" fill-rule="evenodd" clip-rule="evenodd" d="M70.0195 10.4495C69.2383 9.73333 68.457 9.0172 67.6758 8.30104C67.6107 8.17083 67.5455 8.04063 67.4805 7.91042C69.0687 6.42001 70.6312 4.89007 72.168 3.32058C74.5443 2.57188 75.358 3.38567 74.6094 5.76198C73.0398 7.29878 71.51 8.86128 70.0195 10.4495Z" fill="#545A6E"/>
<path fill-rule="evenodd" clip-rule="evenodd" d="M67.4802 7.91016C67.5453 8.04038 67.6105 8.17057 67.6755 8.30079C68.0613 10.328 67.215 11.4999 65.1365 11.8164C64.8761 11.6211 64.6156 11.4258 64.3552 11.2305C63.1765 9.85624 61.8744 8.61924 60.449 7.51954C59.8914 6.91565 59.7287 6.1995 59.9607 5.3711C60.514 4.81772 61.0675 4.26432 61.6208 3.71094C62.1417 3.58073 62.6624 3.58073 63.1833 3.71094C64.59 5.15024 66.0222 6.54999 67.4802 7.91016Z" fill="#FED005"/>
<path fill-rule="evenodd" clip-rule="evenodd" d="M60.4492 7.5193C61.8746 8.619 63.1767 9.856 64.3554 11.2302C64.2238 14.0089 62.8566 15.9946 60.2539 17.1873C59.4621 17.3227 58.6808 17.2902 57.9101 17.0896C57.2064 16.6476 56.5554 16.1268 55.957 15.5271C55.213 14.8808 54.6597 14.0996 54.2968 13.1834C54.1236 12.2904 54.2539 11.4441 54.6874 10.6443C55.6314 9.70029 56.5755 8.75627 57.5195 7.81227C58.4595 7.31219 59.4361 7.21453 60.4492 7.5193Z" fill="#90C73C"/>
<path opacity="0.993" fill-rule="evenodd" clip-rule="evenodd" d="M67.6758 8.30078C68.457 9.01693 69.2383 9.73307 70.0195 10.4492C71.3797 11.9072 72.7795 13.3395 74.2187 14.7461C74.349 15.2669 74.349 15.7878 74.2187 16.3086C73.6654 16.862 73.1119 17.4154 72.5586 17.9688C71.7303 18.2008 71.0141 18.0381 70.4102 17.4805C68.724 15.5337 66.9662 13.6456 65.1367 11.8164C67.2152 11.4999 68.0615 10.328 67.6758 8.30078Z" fill="#F9A019"/>
<path opacity="0.988" fill-rule="evenodd" clip-rule="evenodd" d="M64.3555 11.2305C64.6158 11.4258 64.8764 11.6211 65.1367 11.8164C66.9662 13.6456 68.724 15.5337 70.4102 17.4805C70.7148 18.4936 70.6172 19.4702 70.1172 20.4102C69.1732 21.3541 68.2291 22.2982 67.2852 23.2422C66.1133 23.8932 64.9414 23.8932 63.7695 23.2422C63.3393 22.7789 62.8834 22.3557 62.4023 21.9727C60.977 20.2865 59.4795 18.6588 57.9102 17.0898C58.6809 17.2904 59.4621 17.323 60.2539 17.1875C62.8566 15.9948 64.2238 14.0092 64.3555 11.2305Z" fill="#5FA945"/>
<path fill-rule="evenodd" clip-rule="evenodd" d="M54.5898 15.5273C54.6223 17.3514 54.5898 19.1743 54.4922 20.9961C54.1342 22.1354 53.3854 22.8842 52.2461 23.2422C50.4244 23.3398 48.6014 23.3723 46.7773 23.3398C47.1029 18.457 49.707 15.8529 54.5898 15.5273Z" fill="#F4816C"/>
<path opacity="0.993" fill-rule="evenodd" clip-rule="evenodd" d="M54.5898 15.5273C55.0455 15.5273 55.5014 15.5273 55.957 15.5273C56.5555 16.127 57.2064 16.6478 57.9102 17.0898C59.4795 18.6588 60.977 20.2865 62.4023 21.9727C62.7924 26.6338 60.774 29.6611 56.3477 31.0547C55.308 31.1522 54.2664 31.1848 53.2227 31.1523C51.6797 29.7633 50.1822 28.3311 48.7305 26.8555C48.0795 26.1393 47.4283 25.4232 46.7773 24.707C46.7773 24.2514 46.7773 23.7955 46.7773 23.3398C48.6014 23.3723 50.4244 23.3398 52.2461 23.2422C53.3854 22.8842 54.1342 22.1354 54.4922 20.9961C54.5898 19.1743 54.6223 17.3514 54.5898 15.5273Z" fill="#EF4B37"/>
<path opacity="0.973" fill-rule="evenodd" clip-rule="evenodd" d="M91.8945 32.3245C91.1133 31.6083 90.332 30.8922 89.5508 30.176C89.4857 30.0458 89.4205 29.9157 89.3555 29.7854C90.9437 28.295 92.5062 26.7651 94.043 25.1956C96.4193 24.4469 97.233 25.2606 96.4844 27.637C94.9148 29.1737 93.385 30.7362 91.8945 32.3245Z" fill="#545A6E"/>
<path fill-rule="evenodd" clip-rule="evenodd" d="M89.3552 29.7852C89.4203 29.9155 89.4855 30.0456 89.5505 30.1758C89.9363 32.203 89.09 33.3749 87.0115 33.6915C86.7511 33.4961 86.4906 33.3008 86.2302 33.1055C85.0515 31.7313 83.7494 30.4944 82.324 29.3946C81.7664 28.7907 81.6037 28.0745 81.8357 27.2461C82.389 26.6928 82.9425 26.1393 83.4958 25.586C84.0167 25.4557 84.5374 25.4557 85.0583 25.586C86.465 27.0252 87.8972 28.425 89.3552 29.7852Z" fill="#FED005"/>
<path opacity="0.988" fill-rule="evenodd" clip-rule="evenodd" d="M48.7305 26.8555C50.1822 28.3311 51.6797 29.7633 53.2227 31.1523C53.9666 31.7986 54.5199 32.5799 54.8828 33.4961C55.0561 34.3891 54.9258 35.2354 54.4922 36.0352C53.5482 36.9791 52.6041 37.9232 51.6602 38.8672C50.6576 39.3832 49.6158 39.4809 48.5352 39.1602C48.8559 40.2408 48.7582 41.2826 48.2422 42.2852C47.2982 43.2291 46.3541 44.1732 45.4102 45.1172C44.4076 45.6332 43.3658 45.7309 42.2852 45.4102C42.2852 45.2799 42.2201 45.2148 42.0898 45.2148C40.0117 43.202 37.9283 41.1838 35.8398 39.1602C35.8398 39.0951 35.8398 39.0299 35.8398 38.9648C37.3797 39.4324 38.7469 39.1395 39.9414 38.0859C40.9018 37.302 41.6504 36.3578 42.1875 35.2539C42.3875 34.3559 42.2898 33.5094 41.8945 32.7148C42.1047 32.4891 42.3 32.5217 42.4805 32.8125C43.9117 33.1584 45.1486 32.8328 46.1914 31.8359C47.1518 31.052 47.9004 30.1078 48.4375 29.0039C48.4721 28.2508 48.5697 27.5346 48.7305 26.8555Z" fill="#A55023"/>
<path fill-rule="evenodd" clip-rule="evenodd" d="M46.7772 24.707C47.4281 25.4232 48.0793 26.1392 48.7303 26.8554C48.5695 27.5345 48.4719 28.2507 48.4373 29.0039C47.9002 30.1078 47.1516 31.0519 46.1912 31.8359C45.1484 32.8328 43.9115 33.1583 42.4803 32.8125C42.2998 32.5216 42.1045 32.489 41.8943 32.7148C42.2897 33.5093 42.3873 34.3558 42.1873 35.2539C41.6502 36.3578 40.9016 37.3019 39.9412 38.0859C38.7467 39.1394 37.3795 39.4324 35.8397 38.9648C34.7328 37.9882 33.6912 36.9466 32.7147 35.8398C32.7147 35.7095 32.6496 35.6445 32.5193 35.6445C32.1986 34.5638 32.2963 33.522 32.8123 32.5195C33.7563 31.5755 34.7004 30.6314 35.6443 29.6875C36.6469 29.1714 37.6887 29.0738 38.7693 29.3945C38.4486 28.3138 38.5463 27.272 39.0623 26.2695C40.0063 25.3255 40.9504 24.3814 41.8943 23.4375C43.0662 22.7865 44.2381 22.7865 45.41 23.4375C45.8402 23.9007 46.2961 24.324 46.7772 24.707Z" fill="#D16D28"/>
<path fill-rule="evenodd" clip-rule="evenodd" d="M82.3242 29.3942C83.7496 30.494 85.0517 31.731 86.2304 33.1052C86.0988 35.8839 84.7316 37.8696 82.1289 39.0622C81.3371 39.1978 80.5558 39.1651 79.7851 38.9646C79.0814 38.5226 78.4304 38.0017 77.832 37.4021C77.088 36.7558 76.5347 35.9745 76.1718 35.0583C75.9986 34.1653 76.1289 33.319 76.5624 32.5192C77.5064 31.5753 78.4505 30.6312 79.3945 29.6872C80.3345 29.1872 81.3111 29.0896 82.3242 29.3942Z" fill="#90C73C"/>
<path opacity="0.993" fill-rule="evenodd" clip-rule="evenodd" d="M89.5508 30.1758C90.332 30.892 91.1133 31.608 91.8945 32.3242C93.2547 33.7822 94.6545 35.2145 96.0937 36.6211C96.224 37.142 96.224 37.6627 96.0937 38.1836C95.5404 38.7369 94.9869 39.2904 94.4336 39.8438C93.6053 40.0758 92.8891 39.9131 92.2852 39.3555C90.599 37.4086 88.8412 35.5207 87.0117 33.6914C89.0902 33.3748 89.9365 32.2029 89.5508 30.1758Z" fill="#F9A019"/>
<path opacity="0.988" fill-rule="evenodd" clip-rule="evenodd" d="M86.2305 33.1055C86.4908 33.3008 86.7514 33.4961 87.0117 33.6914C88.8412 35.5207 90.599 37.4086 92.2852 39.3555C92.5898 40.3686 92.4922 41.3451 91.9922 42.2852C91.0482 43.2291 90.1041 44.1732 89.1602 45.1172C87.9883 45.7682 86.8164 45.7682 85.6445 45.1172C85.2143 44.6539 84.7584 44.2307 84.2773 43.8477C82.852 42.1615 81.3545 40.5338 79.7852 38.9648C80.5559 39.1654 81.3371 39.198 82.1289 39.0625C84.7316 37.8699 86.0988 35.8842 86.2305 33.1055Z" fill="#5FA945"/>
<path fill-rule="evenodd" clip-rule="evenodd" d="M32.5192 35.6446C32.6495 35.6446 32.7146 35.7096 32.7146 35.8399C33.6911 36.9467 34.7327 37.9883 35.8396 38.9649C35.8396 39.0299 35.8396 39.0952 35.8396 39.1602C36.2509 40.5198 36.023 41.7569 35.156 42.8711C34.3163 43.9073 33.3071 44.7211 32.1286 45.3126C31.3755 45.3471 30.6593 45.4448 29.9802 45.6055C28.606 44.4268 27.369 43.1247 26.2692 41.6993C25.9646 40.6862 26.0622 39.7096 26.5622 38.7696C27.5062 37.8256 28.4503 36.8815 29.3942 35.9376C30.3968 35.4215 31.4386 35.3239 32.5192 35.6446Z" fill="#90C73C"/>
<path fill-rule="evenodd" clip-rule="evenodd" d="M76.4648 37.4023C76.4973 39.2264 76.4648 41.0494 76.3672 42.8711C76.0092 44.0104 75.2604 44.7592 74.1211 45.1172C72.2994 45.2148 70.4764 45.2473 68.6523 45.2148C68.9779 40.332 71.582 37.7279 76.4648 37.4023Z" fill="#F4816C"/>
<path opacity="0.993" fill-rule="evenodd" clip-rule="evenodd" d="M76.4648 37.4023C76.9205 37.4023 77.3764 37.4023 77.832 37.4023C78.4305 38.002 79.0814 38.5229 79.7852 38.9648C81.3545 40.5338 82.852 42.1615 84.2773 43.8477C84.6674 48.5088 82.649 51.5361 78.2227 52.9297C77.183 53.0272 76.1414 53.0598 75.0977 53.0273C73.5547 51.6383 72.0572 50.2061 70.6055 48.7305C69.9545 48.0143 69.3033 47.2982 68.6523 46.582C68.6523 46.1264 68.6523 45.6705 68.6523 45.2148C70.4764 45.2473 72.2994 45.2148 74.1211 45.1172C75.2604 44.7592 76.0092 44.0104 76.3672 42.8711C76.4648 41.0494 76.4973 39.2264 76.4648 37.4023Z" fill="#EF4B37"/>
<path opacity="0.99" fill-rule="evenodd" clip-rule="evenodd" d="M35.8398 39.1602C37.9283 41.1838 40.0117 43.202 42.0898 45.2148C42.2201 45.2148 42.2852 45.2799 42.2852 45.4102C42.6059 46.4908 42.5082 47.5326 41.9922 48.5352C41.0482 49.4791 40.1041 50.4232 39.1602 51.3672C38.2201 51.8672 37.2436 51.9648 36.2305 51.6602C34.2836 49.974 32.3957 48.2162 30.5664 46.3867C30.3711 46.1264 30.1758 45.8658 29.9805 45.6055C30.6596 45.4447 31.3758 45.3471 32.1289 45.3125C33.3074 44.7211 34.3166 43.9072 35.1563 42.8711C36.0232 41.7568 36.2512 40.5197 35.8398 39.1602Z" fill="#5FA945"/>
<path fill-rule="evenodd" clip-rule="evenodd" d="M26.2696 41.6992C27.3694 43.1246 28.6063 44.4268 29.9805 45.6055C30.1758 45.8658 30.3711 46.1264 30.5665 46.3867C30.2499 48.4652 29.078 49.3115 27.0508 48.9258C26.9206 48.8607 26.7905 48.7955 26.6602 48.7305C25.3 47.2725 23.9002 45.8402 22.461 44.4336C22.3307 43.9127 22.3307 43.392 22.461 42.8711C23.0143 42.3178 23.5678 41.7643 24.1211 41.2109C24.9495 40.9789 25.6657 41.1416 26.2696 41.6992Z" fill="#FED005"/>
<path opacity="0.987" fill-rule="evenodd" clip-rule="evenodd" d="M30.5664 46.3867C32.3957 48.2162 34.2836 49.974 36.2305 51.6602C36.7881 52.2641 36.9508 52.9803 36.7188 53.8086C36.1654 54.3619 35.6119 54.9154 35.0586 55.4687C34.5377 55.599 34.017 55.599 33.4961 55.4687C32.0895 54.0295 30.6572 52.6297 29.1992 51.2695C28.483 50.4883 27.767 49.707 27.0508 48.9258C29.0779 49.3115 30.2498 48.4652 30.5664 46.3867Z" fill="#F9A019"/>
<path opacity="0.988" fill-rule="evenodd" clip-rule="evenodd" d="M70.6055 48.7305C72.0572 50.2061 73.5547 51.6383 75.0977 53.0273C75.8416 53.6736 76.3949 54.4549 76.7578 55.3711C76.9311 56.2641 76.8008 57.1104 76.3672 57.9102C75.4232 58.8541 74.4791 59.7982 73.5352 60.7422C72.5326 61.2582 71.4908 61.3559 70.4102 61.0352C70.7309 62.1158 70.6332 63.1576 70.1172 64.1602C69.1732 65.1041 68.2291 66.0482 67.2852 66.9922C66.2826 67.5082 65.2408 67.6059 64.1602 67.2852C64.1602 67.1549 64.0951 67.0898 63.9648 67.0898C61.8867 65.077 59.8033 63.0588 57.7148 61.0352C57.7148 60.9701 57.7148 60.9049 57.7148 60.8398C59.2547 61.3074 60.6219 61.0145 61.8164 59.9609C62.7768 59.177 63.5254 58.2328 64.0625 57.1289C64.2625 56.2309 64.1648 55.3844 63.7695 54.5898C63.9797 54.3641 64.175 54.3967 64.3555 54.6875C65.7867 55.0334 67.0236 54.7078 68.0664 53.7109C69.0268 52.927 69.7754 51.9828 70.3125 50.8789C70.3471 50.1258 70.4447 49.4096 70.6055 48.7305Z" fill="#A55023"/>
<path opacity="0.962" fill-rule="evenodd" clip-rule="evenodd" d="M26.6602 48.7305C26.7904 48.7955 26.9205 48.8607 27.0508 48.9258C27.767 49.707 28.483 50.4883 29.1992 51.2695C26.1787 54.1924 23.1838 57.1547 20.2148 60.1562C21.6875 62.3842 22.1758 64.8256 21.6797 67.4805C19.9895 73.0314 16.246 75.4728 10.4492 74.8047C5.96574 73.61 3.49178 70.7127 3.02734 66.1133C3.82316 67.2277 4.76717 67.3578 5.85938 66.5039C5.93234 66.115 6.09512 65.7894 6.34766 65.5273C6.44773 68.2639 7.74982 70.1846 10.2539 71.2891C13.8904 72.2209 16.5271 71.0164 18.1641 67.6758C18.9239 64.9859 18.338 62.6422 16.4062 60.6445C16.276 60.1889 16.276 59.733 16.4062 59.2773C19.793 55.7279 23.2109 52.2123 26.6602 48.7305Z" fill="#54596D"/>
<path fill-rule="evenodd" clip-rule="evenodd" d="M68.6522 46.582C69.3031 47.2982 69.9543 48.0142 70.6053 48.7304C70.4445 49.4095 70.3469 50.1257 70.3123 50.8789C69.7752 51.9828 69.0266 52.9269 68.0662 53.7109C67.0234 54.7078 65.7865 55.0333 64.3553 54.6875C64.1748 54.3966 63.9795 54.364 63.7693 54.5898C64.1647 55.3843 64.2623 56.2308 64.0623 57.1289C63.5252 58.2328 62.7766 59.1769 61.8162 59.9609C60.6217 61.0144 59.2545 61.3074 57.7147 60.8398C56.6078 59.8632 55.5662 58.8216 54.5897 57.7148C54.5897 57.5845 54.5246 57.5195 54.3943 57.5195C54.0736 56.4388 54.1713 55.397 54.6873 54.3945C55.6313 53.4505 56.5754 52.5064 57.5193 51.5625C58.5219 51.0464 59.5637 50.9488 60.6443 51.2695C60.3236 50.1888 60.4213 49.147 60.9373 48.1445C61.8813 47.2005 62.8254 46.2564 63.7693 45.3125C64.9412 44.6615 66.1131 44.6615 67.285 45.3125C67.7152 45.7757 68.1711 46.199 68.6522 46.582Z" fill="#D16D28"/>
<path fill-rule="evenodd" clip-rule="evenodd" d="M6.34766 65.5278C6.09512 65.7899 5.93234 66.1155 5.85938 66.5044C4.76717 67.3583 3.82316 67.2282 3.02734 66.1137C2.96992 60.9231 5.44387 57.6354 10.4492 56.2505C11.5135 56.0755 12.5552 56.1405 13.5742 56.4458C13.9509 57.0817 14.0485 57.7653 13.8672 58.4966C13.7695 58.8546 13.5417 59.0825 13.1836 59.1802C10.1072 59.2344 7.92623 60.6343 6.64062 63.3794C6.4243 64.0798 6.32664 64.796 6.34766 65.5278Z" fill="#93A6B5"/>
<path fill-rule="evenodd" clip-rule="evenodd" d="M54.3942 57.5196C54.5245 57.5196 54.5896 57.5846 54.5896 57.7149C55.5661 58.8217 56.6077 59.8633 57.7146 60.8399C57.7146 60.9049 57.7146 60.9702 57.7146 61.0352C58.1259 62.3948 57.898 63.6319 57.031 64.7461C56.1913 65.7823 55.1821 66.5961 54.0036 67.1876C53.2505 67.2221 52.5343 67.3198 51.8552 67.4805C50.481 66.3018 49.244 64.9997 48.1442 63.5743C47.8396 62.5612 47.9372 61.5846 48.4372 60.6446C49.3812 59.7006 50.3253 58.7565 51.2692 57.8126C52.2718 57.2965 53.3136 57.1989 54.3942 57.5196Z" fill="#90C73C"/>
<path opacity="0.99" fill-rule="evenodd" clip-rule="evenodd" d="M57.7148 61.0352C59.8033 63.0588 61.8867 65.077 63.9648 67.0898C64.0951 67.0898 64.1602 67.1549 64.1602 67.2852C64.4809 68.3658 64.3832 69.4076 63.8672 70.4102C62.9232 71.3541 61.9791 72.2982 61.0352 73.2422C60.0951 73.7422 59.1186 73.8398 58.1055 73.5352C56.1586 71.849 54.2707 70.0912 52.4414 68.2617C52.2461 68.0014 52.0508 67.7408 51.8555 67.4805C52.5346 67.3197 53.2508 67.2221 54.0039 67.1875C55.1824 66.5961 56.1916 65.7822 57.0313 64.7461C57.8982 63.6318 58.1262 62.3947 57.7148 61.0352Z" fill="#5FA945"/>
<path fill-rule="evenodd" clip-rule="evenodd" d="M48.1446 63.5742C49.2444 64.9996 50.4813 66.3018 51.8555 67.4805C52.0508 67.7408 52.2461 68.0014 52.4415 68.2617C52.1249 70.3402 50.953 71.1865 48.9258 70.8008C48.7956 70.7357 48.6655 70.6705 48.5352 70.6055C47.175 69.1475 45.7752 67.7152 44.336 66.3086C44.2057 65.7877 44.2057 65.267 44.336 64.7461C44.8893 64.1928 45.4428 63.6393 45.9961 63.0859C46.8245 62.8539 47.5407 63.0166 48.1446 63.5742Z" fill="#FED005"/>
<path opacity="0.987" fill-rule="evenodd" clip-rule="evenodd" d="M52.4414 68.2617C54.2707 70.0912 56.1586 71.849 58.1055 73.5352C58.6631 74.1391 58.8258 74.8553 58.5938 75.6836C58.0404 76.2369 57.4869 76.7904 56.9336 77.3437C56.4127 77.474 55.892 77.474 55.3711 77.3437C53.9645 75.9045 52.5322 74.5047 51.0742 73.1445C50.358 72.3633 49.642 71.582 48.9258 70.8008C50.9529 71.1865 52.1248 70.3402 52.4414 68.2617Z" fill="#F9A019"/>
<path opacity="0.962" fill-rule="evenodd" clip-rule="evenodd" d="M48.5352 70.6055C48.6654 70.6705 48.7955 70.7357 48.9258 70.8008C49.642 71.582 50.358 72.3633 51.0742 73.1445C48.0537 76.0674 45.0588 79.0297 42.0898 82.0312C43.5625 84.2592 44.0508 86.7006 43.5547 89.3555C41.8645 94.9064 38.1211 97.3478 32.3242 96.6797C27.8408 95.485 25.3668 92.5877 24.9023 87.9883C25.6982 89.1027 26.6422 89.2328 27.7344 88.3789C27.8074 87.99 27.9701 87.6644 28.2227 87.4023C28.3227 90.1389 29.6248 92.0596 32.1289 93.1641C35.7654 94.0959 38.4021 92.8914 40.0391 89.5508C40.7988 86.8609 40.2129 84.5172 38.2812 82.5195C38.151 82.0639 38.151 81.608 38.2812 81.1523C41.668 77.6029 45.0859 74.0873 48.5352 70.6055Z" fill="#54596D"/>
<path fill-rule="evenodd" clip-rule="evenodd" d="M28.2227 87.4028C27.9701 87.6649 27.8074 87.9905 27.7344 88.3794C26.6422 89.2333 25.6982 89.1032 24.9023 87.9887C24.8449 82.7981 27.3189 79.5104 32.3242 78.1255C33.3885 77.9505 34.4301 78.0155 35.4492 78.3208C35.826 78.9567 35.9236 79.6403 35.7422 80.3716C35.6445 80.7296 35.4166 80.9575 35.0586 81.0552C31.9822 81.1094 29.8012 82.5093 28.5156 85.2544C28.2992 85.9548 28.2016 86.671 28.2227 87.4028Z" fill="#93A6B5"/>
</svg>
