<svg width="100" height="100" viewBox="0 0 100 100" fill="none" xmlns="http://www.w3.org/2000/svg">
<path d="M81.2149 49.8582C81.2149 67.1755 67.1756 81.2148 49.8569 81.2148C32.5389 81.2148 18.5 67.1755 18.5 49.8582C18.5 32.5389 32.5389 18.5002 49.8569 18.5002C67.1756 18.5002 81.2149 32.5389 81.2149 49.8582Z" fill="#B6D2D6"/>
<path d="M73.0309 49.8582C73.0309 62.6548 62.6555 73.0288 49.8575 73.0288C37.0602 73.0288 26.6855 62.6548 26.6855 49.8582C26.6855 37.0602 37.0602 26.6848 49.8575 26.6848C62.6555 26.6848 73.0309 37.0602 73.0309 49.8582Z" fill="#83A4A8"/>
<path d="M66.2932 49.8583C66.2932 58.9336 58.9339 66.293 49.8572 66.293C40.7812 66.293 33.4219 58.9336 33.4219 49.8583C33.4219 40.7803 40.7812 33.4223 49.8572 33.4223C58.9339 33.4223 66.2932 40.7803 66.2932 49.8583Z" fill="#A9C6CC"/>
<path d="M72.3905 62.7027C69.9565 66.9514 66.3632 70.4487 62.0318 72.7621L63.0818 74.7334C67.7832 72.2261 71.6912 68.4241 74.3332 63.8107L72.3905 62.7027ZM38.2639 24.1854C28.9252 28.4121 22.2938 37.5867 21.7285 48.3467L23.9538 48.4667C24.4825 38.5607 30.5845 30.1154 39.1792 26.2154L38.2639 24.1854Z" fill="#E3E4D3"/>
<path d="M47.1183 43.754C47.1183 47.4947 44.085 50.5273 40.3436 50.5273C36.6016 50.5273 33.0156 47.4947 33.0156 43.754C33.0156 40.0113 36.6016 36.9793 40.3436 36.9793C44.085 36.9793 47.1183 40.0113 47.1183 43.754Z" fill="#F5F8E2"/>
<path d="M47.9497 43.754C47.9497 47.4947 44.9164 50.5273 41.1751 50.5273C37.4331 50.5273 34.4004 47.4947 34.4004 43.754C34.4004 40.0113 37.4331 36.9793 41.1751 36.9793C44.9164 36.9793 47.9497 40.0113 47.9497 43.754Z" fill="#CFD1C3"/>
<path d="M38.5762 43.0127L38.2402 42.432L38.5762 41.8527H39.2456L39.5802 42.432L39.2456 43.0127H38.5762Z" fill="#528F40"/>
<path d="M43.989 40.5674L43.6543 39.9881L43.989 39.4074H44.6583L44.993 39.9881L44.6583 40.5674H43.989Z" fill="#528F40"/>
<path d="M43.321 47.2354L42.9863 46.656L43.321 46.0754H43.9903L44.325 46.656L43.9903 47.2354H43.321Z" fill="#528F40"/>
<path d="M38.5762 46.6562L38.2402 46.0756L38.5762 45.4963H39.2456L39.5802 46.0756L39.2456 46.6562H38.5762Z" fill="#AF7F27"/>
<path d="M43.8476 62.4804C41.4023 65.3111 37.1236 65.6231 34.2929 63.1778C31.4609 60.7324 30.7303 56.0931 33.1756 53.2624C35.6209 50.4291 40.3176 50.4791 43.1483 52.9245C45.9803 55.3698 46.2943 59.6478 43.8476 62.4804Z" fill="#F5F8E2"/>
<path d="M44.4763 63.0217C42.031 65.8524 37.753 66.1677 34.9216 63.721C32.0896 61.2757 31.7776 56.9971 34.223 54.1664C36.6683 51.3344 40.9456 51.0217 43.7776 53.467C46.6096 55.9124 46.9216 60.1911 44.4763 63.0217Z" fill="#E3E4D3"/>
<path d="M37.8652 56.3348L37.9919 55.6768L38.6232 55.4581L39.1312 55.8948L39.0046 56.5534L38.3719 56.7734L37.8652 56.3348Z" fill="#528F40"/>
<path d="M43.5625 58.0236L43.6878 57.3662L44.3205 57.1463L44.8272 57.5836L44.7018 58.2409L44.0692 58.4609L43.5625 58.0236Z" fill="#528F40"/>
<path d="M38.6973 62.633L38.8233 61.9757L39.4559 61.7557L39.9626 62.193L39.8366 62.8503L39.2046 63.0703L38.6973 62.633Z" fill="#528F40"/>
<path d="M35.4863 59.0918L35.6117 58.4345L36.2443 58.2131L36.751 58.6518L36.6257 59.3098L35.993 59.5298L35.4863 59.0918Z" fill="#AF7F27"/>
<path d="M60.588 65.1089C59.2527 68.6036 55.336 70.3549 51.842 69.0202C48.346 67.6855 46.0793 63.5722 47.414 60.0775C48.75 56.5815 53.1807 55.0282 56.6767 56.3629C60.1713 57.6989 61.9227 61.6142 60.588 65.1089Z" fill="#F5F8E2"/>
<path d="M61.3644 65.4059C60.0291 68.9006 56.1137 70.6519 52.6184 69.3159C49.1224 67.9812 47.3711 64.0659 48.7071 60.5712C50.0417 57.0752 53.9571 55.3239 57.4517 56.6599C60.9477 57.9946 62.6991 61.9099 61.3644 65.4059Z" fill="#E3E4D3"/>
<path d="M52.871 61.3699L52.7656 60.7079L53.285 60.2866L53.9103 60.5246L54.017 61.1859L53.4963 61.6079L52.871 61.3699Z" fill="#528F40"/>
<path d="M58.802 61.0182L58.6953 60.3568L59.216 59.9348L59.8406 60.1735L59.9473 60.8348L59.4266 61.2568L58.802 61.0182Z" fill="#528F40"/>
<path d="M55.7967 67.0081L55.6914 66.3461L56.2107 65.9248L56.8361 66.1628L56.9427 66.8241L56.4214 67.2461L55.7967 67.0081Z" fill="#528F40"/>
<path d="M51.5715 64.7728L51.4648 64.1114L51.9855 63.6881L52.6108 63.9274L52.7162 64.5894L52.1968 65.0107L51.5715 64.7728Z" fill="#AF7F27"/>
<path d="M59.7322 55.0335C56.7582 52.7622 56.1882 48.5109 58.4589 45.5369C60.7282 42.5636 65.3156 41.5542 68.2882 43.8236C71.2622 46.0942 71.4982 50.7849 69.2269 53.7582C66.9576 56.7322 62.7062 57.3042 59.7322 55.0335Z" fill="#F5F8E2"/>
<path d="M59.2286 55.694C56.2546 53.4234 55.6846 49.172 57.9539 46.198C60.2239 43.224 64.4759 42.6534 67.4499 44.9247C70.4239 47.194 70.9946 51.4454 68.7246 54.4194C66.4539 57.3934 62.2026 57.9634 59.2286 55.694Z" fill="#E3E4D3"/>
<path d="M65.5056 48.6916L66.1703 48.7776L66.4276 49.3962L66.0216 49.9282L65.3576 49.8422L65.0996 49.2242L65.5056 48.6916Z" fill="#528F40"/>
<path d="M64.1632 54.4795L64.8271 54.5648L65.0865 55.1835L64.6798 55.7148L64.0145 55.6302L63.7578 55.0115L64.1632 54.4795Z" fill="#528F40"/>
<path d="M59.2693 49.9008L59.9333 49.9868L60.1913 50.6055L59.7846 51.1382L59.1206 51.0508L58.8633 50.4335L59.2693 49.9008Z" fill="#528F40"/>
<path d="M62.6098 46.4813L63.2738 46.566L63.5311 47.1846L63.1251 47.7173L62.4611 47.6313L62.2031 47.0126L62.6098 46.4813Z" fill="#AF7F27"/>
<path d="M41.0635 48.1759C40.3489 48.4719 39.4402 48.2346 38.6369 47.5159C37.7929 49.1932 36.3109 49.3952 35.4649 48.5279C34.8696 47.9239 34.5975 46.8219 34.8529 45.5266C34.8609 45.4939 34.8669 45.4626 34.8749 45.4312C34.8435 45.4352 34.8095 45.4446 34.7762 45.4486C33.4322 45.6759 32.3095 45.3766 31.7122 44.7632C30.8542 43.8912 31.1455 42.4299 32.9089 41.6619C32.2215 40.8492 32.0029 39.9446 32.3095 39.2399L30.5662 37.4599C25.9455 41.9859 26.1702 45.9039 28.9729 48.7646L31.4075 51.2506C34.2355 54.1359 38.1495 54.3926 42.7449 49.8912L41.0635 48.1759Z" fill="#E11E25"/>
<path d="M42.7447 49.888C38.1494 54.392 34.2354 54.1354 31.4074 51.25L28.9727 48.764C26.17 45.9034 25.9454 41.9827 30.566 37.4594L29.9474 36.828C27.6 39.13 26.308 41.428 26.1067 43.656C25.9227 45.72 26.6954 47.7007 28.342 49.38L30.78 51.8674C32.432 53.556 34.4034 54.3687 36.4774 54.22C38.704 54.0574 41.0194 52.8147 43.3607 50.5194L42.7447 49.888Z" fill="#A71D22"/>
<path d="M32.8723 48.9799C32.1783 49.6593 31.535 49.5733 31.095 49.1213C30.6537 48.6713 30.5797 48.0293 31.275 47.3466C31.969 46.6659 33.6123 46.6566 33.6123 46.6566C33.6123 46.6566 33.569 48.2999 32.8723 48.9799Z" fill="white"/>
<path d="M36.6483 51.7516C36.449 52.5103 35.965 52.7163 35.4743 52.5863C34.9816 52.4569 34.663 52.0403 34.8637 51.2803C35.0637 50.5209 36.199 49.8323 36.199 49.8323C36.199 49.8323 36.8477 50.9896 36.6483 51.7516Z" fill="white"/>
<path d="M28.7418 43.678C27.9771 43.8647 27.7625 44.342 27.8811 44.8373C28.0025 45.3333 28.4098 45.6587 29.1765 45.474C29.9398 45.2873 30.6505 44.1693 30.6505 44.1693C30.6505 44.1693 29.5058 43.4947 28.7418 43.678Z" fill="white"/>
<path d="M55.4382 56.7121C56.1909 56.8934 56.7856 57.6188 57.0122 58.6721C58.6802 57.8115 59.9982 58.5181 60.1749 59.7174C60.3002 60.5561 59.8729 61.6081 58.9042 62.5041C58.8796 62.5288 58.8549 62.5481 58.8302 62.5688C58.8589 62.5834 58.8916 62.5961 58.9209 62.6134C60.1416 63.2188 60.8742 64.1208 60.9983 64.9688C61.1789 66.1781 60.0842 67.1888 58.2062 66.7748C58.2842 67.8348 57.9302 68.6968 57.2662 69.0848L57.6309 71.5508C64.0309 70.6041 66.1503 67.3021 65.5656 63.3421L65.0569 59.8981C64.4642 55.9034 61.4482 53.3948 55.0869 54.3361L55.4382 56.7121Z" fill="#E11E25"/>
<path d="M55.0837 54.3373C61.4477 53.3947 64.4637 55.9033 65.0564 59.898L65.565 63.342C66.1497 67.302 64.0277 70.6067 57.6304 71.5507L57.7604 72.4233C61.013 71.9427 63.409 70.8433 64.8804 69.1573C66.2424 67.596 66.7824 65.5413 66.4377 63.2133L65.927 59.768C65.5824 57.432 64.465 55.616 62.7004 54.5167C60.8037 53.3387 58.199 52.984 54.957 53.4646L55.0837 54.3373Z" fill="#A71D22"/>
<path d="M62.5356 60.8746C63.4969 60.7339 63.9656 61.1805 64.0569 61.8059C64.1489 62.4292 63.8329 62.9932 62.8676 63.1365C61.9069 63.2785 60.5723 62.3199 60.5723 62.3199C60.5723 62.3199 61.5723 61.0179 62.5356 60.8746Z" fill="white"/>
<path d="M61.1104 56.4138C61.717 55.9165 62.231 56.0338 62.5517 56.4265C62.873 56.8225 62.8864 57.3458 62.277 57.8432C61.669 58.3398 60.3457 58.2305 60.3457 58.2305C60.3457 58.2305 60.5024 56.9112 61.1104 56.4138Z" fill="white"/>
<path d="M62.7629 67.591C63.4909 67.8904 63.9456 67.6297 64.1396 67.1597C64.3322 66.6884 64.1955 66.183 63.4662 65.8837C62.7395 65.5844 61.5049 66.0724 61.5049 66.0724C61.5049 66.0724 62.0362 67.291 62.7629 67.591Z" fill="white"/>
<path d="M57.7095 46.6327C58.1135 45.9727 58.9895 45.6314 60.0608 45.7407C59.7575 43.8867 60.8368 42.854 62.0322 43.056C62.8668 43.1954 63.7368 43.9267 64.2902 45.1247C64.3048 45.156 64.3162 45.186 64.3282 45.2147C64.3502 45.1927 64.3735 45.1654 64.3982 45.142C65.3515 44.1694 66.4362 43.7514 67.2802 43.896C68.4868 44.0974 69.1095 45.4507 68.1355 47.1094C69.1695 47.362 69.8775 47.966 70.0428 48.716L72.5002 49.1313C73.5782 42.7527 71.0922 39.716 67.1442 39.0493L63.7135 38.4687C59.7302 37.7967 56.4142 39.8907 55.3408 46.2313L57.7095 46.6327Z" fill="#E11E25"/>
<path d="M55.342 46.2355C56.414 39.8908 59.73 37.7968 63.7133 38.4688L67.1453 39.0495C71.0907 39.7161 73.5793 42.7555 72.5 49.1315L73.3707 49.2788C73.918 46.0368 73.612 43.4168 72.466 41.4975C71.4007 39.7202 69.612 38.5702 67.2927 38.1795L63.8593 37.6002C61.5287 37.2055 59.4566 37.7081 57.8653 39.0455C56.16 40.4868 55.018 42.8542 54.4727 46.0848L55.342 46.2355Z" fill="#A71D22"/>
<path d="M63.864 41.1668C64.0266 40.2095 64.5966 39.9008 65.2193 40.0081C65.84 40.1135 66.2793 40.5888 66.116 41.5494C65.9546 42.5081 64.6306 43.4814 64.6306 43.4814C64.6306 43.4814 63.7006 42.1275 63.864 41.1668Z" fill="white"/>
<path d="M59.1793 41.1448C58.894 40.4128 59.164 39.9621 59.638 39.7788C60.1133 39.5934 60.6139 39.7435 60.8993 40.4768C61.1846 41.2081 60.6699 42.4321 60.6699 42.4321C60.6699 42.4321 59.4646 41.8775 59.1793 41.1448Z" fill="white"/>
<path d="M70.3216 43.0272C70.831 42.4279 70.7243 41.9152 70.335 41.5846C69.947 41.2552 69.4243 41.2306 68.9143 41.8306C68.405 42.4279 68.4896 43.7539 68.4896 43.7539C68.4896 43.7539 69.8096 43.6246 70.3216 43.0272Z" fill="white"/>
<path d="M48.8257 41.3567C48.3231 40.768 48.2684 39.8294 48.7044 38.8434C46.8477 38.5614 46.1977 37.2134 46.7604 36.1407C47.1524 35.388 48.1144 34.7873 49.4257 34.6327C49.4597 34.6273 49.4924 34.626 49.5237 34.622C49.5104 34.5947 49.4911 34.566 49.4751 34.5354C48.8437 33.328 48.7824 32.1667 49.1811 31.4074C49.7464 30.3227 51.2251 30.1494 52.5017 31.5887C53.0611 30.6834 53.8544 30.1967 54.6197 30.2707L55.7737 28.0627C50.0404 25.0647 46.3844 26.492 44.5291 30.04L42.9184 33.1234C41.0471 36.704 42.0144 40.5054 47.7137 43.4854L48.8257 41.3567Z" fill="#E11E25"/>
<path d="M47.7173 43.4856C42.0139 40.5056 41.0466 36.7043 42.9179 33.1236L44.5299 30.039C46.3826 26.4936 50.0426 25.065 55.7733 28.063L56.1819 27.2789C53.2679 25.7583 50.6819 25.2396 48.5026 25.7369C46.4813 26.2009 44.8366 27.5443 43.7486 29.6316L42.1366 32.7163C41.0413 34.8116 40.8786 36.9376 41.6586 38.8636C42.5026 40.9309 44.3993 42.749 47.3059 44.2656L47.7173 43.4856Z" fill="#A71D22"/>
<path d="M45.5302 33.8144C44.6689 33.3644 44.5529 32.7277 44.8456 32.1691C45.1376 31.6091 45.7256 31.3398 46.5889 31.7911C47.4496 32.2404 47.9682 33.8004 47.9682 33.8004C47.9682 33.8004 46.3922 34.2664 45.5302 33.8144Z" fill="white"/>
<path d="M44.0606 38.2632C43.2772 38.3078 42.9306 37.9118 42.9032 37.4038C42.8746 36.8952 43.1712 36.4638 43.9566 36.4198C44.7406 36.3752 45.7473 37.2438 45.7473 37.2438C45.7473 37.2438 44.8459 38.2178 44.0606 38.2632Z" fill="white"/>
<path d="M49.2938 28.2489C48.8812 27.5795 48.3605 27.5222 47.9265 27.7875C47.4932 28.0575 47.3078 28.5455 47.7225 29.2162C48.1338 29.8855 49.4192 30.2148 49.4192 30.2148C49.4192 30.2148 49.7052 28.9182 49.2938 28.2489Z" fill="white"/>
<path d="M44.1221 32.3255C42.3108 31.6808 38.7054 34.2448 38.7054 34.2448L38.2848 33.6275L37.0308 35.3828L36.8408 34.4782C32.7228 37.7228 32.9741 41.1901 34.6781 42.7368C34.6781 42.7368 42.5634 34.0442 44.1221 32.3255Z" fill="#4E7234"/>
<path d="M44.1217 32.3255C44.9397 34.0649 42.7391 37.9035 42.7391 37.9035L43.3937 38.2616L41.7677 39.6796L42.6871 39.7829C39.8591 44.1969 36.3824 44.2842 34.6777 42.7369C34.6777 42.7369 42.5631 34.0442 44.1217 32.3255Z" fill="#415F2C"/>
<path d="M63.5055 48.7018C62.2895 50.1898 63.4941 54.4478 63.4941 54.4478L62.7715 54.6378L64.0042 56.4071L63.0875 56.2838C64.7608 61.2511 68.1115 62.1791 70.1415 61.0931C70.1415 61.0931 64.6008 50.7471 63.5055 48.7018Z" fill="#4E7234"/>
<path d="M63.5049 48.7014C65.4169 48.5148 68.2942 51.8768 68.2942 51.8768L68.8515 51.3794L69.6415 53.3874L70.0469 52.5568C73.2549 56.7034 72.1702 60.0061 70.1409 61.0928C70.1409 61.0928 64.6002 50.7468 63.5049 48.7014Z" fill="#415F2C"/>
<path d="M52.9127 69.75C53.94 68.126 52.2314 64.044 52.2314 64.044L52.9267 63.7707L51.4894 62.1613L52.414 62.1733C50.1534 57.4427 46.716 56.9253 44.832 58.2487C44.832 58.2487 51.5794 67.8527 52.9127 69.75Z" fill="#4E7234"/>
<path d="M52.9132 69.7502C51.0366 70.1669 47.7766 67.1756 47.7766 67.1756L47.2826 67.7355L46.2566 65.8376L45.9546 66.7122C42.2712 62.9815 42.9492 59.5729 44.8326 58.2489C44.8326 58.2489 51.5799 67.8529 52.9132 69.7502Z" fill="#415F2C"/>
<path d="M27.1836 61.0957C28.5743 62.4217 32.9116 61.549 32.9116 61.549L33.0443 62.2837L34.9049 61.191L34.7096 62.0957C39.7929 60.8097 40.9763 57.5397 40.0496 55.433C40.0496 55.433 29.3063 60.161 27.1836 61.0957Z" fill="#4E7234"/>
<path d="M27.1839 61.0962C27.1446 59.1749 30.7179 56.5648 30.7179 56.5648L30.2659 55.9715L32.3286 55.3389L31.5306 54.8702C35.9119 51.9922 39.1212 53.3269 40.0499 55.4335C40.0499 55.4335 29.3066 60.1615 27.1839 61.0962Z" fill="#415F2C"/>
<path d="M56.0414 43.8703C52.3061 44.0676 49.1154 41.2009 48.9181 37.4636C48.7188 33.7283 51.5581 29.9856 55.2941 29.7876C59.0301 29.589 62.2488 33.009 62.4474 36.7463C62.6454 40.4816 59.7788 43.6723 56.0414 43.8703Z" fill="#F5F8E2"/>
<path d="M56.0862 44.6998C52.3488 44.8978 49.1602 42.0305 48.9608 38.2932C48.7628 34.5578 51.6315 31.3678 55.3668 31.1698C59.1042 30.9718 62.2942 33.8391 62.4908 37.5745C62.6902 41.3118 59.8228 44.5018 56.0862 44.6998Z" fill="#CFD1C3"/>
<path d="M56.3281 35.2996L56.8895 34.935L57.4855 35.2383L57.5221 35.9063L56.9608 36.271L56.3635 35.9676L56.3281 35.2996Z" fill="#528F40"/>
<path d="M59.0566 40.5767L59.6186 40.2107L60.2153 40.5153L60.2506 41.1833L59.6893 41.5493L59.0926 41.2447L59.0566 40.5767Z" fill="#528F40"/>
<path d="M52.3623 40.2616L52.9243 39.8963L53.521 40.2009L53.5563 40.8702L52.995 41.2329L52.397 40.9296L52.3623 40.2616Z" fill="#528F40"/>
<path d="M52.6895 35.4922L53.2508 35.1275L53.8468 35.4309L53.8835 36.0989L53.3208 36.4648L52.7241 36.1602L52.6895 35.4922Z" fill="#AF7F27"/>
<path d="M54.6477 45.4769C57.187 48.2255 57.0163 52.5115 54.2677 55.0495C51.5203 57.5889 46.829 57.7942 44.2897 55.0455C41.751 52.2982 42.3263 47.6369 45.075 45.0975C47.8223 42.5589 52.109 42.7282 54.6477 45.4769Z" fill="#F5F8E2"/>
<path d="M55.259 44.9125C57.797 47.6612 57.6277 51.9465 54.879 54.4852C52.1317 57.0245 47.845 56.8552 45.3063 54.1065C42.767 51.3579 42.9377 47.0725 45.685 44.5338C48.4337 41.9945 52.7203 42.1652 55.259 44.9125Z" fill="#E3E4D3"/>
<path d="M47.8713 50.7305L47.232 50.5311L47.084 49.8785L47.576 49.4245L48.2153 49.6218L48.3627 50.2758L47.8713 50.7305Z" fill="#528F40"/>
<path d="M50.1884 45.2603L49.5491 45.0616L49.4004 44.4076L49.8924 43.9543L50.5331 44.1522L50.6804 44.8063L50.1884 45.2603Z" fill="#528F40"/>
<path d="M54.2222 50.6118L53.5829 50.4125L53.4355 49.7598L53.9262 49.3058L54.5656 49.5052L54.7142 50.1585L54.2222 50.6118Z" fill="#528F40"/>
<path d="M50.3426 53.4062L49.7033 53.2083L49.5566 52.5549L50.0473 52.1003L50.688 52.2982L50.8353 52.9522L50.3426 53.4062Z" fill="#AF7F27"/>
<path d="M45.1489 57.6654C45.2102 58.4361 44.7022 59.2281 43.7716 59.7681C45.1049 61.0901 44.8389 62.5614 43.7542 63.0987C42.9942 63.4767 41.8629 63.3961 40.7102 62.7541C40.6816 62.7367 40.6542 62.7187 40.6269 62.7034C40.6216 62.7327 40.6189 62.7681 40.6129 62.8021C40.4136 64.1494 39.7816 65.1247 39.0136 65.5041C37.9189 66.0494 36.6189 65.3227 36.4329 63.4074C35.4482 63.8101 34.5216 63.7381 33.9462 63.2281L31.7129 64.3374C34.5902 70.1301 38.3862 71.1261 41.9736 69.3447L45.0889 67.7981C48.7076 66.0001 50.1596 62.3567 47.3002 56.5961L45.1489 57.6654Z" fill="#E11E25"/>
<path d="M47.2969 56.5941C50.1602 62.3561 48.7082 65.9994 45.0895 67.7974L41.9729 69.3454C38.3882 71.1254 34.5882 70.1281 31.7135 64.3368L30.9229 64.7301C32.3869 67.6741 34.1729 69.6128 36.2302 70.4914C38.1369 71.3041 40.2575 71.1828 42.3642 70.1361L45.4828 68.5854C47.5988 67.5348 48.9802 65.9108 49.4815 63.8941C50.0142 61.7261 49.5482 59.1401 48.0895 56.2034L47.2969 56.5941Z" fill="#A71D22"/>
<path d="M43.3824 65.704C43.8144 66.574 43.5331 67.1587 42.9671 67.4374C42.4031 67.72 41.7691 67.5914 41.3357 66.7187C40.9031 65.8487 41.4017 64.2827 41.4017 64.2827C41.4017 64.2827 42.9497 64.8307 43.3824 65.704Z" fill="white"/>
<path d="M47.1847 62.9672C47.846 63.3932 47.8927 63.9166 47.6167 64.3432C47.3407 64.7719 46.8473 64.9466 46.186 64.5206C45.526 64.0959 45.2227 62.8032 45.2227 62.8032C45.2227 62.8032 46.5233 62.5439 47.1847 62.9672Z" fill="white"/>
<path d="M37.0654 67.9934C37.0068 68.7788 37.3948 69.1301 37.9014 69.1694C38.4094 69.2081 38.8468 68.9208 38.9068 68.1354C38.9668 67.3514 38.1201 66.3294 38.1201 66.3294C38.1201 66.3294 37.1281 67.2108 37.0654 67.9934Z" fill="white"/>
<path d="M50.8809 50.4061C52.8002 50.4947 55.4995 46.9881 55.4995 46.9881L56.0815 47.4541L56.7662 45.4087L57.2142 46.2187C60.2035 41.9114 58.9482 38.6694 56.8649 37.6887C56.8649 37.6887 51.8689 48.3087 50.8809 50.4061Z" fill="#4E7234"/>
<path d="M50.8805 50.4062C49.5898 48.9829 50.5705 44.6696 50.5705 44.6696L49.8398 44.5183L50.9792 42.6876L50.0705 42.8569C51.4845 37.8103 54.7825 36.7083 56.8645 37.6889C56.8645 37.6889 51.8685 48.3089 50.8805 50.4062Z" fill="#415F2C"/>
<path d="M66.1839 32.2007C65.1265 31.294 62.0212 32.092 62.0212 32.092L61.8972 31.5647L60.5939 32.4267L60.6992 31.7654C57.0705 32.8907 56.3399 35.302 57.0912 36.79C57.0912 36.79 64.6825 32.958 66.1839 32.2007Z" fill="#4E7234"/>
<path d="M66.1835 32.2006C66.2848 33.59 63.7995 35.6146 63.7995 35.6146L64.1495 36.0273L62.6822 36.564L63.2775 36.872C60.2175 39.1233 57.8422 38.28 57.0908 36.79C57.0908 36.79 64.6822 32.958 66.1835 32.2006Z" fill="#415F2C"/>
</svg>
