<svg width="100" height="100" viewBox="0 0 100 100" fill="none" xmlns="http://www.w3.org/2000/svg">
<path d="M61.6114 19.0339L51.4781 12.4228V2.77832H48.5114V12.4228L38.3892 19.0339L39.4003 20.5783L48.5114 14.6339V30.1783H51.4781V14.6339L60.6003 20.5783L61.6114 19.0339Z" fill="#824B3D"/>
<path d="M41.378 76.6671C39.7113 83.2005 33.4002 87.2338 27.2891 85.6671C21.178 84.1005 17.578 77.5449 19.2446 71.0116C20.9113 64.4782 27.2224 60.4449 33.3335 62.0116C39.4446 63.5782 43.0446 70.1338 41.378 76.6671Z" fill="#82C60A"/>
<path d="M73.2296 85.5224C79.2658 83.6896 82.5708 76.9725 80.6114 70.5194C78.652 64.0663 72.1703 60.3208 66.1341 62.1536C60.0979 63.9864 56.793 70.7034 58.7523 77.1565C60.7117 83.6096 67.1934 87.3551 73.2296 85.5224Z" fill="#82C60A"/>
<path d="M41.3695 52.5276C43.0398 45.9937 39.4393 39.4303 33.3275 37.8679C27.2158 36.3055 20.9071 40.3357 19.2368 46.8695C17.5665 53.4034 21.167 59.9668 27.2787 61.5292C33.3905 63.0916 39.6991 59.0614 41.3695 52.5276Z" fill="#51B224"/>
<path d="M73.2257 61.3754C79.2619 59.5426 82.5668 52.8256 80.6075 46.3725C78.6481 39.9194 72.1664 36.1738 66.1302 38.0066C60.094 39.8394 56.7891 46.5565 58.7484 53.0096C60.7078 59.4627 67.1895 63.2082 73.2257 61.3754Z" fill="#51B224"/>
<path d="M49.933 97.2225C56.2413 97.2225 61.3552 91.7554 61.3552 85.0114C61.3552 78.2674 56.2413 72.8003 49.933 72.8003C43.6246 72.8003 38.5107 78.2674 38.5107 85.0114C38.5107 91.7554 43.6246 97.2225 49.933 97.2225Z" fill="#51B224"/>
<path d="M49.933 72.9671C56.2413 72.9671 61.3552 67.5 61.3552 60.756C61.3552 54.012 56.2413 48.5449 49.933 48.5449C43.6246 48.5449 38.5107 54.012 38.5107 60.756C38.5107 67.5 43.6246 72.9671 49.933 72.9671Z" fill="#82C60A"/>
<path d="M41.3699 28.1628C43.039 21.6286 39.4374 15.0659 33.3254 13.5046C27.2133 11.9432 20.9054 15.9745 19.2362 22.5087C17.567 29.0428 21.1687 35.6056 27.2807 37.1669C33.3927 38.7283 39.7007 34.697 41.3699 28.1628Z" fill="#82C60A"/>
<path d="M73.2242 37.015C79.2605 35.1822 82.5654 28.4652 80.606 22.0121C78.6466 15.559 72.1649 11.8135 66.1287 13.6463C60.0925 15.4791 56.7876 22.1961 58.747 28.6492C60.7063 35.1023 67.188 38.8478 73.2242 37.015Z" fill="#82C60A"/>
<path d="M49.933 48.6004C56.2413 48.6004 61.3552 43.1333 61.3552 36.3893C61.3552 29.6453 56.2413 24.1782 49.933 24.1782C43.6246 24.1782 38.5107 29.6453 38.5107 36.3893C38.5107 43.1333 43.6246 48.6004 49.933 48.6004Z" fill="#51B224"/>
<path d="M33.7476 66.527C33.9777 65.6231 33.4314 64.7038 32.5275 64.4737C31.6236 64.2437 30.7043 64.7899 30.4742 65.6939C30.2441 66.5978 30.7904 67.5171 31.6943 67.7471C32.5983 67.9772 33.5175 67.431 33.7476 66.527Z" fill="#8CD60B"/>
<path d="M68.3762 70.3503C69.2687 70.0793 69.7726 69.1361 69.5016 68.2436C69.2306 67.351 68.2874 66.8472 67.3948 67.1182C66.5023 67.3892 65.9985 68.3324 66.2695 69.2249C66.5405 70.1174 67.4837 70.6213 68.3762 70.3503Z" fill="#8CD60B"/>
<path d="M33.7485 42.3912C33.9795 41.4876 33.4342 40.5677 32.5305 40.3367C31.6268 40.1057 30.7069 40.651 30.4759 41.5546C30.2449 42.4583 30.7902 43.3782 31.6939 43.6092C32.5976 43.8402 33.5174 43.2949 33.7485 42.3912Z" fill="#8CD60B"/>
<path d="M68.3787 46.2052C69.2712 45.9344 69.7752 44.9913 69.5044 44.0987C69.2335 43.2061 68.2904 42.7021 67.3979 42.973C66.5053 43.2438 66.0013 44.1869 66.2721 45.0795C66.543 45.9721 67.4861 46.4761 68.3787 46.2052Z" fill="#8CD60B"/>
<path d="M49.9106 79.9227C50.8433 79.9227 51.5995 79.1666 51.5995 78.2338C51.5995 77.3011 50.8433 76.5449 49.9106 76.5449C48.9778 76.5449 48.2217 77.3011 48.2217 78.2338C48.2217 79.1666 48.9778 79.9227 49.9106 79.9227Z" fill="#8CD60B"/>
<path d="M49.9106 55.6668C50.8433 55.6668 51.5995 54.9107 51.5995 53.978C51.5995 53.0452 50.8433 52.2891 49.9106 52.2891C48.9778 52.2891 48.2217 53.0452 48.2217 53.978C48.2217 54.9107 48.9778 55.6668 49.9106 55.6668Z" fill="#8CD60B"/>
<path d="M33.7406 18.0231C33.9717 17.1194 33.4264 16.1995 32.5227 15.9685C31.619 15.7375 30.6991 16.2828 30.4681 17.1865C30.2371 18.0902 30.7824 19.01 31.6861 19.2411C32.5898 19.4721 33.5096 18.9268 33.7406 18.0231Z" fill="#8CD60B"/>
<path d="M68.3821 21.841C69.2745 21.5699 69.7782 20.6266 69.507 19.7341C69.2359 18.8417 68.2926 18.338 67.4001 18.6091C66.5077 18.8803 66.004 19.8236 66.2751 20.7161C66.5463 21.6085 67.4896 22.1122 68.3821 21.841Z" fill="#8CD60B"/>
<path d="M49.9106 31.3006C50.8433 31.3006 51.5995 30.5445 51.5995 29.6117C51.5995 28.679 50.8433 27.9229 49.9106 27.9229C48.9778 27.9229 48.2217 28.679 48.2217 29.6117C48.2217 30.5445 48.9778 31.3006 49.9106 31.3006Z" fill="#8CD60B"/>
</svg>
