<svg width="100" height="100" viewBox="0 0 100 100" fill="none" xmlns="http://www.w3.org/2000/svg">
<path d="M14.583 22.9168C14.583 22.9168 39.3747 18.1252 58.333 41.6668C23.333 51.8752 14.583 22.9168 14.583 22.9168ZM47.708 8.3335C47.708 8.3335 38.958 29.7918 58.333 41.6668C71.8747 17.5002 47.708 8.3335 47.708 8.3335Z" fill="#33691E"/>
<path d="M14.583 22.9168C14.583 22.9168 38.1247 35.6252 58.333 41.6668C23.333 51.8752 14.583 22.9168 14.583 22.9168ZM47.708 8.3335C47.708 8.3335 38.958 29.7918 58.333 41.6668C58.333 27.9168 47.708 8.3335 47.708 8.3335Z" fill="#558B2F"/>
<path d="M42.292 52.7086L45.417 55.6253C51.4587 49.1669 57.917 45.0003 63.9587 42.2919C61.667 46.0419 63.1253 49.5836 63.3337 49.7919L67.292 47.9169C67.292 47.9169 66.2503 42.9169 72.292 39.1669C78.7503 37.5003 83.3337 37.5003 83.3337 37.5003V33.3336C82.5003 33.3336 60.2087 33.1253 42.292 52.7086Z" fill="#6D4C41"/>
<path d="M28.7495 91.6663C25.6245 91.6663 22.7078 90.8329 19.9995 89.1663C11.4578 83.5413 9.79112 70.4163 16.6661 59.7913C20.4161 53.9579 25.8328 49.7913 31.8745 48.5413C36.4578 47.4996 40.8328 48.3329 44.3745 50.6246C52.9161 56.2496 54.5828 69.3746 47.7078 79.9996C43.9578 85.833 38.5411 89.9996 32.4995 91.2496C31.4578 91.4579 29.9995 91.6663 28.7495 91.6663ZM73.3328 87.4996C64.9995 87.4996 57.0828 80.4163 54.7911 70.4163C53.3328 64.3746 54.3745 58.1246 57.4995 53.3329C59.7911 49.5829 63.3328 47.0829 67.2911 46.2496C76.6661 44.1663 86.4578 51.6663 88.9578 63.1246C90.4161 69.1663 89.3745 75.4163 86.2495 80.2079C83.9578 83.9579 80.4161 86.458 76.4578 87.2913C75.4161 87.2913 74.3745 87.4996 73.3328 87.4996Z" fill="#9E9D24"/>
<path d="M39.583 83.3335C39.583 84.5835 38.7497 85.4168 37.4997 85.4168C36.2497 85.4168 35.4163 84.5835 35.4163 83.3335C35.4163 82.0835 36.2497 81.2502 37.4997 81.2502C38.7497 81.2502 39.583 82.0835 39.583 83.3335ZM29.1663 83.3335C27.9163 83.3335 27.083 84.1668 27.083 85.4168C27.083 86.6668 27.9163 87.5002 29.1663 87.5002C30.4163 87.5002 31.2497 86.6668 31.2497 85.4168C31.2497 84.1668 30.4163 83.3335 29.1663 83.3335ZM31.2497 75.0002C29.9997 75.0002 29.1663 75.8335 29.1663 77.0835C29.1663 78.3335 29.9997 79.1668 31.2497 79.1668C32.4997 79.1668 33.333 78.3335 33.333 77.0835C33.333 75.8335 32.4997 75.0002 31.2497 75.0002ZM74.9997 79.1668C73.7497 79.1668 72.9163 80.0002 72.9163 81.2502C72.9163 82.5002 73.7497 83.3335 74.9997 83.3335C76.2497 83.3335 77.083 82.5002 77.083 81.2502C77.083 80.0002 76.2497 79.1668 74.9997 79.1668ZM81.2497 72.9168C79.9997 72.9168 79.1663 73.7502 79.1663 75.0002C79.1663 76.2502 79.9997 77.0835 81.2497 77.0835C82.4997 77.0835 83.333 76.2502 83.333 75.0002C83.333 73.7502 82.4997 72.9168 81.2497 72.9168ZM72.9163 70.8335C71.6663 70.8335 70.833 71.6668 70.833 72.9168C70.833 74.1668 71.6663 75.0002 72.9163 75.0002C74.1663 75.0002 74.9997 74.1668 74.9997 72.9168C74.9997 71.6668 74.1663 70.8335 72.9163 70.8335Z" fill="#827717"/>
<path d="M62.5 66.6665C59.1667 58.3332 66.6667 54.1665 66.6667 54.1665M39.5833 56.2498C39.5833 56.2498 31.4583 51.8748 25 62.4998" stroke="#C0CA33" stroke-width="22" stroke-miterlimit="10" stroke-linecap="round"/>
</svg>
