<svg width="100" height="100" viewBox="0 0 100 100" fill="none" xmlns="http://www.w3.org/2000/svg">
<path d="M64.5833 89.5833H35.4167C31.4062 89.5833 28.125 86.3021 28.125 82.2917C28.125 78.2812 31.4062 75 35.4167 75H64.5833C68.5938 75 71.875 78.2812 71.875 82.2917C71.875 86.3021 68.5938 89.5833 64.5833 89.5833Z" fill="#9FA8DA"/>
<path d="M75 29.1678C75 25.1366 66.6667 16.7345 66.6667 14.5845H33.3333C33.3333 16.8699 25 25.2699 25 29.1678C25 33.0657 25 81.2511 25 81.2511H75C75 81.2511 75 33.1991 75 29.1678Z" fill="#689F38"/>
<path d="M70.8333 85.4155H29.1667C25.7292 85.4155 25 81.2489 25 81.2489H75C75 81.2489 74.2708 85.4155 70.8333 85.4155ZM68.75 12.4989C68.75 11.3489 67.8167 10.4155 66.6667 10.4155H33.3333C32.1833 10.4155 31.25 11.3489 31.25 12.4989C31.25 13.6489 32.1833 14.5822 33.3333 14.5822H66.6667C67.8167 14.5822 68.75 13.6489 68.75 12.4989Z" fill="#C5CAE9"/>
<path d="M75 41.6689H25V62.5023H75V41.6689Z" fill="#33691E"/>
<path d="M50 33.3345C39.6437 33.3345 31.25 41.7282 31.25 52.0845C31.25 62.4407 39.6437 70.8345 50 70.8345C60.3562 70.8345 68.75 62.4407 68.75 52.0845C68.75 41.7282 60.3562 33.3345 50 33.3345Z" fill="#33691E"/>
<path d="M50 39.5845C43.1083 39.5845 37.5 45.1928 37.5 52.0845C37.5 58.9761 43.1083 64.5845 50 64.5845C56.8917 64.5845 62.5 58.9761 62.5 52.0845C62.5 45.1928 56.8917 39.5845 50 39.5845Z" fill="#FFECB3"/>
<path d="M64.5832 47.9155H35.4165V56.2489H64.5832V47.9155Z" fill="#FF3D00"/>
</svg>
