<svg width="100" height="100" viewBox="0 0 100 100" fill="none" xmlns="http://www.w3.org/2000/svg">
<path d="M85.416 25H10.416" stroke="#5D4037" stroke-width="22"/>
<path d="M85.3828 14.5845L10.3828 18.7511" stroke="#5D4037" stroke-width="22"/>
<path d="M28.5838 58.4423C29.1817 58.0007 30.0338 57.4715 31.113 57.1111C31.863 56.859 32.613 56.7361 33.3525 56.7215C33.3984 56.7215 33.4442 56.7257 33.49 56.7257C35.4588 56.7299 37.3525 57.5548 38.9713 59.1757C39.8567 60.0632 40.7213 60.3778 41.4963 60.4048C41.5734 60.4048 41.6505 60.4028 41.7255 60.4007C42.9859 60.3465 43.9796 59.5403 44.3692 59.1632C44.4984 59.0319 45.8025 57.7653 47.7755 57.109C48.5192 56.8611 49.2609 56.7382 49.9942 56.7215C50.0567 56.7194 50.1213 56.7257 50.1859 56.7278C52.1421 56.7424 54.0255 57.5611 55.638 59.1757C56.5525 60.0903 57.4463 60.4069 58.24 60.4132C58.2713 60.4132 58.2984 60.4048 58.3296 60.4048C59.6192 60.3757 60.638 59.5465 61.0359 59.1632C62.2775 57.9215 64.3109 56.8049 66.5796 56.734C66.665 56.7299 66.7484 56.7257 66.838 56.7278C68.6171 56.7361 70.5275 57.3986 72.3025 59.1757C73.1317 60.0007 73.9567 60.3944 74.8338 60.4007C74.89 60.4007 74.9463 60.4069 75.0025 60.4069C75.2963 60.3903 75.5921 60.3382 75.9004 60.234C76.9317 59.8903 77.6817 59.1819 77.69 59.1736C77.8317 59.0319 79.1359 57.7653 81.1088 57.109C81.8504 56.8611 82.5942 56.7382 83.3254 56.7215C83.3796 56.7194 83.4338 56.7278 83.488 56.7278C85.1296 56.7298 86.7213 57.3028 88.1421 58.4382C88.4442 58.3403 88.7275 58.1944 88.9671 57.9549C89.7817 57.1403 89.7817 55.8236 88.9671 55.009C86.7004 52.7382 83.9025 52.0069 81.1067 52.9424C79.1359 53.5986 77.8317 54.8653 77.688 55.0069C77.6796 55.0153 76.9296 55.7236 75.8984 56.0674C74.6025 56.5049 73.4588 56.1653 72.3004 55.009C68.1671 50.8694 63.288 52.7424 61.0338 54.9965C60.3859 55.6215 58.088 57.459 55.6359 55.009C53.3671 52.7382 50.5713 52.0069 47.7734 52.9424C45.8005 53.5986 44.4963 54.8674 44.3671 54.9965C43.7192 55.6194 41.4234 57.4653 38.9692 55.009C36.7025 52.7423 33.9067 52.0028 31.1088 52.9444C29.138 53.6007 27.8338 54.8673 27.69 55.009C26.8817 55.8173 26.8817 57.1215 27.6838 57.9361C27.9442 58.1986 28.2567 58.3465 28.5838 58.4423Z" fill="#FFE082"/>
<path d="M25.0169 75.1922C25.0148 75.1276 25.0085 75.0609 25.0106 74.9943C25.0273 74.2609 25.1481 73.5213 25.396 72.7797C26.0523 70.8088 27.319 69.5047 27.4627 69.3609C27.8377 68.9714 28.6648 67.9609 28.696 66.6734C28.696 66.6068 28.6898 66.5422 28.6898 66.4734C28.6585 65.7047 28.344 64.8526 27.4669 63.9734C25.696 62.2026 25.0335 60.3005 25.021 58.5234C25.0169 58.4214 25.021 58.3234 25.0273 58.2255C25.1065 55.9651 26.2231 53.9359 27.4669 52.6943C27.8419 52.3068 28.6669 51.2964 28.6981 50.0089C28.7002 49.9401 28.6919 49.8734 28.6919 49.8047C28.6585 49.0359 28.344 48.1839 27.469 47.3068C25.8585 45.6964 25.0377 43.8172 25.0231 41.8609C25.021 41.7922 25.0148 41.7255 25.0169 41.6589C25.0315 40.9276 25.1544 40.1859 25.4023 39.4443C26.0606 37.4714 27.3273 36.1672 27.469 36.0255C27.844 35.638 28.669 34.6276 28.7002 33.3401C28.7023 33.2714 28.694 33.2047 28.694 33.1359C28.6606 32.3672 28.346 31.5151 27.471 30.638C25.8606 29.0276 25.0398 27.1484 25.0273 25.1901C25.0252 25.1255 25.019 25.0609 25.021 24.9984C25.0356 24.2651 25.1585 23.5234 25.4065 22.7797C25.769 21.6922 26.3044 20.838 26.746 20.238C26.6502 19.9193 26.5044 19.613 26.2523 19.3609C25.4377 18.5464 24.121 18.5464 23.3065 19.3609C23.1648 19.5026 21.8981 20.8068 21.2398 22.7797C20.3065 25.5818 21.0398 28.3734 23.3065 30.638C25.7627 33.0964 23.919 35.3922 23.3065 36.0234C23.1648 36.1651 21.8981 37.4693 21.2398 39.4422C20.3065 42.2464 21.0398 45.038 23.3065 47.3047C25.7627 49.7609 23.919 52.0568 23.3065 52.6901C21.0398 54.9568 19.169 59.8318 23.3065 63.9693C25.7627 66.4276 23.9169 68.7214 23.3044 69.3568C23.1627 69.4984 21.896 70.8026 21.2377 72.7755C20.3044 75.5797 21.0377 78.3714 23.3065 80.6359C23.7044 81.0464 24.2377 81.2505 24.771 81.2505C25.3044 81.2505 25.8377 81.0464 26.246 80.6401C26.4856 80.4005 26.6315 80.1151 26.7294 79.8151C25.6002 78.4026 25.0294 76.8255 25.0169 75.1922Z" fill="#FFE082"/>
<path d="M58.1896 64.5829C56.2146 64.5829 54.3209 63.7454 52.6959 62.1204C50.2355 59.662 47.9396 61.5058 47.2959 62.1329C45.0396 64.387 40.1688 66.262 36.0271 62.1204C33.573 59.662 31.2751 61.5079 30.6292 62.1329C29.8063 62.9287 28.4897 62.9183 27.6897 62.1016C26.8876 61.285 26.8876 59.9808 27.6959 59.1745C27.8376 59.0329 29.1417 57.7662 31.1147 57.11C33.9126 56.1683 36.7084 56.9079 38.9751 59.1745C41.4292 61.6329 43.7271 59.787 44.373 59.162C44.5021 59.0308 45.8063 57.7641 47.7792 57.1079C50.5792 56.1725 53.3751 56.9058 55.6417 59.1745C58.0938 61.6266 60.3917 59.787 61.0396 59.162C63.2938 56.9079 68.173 55.037 72.3063 59.1745C73.4646 60.3287 74.6063 60.6704 75.9042 60.2329C76.9355 59.8891 77.6855 59.1808 77.6938 59.1725C77.8355 59.0308 79.1396 57.7641 81.1126 57.1079C83.9105 56.1725 86.7084 56.9058 88.973 59.1745C89.7876 59.9891 89.7876 61.3058 88.973 62.1204C88.1584 62.935 86.8417 62.935 86.0271 62.1204C84.8688 60.962 83.7271 60.6225 82.4292 61.06C81.398 61.4037 80.6459 62.112 80.6396 62.1183C80.498 62.26 79.1938 63.5266 77.2209 64.185C74.4146 65.1162 71.6251 64.387 69.3605 62.1204C66.9001 59.662 64.6084 61.51 63.9605 62.1329C63.8292 62.2641 62.5271 63.5287 60.5542 64.185C59.7626 64.4537 58.9688 64.5829 58.1896 64.5829Z" fill="#FFC107"/>
<path d="M21.2291 72.7787C21.8853 70.8079 23.152 69.5037 23.2958 69.3599C23.6708 68.9704 24.4958 67.9599 24.5291 66.6724C24.5291 66.6058 24.5228 66.5412 24.5228 66.4724C24.4916 65.7037 24.177 64.8516 23.2999 63.9724C21.5312 62.2037 20.8666 60.3016 20.8541 58.5266C20.8499 58.4245 20.8541 58.3266 20.8583 58.2287C20.9374 55.9662 22.0541 53.9349 23.2978 52.6933C23.6728 52.3058 24.4978 51.2954 24.5291 50.0099C24.5312 49.9412 24.5228 49.8745 24.5228 49.8037C24.4895 49.037 24.1749 48.1849 23.2999 47.3079C21.6895 45.6974 20.8687 43.8204 20.8541 41.8641C20.852 41.7954 20.8458 41.7287 20.8478 41.6599C20.8624 40.9266 20.9853 40.1849 21.2333 39.4433C21.8916 37.4704 23.1583 36.1662 23.2999 36.0245C23.6749 35.637 24.4999 34.6266 24.5312 33.3412C24.5333 33.2724 24.5249 33.2037 24.5249 33.1349C24.4916 32.3662 24.177 31.5141 23.302 30.637C21.6916 29.0266 20.8708 27.1495 20.8583 25.1933C20.8562 25.1287 20.8499 25.062 20.852 24.9995C20.8666 24.2662 20.9895 23.5245 21.2374 22.7787C21.5999 21.6912 22.1353 20.837 22.577 20.2391C22.4812 19.9204 22.3353 19.6162 22.0833 19.3641C21.2687 18.5495 19.952 18.5495 19.1374 19.3641C18.9958 19.5058 17.7291 20.8099 17.0708 22.7829C16.1374 25.5849 16.8708 28.3766 19.1374 30.6412C21.5937 33.0995 19.7499 35.3954 19.1374 36.0266C18.9958 36.1683 17.7291 37.4724 17.0708 39.4454C16.1374 42.2495 16.8708 45.0412 19.1374 47.3079C21.5937 49.7641 19.7499 52.0599 19.1374 52.6933C16.8708 54.9599 14.9999 59.8349 19.1374 63.9724C21.5937 66.4308 19.7478 68.7245 19.1353 69.3599C18.3208 70.1745 18.3208 71.4912 19.1353 72.3058C19.5416 72.712 20.077 72.9162 20.6103 72.9162C20.8228 72.9162 21.0291 72.86 21.2333 72.7933C21.2249 72.7891 21.227 72.7849 21.2291 72.7787Z" fill="#FFC107"/>
<path d="M28.9372 81.2495C28.4039 81.2495 27.8705 81.0454 27.4643 80.6391C25.1976 78.3724 24.4622 75.5808 25.3955 72.7787C26.0518 70.8079 27.3185 69.5037 27.4622 69.3599C28.0747 68.7245 29.9205 66.4308 27.4643 63.9724C23.3268 59.8349 25.1976 54.9599 27.4643 52.6933C28.0768 52.0599 29.9205 49.7641 27.4643 47.3079C25.1976 45.0412 24.4643 42.2474 25.3976 39.4454C26.056 37.4724 27.3226 36.1683 27.4643 36.0266C28.0768 35.3933 29.9205 33.0974 27.4643 30.6412C25.1976 28.3766 24.4643 25.5849 25.3976 22.7829C26.0539 20.812 27.3205 19.5079 27.4643 19.3641C28.2789 18.5495 29.5955 18.5495 30.4101 19.3641C31.2205 20.1745 31.2247 21.487 30.4185 22.3016C29.7935 22.9516 27.956 25.2433 30.4101 27.6954C32.6768 29.962 33.4101 32.7537 32.4768 35.5579C31.8205 37.5287 30.5539 38.8329 30.4101 38.9766C29.7976 39.6099 27.9518 41.9079 30.4101 44.3662C32.6768 46.6329 33.4101 49.4245 32.4768 52.2245C31.8205 54.1974 30.5539 55.4995 30.4101 55.6433C29.7976 56.2766 27.9539 58.5724 30.4101 61.0308C32.6768 63.2974 33.4101 66.0891 32.4747 68.8912C31.8164 70.862 30.5497 72.1662 30.408 72.3099C29.7955 72.9433 27.9518 75.2391 30.4101 77.6974C31.2247 78.512 31.2247 79.8287 30.4101 80.6433C30.0039 81.0454 29.4705 81.2495 28.9372 81.2495Z" fill="#FFC107"/>
<path d="M80.6416 50.839C79.827 50.0265 78.5104 50.0265 77.6958 50.839C77.6874 50.8453 76.9374 51.5557 75.9062 51.8994C74.6083 52.3348 73.4666 51.9973 72.3083 50.8411C68.1749 46.7036 63.2979 48.5744 61.0416 50.8307C60.3937 51.4536 58.0999 53.2932 55.6437 50.8411C53.3729 48.5723 50.5812 47.839 47.7812 48.7744C45.8083 49.4328 44.5041 50.6994 44.3749 50.8286C43.7291 51.4536 41.4312 53.2973 38.977 50.8411C36.7104 48.5744 33.9166 47.839 31.1166 48.7744C30.6208 48.939 30.1687 49.1432 29.7666 49.3578V53.5348C30.1687 53.3182 30.6124 53.1119 31.1145 52.9432C31.8645 52.6911 32.6124 52.5682 33.352 52.5536C33.402 52.5536 33.4541 52.5578 33.5041 52.5598C35.4687 52.5661 37.3583 53.389 38.9749 55.0078C39.8604 55.8953 40.7229 56.2078 41.4979 56.2348C41.5499 56.2348 41.602 56.2411 41.6541 56.239C42.952 56.214 43.9749 55.3786 44.3729 54.9953C44.502 54.864 45.8062 53.5973 47.7791 52.9411C48.5249 52.6911 49.2708 52.5682 50.0062 52.5536C50.0624 52.5536 50.1208 52.5578 50.177 52.5598C52.1395 52.5682 54.0249 53.389 55.6416 55.0078C56.5583 55.9223 57.4541 56.239 58.2499 56.2453C58.2666 56.2453 58.2854 56.2411 58.302 56.239C59.6083 56.2244 60.6395 55.3828 61.0374 54.9953C62.2791 53.7536 64.3145 52.6348 66.5854 52.564C66.6708 52.5598 66.7541 52.5578 66.8437 52.5598C68.6229 52.5682 70.5333 53.2328 72.3041 55.0078C73.1291 55.8307 73.9479 56.2203 74.8166 56.2307C74.8812 56.2307 74.9458 56.239 75.0104 56.2369C75.302 56.2203 75.5958 56.1703 75.902 56.0661C76.9333 55.7223 77.6833 55.014 77.6916 55.0057C77.8333 54.864 79.1374 53.5973 81.1104 52.9411C81.1166 52.939 81.1229 52.939 81.1291 52.9369C81.3583 52.2182 81.2104 51.4078 80.6416 50.839Z" fill="#FFC107"/>
<path d="M10.417 60.4155C10.417 76.8364 20.9857 82.4218 35.6795 87.4989H60.1545C74.8482 82.4218 85.417 76.8364 85.417 60.4155H10.417Z" fill="#00BCD4"/>
<path d="M83.5462 70.8333C84.7587 67.925 85.417 64.5104 85.417 60.4187H10.417C10.417 64.5104 11.0753 67.925 12.2878 70.8333H83.5462Z" fill="#0097A7"/>
</svg>
