<svg width="100" height="100" viewBox="0 0 100 100" fill="none" xmlns="http://www.w3.org/2000/svg">
<path d="M45.3254 39.2037C33.5828 53.787 25.0441 66.3977 26.2521 67.369C27.4594 68.3417 37.9568 57.3084 49.6988 42.725C61.4401 28.1417 69.9788 15.5324 68.7721 14.5597C67.5634 13.587 57.0661 24.6204 45.3254 39.2037Z" fill="#3D9745"/>
<path d="M60.8489 54.7279C46.2669 66.4699 33.6562 75.0085 32.6835 73.8019C31.7122 72.5932 42.7449 62.0972 57.3282 50.3552C71.9115 38.6132 84.5222 30.0739 85.4935 31.2812C86.4662 32.4892 75.4322 42.9865 60.8489 54.7279Z" fill="#3D9745"/>
<path d="M30.663 81.8069C27.0703 85.7115 20.9517 85.8369 17.1977 82.0829C13.449 78.3342 13.5743 72.2156 17.479 68.6229C29.9283 56.0449 46.1863 41.0082 60.2823 30.3702C63.4737 28.0176 69.7797 23.5942 72.7317 27.0842C75.419 30.0556 71.819 35.3615 69.3737 38.5722C62.8557 47.3382 59.3603 51.5229 56.9117 54.3835C48.797 63.8395 39.7017 73.0069 30.663 81.8069Z" fill="#FDDD32"/>
<path d="M45.2768 64.7094L46.4687 65.9207L46.9388 65.41L45.7221 64.264C46.3628 63.622 46.9994 62.978 47.6401 62.336L48.7834 63.448L49.1874 62.9894L48.0908 61.896L49.9114 60.074L50.9501 61.1027L51.3668 60.646L50.3568 59.6287C51.0688 58.9167 51.7821 58.204 52.4981 57.496L53.3981 58.3947L53.8314 57.9087L52.9434 57.0507C54.3641 55.6394 55.7848 54.2367 57.2094 52.8294L57.7641 53.3827L58.1661 52.9074L57.6601 52.3894C59.2174 50.8474 60.7848 49.3074 62.3474 47.772C62.9174 47.0587 63.4788 46.3373 64.0268 45.612L63.9594 45.5453L62.5701 44.1467L64.3294 42.388L65.5687 43.6247L65.9528 43.1194L64.7781 41.948L66.3241 40.402L67.2781 41.3707L67.6687 40.8527L66.7748 39.962C67.2954 39.44 67.8068 38.928 68.3281 38.4167L68.9961 39.0847L69.3734 38.5727L68.7734 37.9714C69.8328 36.9207 70.8747 35.8787 71.9161 34.8447L71.9201 34.8407C72.2767 34.2354 72.5974 33.6207 72.8654 33.0154C72.5441 33.336 72.2201 33.6614 71.8901 33.9813L70.0467 32.138L71.4361 30.7487L73.1101 32.4234C73.1934 32.2054 73.2748 31.9827 73.3408 31.764L71.8814 30.3034C72.4421 29.7514 73.0021 29.19 73.5594 28.634C73.5008 28.4074 73.4254 28.1887 73.3241 27.9794C72.7001 28.6027 72.0674 29.2354 71.4361 29.858L69.6548 28.078C70.3228 27.4634 70.9908 26.8487 71.6628 26.2474C71.4528 26.1367 71.2394 26.056 71.0128 25.9894C70.4074 26.5327 69.8108 27.0847 69.2094 27.6327L67.7174 26.1407C67.1887 26.2967 66.6401 26.5054 66.0881 26.7554L65.3761 27.4674L65.1141 27.2267L64.5454 27.5327L64.9308 27.9127L63.5988 29.2434L62.9088 28.5534L62.3554 28.8894L63.1534 29.6887L61.8228 31.0207L60.7941 29.992C60.6194 30.1207 60.4514 30.246 60.2821 30.3707L61.3774 31.466L59.8281 33.0154L58.5454 31.7174C57.9387 32.126 56.6728 33.1234 55.8108 33.8127C55.2548 34.3694 54.6494 35.014 54.0881 35.566L53.9007 35.38C53.7187 35.5273 53.5268 35.6734 53.3488 35.8254L53.5894 36.0647C53.1088 36.5467 52.6274 37.0274 52.1428 37.504L51.7794 37.1L51.2708 37.5194L51.6974 37.9494L49.7201 39.9254L49.1194 39.3254L48.6287 39.708L49.2748 40.3707C48.6648 40.9727 48.0594 41.578 47.4541 42.1834L46.6574 41.3967L46.1861 41.802L47.0088 42.6287L45.1921 44.4453L44.2367 43.484L43.7668 43.892L44.7474 44.8907L42.7654 46.872L41.6428 45.75L41.1848 46.182L42.3201 47.3174L40.1834 49.454L38.9021 48.182L38.4421 48.5947L39.7381 49.8994L37.9161 51.7214L36.5674 50.372L36.1221 50.8174L37.4708 52.1667C36.8308 52.8074 36.1934 53.4527 35.5521 54.0934L34.8434 53.3867L34.3981 53.832L35.1068 54.5387L33.5568 56.09L33.4948 56.0273L32.5541 57.9827C32.6374 57.898 33.4814 57.0634 33.5568 56.9794L34.7108 58.1327L33.1647 59.678L32.1494 58.616L31.8694 59.272L32.7201 60.1234L30.9034 61.94L30.6988 61.734L30.2534 62.1807L30.4581 62.3854L30.2094 62.634L29.4128 64.3254L30.9034 62.8307L32.5781 64.504C32.0568 65.026 31.5401 65.5327 31.0234 66.0493L29.3394 64.376L29.0934 65.014L30.5781 66.4947C30.0401 67.0247 29.5047 67.5587 28.9661 68.0887L28.1114 67.1993L27.8314 67.8434L28.5221 68.534C28.3528 68.694 26.9827 70.1247 26.8134 70.2854L26.2461 71.734C26.4148 71.574 28.7981 69.1394 28.9674 68.9794L30.6401 70.6534C29.8568 71.4467 28.4994 72.798 27.7161 73.582L28.7174 73.4767C29.5047 72.6887 30.3021 71.892 31.0854 71.0987L31.8827 71.896L32.5321 71.66L31.5308 70.6534L33.1341 69.0507L34.9674 70.8687L34.9241 70.9114L35.3694 71.3567C35.5248 71.202 35.6807 71.044 35.8354 70.888H35.8368C36.3541 70.3674 36.8707 69.846 37.3954 69.3214L38.2954 70.2214L38.7408 69.776L37.8408 68.876C38.4414 68.276 39.0428 67.6654 39.6534 67.056L40.8381 68.2487L40.9101 68.2054C40.6081 68.5087 40.3214 68.798 40.0808 69.0414H40.9708C41.7408 68.2627 42.5208 67.4827 43.2901 66.7133L44.2341 67.6574L44.6794 67.212L43.7314 66.2627C44.2481 65.7474 44.7601 65.2254 45.2768 64.7094ZM35.1561 57.6874L34.0021 56.534L35.5521 54.984L36.7054 56.138L35.1561 57.6874ZM37.1507 55.6927L35.9974 54.5387C36.6388 53.898 37.2747 53.2527 37.9161 52.612L39.0741 53.7694L37.1507 55.6927ZM39.5194 53.324L38.3614 52.1667L40.1834 50.3447L41.3408 51.5027L39.5194 53.324ZM41.7861 51.0574L40.6274 49.8994L42.7654 47.7627L43.9228 48.9207L41.7861 51.0574ZM44.3681 48.4754L43.2108 47.3174L45.1921 45.336L46.3501 46.4934L44.3681 48.4754ZM46.7954 46.048L45.6367 44.8907L47.4541 43.074L48.6114 44.2313L46.7954 46.048ZM49.0568 43.786L47.8994 42.6287C48.5047 42.0233 49.1101 41.418 49.7201 40.816L50.8734 41.97L49.0568 43.786ZM51.3187 41.5247L50.1647 40.3707L52.1428 38.3947L53.2954 39.548L51.3187 41.5247ZM53.7408 39.1027L52.5868 37.9494C53.0728 37.4727 53.5541 36.992 54.0348 36.51L55.1834 37.66L53.7408 39.1027ZM55.6728 37.1694L54.5294 36.0167C55.1041 35.4507 55.6781 34.876 56.2474 34.3074L57.3914 35.4507L55.6728 37.1694ZM57.8368 35.0067L56.6921 33.862C57.0088 33.5547 57.9227 32.648 58.2354 32.336L59.3827 33.4607L57.8368 35.0067ZM67.2108 26.5234L68.7421 28.056C68.2614 28.5 67.7794 28.9454 67.2994 29.3907L65.8214 27.9127L67.2108 26.5234ZM65.3761 28.358L66.8408 29.8227C66.3868 30.25 65.9281 30.682 65.4687 31.1147L64.0441 29.6887L65.3761 28.358ZM63.5988 30.134L65.0101 31.5453C64.5608 31.978 64.1067 32.414 63.6521 32.85L62.2681 31.466L63.5988 30.134ZM61.8228 31.9114L63.2028 33.2914C62.6768 33.7994 62.1468 34.302 61.6261 34.8147L60.2734 33.4607L61.8228 31.9114ZM59.8281 33.906L61.1768 35.2554C60.6561 35.7574 60.1441 36.28 59.6234 36.7914L58.2821 35.4507L59.8281 33.906ZM57.8368 35.896L59.1781 37.2367C58.5948 37.8114 58.0194 38.3854 57.4448 38.9594L56.1141 37.6194L57.8368 35.896ZM55.6287 38.1054L56.9647 39.44C56.4881 39.9254 56.0074 40.406 55.5308 40.892L54.1861 39.548L55.6287 38.1054ZM53.7408 39.9934L55.0854 41.3374C54.4307 42.0014 53.7807 42.6694 53.1314 43.3374L51.7641 41.97L53.7408 39.9934ZM51.3187 42.4154L52.6901 43.786C52.0894 44.396 51.4921 45.01 50.8954 45.6247L49.5021 44.2313L51.3187 42.4154ZM49.0568 44.6767L50.4594 46.0794C49.8628 46.694 49.2667 47.3087 48.6687 47.9234L47.2408 46.4934L49.0568 44.6767ZM46.7954 46.9387L48.2327 48.3773C47.5781 49.0493 46.9334 49.7214 46.2874 50.3947L44.8134 48.9207L46.7954 46.9387ZM44.3681 49.366L45.8514 50.8474C45.4414 51.276 45.0234 51.7027 44.6128 52.13C44.3281 52.424 44.0387 52.7314 43.7534 53.026L42.2301 51.5027L44.3681 49.366ZM41.7861 51.948L43.3174 53.48C42.7207 54.0933 42.1288 54.7134 41.5268 55.332L39.9647 53.7694L41.7861 51.948ZM39.5194 54.2147L41.0908 55.786C40.4634 56.4414 39.8354 57.086 39.1988 57.7407L37.5961 56.138L39.5194 54.2147ZM37.1507 56.5834L38.7574 58.19C38.2494 58.716 37.7434 59.2407 37.2301 59.7627L35.6014 58.1327L37.1507 56.5834ZM35.1561 58.578L36.7941 60.216C36.2821 60.738 35.7748 61.254 35.2628 61.7747L33.6101 60.1234L35.1561 58.578ZM31.3488 62.3854L33.1647 60.5687L34.8214 62.2254C34.2208 62.8347 33.6154 63.4494 33.0181 64.0547L31.3488 62.3854ZM65.4554 31.9907L67.3748 33.91L66.0441 35.242L64.0974 33.2953C64.5521 32.8593 65.0061 32.4234 65.4554 31.9907ZM63.6481 33.7367L65.5988 35.6874C65.0781 36.1994 64.5608 36.716 64.0441 37.2313L62.0714 35.2587C62.5921 34.7474 63.1221 34.2447 63.6481 33.7367ZM61.6221 35.7007L63.5988 37.6767L62.0541 39.2227L60.0687 37.2367C60.5894 36.7254 61.1014 36.2027 61.6221 35.7007ZM59.6234 37.682L61.6088 39.668C61.0294 40.246 60.4421 40.8254 59.8628 41.4047L57.8867 39.41C58.4647 38.8307 59.0401 38.2567 59.6234 37.682ZM59.3954 41.872L57.9528 43.3147L55.9761 41.3374C56.4528 40.8514 56.9334 40.3707 57.4101 39.8854L59.3954 41.872ZM55.5308 41.7827L57.5074 43.76L55.5308 45.7367L53.5768 43.7827C54.2261 43.1147 54.8761 42.4467 55.5308 41.7827ZM53.1354 44.2313L55.0854 46.182L53.2694 47.9987L51.3408 46.07C51.9374 45.4554 52.5387 44.846 53.1354 44.2313ZM50.9048 46.5247L52.8241 48.444L51.0061 50.26L49.1141 48.3687C49.7108 47.754 50.3081 47.1394 50.9048 46.5247ZM48.6781 48.8214L50.5621 50.7054L48.5808 52.6874L46.7327 50.84C47.3787 50.1667 48.0281 49.4987 48.6781 48.8214ZM45.0674 52.566C45.4761 52.1394 45.8901 51.716 46.2967 51.2927L48.1354 53.1327L45.9981 55.2694L44.1988 53.4714C44.4881 53.1734 44.7781 52.866 45.0674 52.566ZM43.7628 53.9254L45.5534 55.7147L43.7314 57.536L41.9721 55.7773C42.5741 55.1587 43.1661 54.5387 43.7628 53.9254ZM41.5361 56.2313L43.2861 57.9813L41.3628 59.9047L39.6441 58.186C40.2808 57.5314 40.9088 56.8867 41.5361 56.2313ZM39.2028 58.6354L40.9214 60.354L39.3721 61.9034L37.6754 60.208C38.1888 59.686 38.6948 59.1614 39.2028 58.6354ZM37.2394 60.6614L38.9268 62.3487L37.3827 63.8947L35.7081 62.22C36.2201 61.6994 36.7274 61.182 37.2394 60.6614ZM35.2668 62.6707L36.9374 64.34C36.3354 64.9494 35.7248 65.56 35.1248 66.16L33.4634 64.5C34.0607 63.8947 34.6661 63.28 35.2668 62.6707ZM34.6794 66.6067L33.1301 68.1547L31.4687 66.4947C31.9854 65.978 32.5021 65.47 33.0234 64.9493L34.6794 66.6067ZM31.0854 70.208L29.4114 68.534C29.9501 68.004 30.4854 67.47 31.0234 66.94L32.6888 68.6054L31.0854 70.208ZM67.8201 33.4647L65.9141 31.56C66.3734 31.1274 66.8314 30.6954 67.2861 30.268L69.1561 32.138C68.7108 32.574 68.2654 33.0194 67.8201 33.4647ZM69.6014 31.6927L67.7448 29.836C68.2248 29.3907 68.7068 28.9454 69.1874 28.5L70.9908 30.3034L69.6014 31.6927ZM62.1208 44.596L63.3941 45.8694L61.9388 47.2994L60.6728 46.0354C61.1548 45.5547 61.6354 45.0727 62.1208 44.596ZM60.2287 46.48L61.4881 47.7407C60.8201 48.3907 60.1574 49.0454 59.4934 49.6994L58.2474 48.4527C58.9061 47.794 59.5687 47.1393 60.2287 46.48ZM57.8021 48.898L59.0441 50.1407C58.4334 50.7407 57.8241 51.342 57.2134 51.944L55.9854 50.7147L57.8021 48.898ZM55.5401 51.16L56.7641 52.384C56.1548 52.9854 55.5494 53.5907 54.9388 54.1927L53.7187 52.9727C54.3294 52.3707 54.9348 51.7654 55.5401 51.16ZM53.2734 53.418L54.4894 54.6327C53.8254 55.2967 53.1627 55.9507 52.4981 56.6054L51.2914 55.398L53.2734 53.418ZM50.8461 55.8434L52.0534 57.0507C51.3368 57.7587 50.6234 58.4714 49.9114 59.1834L48.7094 57.9813L50.8461 55.8434ZM49.4661 59.6287L47.6454 61.4507L46.4474 60.2527C47.0481 59.642 47.6548 59.036 48.2641 58.4267L49.4661 59.6287ZM45.2768 63.8187L44.0794 62.6207L46.0021 60.698L47.1948 61.8907C46.5541 62.5327 45.9174 63.1767 45.2768 63.8187ZM69.6014 32.5834L71.4448 34.4267C71.0034 34.8687 70.5541 35.3087 70.1088 35.754L68.2654 33.91C68.7108 33.4647 69.1561 33.0194 69.6014 32.5834ZM67.8201 34.3554L69.6641 36.1994C69.2188 36.6353 68.7734 37.0807 68.3281 37.526L66.4894 35.6874L67.8201 34.3554ZM66.0441 36.1327L67.8827 37.9714C67.3614 38.4827 66.8501 38.9947 66.3281 39.5167L64.4894 37.6767C65.0061 37.1614 65.5221 36.6447 66.0441 36.1327ZM64.0441 38.122L65.8787 39.9567L64.3341 41.5027L62.4994 39.668L64.0441 38.122ZM62.0541 40.1133L63.8841 41.9427L62.1301 43.698L60.3041 41.854C60.8874 41.2707 61.4708 40.6967 62.0541 40.1133ZM59.8408 42.3174L61.6754 44.1507C61.1901 44.6274 60.7094 45.1094 60.2287 45.59L58.3981 43.76L59.8408 42.3174ZM57.9528 44.204L59.7834 46.0354C59.1248 46.694 58.4607 47.3487 57.8021 48.0074L55.9761 46.182L57.9528 44.204ZM41.1974 64.6194L39.6534 66.1654L37.8268 64.34L39.3721 62.794L41.1974 64.6194ZM39.8174 62.3487L41.3668 60.7993L43.1888 62.6207L41.6388 64.1707L39.8174 62.3487ZM55.5308 46.6273L57.3568 48.4527L55.5401 50.2694L53.7147 48.444L55.5308 46.6273ZM53.2694 48.8894L55.0948 50.7147C54.4894 51.32 53.8841 51.9253 53.2734 52.5273L51.4528 50.7054L53.2694 48.8894ZM51.0061 51.1507L52.8281 52.9727L50.8461 54.9527L49.0254 53.1327L51.0061 51.1507ZM48.5808 53.578L50.4021 55.398L48.2641 57.536L46.4434 55.7147L48.5808 53.578ZM45.9981 56.16L47.8187 57.9813C47.2094 58.5907 46.6041 59.1967 46.0021 59.8074L44.1768 57.9813L45.9981 56.16ZM43.7314 58.4267L45.5568 60.2527L43.6341 62.1754L41.8081 60.35L43.7314 58.4267ZM39.2081 66.6107C38.5974 67.22 37.9961 67.8307 37.3954 68.432L35.5701 66.6067C36.1701 66.0054 36.7807 65.3947 37.3814 64.7854L39.2081 66.6107ZM33.5754 68.6014L35.1248 67.0507L36.9501 68.876C36.4268 69.3994 35.9114 69.9207 35.3941 70.44L33.5754 68.6014ZM42.0841 64.616L43.6341 63.066L44.8314 64.264C44.3147 64.78 43.8034 65.302 43.2861 65.8174L42.0841 64.616ZM40.0974 66.6107L41.6428 65.0647L42.8448 66.268C42.4148 66.698 41.8474 67.2654 41.2954 67.8187L40.0974 66.6107Z" fill="#FBAD4B"/>
<path d="M50.381 49.5441L49.8884 49.0521C49.489 48.6521 49.489 48.0054 49.8884 47.6054L50.217 47.2774C50.5917 46.9021 51.1843 46.8788 51.5863 47.2068L52.2257 47.8474C52.4697 48.1461 52.5204 48.5508 52.3744 48.8921L51.503 49.7628C51.131 49.9208 50.6843 49.8474 50.381 49.5441Z" fill="#FCEC8A"/>
<path d="M52.2256 47.8474L51.5863 47.2067C51.6123 47.2294 51.6383 47.2527 51.6643 47.2773L52.1556 47.7694C52.1816 47.794 52.205 47.82 52.2256 47.8474ZM51.5029 49.7627L52.3743 48.892C52.325 49.01 52.2516 49.1193 52.1556 49.216L51.8289 49.544C51.7323 49.6407 51.6216 49.7134 51.5029 49.7627Z" fill="#FED299"/>
<path d="M48.1973 52.3041L47.1286 51.2348C47.0193 50.9561 47.036 50.6401 47.1806 50.3728C47.458 50.0855 47.7366 49.7974 48.0153 49.5094C48.4113 49.2508 48.9486 49.2961 49.2966 49.6441L49.7886 50.1361C50.092 50.4394 50.1646 50.8874 50.0073 51.2594L48.972 52.2948C48.726 52.3988 48.446 52.4014 48.1973 52.3041Z" fill="#FCEC8A"/>
<path d="M47.1809 50.3734C47.2263 50.2887 47.2849 50.2094 47.3583 50.1367L47.8503 49.6447C47.9009 49.5934 47.9569 49.548 48.0156 49.51C47.7369 49.798 47.4583 50.086 47.1809 50.3734ZM48.9723 52.2953L50.0076 51.26C49.9583 51.3774 49.8856 51.488 49.7889 51.5847L49.2969 52.0767C49.2002 52.172 49.0896 52.2447 48.9723 52.2953ZM47.8503 52.0767L47.3583 51.5847C47.2549 51.4814 47.1782 51.362 47.1289 51.2354L48.1976 52.3047C48.0716 52.2554 47.9516 52.178 47.8503 52.0767Z" fill="#FED299"/>
<path d="M45.4253 54.5L44.9334 54.0073C44.6507 53.7266 44.5687 53.3199 44.6847 52.9646C44.812 52.8319 44.94 52.6993 45.0673 52.566C45.2993 52.324 45.5334 52.0833 45.7654 51.8433C46.1354 51.694 46.574 51.7693 46.872 52.0686L47.364 52.5613C47.6674 52.8646 47.7407 53.3113 47.5827 53.6833L46.548 54.7186C46.1753 54.876 45.7287 54.8033 45.4253 54.5Z" fill="#FCEC8A"/>
<path d="M46.5479 54.7188L47.5826 53.6834C47.5332 53.8021 47.4606 53.9128 47.3639 54.0074L46.8719 54.5001C46.7766 54.5961 46.6659 54.6694 46.5479 54.7188ZM44.6846 52.9647C44.7326 52.8174 44.8159 52.6781 44.9332 52.5614L45.4252 52.0688C45.5252 51.9688 45.6412 51.8934 45.7652 51.8434C45.5332 52.0834 45.2992 52.3241 45.0672 52.5661C44.9399 52.6994 44.8119 52.8321 44.6846 52.9647Z" fill="#FED299"/>
<path d="M47.6886 56.6546L47.4645 56.4319C47.0659 56.0326 47.0659 55.3839 47.4645 54.9853L47.9566 54.4933C48.3566 54.0933 49.0045 54.0933 49.4045 54.4933L49.6272 54.7159C50.0266 55.1159 50.0266 55.7626 49.6272 56.1626L49.1352 56.6546C48.7352 57.0546 48.0866 57.0546 47.6886 56.6546Z" fill="#FCEC8A"/>
<path d="M45.3049 59.0359L45.0822 58.8132C44.6829 58.4139 44.6829 57.7666 45.0822 57.3673L45.4249 57.0246C45.7949 56.6546 46.3782 56.6273 46.7802 56.9426L47.1762 57.3399C47.4929 57.7406 47.4656 58.3239 47.0942 58.6952L46.7529 59.0359C46.3536 59.4359 45.7049 59.4359 45.3049 59.0359Z" fill="#FCEC8A"/>
<path d="M47.1763 57.3398L46.7803 56.9425C46.8116 56.9685 46.8429 56.9945 46.8716 57.0245L47.0943 57.2472C47.1243 57.2772 47.1516 57.3072 47.1763 57.3398Z" fill="#FED299"/>
<path d="M43.0686 61.61L42.5086 61.05C42.2666 60.6567 42.316 60.1334 42.6573 59.7921L43.1493 59.3C43.5493 58.9 44.1973 58.9 44.5973 59.3L44.82 59.5227C45.22 59.9227 45.22 60.5694 44.82 60.9694L44.328 61.4614C43.9853 61.8027 43.4633 61.852 43.0686 61.61Z" fill="#FCEC8A"/>
<path d="M42.8801 61.4617L42.6575 61.239C42.6001 61.1804 42.5508 61.1184 42.5088 61.0504L43.0688 61.6104C43.0021 61.5697 42.9388 61.5204 42.8801 61.4617Z" fill="#FED299"/>
<path d="M54.7029 49.3704L54.4802 49.1477C54.0808 48.7484 54.0808 48.0997 54.4802 47.7017L54.8202 47.3604C55.2028 46.9777 55.8122 46.9604 56.2148 47.3111L56.5402 47.6364C56.8889 48.0371 56.8735 48.6477 56.4908 49.0297L56.1495 49.3704C55.7495 49.7704 55.1029 49.7704 54.7029 49.3704Z" fill="#FCEC8A"/>
<path d="M56.5402 47.6367L56.2148 47.3114C56.2328 47.3267 56.2509 47.3434 56.2682 47.3607L56.4909 47.5834C56.5075 47.6001 56.5249 47.6187 56.5402 47.6367Z" fill="#FED299"/>
<path d="M57.5838 42.9448L56.3871 41.7482C56.2718 41.4748 56.2791 41.1622 56.4125 40.8955C56.5751 40.7295 56.7391 40.5642 56.9018 40.4002C57.2858 40.2048 57.7678 40.2675 58.0878 40.5895L58.7431 41.2428C59.0205 41.5215 59.1051 41.9202 58.9958 42.2702L58.2871 42.9795C58.0565 43.0515 57.8065 43.0395 57.5838 42.9448Z" fill="#FCEC8A"/>
<path d="M56.413 40.8955C56.461 40.7975 56.525 40.7062 56.607 40.6242L56.6417 40.5895C56.7204 40.5109 56.8083 40.4475 56.9023 40.4002C56.7397 40.5642 56.5757 40.7295 56.413 40.8955ZM58.2877 42.9795L58.9964 42.2702C58.949 42.4235 58.8644 42.5682 58.7437 42.6895L58.707 42.7262C58.5857 42.8468 58.4417 42.9315 58.2877 42.9795ZM57.2604 42.7262L56.607 42.0722C56.5104 41.9762 56.4377 41.8655 56.3877 41.7482L57.5843 42.9448C57.4663 42.8955 57.3557 42.8208 57.2604 42.7262Z" fill="#FED299"/>
<path d="M63.8096 40.9773L63.1416 40.3106C62.945 39.9246 63.0076 39.442 63.3296 39.12L63.525 38.9246C63.8203 38.6293 64.2496 38.5526 64.6143 38.692L65.427 39.5046C65.5663 39.87 65.4896 40.3 65.195 40.594L64.9996 40.7893C64.677 41.1113 64.1936 41.1733 63.8096 40.9773Z" fill="#FCEC8A"/>
<path d="M65.4269 39.5049L64.6143 38.6922C64.7449 38.7429 64.8669 38.8195 64.9723 38.9249L65.1949 39.1475C65.2996 39.2522 65.3776 39.3742 65.4269 39.5049ZM63.5536 40.7896L63.3296 40.5669C63.2523 40.4889 63.1903 40.4029 63.1416 40.3109L63.8096 40.9775C63.7176 40.9302 63.6302 40.8682 63.5536 40.7896Z" fill="#FED299"/>
<path d="M58.8995 49.0175L58.8529 48.9709C58.6002 48.7182 58.5362 48.3469 58.6642 48.0355C59.0649 47.6362 59.4676 47.2375 59.8696 46.8382C60.1429 46.7309 60.4596 46.7702 60.7016 46.9535L60.9162 47.1675C61.1729 47.5062 61.1469 47.9875 60.8382 48.2962L60.1169 49.0175C59.7809 49.3535 59.2355 49.3535 58.8995 49.0175Z" fill="#FCEC8A"/>
<path d="M60.916 47.1681L60.7014 46.9541C60.7327 46.9781 60.7627 47.0041 60.7914 47.0328L60.8381 47.0795C60.8667 47.1081 60.8927 47.1381 60.916 47.1681ZM58.6641 48.0361C58.7054 47.9335 58.7694 47.8375 58.8527 47.7541L59.5741 47.0328C59.6614 46.9454 59.7614 46.8815 59.8694 46.8388C59.4674 47.2381 59.0647 47.6368 58.6641 48.0361Z" fill="#FED299"/>
<path d="M14.711 78.3603C14.711 78.3603 13.311 74.7196 14.913 70.5283C20.3996 56.6183 41.1976 32.747 58.0363 14.8943C49.1523 30.9956 25.057 64.3563 22.857 84.4723C19.9676 84.9383 15.9296 81.8876 14.711 78.3603Z" fill="#3D9745"/>
<path d="M20.7877 84.4902C24.9964 86.1269 29.0283 84.6609 33.1157 82.7036C42.1223 78.3916 54.831 68.5122 62.583 62.1295C71.3777 54.8876 83.4143 43.2142 83.4143 43.2142C83.4117 43.2156 62.301 56.5349 48.621 64.6102C42.307 68.3382 35.3217 70.8549 28.3843 73.2362C24.7097 74.4982 19.6457 76.0529 15.7483 76.4502C12.3423 76.7976 16.5717 82.8509 20.7877 84.4902Z" fill="#54B948"/>
<path d="M17.2822 85.287L14.3875 82.393C13.8708 81.8757 13.8708 81.037 14.3875 80.5204C14.9048 80.0037 15.7435 80.0037 16.2602 80.5204L19.1548 83.415C19.6728 83.9317 19.6728 84.7704 19.1548 85.287C18.6375 85.8044 17.7995 85.8044 17.2822 85.287Z" fill="#54B948"/>
</svg>
