<svg width="100" height="100" viewBox="0 0 100 100" fill="none" xmlns="http://www.w3.org/2000/svg">
<path fill-rule="evenodd" clip-rule="evenodd" d="M50.5243 8.06075C52.6622 8.84397 53.2739 10.3004 52.3594 12.43C51.626 13.3641 50.6648 13.7719 49.4757 13.6533C48.925 12.7533 48.1677 12.5494 47.2037 13.0416C47.0489 13.3238 46.8741 13.586 46.6794 13.8281C34.1872 15.309 24.7205 21.4259 18.2796 32.1787C15.1557 38.0251 13.5536 44.2585 13.4735 50.8789C13.0367 52.1584 12.1337 52.7993 10.7646 52.8014C9.42382 52.6535 8.52084 51.9544 8.05566 50.7041C8.15385 35.6802 14.2707 23.825 26.4063 15.1389C33.7009 10.2902 41.7403 7.93083 50.5243 8.06075Z" fill="#FEA959"/>
<path opacity="0.999" fill-rule="evenodd" clip-rule="evenodd" d="M50.524 8.06076C55.4902 8.01132 60.2673 8.91429 64.8549 10.7697C63.4176 13.812 64.0293 16.3462 66.69 18.3721C66.6965 20.7152 67.6285 22.5794 69.4863 23.9647C69.7308 28.1708 71.9154 30.3554 76.0401 30.5185C77.4718 32.3995 79.3359 33.3315 81.6327 33.3147C83.6586 35.9754 86.1927 36.5871 89.2351 35.1498C91.0448 39.6256 91.9478 44.286 91.944 49.1312C91.2024 47.5954 89.9791 46.9837 88.2739 47.2962C87.4292 47.6749 86.8175 48.2866 86.4388 49.1312C86.1604 63.0176 80.2475 73.7076 68.6998 81.2012C62.2455 85.0508 55.2548 86.7693 47.7277 86.3568C47.1079 84.5024 45.8264 83.7741 43.8828 84.1722C43.2187 84.4592 42.6944 84.8961 42.3099 85.483C31.5905 83.024 23.522 77.0237 18.1045 67.4819C17.4035 66.2557 16.8501 64.974 16.4442 63.637C17.5945 62.8304 18.0314 61.7236 17.755 60.3164C17.1486 58.8915 16.0708 58.2506 14.5218 58.3939C14.1268 55.8724 13.7772 53.3674 13.4731 50.8789C13.5533 44.2585 15.1554 38.0251 18.2793 32.1787C24.7202 21.4259 34.1868 15.3091 46.6791 13.8281C46.9482 15.4922 47.7929 15.9 49.2132 15.0515C49.432 14.6122 49.5194 14.1461 49.4754 13.6533C50.6645 13.7719 51.6257 13.3641 52.359 12.43C53.2736 10.3004 52.6619 8.84399 50.524 8.06076Z" fill="#F18938"/>
<path fill-rule="evenodd" clip-rule="evenodd" d="M49.476 13.6528C49.52 14.1456 49.4326 14.6116 49.2138 15.0509C47.7935 15.8994 46.9488 15.4916 46.6797 13.8275C46.8744 13.5854 47.0491 13.3233 47.204 13.0411C48.168 12.5488 48.9253 12.7527 49.476 13.6528Z" fill="#A85224"/>
<path opacity="0.958" fill-rule="evenodd" clip-rule="evenodd" d="M73.0692 16.4491C75.0545 16.3111 75.637 17.1558 74.8169 18.9833C72.9755 19.6818 72.189 19.0701 72.4575 17.1482C72.5781 16.8248 72.7819 16.5918 73.0692 16.4491Z" fill="#F28A38"/>
<path opacity="0.958" fill-rule="evenodd" clip-rule="evenodd" d="M87.0506 19.2453C89.036 19.1072 89.6185 19.9519 88.7983 21.7794C86.9569 22.4779 86.1705 21.8663 86.4389 19.9443C86.5595 19.621 86.7633 19.3879 87.0506 19.2453Z" fill="#F28A38"/>
<path opacity="0.981" fill-rule="evenodd" clip-rule="evenodd" d="M82.5073 24.8383C85.8765 24.6827 87.0125 26.1973 85.9153 29.3822C84.7015 30.5303 83.3326 30.7342 81.8082 29.9939C80.6602 28.7802 80.4562 27.4112 81.1966 25.8869C81.566 25.4288 82.0029 25.0793 82.5073 24.8383Z" fill="#F28939"/>
<path fill-rule="evenodd" clip-rule="evenodd" d="M34.0957 24.8377C35.1669 24.6725 35.8077 25.1095 36.0182 26.1484C35.989 27.1097 35.4939 27.6048 34.5326 27.634C33.4655 27.4236 33.0578 26.7827 33.3093 25.7115C33.4884 25.3293 33.7505 25.038 34.0957 24.8377Z" fill="#A75223"/>
<path fill-rule="evenodd" clip-rule="evenodd" d="M50.6992 27.1104C53.6219 27.2484 54.6413 28.7049 53.7577 31.4796C52.172 33.1021 50.5991 33.1021 49.0389 31.4796C48.1651 29.4685 48.7186 28.0122 50.6992 27.1104Z" fill="#D26E28"/>
<path fill-rule="evenodd" clip-rule="evenodd" d="M37.5914 33.2265C42.2876 33.1164 44.5304 35.3884 44.3199 40.0424C43.4314 42.8476 41.509 44.304 38.5526 44.4116C35.1418 43.971 33.365 42.0194 33.2222 38.5569C33.5042 35.804 34.9606 34.0271 37.5914 33.2265Z" fill="#A55023"/>
<path fill-rule="evenodd" clip-rule="evenodd" d="M36.0187 34.6248C38.2064 34.6256 39.0511 35.6742 38.5528 37.7706C37.3235 39.1535 36.1001 39.1535 34.8827 37.7706C34.3269 36.378 34.7056 35.3294 36.0187 34.6248Z" fill="#D16D27"/>
<path fill-rule="evenodd" clip-rule="evenodd" d="M59.2627 36.0235C60.3339 35.8583 60.9747 36.2952 61.1852 37.3342C61.156 38.2955 60.6609 38.7906 59.6996 38.8198C58.6325 38.6093 58.2248 37.9685 58.4763 36.8973C58.6554 36.5151 58.9175 36.2238 59.2627 36.0235Z" fill="#A75223"/>
<path fill-rule="evenodd" clip-rule="evenodd" d="M63.1076 41.6155C65.9331 41.5555 67.0691 42.8955 66.5156 45.6351C65.486 47.2208 64.1171 47.5995 62.4085 46.7711C61.1333 45.6634 60.8711 44.3527 61.6221 42.8388C62.0487 42.3226 62.544 41.9148 63.1076 41.6155Z" fill="#A65123"/>
<path fill-rule="evenodd" clip-rule="evenodd" d="M24.8329 44.4131C26.2957 44.4447 26.8492 45.1438 26.4932 46.5103C25.5909 47.4824 24.7754 47.4242 24.0464 46.3355C23.7656 45.4509 24.0277 44.8102 24.8329 44.4131Z" fill="#D26E28"/>
<path fill-rule="evenodd" clip-rule="evenodd" d="M55.4175 45.2847C57.1376 45.1701 58.2736 45.9275 58.8255 47.5567C58.7594 50.3009 57.3903 51.3205 54.7185 50.6152C53.2653 49.5314 52.9449 48.1625 53.7572 46.5081C54.251 45.988 54.8044 45.5803 55.4175 45.2847Z" fill="#D26E28"/>
<path fill-rule="evenodd" clip-rule="evenodd" d="M76.7393 47.2077C81.4355 47.0976 83.6783 49.3696 83.4679 54.0236C82.5794 56.8288 80.6569 58.2852 77.7005 58.3928C74.2898 57.9522 72.5129 56.0006 72.3701 52.5381C72.6522 49.7852 74.1085 48.0083 76.7393 47.2077Z" fill="#A55023"/>
<path fill-rule="evenodd" clip-rule="evenodd" d="M91.9443 49.1311C91.8568 65.186 85.099 77.5071 71.6712 86.0945C60.2007 92.5861 48.1999 93.7511 35.669 89.5899C23.5226 84.9003 15.1046 76.4823 10.415 64.3359C8.85453 59.9246 8.06807 55.3806 8.05566 50.704C8.52084 51.9543 9.42382 52.6534 10.7646 52.8012C12.1337 52.7991 13.0367 52.1583 13.4735 50.8788C13.7776 53.3673 14.1271 55.8723 14.5221 58.3938C12.5492 59.0772 11.8793 60.4171 12.5122 62.4135C13.4548 63.9918 14.7656 64.3995 16.4445 63.6368C16.8504 64.9738 17.4038 66.2556 18.1048 67.4817C23.5223 77.0236 31.5908 83.0239 42.3102 85.4828C41.7034 88.1638 42.752 89.5329 45.456 89.5899C47.0017 89.064 47.7589 87.9864 47.728 86.3567C55.2551 86.7691 62.2458 85.0506 68.7002 81.201C80.2478 73.7075 86.1607 63.0175 86.4391 49.1311C86.8178 48.2865 87.4295 47.6748 88.2742 47.296C89.9794 46.9836 91.2028 47.5952 91.9443 49.1311Z" fill="#D26E28"/>
<path fill-rule="evenodd" clip-rule="evenodd" d="M75.1671 48.6057C77.3548 48.6066 78.1995 49.6552 77.7012 51.7515C76.4719 53.1345 75.2485 53.1345 74.0311 51.7515C73.4753 50.359 73.8541 49.3104 75.1671 48.6057Z" fill="#D16D27"/>
<path fill-rule="evenodd" clip-rule="evenodd" d="M45.2813 55.5972C46.3524 55.4321 46.9933 55.869 47.2037 56.908C47.1745 57.8692 46.6794 58.3643 45.7182 58.3935C44.651 58.1831 44.2433 57.5422 44.4948 56.4711C44.6739 56.0888 44.9361 55.7975 45.2813 55.5972Z" fill="#A75223"/>
<path fill-rule="evenodd" clip-rule="evenodd" d="M14.5222 58.3944C16.0713 58.2511 17.149 58.892 17.7554 60.3168C18.0318 61.7241 17.5949 62.8309 16.4446 63.6374C14.7657 64.4001 13.455 63.9924 12.5124 62.4141C11.8794 60.4177 12.5494 59.0777 14.5222 58.3944Z" fill="#A65023"/>
<path fill-rule="evenodd" clip-rule="evenodd" d="M26.7556 61.1902C29.581 61.1302 30.717 62.4702 30.1635 65.2098C29.134 66.7955 27.765 67.1742 26.0565 66.3458C24.7812 65.2381 24.5191 63.9274 25.27 62.4135C25.6966 61.8973 26.1919 61.4895 26.7556 61.1902Z" fill="#A65123"/>
<path fill-rule="evenodd" clip-rule="evenodd" d="M62.7584 61.1896C67.4546 61.0795 69.6974 63.3515 69.4869 68.0056C68.5984 70.8108 66.676 72.2671 63.7196 72.3748C60.3088 71.9342 58.5319 69.9825 58.3892 66.52C58.6712 63.7671 60.1276 61.9902 62.7584 61.1896Z" fill="#A55023"/>
<path fill-rule="evenodd" clip-rule="evenodd" d="M61.1852 62.5879C63.3729 62.5888 64.2176 63.6374 63.7193 65.7337C62.49 67.1167 61.2666 67.1167 60.0492 65.7337C59.4934 64.3412 59.8721 63.2926 61.1852 62.5879Z" fill="#D16D27"/>
<path fill-rule="evenodd" clip-rule="evenodd" d="M50.35 70.9766C51.7846 70.8669 52.3963 71.5078 52.185 72.8991C51.2376 74.1108 50.3638 74.0526 49.5635 72.7243C49.4469 72.433 49.4469 72.1418 49.5635 71.8505C49.8618 71.5819 50.124 71.2905 50.35 70.9766Z" fill="#D36E28"/>
<path fill-rule="evenodd" clip-rule="evenodd" d="M59.2627 75.1717C60.3339 75.0065 60.9747 75.4434 61.1852 76.4824C61.156 77.4437 60.6609 77.9388 59.6996 77.968C58.6325 77.7575 58.2248 77.1167 58.4763 76.0455C58.6554 75.6633 58.9175 75.372 59.2627 75.1717Z" fill="#A75223"/>
<path fill-rule="evenodd" clip-rule="evenodd" d="M34.62 76.5691C36.0828 76.6007 36.6363 77.2998 36.2803 78.6663C35.378 79.6384 34.5625 79.5802 33.8336 78.4915C33.5527 77.6069 33.8149 76.9662 34.62 76.5691Z" fill="#D26E28"/>
<path fill-rule="evenodd" clip-rule="evenodd" d="M47.7277 86.3558C47.7586 87.9855 47.0014 89.0631 45.4557 89.589C42.7517 89.532 41.7031 88.1629 42.3099 85.482C42.6944 84.8951 43.2187 84.4582 43.8828 84.1712C45.8264 83.7731 47.108 84.5013 47.7277 86.3558Z" fill="#A65023"/>
</svg>
