<svg width="100" height="100" viewBox="0 0 100 100" fill="none" xmlns="http://www.w3.org/2000/svg">
<path d="M72.3272 36.4283C71.1855 36.4283 63.571 28.8138 63.571 27.6742L61.4043 15.8971C61.4043 14.7554 62.3272 13.8346 63.4647 13.8346C63.4647 13.8346 75.2439 13.0846 81.0793 18.92C86.9168 24.7554 86.1647 36.5325 86.1647 36.5325C86.1647 37.6721 85.2397 38.595 84.1022 38.595L72.3272 36.4283Z" fill="#F48FB1"/>
<path d="M71.6939 53.6313L69.5106 39.2438C68.6522 35.8043 64.4814 31.348 60.7543 30.4876L46.7668 28.3793C41.898 27.2334 36.7439 29.5272 34.7397 34.1063L22.7168 68.5293L31.471 77.2813L65.9689 65.0855C70.5501 63.0793 73.1272 58.2105 71.6939 53.6313Z" fill="#FF80AB"/>
<path d="M69.5104 36.3266C68.7042 37.1349 62.8667 31.2974 63.6729 30.4891L75.2437 13.0849C76.05 12.2787 79.6208 11.6266 83.9958 16.0037C88.375 20.3808 87.7208 23.9495 86.9146 24.7558L69.5104 36.3266Z" fill="#F8BBD0"/>
<path d="M25.6333 80.2011L19.7979 74.3657L12.5 84.5824L15.4167 87.4991L25.6333 80.2011Z" fill="#9FA8DA"/>
<path d="M18.3402 72.9083C17.5298 73.7146 17.5298 75.0208 18.3402 75.825L24.1757 81.6625C24.9819 82.4708 26.2881 82.4708 27.0923 81.6625L31.4715 77.2833L22.7173 68.5312L18.3402 72.9083Z" fill="#3F51B5"/>
<path d="M55.1334 39.4956C53.4751 40.3623 49.3897 40.4894 48.623 38.8811C47.448 37.2811 49.9668 35.1644 52.0313 34.2831C54.5063 33.3915 63.0147 32.9561 63.0147 32.9561C63.0147 32.9561 58.0188 38.5894 55.1334 39.4956Z" fill="#E91E63"/>
<path d="M67.0438 36.9844C67.0438 36.9844 66.6104 45.4948 65.7167 47.9677C64.8354 50.0323 62.7188 52.551 61.1167 51.376C59.5104 50.6094 59.6375 46.526 60.5042 44.8656C61.4104 41.9802 67.0438 36.9844 67.0438 36.9844Z" fill="#E91E63"/>
<path d="M72.3204 36.4293L63.5684 27.6748L60.6512 30.5912L69.4032 39.3457L72.3204 36.4293Z" fill="#E91E63"/>
</svg>
