<svg width="100" height="100" viewBox="0 0 100 100" fill="none" xmlns="http://www.w3.org/2000/svg">
<g clip-path="url(#clip0_190_3877)">
<path fill-rule="evenodd" clip-rule="evenodd" d="M49.3164 -0.0976562C49.642 -0.0976562 49.9674 -0.0976562 50.293 -0.0976562C53.075 5.43049 54.7025 11.2899 55.1758 17.4805C55.5334 21.9914 55.3705 26.4836 54.6875 30.957C53.7074 33.1484 53.0238 35.427 52.6367 37.793C51.2045 37.793 49.7721 37.793 48.3398 37.793C50.7627 31.508 51.6416 24.9977 50.9766 18.2617C50.5268 13.3005 49.4525 8.48281 47.7539 3.80859C48.1658 2.46371 48.6867 1.16162 49.3164 -0.0976562Z" fill="#3ED358"/>
<path opacity="0.99" fill-rule="evenodd" clip-rule="evenodd" d="M47.7542 3.80859C49.4528 8.48281 50.527 13.3005 50.9768 18.2617C51.6419 24.9977 50.763 31.508 48.3401 37.793C47.9495 37.793 47.5589 37.793 47.1682 37.793C46.455 33.7961 44.9251 30.1502 42.5784 26.8555C41.5239 25.7047 40.5147 24.5328 39.5511 23.3398C38.8882 17.6282 37.228 12.2246 34.5706 7.12891C34.3882 6.23373 34.7464 5.94076 35.6448 6.25C39.4876 9.30994 42.4499 13.0534 44.5315 17.4805C44.9362 12.7382 46.0104 8.1809 47.7542 3.80859Z" fill="#6EDB74"/>
<path opacity="0.992" fill-rule="evenodd" clip-rule="evenodd" d="M65.332 20.02C61.7437 25.2243 59.2697 31.0186 57.9102 37.4028C57.9428 37.5331 57.9752 37.6631 58.0078 37.7934C59.5588 35.9319 61.3492 34.3694 63.3789 33.1059C65.192 32.1977 67.0801 31.4815 69.043 30.9575C65.9055 33.2661 63.5617 36.1958 62.0117 39.7465C61.324 39.4088 60.608 39.1485 59.8633 38.9653C58.3213 38.3278 56.6936 38.0022 54.9805 37.9887C54.2387 37.7967 53.4574 37.7315 52.6367 37.7934C53.0238 35.4274 53.7074 33.1489 54.6875 30.9575C55.3705 26.484 55.5334 21.9919 55.1758 17.4809C57.3184 13.0884 60.3131 9.34488 64.1602 6.25044C65.0586 5.94121 65.4168 6.23418 65.2344 7.12935C62.5449 12.2252 60.9174 17.6289 60.3516 23.3403C61.8824 22.037 63.5426 20.9301 65.332 20.02Z" fill="#6EDA74"/>
<path fill-rule="evenodd" clip-rule="evenodd" d="M39.551 23.3398C40.5146 24.5328 41.5238 25.7047 42.5783 26.8555C44.925 30.1502 46.4549 33.7961 47.1681 37.793C45.9277 37.8041 44.6906 37.8691 43.4572 37.9883C41.574 29.8072 36.6912 24.2084 28.8088 21.1914C27.449 20.0604 26.1144 18.8884 24.8049 17.6758C24.6761 17.1185 24.9041 16.7929 25.4885 16.6992C30.7197 17.8316 35.4072 20.0451 39.551 23.3398Z" fill="#3ED358"/>
<path fill-rule="evenodd" clip-rule="evenodd" d="M63.3789 33.1055C61.3492 34.3689 59.5588 35.9314 58.0078 37.793C57.9752 37.6627 57.9428 37.5326 57.9102 37.4023C59.2697 31.0182 61.7438 25.2238 65.332 20.0195C68.1646 18.5321 71.1594 17.4254 74.3164 16.6992C74.7283 16.753 74.9887 16.9809 75.0977 17.3828C73.4443 19.1008 71.7191 20.7609 69.9219 22.3633C66.9398 25.3951 64.6937 28.9107 63.1836 32.9102C63.2078 33.0287 63.2729 33.0938 63.3789 33.1055Z" fill="#3ED358"/>
<path opacity="0.988" fill-rule="evenodd" clip-rule="evenodd" d="M28.8086 21.1914C36.691 24.2084 41.5738 29.8072 43.457 37.9883C43.0244 38.1383 42.5688 38.2686 42.0898 38.3789C41.4363 37.2346 40.5898 36.2254 39.5508 35.3516C38.5381 34.6295 37.5615 33.8809 36.6211 33.1055C35.4486 29.783 33.7234 26.7883 31.4453 24.1211C30.4535 23.2281 29.5746 22.2516 28.8086 21.1914Z" fill="#6EDA74"/>
<path fill-rule="evenodd" clip-rule="evenodd" d="M36.6213 33.1059C37.5617 33.8813 38.5382 34.6299 39.5509 35.352C40.59 36.2258 41.4365 37.235 42.09 38.3793C41.3289 38.4877 40.6129 38.683 39.9416 38.9652C39.6064 38.9904 39.2808 39.0555 38.965 39.1605C37.6324 38.1234 36.2652 37.1143 34.8634 36.1332C33.2414 35.2246 31.5486 34.4758 29.7853 33.8871C28.5732 32.9057 27.3037 31.9941 25.9767 31.1527C25.7283 30.4244 25.9886 30.0988 26.758 30.1762C30.2199 30.5938 33.5078 31.5703 36.6213 33.1059Z" fill="#3ED358"/>
<path fill-rule="evenodd" clip-rule="evenodd" d="M64.7461 41.1133C63.9986 40.7723 63.2826 40.3817 62.5977 39.9415C62.3811 39.9303 62.1857 39.8653 62.0117 39.7462C63.5617 36.1954 65.9055 33.2657 69.043 30.9571C70.6184 30.4497 72.2135 30.2544 73.8281 30.3712C73.9584 30.6315 73.9584 30.8921 73.8281 31.1524C69.8066 33.5782 66.7793 36.8985 64.7461 41.1133Z" fill="#3FD359"/>
<path opacity="0.974" fill-rule="evenodd" clip-rule="evenodd" d="M29.7852 33.8867C31.5484 34.4754 33.2412 35.2242 34.8633 36.1328C36.265 37.1139 37.6322 38.123 38.9648 39.1602C38.4152 39.4668 37.8293 39.7271 37.207 39.9414C36.5168 40.384 35.8008 40.7746 35.0586 41.1133C33.7307 38.3928 31.9729 35.9838 29.7852 33.8867Z" fill="#6FDB74"/>
<path fill-rule="evenodd" clip-rule="evenodd" d="M47.168 37.7931C47.5586 37.7931 47.9492 37.7931 48.3398 37.7931C49.7721 37.7931 51.2045 37.7931 52.6367 37.7931C53.4574 37.7312 54.2387 37.7964 54.9805 37.9884C54.1316 37.956 53.2854 37.9886 52.4414 38.0861C54.6068 38.3931 56.625 39.0767 58.4961 40.1369C55.6355 42.9322 52.7709 45.7316 49.9023 48.5353C46.6824 45.413 43.4924 42.2554 40.332 39.0627C40.216 38.972 40.0857 38.9394 39.9414 38.965C40.6127 38.6828 41.3287 38.4875 42.0898 38.3791C42.5687 38.2687 43.0244 38.1384 43.457 37.9884C44.6904 37.8693 45.9275 37.8043 47.168 37.7931Z" fill="#FED14F"/>
<path fill-rule="evenodd" clip-rule="evenodd" d="M54.9805 37.9877C56.6936 38.0012 58.3213 38.3268 59.8633 38.9643C59.2865 39.2156 58.8309 39.6063 58.4961 40.1361C56.625 39.076 54.6068 38.3924 52.4414 38.0854C53.2854 37.9879 54.1316 37.9553 54.9805 37.9877Z" fill="#FDC535"/>
<path fill-rule="evenodd" clip-rule="evenodd" d="M39.9414 38.9645C40.0857 38.9389 40.216 38.9715 40.332 39.0621C43.4924 42.2549 46.6824 45.4125 49.9023 48.5348C52.7709 45.7311 55.6355 42.9317 58.4961 40.1364C58.8309 39.6065 59.2865 39.2159 59.8633 38.9645C60.608 39.1477 61.324 39.408 62.0117 39.7457C62.1857 39.8649 62.3811 39.9299 62.5977 39.9411C62.2213 40.5791 61.7654 41.1651 61.2305 41.6989C58.2424 44.5891 55.2803 47.5188 52.3438 50.4879C52.2135 50.6832 52.2135 50.8786 52.3438 51.0739C54.5602 53.2577 56.741 55.4711 58.8867 57.7145C61.9508 54.7807 64.9455 51.786 67.8711 48.7301C68.7826 47.9489 69.6289 47.1026 70.4102 46.1911C71.0658 46.9791 71.6518 47.8254 72.168 48.7301C71.2512 49.777 70.2746 50.7536 69.2383 51.6598C66.5732 54.3901 63.9039 57.1245 61.2305 59.8629C63.4412 62.1713 65.6873 64.45 67.9688 66.6989C69.0176 65.6829 70.0266 64.6412 70.9961 63.5739C72.3633 62.2717 73.7305 60.9698 75.0977 59.6676C75.0977 61.0998 75.0977 62.5323 75.0977 63.9645C73.409 65.5229 71.7814 67.1504 70.2148 68.8473C71.7762 70.5389 73.4037 72.1664 75.0977 73.7301C75.0977 75.1623 75.0977 76.5948 75.0977 78.027C73.7305 76.7248 72.3633 75.4229 70.9961 74.1207C70.0266 73.0534 69.0176 72.0118 67.9688 70.9957C65.6576 73.3069 63.3463 75.6182 61.0352 77.9293C63.7438 80.6705 66.4781 83.3725 69.2383 86.0348C70.227 87.0225 71.1383 88.0641 71.9727 89.1598C71.6627 89.9768 71.2068 90.693 70.6055 91.3082C69.5217 90.7465 68.6102 89.9653 67.8711 88.9645C64.8803 86.0389 61.8855 83.1092 58.8867 80.1754C56.5783 82.3862 54.2996 84.6323 52.0508 86.9137C55.15 90.0455 58.275 93.1379 61.4258 96.1911C61.8963 96.6602 62.2869 97.1811 62.5977 97.7536C61.8924 98.2284 61.1111 98.5538 60.2539 98.7301C59.9857 98.7608 59.7252 98.7282 59.4727 98.6325C59.1725 98.2991 58.8469 98.0061 58.4961 97.7536C55.7008 94.828 52.8361 91.9633 49.9023 89.1598C46.5779 92.3539 43.3227 95.6092 40.1367 98.9254C39.051 98.6504 38.0094 98.2598 37.0117 97.7536C40.5531 94.1145 44.1338 90.5012 47.7539 86.9137C45.5404 84.7002 43.3268 82.4866 41.1133 80.2731C40.983 80.1428 40.8529 80.1428 40.7227 80.2731C36.9725 84.0559 33.1963 87.7995 29.3945 91.5036C28.6666 90.7666 28.0807 89.9204 27.6367 88.9645C31.3682 85.3309 35.0791 81.6524 38.7695 77.9293C36.4584 75.6182 34.1471 73.3069 31.8359 70.9957C29.4854 73.3789 27.109 75.7227 24.707 78.027C24.707 76.5948 24.707 75.1623 24.707 73.7301C26.3957 72.1717 28.0232 70.5442 29.5898 68.8473C28.0232 67.1504 26.3957 65.5229 24.707 63.9645C24.707 62.5323 24.707 61.0998 24.707 59.6676C27.109 61.9719 29.4854 64.3157 31.8359 66.6989C34.1174 64.45 36.3635 62.1713 38.5742 59.8629C34.9895 56.1479 31.3436 52.502 27.6367 48.9254C28.0084 47.9866 28.5293 47.1403 29.1992 46.3864C33.0564 49.95 36.8324 53.6286 40.5273 57.4215C40.7227 57.5518 40.918 57.5518 41.1133 57.4215C43.3352 55.2651 45.4836 53.0514 47.5586 50.7809C44.2139 47.2407 40.7959 43.7577 37.3047 40.3317C37.2141 40.2157 37.1814 40.0854 37.207 39.9411C37.8293 39.7268 38.4152 39.4664 38.9648 39.1598C39.2807 39.0547 39.6062 38.9897 39.9414 38.9645Z" fill="#FEB322"/>
<path opacity="0.999" fill-rule="evenodd" clip-rule="evenodd" d="M62.5977 39.9414C63.2826 40.3816 63.9986 40.7723 64.7461 41.1133C66.9984 42.3885 68.8865 44.0813 70.4102 46.1914C69.6289 47.1029 68.7826 47.9492 67.8711 48.7305C67.3787 47.6824 66.7602 46.7059 66.0156 45.8008C64.6141 44.1687 63.0191 42.8016 61.2305 41.6992C61.7654 41.1654 62.2213 40.5795 62.5977 39.9414Z" fill="#FEC433"/>
<path opacity="0.996" fill-rule="evenodd" clip-rule="evenodd" d="M37.207 39.9414C37.1814 40.0857 37.2141 40.216 37.3047 40.332C40.7959 43.758 44.2139 47.241 47.5586 50.7812C45.4836 53.0518 43.3352 55.2654 41.1133 57.4219C40.918 57.5521 40.7227 57.5521 40.5273 57.4219C36.8324 53.6289 33.0564 49.9504 29.1992 46.3867C30.7877 44.2117 32.7408 42.4539 35.0586 41.1133C35.8008 40.7746 36.5168 40.384 37.207 39.9414Z" fill="#FED14F"/>
<path fill-rule="evenodd" clip-rule="evenodd" d="M49.1212 41.504C50.61 41.2061 51.3589 41.7921 51.3673 43.2618C50.4926 44.7419 49.5161 44.8069 48.4376 43.4571C48.2778 42.6698 48.5057 42.0188 49.1212 41.504Z" fill="#FFB424"/>
<path fill-rule="evenodd" clip-rule="evenodd" d="M61.2305 41.6992C63.0192 42.8016 64.6141 44.1688 66.0157 45.8008C66.7602 46.7059 67.3788 47.6824 67.8711 48.7305C64.9456 51.7863 61.9508 54.7811 58.8868 57.7148C56.7411 55.4715 54.5602 53.258 52.3438 51.0742C52.2135 50.8789 52.2135 50.6836 52.3438 50.4883C55.2803 47.5191 58.2424 44.5895 61.2305 41.6992Z" fill="#FFD14F"/>
<path fill-rule="evenodd" clip-rule="evenodd" d="M39.9414 48.3398C41.8183 48.425 42.339 49.3039 41.5039 50.9766C39.8361 51.6506 39.0222 51.0973 39.0625 49.3164C39.2627 48.8893 39.5556 48.5637 39.9414 48.3398Z" fill="#FFB323"/>
<path fill-rule="evenodd" clip-rule="evenodd" d="M58.301 48.3399C59.7979 48.177 60.4815 48.8282 60.3518 50.293C59.8762 51.2157 59.1274 51.5086 58.1057 51.1719C57.2905 50.1723 57.3557 49.2284 58.301 48.3399Z" fill="#FFB323"/>
<path opacity="0.994" fill-rule="evenodd" clip-rule="evenodd" d="M27.6369 48.9258C31.3437 52.5023 34.9896 56.1482 38.5744 59.8633C36.3636 62.1717 34.1176 64.4504 31.8361 66.6992C29.4855 64.316 27.1092 61.9723 24.7072 59.668C24.6226 55.7721 25.5992 52.1914 27.6369 48.9258Z" fill="#FFD14F"/>
<path fill-rule="evenodd" clip-rule="evenodd" d="M72.168 48.7305C74.173 52.0801 75.1496 55.726 75.0977 59.668C73.7305 60.9701 72.3633 62.2721 70.9961 63.5742C71.0287 61.2947 70.9961 59.016 70.8984 56.7383C70.6607 55.2012 70.2701 53.7039 69.7266 52.2461C69.6529 51.9645 69.4902 51.7691 69.2383 51.6602C70.2746 50.7539 71.2512 49.7773 72.168 48.7305Z" fill="#FFC433"/>
<path fill-rule="evenodd" clip-rule="evenodd" d="M69.2383 51.6602C69.4902 51.7691 69.6529 51.9645 69.7266 52.2461C70.2701 53.7039 70.6607 55.2012 70.8984 56.7383C70.9961 59.016 71.0287 61.2947 70.9961 63.5742C70.0266 64.6416 69.0176 65.6832 67.9688 66.6992C65.6873 64.4504 63.4412 62.1717 61.2305 59.8633C63.9039 57.1248 66.5732 54.3904 69.2383 51.6602Z" fill="#FFD14F"/>
<path fill-rule="evenodd" clip-rule="evenodd" d="M49.707 53.0273C52.1668 55.1611 54.5105 57.4398 56.7383 59.8633C54.5248 62.207 52.2461 64.4857 49.9023 66.6992C47.5586 64.4857 45.2799 62.207 43.0664 59.8633C45.2842 57.5807 47.4977 55.302 49.707 53.0273Z" fill="#FFD14F"/>
<path fill-rule="evenodd" clip-rule="evenodd" d="M30.9572 58.301C32.4535 58.1375 33.1371 58.7885 33.008 60.2541C32.1775 61.4559 31.266 61.5209 30.2736 60.4494C30.0123 59.5627 30.2402 58.8465 30.9572 58.301Z" fill="#FFB322"/>
<path fill-rule="evenodd" clip-rule="evenodd" d="M49.1211 58.301C51.2725 58.2161 51.8584 59.095 50.8789 60.9377C49.5545 61.5448 48.7082 61.1542 48.3398 59.7659C48.4232 59.1754 48.6838 58.6872 49.1211 58.301Z" fill="#FFB424"/>
<path fill-rule="evenodd" clip-rule="evenodd" d="M67.4805 58.3007C69.0735 58.1681 69.7571 58.8843 69.5313 60.4491C68.5221 61.5413 67.6108 61.4763 66.7969 60.2538C66.6667 59.8632 66.6667 59.4726 66.7969 59.0819C67.0657 58.8466 67.2934 58.5862 67.4805 58.3007Z" fill="#FFB323"/>
<path fill-rule="evenodd" clip-rule="evenodd" d="M40.7227 62.0117C43.0531 64.2768 45.3969 66.5553 47.7539 68.8477C45.5404 71.1914 43.2617 73.4701 40.918 75.6836C38.5742 73.4701 36.2955 71.1914 34.082 68.8477C36.2998 66.565 38.5133 64.2863 40.7227 62.0117Z" fill="#FFD14F"/>
<path fill-rule="evenodd" clip-rule="evenodd" d="M58.6914 62.0117C61.1512 64.1455 63.4949 66.4242 65.7227 68.8477C63.5092 71.1914 61.2305 73.4701 58.8867 75.6836C56.543 73.4701 54.2643 71.1914 52.0508 68.8477C54.4092 66.685 56.6227 64.4062 58.6914 62.0117Z" fill="#FFD14F"/>
<path opacity="0.995" fill-rule="evenodd" clip-rule="evenodd" d="M24.707 63.9648C26.3957 65.5232 28.0232 67.1508 29.5898 68.8477C28.0232 70.5445 26.3957 72.1721 24.707 73.7305C24.707 70.4752 24.707 67.2201 24.707 63.9648Z" fill="#FFD14F"/>
<path fill-rule="evenodd" clip-rule="evenodd" d="M75.0977 63.9648C75.0977 67.2201 75.0977 70.4752 75.0977 73.7305C73.4037 72.1668 71.7762 70.5393 70.2148 68.8477C71.7814 67.1508 73.409 65.5232 75.0977 63.9648Z" fill="#FFC434"/>
<path fill-rule="evenodd" clip-rule="evenodd" d="M40.1369 67.4803C42.3474 67.3807 42.8683 68.2596 41.6994 70.117C40.0187 70.651 39.2701 70.0324 39.4533 68.2615C39.722 68.0262 39.9498 67.7658 40.1369 67.4803Z" fill="#FFB423"/>
<path fill-rule="evenodd" clip-rule="evenodd" d="M58.1052 67.4803C59.6992 67.2207 60.448 67.8719 60.3513 69.4334C59.5115 70.6373 58.5999 70.7024 57.6169 69.6287C57.3849 68.8004 57.5476 68.0842 58.1052 67.4803Z" fill="#FFB423"/>
<path opacity="0.994" fill-rule="evenodd" clip-rule="evenodd" d="M27.6366 88.9648C25.6272 85.6164 24.6506 81.9705 24.7069 78.0273C27.1088 75.723 29.4852 73.3793 31.8358 70.9961C34.1469 73.3072 36.4583 75.6186 38.7694 77.9297C35.079 81.6527 31.368 85.3313 27.6366 88.9648Z" fill="#FFD14F"/>
<path fill-rule="evenodd" clip-rule="evenodd" d="M49.707 71.1911C49.8514 71.1655 49.9816 71.1981 50.0977 71.2887C52.2814 73.5051 54.4949 75.686 56.7383 77.8317C54.5248 80.1754 52.2461 82.4541 49.9023 84.6676C47.5939 82.4569 45.3152 80.2108 43.0664 77.9293C45.3193 75.709 47.533 73.4629 49.707 71.1911Z" fill="#FFD14F"/>
<path fill-rule="evenodd" clip-rule="evenodd" d="M70.9961 74.1211C71.3398 78.1422 70.8516 82.0484 69.5312 85.8398C69.4564 85.9484 69.3588 86.0135 69.2383 86.0352C66.4781 83.3729 63.7438 80.6709 61.0352 77.9297C63.3463 75.6186 65.6576 73.3072 67.9688 70.9961C69.0176 72.0121 70.0266 73.0537 70.9961 74.1211Z" fill="#FFD14F"/>
<path fill-rule="evenodd" clip-rule="evenodd" d="M70.9961 74.1211C72.3633 75.4232 73.7305 76.7252 75.0977 78.0273C75.176 82.0791 74.1342 85.79 71.9727 89.1602C71.1383 88.0645 70.227 87.0229 69.2383 86.0352C69.3588 86.0135 69.4564 85.9484 69.5312 85.8398C70.8516 82.0484 71.3398 78.1422 70.9961 74.1211Z" fill="#FFC433"/>
<path fill-rule="evenodd" clip-rule="evenodd" d="M30.9572 76.2697C32.4535 76.1063 33.1371 76.7572 33.008 78.2229C32.1775 79.4246 31.266 79.4896 30.2736 78.4182C30.0123 77.5314 30.2402 76.8152 30.9572 76.2697Z" fill="#FFB322"/>
<path fill-rule="evenodd" clip-rule="evenodd" d="M49.1211 76.2698C51.2725 76.1848 51.8584 77.0637 50.8789 78.9065C49.2281 79.5319 48.4143 78.9784 48.4375 77.2463C48.6322 76.8903 48.8602 76.5647 49.1211 76.2698Z" fill="#FFB424"/>
<path fill-rule="evenodd" clip-rule="evenodd" d="M67.4806 76.2694C69.0736 76.1368 69.7572 76.853 69.5314 78.4179C68.7275 79.3454 67.8812 79.4105 66.9924 78.6132C66.5062 77.6868 66.6691 76.9056 67.4806 76.2694Z" fill="#FFB322"/>
<path opacity="0.995" fill-rule="evenodd" clip-rule="evenodd" d="M37.0117 97.754C33.9826 96.2713 31.4436 94.1881 29.3945 91.504C33.1963 87.7999 36.9725 84.0563 40.7227 80.2735C40.8529 80.1432 40.983 80.1432 41.1133 80.2735C43.3268 82.487 45.5404 84.7006 47.7539 86.9141C44.1338 90.5016 40.5531 94.1149 37.0117 97.754Z" fill="#FFD14F"/>
<path fill-rule="evenodd" clip-rule="evenodd" d="M67.8711 88.9648C67.1934 90.3934 66.3145 91.6953 65.2344 92.8711C63.985 94.0244 62.7154 95.1311 61.4258 96.1914C58.275 93.1383 55.15 90.0459 52.0508 86.9141C54.2996 84.6326 56.5783 82.3865 58.8867 80.1758C61.8855 83.1096 64.8803 86.0393 67.8711 88.9648Z" fill="#FFD14F"/>
<path fill-rule="evenodd" clip-rule="evenodd" d="M40.3322 85.2539C42.2092 85.3391 42.7299 86.218 41.8947 87.8906C40.2174 88.5535 39.4037 88.0002 39.4533 86.2305C39.6535 85.8033 39.9465 85.4777 40.3322 85.2539Z" fill="#FFB323"/>
<path fill-rule="evenodd" clip-rule="evenodd" d="M58.301 85.2539C59.7979 85.091 60.4815 85.7422 60.3518 87.2071C59.8762 88.1297 59.1274 88.4227 58.1057 88.086C57.2905 87.0864 57.3557 86.1424 58.301 85.2539Z" fill="#FFB423"/>
<path opacity="0.996" fill-rule="evenodd" clip-rule="evenodd" d="M58.4961 97.7539C56.1539 98.7662 53.7451 99.4822 51.2695 99.9023C48.7955 99.9023 46.3217 99.9023 43.8477 99.9023C42.5895 99.6691 41.3525 99.3436 40.1367 98.9258C43.3227 95.6096 46.5779 92.3543 49.9023 89.1602C52.8361 91.9637 55.7008 94.8283 58.4961 97.7539Z" fill="#FFD14F"/>
<path fill-rule="evenodd" clip-rule="evenodd" d="M67.8711 88.9648C68.6102 89.9656 69.5217 90.7469 70.6055 91.3086C68.4889 94.1555 65.8197 96.3039 62.5977 97.7539C62.2869 97.1814 61.8963 96.6605 61.4258 96.1914C62.7154 95.1311 63.985 94.0244 65.2344 92.8711C66.3145 91.6953 67.1934 90.3934 67.8711 88.9648Z" fill="#FFC434"/>
<path fill-rule="evenodd" clip-rule="evenodd" d="M49.5118 93.2617C50.5663 93.2742 51.2173 93.7949 51.4649 94.8242C50.8688 96.5104 49.9247 96.7709 48.6329 95.6055C48.2073 94.5666 48.5003 93.7854 49.5118 93.2617Z" fill="#FFB424"/>
<path opacity="0.999" fill-rule="evenodd" clip-rule="evenodd" d="M58.4961 97.7539C58.8469 98.0064 59.1725 98.2994 59.4727 98.6328C59.7252 98.7285 59.9857 98.7611 60.2539 98.7305C58.8518 99.2437 57.4195 99.6344 55.957 99.9023C54.3945 99.9023 52.832 99.9023 51.2695 99.9023C53.7451 99.4822 56.1539 98.7662 58.4961 97.7539Z" fill="#FFC535"/>
</g>
<defs>
<clipPath id="clip0_190_3877">
<rect width="100" height="100" fill="white"/>
</clipPath>
</defs>
</svg>
