<svg width="100" height="100" viewBox="0 0 100 100" fill="none" xmlns="http://www.w3.org/2000/svg">
<path d="M50.0003 29.1667C54.6027 29.1667 58.3337 25.4357 58.3337 20.8333C58.3337 16.231 54.6027 12.5 50.0003 12.5C45.398 12.5 41.667 16.231 41.667 20.8333C41.667 25.4357 45.398 29.1667 50.0003 29.1667Z" fill="#F44336"/>
<path d="M85.4163 54.1667C85.4163 44.9604 69.5601 37.5 49.9997 37.5C30.4393 37.5 14.583 44.9604 14.583 54.1667C14.583 56.3771 15.6268 57.3979 17.4684 57.6833C18.3622 61.5292 32.1955 64.5833 49.9997 64.5833C67.6747 64.5833 81.3809 61.5729 82.4476 57.7688C84.3684 57.6771 85.4163 56.7021 85.4163 54.1667Z" fill="#795548"/>
<path d="M72.917 85.4167H27.0837L16.667 56.25L20.8337 60.4167L25.0003 56.25L29.167 60.4167L33.3337 56.25L37.5003 60.4167L41.667 56.25L45.8337 60.4167L50.0003 56.25L54.167 60.4167L58.3337 56.25L62.5003 60.4167L66.667 56.25L70.8337 60.4167L75.0003 56.25L79.167 60.4167L83.3337 56.25L72.917 85.4167Z" fill="#FF80AB"/>
<path d="M85.4163 54.167C85.4163 53.3941 85.2663 52.6378 85.0476 51.8899L83.2455 50.4357L79.1663 54.5253L77.9455 53.3045L74.9997 50.3586L72.0538 53.3045L70.833 54.5253L69.6122 53.3045L66.6663 50.3586L63.7205 53.3045L62.4997 54.5253L61.2788 53.3045L58.333 50.3586L55.3872 53.3045L54.1663 54.5253L52.9455 53.3045L49.9997 50.3586L47.0538 53.3045L45.833 54.5253L44.6122 53.3045L41.6663 50.3586L38.7205 53.3045L37.4997 54.5253L36.2788 53.3045L33.333 50.3586L30.3872 53.3045L29.1663 54.5253L27.9455 53.3045L24.9997 50.3586L22.0538 53.3045L20.833 54.5253L16.6663 50.6086L14.7559 52.5524C14.6476 53.0816 14.583 53.6211 14.583 54.167C14.583 56.2024 15.4997 57.1961 17.0788 57.5711L16.6663 56.2503L20.833 60.417L24.9997 56.2503L29.1663 60.417L33.333 56.2503L37.4997 60.417L41.6663 56.2503L45.833 60.417L49.9997 56.2503L54.1663 60.417L58.333 56.2503L62.4997 60.417L66.6663 56.2503L70.833 60.417L74.9997 56.2503L79.1663 60.417L83.333 56.2503L82.8726 57.7191C84.5163 57.5045 85.4163 56.5024 85.4163 54.167Z" fill="#5D4037"/>
<path d="M41.6667 56.25L37.5 60.4167L41.9292 85.4167H44.6188L41.6667 56.25Z" fill="#F8BBD0"/>
<path d="M33.3327 56.25L29.166 60.4167L35.416 85.4167H38.5431L33.3327 56.25Z" fill="#F8BBD0"/>
<path d="M24.9997 56.25L20.833 60.4167L29.1663 85.4167H32.2038L24.9997 56.25Z" fill="#F8BBD0"/>
<path d="M58.308 56.25L54.1664 60.4167L52.8872 85.4167H55.381L58.308 56.25Z" fill="#F8BBD0"/>
<path d="M66.6416 56.25L62.4999 60.4167L58.6812 85.4167H61.3707L66.6416 56.25Z" fill="#F8BBD0"/>
<path d="M74.9996 56.25L70.8329 60.4167L64.7559 85.4167L67.7079 85.5042L74.9996 56.25Z" fill="#F8BBD0"/>
<path d="M49.9997 56.25L45.833 60.4167L47.3976 85.4167H49.9997V56.25Z" fill="#F8BBD0"/>
<path d="M79.1666 60.4167L83.3332 56.25L72.9166 85.4167H70.3999L79.1666 60.4167Z" fill="#F8BBD0"/>
<path d="M72.7355 36.8582C72.7355 46.2748 62.5584 40.4478 50.0001 40.4478C37.4417 40.4478 27.2646 46.2748 27.2646 36.8582C27.2646 27.4394 37.4417 22.9165 50.0001 22.9165C62.5584 22.9165 72.7355 27.4394 72.7355 36.8582Z" fill="#FFE0B2"/>
</svg>
