<svg width="100" height="100" viewBox="0 0 100 100" fill="none" xmlns="http://www.w3.org/2000/svg">
<path d="M86.2496 61.4581C77.7078 35.6247 58.1246 54.5831 58.1246 54.5831C58.1246 54.5831 55.4162 54.7913 52.2912 55.8331C45.6246 49.3747 33.1246 53.3331 33.1246 53.3331C33.1246 53.3331 9.99956 45.6247 12.7079 71.4581C13.9579 82.4997 22.4996 89.5831 34.3746 89.5831C40.4162 89.5831 45.6246 87.7081 49.3746 84.5831C55.6246 90.2081 64.7912 91.2497 73.9578 87.0831C85.2078 82.0831 89.7912 72.0831 86.2496 61.4581Z" fill="#FF1744"/>
<path d="M61.875 73.5422C61.0416 65.4172 67.5 50.6254 72.9166 47.9172C65.4166 47.7088 58.125 54.5838 58.125 54.5838C58.125 54.5838 55.625 54.7922 52.5 55.8338C52.2916 55.6254 52.0834 55.6254 51.875 55.6254C54.7916 58.3338 56.6666 63.3338 55.8334 71.4588C55.2084 76.8754 52.9166 81.2504 49.375 84.3754C52.5 87.2922 60 92.7088 73.9584 87.0838C67.5 85.8338 62.7084 81.6672 61.875 73.5422Z" fill="#D50000"/>
<path d="M21.042 72.7092C20.2086 72.7092 19.167 72.0842 18.9586 71.0426C16.8753 62.501 21.8752 58.9592 23.9586 57.7092C25.0002 57.0842 26.2502 57.501 26.667 58.5426C27.292 59.5842 26.8752 60.8342 25.8336 61.251C23.7502 62.2926 21.667 64.5842 22.917 69.7926C23.1252 70.8342 22.5002 72.0842 21.4586 72.2926C21.2502 72.7092 21.2502 72.7092 21.042 72.7092Z" fill="#FFCDD2"/>
<path d="M59.9998 50.6241C59.7914 49.9991 59.5832 49.5823 59.3748 48.9573C59.3748 48.7491 59.1664 48.5407 59.1664 48.3323C58.9582 47.9157 58.9582 47.4991 58.7498 47.2907C58.5414 46.8741 58.5414 46.6657 58.3332 46.2491C58.1248 45.8323 58.1248 45.6241 58.1248 45.2073C57.9164 44.7907 57.9164 44.3741 57.7082 44.1657C57.4998 43.7491 57.4998 43.3323 57.2914 42.9157C57.2914 42.7073 57.0832 42.4991 57.0832 42.2907C56.8748 41.8741 56.8748 41.4573 56.8748 41.0407C56.8748 40.8323 56.8748 40.6241 56.6664 40.4157C56.6664 39.9991 56.4582 39.5823 56.4582 39.1657C56.4582 38.9573 56.4582 38.7491 56.2498 38.5407C56.2498 38.1241 56.0414 37.7073 56.0414 37.2907C56.0414 37.0823 56.0414 36.8741 56.0414 36.8741C56.0414 36.4573 56.0414 36.0407 56.0414 35.6241C56.0414 35.4157 56.0414 35.2073 56.0414 34.9991C56.0414 34.5823 56.0414 34.1657 56.0414 33.7491C56.0414 33.5407 56.0414 33.5407 56.0414 33.3323C56.0414 32.9157 56.0414 32.4991 56.0414 32.0823C56.0414 31.8741 56.0414 31.6657 56.0414 31.6657C56.0414 31.2491 56.0414 31.0407 56.0414 30.6241C56.0414 30.4157 56.0414 30.2073 56.0414 29.9991C56.0414 29.7907 56.0414 29.3741 56.0414 29.1657C56.0414 28.9573 56.0414 28.7491 56.0414 28.5407C56.0414 28.3323 56.0414 28.1241 56.0414 27.9157C56.0414 27.7073 56.0414 27.4991 56.2498 27.0823C56.2498 26.8741 56.2498 26.8741 56.2498 26.6657C56.2498 26.4573 56.4582 26.0407 56.4582 25.8323C56.4582 25.6241 56.4582 25.6241 56.4582 25.4157C56.4582 24.9991 56.6664 24.7907 56.6664 24.3741V24.1657C56.6664 23.7491 56.8748 23.5407 56.8748 23.1241C58.1248 18.7491 60.2082 15.8324 61.0414 14.7907C61.2498 14.7907 61.4582 14.5824 61.4582 14.5824C62.4998 14.1657 62.9164 12.9157 62.4998 11.8741C62.0832 10.8324 61.4582 9.99906 60.4164 10.4157C60.4164 10.4157 60.2082 10.4157 60.2082 10.6241C59.9998 10.6241 59.7914 10.6241 59.5832 10.8324C59.3748 10.8324 59.3748 11.0407 59.1664 11.2491C30.2082 24.3741 31.2498 56.0407 31.2498 56.2491C31.2498 57.2907 32.2914 58.3323 33.3332 58.3323C34.5832 58.3323 35.4164 57.2907 35.4164 56.2491C35.4164 56.0407 34.5832 31.8741 54.5832 18.3324C51.4582 26.0407 48.9582 39.3741 58.5414 57.2907C58.9582 57.9157 59.5832 58.3323 60.4164 58.3323C60.8332 58.3323 61.0414 58.3323 61.4582 58.1241C62.2914 57.7073 62.7082 56.8741 62.4998 56.0407C62.4998 55.8323 62.2914 55.4157 62.2914 55.2073C61.8748 54.3741 61.4582 53.5407 61.0414 52.9157V52.7073C60.6248 52.0823 60.2082 51.2491 59.9998 50.6241Z" fill="#795548"/>
<path d="M79.1668 37.4989C75.4168 33.5405 85.2086 10.4155 60.4169 10.4155C46.2503 37.9155 79.1668 37.4989 79.1668 37.4989Z" fill="#4CAF50"/>
</svg>
