<svg width="100" height="100" viewBox="0 0 100 100" fill="none" xmlns="http://www.w3.org/2000/svg">
<path d="M41.6667 20.8335H37.5V50.0002H41.6667V20.8335Z" fill="#FF4081"/>
<path d="M62.4997 20.8335H58.333V50.0002H62.4997V20.8335Z" fill="#FF4081"/>
<path d="M52.0837 20.8335H47.917V50.0002H52.0837V20.8335Z" fill="#FF4081"/>
<path d="M37.5 16.6667C37.5 15.5146 39.5833 12.5 39.5833 12.5C39.5833 12.5 41.6667 15.5146 41.6667 16.6667C41.6667 17.8187 40.7354 18.75 39.5833 18.75C38.4313 18.75 37.5 17.8187 37.5 16.6667Z" fill="#FF9800"/>
<path d="M47.917 16.6667C47.917 15.5146 50.0003 12.5 50.0003 12.5C50.0003 12.5 52.0837 15.5146 52.0837 16.6667C52.0837 17.8187 51.1524 18.75 50.0003 18.75C48.8482 18.75 47.917 17.8187 47.917 16.6667Z" fill="#FF9800"/>
<path d="M58.333 16.6667C58.333 15.5146 60.4163 12.5 60.4163 12.5C60.4163 12.5 62.4997 15.5146 62.4997 16.6667C62.4997 17.8187 61.5684 18.75 60.4163 18.75C59.2643 18.75 58.333 17.8187 58.333 16.6667Z" fill="#FF9800"/>
<path d="M70.8337 64.5835V45.8335C70.8337 42.3835 68.0357 39.5835 64.5837 39.5835H35.417C31.9649 39.5835 29.167 42.3835 29.167 45.8335V64.5835H70.8337Z" fill="#9C27B0"/>
<path d="M64.5837 39.5835H35.417C31.9649 39.5835 29.167 42.3835 29.167 45.8335C29.167 45.8335 33.8982 52.4752 39.5837 45.8335C39.5837 45.8335 44.3149 52.1272 50.0003 45.8335C50.0003 45.8335 54.7753 52.1272 60.417 45.8335C60.417 45.8335 65.2357 52.2147 70.8337 45.8335C70.8337 42.3835 68.0357 39.5835 64.5837 39.5835Z" fill="#6A1B9A"/>
<path d="M33.3337 64.5833C35.6348 64.5833 37.5003 62.7179 37.5003 60.4167C37.5003 58.1155 35.6348 56.25 33.3337 56.25C31.0325 56.25 29.167 58.1155 29.167 60.4167C29.167 62.7179 31.0325 64.5833 33.3337 64.5833Z" fill="#FFEB3B"/>
<path d="M41.6667 64.5833C43.9679 64.5833 45.8333 62.7179 45.8333 60.4167C45.8333 58.1155 43.9679 56.25 41.6667 56.25C39.3655 56.25 37.5 58.1155 37.5 60.4167C37.5 62.7179 39.3655 64.5833 41.6667 64.5833Z" fill="#FFEB3B"/>
<path d="M50.0007 64.5833C52.3018 64.5833 54.1673 62.7179 54.1673 60.4167C54.1673 58.1155 52.3018 56.25 50.0007 56.25C47.6995 56.25 45.834 58.1155 45.834 60.4167C45.834 62.7179 47.6995 64.5833 50.0007 64.5833Z" fill="#FFEB3B"/>
<path d="M58.3337 64.5833C60.6348 64.5833 62.5003 62.7179 62.5003 60.4167C62.5003 58.1155 60.6348 56.25 58.3337 56.25C56.0325 56.25 54.167 58.1155 54.167 60.4167C54.167 62.7179 56.0325 64.5833 58.3337 64.5833Z" fill="#FFEB3B"/>
<path d="M66.6667 64.5833C68.9679 64.5833 70.8333 62.7179 70.8333 60.4167C70.8333 58.1155 68.9679 56.25 66.6667 56.25C64.3655 56.25 62.5 58.1155 62.5 60.4167C62.5 62.7179 64.3655 64.5833 66.6667 64.5833Z" fill="#FFEB3B"/>
<path d="M83.3337 85.4165V66.6665C83.3337 63.2165 80.5357 60.4165 77.0837 60.4165H22.917C19.4649 60.4165 16.667 63.2165 16.667 66.6665V85.4165H83.3337Z" fill="#FF4081"/>
<path d="M12.5 81.25V83.3333C12.5 85.6333 14.3667 87.5 16.6667 87.5H83.3333C85.6333 87.5 87.5 85.6333 87.5 83.3333V81.25H12.5Z" fill="#9FA8DA"/>
<path d="M63.9732 65.1956L62.6545 63.8768L61.1982 65.0414C51.5587 72.756 46.5712 72.7914 38.9732 65.1956L37.5003 63.7227L36.0274 65.1956C28.7024 72.5164 23.9149 72.7247 16.7482 65.856C16.7128 66.1247 16.667 66.3893 16.667 66.6664V71.281C23.8295 76.7872 30.167 76.2164 37.5024 69.5477C45.5337 76.8268 52.5524 76.7727 62.3566 69.4164C66.4316 73.1581 70.1962 75.0289 73.9587 75.0289C77.0274 75.0289 80.0962 73.7727 83.3337 71.2872V66.6664C83.3337 66.3872 83.2878 66.1227 83.2524 65.8539C76.0857 72.7185 71.2982 72.5164 63.9732 65.1956Z" fill="#FCE4EC"/>
</svg>
