<svg width="100" height="100" viewBox="0 0 100 100" fill="none" xmlns="http://www.w3.org/2000/svg">
<path d="M26.4583 93.7504C15.2083 93.7504 6.25 84.5837 6.25 73.5421C6.25 57.7087 15.8333 54.1671 25.8333 50.6254C31.0417 48.7504 36.6667 46.8754 41.6667 42.9171C45.4167 40.2087 48.75 36.8754 52.0833 33.3337C56.4583 28.5421 59.7917 25.8337 60.4167 25.0004C60.8333 24.3754 66.25 21.8754 66.6667 22.2921C66.6667 22.2921 75.4167 19.3754 81.25 25.0004C87.0833 30.6254 85.4167 41.0421 85.4167 41.6671C83.3333 63.3337 56.25 93.7504 26.4583 93.7504Z" fill="#4A148C"/>
<path d="M89.583 6.25L93.7497 10.4167C93.7497 10.4167 89.1663 18.3333 85.4163 22.9167C88.333 26.6667 91.8747 32.9167 87.4997 43.75C83.1247 42.5 79.1663 33.3333 79.1663 33.3333C79.1663 33.3333 76.6663 36.4583 68.7497 37.5C68.1247 29.7917 70.833 27.0833 70.833 27.0833C70.833 27.0833 61.2497 27.9167 58.333 25C58.333 25 64.1663 13.9583 79.1663 18.75C84.9997 14.5833 89.583 6.25 89.583 6.25Z" fill="#4CAF50"/>
<path d="M14.5838 72.9167C14.5838 72.9167 13.3338 65.625 25.0005 60.4167C36.6672 55.2083 50.0005 50.625 60.4172 37.5" stroke="#9575CD" stroke-width="22" stroke-miterlimit="10" stroke-linecap="round"/>
</svg>
