<svg width="100" height="100" viewBox="0 0 100 100" fill="none" xmlns="http://www.w3.org/2000/svg">
<path d="M76.0417 73.9595C94.1667 55.8345 94.1667 26.4595 76.0417 8.33447L10.625 73.9595C28.75 92.0845 57.9167 92.0845 76.0417 73.9595Z" fill="#FFECB3"/>
<path d="M58.3332 56.2489C68.1248 46.4572 69.7915 31.4572 61.2498 23.5405L25.4165 59.1655C33.5415 67.7072 48.3332 66.0405 58.3332 56.2489Z" fill="#FFB300"/>
<path d="M73.125 71.0428C56.6667 87.5011 30 87.5011 13.5417 71.0428L10.625 73.9595C28.75 92.0845 58.125 92.0845 76.25 73.9595C94.375 55.8345 94.375 26.4595 76.25 8.33447L73.3333 11.2511C89.5833 27.9178 89.5833 54.5845 73.125 71.0428Z" fill="#4CAF50"/>
<path d="M53.7502 48.75C54.5835 49.5833 56.6668 54.7917 56.6668 54.7917C56.6668 54.7917 51.4585 52.7083 50.6252 51.875C49.7918 51.0417 49.7918 49.7917 50.6252 48.9583C51.6668 47.9167 52.9168 47.9167 53.7502 48.75ZM34.3752 59.1667C33.5418 60 33.5418 61.25 34.3752 62.0833C35.2085 62.9167 38.7502 63.5417 38.7502 63.5417C38.7502 63.5417 38.1252 59.7917 37.2918 59.1667C36.4585 58.5417 35.2085 58.3333 34.3752 59.1667ZM61.2502 32.2917C60.4168 33.125 60.4168 34.375 61.2502 35.2083C62.0835 36.0417 65.6252 36.6667 65.6252 36.6667C65.6252 36.6667 65.0002 32.9167 64.1668 32.2917C63.3335 31.4583 62.0835 31.4583 61.2502 32.2917ZM55.2085 44.1667C54.3752 45 54.3752 46.25 55.2085 47.0833C56.0418 47.9167 61.2502 50 61.2502 50C61.2502 50 59.1668 44.7917 58.3335 43.9583C57.5002 43.3333 56.0418 43.3333 55.2085 44.1667ZM46.2502 53.125C45.4168 53.9583 45.4168 55.2083 46.2502 56.0417C47.0835 56.875 52.2918 58.9583 52.2918 58.9583C52.2918 58.9583 50.2085 53.75 49.3752 52.9167C48.5418 52.2917 47.0835 52.2917 46.2502 53.125ZM40.4168 56.25C39.5835 57.0833 39.5835 58.3333 40.4168 59.1667C41.2502 60 46.4585 62.0833 46.4585 62.0833C46.4585 62.0833 44.3752 56.875 43.5418 56.0417C42.5002 55.4167 41.2502 55.4167 40.4168 56.25ZM58.3335 38.3333C57.5002 39.1667 57.5002 40.4167 58.3335 41.25C59.1668 42.0833 64.3752 44.1667 64.3752 44.1667C64.3752 44.1667 62.2918 38.9583 61.4585 38.125C60.4168 37.5 58.9585 37.5 58.3335 38.3333ZM43.3335 41.25C42.5002 42.0833 42.5002 43.3333 43.3335 44.1667C44.1668 45 49.3752 47.0833 49.3752 47.0833C49.3752 47.0833 47.2918 41.875 46.4585 41.0417C45.4168 40.4167 44.1668 40.4167 43.3335 41.25ZM38.9585 45.625C38.1252 46.4583 38.1252 47.7083 38.9585 48.5417C39.7918 49.375 45.0002 51.4583 45.0002 51.4583C45.0002 51.4583 42.9168 46.25 42.0835 45.4167C41.0418 45 39.5835 45 38.9585 45.625ZM47.7085 36.875C46.8752 37.7083 46.8752 38.9583 47.7085 39.7917C48.5418 40.625 53.7502 42.7083 53.7502 42.7083C53.7502 42.7083 51.6668 37.5 50.8335 36.6667C50.0002 36.0417 48.5418 36.0417 47.7085 36.875ZM52.2918 32.2917C51.4585 33.125 51.4585 34.375 52.2918 35.2083C53.1252 36.0417 56.6668 36.6667 56.6668 36.6667C56.6668 36.6667 56.0418 32.9167 55.2085 32.2917C54.3752 31.4583 53.1252 31.4583 52.2918 32.2917ZM55.2085 29.375C56.0418 30.2083 59.5835 30.8333 59.5835 30.8333C59.5835 30.8333 58.9585 27.0833 58.3335 26.25L55.2085 29.375ZM34.3752 50.2083C33.5418 51.0417 33.5418 52.2917 34.3752 53.125C35.2085 53.9583 38.7502 54.5833 38.7502 54.5833C38.7502 54.5833 38.1252 50.8333 37.2918 50.2083C36.4585 49.375 35.2085 49.375 34.3752 50.2083ZM28.3335 56.25C29.1668 57.0833 32.7085 57.7083 32.7085 57.7083C32.7085 57.7083 32.0835 53.9583 31.2502 53.3333L28.3335 56.25Z" fill="#F57F17"/>
</svg>
