<svg width="100" height="100" viewBox="0 0 100 100" fill="none" xmlns="http://www.w3.org/2000/svg">
<path d="M65.6247 52.0833C59.3747 52.0833 54.1663 46.875 54.1663 40.625C54.1663 34.375 59.3747 29.1667 65.6247 29.1667C71.8747 29.1667 77.083 34.375 77.083 40.625C77.083 46.875 71.8747 52.0833 65.6247 52.0833ZM65.6247 33.3333C61.6663 33.3333 58.333 36.6667 58.333 40.625C58.333 44.5833 61.6663 47.9167 65.6247 47.9167C69.583 47.9167 72.9163 44.5833 72.9163 40.625C72.9163 36.6667 69.583 33.3333 65.6247 33.3333ZM60.4163 14.5833C60.4163 13.3333 59.583 12.5 58.333 12.5H41.6663C40.4163 12.5 39.583 13.3333 39.583 14.5833C39.583 15.8333 40.4163 16.6667 41.6663 16.6667H58.333C59.583 16.6667 60.4163 15.8333 60.4163 14.5833Z" fill="#C0CA33"/>
<path d="M41.6667 16.6655V39.5822C41.6667 42.2905 39.7917 44.9989 37.2917 45.8322C26.25 49.3739 18.75 57.2905 18.75 66.6655C18.75 77.2905 30.625 89.1655 34.375 92.7072C35 93.3322 36.0417 93.7489 36.875 93.7489H63.5417C64.1667 93.7489 65 93.5405 65.625 93.1239C71.875 88.9572 81.4583 76.4572 81.4583 66.6655C81.4583 57.2905 73.9583 49.3739 62.9167 45.8322C60.2083 44.9989 58.5417 42.4989 58.5417 39.5822V16.6655H41.6667Z" fill="#E6EE9C"/>
<path d="M64.583 93.7489C64.7913 93.7489 65.6247 93.3322 66.6663 92.2905L64.583 93.7489Z" fill="#B2EBF2"/>
<path d="M25.8337 58.3345C23.9587 60.8345 22.917 63.7511 22.917 66.6678C22.917 73.7511 30.2087 83.1261 37.0837 89.5845H63.3337C68.9587 85.6261 77.0837 74.5845 77.0837 66.6678C77.0837 63.7511 76.042 60.8345 74.167 58.3345H25.8337Z" fill="#AFB42B"/>
<path d="M56.25 6.25H43.75V12.5H56.25V6.25Z" fill="#795548"/>
<path d="M56.25 12.5H43.75V16.6667H56.25V12.5Z" fill="#AFB42B"/>
<path d="M27.083 66.6678C27.083 71.0428 32.4997 78.5428 39.583 85.4178C33.5413 79.1678 31.2497 69.1678 31.2497 66.6678C31.2497 62.9178 33.333 60.2095 37.2913 58.3345C35.208 58.3345 32.708 58.3345 30.208 58.3345C28.1247 60.8345 27.083 63.7511 27.083 66.6678Z" fill="#F0F4C3"/>
<path d="M47.9163 33.3345C47.9163 44.5845 43.7497 51.6678 37.708 53.7511C34.3747 54.7928 31.8747 56.4595 30.208 58.3345C32.4997 58.3345 34.9997 58.3345 37.2913 58.3345C37.9163 58.1261 38.333 57.9178 38.958 57.7095C43.5413 56.2511 47.9163 51.0428 47.9163 33.3345Z" fill="#F9FBE7"/>
</svg>
