<svg width="100" height="100" viewBox="0 0 100 100" fill="none" xmlns="http://www.w3.org/2000/svg">
<path d="M39.035 72.4747L27.477 60.9173C24.2303 57.6713 24.2303 52.408 27.477 49.162L53.0223 23.616C56.2683 20.37 61.5316 20.37 64.7776 23.616L76.335 35.1733C79.581 38.42 79.581 43.6827 76.335 46.9287L50.789 72.4747C47.543 75.7207 42.2803 75.7207 39.035 72.4747Z" fill="#2BB88B"/>
<path d="M20.5604 80.421L19.789 79.6496C18.0703 77.931 18.0703 75.1457 19.789 73.427L29.8883 63.3283L36.8817 70.3216L26.783 80.421C25.0637 82.1396 22.279 82.1396 20.5604 80.421Z" fill="#FBB049"/>
<path d="M44.803 36.4893C48.537 39.5633 50.817 32.0359 55.093 32.2966C57.9083 32.4686 57.9303 34.3719 56.7063 36.8619C55.0817 39.9646 57.643 41.1559 59.339 40.0192C62.6737 38.6532 67.0137 39.5633 65.6723 43.9906C63.3083 51.7913 72.1963 45.3692 75.079 48.1846L78.7143 44.5493C82.363 40.9006 82.363 34.9866 78.7156 31.3386L68.613 21.2353C64.9643 17.5886 59.0503 17.5886 55.4016 21.2353L43.5683 33.0699C43.2583 34.2266 43.497 35.4139 44.803 36.4893Z" fill="#9A5422"/>
<path d="M76.1626 38.6819C75.4906 36.3132 75.5673 33.4712 76.0219 31.0946C77.0726 32.4799 78.3606 33.6232 79.1739 35.1939C81.7759 40.2079 77.402 43.0572 76.1626 38.6819Z" fill="#CD7934"/>
<path d="M48.7103 70.4081C48.317 70.0148 48.317 69.3768 48.7117 68.9835L64.2963 53.3988C64.6897 53.0055 65.3264 53.0048 65.721 53.3988C66.1144 53.7921 66.1144 54.4301 65.7197 54.8235L50.135 70.4081C49.7417 70.8015 49.1037 70.8015 48.7103 70.4081Z" fill="#6DC6AB"/>
<path d="M38.0538 44.4308L37.9078 44.2834C37.5798 43.9568 37.5798 43.4254 37.9065 43.0974L38.6698 42.3361C38.9964 42.0074 39.5278 42.0074 39.8558 42.3361L40.0018 42.4828C40.3298 42.8101 40.3298 43.3408 40.0018 43.6694L39.2398 44.4308C38.9131 44.7588 38.3818 44.7588 38.0538 44.4308Z" fill="#9A5422"/>
<path d="M35.4636 55.3097L35.3163 55.1636C34.9896 54.8356 34.9896 54.3043 35.3163 53.977L36.0783 53.2143C36.4063 52.8877 36.9376 52.8877 37.2643 53.2143L37.4116 53.3616C37.7396 53.6896 37.7396 54.221 37.4116 54.5477L36.6496 55.3097C36.3216 55.6377 35.7903 55.6377 35.4636 55.3097Z" fill="#9A5422"/>
<path d="M42.1985 64.1158L42.0512 63.9705C41.7245 63.6425 41.7245 63.1111 42.0512 62.7825L42.8138 62.0211C43.1411 61.6945 43.6718 61.6945 44.0004 62.0211L44.1458 62.1685C44.4745 62.4965 44.4745 63.0265 44.1458 63.3545L43.3845 64.1158C43.0565 64.4445 42.5265 64.4445 42.1985 64.1158Z" fill="#9A5422"/>
<path d="M46.3423 52.7198L46.1957 52.5725C45.8684 52.2458 45.8684 51.7145 46.1957 51.3865L46.9583 50.6245C47.285 50.2965 47.8163 50.2965 48.1443 50.6245L48.2904 50.7718C48.6184 51.0985 48.6184 51.6298 48.2904 51.9578L47.529 52.7198C47.2017 53.0465 46.671 53.0465 46.3423 52.7198Z" fill="#9A5422"/>
<path d="M52.5603 61.0084L52.413 60.8617C52.085 60.5344 52.085 60.0037 52.413 59.6751L53.1743 58.9137C53.503 58.5857 54.033 58.5857 54.361 58.9137L54.5077 59.0604C54.835 59.3877 54.835 59.919 54.5077 60.247L53.7463 61.0084C53.4183 61.3357 52.887 61.3357 52.5603 61.0084Z" fill="#9A5422"/>
<path d="M56.7042 50.6476L56.5575 50.5009C56.2289 50.1722 56.2289 49.6416 56.5575 49.3142L57.3189 48.5516C57.6469 48.2249 58.1782 48.2249 58.5049 48.5516L58.6522 48.6989C58.9789 49.0269 58.9789 49.5582 58.6522 49.8849L57.8909 50.6476C57.5622 50.9749 57.0315 50.9749 56.7042 50.6476Z" fill="#9A5422"/>
<path d="M48.4153 42.359L48.268 42.2117C47.94 41.8837 47.94 41.3523 48.268 41.0257L49.03 40.2624C49.358 39.9357 49.8893 39.9357 50.216 40.2637L50.3633 40.4097C50.69 40.7377 50.69 41.269 50.3633 41.5957L49.6013 42.359C49.2733 42.6857 48.742 42.6857 48.4153 42.359Z" fill="#9A5422"/>
</svg>
